G04*
G04 #@! TF.GenerationSoftware,Altium Limited,Altium Designer,26.5.0 (11)*
G04*
G04 Layer_Color=8421504*
G04 Board_Origin=0|0*
%FSLAX44Y44*%
%MOMM*%
G71*
G04*
G04 #@! TF.SameCoordinates,0690179D-EA46-4A91-86CB-48B9135EA117*
G04*
G04*
G04 #@! TF.FilePolarity,Positive*
G04*
G01*
G75*
%ADD18C,0.3600*%
%ADD19C,0.2800*%
%ADD20R,1.3500X0.9500*%
%ADD21R,1.9500X1.0500*%
%ADD22R,1.5000X0.9000*%
%ADD23R,1.0500X0.6500*%
%ADD24R,0.9500X1.3500*%
%ADD25R,0.9000X1.5000*%
%ADD26R,0.9000X0.9000*%
%ADD27R,1.0621X1.0637*%
%ADD28R,0.8000X1.0000*%
%ADD29R,1.0000X0.8000*%
%ADD30R,1.0637X1.0621*%
%ADD31R,1.5000X0.9000*%
%ADD32R,1.6800X1.7000*%
G36*
X409371Y360270D02*
X393371D01*
Y382270D01*
X409371D01*
Y360270D01*
D02*
G37*
G36*
X413202Y310008D02*
X414609Y308601D01*
X415370Y306764D01*
Y305769D01*
Y289769D01*
Y288775D01*
X414609Y286937D01*
X413202Y285530D01*
X411365Y284769D01*
X409375D01*
X407538Y285530D01*
X406131Y286937D01*
X405370Y288775D01*
Y289769D01*
Y305769D01*
Y306764D01*
X406131Y308601D01*
X407538Y310008D01*
X409375Y310769D01*
X411365D01*
X413202Y310008D01*
D02*
G37*
G36*
X451864Y278570D02*
X449364D01*
Y294570D01*
X451864D01*
Y278570D01*
D02*
G37*
G36*
X446865D02*
X444365D01*
Y294570D01*
X446865D01*
Y278570D01*
D02*
G37*
G36*
X441866D02*
X439367D01*
Y294570D01*
X441866D01*
Y278570D01*
D02*
G37*
G36*
X436868D02*
X434368D01*
Y294570D01*
X436868D01*
Y278570D01*
D02*
G37*
G36*
X431869D02*
X429370D01*
Y294570D01*
X431869D01*
Y278570D01*
D02*
G37*
G36*
X426871D02*
X424371D01*
Y294570D01*
X426871D01*
Y278570D01*
D02*
G37*
G36*
X512871Y360269D02*
X496871D01*
Y382268D01*
X512871D01*
Y360269D01*
D02*
G37*
G36*
X498704Y310008D02*
X500110Y308601D01*
X500872Y306764D01*
Y305769D01*
Y289769D01*
Y288775D01*
X500110Y286937D01*
X498704Y285530D01*
X496866Y284769D01*
X494877D01*
X493039Y285530D01*
X491633Y286937D01*
X490872Y288775D01*
Y289769D01*
Y305769D01*
Y306764D01*
X491633Y308601D01*
X493039Y310008D01*
X494877Y310769D01*
X496866D01*
X498704Y310008D01*
D02*
G37*
G36*
X461861Y278571D02*
X459361D01*
Y294571D01*
X461861D01*
Y278571D01*
D02*
G37*
G36*
X481855Y278570D02*
X479355D01*
Y294570D01*
X481855D01*
Y278570D01*
D02*
G37*
G36*
X476857D02*
X474357D01*
Y294570D01*
X476857D01*
Y278570D01*
D02*
G37*
G36*
X471858D02*
X469358D01*
Y294570D01*
X471858D01*
Y278570D01*
D02*
G37*
G36*
X466860D02*
X464360D01*
Y294570D01*
X466860D01*
Y278570D01*
D02*
G37*
G36*
X456862D02*
X454363D01*
Y294570D01*
X456862D01*
Y278570D01*
D02*
G37*
D18*
X485021Y303169D02*
G03*
X485021Y303169I-1801J0D01*
G01*
D19*
X480019Y312171D02*
G03*
X480019Y312171I-1400J0D01*
G01*
X471521Y312169D02*
G03*
X471521Y312169I-1400J0D01*
G01*
X467220Y303169D02*
G03*
X467220Y303169I-1400J0D01*
G01*
X463022Y312169D02*
G03*
X463022Y312169I-1400J0D01*
G01*
X458722Y303169D02*
G03*
X458722Y303169I-1400J0D01*
G01*
X450322D02*
G03*
X450322Y303169I-1400J0D01*
G01*
X446021Y312169D02*
G03*
X446021Y312169I-1400J0D01*
G01*
X441721Y303169D02*
G03*
X441721Y303169I-1400J0D01*
G01*
X437520Y312169D02*
G03*
X437520Y312169I-1400J0D01*
G01*
X429021D02*
G03*
X429021Y312169I-1400J0D01*
G01*
X424320Y303169D02*
G03*
X424320Y303169I-1400J0D01*
G01*
D20*
X937260Y265190D02*
D03*
Y250190D02*
D03*
Y217410D02*
D03*
Y232410D02*
D03*
X81280Y15360D02*
D03*
X443230Y175500D02*
D03*
X118110Y326270D02*
D03*
X78740Y355720D02*
D03*
X610870Y341510D02*
D03*
X635000D02*
D03*
X728980D02*
D03*
X756920D02*
D03*
X854710D02*
D03*
X881380D02*
D03*
X854710Y326510D02*
D03*
X881380D02*
D03*
X756920D02*
D03*
X728980D02*
D03*
X635000D02*
D03*
X610870D02*
D03*
X443230Y190500D02*
D03*
X78740Y370720D02*
D03*
X81280Y30360D02*
D03*
X118110Y311270D02*
D03*
D21*
X766400Y240030D02*
D03*
Y220030D02*
D03*
X914400Y260030D02*
D03*
X766400Y200030D02*
D03*
Y280030D02*
D03*
Y260030D02*
D03*
X914400Y300030D02*
D03*
Y280030D02*
D03*
Y220030D02*
D03*
Y200030D02*
D03*
Y160030D02*
D03*
X766400Y180030D02*
D03*
Y160030D02*
D03*
X914400Y180030D02*
D03*
X766400Y300030D02*
D03*
X914400Y240030D02*
D03*
D22*
X656220Y384300D02*
D03*
X780680D02*
D03*
X533030D02*
D03*
X829680Y352300D02*
D03*
X705220D02*
D03*
X582030D02*
D03*
X533030D02*
D03*
X582030Y384300D02*
D03*
X780680Y352300D02*
D03*
X829680Y384300D02*
D03*
X656220Y352300D02*
D03*
X705220Y384300D02*
D03*
D23*
X63930Y93420D02*
D03*
X22430D02*
D03*
X62660Y329640D02*
D03*
X21160D02*
D03*
X63930Y71920D02*
D03*
X22430D02*
D03*
X62660Y308140D02*
D03*
X21160D02*
D03*
D24*
X86480Y57150D02*
D03*
Y82550D02*
D03*
X101480D02*
D03*
Y57150D02*
D03*
D25*
X85830Y112010D02*
D03*
Y287010D02*
D03*
X98530Y112010D02*
D03*
X111230Y287010D02*
D03*
X136630Y112010D02*
D03*
X162030D02*
D03*
X225530D02*
D03*
X162030Y287010D02*
D03*
X149330D02*
D03*
X200130Y112010D02*
D03*
X111230D02*
D03*
X238230D02*
D03*
X200130Y287010D02*
D03*
X250930Y112010D02*
D03*
X238230Y287010D02*
D03*
X98530D02*
D03*
X250930D02*
D03*
X123930Y112010D02*
D03*
X149330D02*
D03*
X212830D02*
D03*
X123930Y287010D02*
D03*
X136630D02*
D03*
X174730D02*
D03*
X187430D02*
D03*
X212830D02*
D03*
X225530D02*
D03*
X187430Y112010D02*
D03*
X174730D02*
D03*
D26*
X149030Y184510D02*
D03*
Y198510D02*
D03*
Y170510D02*
D03*
X163030Y184510D02*
D03*
Y198510D02*
D03*
Y170510D02*
D03*
X177030D02*
D03*
Y184510D02*
D03*
Y198510D02*
D03*
D27*
X443230Y22860D02*
D03*
X461010Y240626D02*
D03*
X91440Y327184D02*
D03*
X106680Y14686D02*
D03*
Y31274D02*
D03*
X91440Y310596D02*
D03*
X534670Y304126D02*
D03*
X461010Y257214D02*
D03*
X443230Y39448D02*
D03*
X534670Y320714D02*
D03*
D28*
X119380Y385690D02*
D03*
D29*
X134380Y354690D02*
D03*
X104380Y369690D02*
D03*
Y354690D02*
D03*
X134380Y369690D02*
D03*
Y384690D02*
D03*
X104380D02*
D03*
D30*
X222924Y382270D02*
D03*
Y364490D02*
D03*
X312420Y284480D02*
D03*
X206336Y364490D02*
D03*
Y382270D02*
D03*
X329008Y284480D02*
D03*
D31*
X263430Y167760D02*
D03*
Y180460D02*
D03*
Y193160D02*
D03*
Y205860D02*
D03*
Y155060D02*
D03*
Y231260D02*
D03*
Y129660D02*
D03*
Y218560D02*
D03*
Y269360D02*
D03*
Y256660D02*
D03*
Y243960D02*
D03*
Y142360D02*
D03*
D32*
X517951Y235270D02*
D03*
Y271070D02*
D03*
M02*
