G04*
G04 #@! TF.GenerationSoftware,Altium Limited,Altium Designer,26.5.0 (11)*
G04*
G04 Layer_Color=32896*
G04 Board_Origin=0|0*
%FSLAX44Y44*%
%MOMM*%
G71*
G04*
G04 #@! TF.SameCoordinates,0690179D-EA46-4A91-86CB-48B9135EA117*
G04*
G04*
G04 #@! TF.FilePolarity,Positive*
G04*
G01*
G75*
%ADD10C,0.2000*%
%ADD11C,0.1270*%
%ADD13C,0.5080*%
%ADD14C,0.2540*%
%ADD15C,0.2032*%
%ADD16C,0.1524*%
%ADD87C,0.1500*%
%ADD88C,0.2007*%
%ADD89C,0.0762*%
%ADD90C,0.1250*%
G36*
X108991Y376055D02*
X111743D01*
Y375945D01*
X113834D01*
Y375835D01*
X115705D01*
Y375725D01*
X117357D01*
Y375615D01*
X118787D01*
Y375505D01*
X120218D01*
Y375395D01*
X121539D01*
Y375285D01*
X122860D01*
Y375175D01*
X123961D01*
Y375065D01*
X124951D01*
Y374955D01*
X126162D01*
Y374845D01*
X127152D01*
Y374735D01*
X128143D01*
Y374625D01*
X129244D01*
Y374515D01*
X130124D01*
Y374404D01*
X131115D01*
Y374294D01*
X131995D01*
Y374184D01*
X132876D01*
Y374074D01*
X133646D01*
Y373964D01*
X134527D01*
Y373854D01*
X135518D01*
Y373744D01*
X135627D01*
Y372093D01*
X135407D01*
Y372203D01*
X134527D01*
Y372313D01*
X133756D01*
Y372423D01*
X132876D01*
Y372533D01*
X131885D01*
Y372643D01*
X131005D01*
Y372753D01*
X130124D01*
Y372864D01*
X129134D01*
Y372974D01*
X128143D01*
Y373084D01*
X127152D01*
Y373194D01*
X126162D01*
Y373304D01*
X125061D01*
Y373414D01*
X123961D01*
Y373524D01*
X122750D01*
Y373634D01*
X121429D01*
Y373744D01*
X120218D01*
Y373854D01*
X118897D01*
Y373964D01*
X117357D01*
Y374074D01*
X115815D01*
Y374184D01*
X113834D01*
Y374294D01*
X111743D01*
Y374404D01*
X108991D01*
Y374515D01*
X102498D01*
Y374625D01*
X102387D01*
Y374515D01*
X102167D01*
Y374625D01*
X102057D01*
Y374515D01*
X96334D01*
Y374404D01*
X93472D01*
Y374294D01*
X91271D01*
Y374184D01*
X89399D01*
Y374074D01*
X87748D01*
Y373964D01*
X86318D01*
Y373854D01*
X84887D01*
Y373744D01*
X83676D01*
Y373634D01*
X82465D01*
Y373524D01*
X81255D01*
Y373414D01*
X80154D01*
Y373304D01*
X79053D01*
Y373194D01*
X78063D01*
Y373084D01*
X76962D01*
Y372974D01*
X75971D01*
Y372864D01*
X75091D01*
Y372753D01*
X74100D01*
Y372643D01*
X73220D01*
Y372533D01*
X72339D01*
Y372423D01*
X71459D01*
Y372313D01*
X70578D01*
Y372203D01*
X69698D01*
Y372093D01*
X69587D01*
Y373854D01*
X70578D01*
Y373964D01*
X71459D01*
Y374074D01*
X72339D01*
Y374184D01*
X73110D01*
Y374294D01*
X73990D01*
Y374404D01*
X75091D01*
Y374515D01*
X75971D01*
Y374625D01*
X76962D01*
Y374735D01*
X77953D01*
Y374845D01*
X79053D01*
Y374955D01*
X80154D01*
Y375065D01*
X81255D01*
Y375175D01*
X82355D01*
Y375285D01*
X83566D01*
Y375395D01*
X84887D01*
Y375505D01*
X86428D01*
Y375615D01*
X87859D01*
Y375725D01*
X89620D01*
Y375835D01*
X91271D01*
Y375945D01*
X93472D01*
Y376055D01*
X96114D01*
Y376166D01*
X108991D01*
Y376055D01*
D02*
G37*
G36*
X108441Y364058D02*
X105800D01*
Y367140D01*
X103488D01*
Y367030D01*
X103378D01*
Y366810D01*
X103488D01*
Y366700D01*
X103378D01*
Y366370D01*
X103488D01*
Y366259D01*
X103378D01*
Y365929D01*
X103488D01*
Y365819D01*
X103378D01*
Y365489D01*
X103488D01*
Y364058D01*
X100847D01*
Y365049D01*
Y365159D01*
Y371983D01*
X103488D01*
Y370442D01*
X103378D01*
Y370112D01*
X103488D01*
Y370002D01*
X103378D01*
Y369672D01*
X103488D01*
Y369562D01*
X103378D01*
Y369341D01*
X103488D01*
Y369231D01*
X104369D01*
Y369341D01*
X104479D01*
Y369231D01*
X104699D01*
Y369341D01*
X104809D01*
Y369231D01*
X105029D01*
Y369341D01*
X105139D01*
Y369231D01*
X105359D01*
Y369341D01*
X105469D01*
Y369231D01*
X105800D01*
Y371983D01*
X108441D01*
Y364058D01*
D02*
G37*
G36*
X120438Y371213D02*
X121979D01*
Y371102D01*
X123630D01*
Y370992D01*
X125171D01*
Y370882D01*
X125391D01*
Y370222D01*
X125281D01*
Y368681D01*
X125171D01*
Y367030D01*
X125061D01*
Y365489D01*
X124951D01*
Y363948D01*
X124841D01*
Y362957D01*
X124181D01*
Y363068D01*
X122640D01*
Y363178D01*
X121099D01*
Y363288D01*
X119558D01*
Y363398D01*
X118347D01*
Y364388D01*
X118457D01*
Y365379D01*
X118677D01*
Y365269D01*
X120328D01*
Y365159D01*
X121979D01*
Y365049D01*
X122420D01*
Y365819D01*
X122530D01*
Y366259D01*
X122420D01*
Y366370D01*
X120989D01*
Y366480D01*
X119558D01*
Y366590D01*
X119338D01*
Y368021D01*
X119448D01*
Y368351D01*
X120328D01*
Y368241D01*
X121759D01*
Y368131D01*
X122640D01*
Y369011D01*
X122750D01*
Y369231D01*
X121649D01*
Y369341D01*
X119998D01*
Y369451D01*
X118897D01*
Y370222D01*
X119008D01*
Y371323D01*
X120438D01*
Y371213D01*
D02*
G37*
G36*
X78393Y369562D02*
X78503D01*
Y367360D01*
X78613D01*
Y365269D01*
X78723D01*
Y363288D01*
X78833D01*
Y362517D01*
X77292D01*
Y362407D01*
X76412D01*
Y363288D01*
X76302D01*
Y365269D01*
X76192D01*
Y367030D01*
X76082D01*
Y366590D01*
X75971D01*
Y366370D01*
X75861D01*
Y366149D01*
X75751D01*
Y365929D01*
X75641D01*
Y365709D01*
X75531D01*
Y365489D01*
X75421D01*
Y365269D01*
X75311D01*
Y365049D01*
X75201D01*
Y364829D01*
X75091D01*
Y364608D01*
X74981D01*
Y364498D01*
X74871D01*
Y364278D01*
X74761D01*
Y364058D01*
X74651D01*
Y363838D01*
X74541D01*
Y363618D01*
X74430D01*
Y363398D01*
X74320D01*
Y363288D01*
X74210D01*
Y363068D01*
X74100D01*
Y362848D01*
X73990D01*
Y362627D01*
X73880D01*
Y362407D01*
X73770D01*
Y362297D01*
X73110D01*
Y362187D01*
X71349D01*
Y362627D01*
X71238D01*
Y364608D01*
X71129D01*
Y366810D01*
X71018D01*
Y368901D01*
X70908D01*
Y370112D01*
X72009D01*
Y370222D01*
X73330D01*
Y369011D01*
X73440D01*
Y366810D01*
X73550D01*
Y365599D01*
X73660D01*
Y366039D01*
X73770D01*
Y366370D01*
X73880D01*
Y366590D01*
X73990D01*
Y366810D01*
X74100D01*
Y366920D01*
X74210D01*
Y367140D01*
X74320D01*
Y367360D01*
X74430D01*
Y367580D01*
X74541D01*
Y367800D01*
X74651D01*
Y368021D01*
X74761D01*
Y368131D01*
X74871D01*
Y368351D01*
X74981D01*
Y368571D01*
X75091D01*
Y368791D01*
X75201D01*
Y369011D01*
X75311D01*
Y369231D01*
X75421D01*
Y369451D01*
X75531D01*
Y369672D01*
X75641D01*
Y369892D01*
X75751D01*
Y370112D01*
X75861D01*
Y370222D01*
X75971D01*
Y370332D01*
X76302D01*
Y370442D01*
X78283D01*
Y370552D01*
X78393D01*
Y369562D01*
D02*
G37*
G36*
X114385Y371763D02*
X114935D01*
Y371653D01*
X115265D01*
Y371543D01*
X115485D01*
Y371433D01*
X115705D01*
Y371323D01*
X115926D01*
Y371213D01*
X116036D01*
Y371102D01*
X116256D01*
Y370992D01*
X116366D01*
Y370882D01*
X116476D01*
Y370772D01*
X116586D01*
Y370662D01*
X116696D01*
Y370552D01*
X116806D01*
Y370442D01*
X116916D01*
Y370222D01*
X117026D01*
Y370112D01*
X117136D01*
Y369892D01*
X117246D01*
Y369672D01*
X117357D01*
Y369341D01*
X117466D01*
Y369011D01*
X117577D01*
Y368241D01*
X117687D01*
Y367360D01*
X117577D01*
Y366590D01*
X117466D01*
Y366149D01*
X117357D01*
Y365819D01*
X117246D01*
Y365599D01*
X117136D01*
Y365379D01*
X117026D01*
Y365159D01*
X116916D01*
Y365049D01*
X116806D01*
Y364829D01*
X116696D01*
Y364719D01*
X116586D01*
Y364608D01*
X116476D01*
Y364498D01*
X116366D01*
Y364388D01*
X116256D01*
Y364278D01*
X116146D01*
Y364168D01*
X115926D01*
Y364058D01*
X115815D01*
Y363948D01*
X115595D01*
Y363838D01*
X115375D01*
Y363728D01*
X115045D01*
Y363618D01*
X114605D01*
Y363508D01*
X112624D01*
Y363618D01*
X112073D01*
Y363728D01*
X111743D01*
Y363838D01*
X111523D01*
Y363948D01*
X111303D01*
Y364058D01*
X111193D01*
Y364168D01*
X110973D01*
Y364278D01*
X110863D01*
Y364388D01*
X110752D01*
Y364498D01*
X110642D01*
Y364608D01*
X110532D01*
Y364719D01*
X110422D01*
Y364829D01*
X110312D01*
Y364939D01*
X110202D01*
Y365159D01*
X110092D01*
Y365269D01*
X109982D01*
Y365599D01*
X109872D01*
Y365929D01*
X109762D01*
Y366370D01*
X109652D01*
Y367030D01*
X109762D01*
Y366920D01*
X111853D01*
Y366810D01*
X112073D01*
Y366480D01*
X112183D01*
Y366149D01*
X112293D01*
Y365929D01*
X112403D01*
Y365819D01*
X112514D01*
Y365709D01*
X112734D01*
Y365599D01*
X112954D01*
Y365489D01*
X113944D01*
Y365599D01*
X114275D01*
Y365709D01*
X114385D01*
Y365819D01*
X114495D01*
Y365929D01*
X114605D01*
Y366039D01*
X114715D01*
Y366259D01*
X114825D01*
Y366590D01*
X114935D01*
Y366700D01*
Y366920D01*
X115045D01*
Y368791D01*
X114935D01*
Y369121D01*
X114825D01*
Y369231D01*
X114715D01*
Y369451D01*
X114605D01*
Y369562D01*
X114495D01*
Y369672D01*
X114275D01*
Y369782D01*
X114054D01*
Y369892D01*
X113064D01*
Y369782D01*
X112844D01*
Y369672D01*
X112624D01*
Y369562D01*
X112514D01*
Y369341D01*
X112403D01*
Y369121D01*
X112293D01*
Y368791D01*
X112183D01*
Y368681D01*
X112073D01*
Y368791D01*
X110202D01*
Y368901D01*
X109872D01*
Y369451D01*
X109982D01*
Y369782D01*
X110092D01*
Y370112D01*
X110202D01*
Y370332D01*
X110312D01*
Y370442D01*
X110422D01*
Y370662D01*
X110532D01*
Y370772D01*
X110642D01*
Y370882D01*
X110752D01*
Y370992D01*
X110863D01*
Y371102D01*
X110973D01*
Y371213D01*
X111193D01*
Y371323D01*
X111303D01*
Y371433D01*
X111523D01*
Y371543D01*
X111853D01*
Y371653D01*
X112073D01*
Y371763D01*
X112624D01*
Y371873D01*
X114385D01*
Y371763D01*
D02*
G37*
G36*
X95783Y371983D02*
X96664D01*
Y371873D01*
X96994D01*
Y371763D01*
X97324D01*
Y371653D01*
X97544D01*
Y371543D01*
X97765D01*
Y371433D01*
X97875D01*
Y371323D01*
X97985D01*
Y371213D01*
X98205D01*
Y371102D01*
X98315D01*
Y370992D01*
X98425D01*
Y370882D01*
X98535D01*
Y370772D01*
X98645D01*
Y370662D01*
X98755D01*
Y370442D01*
X98865D01*
Y370332D01*
X98975D01*
Y370112D01*
X99085D01*
Y369892D01*
X99195D01*
Y369672D01*
X99305D01*
Y369231D01*
X99416D01*
Y368791D01*
X99526D01*
Y366810D01*
X99416D01*
Y366370D01*
X99305D01*
Y366039D01*
X99195D01*
Y365709D01*
X99085D01*
Y365489D01*
X98975D01*
Y365379D01*
X98865D01*
Y365159D01*
X98755D01*
Y365049D01*
X98645D01*
Y364939D01*
X98535D01*
Y364829D01*
X98425D01*
Y364719D01*
X98315D01*
Y364608D01*
X98205D01*
Y364498D01*
X98095D01*
Y364388D01*
X97875D01*
Y364278D01*
X97765D01*
Y364168D01*
X97544D01*
Y364058D01*
X97324D01*
Y363948D01*
X96994D01*
Y363838D01*
X96664D01*
Y363728D01*
X96004D01*
Y363618D01*
X94793D01*
Y363728D01*
X94132D01*
Y363838D01*
X93802D01*
Y363948D01*
X93472D01*
Y364058D01*
X93252D01*
Y364168D01*
X93032D01*
Y364278D01*
X92922D01*
Y364388D01*
X92702D01*
Y364498D01*
X92591D01*
Y364608D01*
X92481D01*
Y364719D01*
X92371D01*
Y364829D01*
X92261D01*
Y365049D01*
X92151D01*
Y365159D01*
X92041D01*
Y365269D01*
X91931D01*
Y365489D01*
X91821D01*
Y365599D01*
X91711D01*
Y365929D01*
X91601D01*
Y366149D01*
X91491D01*
Y366590D01*
X91381D01*
Y367140D01*
X91271D01*
Y368681D01*
X91381D01*
Y369231D01*
X91491D01*
Y369672D01*
X91601D01*
Y369892D01*
X91711D01*
Y370112D01*
X91821D01*
Y370332D01*
X91931D01*
Y370442D01*
X92041D01*
Y370552D01*
X92151D01*
Y370772D01*
X92261D01*
Y370882D01*
X92371D01*
Y370992D01*
X92481D01*
Y371102D01*
X92702D01*
Y371213D01*
X92812D01*
Y371323D01*
X92922D01*
Y371433D01*
X93142D01*
Y371543D01*
X93362D01*
Y371653D01*
X93582D01*
Y371763D01*
X93912D01*
Y371873D01*
X94242D01*
Y371983D01*
X95123D01*
Y372093D01*
X95783D01*
Y371983D01*
D02*
G37*
G36*
X85988Y370772D02*
X86097D01*
Y369121D01*
X86208D01*
Y367580D01*
X86318D01*
Y365929D01*
X86428D01*
Y364498D01*
X86538D01*
Y363288D01*
X85437D01*
Y363178D01*
X83896D01*
Y363068D01*
X82355D01*
Y362957D01*
X80814D01*
Y362848D01*
X80044D01*
Y363838D01*
X79934D01*
Y364829D01*
X81585D01*
Y364939D01*
X83126D01*
Y365049D01*
X83896D01*
Y365709D01*
X83786D01*
Y366259D01*
X82355D01*
Y366149D01*
X80704D01*
Y366039D01*
X80594D01*
Y366590D01*
X80484D01*
Y367910D01*
X81585D01*
Y368021D01*
X83126D01*
Y368131D01*
X83676D01*
Y368791D01*
X83566D01*
Y369231D01*
X83456D01*
Y369121D01*
X81805D01*
Y369011D01*
X80154D01*
Y368901D01*
X79824D01*
Y369231D01*
X79714D01*
Y370662D01*
X79604D01*
Y370772D01*
X79934D01*
Y370882D01*
X81475D01*
Y370992D01*
X83016D01*
Y371102D01*
X84557D01*
Y371213D01*
X85988D01*
Y370772D01*
D02*
G37*
G36*
X128143Y370442D02*
X129244D01*
Y370332D01*
X129684D01*
Y370002D01*
X129574D01*
Y369011D01*
X129464D01*
Y367910D01*
X129354D01*
Y367690D01*
X129464D01*
Y367580D01*
X130454D01*
Y367470D01*
X131445D01*
Y367360D01*
X131775D01*
Y367910D01*
X131885D01*
Y368901D01*
X131995D01*
Y370002D01*
X132105D01*
Y370112D01*
X132325D01*
Y370002D01*
X133426D01*
Y369892D01*
X134527D01*
Y369782D01*
X134637D01*
Y369672D01*
X134527D01*
Y368681D01*
X134417D01*
Y367690D01*
X134307D01*
Y366590D01*
X134197D01*
Y365489D01*
X134087D01*
Y364498D01*
X133976D01*
Y363508D01*
X133867D01*
Y362407D01*
X133756D01*
Y361857D01*
X133536D01*
Y361967D01*
X132546D01*
Y362077D01*
X131445D01*
Y362187D01*
X131225D01*
Y362627D01*
X131335D01*
Y363728D01*
X131445D01*
Y364829D01*
X131555D01*
Y365269D01*
X130564D01*
Y365379D01*
X129574D01*
Y365489D01*
X129134D01*
Y364829D01*
X129024D01*
Y363728D01*
X128913D01*
Y362737D01*
X128803D01*
Y362407D01*
X128363D01*
Y362517D01*
X127262D01*
Y362627D01*
X126382D01*
Y362737D01*
X126272D01*
Y362957D01*
X126382D01*
Y364058D01*
X126492D01*
Y365049D01*
X126602D01*
Y366039D01*
X126712D01*
Y367140D01*
X126822D01*
Y368241D01*
X126932D01*
Y369231D01*
X127042D01*
Y369341D01*
Y370222D01*
X127152D01*
Y370552D01*
X128143D01*
Y370442D01*
D02*
G37*
G36*
X97434Y360206D02*
X97654D01*
Y359986D01*
X97765D01*
Y359876D01*
X97875D01*
Y359766D01*
X97985D01*
Y359546D01*
X98095D01*
Y359325D01*
X98205D01*
Y359105D01*
X98315D01*
Y358995D01*
X98425D01*
Y358775D01*
X98535D01*
Y358555D01*
X98645D01*
Y358445D01*
X98755D01*
Y358225D01*
X98865D01*
Y358115D01*
X99746D01*
Y358004D01*
X101177D01*
Y357895D01*
X108661D01*
Y358004D01*
X108771D01*
Y357895D01*
X108881D01*
Y358004D01*
X115155D01*
Y358115D01*
X115265D01*
Y358004D01*
X115375D01*
Y358115D01*
X115595D01*
Y358004D01*
X115705D01*
Y358115D01*
X116806D01*
Y358004D01*
X117246D01*
Y357895D01*
X117577D01*
Y357784D01*
X117797D01*
Y357674D01*
X117907D01*
Y357564D01*
X118127D01*
Y357454D01*
X118237D01*
Y357344D01*
X118457D01*
Y357234D01*
X118567D01*
Y357124D01*
X118677D01*
Y357014D01*
X118787D01*
Y356904D01*
X118897D01*
Y356794D01*
X119008D01*
Y356684D01*
X119117D01*
Y356574D01*
X119228D01*
Y356464D01*
X119338D01*
Y356353D01*
X119448D01*
Y356244D01*
X119558D01*
Y356023D01*
X119668D01*
Y355913D01*
X119778D01*
Y355803D01*
X119888D01*
Y355583D01*
X119998D01*
Y355363D01*
X120108D01*
Y355143D01*
X120218D01*
Y354923D01*
X120328D01*
Y354042D01*
X120218D01*
Y353822D01*
X119998D01*
Y353712D01*
X119888D01*
Y353602D01*
X119558D01*
Y353492D01*
X118897D01*
Y353382D01*
X117466D01*
Y353272D01*
X113614D01*
Y353162D01*
X113504D01*
Y353272D01*
X113394D01*
Y353162D01*
X108111D01*
Y353051D01*
X105800D01*
Y352942D01*
X104149D01*
Y352831D01*
X102718D01*
Y352942D01*
X101397D01*
Y353051D01*
X100736D01*
Y353162D01*
X100296D01*
Y353272D01*
X99856D01*
Y353382D01*
X99526D01*
Y353492D01*
X99305D01*
Y353602D01*
X98975D01*
Y353712D01*
X98755D01*
Y353822D01*
X98645D01*
Y353932D01*
X98425D01*
Y354042D01*
X98205D01*
Y354152D01*
X98095D01*
Y354262D01*
X97985D01*
Y354372D01*
X97875D01*
Y354482D01*
X97765D01*
Y354593D01*
X97654D01*
Y354702D01*
X97544D01*
Y354813D01*
X97434D01*
Y354923D01*
X97324D01*
Y355033D01*
X97214D01*
Y355253D01*
X97104D01*
Y355473D01*
X96994D01*
Y355693D01*
X96884D01*
Y355913D01*
X96774D01*
Y356244D01*
X96664D01*
Y356904D01*
X96554D01*
Y358335D01*
X96664D01*
Y358995D01*
X96774D01*
Y359435D01*
X96884D01*
Y359876D01*
X96994D01*
Y360206D01*
X97104D01*
Y360316D01*
X97434D01*
Y360206D01*
D02*
G37*
G36*
X103378Y351951D02*
X104589D01*
Y351841D01*
X104699D01*
Y351291D01*
X104809D01*
Y350850D01*
X104919D01*
Y350520D01*
X105029D01*
Y350190D01*
X105139D01*
Y349860D01*
X105249D01*
Y349640D01*
X105359D01*
Y349419D01*
X105469D01*
Y349199D01*
X105579D01*
Y349089D01*
X105689D01*
Y348869D01*
X105800D01*
Y348759D01*
X105910D01*
Y348539D01*
X106020D01*
Y348429D01*
X106130D01*
Y348319D01*
X106240D01*
Y348209D01*
X106350D01*
Y348098D01*
X106460D01*
Y347989D01*
X106570D01*
Y347878D01*
X106680D01*
Y347768D01*
X106790D01*
Y347658D01*
X106900D01*
Y347548D01*
X107010D01*
Y347438D01*
X107230D01*
Y347328D01*
X107340D01*
Y347218D01*
X107451D01*
Y347108D01*
X107671D01*
Y346998D01*
X107781D01*
Y346888D01*
X108001D01*
Y346778D01*
X108111D01*
Y346668D01*
X108331D01*
Y346558D01*
X108441D01*
Y346447D01*
X108661D01*
Y346338D01*
X108881D01*
Y346117D01*
X108771D01*
Y345897D01*
X108661D01*
Y345787D01*
X108551D01*
Y345567D01*
X108441D01*
Y345457D01*
X108331D01*
Y345237D01*
X108221D01*
Y345127D01*
X108111D01*
Y345017D01*
X108001D01*
Y344907D01*
X107891D01*
Y344687D01*
X107781D01*
Y344576D01*
X107671D01*
Y344466D01*
X107561D01*
Y344356D01*
X107451D01*
Y344246D01*
X107340D01*
Y344136D01*
X107230D01*
Y344026D01*
X107120D01*
Y343916D01*
X107010D01*
Y343806D01*
X106900D01*
Y343696D01*
X106680D01*
Y343586D01*
X106570D01*
Y343476D01*
X106460D01*
Y343366D01*
X106350D01*
Y343256D01*
X106130D01*
Y343145D01*
X106020D01*
Y343036D01*
X105910D01*
Y342925D01*
X105689D01*
Y342815D01*
X105579D01*
Y342705D01*
X105029D01*
Y342815D01*
X104589D01*
Y342925D01*
X104369D01*
Y343036D01*
X104149D01*
Y343145D01*
X103928D01*
Y343256D01*
X103708D01*
Y343366D01*
X103488D01*
Y343476D01*
X103268D01*
Y343586D01*
X103158D01*
Y343696D01*
X103048D01*
Y343806D01*
X102828D01*
Y343916D01*
X102718D01*
Y344026D01*
X102607D01*
Y344136D01*
X102387D01*
Y344246D01*
X102277D01*
Y344356D01*
X102167D01*
Y344466D01*
X102057D01*
Y344576D01*
X101947D01*
Y344687D01*
X101837D01*
Y344796D01*
X101727D01*
Y344907D01*
X101617D01*
Y345017D01*
X101507D01*
Y345127D01*
X101397D01*
Y345237D01*
X101287D01*
Y345347D01*
X101177D01*
Y345457D01*
X101067D01*
Y345677D01*
X100956D01*
Y345787D01*
X100847D01*
Y345897D01*
X100736D01*
Y346007D01*
X100626D01*
Y346227D01*
X100516D01*
Y346338D01*
X100406D01*
Y346558D01*
X100296D01*
Y346668D01*
X100186D01*
Y346888D01*
X100076D01*
Y346998D01*
X99966D01*
Y347218D01*
X99856D01*
Y347438D01*
X99746D01*
Y347658D01*
X99636D01*
Y347878D01*
X99526D01*
Y348098D01*
X99416D01*
Y348429D01*
X99305D01*
Y348759D01*
X99195D01*
Y349089D01*
X99085D01*
Y349749D01*
X98975D01*
Y350630D01*
X99085D01*
Y351180D01*
X99195D01*
Y351511D01*
X99305D01*
Y351731D01*
X99416D01*
Y351951D01*
X100186D01*
Y352061D01*
X100296D01*
Y351951D01*
X100406D01*
Y352061D01*
X103158D01*
Y351951D01*
X103268D01*
Y352061D01*
X103378D01*
Y351951D01*
D02*
G37*
G36*
X113504Y352281D02*
X113724D01*
Y352171D01*
X113834D01*
Y352061D01*
X113944D01*
Y351841D01*
X114054D01*
Y351621D01*
X114164D01*
Y350630D01*
X114054D01*
Y350410D01*
X113944D01*
Y350300D01*
X113834D01*
Y350080D01*
X113724D01*
Y349970D01*
X113614D01*
Y349860D01*
X113504D01*
Y349749D01*
X113394D01*
Y349640D01*
X113284D01*
Y349529D01*
X113174D01*
Y349419D01*
X112954D01*
Y349309D01*
X112844D01*
Y349199D01*
X112624D01*
Y349089D01*
X112514D01*
Y348979D01*
X112293D01*
Y348869D01*
X112073D01*
Y348759D01*
X111853D01*
Y348649D01*
X111633D01*
Y348539D01*
X111413D01*
Y348429D01*
X111083D01*
Y348319D01*
X109652D01*
Y348429D01*
X109212D01*
Y348539D01*
X108881D01*
Y348649D01*
X108661D01*
Y348759D01*
X108441D01*
Y348869D01*
X108221D01*
Y348979D01*
X108001D01*
Y349089D01*
X107891D01*
Y349199D01*
X107671D01*
Y349309D01*
X107561D01*
Y349419D01*
X107451D01*
Y349529D01*
X107340D01*
Y349640D01*
X107230D01*
Y349749D01*
X107120D01*
Y349860D01*
X107010D01*
Y350080D01*
X106900D01*
Y350300D01*
X106790D01*
Y350520D01*
X106680D01*
Y350960D01*
X106570D01*
Y351511D01*
Y351621D01*
X106680D01*
Y351951D01*
X106790D01*
Y352171D01*
X106900D01*
Y352281D01*
X107120D01*
Y352391D01*
X107781D01*
Y352281D01*
X108111D01*
Y352171D01*
X108331D01*
Y352061D01*
X108551D01*
Y351951D01*
X108661D01*
Y351841D01*
X108881D01*
Y351731D01*
X108991D01*
Y351621D01*
X109101D01*
Y351511D01*
X109212D01*
Y351400D01*
X109432D01*
Y351291D01*
X109542D01*
Y351180D01*
X109762D01*
Y351070D01*
X110202D01*
Y350960D01*
X110312D01*
Y351070D01*
X110863D01*
Y351180D01*
X111083D01*
Y351291D01*
X111303D01*
Y351400D01*
X111413D01*
Y351511D01*
X111633D01*
Y351621D01*
X111743D01*
Y351731D01*
X111963D01*
Y351841D01*
X112073D01*
Y351951D01*
X112293D01*
Y352061D01*
X112403D01*
Y352171D01*
X112624D01*
Y352281D01*
X112844D01*
Y352391D01*
X113504D01*
Y352281D01*
D02*
G37*
G36*
X88739Y355583D02*
X91821D01*
Y355473D01*
X94242D01*
Y355363D01*
X96004D01*
Y354923D01*
X96114D01*
Y354152D01*
X96224D01*
Y352501D01*
X96334D01*
Y350080D01*
X96114D01*
Y349970D01*
X95673D01*
Y349860D01*
X95233D01*
Y349749D01*
X94793D01*
Y349640D01*
X94353D01*
Y349529D01*
X93802D01*
Y349419D01*
X93362D01*
Y349309D01*
X92922D01*
Y349199D01*
X92481D01*
Y349089D01*
X92041D01*
Y348979D01*
X91491D01*
Y348869D01*
X91051D01*
Y348759D01*
X90500D01*
Y348649D01*
X90060D01*
Y348539D01*
X89510D01*
Y348429D01*
X88959D01*
Y348319D01*
X88409D01*
Y348209D01*
X87859D01*
Y348098D01*
X87418D01*
Y347989D01*
X86758D01*
Y347878D01*
X86208D01*
Y347768D01*
X85657D01*
Y347658D01*
X84997D01*
Y347548D01*
X84446D01*
Y347438D01*
X83896D01*
Y347328D01*
X83236D01*
Y347218D01*
X82575D01*
Y347108D01*
X82025D01*
Y346998D01*
X81365D01*
Y346888D01*
X80704D01*
Y346778D01*
X80044D01*
Y346668D01*
X79384D01*
Y346558D01*
X78723D01*
Y346447D01*
X78063D01*
Y346338D01*
X77402D01*
Y346227D01*
X76852D01*
Y346338D01*
X76522D01*
Y346447D01*
X76302D01*
Y346558D01*
X76192D01*
Y346668D01*
X76082D01*
Y346778D01*
X75971D01*
Y346888D01*
X75861D01*
Y346998D01*
X75751D01*
Y347218D01*
X75641D01*
Y347438D01*
X75531D01*
Y347658D01*
X75421D01*
Y347878D01*
X75311D01*
Y348209D01*
X75201D01*
Y348539D01*
X75091D01*
Y348869D01*
X74981D01*
Y349419D01*
X74871D01*
Y350080D01*
X74761D01*
Y352831D01*
X74871D01*
Y353492D01*
X74981D01*
Y353932D01*
X75091D01*
Y354262D01*
X75201D01*
Y354482D01*
X75311D01*
Y354702D01*
X75421D01*
Y354923D01*
X75531D01*
Y355033D01*
X75641D01*
Y355143D01*
X75751D01*
Y355363D01*
X75971D01*
Y355473D01*
X76082D01*
Y355583D01*
X76412D01*
Y355693D01*
X88739D01*
Y355583D01*
D02*
G37*
G36*
X118677Y351511D02*
X120328D01*
Y351400D01*
X121429D01*
Y351291D01*
X122420D01*
Y351180D01*
X123300D01*
Y351070D01*
X124071D01*
Y350960D01*
X124731D01*
Y350850D01*
X125391D01*
Y350740D01*
X126052D01*
Y350630D01*
X126602D01*
Y350520D01*
X127262D01*
Y350410D01*
X127703D01*
Y350300D01*
X128253D01*
Y350190D01*
X128803D01*
Y350080D01*
X129134D01*
Y349970D01*
X129354D01*
Y349860D01*
X129574D01*
Y349749D01*
X129794D01*
Y349640D01*
X129904D01*
Y349529D01*
X130124D01*
Y349419D01*
X130234D01*
Y349309D01*
X130344D01*
Y349199D01*
X130454D01*
Y348979D01*
X130564D01*
Y348869D01*
X130674D01*
Y348649D01*
X130785D01*
Y348429D01*
X130895D01*
Y348098D01*
X131005D01*
Y347658D01*
X131115D01*
Y346888D01*
X131225D01*
Y345127D01*
X131115D01*
Y343476D01*
X130344D01*
Y343586D01*
X130014D01*
Y343696D01*
X129794D01*
Y343806D01*
X129684D01*
Y343916D01*
X129574D01*
Y344026D01*
X129464D01*
Y344136D01*
X129354D01*
Y344246D01*
X129244D01*
Y344356D01*
X129024D01*
Y344466D01*
X127813D01*
Y344356D01*
X127042D01*
Y344246D01*
X126162D01*
Y344136D01*
X125391D01*
Y344026D01*
X124621D01*
Y343916D01*
X123961D01*
Y343806D01*
X123190D01*
Y343696D01*
X122420D01*
Y343586D01*
X121759D01*
Y343476D01*
X121099D01*
Y343366D01*
X120328D01*
Y343256D01*
X119668D01*
Y343145D01*
X119008D01*
Y343036D01*
X118347D01*
Y342925D01*
X117687D01*
Y342815D01*
X116916D01*
Y342705D01*
X116256D01*
Y342595D01*
X115705D01*
Y342485D01*
X115045D01*
Y342375D01*
X114385D01*
Y342265D01*
X113834D01*
Y342155D01*
X113174D01*
Y342045D01*
X112624D01*
Y341935D01*
X111963D01*
Y341825D01*
X111413D01*
Y341715D01*
X110863D01*
Y341605D01*
X110312D01*
Y341494D01*
X109762D01*
Y341385D01*
X109101D01*
Y341274D01*
X108331D01*
Y341385D01*
X108001D01*
Y341494D01*
X107891D01*
Y341605D01*
X107781D01*
Y342155D01*
X107891D01*
Y342265D01*
X108001D01*
Y342375D01*
X108111D01*
Y342485D01*
X108221D01*
Y342595D01*
X108331D01*
Y342705D01*
X108441D01*
Y342815D01*
X108551D01*
Y342925D01*
X108661D01*
Y343036D01*
X108771D01*
Y343145D01*
X108881D01*
Y343256D01*
X108991D01*
Y343366D01*
X109101D01*
Y343476D01*
X109212D01*
Y343586D01*
X109322D01*
Y343696D01*
X109432D01*
Y343806D01*
X109542D01*
Y343916D01*
X109652D01*
Y344136D01*
X109872D01*
Y344356D01*
X110092D01*
Y344576D01*
X110312D01*
Y344796D01*
X110422D01*
Y344907D01*
X110532D01*
Y345017D01*
X110642D01*
Y345127D01*
X110752D01*
Y345237D01*
X110863D01*
Y345347D01*
X110973D01*
Y345457D01*
X111083D01*
Y345567D01*
X111193D01*
Y345677D01*
X111303D01*
Y345787D01*
X111413D01*
Y345897D01*
X111523D01*
Y346007D01*
X111633D01*
Y346117D01*
X111743D01*
Y346227D01*
X111853D01*
Y346338D01*
X111963D01*
Y346447D01*
X112073D01*
Y346558D01*
X112183D01*
Y346668D01*
X112293D01*
Y346778D01*
X112403D01*
Y346888D01*
X112514D01*
Y346998D01*
X112624D01*
Y347108D01*
X112734D01*
Y347218D01*
X112844D01*
Y347328D01*
X112954D01*
Y347438D01*
X113064D01*
Y347548D01*
X113174D01*
Y347658D01*
X113284D01*
Y347768D01*
X113394D01*
Y347878D01*
X113504D01*
Y347989D01*
X113614D01*
Y348098D01*
X113724D01*
Y348209D01*
X113834D01*
Y348319D01*
X113944D01*
Y348429D01*
X114054D01*
Y348539D01*
X114164D01*
Y348649D01*
X114275D01*
Y348759D01*
X114385D01*
Y348869D01*
X114495D01*
Y348979D01*
X114605D01*
Y349089D01*
X114715D01*
Y349199D01*
X114825D01*
Y349309D01*
X114935D01*
Y349419D01*
X115045D01*
Y349529D01*
X115155D01*
Y349640D01*
X115265D01*
Y349749D01*
X115375D01*
Y349860D01*
X115595D01*
Y350080D01*
X115815D01*
Y350190D01*
X115926D01*
Y350300D01*
X116036D01*
Y350410D01*
X116146D01*
Y350520D01*
X116256D01*
Y350630D01*
X116476D01*
Y350740D01*
X116586D01*
Y350850D01*
X116696D01*
Y350960D01*
X116806D01*
Y351070D01*
X116916D01*
Y351180D01*
X117136D01*
Y351291D01*
X117246D01*
Y351400D01*
X117357D01*
Y351511D01*
X117577D01*
Y351621D01*
X118677D01*
Y351511D01*
D02*
G37*
G36*
X117466Y340724D02*
X117687D01*
Y340614D01*
X117797D01*
Y340284D01*
X117577D01*
Y340174D01*
X117246D01*
Y340064D01*
X116916D01*
Y339954D01*
X116476D01*
Y339843D01*
X116146D01*
Y339734D01*
X115815D01*
Y339623D01*
X115485D01*
Y339513D01*
X115155D01*
Y339403D01*
X114715D01*
Y339293D01*
X114385D01*
Y339183D01*
X114054D01*
Y339073D01*
X113614D01*
Y338963D01*
X113284D01*
Y338853D01*
X112954D01*
Y338743D01*
X112624D01*
Y338633D01*
X112183D01*
Y338523D01*
X111853D01*
Y338413D01*
X111523D01*
Y338303D01*
X111193D01*
Y338192D01*
X110752D01*
Y338083D01*
X110422D01*
Y337972D01*
X110092D01*
Y337862D01*
X109762D01*
Y337752D01*
X109322D01*
Y337642D01*
X108991D01*
Y337532D01*
X108661D01*
Y337422D01*
X108331D01*
Y337312D01*
X107891D01*
Y337202D01*
X107561D01*
Y337092D01*
X107230D01*
Y336982D01*
X106790D01*
Y336872D01*
X106460D01*
Y336762D01*
X106130D01*
Y336652D01*
X105800D01*
Y336541D01*
X105359D01*
Y336432D01*
X105029D01*
Y336321D01*
X104699D01*
Y336211D01*
X104369D01*
Y336101D01*
X103928D01*
Y335991D01*
X103598D01*
Y335881D01*
X103268D01*
Y335771D01*
X102718D01*
Y335661D01*
X102167D01*
Y336211D01*
X102277D01*
Y336541D01*
X102387D01*
Y336872D01*
X102498D01*
Y337092D01*
X102607D01*
Y337202D01*
X102718D01*
Y337312D01*
Y337422D01*
X102828D01*
Y337532D01*
X102938D01*
Y337642D01*
X103048D01*
Y337752D01*
X103158D01*
Y337862D01*
X103268D01*
Y337972D01*
X103378D01*
Y338083D01*
X103488D01*
Y338192D01*
X103598D01*
Y338303D01*
X103708D01*
Y338413D01*
X103928D01*
Y338523D01*
X104038D01*
Y338633D01*
X104258D01*
Y338743D01*
X104479D01*
Y338853D01*
X104699D01*
Y338963D01*
X104919D01*
Y339073D01*
X105139D01*
Y339183D01*
X105359D01*
Y339293D01*
X105689D01*
Y339403D01*
X105910D01*
Y339513D01*
X106350D01*
Y339623D01*
X106680D01*
Y339734D01*
X107120D01*
Y339843D01*
X107561D01*
Y339954D01*
X108111D01*
Y340064D01*
X108771D01*
Y340174D01*
X109652D01*
Y340284D01*
X110752D01*
Y340394D01*
X113834D01*
Y340504D01*
X114605D01*
Y340614D01*
X115155D01*
Y340724D01*
X115926D01*
Y340834D01*
X117466D01*
Y340724D01*
D02*
G37*
G36*
X97214Y347768D02*
X97324D01*
Y347658D01*
X97434D01*
Y347548D01*
X97544D01*
Y347438D01*
X97654D01*
Y347218D01*
X97765D01*
Y346998D01*
X97875D01*
Y346888D01*
X97985D01*
Y346668D01*
X98095D01*
Y346447D01*
X98205D01*
Y346117D01*
X98315D01*
Y345897D01*
X98425D01*
Y345567D01*
X98535D01*
Y345017D01*
X98645D01*
Y344466D01*
X98535D01*
Y344136D01*
X98425D01*
Y344026D01*
X98205D01*
Y343916D01*
X97985D01*
Y343806D01*
X97765D01*
Y343696D01*
X97544D01*
Y343586D01*
X97434D01*
Y343476D01*
X97214D01*
Y343366D01*
X96994D01*
Y343256D01*
X96774D01*
Y343145D01*
X96554D01*
Y343036D01*
X96334D01*
Y342925D01*
X96224D01*
Y342815D01*
X96004D01*
Y342705D01*
X95783D01*
Y342595D01*
X95563D01*
Y342485D01*
X95343D01*
Y342375D01*
X95123D01*
Y342265D01*
X94903D01*
Y342155D01*
X94683D01*
Y342045D01*
X94463D01*
Y341935D01*
X94242D01*
Y341825D01*
X94022D01*
Y341715D01*
X93802D01*
Y341605D01*
X93692D01*
Y341494D01*
X93472D01*
Y341385D01*
X93252D01*
Y341274D01*
X93032D01*
Y341164D01*
X92812D01*
Y341054D01*
X92591D01*
Y340944D01*
X92371D01*
Y340834D01*
X92151D01*
Y340724D01*
X91931D01*
Y340614D01*
X91711D01*
Y340504D01*
X91491D01*
Y340394D01*
X91271D01*
Y340284D01*
X91051D01*
Y340174D01*
X90830D01*
Y340064D01*
X90610D01*
Y339954D01*
X90390D01*
Y339843D01*
X90170D01*
Y339734D01*
X89950D01*
Y339623D01*
X89730D01*
Y339513D01*
X89510D01*
Y339403D01*
X89290D01*
Y339293D01*
X89069D01*
Y339183D01*
X88849D01*
Y339073D01*
X88629D01*
Y338963D01*
X88409D01*
Y338853D01*
X88189D01*
Y338743D01*
X87969D01*
Y338633D01*
X87748D01*
Y338523D01*
X87528D01*
Y338413D01*
X87308D01*
Y338303D01*
X87088D01*
Y338192D01*
X86868D01*
Y338083D01*
X86648D01*
Y337972D01*
X86428D01*
Y337862D01*
X86208D01*
Y337752D01*
X85988D01*
Y337642D01*
X85767D01*
Y337532D01*
X85437D01*
Y337422D01*
X85217D01*
Y337312D01*
X84997D01*
Y337202D01*
X84777D01*
Y337092D01*
X84557D01*
Y336982D01*
X84337D01*
Y336872D01*
X84116D01*
Y336762D01*
X83786D01*
Y336652D01*
X83566D01*
Y336541D01*
X83346D01*
Y336432D01*
X83016D01*
Y336321D01*
X82795D01*
Y336211D01*
X82575D01*
Y336101D01*
X82355D01*
Y335991D01*
X82025D01*
Y335881D01*
X81695D01*
Y335771D01*
X81475D01*
Y335661D01*
X81145D01*
Y335551D01*
X80154D01*
Y335661D01*
X79934D01*
Y335771D01*
X79714D01*
Y335881D01*
X79604D01*
Y335991D01*
X79384D01*
Y336101D01*
X79273D01*
Y336211D01*
X79163D01*
Y336321D01*
X79053D01*
Y336432D01*
X78943D01*
Y336541D01*
X78833D01*
Y336762D01*
X78723D01*
Y336872D01*
X78613D01*
Y336982D01*
X78503D01*
Y337092D01*
X78393D01*
Y337312D01*
X78283D01*
Y337532D01*
X78173D01*
Y337642D01*
X78063D01*
Y337862D01*
X77953D01*
Y338083D01*
X77842D01*
Y338192D01*
X77733D01*
Y338413D01*
X77622D01*
Y338633D01*
X77512D01*
Y338963D01*
X77402D01*
Y339183D01*
X77292D01*
Y339513D01*
X77182D01*
Y339843D01*
X77072D01*
Y340174D01*
X76962D01*
Y340614D01*
X76852D01*
Y341385D01*
X76742D01*
Y342375D01*
X76852D01*
Y342925D01*
X76962D01*
Y343145D01*
X77072D01*
Y343366D01*
X77182D01*
Y343476D01*
X77402D01*
Y343586D01*
X77622D01*
Y343696D01*
X77842D01*
Y343806D01*
X78173D01*
Y343916D01*
X78613D01*
Y344026D01*
X79273D01*
Y344136D01*
X79824D01*
Y344246D01*
X80374D01*
Y344356D01*
X80814D01*
Y344466D01*
X81365D01*
Y344576D01*
X81805D01*
Y344687D01*
X82355D01*
Y344796D01*
X82795D01*
Y344907D01*
X83236D01*
Y345017D01*
X83676D01*
Y345127D01*
X84116D01*
Y345237D01*
X84557D01*
Y345347D01*
X84997D01*
Y345457D01*
X85437D01*
Y345567D01*
X85988D01*
Y345677D01*
X86428D01*
Y345787D01*
X86868D01*
Y345897D01*
X87308D01*
Y346007D01*
X87748D01*
Y346117D01*
X88189D01*
Y346227D01*
X88629D01*
Y346338D01*
X89069D01*
Y346447D01*
X89620D01*
Y346558D01*
X90060D01*
Y346668D01*
X90500D01*
Y346778D01*
X90941D01*
Y346888D01*
X91491D01*
Y346998D01*
X91931D01*
Y347108D01*
X92481D01*
Y347218D01*
X93032D01*
Y347328D01*
X93582D01*
Y347438D01*
X94132D01*
Y347548D01*
X94793D01*
Y347658D01*
X95563D01*
Y347768D01*
X96444D01*
Y347878D01*
X97214D01*
Y347768D01*
D02*
G37*
G36*
X100076Y342595D02*
X100406D01*
Y342485D01*
X100626D01*
Y342375D01*
X100847D01*
Y342265D01*
X101067D01*
Y342155D01*
X101177D01*
Y342045D01*
X101287D01*
Y341935D01*
X101397D01*
Y341825D01*
X101507D01*
Y341715D01*
X101617D01*
Y341605D01*
X101727D01*
Y341494D01*
X101837D01*
Y341385D01*
X101947D01*
Y341274D01*
X102057D01*
Y341164D01*
X102167D01*
Y340944D01*
X102277D01*
Y340834D01*
X102387D01*
Y340724D01*
X102498D01*
Y340504D01*
X102607D01*
Y340394D01*
X102718D01*
Y340174D01*
X102828D01*
Y340064D01*
X102718D01*
Y339843D01*
X102607D01*
Y339734D01*
X102498D01*
Y339513D01*
X102387D01*
Y339403D01*
X102277D01*
Y339293D01*
X102167D01*
Y339183D01*
X102057D01*
Y339073D01*
X101947D01*
Y338853D01*
X101837D01*
Y338743D01*
X101727D01*
Y338633D01*
X101617D01*
Y338523D01*
X101507D01*
Y338413D01*
X101397D01*
Y338303D01*
X101287D01*
Y338192D01*
X101177D01*
Y338083D01*
X101067D01*
Y337862D01*
X100956D01*
Y337752D01*
X100847D01*
Y337642D01*
X100736D01*
Y337532D01*
X100626D01*
Y337422D01*
X100516D01*
Y337312D01*
X100406D01*
Y337202D01*
X100296D01*
Y337092D01*
X100186D01*
Y336982D01*
X100076D01*
Y336872D01*
X99966D01*
Y336762D01*
X99856D01*
Y336652D01*
X99746D01*
Y336541D01*
X99636D01*
Y336432D01*
X99526D01*
Y336211D01*
X99305D01*
Y335991D01*
X99195D01*
Y335881D01*
X99085D01*
Y335771D01*
X98865D01*
Y335551D01*
X98755D01*
Y335441D01*
X98645D01*
Y335331D01*
X98535D01*
Y335221D01*
X98425D01*
Y335111D01*
X98315D01*
Y335001D01*
X98205D01*
Y334891D01*
X98095D01*
Y334781D01*
X97985D01*
Y334670D01*
X97875D01*
Y334560D01*
X97765D01*
Y334450D01*
X97654D01*
Y334340D01*
X97544D01*
Y334230D01*
X97434D01*
Y334120D01*
X97324D01*
Y334010D01*
X97104D01*
Y333790D01*
X96884D01*
Y333680D01*
X96774D01*
Y333570D01*
X96664D01*
Y333460D01*
X96554D01*
Y333350D01*
X96444D01*
Y333240D01*
X96334D01*
Y333130D01*
X96224D01*
Y333019D01*
X96114D01*
Y332909D01*
X96004D01*
Y332799D01*
X95893D01*
Y332689D01*
X95783D01*
Y332579D01*
X95673D01*
Y332469D01*
X95453D01*
Y332359D01*
X95343D01*
Y332249D01*
X95233D01*
Y332139D01*
X95123D01*
Y332029D01*
X95013D01*
Y331919D01*
X94903D01*
Y331809D01*
X94683D01*
Y331699D01*
X94573D01*
Y331589D01*
X94463D01*
Y331479D01*
X94353D01*
Y331368D01*
X94242D01*
Y331258D01*
X94022D01*
Y331148D01*
X93912D01*
Y331038D01*
X93802D01*
Y330928D01*
X93582D01*
Y330818D01*
X93472D01*
Y330708D01*
X93252D01*
Y330598D01*
X93142D01*
Y330488D01*
X92922D01*
Y330378D01*
X92702D01*
Y330268D01*
X92481D01*
Y330158D01*
X92261D01*
Y330048D01*
X90280D01*
Y329938D01*
X84667D01*
Y330048D01*
X83676D01*
Y330158D01*
X83236D01*
Y330268D01*
X82906D01*
Y330378D01*
X82685D01*
Y330488D01*
X82575D01*
Y330598D01*
X82355D01*
Y330708D01*
X82245D01*
Y330928D01*
X82135D01*
Y331038D01*
X82025D01*
Y331148D01*
X81915D01*
Y331258D01*
X81805D01*
Y331479D01*
X81695D01*
Y331699D01*
X81585D01*
Y331919D01*
X81475D01*
Y332249D01*
X81365D01*
Y332689D01*
X81475D01*
Y332799D01*
X81585D01*
Y332909D01*
X81695D01*
Y333019D01*
X81915D01*
Y333130D01*
X82025D01*
Y333240D01*
X82245D01*
Y333350D01*
X82465D01*
Y333460D01*
X82575D01*
Y333570D01*
X82795D01*
Y333680D01*
X83016D01*
Y333790D01*
X83126D01*
Y333900D01*
X83346D01*
Y334010D01*
X83566D01*
Y334120D01*
X83676D01*
Y334230D01*
X83896D01*
Y334340D01*
X84116D01*
Y334450D01*
X84226D01*
Y334560D01*
X84446D01*
Y334670D01*
X84667D01*
Y334781D01*
X84777D01*
Y334891D01*
X84997D01*
Y335001D01*
X85217D01*
Y335111D01*
X85437D01*
Y335221D01*
X85657D01*
Y335331D01*
X85767D01*
Y335441D01*
X85988D01*
Y335551D01*
X86208D01*
Y335661D01*
X86428D01*
Y335771D01*
X86538D01*
Y335881D01*
X86758D01*
Y335991D01*
X86978D01*
Y336101D01*
X87198D01*
Y336211D01*
X87418D01*
Y336321D01*
X87639D01*
Y336432D01*
X87748D01*
Y336541D01*
X87969D01*
Y336652D01*
X88189D01*
Y336762D01*
X88409D01*
Y336872D01*
X88629D01*
Y336982D01*
X88739D01*
Y337092D01*
X88959D01*
Y337202D01*
X89179D01*
Y337312D01*
X89399D01*
Y337422D01*
X89620D01*
Y337532D01*
X89840D01*
Y337642D01*
X90060D01*
Y337752D01*
X90280D01*
Y337862D01*
X90500D01*
Y337972D01*
X90720D01*
Y338083D01*
X90830D01*
Y338192D01*
X91051D01*
Y338303D01*
X91271D01*
Y338413D01*
X91491D01*
Y338523D01*
X91711D01*
Y338633D01*
X91931D01*
Y338743D01*
X92151D01*
Y338853D01*
X92371D01*
Y338963D01*
X92591D01*
Y339073D01*
X92702D01*
Y339183D01*
X92922D01*
Y339293D01*
X93142D01*
Y339403D01*
X93362D01*
Y339513D01*
X93582D01*
Y339623D01*
X93802D01*
Y339734D01*
X94022D01*
Y339843D01*
X94242D01*
Y339954D01*
X94463D01*
Y340064D01*
X94683D01*
Y340174D01*
X94903D01*
Y340284D01*
X95123D01*
Y340394D01*
X95343D01*
Y340504D01*
X95453D01*
Y340614D01*
X95673D01*
Y340724D01*
X95893D01*
Y340834D01*
X96114D01*
Y340944D01*
X96334D01*
Y341054D01*
X96554D01*
Y341164D01*
X96774D01*
Y341274D01*
X96994D01*
Y341385D01*
X97104D01*
Y341494D01*
X97324D01*
Y341605D01*
X97544D01*
Y341715D01*
X97765D01*
Y341825D01*
X97985D01*
Y341935D01*
X98205D01*
Y342045D01*
X98425D01*
Y342155D01*
X98645D01*
Y342265D01*
X98865D01*
Y342375D01*
X99085D01*
Y342485D01*
X99195D01*
Y342595D01*
X99526D01*
Y342705D01*
X100076D01*
Y342595D01*
D02*
G37*
G36*
X108111Y326746D02*
X108001D01*
Y326525D01*
X107891D01*
Y326305D01*
X107781D01*
Y326195D01*
X107671D01*
Y325975D01*
X107561D01*
Y325865D01*
X107451D01*
Y325645D01*
X107340D01*
Y325425D01*
X107230D01*
Y325315D01*
X107120D01*
Y325095D01*
X107010D01*
Y324985D01*
X106900D01*
Y324764D01*
X106790D01*
Y324544D01*
X106680D01*
Y324434D01*
X106570D01*
Y324214D01*
X106460D01*
Y324104D01*
X106350D01*
Y323884D01*
X106240D01*
Y323664D01*
X106130D01*
Y323554D01*
X106020D01*
Y323334D01*
X105910D01*
Y323223D01*
X105800D01*
Y322893D01*
X105910D01*
Y322673D01*
X106020D01*
Y322563D01*
X106130D01*
Y322343D01*
X106240D01*
Y322233D01*
X106350D01*
Y322013D01*
X106460D01*
Y321903D01*
X106570D01*
Y321683D01*
X106680D01*
Y321572D01*
X106790D01*
Y321462D01*
X106900D01*
Y321242D01*
X107010D01*
Y321132D01*
X107120D01*
Y320912D01*
X107230D01*
Y320802D01*
X107340D01*
Y320582D01*
X107451D01*
Y320472D01*
X107561D01*
Y320252D01*
X107671D01*
Y320142D01*
X107781D01*
Y319921D01*
X107891D01*
Y319811D01*
X108001D01*
Y319701D01*
X108111D01*
Y319481D01*
X108221D01*
Y319371D01*
X108331D01*
Y319151D01*
X108441D01*
Y319041D01*
X108551D01*
Y318931D01*
X106020D01*
Y318821D01*
X105910D01*
Y318931D01*
X105800D01*
Y318821D01*
X105689D01*
Y318931D01*
X105579D01*
Y319041D01*
X105469D01*
Y319261D01*
X105359D01*
Y319371D01*
X105249D01*
Y319591D01*
X105139D01*
Y319811D01*
X105029D01*
Y320032D01*
X104919D01*
Y320142D01*
X104809D01*
Y320362D01*
X104699D01*
Y320582D01*
X104589D01*
Y320692D01*
X104479D01*
Y320912D01*
X104258D01*
Y320692D01*
X104149D01*
Y320472D01*
X104038D01*
Y320362D01*
X103928D01*
Y320142D01*
X103818D01*
Y319921D01*
X103708D01*
Y319701D01*
X103598D01*
Y319481D01*
X103488D01*
Y319261D01*
X103378D01*
Y319041D01*
X103268D01*
Y318821D01*
X100406D01*
Y319041D01*
X100516D01*
Y319151D01*
X100626D01*
Y319371D01*
X100736D01*
Y319481D01*
X100847D01*
Y319701D01*
X100956D01*
Y319921D01*
X101067D01*
Y320142D01*
X101177D01*
Y320252D01*
X101287D01*
Y320472D01*
X101397D01*
Y320582D01*
X101507D01*
Y320802D01*
X101617D01*
Y320912D01*
X101727D01*
Y321132D01*
X101837D01*
Y321352D01*
X101947D01*
Y321462D01*
X102057D01*
Y321683D01*
X102167D01*
Y321903D01*
X102277D01*
Y322013D01*
X102387D01*
Y322233D01*
X102498D01*
Y322343D01*
X102607D01*
Y322563D01*
X102718D01*
Y322783D01*
X102828D01*
Y322893D01*
X102938D01*
Y323003D01*
X102828D01*
Y323223D01*
X102718D01*
Y323334D01*
X102607D01*
Y323444D01*
X102498D01*
Y323664D01*
X102387D01*
Y323774D01*
X102277D01*
Y323994D01*
X102167D01*
Y324104D01*
X102057D01*
Y324324D01*
X101947D01*
Y324434D01*
X101837D01*
Y324544D01*
X101727D01*
Y324764D01*
X101617D01*
Y324874D01*
X101507D01*
Y325095D01*
X101397D01*
Y325205D01*
X101287D01*
Y325425D01*
X101177D01*
Y325535D01*
X101067D01*
Y325645D01*
X100956D01*
Y325865D01*
X100847D01*
Y325975D01*
X100736D01*
Y326085D01*
X100626D01*
Y326305D01*
X100516D01*
Y326415D01*
X100406D01*
Y326636D01*
X100296D01*
Y326746D01*
X103158D01*
Y326525D01*
X103268D01*
Y326305D01*
X103378D01*
Y326195D01*
X103488D01*
Y325975D01*
X103598D01*
Y325865D01*
X103708D01*
Y325645D01*
X103818D01*
Y325425D01*
X103928D01*
Y325205D01*
X104038D01*
Y325095D01*
X104149D01*
Y324874D01*
X104369D01*
Y325095D01*
X104479D01*
Y325315D01*
X104589D01*
Y325535D01*
X104699D01*
Y325755D01*
X104809D01*
Y325975D01*
X104919D01*
Y326195D01*
X105029D01*
Y326415D01*
X105139D01*
Y326636D01*
X105249D01*
Y326856D01*
X108111D01*
Y326746D01*
D02*
G37*
G36*
X125281Y327516D02*
X125391D01*
Y326305D01*
X125501D01*
Y324985D01*
X125611D01*
Y323774D01*
X125722D01*
Y322563D01*
X125832D01*
Y322123D01*
Y322013D01*
Y321352D01*
X125942D01*
Y319921D01*
X124951D01*
Y319811D01*
X123740D01*
Y320142D01*
X123630D01*
Y321242D01*
X123520D01*
Y322563D01*
X123410D01*
Y323884D01*
X123300D01*
Y324874D01*
X123190D01*
Y323994D01*
X123080D01*
Y323223D01*
X122970D01*
Y322673D01*
X122860D01*
Y322013D01*
X122750D01*
Y321352D01*
X122640D01*
Y320692D01*
X122530D01*
Y320032D01*
X122420D01*
Y319591D01*
X121209D01*
Y319481D01*
X120659D01*
Y319591D01*
X120548D01*
Y319921D01*
X120438D01*
Y320252D01*
X120328D01*
Y320582D01*
X120218D01*
Y320912D01*
X120108D01*
Y321132D01*
X119998D01*
Y321462D01*
X119888D01*
Y321793D01*
X119778D01*
Y322123D01*
X119668D01*
Y322453D01*
X119558D01*
Y322783D01*
X119448D01*
Y323113D01*
X119338D01*
Y323444D01*
X119228D01*
Y323774D01*
X119117D01*
Y324104D01*
X119008D01*
Y324434D01*
X118897D01*
Y323554D01*
X119008D01*
Y322343D01*
X119117D01*
Y321242D01*
X119228D01*
Y320032D01*
X119338D01*
Y319371D01*
X118677D01*
Y319261D01*
X117466D01*
Y319151D01*
X117026D01*
Y320142D01*
X116916D01*
Y321352D01*
X116806D01*
Y322563D01*
X116696D01*
Y323884D01*
X116586D01*
Y325095D01*
X116476D01*
Y326305D01*
X116366D01*
Y327076D01*
X116476D01*
Y327186D01*
X117797D01*
Y327296D01*
X119008D01*
Y327406D01*
X119448D01*
Y327186D01*
X119558D01*
Y326966D01*
X119668D01*
Y326636D01*
X119778D01*
Y326305D01*
X119888D01*
Y326085D01*
X119998D01*
Y325755D01*
X120108D01*
Y325535D01*
X120218D01*
Y325205D01*
X120328D01*
Y324985D01*
X120438D01*
Y324654D01*
X120548D01*
Y324324D01*
X120659D01*
Y324104D01*
X120768D01*
Y323774D01*
X120879D01*
Y323444D01*
X120989D01*
Y323223D01*
X121099D01*
Y322783D01*
X121209D01*
Y322453D01*
X121319D01*
Y323003D01*
X121429D01*
Y323664D01*
X121539D01*
Y324214D01*
X121649D01*
Y324874D01*
X121759D01*
Y325425D01*
X121869D01*
Y326085D01*
X121979D01*
Y326636D01*
X122089D01*
Y327296D01*
X122199D01*
Y327626D01*
X122750D01*
Y327736D01*
X123961D01*
Y327846D01*
X125281D01*
Y327516D01*
D02*
G37*
G36*
X92702Y327076D02*
X93252D01*
Y326966D01*
X93582D01*
Y326856D01*
X93802D01*
Y326746D01*
X94022D01*
Y326636D01*
X94242D01*
Y326525D01*
X94463D01*
Y326415D01*
X94573D01*
Y326305D01*
X94683D01*
Y326195D01*
X94793D01*
Y326085D01*
X94903D01*
Y325975D01*
X95013D01*
Y325865D01*
X95123D01*
Y325755D01*
X95233D01*
Y325535D01*
X95343D01*
Y325425D01*
X95453D01*
Y325205D01*
X95563D01*
Y324985D01*
X95673D01*
Y324654D01*
X95783D01*
Y324214D01*
X95893D01*
Y322013D01*
X95783D01*
Y321462D01*
X95673D01*
Y321242D01*
X95563D01*
Y320912D01*
X95453D01*
Y320692D01*
X95343D01*
Y320472D01*
X95233D01*
Y320362D01*
X95123D01*
Y320142D01*
X95013D01*
Y320032D01*
X94903D01*
Y319921D01*
X94793D01*
Y319811D01*
X94683D01*
Y319701D01*
X94463D01*
Y319591D01*
X94353D01*
Y319481D01*
X94242D01*
Y319371D01*
X94022D01*
Y319261D01*
X93802D01*
Y319151D01*
X93582D01*
Y319041D01*
X93252D01*
Y318931D01*
X92812D01*
Y318821D01*
X91051D01*
Y318931D01*
X90500D01*
Y319041D01*
X90170D01*
Y319151D01*
X89840D01*
Y319261D01*
X89620D01*
Y319371D01*
X89510D01*
Y319481D01*
X89290D01*
Y319591D01*
X89179D01*
Y319701D01*
X88959D01*
Y319921D01*
X88739D01*
Y320142D01*
X88629D01*
Y320252D01*
X88519D01*
Y320362D01*
X88409D01*
Y320582D01*
X88299D01*
Y320802D01*
X88189D01*
Y321132D01*
X88079D01*
Y321572D01*
X87969D01*
Y322343D01*
X88519D01*
Y322233D01*
X90390D01*
Y321683D01*
X90500D01*
Y321462D01*
X90610D01*
Y321242D01*
X90720D01*
Y321132D01*
X90830D01*
Y321022D01*
X91051D01*
Y320912D01*
X91271D01*
Y320802D01*
X92261D01*
Y320912D01*
X92481D01*
Y321022D01*
X92702D01*
Y321132D01*
X92812D01*
Y321242D01*
X92922D01*
Y321462D01*
X93032D01*
Y321683D01*
X93142D01*
Y321903D01*
X93252D01*
Y322343D01*
X93362D01*
Y323994D01*
X93252D01*
Y324324D01*
X93142D01*
Y324654D01*
X93032D01*
Y324764D01*
X92922D01*
Y324874D01*
X92812D01*
Y324985D01*
X92702D01*
Y325095D01*
X92481D01*
Y325205D01*
X91271D01*
Y325095D01*
X91051D01*
Y324985D01*
X90941D01*
Y324874D01*
X90830D01*
Y324764D01*
X90720D01*
Y324544D01*
X90610D01*
Y324104D01*
X88849D01*
Y324214D01*
X88079D01*
Y324324D01*
X88189D01*
Y324874D01*
X88299D01*
Y325205D01*
X88409D01*
Y325425D01*
X88519D01*
Y325645D01*
X88629D01*
Y325865D01*
X88739D01*
Y325975D01*
X88849D01*
Y326085D01*
X88959D01*
Y326195D01*
X89069D01*
Y326305D01*
X89179D01*
Y326415D01*
X89290D01*
Y326525D01*
X89399D01*
Y326636D01*
X89620D01*
Y326746D01*
X89840D01*
Y326856D01*
X90060D01*
Y326966D01*
X90390D01*
Y327076D01*
X90830D01*
Y327186D01*
X92702D01*
Y327076D01*
D02*
G37*
G36*
X83566Y327736D02*
X84337D01*
Y327626D01*
X84777D01*
Y327516D01*
X85107D01*
Y327406D01*
X85327D01*
Y327296D01*
X85547D01*
Y327186D01*
X85767D01*
Y327076D01*
X85877D01*
Y326966D01*
X86097D01*
Y326856D01*
X86208D01*
Y326746D01*
X86318D01*
Y326636D01*
X86428D01*
Y326525D01*
X86538D01*
Y326305D01*
X86648D01*
Y326195D01*
X86758D01*
Y326085D01*
X86868D01*
Y325865D01*
X86978D01*
Y325645D01*
X87088D01*
Y325425D01*
X87198D01*
Y324985D01*
X87308D01*
Y324544D01*
X87418D01*
Y323113D01*
X87308D01*
Y322453D01*
X87198D01*
Y322013D01*
X87088D01*
Y321683D01*
X86978D01*
Y321462D01*
X86868D01*
Y321242D01*
X86758D01*
Y321022D01*
X86648D01*
Y320912D01*
X86538D01*
Y320802D01*
X86428D01*
Y320692D01*
X86318D01*
Y320472D01*
X86097D01*
Y320362D01*
X85988D01*
Y320252D01*
X85877D01*
Y320142D01*
X85767D01*
Y320032D01*
X85547D01*
Y319921D01*
X85437D01*
Y319811D01*
X85217D01*
Y319701D01*
X84887D01*
Y319591D01*
X84557D01*
Y319481D01*
X83896D01*
Y319371D01*
X82906D01*
Y319481D01*
X82135D01*
Y319591D01*
X81695D01*
Y319701D01*
X81475D01*
Y319811D01*
X81145D01*
Y319921D01*
X80924D01*
Y320032D01*
X80814D01*
Y320142D01*
X80594D01*
Y320252D01*
X80484D01*
Y320362D01*
X80374D01*
Y320472D01*
X80264D01*
Y320582D01*
X80154D01*
Y320692D01*
X80044D01*
Y320802D01*
X79934D01*
Y320912D01*
X79824D01*
Y321022D01*
X79714D01*
Y321242D01*
X79604D01*
Y321462D01*
X79493D01*
Y321683D01*
X79384D01*
Y322013D01*
X79273D01*
Y322343D01*
X79163D01*
Y323334D01*
X79053D01*
Y323554D01*
X79163D01*
Y324544D01*
X79273D01*
Y324985D01*
X79384D01*
Y325425D01*
X79493D01*
Y325645D01*
X79604D01*
Y325865D01*
X79714D01*
Y326085D01*
X79824D01*
Y326195D01*
X79934D01*
Y326415D01*
X80044D01*
Y326525D01*
X80154D01*
Y326636D01*
X80264D01*
Y326746D01*
X80374D01*
Y326856D01*
X80484D01*
Y326966D01*
X80594D01*
Y327076D01*
X80814D01*
Y327186D01*
X80924D01*
Y327296D01*
X81145D01*
Y327406D01*
X81365D01*
Y327516D01*
X81585D01*
Y327626D01*
X82025D01*
Y327736D01*
X82685D01*
Y327846D01*
X83566D01*
Y327736D01*
D02*
G37*
G36*
X115045Y326415D02*
X115155D01*
Y324214D01*
X115265D01*
Y322123D01*
X115375D01*
Y320142D01*
X115485D01*
Y319261D01*
X115375D01*
Y319151D01*
X113394D01*
Y319041D01*
X111193D01*
Y318931D01*
X109101D01*
Y318821D01*
X108991D01*
Y319481D01*
X108881D01*
Y320802D01*
X110092D01*
Y320912D01*
X112293D01*
Y321022D01*
X112844D01*
Y321903D01*
X112734D01*
Y322233D01*
X111303D01*
Y322123D01*
X109542D01*
Y323334D01*
X109432D01*
Y323884D01*
X110312D01*
Y323994D01*
X112293D01*
Y324104D01*
X112734D01*
Y324214D01*
X112624D01*
Y325095D01*
X110752D01*
Y324985D01*
X108771D01*
Y326525D01*
X108661D01*
Y326856D01*
X110312D01*
Y326966D01*
X112293D01*
Y327076D01*
X114385D01*
Y327186D01*
X115045D01*
Y326415D01*
D02*
G37*
G36*
X99746Y326746D02*
X99856D01*
Y325535D01*
X99746D01*
Y322453D01*
X99636D01*
Y319481D01*
X99526D01*
Y318821D01*
X98425D01*
Y318931D01*
X96994D01*
Y321462D01*
X97104D01*
Y324544D01*
X97214D01*
Y324654D01*
Y324764D01*
Y326856D01*
X99746D01*
Y326746D01*
D02*
G37*
G36*
X135627Y317610D02*
X135518D01*
Y317500D01*
X134637D01*
Y317390D01*
X133646D01*
Y317280D01*
X132766D01*
Y317170D01*
X131885D01*
Y317060D01*
X131005D01*
Y316950D01*
X130124D01*
Y316840D01*
X129134D01*
Y316730D01*
X128143D01*
Y316619D01*
X127152D01*
Y316509D01*
X126162D01*
Y316399D01*
X125061D01*
Y316289D01*
X123740D01*
Y316179D01*
X122640D01*
Y316069D01*
X121429D01*
Y315959D01*
X120218D01*
Y315849D01*
X118677D01*
Y315739D01*
X117136D01*
Y315629D01*
X115595D01*
Y315519D01*
X113614D01*
Y315409D01*
X111413D01*
Y315299D01*
X108441D01*
Y315189D01*
X96664D01*
Y315299D01*
X93582D01*
Y315409D01*
X91381D01*
Y315519D01*
X89510D01*
Y315629D01*
X87859D01*
Y315739D01*
X86318D01*
Y315849D01*
X84997D01*
Y315959D01*
X83566D01*
Y316069D01*
X82355D01*
Y316179D01*
X81145D01*
Y316289D01*
X80044D01*
Y316399D01*
X79053D01*
Y316509D01*
X77953D01*
Y316619D01*
X76962D01*
Y316730D01*
X75971D01*
Y316840D01*
X75091D01*
Y316950D01*
X73990D01*
Y317060D01*
X73110D01*
Y317170D01*
X72229D01*
Y317280D01*
X71349D01*
Y317390D01*
X70578D01*
Y317500D01*
X69698D01*
Y317610D01*
X69587D01*
Y319261D01*
X69698D01*
Y319151D01*
X70578D01*
Y319041D01*
X71459D01*
Y318931D01*
X72229D01*
Y318821D01*
X73220D01*
Y318711D01*
X74100D01*
Y318601D01*
X75091D01*
Y318491D01*
X75971D01*
Y318381D01*
X77072D01*
Y318270D01*
X77953D01*
Y318160D01*
X79053D01*
Y318050D01*
X80154D01*
Y317940D01*
X81255D01*
Y317830D01*
X82355D01*
Y317720D01*
X83676D01*
Y317610D01*
X84997D01*
Y317500D01*
X86318D01*
Y317390D01*
X87859D01*
Y317280D01*
X89510D01*
Y317170D01*
X91381D01*
Y317060D01*
X93582D01*
Y316950D01*
X96444D01*
Y316840D01*
X108331D01*
Y316950D01*
X111413D01*
Y317060D01*
X113724D01*
Y317170D01*
X115485D01*
Y317280D01*
X117246D01*
Y317390D01*
X118677D01*
Y317500D01*
X120108D01*
Y317610D01*
X121429D01*
Y317720D01*
X122640D01*
Y317830D01*
X123850D01*
Y317940D01*
X125061D01*
Y318050D01*
X126052D01*
Y318160D01*
X127152D01*
Y318270D01*
X128143D01*
Y318381D01*
X129134D01*
Y318491D01*
X130124D01*
Y318601D01*
X131005D01*
Y318711D01*
X131885D01*
Y318821D01*
X132766D01*
Y318931D01*
X133646D01*
Y319041D01*
X134637D01*
Y319151D01*
X135407D01*
Y319261D01*
X135627D01*
Y317610D01*
D02*
G37*
G36*
X343187Y371360D02*
X343636Y371310D01*
X344065Y371230D01*
X344474Y371120D01*
X344854Y370991D01*
X345203Y370851D01*
X345532Y370701D01*
X345822Y370541D01*
X346091Y370382D01*
X346321Y370232D01*
X346521Y370092D01*
X346690Y369963D01*
X346820Y369863D01*
X346920Y369773D01*
X346980Y369723D01*
X346990Y369713D01*
X347000Y369703D01*
X347299Y369384D01*
X347559Y369044D01*
X347788Y368705D01*
X347978Y368365D01*
X348148Y368016D01*
X348278Y367677D01*
X348397Y367347D01*
X348487Y367028D01*
X348557Y366738D01*
X348607Y366469D01*
X348647Y366219D01*
X348667Y366020D01*
X348677Y365930D01*
X348687Y365850D01*
Y365780D01*
X348697Y365720D01*
Y365670D01*
Y365640D01*
Y365620D01*
Y365610D01*
X348687Y365361D01*
X348677Y365121D01*
X348647Y364882D01*
X348607Y364662D01*
X348567Y364442D01*
X348527Y364243D01*
X348477Y364053D01*
X348417Y363883D01*
X348367Y363724D01*
X348317Y363584D01*
X348278Y363464D01*
X348238Y363354D01*
X348198Y363274D01*
X348168Y363214D01*
X348158Y363175D01*
X348148Y363165D01*
X347968Y362855D01*
X347769Y362566D01*
X347569Y362306D01*
X347379Y362087D01*
X347289Y361987D01*
X347210Y361897D01*
X347130Y361817D01*
X347070Y361757D01*
X347010Y361707D01*
X346970Y361667D01*
X346950Y361647D01*
X346940Y361637D01*
X346641Y361398D01*
X346341Y361188D01*
X346041Y360998D01*
X345762Y360839D01*
X345632Y360779D01*
X345522Y360719D01*
X345423Y360669D01*
X345333Y360629D01*
X345263Y360589D01*
X345203Y360569D01*
X345173Y360559D01*
X345163Y360549D01*
X344963Y360479D01*
X344764Y360410D01*
X344335Y360310D01*
X343905Y360240D01*
X343706Y360210D01*
X343506Y360190D01*
X343326Y360170D01*
X343157Y360160D01*
X343007Y360150D01*
X342867D01*
X342767Y360140D01*
X342618D01*
X342178Y360150D01*
X341749Y360180D01*
X341550Y360190D01*
X341360Y360210D01*
X341180Y360230D01*
X341011Y360260D01*
X340861Y360280D01*
X340721Y360300D01*
X340601Y360320D01*
X340501Y360330D01*
X340422Y360350D01*
X340362Y360360D01*
X340322Y360370D01*
X340312D01*
X339902Y360469D01*
X339513Y360579D01*
X339324Y360629D01*
X339144Y360689D01*
X338974Y360749D01*
X338824Y360799D01*
X338685Y360849D01*
X338555Y360899D01*
X338435Y360949D01*
X338345Y360979D01*
X338265Y361018D01*
X338215Y361038D01*
X338176Y361058D01*
X338166D01*
Y363304D01*
Y363404D01*
Y363504D01*
X338156Y363664D01*
X338146Y363793D01*
X338126Y363883D01*
X338116Y363953D01*
X338106Y364003D01*
X338096Y364023D01*
Y364033D01*
X338046Y364133D01*
X337986Y364223D01*
X337936Y364293D01*
X337876Y364342D01*
X337826Y364392D01*
X337786Y364422D01*
X337756Y364432D01*
X337746Y364442D01*
X337636Y364482D01*
X337517Y364522D01*
X337377Y364552D01*
X337237Y364572D01*
X337108Y364592D01*
X337008Y364602D01*
X336968Y364612D01*
X336908D01*
Y364902D01*
X342138D01*
Y364612D01*
X341869D01*
X341729Y364602D01*
X341600Y364592D01*
X341490Y364562D01*
X341390Y364532D01*
X341320Y364502D01*
X341260Y364482D01*
X341220Y364462D01*
X341210Y364452D01*
X341110Y364392D01*
X341031Y364333D01*
X340971Y364283D01*
X340921Y364223D01*
X340881Y364183D01*
X340861Y364143D01*
X340841Y364123D01*
Y364113D01*
X340821Y364073D01*
X340811Y364023D01*
X340791Y363913D01*
X340771Y363773D01*
X340761Y363644D01*
X340751Y363514D01*
Y363404D01*
Y363364D01*
Y363334D01*
Y363314D01*
Y363304D01*
Y361058D01*
X340911Y360998D01*
X341060Y360959D01*
X341200Y360909D01*
X341330Y360879D01*
X341440Y360849D01*
X341520Y360839D01*
X341570Y360819D01*
X341590D01*
X341739Y360789D01*
X341889Y360769D01*
X342019Y360759D01*
X342138Y360749D01*
X342238Y360739D01*
X342388D01*
X342588Y360749D01*
X342787Y360759D01*
X343157Y360819D01*
X343326Y360869D01*
X343486Y360909D01*
X343636Y360959D01*
X343766Y361008D01*
X343885Y361058D01*
X343995Y361108D01*
X344095Y361158D01*
X344165Y361198D01*
X344235Y361228D01*
X344275Y361258D01*
X344305Y361268D01*
X344315Y361278D01*
X344464Y361388D01*
X344594Y361508D01*
X344724Y361637D01*
X344834Y361777D01*
X344944Y361917D01*
X345043Y362057D01*
X345203Y362336D01*
X345273Y362466D01*
X345323Y362586D01*
X345373Y362696D01*
X345413Y362795D01*
X345443Y362875D01*
X345463Y362935D01*
X345482Y362975D01*
Y362985D01*
X345602Y363434D01*
X345692Y363903D01*
X345752Y364362D01*
X345782Y364572D01*
X345792Y364782D01*
X345812Y364971D01*
X345822Y365151D01*
X345832Y365311D01*
Y365441D01*
X345842Y365550D01*
Y365630D01*
Y365680D01*
Y365700D01*
X345832Y366169D01*
X345792Y366618D01*
X345762Y366838D01*
X345742Y367038D01*
X345712Y367237D01*
X345672Y367417D01*
X345642Y367577D01*
X345612Y367727D01*
X345592Y367856D01*
X345562Y367966D01*
X345542Y368056D01*
X345522Y368126D01*
X345513Y368166D01*
Y368176D01*
X345443Y368395D01*
X345373Y368605D01*
X345283Y368805D01*
X345193Y368984D01*
X345103Y369154D01*
X345013Y369314D01*
X344914Y369453D01*
X344824Y369583D01*
X344734Y369693D01*
X344654Y369793D01*
X344584Y369883D01*
X344514Y369953D01*
X344464Y370002D01*
X344414Y370042D01*
X344394Y370062D01*
X344384Y370072D01*
X344225Y370192D01*
X344065Y370292D01*
X343895Y370392D01*
X343726Y370462D01*
X343556Y370532D01*
X343396Y370581D01*
X343077Y370671D01*
X342937Y370691D01*
X342797Y370711D01*
X342677Y370731D01*
X342578Y370741D01*
X342498Y370751D01*
X342378D01*
X342138Y370741D01*
X341909Y370721D01*
X341689Y370681D01*
X341480Y370621D01*
X341280Y370561D01*
X341080Y370492D01*
X340901Y370422D01*
X340741Y370352D01*
X340591Y370272D01*
X340452Y370202D01*
X340332Y370132D01*
X340242Y370072D01*
X340162Y370022D01*
X340102Y369982D01*
X340062Y369953D01*
X340052Y369943D01*
X339863Y369783D01*
X339683Y369613D01*
X339513Y369423D01*
X339353Y369234D01*
X339214Y369044D01*
X339084Y368844D01*
X338964Y368655D01*
X338854Y368465D01*
X338764Y368285D01*
X338685Y368126D01*
X338615Y367976D01*
X338555Y367846D01*
X338515Y367747D01*
X338475Y367667D01*
X338465Y367617D01*
X338455Y367597D01*
X338166D01*
Y371380D01*
X338455D01*
X338515Y371220D01*
X338575Y371091D01*
X338635Y370981D01*
X338685Y370891D01*
X338735Y370831D01*
X338774Y370781D01*
X338795Y370761D01*
X338805Y370751D01*
X338874Y370701D01*
X338954Y370661D01*
X339024Y370631D01*
X339084Y370611D01*
X339144Y370601D01*
X339184Y370591D01*
X339254D01*
X339304Y370601D01*
X339364Y370621D01*
X339423Y370641D01*
X339573Y370681D01*
X339733Y370741D01*
X339893Y370791D01*
X340022Y370841D01*
X340072Y370851D01*
X340112Y370871D01*
X340132Y370881D01*
X340142D01*
X340282Y370931D01*
X340412Y370981D01*
X340651Y371060D01*
X340841Y371130D01*
X341001Y371180D01*
X341120Y371210D01*
X341200Y371230D01*
X341250Y371250D01*
X341270D01*
X341520Y371290D01*
X341769Y371330D01*
X342009Y371350D01*
X342228Y371360D01*
X342338Y371370D01*
X342428D01*
X342508Y371380D01*
X342718D01*
X343187Y371360D01*
D02*
G37*
G36*
X178700Y371360D02*
X178870Y371320D01*
X179019Y371260D01*
X179149Y371200D01*
X179249Y371130D01*
X179329Y371071D01*
X179369Y371031D01*
X179389Y371011D01*
X179508Y370871D01*
X179588Y370721D01*
X179648Y370581D01*
X179698Y370452D01*
X179718Y370332D01*
X179728Y370232D01*
X179738Y370172D01*
Y370162D01*
Y370152D01*
X179718Y369972D01*
X179678Y369803D01*
X179628Y369653D01*
X179558Y369523D01*
X179499Y369423D01*
X179439Y369344D01*
X179399Y369304D01*
X179389Y369284D01*
X179249Y369164D01*
X179099Y369084D01*
X178960Y369024D01*
X178820Y368974D01*
X178700Y368954D01*
X178600Y368944D01*
X178570Y368934D01*
X178520D01*
X178341Y368954D01*
X178171Y368994D01*
X178031Y369044D01*
X177901Y369114D01*
X177801Y369174D01*
X177722Y369234D01*
X177682Y369274D01*
X177662Y369284D01*
X177542Y369423D01*
X177452Y369573D01*
X177382Y369713D01*
X177342Y369853D01*
X177312Y369972D01*
X177302Y370072D01*
X177292Y370102D01*
Y370132D01*
Y370142D01*
Y370152D01*
X177312Y370332D01*
X177352Y370502D01*
X177402Y370641D01*
X177472Y370771D01*
X177542Y370871D01*
X177592Y370951D01*
X177632Y370991D01*
X177652Y371011D01*
X177792Y371130D01*
X177941Y371220D01*
X178081Y371290D01*
X178221Y371330D01*
X178341Y371360D01*
X178430Y371370D01*
X178470Y371380D01*
X178520D01*
X178700Y371360D01*
D02*
G37*
G36*
X274300Y368006D02*
X274509Y367976D01*
X274699Y367926D01*
X274869Y367886D01*
X275008Y367836D01*
X275118Y367786D01*
X275158Y367776D01*
X275188Y367756D01*
X275198Y367746D01*
X275208D01*
X275408Y367627D01*
X275607Y367487D01*
X275797Y367337D01*
X275966Y367177D01*
X276116Y367038D01*
X276176Y366978D01*
X276236Y366928D01*
X276276Y366878D01*
X276306Y366848D01*
X276326Y366828D01*
X276336Y366818D01*
Y367796D01*
X279350D01*
Y367507D01*
X279181Y367477D01*
X279041Y367437D01*
X278931Y367387D01*
X278851Y367337D01*
X278782Y367297D01*
X278742Y367257D01*
X278722Y367237D01*
X278712Y367227D01*
X278682Y367187D01*
X278662Y367127D01*
X278642Y367058D01*
X278622Y366978D01*
X278592Y366808D01*
X278572Y366638D01*
X278562Y366469D01*
X278552Y366389D01*
Y366319D01*
Y366269D01*
Y366229D01*
Y366199D01*
Y366189D01*
Y361997D01*
Y361847D01*
X278562Y361707D01*
Y361587D01*
X278572Y361478D01*
X278582Y361378D01*
X278592Y361298D01*
X278602Y361218D01*
X278612Y361158D01*
X278632Y361108D01*
X278642Y361068D01*
X278662Y361008D01*
X278672Y360979D01*
X278682Y360969D01*
X278771Y360879D01*
X278871Y360809D01*
X278981Y360759D01*
X279091Y360719D01*
X279191Y360699D01*
X279271Y360679D01*
X279331Y360669D01*
X279350D01*
Y360390D01*
X275537D01*
Y360669D01*
X275707Y360689D01*
X275847Y360729D01*
X275956Y360779D01*
X276046Y360829D01*
X276106Y360879D01*
X276156Y360919D01*
X276176Y360949D01*
X276186Y360959D01*
X276216Y361008D01*
X276236Y361078D01*
X276276Y361228D01*
X276296Y361398D01*
X276316Y361567D01*
X276326Y361737D01*
X276336Y361807D01*
Y361867D01*
Y361927D01*
Y361967D01*
Y361987D01*
Y361997D01*
Y365980D01*
X276176Y366189D01*
X276036Y366359D01*
X275897Y366509D01*
X275777Y366618D01*
X275677Y366708D01*
X275607Y366768D01*
X275557Y366808D01*
X275537Y366818D01*
X275437Y366878D01*
X275338Y366918D01*
X275248Y366948D01*
X275158Y366968D01*
X275078Y366978D01*
X275018Y366988D01*
X274968D01*
X274888Y366978D01*
X274809Y366968D01*
X274749Y366938D01*
X274689Y366918D01*
X274639Y366888D01*
X274599Y366858D01*
X274579Y366848D01*
X274569Y366838D01*
X274499Y366778D01*
X274449Y366718D01*
X274359Y366589D01*
X274339Y366529D01*
X274319Y366479D01*
X274300Y366449D01*
Y366439D01*
X274289Y366379D01*
X274270Y366309D01*
X274259Y366229D01*
X274250Y366139D01*
X274240Y365930D01*
X274230Y365720D01*
X274220Y365510D01*
Y365421D01*
Y365341D01*
Y365281D01*
Y365221D01*
Y365191D01*
Y365181D01*
Y361997D01*
Y361877D01*
Y361777D01*
X274230Y361587D01*
X274240Y361448D01*
X274250Y361328D01*
X274259Y361248D01*
X274270Y361188D01*
X274279Y361158D01*
Y361148D01*
X274310Y361078D01*
X274339Y361018D01*
X274419Y360909D01*
X274459Y360869D01*
X274489Y360849D01*
X274509Y360829D01*
X274519Y360819D01*
X274589Y360769D01*
X274669Y360739D01*
X274828Y360689D01*
X274898Y360679D01*
X274958Y360669D01*
X275008D01*
Y360390D01*
X271175D01*
Y360669D01*
X271355Y360689D01*
X271495Y360729D01*
X271614Y360779D01*
X271714Y360839D01*
X271784Y360899D01*
X271824Y360939D01*
X271854Y360979D01*
X271864Y360989D01*
X271884Y361038D01*
X271914Y361088D01*
X271944Y361238D01*
X271974Y361398D01*
X271984Y361567D01*
X271994Y361737D01*
X272004Y361807D01*
Y361867D01*
Y361927D01*
Y361967D01*
Y361987D01*
Y361997D01*
Y365980D01*
X271874Y366159D01*
X271744Y366309D01*
X271624Y366439D01*
X271514Y366539D01*
X271425Y366618D01*
X271355Y366678D01*
X271315Y366718D01*
X271295Y366728D01*
X271165Y366808D01*
X271035Y366868D01*
X270926Y366918D01*
X270816Y366948D01*
X270736Y366968D01*
X270666Y366978D01*
X270606D01*
X270526Y366968D01*
X270446Y366958D01*
X270376Y366938D01*
X270317Y366908D01*
X270277Y366878D01*
X270237Y366858D01*
X270217Y366848D01*
X270207Y366838D01*
X270147Y366788D01*
X270097Y366718D01*
X270017Y366589D01*
X269987Y366529D01*
X269967Y366479D01*
X269957Y366449D01*
Y366439D01*
X269947Y366379D01*
X269927Y366309D01*
X269917Y366219D01*
X269907Y366129D01*
X269897Y365920D01*
X269887Y365710D01*
X269877Y365510D01*
Y365421D01*
Y365341D01*
Y365271D01*
Y365221D01*
Y365191D01*
Y365181D01*
Y361997D01*
Y361857D01*
X269887Y361737D01*
Y361617D01*
X269897Y361517D01*
X269907Y361428D01*
X269917Y361348D01*
X269947Y361218D01*
X269977Y361118D01*
X269997Y361058D01*
X270007Y361018D01*
X270017Y361008D01*
X270107Y360909D01*
X270217Y360829D01*
X270327Y360769D01*
X270436Y360719D01*
X270536Y360699D01*
X270616Y360679D01*
X270666Y360669D01*
X270686D01*
Y360390D01*
X266863D01*
Y360669D01*
X267032Y360699D01*
X267172Y360739D01*
X267282Y360779D01*
X267372Y360819D01*
X267432Y360859D01*
X267482Y360899D01*
X267502Y360919D01*
X267512Y360929D01*
X267542Y360979D01*
X267561Y361038D01*
X267582Y361108D01*
X267601Y361188D01*
X267621Y361358D01*
X267641Y361538D01*
X267651Y361717D01*
X267661Y361787D01*
Y361857D01*
Y361917D01*
Y361957D01*
Y361987D01*
Y361997D01*
Y365031D01*
Y365251D01*
X267671Y365451D01*
X267681Y365630D01*
X267691Y365800D01*
X267701Y365960D01*
X267721Y366099D01*
X267731Y366229D01*
X267751Y366339D01*
X267771Y366439D01*
X267781Y366529D01*
X267801Y366599D01*
X267811Y366658D01*
X267821Y366698D01*
X267831Y366728D01*
X267841Y366748D01*
Y366758D01*
X267921Y366958D01*
X268021Y367127D01*
X268120Y367287D01*
X268230Y367417D01*
X268320Y367517D01*
X268400Y367597D01*
X268460Y367637D01*
X268470Y367657D01*
X268480D01*
X268659Y367776D01*
X268859Y367866D01*
X269059Y367926D01*
X269258Y367976D01*
X269428Y367996D01*
X269508Y368006D01*
X269568D01*
X269628Y368016D01*
X269698D01*
X269927Y368006D01*
X270157Y367966D01*
X270357Y367916D01*
X270546Y367856D01*
X270696Y367796D01*
X270756Y367766D01*
X270816Y367746D01*
X270856Y367727D01*
X270886Y367706D01*
X270905Y367696D01*
X270916D01*
X271135Y367557D01*
X271345Y367397D01*
X271554Y367227D01*
X271744Y367068D01*
X271904Y366908D01*
X271964Y366838D01*
X272024Y366788D01*
X272073Y366738D01*
X272103Y366698D01*
X272123Y366678D01*
X272133Y366668D01*
X272243Y366908D01*
X272363Y367118D01*
X272483Y367287D01*
X272603Y367427D01*
X272712Y367537D01*
X272802Y367617D01*
X272862Y367657D01*
X272872Y367677D01*
X272882D01*
X273072Y367786D01*
X273271Y367876D01*
X273471Y367936D01*
X273651Y367976D01*
X273820Y367996D01*
X273890Y368006D01*
X273950Y368016D01*
X274070D01*
X274300Y368006D01*
D02*
G37*
G36*
X367972Y370851D02*
X367623D01*
X367433Y370841D01*
X367274Y370811D01*
X367124Y370781D01*
X367014Y370741D01*
X366914Y370691D01*
X366844Y370661D01*
X366805Y370631D01*
X366795Y370621D01*
X366715Y370561D01*
X366655Y370492D01*
X366605Y370422D01*
X366565Y370352D01*
X366535Y370292D01*
X366515Y370242D01*
X366495Y370202D01*
Y370192D01*
X366485Y370152D01*
Y370112D01*
X366475Y369982D01*
X366465Y369843D01*
X366455Y369693D01*
Y369543D01*
Y369423D01*
Y369374D01*
Y369334D01*
Y369314D01*
Y369304D01*
Y362226D01*
Y362077D01*
Y361947D01*
X366465Y361827D01*
Y361727D01*
X366475Y361627D01*
X366485Y361548D01*
X366495Y361478D01*
Y361418D01*
X366515Y361318D01*
X366535Y361258D01*
X366545Y361228D01*
Y361218D01*
X366595Y361128D01*
X366645Y361048D01*
X366695Y360979D01*
X366745Y360929D01*
X366795Y360889D01*
X366834Y360859D01*
X366854Y360849D01*
X366864Y360839D01*
X366984Y360789D01*
X367104Y360749D01*
X367234Y360719D01*
X367354Y360699D01*
X367463Y360689D01*
X367543Y360679D01*
X367972D01*
Y360390D01*
X358679D01*
X358190Y363793D01*
X358489D01*
X358569Y363534D01*
X358659Y363294D01*
X358759Y363075D01*
X358859Y362865D01*
X358969Y362676D01*
X359078Y362506D01*
X359188Y362346D01*
X359288Y362206D01*
X359398Y362077D01*
X359488Y361977D01*
X359577Y361887D01*
X359647Y361807D01*
X359707Y361747D01*
X359757Y361707D01*
X359787Y361687D01*
X359797Y361677D01*
X359977Y361558D01*
X360156Y361448D01*
X360356Y361358D01*
X360556Y361278D01*
X360755Y361208D01*
X360965Y361158D01*
X361155Y361108D01*
X361344Y361078D01*
X361524Y361048D01*
X361684Y361028D01*
X361833Y361008D01*
X361963Y360998D01*
X362063Y360989D01*
X362852D01*
X363011Y360998D01*
X363151Y361008D01*
X363261Y361028D01*
X363361Y361048D01*
X363430Y361068D01*
X363480Y361088D01*
X363510Y361108D01*
X363520D01*
X363590Y361158D01*
X363650Y361218D01*
X363700Y361268D01*
X363730Y361318D01*
X363760Y361368D01*
X363780Y361408D01*
X363800Y361428D01*
Y361438D01*
X363810Y361488D01*
X363820Y361538D01*
X363830Y361607D01*
X363840Y361687D01*
X363850Y361867D01*
X363860Y362057D01*
X363870Y362226D01*
Y362306D01*
Y362376D01*
Y362436D01*
Y362476D01*
Y362506D01*
Y362516D01*
Y365550D01*
X363600Y365540D01*
X363361Y365520D01*
X363161Y365480D01*
X362991Y365451D01*
X362862Y365411D01*
X362772Y365371D01*
X362712Y365351D01*
X362692Y365341D01*
X362542Y365251D01*
X362402Y365131D01*
X362283Y365001D01*
X362183Y364872D01*
X362093Y364752D01*
X362023Y364652D01*
X362003Y364612D01*
X361983Y364582D01*
X361973Y364562D01*
Y364552D01*
X361863Y364323D01*
X361773Y364073D01*
X361704Y363824D01*
X361654Y363584D01*
X361634Y363474D01*
X361614Y363374D01*
X361594Y363284D01*
X361584Y363205D01*
X361574Y363145D01*
X361564Y363095D01*
Y363065D01*
Y363055D01*
X361274D01*
Y368685D01*
X361564D01*
X361594Y368455D01*
X361624Y368246D01*
X361664Y368046D01*
X361714Y367856D01*
X361763Y367687D01*
X361813Y367537D01*
X361863Y367387D01*
X361913Y367267D01*
X361963Y367158D01*
X362003Y367058D01*
X362053Y366978D01*
X362083Y366908D01*
X362123Y366858D01*
X362143Y366818D01*
X362153Y366798D01*
X362163Y366788D01*
X362253Y366678D01*
X362362Y366578D01*
X362472Y366489D01*
X362592Y366419D01*
X362712Y366359D01*
X362842Y366309D01*
X363081Y366229D01*
X363201Y366199D01*
X363311Y366179D01*
X363401Y366169D01*
X363490Y366159D01*
X363560Y366149D01*
X363870D01*
Y370522D01*
X362532D01*
X362332Y370512D01*
X362143D01*
X361973Y370502D01*
X361823Y370492D01*
X361694Y370472D01*
X361564Y370462D01*
X361464Y370452D01*
X361364Y370432D01*
X361294Y370422D01*
X361225Y370412D01*
X361175Y370392D01*
X361135Y370382D01*
X361105D01*
X361095Y370372D01*
X361085D01*
X360815Y370272D01*
X360586Y370152D01*
X360386Y370032D01*
X360216Y369913D01*
X360087Y369793D01*
X359997Y369703D01*
X359937Y369643D01*
X359917Y369633D01*
Y369623D01*
X359837Y369523D01*
X359767Y369413D01*
X359697Y369284D01*
X359637Y369154D01*
X359528Y368884D01*
X359428Y368605D01*
X359388Y368475D01*
X359358Y368355D01*
X359328Y368246D01*
X359298Y368156D01*
X359278Y368076D01*
X359268Y368016D01*
X359258Y367976D01*
Y367966D01*
X358969D01*
Y371140D01*
X367972D01*
Y370851D01*
D02*
G37*
G36*
X323771Y368006D02*
X324081Y367976D01*
X324360Y367926D01*
X324490Y367906D01*
X324620Y367876D01*
X324730Y367846D01*
X324829Y367826D01*
X324919Y367806D01*
X324989Y367776D01*
X325049Y367766D01*
X325089Y367747D01*
X325119Y367737D01*
X325129D01*
X325418Y367627D01*
X325668Y367497D01*
X325877Y367357D01*
X326057Y367237D01*
X326197Y367118D01*
X326257Y367068D01*
X326307Y367028D01*
X326337Y366988D01*
X326367Y366958D01*
X326377Y366948D01*
X326387Y366938D01*
X326466Y366838D01*
X326536Y366738D01*
X326646Y366549D01*
X326726Y366369D01*
X326776Y366199D01*
X326816Y366059D01*
X326826Y365950D01*
X326836Y365910D01*
Y365880D01*
Y365860D01*
Y365850D01*
X326826Y365710D01*
X326786Y365570D01*
X326736Y365451D01*
X326666Y365351D01*
X326606Y365271D01*
X326556Y365201D01*
X326516Y365161D01*
X326506Y365151D01*
X326377Y365051D01*
X326227Y364981D01*
X326087Y364921D01*
X325957Y364892D01*
X325848Y364872D01*
X325748Y364862D01*
X325688Y364852D01*
X325668D01*
X325498Y364862D01*
X325348Y364892D01*
X325219Y364941D01*
X325109Y364991D01*
X325029Y365031D01*
X324959Y365081D01*
X324919Y365111D01*
X324909Y365121D01*
X324809Y365231D01*
X324739Y365341D01*
X324690Y365451D01*
X324660Y365550D01*
X324630Y365640D01*
X324620Y365720D01*
Y365760D01*
Y365780D01*
X324630Y365900D01*
X324670Y366020D01*
X324710Y366129D01*
X324770Y366229D01*
X324819Y366319D01*
X324869Y366379D01*
X324909Y366429D01*
X324919Y366439D01*
X324999Y366529D01*
X325049Y366609D01*
X325089Y366678D01*
X325119Y366738D01*
X325139Y366788D01*
X325149Y366818D01*
Y366838D01*
Y366848D01*
X325139Y366918D01*
X325119Y366978D01*
X325039Y367088D01*
X325009Y367128D01*
X324969Y367158D01*
X324949Y367178D01*
X324939Y367188D01*
X324809Y367267D01*
X324670Y367317D01*
X324530Y367357D01*
X324390Y367387D01*
X324270Y367407D01*
X324180Y367417D01*
X324091D01*
X323971Y367407D01*
X323871Y367387D01*
X323771Y367367D01*
X323681Y367337D01*
X323621Y367297D01*
X323562Y367277D01*
X323532Y367257D01*
X323522Y367247D01*
X323432Y367188D01*
X323362Y367118D01*
X323292Y367058D01*
X323252Y366998D01*
X323212Y366948D01*
X323192Y366908D01*
X323172Y366878D01*
Y366868D01*
X323152Y366818D01*
X323142Y366758D01*
X323122Y366688D01*
X323112Y366609D01*
X323092Y366439D01*
X323083Y366259D01*
X323073Y366089D01*
Y366020D01*
Y365950D01*
Y365900D01*
Y365860D01*
Y365830D01*
Y365820D01*
Y365071D01*
X323302Y364971D01*
X323512Y364862D01*
X323911Y364672D01*
X324280Y364482D01*
X324610Y364313D01*
X324899Y364153D01*
X325159Y364003D01*
X325388Y363863D01*
X325588Y363744D01*
X325758Y363634D01*
X325897Y363544D01*
X326017Y363454D01*
X326107Y363384D01*
X326177Y363334D01*
X326217Y363294D01*
X326247Y363274D01*
X326257Y363264D01*
X326387Y363135D01*
X326496Y363005D01*
X326596Y362875D01*
X326676Y362745D01*
X326746Y362616D01*
X326806Y362486D01*
X326856Y362366D01*
X326896Y362256D01*
X326926Y362146D01*
X326946Y362047D01*
X326966Y361967D01*
X326976Y361887D01*
Y361827D01*
X326986Y361787D01*
Y361757D01*
Y361747D01*
X326966Y361518D01*
X326916Y361318D01*
X326856Y361138D01*
X326776Y360989D01*
X326696Y360869D01*
X326636Y360779D01*
X326586Y360719D01*
X326566Y360699D01*
X326397Y360559D01*
X326227Y360460D01*
X326047Y360390D01*
X325887Y360340D01*
X325738Y360310D01*
X325618Y360300D01*
X325578Y360290D01*
X325518D01*
X325308Y360300D01*
X325099Y360340D01*
X324889Y360400D01*
X324680Y360479D01*
X324470Y360569D01*
X324270Y360669D01*
X324071Y360779D01*
X323891Y360889D01*
X323711Y360998D01*
X323562Y361108D01*
X323422Y361208D01*
X323302Y361298D01*
X323202Y361378D01*
X323132Y361438D01*
X323092Y361478D01*
X323073Y361488D01*
X323033Y361278D01*
X322973Y361088D01*
X322903Y360929D01*
X322833Y360809D01*
X322763Y360709D01*
X322703Y360639D01*
X322663Y360589D01*
X322643Y360579D01*
X322494Y360479D01*
X322334Y360410D01*
X322174Y360360D01*
X322014Y360330D01*
X321875Y360310D01*
X321755Y360290D01*
X321655D01*
X321455Y360300D01*
X321276Y360330D01*
X321116Y360370D01*
X320976Y360420D01*
X320857Y360469D01*
X320767Y360509D01*
X320717Y360539D01*
X320697Y360549D01*
X320537Y360659D01*
X320387Y360799D01*
X320247Y360939D01*
X320118Y361078D01*
X320018Y361208D01*
X319938Y361308D01*
X319908Y361348D01*
X319888Y361378D01*
X319868Y361398D01*
Y361408D01*
X320108Y361587D01*
X320188Y361498D01*
X320267Y361428D01*
X320337Y361378D01*
X320397Y361348D01*
X320447Y361328D01*
X320487Y361308D01*
X320527D01*
X320607Y361318D01*
X320667Y361338D01*
X320707Y361358D01*
X320717Y361368D01*
X320767Y361428D01*
X320807Y361488D01*
X320826Y361538D01*
X320836Y361548D01*
Y361558D01*
X320846Y361627D01*
X320857Y361717D01*
Y361817D01*
X320866Y361927D01*
Y362027D01*
Y362117D01*
Y362176D01*
Y362186D01*
Y362196D01*
Y365071D01*
Y365281D01*
Y365480D01*
X320876Y365650D01*
X320886Y365810D01*
X320896Y365950D01*
X320906Y366079D01*
X320916Y366189D01*
X320926Y366279D01*
X320936Y366359D01*
X320946Y366429D01*
X320956Y366489D01*
X320966Y366529D01*
X320976Y366559D01*
Y366578D01*
X320986Y366599D01*
X321026Y366698D01*
X321076Y366788D01*
X321186Y366968D01*
X321316Y367137D01*
X321455Y367277D01*
X321575Y367397D01*
X321685Y367487D01*
X321725Y367527D01*
X321755Y367547D01*
X321775Y367567D01*
X321785D01*
X321905Y367647D01*
X322034Y367716D01*
X322304Y367826D01*
X322583Y367906D01*
X322843Y367956D01*
X322973Y367976D01*
X323083Y367996D01*
X323192Y368006D01*
X323272D01*
X323352Y368016D01*
X323452D01*
X323771Y368006D01*
D02*
G37*
G36*
X306632D02*
X306941Y367976D01*
X307221Y367926D01*
X307351Y367906D01*
X307480Y367876D01*
X307590Y367846D01*
X307690Y367826D01*
X307780Y367806D01*
X307850Y367776D01*
X307910Y367766D01*
X307950Y367747D01*
X307979Y367737D01*
X307989D01*
X308279Y367627D01*
X308528Y367497D01*
X308738Y367357D01*
X308918Y367237D01*
X309058Y367118D01*
X309117Y367068D01*
X309167Y367028D01*
X309197Y366988D01*
X309227Y366958D01*
X309237Y366948D01*
X309247Y366938D01*
X309327Y366838D01*
X309397Y366738D01*
X309507Y366549D01*
X309587Y366369D01*
X309636Y366199D01*
X309676Y366059D01*
X309686Y365950D01*
X309696Y365910D01*
Y365880D01*
Y365860D01*
Y365850D01*
X309686Y365710D01*
X309646Y365570D01*
X309597Y365451D01*
X309527Y365351D01*
X309467Y365271D01*
X309417Y365201D01*
X309377Y365161D01*
X309367Y365151D01*
X309237Y365051D01*
X309087Y364981D01*
X308948Y364921D01*
X308818Y364892D01*
X308708Y364872D01*
X308608Y364862D01*
X308548Y364852D01*
X308528D01*
X308359Y364862D01*
X308209Y364892D01*
X308079Y364941D01*
X307969Y364991D01*
X307890Y365031D01*
X307820Y365081D01*
X307780Y365111D01*
X307770Y365121D01*
X307670Y365231D01*
X307600Y365341D01*
X307550Y365451D01*
X307520Y365550D01*
X307490Y365640D01*
X307480Y365720D01*
Y365760D01*
Y365780D01*
X307490Y365900D01*
X307530Y366020D01*
X307570Y366129D01*
X307630Y366229D01*
X307680Y366319D01*
X307730Y366379D01*
X307770Y366429D01*
X307780Y366439D01*
X307860Y366529D01*
X307910Y366609D01*
X307950Y366678D01*
X307979Y366738D01*
X307999Y366788D01*
X308009Y366818D01*
Y366838D01*
Y366848D01*
X307999Y366918D01*
X307979Y366978D01*
X307900Y367088D01*
X307870Y367128D01*
X307830Y367158D01*
X307810Y367178D01*
X307800Y367188D01*
X307670Y367267D01*
X307530Y367317D01*
X307390Y367357D01*
X307251Y367387D01*
X307131Y367407D01*
X307041Y367417D01*
X306951D01*
X306831Y367407D01*
X306732Y367387D01*
X306632Y367367D01*
X306542Y367337D01*
X306482Y367297D01*
X306422Y367277D01*
X306392Y367257D01*
X306382Y367247D01*
X306292Y367188D01*
X306223Y367118D01*
X306153Y367058D01*
X306113Y366998D01*
X306073Y366948D01*
X306053Y366908D01*
X306033Y366878D01*
Y366868D01*
X306013Y366818D01*
X306003Y366758D01*
X305983Y366688D01*
X305973Y366609D01*
X305953Y366439D01*
X305943Y366259D01*
X305933Y366089D01*
Y366020D01*
Y365950D01*
Y365900D01*
Y365860D01*
Y365830D01*
Y365820D01*
Y365071D01*
X306163Y364971D01*
X306372Y364862D01*
X306772Y364672D01*
X307141Y364482D01*
X307470Y364313D01*
X307760Y364153D01*
X308019Y364003D01*
X308249Y363863D01*
X308449Y363744D01*
X308618Y363634D01*
X308758Y363544D01*
X308878Y363454D01*
X308968Y363384D01*
X309037Y363334D01*
X309077Y363294D01*
X309107Y363274D01*
X309117Y363264D01*
X309247Y363135D01*
X309357Y363005D01*
X309457Y362875D01*
X309537Y362745D01*
X309606Y362616D01*
X309666Y362486D01*
X309716Y362366D01*
X309756Y362256D01*
X309786Y362146D01*
X309806Y362047D01*
X309826Y361967D01*
X309836Y361887D01*
Y361827D01*
X309846Y361787D01*
Y361757D01*
Y361747D01*
X309826Y361518D01*
X309776Y361318D01*
X309716Y361138D01*
X309636Y360989D01*
X309557Y360869D01*
X309497Y360779D01*
X309447Y360719D01*
X309427Y360699D01*
X309257Y360559D01*
X309087Y360460D01*
X308908Y360390D01*
X308748Y360340D01*
X308598Y360310D01*
X308479Y360300D01*
X308439Y360290D01*
X308379D01*
X308169Y360300D01*
X307959Y360340D01*
X307750Y360400D01*
X307540Y360479D01*
X307331Y360569D01*
X307131Y360669D01*
X306931Y360779D01*
X306752Y360889D01*
X306572Y360998D01*
X306422Y361108D01*
X306282Y361208D01*
X306163Y361298D01*
X306063Y361378D01*
X305993Y361438D01*
X305953Y361478D01*
X305933Y361488D01*
X305893Y361278D01*
X305833Y361088D01*
X305763Y360929D01*
X305693Y360809D01*
X305624Y360709D01*
X305564Y360639D01*
X305524Y360589D01*
X305504Y360579D01*
X305354Y360479D01*
X305194Y360410D01*
X305035Y360360D01*
X304875Y360330D01*
X304735Y360310D01*
X304615Y360290D01*
X304516D01*
X304316Y360300D01*
X304136Y360330D01*
X303977Y360370D01*
X303837Y360420D01*
X303717Y360469D01*
X303627Y360509D01*
X303577Y360539D01*
X303557Y360549D01*
X303398Y360659D01*
X303248Y360799D01*
X303108Y360939D01*
X302978Y361078D01*
X302878Y361208D01*
X302799Y361308D01*
X302769Y361348D01*
X302749Y361378D01*
X302729Y361398D01*
Y361408D01*
X302968Y361587D01*
X303048Y361498D01*
X303128Y361428D01*
X303198Y361378D01*
X303258Y361348D01*
X303308Y361328D01*
X303348Y361308D01*
X303388D01*
X303468Y361318D01*
X303527Y361338D01*
X303567Y361358D01*
X303577Y361368D01*
X303627Y361428D01*
X303667Y361488D01*
X303687Y361538D01*
X303697Y361548D01*
Y361558D01*
X303707Y361627D01*
X303717Y361717D01*
Y361817D01*
X303727Y361927D01*
Y362027D01*
Y362117D01*
Y362176D01*
Y362186D01*
Y362196D01*
Y365071D01*
Y365281D01*
Y365480D01*
X303737Y365650D01*
X303747Y365810D01*
X303757Y365950D01*
X303767Y366079D01*
X303777Y366189D01*
X303787Y366279D01*
X303797Y366359D01*
X303807Y366429D01*
X303817Y366489D01*
X303827Y366529D01*
X303837Y366559D01*
Y366578D01*
X303847Y366599D01*
X303887Y366698D01*
X303937Y366788D01*
X304046Y366968D01*
X304176Y367137D01*
X304316Y367277D01*
X304436Y367397D01*
X304545Y367487D01*
X304585Y367527D01*
X304615Y367547D01*
X304635Y367567D01*
X304645D01*
X304765Y367647D01*
X304895Y367716D01*
X305164Y367826D01*
X305444Y367906D01*
X305704Y367956D01*
X305833Y367976D01*
X305943Y367996D01*
X306053Y368006D01*
X306133D01*
X306213Y368016D01*
X306312D01*
X306632Y368006D01*
D02*
G37*
G36*
X284122Y368006D02*
X284431Y367976D01*
X284711Y367926D01*
X284841Y367906D01*
X284970Y367876D01*
X285080Y367846D01*
X285180Y367826D01*
X285270Y367806D01*
X285340Y367776D01*
X285400Y367766D01*
X285440Y367746D01*
X285470Y367737D01*
X285480D01*
X285769Y367627D01*
X286019Y367497D01*
X286228Y367357D01*
X286408Y367237D01*
X286548Y367118D01*
X286607Y367068D01*
X286657Y367028D01*
X286687Y366988D01*
X286717Y366958D01*
X286727Y366948D01*
X286737Y366938D01*
X286817Y366838D01*
X286887Y366738D01*
X286997Y366549D01*
X287077Y366369D01*
X287127Y366199D01*
X287167Y366059D01*
X287176Y365950D01*
X287187Y365910D01*
Y365880D01*
Y365860D01*
Y365850D01*
X287176Y365710D01*
X287137Y365570D01*
X287087Y365451D01*
X287017Y365351D01*
X286957Y365271D01*
X286907Y365201D01*
X286867Y365161D01*
X286857Y365151D01*
X286727Y365051D01*
X286578Y364981D01*
X286438Y364921D01*
X286308Y364892D01*
X286198Y364872D01*
X286098Y364862D01*
X286038Y364852D01*
X286019D01*
X285849Y364862D01*
X285699Y364892D01*
X285569Y364941D01*
X285460Y364991D01*
X285380Y365031D01*
X285310Y365081D01*
X285270Y365111D01*
X285260Y365121D01*
X285160Y365231D01*
X285090Y365341D01*
X285040Y365451D01*
X285010Y365550D01*
X284980Y365640D01*
X284970Y365720D01*
Y365760D01*
Y365780D01*
X284980Y365900D01*
X285020Y366020D01*
X285060Y366129D01*
X285120Y366229D01*
X285170Y366319D01*
X285220Y366379D01*
X285260Y366429D01*
X285270Y366439D01*
X285350Y366529D01*
X285400Y366609D01*
X285440Y366678D01*
X285470Y366738D01*
X285490Y366788D01*
X285499Y366818D01*
Y366838D01*
Y366848D01*
X285490Y366918D01*
X285470Y366978D01*
X285390Y367088D01*
X285360Y367127D01*
X285320Y367158D01*
X285300Y367177D01*
X285290Y367187D01*
X285160Y367267D01*
X285020Y367317D01*
X284881Y367357D01*
X284741Y367387D01*
X284621Y367407D01*
X284531Y367417D01*
X284441D01*
X284322Y367407D01*
X284222Y367387D01*
X284122Y367367D01*
X284032Y367337D01*
X283972Y367297D01*
X283912Y367277D01*
X283882Y367257D01*
X283872Y367247D01*
X283783Y367187D01*
X283713Y367118D01*
X283643Y367058D01*
X283603Y366998D01*
X283563Y366948D01*
X283543Y366908D01*
X283523Y366878D01*
Y366868D01*
X283503Y366818D01*
X283493Y366758D01*
X283473Y366688D01*
X283463Y366609D01*
X283443Y366439D01*
X283433Y366259D01*
X283423Y366089D01*
Y366020D01*
Y365950D01*
Y365900D01*
Y365860D01*
Y365830D01*
Y365820D01*
Y365071D01*
X283653Y364971D01*
X283862Y364862D01*
X284262Y364672D01*
X284631Y364482D01*
X284960Y364313D01*
X285250Y364153D01*
X285509Y364003D01*
X285739Y363863D01*
X285939Y363744D01*
X286108Y363634D01*
X286248Y363544D01*
X286368Y363454D01*
X286458Y363384D01*
X286528Y363334D01*
X286568Y363294D01*
X286597Y363274D01*
X286607Y363264D01*
X286737Y363135D01*
X286847Y363005D01*
X286947Y362875D01*
X287027Y362745D01*
X287097Y362616D01*
X287157Y362486D01*
X287206Y362366D01*
X287246Y362256D01*
X287276Y362146D01*
X287296Y362047D01*
X287316Y361967D01*
X287326Y361887D01*
Y361827D01*
X287336Y361787D01*
Y361757D01*
Y361747D01*
X287316Y361517D01*
X287266Y361318D01*
X287206Y361138D01*
X287127Y360989D01*
X287047Y360869D01*
X286987Y360779D01*
X286937Y360719D01*
X286917Y360699D01*
X286747Y360559D01*
X286578Y360459D01*
X286398Y360390D01*
X286238Y360340D01*
X286089Y360310D01*
X285969Y360300D01*
X285929Y360290D01*
X285869D01*
X285659Y360300D01*
X285450Y360340D01*
X285240Y360400D01*
X285030Y360479D01*
X284821Y360569D01*
X284621Y360669D01*
X284421Y360779D01*
X284242Y360889D01*
X284062Y360998D01*
X283912Y361108D01*
X283773Y361208D01*
X283653Y361298D01*
X283553Y361378D01*
X283483Y361438D01*
X283443Y361478D01*
X283423Y361488D01*
X283383Y361278D01*
X283323Y361088D01*
X283253Y360929D01*
X283184Y360809D01*
X283114Y360709D01*
X283054Y360639D01*
X283014Y360589D01*
X282994Y360579D01*
X282844Y360479D01*
X282684Y360410D01*
X282525Y360360D01*
X282365Y360330D01*
X282225Y360310D01*
X282106Y360290D01*
X282006D01*
X281806Y360300D01*
X281626Y360330D01*
X281467Y360370D01*
X281327Y360420D01*
X281207Y360469D01*
X281117Y360509D01*
X281067Y360539D01*
X281047Y360549D01*
X280888Y360659D01*
X280738Y360799D01*
X280598Y360939D01*
X280469Y361078D01*
X280369Y361208D01*
X280289Y361308D01*
X280259Y361348D01*
X280239Y361378D01*
X280219Y361398D01*
Y361408D01*
X280459Y361587D01*
X280538Y361498D01*
X280618Y361428D01*
X280688Y361378D01*
X280748Y361348D01*
X280798Y361328D01*
X280838Y361308D01*
X280878D01*
X280958Y361318D01*
X281017Y361338D01*
X281057Y361358D01*
X281067Y361368D01*
X281117Y361428D01*
X281157Y361488D01*
X281177Y361538D01*
X281187Y361548D01*
Y361558D01*
X281197Y361627D01*
X281207Y361717D01*
Y361817D01*
X281217Y361927D01*
Y362027D01*
Y362117D01*
Y362176D01*
Y362186D01*
Y362196D01*
Y365071D01*
Y365281D01*
Y365480D01*
X281227Y365650D01*
X281237Y365810D01*
X281247Y365950D01*
X281257Y366079D01*
X281267Y366189D01*
X281277Y366279D01*
X281287Y366359D01*
X281297Y366429D01*
X281307Y366489D01*
X281317Y366529D01*
X281327Y366559D01*
Y366578D01*
X281337Y366599D01*
X281377Y366698D01*
X281427Y366788D01*
X281537Y366968D01*
X281666Y367137D01*
X281806Y367277D01*
X281926Y367397D01*
X282036Y367487D01*
X282076Y367527D01*
X282106Y367547D01*
X282125Y367567D01*
X282136D01*
X282255Y367647D01*
X282385Y367716D01*
X282655Y367826D01*
X282934Y367906D01*
X283194Y367956D01*
X283323Y367976D01*
X283433Y367996D01*
X283543Y368006D01*
X283623D01*
X283703Y368016D01*
X283803D01*
X284122Y368006D01*
D02*
G37*
G36*
X262491D02*
X262800Y367976D01*
X263079Y367926D01*
X263209Y367906D01*
X263339Y367876D01*
X263449Y367846D01*
X263549Y367826D01*
X263638Y367806D01*
X263708Y367776D01*
X263768Y367766D01*
X263808Y367746D01*
X263838Y367737D01*
X263848D01*
X264138Y367627D01*
X264387Y367497D01*
X264597Y367357D01*
X264776Y367237D01*
X264916Y367118D01*
X264976Y367068D01*
X265026Y367028D01*
X265056Y366988D01*
X265086Y366958D01*
X265096Y366948D01*
X265106Y366938D01*
X265186Y366838D01*
X265256Y366738D01*
X265365Y366549D01*
X265445Y366369D01*
X265495Y366199D01*
X265535Y366059D01*
X265545Y365950D01*
X265555Y365910D01*
Y365880D01*
Y365860D01*
Y365850D01*
X265545Y365710D01*
X265505Y365570D01*
X265455Y365451D01*
X265385Y365351D01*
X265326Y365271D01*
X265276Y365201D01*
X265236Y365161D01*
X265226Y365151D01*
X265096Y365051D01*
X264946Y364981D01*
X264806Y364921D01*
X264677Y364892D01*
X264567Y364872D01*
X264467Y364862D01*
X264407Y364852D01*
X264387D01*
X264217Y364862D01*
X264068Y364892D01*
X263938Y364941D01*
X263828Y364991D01*
X263748Y365031D01*
X263678Y365081D01*
X263638Y365111D01*
X263629Y365121D01*
X263529Y365231D01*
X263459Y365341D01*
X263409Y365451D01*
X263379Y365550D01*
X263349Y365640D01*
X263339Y365720D01*
Y365760D01*
Y365780D01*
X263349Y365900D01*
X263389Y366020D01*
X263429Y366129D01*
X263489Y366229D01*
X263539Y366319D01*
X263589Y366379D01*
X263629Y366429D01*
X263638Y366439D01*
X263718Y366529D01*
X263768Y366609D01*
X263808Y366678D01*
X263838Y366738D01*
X263858Y366788D01*
X263868Y366818D01*
Y366838D01*
Y366848D01*
X263858Y366918D01*
X263838Y366978D01*
X263758Y367088D01*
X263728Y367127D01*
X263688Y367158D01*
X263668Y367177D01*
X263659Y367187D01*
X263529Y367267D01*
X263389Y367317D01*
X263249Y367357D01*
X263109Y367387D01*
X262990Y367407D01*
X262900Y367417D01*
X262810D01*
X262690Y367407D01*
X262590Y367387D01*
X262491Y367367D01*
X262401Y367337D01*
X262341Y367297D01*
X262281Y367277D01*
X262251Y367257D01*
X262241Y367247D01*
X262151Y367187D01*
X262081Y367118D01*
X262011Y367058D01*
X261971Y366998D01*
X261931Y366948D01*
X261912Y366908D01*
X261892Y366878D01*
Y366868D01*
X261872Y366818D01*
X261862Y366758D01*
X261842Y366688D01*
X261832Y366609D01*
X261812Y366439D01*
X261802Y366259D01*
X261792Y366089D01*
Y366020D01*
Y365950D01*
Y365900D01*
Y365860D01*
Y365830D01*
Y365820D01*
Y365071D01*
X262021Y364971D01*
X262231Y364862D01*
X262630Y364672D01*
X263000Y364482D01*
X263329Y364313D01*
X263619Y364153D01*
X263878Y364003D01*
X264108Y363863D01*
X264307Y363744D01*
X264477Y363634D01*
X264617Y363544D01*
X264736Y363454D01*
X264826Y363384D01*
X264896Y363334D01*
X264936Y363294D01*
X264966Y363274D01*
X264976Y363264D01*
X265106Y363135D01*
X265216Y363005D01*
X265315Y362875D01*
X265395Y362745D01*
X265465Y362616D01*
X265525Y362486D01*
X265575Y362366D01*
X265615Y362256D01*
X265645Y362146D01*
X265665Y362047D01*
X265685Y361967D01*
X265695Y361887D01*
Y361827D01*
X265705Y361787D01*
Y361757D01*
Y361747D01*
X265685Y361517D01*
X265635Y361318D01*
X265575Y361138D01*
X265495Y360989D01*
X265415Y360869D01*
X265355Y360779D01*
X265306Y360719D01*
X265286Y360699D01*
X265116Y360559D01*
X264946Y360459D01*
X264767Y360390D01*
X264607Y360340D01*
X264457Y360310D01*
X264337Y360300D01*
X264297Y360290D01*
X264237D01*
X264028Y360300D01*
X263818Y360340D01*
X263608Y360400D01*
X263399Y360479D01*
X263189Y360569D01*
X262990Y360669D01*
X262790Y360779D01*
X262610Y360889D01*
X262431Y360998D01*
X262281Y361108D01*
X262141Y361208D01*
X262021Y361298D01*
X261922Y361378D01*
X261852Y361438D01*
X261812Y361478D01*
X261792Y361488D01*
X261752Y361278D01*
X261692Y361088D01*
X261622Y360929D01*
X261552Y360809D01*
X261482Y360709D01*
X261422Y360639D01*
X261383Y360589D01*
X261362Y360579D01*
X261213Y360479D01*
X261053Y360410D01*
X260893Y360360D01*
X260734Y360330D01*
X260594Y360310D01*
X260474Y360290D01*
X260374D01*
X260175Y360300D01*
X259995Y360330D01*
X259835Y360370D01*
X259695Y360420D01*
X259576Y360469D01*
X259486Y360509D01*
X259436Y360539D01*
X259416Y360549D01*
X259256Y360659D01*
X259107Y360799D01*
X258967Y360939D01*
X258837Y361078D01*
X258737Y361208D01*
X258657Y361308D01*
X258627Y361348D01*
X258608Y361378D01*
X258587Y361398D01*
Y361408D01*
X258827Y361587D01*
X258907Y361498D01*
X258987Y361428D01*
X259057Y361378D01*
X259117Y361348D01*
X259167Y361328D01*
X259206Y361308D01*
X259246D01*
X259326Y361318D01*
X259386Y361338D01*
X259426Y361358D01*
X259436Y361368D01*
X259486Y361428D01*
X259526Y361488D01*
X259546Y361538D01*
X259556Y361548D01*
Y361558D01*
X259566Y361627D01*
X259576Y361717D01*
Y361817D01*
X259586Y361927D01*
Y362027D01*
Y362117D01*
Y362176D01*
Y362186D01*
Y362196D01*
Y365071D01*
Y365281D01*
Y365480D01*
X259596Y365650D01*
X259606Y365810D01*
X259616Y365950D01*
X259626Y366079D01*
X259636Y366189D01*
X259646Y366279D01*
X259656Y366359D01*
X259666Y366429D01*
X259676Y366489D01*
X259685Y366529D01*
X259695Y366559D01*
Y366578D01*
X259706Y366599D01*
X259745Y366698D01*
X259795Y366788D01*
X259905Y366968D01*
X260035Y367137D01*
X260175Y367277D01*
X260294Y367397D01*
X260404Y367487D01*
X260444Y367527D01*
X260474Y367547D01*
X260494Y367567D01*
X260504D01*
X260624Y367647D01*
X260754Y367716D01*
X261023Y367826D01*
X261303Y367906D01*
X261562Y367956D01*
X261692Y367976D01*
X261802Y367996D01*
X261912Y368006D01*
X261991D01*
X262071Y368016D01*
X262171D01*
X262491Y368006D01*
D02*
G37*
G36*
X172621D02*
X172860Y367966D01*
X173090Y367916D01*
X173310Y367846D01*
X173509Y367766D01*
X173709Y367667D01*
X173888Y367567D01*
X174048Y367467D01*
X174198Y367367D01*
X174328Y367267D01*
X174447Y367177D01*
X174537Y367088D01*
X174617Y367018D01*
X174667Y366968D01*
X174707Y366928D01*
X174717Y366918D01*
X174897Y366708D01*
X175047Y366479D01*
X175176Y366239D01*
X175296Y365990D01*
X175386Y365750D01*
X175476Y365500D01*
X175536Y365261D01*
X175585Y365031D01*
X175635Y364812D01*
X175665Y364612D01*
X175685Y364432D01*
X175695Y364273D01*
X175705Y364143D01*
X175715Y364043D01*
Y363983D01*
Y363973D01*
Y363963D01*
X175705Y363684D01*
X175685Y363424D01*
X175655Y363175D01*
X175606Y362935D01*
X175556Y362705D01*
X175496Y362496D01*
X175436Y362306D01*
X175376Y362127D01*
X175316Y361977D01*
X175246Y361837D01*
X175196Y361717D01*
X175146Y361607D01*
X175096Y361538D01*
X175066Y361478D01*
X175047Y361438D01*
X175037Y361428D01*
X174867Y361208D01*
X174687Y361008D01*
X174487Y360849D01*
X174288Y360699D01*
X174088Y360579D01*
X173878Y360479D01*
X173669Y360390D01*
X173479Y360330D01*
X173290Y360280D01*
X173110Y360240D01*
X172960Y360210D01*
X172820Y360190D01*
X172711Y360180D01*
X172621Y360170D01*
X172551D01*
X172371Y360180D01*
X172201Y360190D01*
X171882Y360250D01*
X171593Y360330D01*
X171463Y360380D01*
X171343Y360429D01*
X171243Y360469D01*
X171143Y360519D01*
X171064Y360559D01*
X170994Y360599D01*
X170934Y360629D01*
X170894Y360659D01*
X170874Y360669D01*
X170864Y360679D01*
X170724Y360779D01*
X170594Y360899D01*
X170465Y361028D01*
X170345Y361168D01*
X170115Y361458D01*
X169926Y361747D01*
X169836Y361877D01*
X169756Y362007D01*
X169686Y362127D01*
X169636Y362226D01*
X169586Y362306D01*
X169556Y362376D01*
X169536Y362416D01*
X169526Y362426D01*
X169796Y362596D01*
X169956Y362356D01*
X170115Y362156D01*
X170255Y361987D01*
X170385Y361857D01*
X170485Y361757D01*
X170564Y361687D01*
X170614Y361647D01*
X170634Y361637D01*
X170784Y361548D01*
X170934Y361488D01*
X171073Y361438D01*
X171213Y361408D01*
X171323Y361388D01*
X171413Y361378D01*
X171493D01*
X171632Y361388D01*
X171772Y361408D01*
X171902Y361438D01*
X172022Y361478D01*
X172251Y361587D01*
X172441Y361707D01*
X172601Y361817D01*
X172661Y361877D01*
X172711Y361927D01*
X172751Y361967D01*
X172780Y361997D01*
X172801Y362017D01*
X172810Y362027D01*
X172940Y362196D01*
X173050Y362376D01*
X173150Y362566D01*
X173230Y362755D01*
X173310Y362945D01*
X173370Y363145D01*
X173419Y363334D01*
X173469Y363514D01*
X173499Y363694D01*
X173529Y363853D01*
X173549Y363993D01*
X173569Y364123D01*
X173579Y364223D01*
X173589Y364303D01*
Y364342D01*
Y364362D01*
X169526D01*
X169546Y364692D01*
X169586Y365001D01*
X169636Y365281D01*
X169696Y365550D01*
X169766Y365800D01*
X169846Y366020D01*
X169916Y366219D01*
X170005Y366399D01*
X170085Y366559D01*
X170155Y366698D01*
X170235Y366818D01*
X170295Y366918D01*
X170345Y366988D01*
X170385Y367048D01*
X170415Y367078D01*
X170425Y367088D01*
X170584Y367247D01*
X170744Y367397D01*
X170914Y367517D01*
X171073Y367627D01*
X171243Y367716D01*
X171403Y367786D01*
X171563Y367846D01*
X171712Y367896D01*
X171842Y367936D01*
X171972Y367966D01*
X172082Y367986D01*
X172182Y368006D01*
X172261D01*
X172321Y368016D01*
X172371D01*
X172621Y368006D01*
D02*
G37*
G36*
X336229Y367507D02*
X336059Y367477D01*
X335920Y367437D01*
X335810Y367387D01*
X335730Y367337D01*
X335660Y367297D01*
X335620Y367257D01*
X335600Y367237D01*
X335590Y367227D01*
X335560Y367188D01*
X335540Y367128D01*
X335520Y367058D01*
X335500Y366978D01*
X335470Y366808D01*
X335450Y366638D01*
X335440Y366469D01*
X335430Y366389D01*
Y366319D01*
Y366269D01*
Y366229D01*
Y366199D01*
Y366189D01*
Y363245D01*
Y363015D01*
X335420Y362805D01*
X335410Y362606D01*
X335401Y362426D01*
X335391Y362266D01*
X335381Y362117D01*
X335361Y361987D01*
X335351Y361867D01*
X335331Y361767D01*
X335321Y361677D01*
X335311Y361607D01*
X335291Y361548D01*
X335281Y361508D01*
Y361478D01*
X335271Y361458D01*
Y361448D01*
X335191Y361258D01*
X335101Y361088D01*
X334991Y360939D01*
X334881Y360809D01*
X334782Y360699D01*
X334702Y360619D01*
X334642Y360569D01*
X334632Y360549D01*
X334622D01*
X334432Y360420D01*
X334243Y360330D01*
X334053Y360260D01*
X333883Y360220D01*
X333723Y360190D01*
X333664Y360180D01*
X333614D01*
X333564Y360170D01*
X333504D01*
X333264Y360180D01*
X333045Y360210D01*
X332845Y360260D01*
X332675Y360310D01*
X332526Y360360D01*
X332466Y360390D01*
X332416Y360410D01*
X332376Y360420D01*
X332346Y360439D01*
X332336Y360449D01*
X332326D01*
X332126Y360569D01*
X331937Y360719D01*
X331757Y360869D01*
X331597Y361018D01*
X331458Y361158D01*
X331348Y361278D01*
X331308Y361318D01*
X331278Y361348D01*
X331268Y361368D01*
X331258Y361378D01*
Y360390D01*
X328243D01*
Y360669D01*
X328413Y360699D01*
X328553Y360729D01*
X328662Y360769D01*
X328752Y360819D01*
X328812Y360859D01*
X328862Y360899D01*
X328882Y360919D01*
X328892Y360929D01*
X328922Y360979D01*
X328942Y361038D01*
X328962Y361108D01*
X328982Y361188D01*
X329002Y361358D01*
X329022Y361538D01*
X329032Y361717D01*
X329042Y361787D01*
Y361857D01*
Y361917D01*
Y361957D01*
Y361987D01*
Y361997D01*
Y367796D01*
X332057D01*
Y367507D01*
X331887Y367477D01*
X331747Y367437D01*
X331637Y367387D01*
X331557Y367337D01*
X331488Y367297D01*
X331448Y367257D01*
X331428Y367237D01*
X331418Y367227D01*
X331388Y367188D01*
X331368Y367128D01*
X331348Y367058D01*
X331328Y366978D01*
X331298Y366808D01*
X331278Y366638D01*
X331268Y366469D01*
X331258Y366389D01*
Y366319D01*
Y366269D01*
Y366229D01*
Y366199D01*
Y366189D01*
Y362226D01*
X331338Y362117D01*
X331418Y362007D01*
X331567Y361827D01*
X331697Y361687D01*
X331807Y361577D01*
X331897Y361498D01*
X331957Y361438D01*
X332007Y361408D01*
X332017Y361398D01*
X332106Y361348D01*
X332196Y361308D01*
X332286Y361288D01*
X332366Y361268D01*
X332436Y361258D01*
X332486Y361248D01*
X332536D01*
X332616Y361258D01*
X332685Y361268D01*
X332795Y361308D01*
X332845Y361328D01*
X332875Y361338D01*
X332895Y361358D01*
X332905D01*
X332965Y361408D01*
X333005Y361468D01*
X333085Y361577D01*
X333115Y361627D01*
X333125Y361667D01*
X333144Y361697D01*
Y361707D01*
X333154Y361757D01*
X333164Y361817D01*
X333185Y361967D01*
X333195Y362136D01*
X333204Y362306D01*
X333214Y362476D01*
Y362546D01*
Y362606D01*
Y362655D01*
Y362705D01*
Y362725D01*
Y362735D01*
Y367796D01*
X336229D01*
Y367507D01*
D02*
G37*
G36*
X166132Y370152D02*
X166342Y369823D01*
X166552Y369533D01*
X166651Y369394D01*
X166741Y369274D01*
X166831Y369164D01*
X166911Y369064D01*
X166981Y368974D01*
X167041Y368904D01*
X167091Y368844D01*
X167131Y368805D01*
X167150Y368775D01*
X167160Y368765D01*
X167430Y368485D01*
X167719Y368206D01*
X167999Y367956D01*
X168269Y367737D01*
X168388Y367637D01*
X168498Y367557D01*
X168598Y367477D01*
X168678Y367407D01*
X168748Y367357D01*
X168808Y367317D01*
X168838Y367297D01*
X168848Y367287D01*
Y367018D01*
X167879D01*
Y363015D01*
Y362805D01*
Y362616D01*
X167869Y362436D01*
Y362286D01*
X167859Y362146D01*
Y362037D01*
X167849Y361927D01*
X167839Y361837D01*
Y361767D01*
X167829Y361707D01*
Y361657D01*
X167819Y361617D01*
Y361587D01*
X167809Y361567D01*
Y361558D01*
X167740Y361378D01*
X167650Y361218D01*
X167550Y361068D01*
X167450Y360939D01*
X167350Y360829D01*
X167270Y360749D01*
X167210Y360699D01*
X167201Y360679D01*
X167190D01*
X167001Y360549D01*
X166801Y360449D01*
X166591Y360390D01*
X166412Y360340D01*
X166242Y360310D01*
X166172Y360300D01*
X166112D01*
X166063Y360290D01*
X165993D01*
X165733Y360310D01*
X165494Y360360D01*
X165264Y360429D01*
X165064Y360529D01*
X164875Y360639D01*
X164705Y360769D01*
X164545Y360909D01*
X164405Y361048D01*
X164286Y361188D01*
X164186Y361328D01*
X164096Y361458D01*
X164026Y361567D01*
X163976Y361667D01*
X163936Y361747D01*
X163916Y361787D01*
X163906Y361807D01*
X164146Y361987D01*
X164236Y361847D01*
X164316Y361727D01*
X164405Y361617D01*
X164495Y361527D01*
X164575Y361458D01*
X164655Y361388D01*
X164735Y361338D01*
X164805Y361298D01*
X164935Y361238D01*
X165034Y361208D01*
X165074D01*
X165104Y361198D01*
X165124D01*
X165174Y361208D01*
X165214Y361218D01*
X165304Y361258D01*
X165344Y361278D01*
X165374Y361288D01*
X165394Y361308D01*
X165404D01*
X165504Y361408D01*
X165563Y361508D01*
X165583Y361548D01*
X165603Y361577D01*
X165613Y361597D01*
Y361607D01*
X165623Y361647D01*
X165633Y361697D01*
X165643Y361817D01*
X165653Y361957D01*
Y362096D01*
X165663Y362226D01*
Y362336D01*
Y362376D01*
Y362406D01*
Y362426D01*
Y362436D01*
Y367018D01*
X163906D01*
Y367796D01*
X165663D01*
Y370502D01*
X165933D01*
X166132Y370152D01*
D02*
G37*
G36*
X296680Y367996D02*
X296869Y367956D01*
X297049Y367896D01*
X297209Y367826D01*
X297358Y367756D01*
X297458Y367696D01*
X297498Y367677D01*
X297528Y367657D01*
X297548Y367637D01*
X297558D01*
X297658Y367557D01*
X297768Y367467D01*
X297877Y367357D01*
X297987Y367237D01*
X298207Y366988D01*
X298407Y366728D01*
X298496Y366609D01*
X298576Y366489D01*
X298646Y366389D01*
X298716Y366299D01*
X298766Y366219D01*
X298806Y366159D01*
X298826Y366119D01*
X298836Y366109D01*
Y367796D01*
X301870D01*
Y367507D01*
X301740Y367487D01*
X301631Y367467D01*
X301531Y367447D01*
X301461Y367417D01*
X301411Y367397D01*
X301371Y367377D01*
X301351Y367367D01*
X301341Y367357D01*
X301291Y367317D01*
X301241Y367267D01*
X301172Y367158D01*
X301142Y367118D01*
X301122Y367078D01*
X301112Y367048D01*
Y367038D01*
X301102Y366998D01*
X301092Y366948D01*
X301072Y366838D01*
X301062Y366698D01*
X301052Y366569D01*
X301042Y366439D01*
Y366329D01*
Y366289D01*
Y366259D01*
Y366239D01*
Y366229D01*
Y362136D01*
Y361967D01*
X301052Y361807D01*
X301062Y361657D01*
X301072Y361538D01*
X301082Y361428D01*
X301102Y361328D01*
X301112Y361238D01*
X301132Y361168D01*
X301152Y361108D01*
X301162Y361048D01*
X301192Y360979D01*
X301211Y360939D01*
X301222Y360929D01*
X301301Y360859D01*
X301391Y360799D01*
X301501Y360749D01*
X301611Y360719D01*
X301711Y360689D01*
X301791Y360679D01*
X301850Y360669D01*
X301870D01*
Y360390D01*
X297857D01*
Y360669D01*
X298017Y360679D01*
X298147Y360699D01*
X298257Y360719D01*
X298347Y360739D01*
X298417Y360759D01*
X298456Y360769D01*
X298486Y360789D01*
X298496D01*
X298556Y360829D01*
X298616Y360879D01*
X298706Y360979D01*
X298736Y361028D01*
X298756Y361068D01*
X298776Y361088D01*
Y361098D01*
X298796Y361158D01*
X298806Y361248D01*
X298816Y361338D01*
Y361438D01*
X298826Y361538D01*
Y361617D01*
Y361667D01*
Y361687D01*
X298836Y362127D01*
Y363833D01*
X298826Y364173D01*
X298796Y364482D01*
X298756Y364772D01*
X298736Y364902D01*
X298706Y365021D01*
X298686Y365131D01*
X298666Y365231D01*
X298646Y365311D01*
X298626Y365391D01*
X298606Y365441D01*
X298596Y365490D01*
X298586Y365510D01*
Y365520D01*
X298516Y365700D01*
X298436Y365850D01*
X298357Y365980D01*
X298277Y366089D01*
X298207Y366179D01*
X298147Y366239D01*
X298107Y366279D01*
X298097Y366289D01*
X298017Y366349D01*
X297937Y366389D01*
X297868Y366429D01*
X297798Y366449D01*
X297738Y366459D01*
X297698Y366469D01*
X297658D01*
X297588Y366459D01*
X297528Y366449D01*
X297488Y366429D01*
X297478Y366419D01*
X297448Y366399D01*
X297398Y366359D01*
X297338Y366309D01*
X297278Y366259D01*
X297219Y366209D01*
X297169Y366159D01*
X297129Y366129D01*
X297119Y366119D01*
X296999Y366030D01*
X296869Y365960D01*
X296749Y365920D01*
X296640Y365880D01*
X296540Y365860D01*
X296460Y365850D01*
X296390D01*
X296260Y365860D01*
X296140Y365900D01*
X296041Y365940D01*
X295941Y365999D01*
X295871Y366049D01*
X295821Y366099D01*
X295781Y366129D01*
X295771Y366139D01*
X295681Y366259D01*
X295621Y366389D01*
X295571Y366529D01*
X295542Y366658D01*
X295522Y366778D01*
X295512Y366878D01*
Y366918D01*
Y366948D01*
Y366958D01*
Y366968D01*
X295522Y367147D01*
X295552Y367297D01*
X295602Y367427D01*
X295641Y367537D01*
X295691Y367627D01*
X295741Y367687D01*
X295771Y367727D01*
X295781Y367737D01*
X295881Y367826D01*
X296001Y367896D01*
X296121Y367946D01*
X296230Y367986D01*
X296330Y368006D01*
X296410Y368016D01*
X296480D01*
X296680Y367996D01*
D02*
G37*
G36*
X289482Y367996D02*
X289672Y367956D01*
X289852Y367896D01*
X290012Y367826D01*
X290161Y367756D01*
X290261Y367696D01*
X290301Y367677D01*
X290331Y367657D01*
X290351Y367637D01*
X290361D01*
X290461Y367557D01*
X290571Y367467D01*
X290680Y367357D01*
X290790Y367237D01*
X291010Y366988D01*
X291209Y366728D01*
X291299Y366609D01*
X291379Y366489D01*
X291449Y366389D01*
X291519Y366299D01*
X291569Y366219D01*
X291609Y366159D01*
X291629Y366119D01*
X291639Y366109D01*
Y367796D01*
X294673D01*
Y367507D01*
X294543Y367487D01*
X294434Y367467D01*
X294334Y367447D01*
X294264Y367417D01*
X294214Y367397D01*
X294174Y367377D01*
X294154Y367367D01*
X294144Y367357D01*
X294094Y367317D01*
X294044Y367267D01*
X293974Y367158D01*
X293944Y367118D01*
X293925Y367078D01*
X293915Y367048D01*
Y367038D01*
X293904Y366998D01*
X293895Y366948D01*
X293875Y366838D01*
X293865Y366698D01*
X293855Y366568D01*
X293845Y366439D01*
Y366329D01*
Y366289D01*
Y366259D01*
Y366239D01*
Y366229D01*
Y362136D01*
Y361967D01*
X293855Y361807D01*
X293865Y361657D01*
X293875Y361538D01*
X293885Y361428D01*
X293904Y361328D01*
X293915Y361238D01*
X293934Y361168D01*
X293954Y361108D01*
X293964Y361048D01*
X293994Y360979D01*
X294014Y360939D01*
X294024Y360929D01*
X294104Y360859D01*
X294194Y360799D01*
X294304Y360749D01*
X294414Y360719D01*
X294513Y360689D01*
X294593Y360679D01*
X294653Y360669D01*
X294673D01*
Y360390D01*
X290660D01*
Y360669D01*
X290820Y360679D01*
X290950Y360699D01*
X291060Y360719D01*
X291149Y360739D01*
X291219Y360759D01*
X291259Y360769D01*
X291289Y360789D01*
X291299D01*
X291359Y360829D01*
X291419Y360879D01*
X291509Y360979D01*
X291539Y361028D01*
X291559Y361068D01*
X291579Y361088D01*
Y361098D01*
X291599Y361158D01*
X291609Y361248D01*
X291619Y361338D01*
Y361438D01*
X291629Y361538D01*
Y361617D01*
Y361667D01*
Y361687D01*
X291639Y362127D01*
Y363833D01*
X291629Y364173D01*
X291599Y364482D01*
X291559Y364772D01*
X291539Y364902D01*
X291509Y365021D01*
X291489Y365131D01*
X291469Y365231D01*
X291449Y365311D01*
X291429Y365391D01*
X291409Y365440D01*
X291399Y365490D01*
X291389Y365510D01*
Y365520D01*
X291319Y365700D01*
X291239Y365850D01*
X291159Y365980D01*
X291080Y366089D01*
X291010Y366179D01*
X290950Y366239D01*
X290910Y366279D01*
X290900Y366289D01*
X290820Y366349D01*
X290740Y366389D01*
X290670Y366429D01*
X290600Y366449D01*
X290541Y366459D01*
X290501Y366469D01*
X290461D01*
X290391Y366459D01*
X290331Y366449D01*
X290291Y366429D01*
X290281Y366419D01*
X290251Y366399D01*
X290201Y366359D01*
X290141Y366309D01*
X290081Y366259D01*
X290021Y366209D01*
X289972Y366159D01*
X289932Y366129D01*
X289922Y366119D01*
X289802Y366030D01*
X289672Y365960D01*
X289552Y365920D01*
X289443Y365880D01*
X289343Y365860D01*
X289263Y365850D01*
X289193D01*
X289063Y365860D01*
X288943Y365900D01*
X288843Y365940D01*
X288744Y365999D01*
X288674Y366049D01*
X288624Y366099D01*
X288584Y366129D01*
X288574Y366139D01*
X288484Y366259D01*
X288424Y366389D01*
X288374Y366529D01*
X288344Y366658D01*
X288325Y366778D01*
X288314Y366878D01*
Y366918D01*
Y366948D01*
Y366958D01*
Y366968D01*
X288325Y367147D01*
X288354Y367297D01*
X288404Y367427D01*
X288444Y367537D01*
X288494Y367627D01*
X288544Y367687D01*
X288574Y367727D01*
X288584Y367737D01*
X288684Y367826D01*
X288804Y367896D01*
X288923Y367946D01*
X289033Y367986D01*
X289133Y368006D01*
X289213Y368016D01*
X289283D01*
X289482Y367996D01*
D02*
G37*
G36*
X215784Y362775D02*
X215884Y362556D01*
X215984Y362356D01*
X216073Y362166D01*
X216163Y362007D01*
X216243Y361857D01*
X216313Y361717D01*
X216383Y361607D01*
X216453Y361498D01*
X216502Y361418D01*
X216552Y361338D01*
X216602Y361278D01*
X216632Y361228D01*
X216662Y361198D01*
X216682Y361168D01*
X216702Y361158D01*
Y361148D01*
X216852Y361018D01*
X217002Y360909D01*
X217161Y360829D01*
X217311Y360769D01*
X217451Y360729D01*
X217551Y360699D01*
X217591Y360689D01*
X217621Y360679D01*
X217651D01*
Y360390D01*
X214077D01*
Y360679D01*
X214227Y360689D01*
X214366Y360709D01*
X214486Y360719D01*
X214596Y360739D01*
X214696Y360749D01*
X214786Y360769D01*
X214855Y360779D01*
X214925Y360799D01*
X215025Y360829D01*
X215085Y360849D01*
X215125Y360859D01*
X215135Y360869D01*
X215255Y360959D01*
X215345Y361058D01*
X215404Y361168D01*
X215444Y361278D01*
X215474Y361378D01*
X215484Y361458D01*
X215494Y361508D01*
Y361527D01*
X215484Y361667D01*
X215464Y361807D01*
X215424Y361957D01*
X215385Y362086D01*
X215345Y362206D01*
X215305Y362306D01*
X215295Y362346D01*
X215285Y362376D01*
X215275Y362386D01*
Y362396D01*
X214806Y363444D01*
X211042D01*
X210463Y362107D01*
X210423Y362017D01*
X210383Y361927D01*
X210333Y361787D01*
X210284Y361687D01*
X210254Y361607D01*
X210234Y361558D01*
X210224Y361527D01*
Y361508D01*
X210194Y361398D01*
X210184Y361308D01*
X210174Y361268D01*
Y361238D01*
Y361228D01*
Y361218D01*
X210184Y361138D01*
X210204Y361058D01*
X210234Y360998D01*
X210264Y360949D01*
X210294Y360899D01*
X210324Y360869D01*
X210343Y360859D01*
X210354Y360849D01*
X210463Y360789D01*
X210593Y360749D01*
X210743Y360719D01*
X210883Y360699D01*
X211022Y360689D01*
X211132Y360679D01*
X211442D01*
Y360390D01*
X206241D01*
Y360679D01*
X206420Y360699D01*
X206570Y360739D01*
X206700Y360779D01*
X206810Y360829D01*
X206900Y360879D01*
X206960Y360919D01*
X206999Y360949D01*
X207010Y360959D01*
X207079Y361028D01*
X207149Y361118D01*
X207219Y361228D01*
X207299Y361348D01*
X207449Y361607D01*
X207598Y361867D01*
X207658Y361997D01*
X207718Y362127D01*
X207778Y362236D01*
X207828Y362336D01*
X207868Y362416D01*
X207888Y362486D01*
X207908Y362526D01*
X207918Y362536D01*
X211791Y371350D01*
X211941D01*
X215784Y362775D01*
D02*
G37*
G36*
X197546Y370851D02*
X197417D01*
X197287Y370841D01*
X197177D01*
X197077Y370831D01*
X196898Y370811D01*
X196768Y370781D01*
X196658Y370751D01*
X196588Y370731D01*
X196548Y370721D01*
X196538Y370711D01*
X196448Y370651D01*
X196368Y370591D01*
X196299Y370532D01*
X196249Y370472D01*
X196219Y370422D01*
X196189Y370382D01*
X196169Y370352D01*
Y370342D01*
X196149Y370292D01*
X196129Y370232D01*
X196119Y370162D01*
X196109Y370082D01*
X196089Y369903D01*
X196069Y369713D01*
Y369543D01*
X196059Y369463D01*
Y369394D01*
Y369334D01*
Y369294D01*
Y369264D01*
Y369254D01*
Y362276D01*
Y362117D01*
Y361977D01*
X196069Y361847D01*
X196079Y361737D01*
X196089Y361627D01*
Y361538D01*
X196099Y361458D01*
X196109Y361398D01*
X196119Y361338D01*
X196129Y361288D01*
X196149Y361218D01*
X196159Y361178D01*
X196169Y361168D01*
X196209Y361088D01*
X196269Y361018D01*
X196329Y360959D01*
X196388Y360909D01*
X196448Y360869D01*
X196498Y360839D01*
X196528Y360819D01*
X196538Y360809D01*
X196588Y360789D01*
X196658Y360769D01*
X196808Y360739D01*
X196967Y360709D01*
X197137Y360699D01*
X197297Y360689D01*
X197367Y360679D01*
X197546D01*
Y360390D01*
X192096D01*
Y360679D01*
X192226D01*
X192346Y360689D01*
X192455D01*
X192555Y360699D01*
X192735Y360719D01*
X192865Y360749D01*
X192974Y360769D01*
X193044Y360789D01*
X193084Y360799D01*
X193094Y360809D01*
X193184Y360869D01*
X193264Y360929D01*
X193334Y360989D01*
X193384Y361038D01*
X193424Y361088D01*
X193454Y361128D01*
X193464Y361158D01*
X193474Y361168D01*
X193494Y361218D01*
X193514Y361278D01*
X193524Y361358D01*
X193533Y361438D01*
X193554Y361617D01*
X193573Y361807D01*
Y361987D01*
X193583Y362067D01*
Y362136D01*
Y362196D01*
Y362236D01*
Y362266D01*
Y362276D01*
Y365261D01*
X193254D01*
X192945Y365271D01*
X192665Y365281D01*
X192405Y365291D01*
X192166Y365301D01*
X191956Y365321D01*
X191757Y365341D01*
X191587Y365361D01*
X191447Y365371D01*
X191317Y365391D01*
X191208Y365411D01*
X191128Y365421D01*
X191058Y365431D01*
X191018Y365440D01*
X190988Y365451D01*
X190978D01*
X190768Y365510D01*
X190579Y365570D01*
X190389Y365640D01*
X190219Y365720D01*
X190060Y365800D01*
X189910Y365890D01*
X189780Y365970D01*
X189660Y366059D01*
X189551Y366139D01*
X189461Y366209D01*
X189381Y366279D01*
X189311Y366339D01*
X189261Y366389D01*
X189221Y366429D01*
X189201Y366449D01*
X189191Y366459D01*
X189072Y366599D01*
X188972Y366748D01*
X188882Y366898D01*
X188812Y367058D01*
X188742Y367207D01*
X188692Y367357D01*
X188612Y367637D01*
X188582Y367766D01*
X188562Y367886D01*
X188552Y367986D01*
X188542Y368076D01*
X188532Y368156D01*
Y368206D01*
Y368246D01*
Y368256D01*
X188542Y368485D01*
X188572Y368695D01*
X188622Y368904D01*
X188692Y369094D01*
X188762Y369274D01*
X188852Y369443D01*
X188942Y369603D01*
X189032Y369743D01*
X189131Y369873D01*
X189221Y369982D01*
X189311Y370082D01*
X189381Y370162D01*
X189451Y370232D01*
X189501Y370272D01*
X189531Y370302D01*
X189541Y370312D01*
X189740Y370462D01*
X189970Y370581D01*
X190219Y370701D01*
X190489Y370791D01*
X190758Y370871D01*
X191038Y370941D01*
X191308Y370991D01*
X191577Y371041D01*
X191836Y371071D01*
X192076Y371101D01*
X192296Y371110D01*
X192485Y371130D01*
X192645D01*
X192705Y371140D01*
X197546D01*
Y370851D01*
D02*
G37*
G36*
X182264Y367996D02*
X182453Y367956D01*
X182633Y367896D01*
X182793Y367826D01*
X182942Y367756D01*
X183042Y367696D01*
X183082Y367677D01*
X183112Y367657D01*
X183132Y367637D01*
X183142D01*
X183242Y367557D01*
X183352Y367467D01*
X183461Y367357D01*
X183571Y367237D01*
X183791Y366988D01*
X183990Y366728D01*
X184080Y366609D01*
X184160Y366489D01*
X184230Y366389D01*
X184300Y366299D01*
X184350Y366219D01*
X184390Y366159D01*
X184410Y366119D01*
X184420Y366109D01*
Y367796D01*
X187454D01*
Y367507D01*
X187325Y367487D01*
X187215Y367467D01*
X187115Y367447D01*
X187045Y367417D01*
X186995Y367397D01*
X186955Y367377D01*
X186935Y367367D01*
X186925Y367357D01*
X186875Y367317D01*
X186826Y367267D01*
X186756Y367158D01*
X186726Y367118D01*
X186706Y367078D01*
X186696Y367048D01*
Y367038D01*
X186686Y366998D01*
X186676Y366948D01*
X186656Y366838D01*
X186646Y366698D01*
X186636Y366568D01*
X186626Y366439D01*
Y366329D01*
Y366289D01*
Y366259D01*
Y366239D01*
Y366229D01*
Y362136D01*
Y361967D01*
X186636Y361807D01*
X186646Y361657D01*
X186656Y361538D01*
X186666Y361428D01*
X186686Y361328D01*
X186696Y361238D01*
X186716Y361168D01*
X186736Y361108D01*
X186746Y361048D01*
X186775Y360979D01*
X186796Y360939D01*
X186805Y360929D01*
X186885Y360859D01*
X186975Y360799D01*
X187085Y360749D01*
X187195Y360719D01*
X187295Y360689D01*
X187374Y360679D01*
X187434Y360669D01*
X187454D01*
Y360390D01*
X183442D01*
Y360669D01*
X183601Y360679D01*
X183731Y360699D01*
X183841Y360719D01*
X183931Y360739D01*
X184000Y360759D01*
X184040Y360769D01*
X184070Y360789D01*
X184080D01*
X184140Y360829D01*
X184200Y360879D01*
X184290Y360979D01*
X184320Y361028D01*
X184340Y361068D01*
X184360Y361088D01*
Y361098D01*
X184380Y361158D01*
X184390Y361248D01*
X184400Y361338D01*
Y361438D01*
X184410Y361538D01*
Y361617D01*
Y361667D01*
Y361687D01*
X184420Y362127D01*
Y363833D01*
X184410Y364173D01*
X184380Y364482D01*
X184340Y364772D01*
X184320Y364902D01*
X184290Y365021D01*
X184270Y365131D01*
X184250Y365231D01*
X184230Y365311D01*
X184210Y365391D01*
X184190Y365440D01*
X184180Y365490D01*
X184170Y365510D01*
Y365520D01*
X184100Y365700D01*
X184021Y365850D01*
X183941Y365980D01*
X183861Y366089D01*
X183791Y366179D01*
X183731Y366239D01*
X183691Y366279D01*
X183681Y366289D01*
X183601Y366349D01*
X183521Y366389D01*
X183451Y366429D01*
X183382Y366449D01*
X183322Y366459D01*
X183282Y366469D01*
X183242D01*
X183172Y366459D01*
X183112Y366449D01*
X183072Y366429D01*
X183062Y366419D01*
X183032Y366399D01*
X182982Y366359D01*
X182922Y366309D01*
X182862Y366259D01*
X182803Y366209D01*
X182753Y366159D01*
X182713Y366129D01*
X182703Y366119D01*
X182583Y366030D01*
X182453Y365960D01*
X182334Y365920D01*
X182224Y365880D01*
X182124Y365860D01*
X182044Y365850D01*
X181974D01*
X181844Y365860D01*
X181725Y365900D01*
X181625Y365940D01*
X181525Y365999D01*
X181455Y366049D01*
X181405Y366099D01*
X181365Y366129D01*
X181355Y366139D01*
X181265Y366259D01*
X181206Y366389D01*
X181156Y366529D01*
X181126Y366658D01*
X181106Y366778D01*
X181096Y366878D01*
Y366918D01*
Y366948D01*
Y366958D01*
Y366968D01*
X181106Y367147D01*
X181136Y367297D01*
X181185Y367427D01*
X181225Y367537D01*
X181275Y367627D01*
X181325Y367687D01*
X181355Y367727D01*
X181365Y367737D01*
X181465Y367826D01*
X181585Y367896D01*
X181705Y367946D01*
X181814Y367986D01*
X181914Y368006D01*
X181994Y368016D01*
X182064D01*
X182264Y367996D01*
D02*
G37*
G36*
X180517Y367507D02*
X180337Y367487D01*
X180187Y367447D01*
X180068Y367407D01*
X179968Y367367D01*
X179898Y367317D01*
X179858Y367287D01*
X179828Y367257D01*
X179818Y367247D01*
X179788Y367197D01*
X179758Y367137D01*
X179708Y366998D01*
X179678Y366838D01*
X179648Y366668D01*
X179638Y366509D01*
Y366439D01*
X179628Y366379D01*
Y366319D01*
Y366279D01*
Y366259D01*
Y366249D01*
Y361927D01*
Y361787D01*
X179638Y361657D01*
Y361548D01*
X179648Y361438D01*
X179668Y361348D01*
X179678Y361268D01*
X179688Y361198D01*
X179708Y361138D01*
X179738Y361048D01*
X179758Y360989D01*
X179778Y360959D01*
X179788Y360949D01*
X179888Y360859D01*
X179998Y360789D01*
X180127Y360739D01*
X180237Y360709D01*
X180347Y360689D01*
X180437Y360679D01*
X180497Y360669D01*
X180517D01*
Y360390D01*
X176514D01*
Y360669D01*
X176703Y360689D01*
X176853Y360719D01*
X176973Y360759D01*
X177073Y360809D01*
X177143Y360849D01*
X177193Y360889D01*
X177223Y360909D01*
X177233Y360919D01*
X177262Y360969D01*
X177292Y361028D01*
X177332Y361168D01*
X177372Y361338D01*
X177392Y361508D01*
X177402Y361667D01*
Y361737D01*
X177412Y361797D01*
Y361857D01*
Y361897D01*
Y361917D01*
Y361927D01*
Y367796D01*
X180517D01*
Y367507D01*
D02*
G37*
G36*
X355644Y362805D02*
X355824Y362765D01*
X355984Y362705D01*
X356114Y362636D01*
X356223Y362556D01*
X356303Y362496D01*
X356353Y362456D01*
X356373Y362436D01*
X356503Y362286D01*
X356593Y362127D01*
X356663Y361967D01*
X356702Y361817D01*
X356732Y361687D01*
X356743Y361587D01*
X356752Y361548D01*
Y361518D01*
Y361508D01*
Y361498D01*
X356732Y361298D01*
X356693Y361118D01*
X356633Y360959D01*
X356563Y360829D01*
X356493Y360719D01*
X356433Y360639D01*
X356393Y360589D01*
X356373Y360569D01*
X356223Y360439D01*
X356064Y360350D01*
X355914Y360280D01*
X355764Y360240D01*
X355634Y360210D01*
X355535Y360200D01*
X355495Y360190D01*
X355445D01*
X355245Y360210D01*
X355065Y360250D01*
X354906Y360310D01*
X354766Y360380D01*
X354656Y360449D01*
X354576Y360509D01*
X354526Y360549D01*
X354506Y360569D01*
X354377Y360719D01*
X354277Y360879D01*
X354207Y361028D01*
X354167Y361178D01*
X354137Y361308D01*
X354127Y361408D01*
X354117Y361448D01*
Y361478D01*
Y361488D01*
Y361498D01*
X354137Y361697D01*
X354177Y361877D01*
X354237Y362037D01*
X354307Y362176D01*
X354387Y362286D01*
X354447Y362366D01*
X354487Y362416D01*
X354506Y362436D01*
X354656Y362566D01*
X354816Y362665D01*
X354966Y362735D01*
X355115Y362775D01*
X355245Y362805D01*
X355355Y362815D01*
X355395Y362825D01*
X355445D01*
X355644Y362805D01*
D02*
G37*
G36*
X224069Y362805D02*
X224249Y362765D01*
X224408Y362705D01*
X224538Y362635D01*
X224648Y362556D01*
X224728Y362496D01*
X224778Y362456D01*
X224798Y362436D01*
X224928Y362286D01*
X225017Y362127D01*
X225087Y361967D01*
X225127Y361817D01*
X225157Y361687D01*
X225167Y361587D01*
X225177Y361548D01*
Y361517D01*
Y361508D01*
Y361498D01*
X225157Y361298D01*
X225117Y361118D01*
X225057Y360959D01*
X224987Y360829D01*
X224918Y360719D01*
X224858Y360639D01*
X224818Y360589D01*
X224798Y360569D01*
X224648Y360439D01*
X224488Y360350D01*
X224339Y360280D01*
X224189Y360240D01*
X224059Y360210D01*
X223959Y360200D01*
X223919Y360190D01*
X223869D01*
X223670Y360210D01*
X223490Y360250D01*
X223330Y360310D01*
X223191Y360380D01*
X223081Y360449D01*
X223001Y360509D01*
X222951Y360549D01*
X222931Y360569D01*
X222801Y360719D01*
X222701Y360879D01*
X222632Y361028D01*
X222592Y361178D01*
X222562Y361308D01*
X222552Y361408D01*
X222542Y361448D01*
Y361478D01*
Y361488D01*
Y361498D01*
X222562Y361697D01*
X222602Y361877D01*
X222662Y362037D01*
X222731Y362176D01*
X222811Y362286D01*
X222871Y362366D01*
X222911Y362416D01*
X222931Y362436D01*
X223081Y362566D01*
X223241Y362665D01*
X223390Y362735D01*
X223540Y362775D01*
X223670Y362805D01*
X223780Y362815D01*
X223820Y362825D01*
X223869D01*
X224069Y362805D01*
D02*
G37*
G36*
X204244D02*
X204424Y362765D01*
X204584Y362705D01*
X204714Y362635D01*
X204823Y362556D01*
X204903Y362496D01*
X204953Y362456D01*
X204973Y362436D01*
X205103Y362286D01*
X205193Y362127D01*
X205263Y361967D01*
X205303Y361817D01*
X205333Y361687D01*
X205342Y361587D01*
X205352Y361548D01*
Y361517D01*
Y361508D01*
Y361498D01*
X205333Y361298D01*
X205292Y361118D01*
X205233Y360959D01*
X205163Y360829D01*
X205093Y360719D01*
X205033Y360639D01*
X204993Y360589D01*
X204973Y360569D01*
X204823Y360439D01*
X204664Y360350D01*
X204514Y360280D01*
X204364Y360240D01*
X204234Y360210D01*
X204135Y360200D01*
X204095Y360190D01*
X204045D01*
X203845Y360210D01*
X203665Y360250D01*
X203506Y360310D01*
X203366Y360380D01*
X203256Y360449D01*
X203176Y360509D01*
X203126Y360549D01*
X203106Y360569D01*
X202977Y360719D01*
X202877Y360879D01*
X202807Y361028D01*
X202767Y361178D01*
X202737Y361308D01*
X202727Y361408D01*
X202717Y361448D01*
Y361478D01*
Y361488D01*
Y361498D01*
X202737Y361697D01*
X202777Y361877D01*
X202837Y362037D01*
X202907Y362176D01*
X202987Y362286D01*
X203046Y362366D01*
X203086Y362416D01*
X203106Y362436D01*
X203256Y362566D01*
X203416Y362665D01*
X203566Y362735D01*
X203715Y362775D01*
X203845Y362805D01*
X203955Y362815D01*
X203995Y362825D01*
X204045D01*
X204244Y362805D01*
D02*
G37*
G36*
X315137Y370811D02*
X314957D01*
X314807Y370791D01*
X314688Y370771D01*
X314588Y370751D01*
X314518Y370731D01*
X314468Y370711D01*
X314438Y370701D01*
X314428Y370691D01*
X314358Y370641D01*
X314308Y370591D01*
X314218Y370482D01*
X314188Y370432D01*
X314168Y370392D01*
X314148Y370362D01*
Y370352D01*
X314138Y370312D01*
X314118Y370262D01*
X314109Y370192D01*
X314098Y370122D01*
X314088Y369953D01*
X314079Y369783D01*
X314069Y369613D01*
Y369533D01*
Y369473D01*
Y369413D01*
Y369374D01*
Y369344D01*
Y369334D01*
Y367088D01*
X314238Y367267D01*
X314408Y367417D01*
X314558Y367537D01*
X314688Y367637D01*
X314797Y367716D01*
X314887Y367766D01*
X314937Y367796D01*
X314957Y367806D01*
X315117Y367876D01*
X315276Y367926D01*
X315436Y367966D01*
X315576Y367986D01*
X315706Y368006D01*
X315805Y368016D01*
X315895D01*
X316045Y368006D01*
X316195Y367996D01*
X316484Y367936D01*
X316744Y367866D01*
X316973Y367776D01*
X317073Y367727D01*
X317163Y367687D01*
X317243Y367637D01*
X317303Y367607D01*
X317363Y367577D01*
X317403Y367547D01*
X317423Y367537D01*
X317433Y367527D01*
X317562Y367437D01*
X317682Y367327D01*
X317912Y367098D01*
X318101Y366868D01*
X318261Y366638D01*
X318391Y366429D01*
X318441Y366339D01*
X318481Y366259D01*
X318521Y366189D01*
X318541Y366139D01*
X318551Y366109D01*
X318561Y366099D01*
X318700Y365740D01*
X318800Y365361D01*
X318870Y365001D01*
X318900Y364832D01*
X318920Y364672D01*
X318940Y364522D01*
X318950Y364383D01*
X318960Y364263D01*
Y364153D01*
X318970Y364073D01*
Y364003D01*
Y363963D01*
Y363953D01*
X318960Y363684D01*
X318940Y363414D01*
X318910Y363165D01*
X318870Y362935D01*
X318820Y362705D01*
X318760Y362506D01*
X318700Y362306D01*
X318640Y362136D01*
X318580Y361977D01*
X318521Y361837D01*
X318461Y361717D01*
X318411Y361617D01*
X318371Y361538D01*
X318341Y361478D01*
X318321Y361438D01*
X318311Y361428D01*
X318151Y361208D01*
X317972Y361008D01*
X317792Y360849D01*
X317612Y360699D01*
X317423Y360579D01*
X317233Y360479D01*
X317053Y360390D01*
X316874Y360330D01*
X316714Y360280D01*
X316554Y360240D01*
X316414Y360210D01*
X316295Y360190D01*
X316205Y360180D01*
X316125Y360170D01*
X316065D01*
X315865Y360180D01*
X315676Y360210D01*
X315506Y360250D01*
X315366Y360290D01*
X315247Y360330D01*
X315157Y360370D01*
X315097Y360400D01*
X315077Y360410D01*
X314997Y360460D01*
X314907Y360519D01*
X314737Y360659D01*
X314568Y360809D01*
X314408Y360969D01*
X314268Y361108D01*
X314168Y361228D01*
X314128Y361278D01*
X314098Y361308D01*
X314079Y361328D01*
X314069Y361338D01*
Y360170D01*
X310954Y360779D01*
Y361038D01*
X311104Y361058D01*
X311234Y361078D01*
X311343Y361098D01*
X311423Y361128D01*
X311493Y361148D01*
X311533Y361168D01*
X311563Y361188D01*
X311573D01*
X311633Y361238D01*
X311683Y361308D01*
X311763Y361428D01*
X311783Y361488D01*
X311803Y361538D01*
X311813Y361567D01*
Y361577D01*
X311823Y361617D01*
Y361667D01*
X311833Y361727D01*
Y361807D01*
X311842Y361977D01*
Y362156D01*
X311852Y362326D01*
Y362396D01*
Y362466D01*
Y362526D01*
Y362566D01*
Y362596D01*
Y362606D01*
Y371140D01*
X315137D01*
Y370811D01*
D02*
G37*
G36*
X160003Y368006D02*
X160283Y367966D01*
X160542Y367906D01*
X160782Y367826D01*
X161012Y367737D01*
X161221Y367637D01*
X161411Y367537D01*
X161581Y367427D01*
X161730Y367307D01*
X161860Y367207D01*
X161980Y367108D01*
X162070Y367018D01*
X162139Y366938D01*
X162199Y366878D01*
X162229Y366838D01*
X162239Y366828D01*
X162399Y366599D01*
X162539Y366369D01*
X162668Y366129D01*
X162768Y365890D01*
X162858Y365660D01*
X162938Y365431D01*
X162998Y365211D01*
X163038Y364991D01*
X163078Y364802D01*
X163108Y364622D01*
X163128Y364462D01*
X163148Y364323D01*
Y364203D01*
X163158Y364123D01*
Y364073D01*
Y364053D01*
X163148Y363764D01*
X163118Y363494D01*
X163078Y363224D01*
X163018Y362975D01*
X162948Y362735D01*
X162868Y362516D01*
X162788Y362306D01*
X162708Y362117D01*
X162629Y361947D01*
X162539Y361787D01*
X162469Y361657D01*
X162399Y361548D01*
X162339Y361458D01*
X162299Y361388D01*
X162269Y361348D01*
X162259Y361338D01*
X162080Y361128D01*
X161890Y360949D01*
X161690Y360799D01*
X161481Y360659D01*
X161261Y360549D01*
X161051Y360459D01*
X160842Y360380D01*
X160642Y360320D01*
X160443Y360270D01*
X160273Y360230D01*
X160103Y360210D01*
X159963Y360190D01*
X159854Y360180D01*
X159764Y360170D01*
X159694D01*
X159384Y360180D01*
X159085Y360230D01*
X158815Y360290D01*
X158556Y360370D01*
X158316Y360469D01*
X158097Y360579D01*
X157897Y360689D01*
X157717Y360809D01*
X157558Y360929D01*
X157418Y361048D01*
X157298Y361148D01*
X157208Y361248D01*
X157128Y361328D01*
X157069Y361398D01*
X157039Y361438D01*
X157029Y361448D01*
X156889Y361647D01*
X156759Y361867D01*
X156649Y362086D01*
X156559Y362306D01*
X156480Y362526D01*
X156420Y362745D01*
X156360Y362955D01*
X156320Y363165D01*
X156290Y363354D01*
X156260Y363524D01*
X156240Y363684D01*
X156230Y363823D01*
Y363933D01*
X156220Y364013D01*
Y364063D01*
Y364083D01*
Y364283D01*
X156240Y364482D01*
X156290Y364862D01*
X156320Y365041D01*
X156360Y365201D01*
X156400Y365361D01*
X156440Y365500D01*
X156480Y365630D01*
X156519Y365750D01*
X156559Y365850D01*
X156589Y365940D01*
X156619Y366009D01*
X156639Y366059D01*
X156649Y366089D01*
X156659Y366099D01*
X156739Y366269D01*
X156839Y366429D01*
X156939Y366568D01*
X157039Y366708D01*
X157138Y366838D01*
X157248Y366948D01*
X157348Y367058D01*
X157448Y367158D01*
X157548Y367237D01*
X157627Y367307D01*
X157707Y367377D01*
X157777Y367427D01*
X157837Y367467D01*
X157877Y367497D01*
X157907Y367507D01*
X157917Y367517D01*
X158077Y367607D01*
X158236Y367687D01*
X158386Y367746D01*
X158546Y367806D01*
X158845Y367896D01*
X159125Y367956D01*
X159255Y367976D01*
X159364Y367986D01*
X159464Y368006D01*
X159554D01*
X159614Y368016D01*
X159714D01*
X160003Y368006D01*
D02*
G37*
G36*
X231695Y370851D02*
X231246D01*
X231087Y370841D01*
X230947Y370831D01*
X230827Y370801D01*
X230727Y370771D01*
X230647Y370741D01*
X230587Y370721D01*
X230548Y370701D01*
X230537Y370691D01*
X230448Y370631D01*
X230368Y370571D01*
X230308Y370512D01*
X230258Y370452D01*
X230218Y370402D01*
X230198Y370372D01*
X230178Y370342D01*
Y370332D01*
X230158Y370282D01*
X230148Y370232D01*
X230128Y370162D01*
X230118Y370082D01*
X230098Y369913D01*
X230088Y369743D01*
X230078Y369573D01*
Y369503D01*
Y369433D01*
Y369384D01*
Y369344D01*
Y369314D01*
Y369304D01*
Y363554D01*
Y363254D01*
Y362985D01*
X230088Y362735D01*
X230098Y362526D01*
Y362326D01*
X230108Y362166D01*
X230118Y362017D01*
X230128Y361897D01*
X230138Y361787D01*
X230148Y361707D01*
X230158Y361637D01*
Y361577D01*
X230168Y361548D01*
X230178Y361517D01*
Y361498D01*
X230218Y361368D01*
X230268Y361258D01*
X230318Y361168D01*
X230368Y361088D01*
X230418Y361028D01*
X230448Y360989D01*
X230478Y360969D01*
X230488Y360959D01*
X230577Y360899D01*
X230667Y360859D01*
X230757Y360829D01*
X230847Y360809D01*
X230927Y360799D01*
X230987Y360789D01*
X231047D01*
X231216Y360799D01*
X231366Y360819D01*
X231506Y360859D01*
X231616Y360899D01*
X231705Y360939D01*
X231775Y360979D01*
X231815Y360998D01*
X231825Y361008D01*
X231895Y361068D01*
X231945Y361128D01*
X231975Y361188D01*
X231995Y361248D01*
X232015Y361298D01*
X232025Y361338D01*
Y361358D01*
Y361368D01*
X232015Y361428D01*
X231995Y361498D01*
X231915Y361637D01*
X231885Y361707D01*
X231845Y361767D01*
X231825Y361807D01*
X231815Y361817D01*
X231745Y361927D01*
X231686Y362017D01*
X231636Y362086D01*
X231606Y362136D01*
X231586Y362176D01*
X231576Y362196D01*
X231566Y362216D01*
X231526Y362346D01*
X231516Y362476D01*
X231506Y362526D01*
Y362566D01*
Y362596D01*
Y362606D01*
X231516Y362775D01*
X231556Y362915D01*
X231606Y363055D01*
X231665Y363165D01*
X231735Y363254D01*
X231785Y363314D01*
X231825Y363364D01*
X231835Y363374D01*
X231965Y363474D01*
X232105Y363554D01*
X232234Y363604D01*
X232364Y363644D01*
X232484Y363664D01*
X232574Y363684D01*
X232654D01*
X232833Y363674D01*
X232993Y363634D01*
X233133Y363574D01*
X233253Y363514D01*
X233353Y363444D01*
X233422Y363394D01*
X233462Y363354D01*
X233482Y363334D01*
X233592Y363195D01*
X233682Y363045D01*
X233742Y362895D01*
X233782Y362755D01*
X233802Y362626D01*
X233812Y362526D01*
X233822Y362486D01*
Y362456D01*
Y362446D01*
Y362436D01*
X233812Y362276D01*
X233782Y362117D01*
X233742Y361967D01*
X233692Y361827D01*
X233562Y361558D01*
X233482Y361438D01*
X233402Y361318D01*
X233333Y361218D01*
X233253Y361128D01*
X233183Y361048D01*
X233123Y360979D01*
X233073Y360929D01*
X233033Y360889D01*
X233003Y360869D01*
X232993Y360859D01*
X232833Y360739D01*
X232654Y360629D01*
X232474Y360529D01*
X232294Y360449D01*
X232115Y360380D01*
X231925Y360320D01*
X231755Y360280D01*
X231576Y360240D01*
X231416Y360210D01*
X231266Y360190D01*
X231136Y360170D01*
X231027Y360160D01*
X230927Y360150D01*
X230797D01*
X230597Y360160D01*
X230398Y360170D01*
X230208Y360190D01*
X230028Y360220D01*
X229869Y360260D01*
X229709Y360300D01*
X229569Y360340D01*
X229429Y360390D01*
X229310Y360429D01*
X229210Y360469D01*
X229120Y360509D01*
X229040Y360549D01*
X228980Y360579D01*
X228940Y360599D01*
X228910Y360619D01*
X228900D01*
X228761Y360709D01*
X228631Y360809D01*
X228501Y360899D01*
X228391Y360998D01*
X228291Y361098D01*
X228202Y361198D01*
X228052Y361378D01*
X227942Y361538D01*
X227902Y361607D01*
X227862Y361667D01*
X227832Y361717D01*
X227812Y361757D01*
X227802Y361777D01*
Y361787D01*
X227752Y361927D01*
X227703Y362086D01*
X227663Y362256D01*
X227623Y362436D01*
X227573Y362805D01*
X227533Y363175D01*
X227523Y363344D01*
X227513Y363514D01*
X227503Y363654D01*
X227493Y363783D01*
Y363883D01*
Y363963D01*
Y364013D01*
Y364033D01*
Y369304D01*
Y369453D01*
Y369583D01*
X227483Y369693D01*
Y369803D01*
X227473Y369893D01*
X227463Y369972D01*
Y370042D01*
X227453Y370102D01*
X227433Y370202D01*
X227423Y370262D01*
X227413Y370292D01*
Y370302D01*
X227363Y370392D01*
X227313Y370472D01*
X227263Y370541D01*
X227204Y370591D01*
X227164Y370631D01*
X227124Y370661D01*
X227104Y370681D01*
X227094D01*
X226974Y370741D01*
X226854Y370781D01*
X226724Y370811D01*
X226604Y370831D01*
X226495Y370841D01*
X226415Y370851D01*
X225976D01*
Y371140D01*
X231695D01*
Y370851D01*
D02*
G37*
%LPC*%
G36*
X96004Y370002D02*
X94793D01*
Y369892D01*
X94463D01*
Y369782D01*
X94353D01*
Y369672D01*
X94242D01*
Y369562D01*
X94132D01*
Y369341D01*
X94022D01*
Y369011D01*
X93912D01*
Y368351D01*
X93802D01*
Y367580D01*
X93912D01*
Y366810D01*
X94022D01*
Y366480D01*
X94132D01*
Y366259D01*
X94242D01*
Y366149D01*
X94353D01*
Y366039D01*
X94463D01*
Y365929D01*
X94573D01*
Y365819D01*
X94793D01*
Y365709D01*
X95233D01*
Y365599D01*
X95563D01*
Y365709D01*
X96114D01*
Y365819D01*
X96334D01*
Y365929D01*
X96444D01*
Y366039D01*
X96554D01*
Y366149D01*
X96664D01*
Y366370D01*
X96774D01*
Y366590D01*
X96884D01*
Y367030D01*
X96994D01*
Y368461D01*
X96884D01*
Y369011D01*
X96774D01*
Y369231D01*
X96664D01*
Y369451D01*
X96554D01*
Y369672D01*
X96444D01*
Y369782D01*
X96224D01*
Y369892D01*
X96004D01*
Y370002D01*
D02*
G37*
G36*
X83456Y325865D02*
X83016D01*
Y325755D01*
X82575D01*
Y325645D01*
X82465D01*
Y325535D01*
X82355D01*
Y325425D01*
X82245D01*
Y325315D01*
X82135D01*
Y325205D01*
X82025D01*
Y324985D01*
X81915D01*
Y324654D01*
X81805D01*
Y324104D01*
X81695D01*
Y322453D01*
X81805D01*
Y322123D01*
X81915D01*
Y321903D01*
X82025D01*
Y321793D01*
X82135D01*
Y321683D01*
X82355D01*
Y321572D01*
X82575D01*
Y321462D01*
X83896D01*
Y321572D01*
X84116D01*
Y321683D01*
X84226D01*
Y321793D01*
X84337D01*
Y322013D01*
X84446D01*
Y322123D01*
X84557D01*
Y322453D01*
X84667D01*
Y322783D01*
X84777D01*
Y323664D01*
X84887D01*
Y324324D01*
X84777D01*
Y324874D01*
X84667D01*
Y325095D01*
X84557D01*
Y325315D01*
X84446D01*
Y325425D01*
X84337D01*
Y325535D01*
X84116D01*
Y325645D01*
X83896D01*
Y325755D01*
X83456D01*
Y325865D01*
D02*
G37*
G36*
X323073Y364542D02*
Y362067D01*
X323172Y361987D01*
X323262Y361917D01*
X323442Y361807D01*
X323602Y361727D01*
X323731Y361677D01*
X323851Y361637D01*
X323931Y361627D01*
X323981Y361617D01*
X324001D01*
X324131Y361627D01*
X324240Y361647D01*
X324340Y361687D01*
X324410Y361727D01*
X324480Y361757D01*
X324520Y361797D01*
X324550Y361817D01*
X324560Y361827D01*
X324650Y361937D01*
X324710Y362047D01*
X324759Y362156D01*
X324789Y362256D01*
X324809Y362336D01*
X324819Y362406D01*
Y362446D01*
Y362466D01*
X324809Y362626D01*
X324770Y362785D01*
X324720Y362935D01*
X324660Y363065D01*
X324610Y363175D01*
X324560Y363264D01*
X324520Y363314D01*
X324510Y363334D01*
X324420Y363454D01*
X324310Y363574D01*
X324091Y363793D01*
X323851Y363993D01*
X323611Y364183D01*
X323402Y364333D01*
X323312Y364392D01*
X323232Y364442D01*
X323162Y364482D01*
X323112Y364512D01*
X323083Y364532D01*
X323073Y364542D01*
D02*
G37*
G36*
X305933D02*
Y362067D01*
X306033Y361987D01*
X306123Y361917D01*
X306302Y361807D01*
X306462Y361727D01*
X306592Y361677D01*
X306712Y361637D01*
X306791Y361627D01*
X306841Y361617D01*
X306861D01*
X306991Y361627D01*
X307101Y361647D01*
X307201Y361687D01*
X307271Y361727D01*
X307341Y361757D01*
X307381Y361797D01*
X307410Y361817D01*
X307420Y361827D01*
X307510Y361937D01*
X307570Y362047D01*
X307620Y362156D01*
X307650Y362256D01*
X307670Y362336D01*
X307680Y362406D01*
Y362446D01*
Y362466D01*
X307670Y362626D01*
X307630Y362785D01*
X307580Y362935D01*
X307520Y363065D01*
X307470Y363175D01*
X307420Y363264D01*
X307381Y363314D01*
X307370Y363334D01*
X307281Y363454D01*
X307171Y363574D01*
X306951Y363793D01*
X306712Y363993D01*
X306472Y364183D01*
X306262Y364333D01*
X306173Y364392D01*
X306093Y364442D01*
X306023Y364482D01*
X305973Y364512D01*
X305943Y364532D01*
X305933Y364542D01*
D02*
G37*
G36*
X283423Y364542D02*
Y362067D01*
X283523Y361987D01*
X283613Y361917D01*
X283792Y361807D01*
X283952Y361727D01*
X284082Y361677D01*
X284202Y361637D01*
X284282Y361627D01*
X284332Y361617D01*
X284352D01*
X284481Y361627D01*
X284591Y361647D01*
X284691Y361687D01*
X284761Y361727D01*
X284831Y361757D01*
X284871Y361797D01*
X284901Y361817D01*
X284911Y361827D01*
X285000Y361937D01*
X285060Y362047D01*
X285110Y362156D01*
X285140Y362256D01*
X285160Y362336D01*
X285170Y362406D01*
Y362446D01*
Y362466D01*
X285160Y362626D01*
X285120Y362785D01*
X285070Y362935D01*
X285010Y363065D01*
X284960Y363175D01*
X284911Y363264D01*
X284871Y363314D01*
X284861Y363334D01*
X284771Y363454D01*
X284661Y363574D01*
X284441Y363793D01*
X284202Y363993D01*
X283962Y364183D01*
X283753Y364333D01*
X283663Y364392D01*
X283583Y364442D01*
X283513Y364482D01*
X283463Y364512D01*
X283433Y364532D01*
X283423Y364542D01*
D02*
G37*
G36*
X261792D02*
Y362067D01*
X261892Y361987D01*
X261981Y361917D01*
X262161Y361807D01*
X262321Y361727D01*
X262451Y361677D01*
X262570Y361637D01*
X262650Y361627D01*
X262700Y361617D01*
X262720D01*
X262850Y361627D01*
X262960Y361647D01*
X263060Y361687D01*
X263129Y361727D01*
X263199Y361757D01*
X263239Y361797D01*
X263269Y361817D01*
X263279Y361827D01*
X263369Y361937D01*
X263429Y362047D01*
X263479Y362156D01*
X263509Y362256D01*
X263529Y362336D01*
X263539Y362406D01*
Y362446D01*
Y362466D01*
X263529Y362626D01*
X263489Y362785D01*
X263439Y362935D01*
X263379Y363065D01*
X263329Y363175D01*
X263279Y363264D01*
X263239Y363314D01*
X263229Y363334D01*
X263139Y363454D01*
X263030Y363574D01*
X262810Y363793D01*
X262570Y363993D01*
X262331Y364183D01*
X262121Y364333D01*
X262031Y364392D01*
X261952Y364442D01*
X261882Y364482D01*
X261832Y364512D01*
X261802Y364532D01*
X261792Y364542D01*
D02*
G37*
G36*
X172511Y367497D02*
X172491D01*
X172391Y367487D01*
X172301Y367477D01*
X172222Y367447D01*
X172162Y367427D01*
X172112Y367397D01*
X172072Y367367D01*
X172052Y367357D01*
X172042Y367347D01*
X171942Y367247D01*
X171852Y367137D01*
X171782Y367018D01*
X171722Y366898D01*
X171672Y366788D01*
X171642Y366708D01*
X171623Y366648D01*
X171613Y366638D01*
Y366628D01*
X171593Y366529D01*
X171563Y366419D01*
X171543Y366299D01*
X171533Y366159D01*
X171503Y365870D01*
X171493Y365580D01*
X171483Y365451D01*
Y365321D01*
X171473Y365201D01*
Y365101D01*
Y365011D01*
Y364951D01*
Y364902D01*
Y364892D01*
X173619D01*
Y365161D01*
X173609Y365381D01*
X173599Y365600D01*
X173579Y365800D01*
X173549Y365980D01*
X173509Y366149D01*
X173469Y366309D01*
X173429Y366459D01*
X173389Y366589D01*
X173349Y366698D01*
X173310Y366798D01*
X173270Y366888D01*
X173230Y366958D01*
X173200Y367018D01*
X173180Y367058D01*
X173160Y367078D01*
Y367088D01*
X173060Y367227D01*
X172950Y367327D01*
X172830Y367397D01*
X172731Y367447D01*
X172631Y367477D01*
X172561Y367487D01*
X172511Y367497D01*
D02*
G37*
G36*
X212889Y367706D02*
X211292Y364033D01*
X214546D01*
X212889Y367706D01*
D02*
G37*
G36*
X193583Y370522D02*
X193254D01*
X193064Y370512D01*
X192885Y370502D01*
X192725Y370472D01*
X192575Y370432D01*
X192425Y370392D01*
X192306Y370342D01*
X192186Y370292D01*
X192076Y370242D01*
X191986Y370192D01*
X191906Y370142D01*
X191836Y370092D01*
X191787Y370052D01*
X191747Y370012D01*
X191707Y369982D01*
X191697Y369972D01*
X191687Y369963D01*
X191597Y369853D01*
X191507Y369723D01*
X191437Y369593D01*
X191377Y369453D01*
X191287Y369164D01*
X191228Y368884D01*
X191198Y368745D01*
X191188Y368625D01*
X191178Y368505D01*
X191168Y368415D01*
X191158Y368325D01*
Y368265D01*
Y368226D01*
Y368216D01*
X191168Y367996D01*
X191178Y367796D01*
X191208Y367607D01*
X191238Y367427D01*
X191278Y367267D01*
X191327Y367118D01*
X191377Y366988D01*
X191417Y366868D01*
X191467Y366768D01*
X191517Y366678D01*
X191567Y366599D01*
X191607Y366539D01*
X191637Y366489D01*
X191667Y366459D01*
X191677Y366439D01*
X191687Y366429D01*
X191787Y366329D01*
X191906Y366239D01*
X192016Y366169D01*
X192146Y366099D01*
X192266Y366049D01*
X192395Y365999D01*
X192635Y365930D01*
X192745Y365910D01*
X192845Y365890D01*
X192945Y365880D01*
X193024Y365870D01*
X193094Y365860D01*
X193304D01*
X193434Y365870D01*
X193494D01*
X193543Y365880D01*
X193583D01*
Y370522D01*
D02*
G37*
G36*
X315556Y367227D02*
X315506D01*
X315346Y367217D01*
X315197Y367178D01*
X315057Y367128D01*
X314927Y367058D01*
X314797Y366968D01*
X314678Y366878D01*
X314468Y366668D01*
X314378Y366569D01*
X314298Y366459D01*
X314228Y366369D01*
X314178Y366289D01*
X314128Y366209D01*
X314098Y366159D01*
X314079Y366119D01*
X314069Y366109D01*
Y362206D01*
X314188Y362017D01*
X314298Y361847D01*
X314418Y361697D01*
X314538Y361577D01*
X314648Y361468D01*
X314757Y361388D01*
X314857Y361308D01*
X314957Y361258D01*
X315047Y361208D01*
X315137Y361178D01*
X315207Y361148D01*
X315266Y361138D01*
X315316Y361128D01*
X315356Y361118D01*
X315386D01*
X315496Y361128D01*
X315596Y361138D01*
X315686Y361168D01*
X315756Y361198D01*
X315815Y361218D01*
X315855Y361248D01*
X315875Y361258D01*
X315885Y361268D01*
X316015Y361398D01*
X316125Y361548D01*
X316225Y361707D01*
X316305Y361867D01*
X316364Y362007D01*
X316414Y362127D01*
X316434Y362176D01*
X316444Y362206D01*
X316454Y362226D01*
Y362236D01*
X316484Y362366D01*
X316524Y362516D01*
X316544Y362676D01*
X316574Y362845D01*
X316604Y363185D01*
X316624Y363524D01*
X316634Y363684D01*
X316644Y363833D01*
Y363963D01*
X316654Y364083D01*
Y364183D01*
Y364253D01*
Y364293D01*
Y364313D01*
Y364542D01*
X316644Y364762D01*
X316634Y364961D01*
X316624Y365141D01*
X316614Y365311D01*
X316594Y365471D01*
X316584Y365610D01*
X316564Y365730D01*
X316544Y365840D01*
X316534Y365940D01*
X316514Y366020D01*
X316504Y366079D01*
X316494Y366129D01*
X316484Y366169D01*
X316474Y366189D01*
Y366199D01*
X316394Y366419D01*
X316315Y366599D01*
X316235Y366748D01*
X316165Y366868D01*
X316095Y366958D01*
X316045Y367018D01*
X316005Y367058D01*
X315995Y367068D01*
X315915Y367118D01*
X315835Y367158D01*
X315756Y367188D01*
X315676Y367207D01*
X315606Y367217D01*
X315556Y367227D01*
D02*
G37*
G36*
X159744Y367457D02*
X159674D01*
X159554Y367447D01*
X159454Y367427D01*
X159354Y367407D01*
X159285Y367377D01*
X159215Y367337D01*
X159175Y367317D01*
X159145Y367297D01*
X159135Y367287D01*
X159035Y367187D01*
X158945Y367078D01*
X158865Y366958D01*
X158805Y366828D01*
X158756Y366718D01*
X158726Y366628D01*
X158706Y366568D01*
X158696Y366559D01*
Y366549D01*
X158666Y366449D01*
X158646Y366329D01*
X158626Y366189D01*
X158606Y366049D01*
X158576Y365750D01*
X158556Y365440D01*
X158546Y365291D01*
Y365151D01*
X158536Y365031D01*
Y364921D01*
Y364832D01*
Y364762D01*
Y364722D01*
Y364702D01*
Y364293D01*
X158546Y363913D01*
Y363574D01*
X158556Y363264D01*
X158576Y362985D01*
X158586Y362735D01*
X158596Y362516D01*
X158616Y362326D01*
X158626Y362166D01*
X158646Y362027D01*
X158656Y361907D01*
X158666Y361817D01*
X158676Y361747D01*
X158686Y361707D01*
X158696Y361677D01*
Y361667D01*
X158745Y361498D01*
X158805Y361338D01*
X158875Y361208D01*
X158945Y361108D01*
X159015Y361018D01*
X159065Y360959D01*
X159105Y360919D01*
X159115Y360909D01*
X159205Y360849D01*
X159305Y360799D01*
X159404Y360769D01*
X159504Y360739D01*
X159584Y360729D01*
X159654Y360719D01*
X159714D01*
X159844Y360729D01*
X159963Y360769D01*
X160073Y360809D01*
X160173Y360869D01*
X160253Y360919D01*
X160313Y360969D01*
X160353Y360998D01*
X160363Y361008D01*
X160462Y361128D01*
X160542Y361268D01*
X160602Y361408D01*
X160652Y361548D01*
X160692Y361667D01*
X160712Y361777D01*
X160722Y361817D01*
X160732Y361847D01*
Y361857D01*
Y361867D01*
X160772Y362146D01*
X160792Y362426D01*
X160812Y362686D01*
X160832Y362925D01*
Y363035D01*
Y363135D01*
X160842Y363224D01*
Y363304D01*
Y363364D01*
Y363404D01*
Y363434D01*
Y363444D01*
Y363734D01*
Y364013D01*
X160832Y364273D01*
Y364512D01*
X160822Y364732D01*
X160812Y364931D01*
X160802Y365121D01*
X160792Y365291D01*
Y365440D01*
X160782Y365570D01*
X160772Y365680D01*
X160762Y365770D01*
Y365850D01*
X160752Y365900D01*
Y365930D01*
Y365940D01*
X160732Y366099D01*
X160712Y366249D01*
X160682Y366389D01*
X160652Y366509D01*
X160622Y366618D01*
X160592Y366718D01*
X160562Y366808D01*
X160532Y366878D01*
X160502Y366948D01*
X160473Y366998D01*
X160422Y367088D01*
X160383Y367137D01*
X160373Y367147D01*
X160263Y367247D01*
X160143Y367327D01*
X160023Y367377D01*
X159913Y367417D01*
X159814Y367437D01*
X159744Y367457D01*
D02*
G37*
%LPD*%
D10*
X765330Y148590D02*
G03*
X765330Y148590I-1000J0D01*
G01*
X605750Y334510D02*
G03*
X605750Y334510I-1000J0D01*
G01*
X744900Y265050D02*
G03*
X744900Y265050I-1000J0D01*
G01*
X661630Y334510D02*
G03*
X661630Y334510I-1000J0D01*
G01*
X930320Y146050D02*
G03*
X930320Y146050I-1000J0D01*
G01*
X906482Y262001D02*
G03*
X906482Y262001I-1000J0D01*
G01*
X767332Y331461D02*
G03*
X767332Y331461I-1000J0D01*
G01*
X823212D02*
G03*
X823212Y331461I-1000J0D01*
G01*
X209350Y214420D02*
G03*
X209350Y214420I-1000J0D01*
G01*
X553430Y290090D02*
G03*
X553430Y290090I-1000J0D01*
G01*
X550460Y166940D02*
G03*
X550460Y166940I-1000J0D01*
G01*
X525720Y318770D02*
G03*
X525720Y318770I-1000J0D01*
G01*
X285420Y189230D02*
G03*
X285420Y189230I-1000J0D01*
G01*
X767501Y160378D02*
Y187602D01*
X748879Y160378D02*
Y187602D01*
X742330Y142590D02*
X746330D01*
X742330Y154590D02*
X746330D01*
X790238Y111429D02*
Y133429D01*
X768738Y111429D02*
Y133429D01*
X710288Y251501D02*
X737512D01*
X710288Y232879D02*
X737512D01*
X647606Y197280D02*
Y203280D01*
X719377Y109490D02*
Y136715D01*
X737999Y109490D02*
Y136715D01*
X710288Y208749D02*
X737512D01*
X710288Y227371D02*
X737512D01*
X744777Y109413D02*
Y136637D01*
X763399Y109413D02*
Y136637D01*
X721900Y259050D02*
X725900D01*
X721900Y271050D02*
X725900D01*
X609361Y160489D02*
X636586D01*
X609361Y179111D02*
X636586D01*
X710288Y160489D02*
X737512D01*
X710288Y179111D02*
X737512D01*
X710288Y203241D02*
X737512D01*
X710288Y184619D02*
X737512D01*
X705208Y286599D02*
X732432D01*
X705208Y305221D02*
X732432D01*
X941491Y157838D02*
Y185062D01*
X922869Y157838D02*
Y185062D01*
X907320Y140050D02*
X911320D01*
X907320Y152050D02*
X911320D01*
X883482Y256001D02*
X887482D01*
X883482Y268001D02*
X887482D01*
X871870Y205700D02*
X899094D01*
X871870Y224322D02*
X899094D01*
X770944Y157440D02*
X798168D01*
X770944Y176062D02*
X798168D01*
X871870Y157440D02*
X899094D01*
X871870Y176062D02*
X899094D01*
X871870Y200192D02*
X899094D01*
X871870Y181570D02*
X899094D01*
X809188Y194231D02*
Y200231D01*
X871870Y248452D02*
X899094D01*
X871870Y229830D02*
X899094D01*
X872848Y282789D02*
X900072D01*
X872848Y301411D02*
X900072D01*
X213718Y201081D02*
X240942D01*
X213718Y182459D02*
X240942D01*
X213718Y179491D02*
X240942D01*
X213718Y160869D02*
X240942D01*
X213718Y136311D02*
X240942D01*
X213718Y117689D02*
X240942D01*
X213718Y244261D02*
X240942D01*
X213718Y225639D02*
X240942D01*
X253916Y249350D02*
Y271350D01*
X232416Y249350D02*
Y271350D01*
X228516Y249470D02*
Y271470D01*
X207016Y249470D02*
Y271470D01*
X213718Y157901D02*
X240942D01*
X213718Y139279D02*
X240942D01*
X213718Y222671D02*
X240942D01*
X213718Y204049D02*
X240942D01*
X564310Y216580D02*
X586310D01*
X564310Y238080D02*
X586310D01*
X564190Y240710D02*
X586190D01*
X564190Y262210D02*
X586190D01*
X564430Y308020D02*
X586430D01*
X564430Y329520D02*
X586430D01*
X564310Y283890D02*
X586310D01*
X564310Y305390D02*
X586310D01*
X562920Y94660D02*
X584920D01*
X562920Y116160D02*
X584920D01*
X564430Y188640D02*
X586430D01*
X564430Y210140D02*
X586430D01*
X563160Y120060D02*
X585160D01*
X563160Y141560D02*
X585160D01*
X564430Y164510D02*
X586430D01*
X564430Y186010D02*
X586430D01*
X452541Y347068D02*
Y374292D01*
X433919Y347068D02*
Y374292D01*
X412329Y347068D02*
Y374292D01*
X430951Y347068D02*
Y374292D01*
X472861Y347068D02*
Y374292D01*
X454239Y347068D02*
Y374292D01*
X519851Y320994D02*
Y348218D01*
X501229Y320994D02*
Y348218D01*
X353418Y210399D02*
X380642D01*
X353418Y229021D02*
X380642D01*
X542720Y324770D02*
X546720D01*
X542720Y312770D02*
X546720D01*
D11*
X599000Y242710D02*
Y307710D01*
X645600Y242710D02*
Y307710D01*
X654880Y242710D02*
Y307710D01*
X701480Y242710D02*
Y307710D01*
X760582Y239661D02*
Y304661D01*
X807182Y239661D02*
Y304661D01*
X816462Y239661D02*
Y304661D01*
X863062Y239661D02*
Y304661D01*
X74850Y117020D02*
X102250D01*
X132150D02*
X191850D01*
Y131220D01*
Y244120D02*
Y253820D01*
X132150D02*
X191850D01*
X74850D02*
X102250D01*
X74850Y117020D02*
Y253820D01*
X536955Y217665D02*
Y282715D01*
X501905Y217665D02*
X536955D01*
X501905D02*
Y282715D01*
X536955D01*
X533985Y94515D02*
Y159565D01*
X498935Y94515D02*
X533985D01*
X498935D02*
Y159565D01*
X533985D01*
X298920Y180730D02*
X325920D01*
X298920Y197730D02*
X325920D01*
X373030Y174810D02*
X379030D01*
X355030D02*
X361030D01*
X354890D02*
Y188410D01*
X379170Y174810D02*
Y188410D01*
D13*
X299780Y160087D02*
G03*
X299780Y160087I-3810J0D01*
G01*
D14*
X674980Y216790D02*
X684980D01*
X674980Y208150D02*
Y216790D01*
X688980Y198650D02*
Y204930D01*
X674980Y186790D02*
X684980D01*
X674980D02*
Y195430D01*
X632107Y185680D02*
X640258D01*
X632107D02*
Y192279D01*
Y185680D02*
Y192279D01*
Y185680D02*
Y192279D01*
Y208281D02*
Y214880D01*
X640258D01*
X793689Y182631D02*
X801840D01*
X793689D02*
Y189230D01*
Y182631D02*
Y189230D01*
Y182631D02*
Y189230D01*
Y205232D02*
Y211831D01*
X801840D01*
X836562Y213741D02*
X846562D01*
X836562Y205101D02*
Y213741D01*
X850562Y195601D02*
Y201881D01*
X836562Y183741D02*
X846562D01*
X836562D02*
Y192381D01*
X516371Y309843D02*
Y314841D01*
X513872D01*
X513039Y314008D01*
Y312342D01*
X513872Y311509D01*
X516371D01*
X514705D02*
X513039Y309843D01*
X511373Y314008D02*
X510540Y314841D01*
X508874D01*
X508041Y314008D01*
Y313175D01*
X508874Y312342D01*
X509707D01*
X508874D01*
X508041Y311509D01*
Y310676D01*
X508874Y309843D01*
X510540D01*
X511373Y310676D01*
X506375Y309843D02*
X504709D01*
X505542D01*
Y314841D01*
X506375Y314008D01*
X548775Y307299D02*
Y302301D01*
X546276D01*
X545443Y303134D01*
Y306466D01*
X546276Y307299D01*
X548775D01*
X541278Y302301D02*
Y307299D01*
X543777Y304800D01*
X540445D01*
D15*
X347218Y103676D02*
Y96058D01*
X343409D01*
X342140Y97328D01*
Y98597D01*
X343409Y99867D01*
X347218D01*
X343409D01*
X342140Y101137D01*
Y102406D01*
X343409Y103676D01*
X347218D01*
X335792Y96058D02*
X338331D01*
X339600Y97328D01*
Y99867D01*
X338331Y101137D01*
X335792D01*
X334522Y99867D01*
Y98597D01*
X339600D01*
X328174Y96058D02*
X330713D01*
X331983Y97328D01*
Y99867D01*
X330713Y101137D01*
X328174D01*
X326905Y99867D01*
Y98597D01*
X331983D01*
X324365Y93519D02*
Y101137D01*
X320557D01*
X319287Y99867D01*
Y97328D01*
X320557Y96058D01*
X324365D01*
X347218Y87119D02*
Y79501D01*
X343409D01*
X342140Y80771D01*
Y82040D01*
Y83310D01*
X343409Y84579D01*
X347218D01*
X338331Y79501D02*
X335792D01*
X334522Y80771D01*
Y83310D01*
X335792Y84579D01*
X338331D01*
X339600Y83310D01*
Y80771D01*
X338331Y79501D01*
X330713D02*
X328174D01*
X326905Y80771D01*
Y83310D01*
X328174Y84579D01*
X330713D01*
X331983Y83310D01*
Y80771D01*
X330713Y79501D01*
X324365Y76962D02*
Y84579D01*
X320557D01*
X319287Y83310D01*
Y80771D01*
X320557Y79501D01*
X324365D01*
D16*
X310854Y147701D02*
X352086D01*
X286639Y82254D02*
Y123486D01*
X310854Y58039D02*
X352086D01*
X376301Y82254D02*
Y123486D01*
X766124Y191811D02*
Y196809D01*
X763625D01*
X762792Y195976D01*
Y194310D01*
X763625Y193477D01*
X766124D01*
X764458D02*
X762792Y191811D01*
X761126Y195976D02*
X760293Y196809D01*
X758627D01*
X757794Y195976D01*
Y195143D01*
X758627Y194310D01*
X759460D01*
X758627D01*
X757794Y193477D01*
Y192644D01*
X758627Y191811D01*
X760293D01*
X761126Y192644D01*
X752795Y196809D02*
X756128D01*
Y194310D01*
X754462Y195143D01*
X753629D01*
X752795Y194310D01*
Y192644D01*
X753629Y191811D01*
X755295D01*
X756128Y192644D01*
X721401Y152755D02*
X726399D01*
Y150256D01*
X725566Y149423D01*
X722234D01*
X721401Y150256D01*
Y152755D01*
Y147757D02*
Y144425D01*
X722234D01*
X725566Y147757D01*
X726399D01*
X780321Y103775D02*
X781154Y104608D01*
X782820D01*
X783653Y103775D01*
Y100443D01*
X782820Y99610D01*
X781154D01*
X780321Y100443D01*
X778655D02*
X777822Y99610D01*
X776156D01*
X775323Y100443D01*
Y103775D01*
X776156Y104608D01*
X777822D01*
X778655Y103775D01*
Y102942D01*
X777822Y102109D01*
X775323D01*
X746801Y235525D02*
X751799D01*
Y238025D01*
X750966Y238858D01*
X749300D01*
X748467Y238025D01*
Y235525D01*
Y237192D02*
X746801Y238858D01*
Y243856D02*
Y240524D01*
X750133Y243856D01*
X750966D01*
X751799Y243023D01*
Y241357D01*
X750966Y240524D01*
Y245522D02*
X751799Y246355D01*
Y248021D01*
X750966Y248855D01*
X747634D01*
X746801Y248021D01*
Y246355D01*
X747634Y245522D01*
X750966D01*
X666233Y187424D02*
Y190756D01*
X667066Y191589D01*
X668732D01*
X669565Y190756D01*
Y187424D01*
X668732Y186591D01*
X667066D01*
X667899Y188257D02*
X666233Y186591D01*
X667066D02*
X666233Y187424D01*
X661235Y191589D02*
X662901Y190756D01*
X664567Y189090D01*
Y187424D01*
X663734Y186591D01*
X662068D01*
X661235Y187424D01*
Y188257D01*
X662068Y189090D01*
X664567D01*
X623133Y187184D02*
Y190516D01*
X623966Y191349D01*
X625632D01*
X626465Y190516D01*
Y187184D01*
X625632Y186351D01*
X623966D01*
X624799Y188017D02*
X623133Y186351D01*
X623966D02*
X623133Y187184D01*
X618968Y186351D02*
Y191349D01*
X621467Y188850D01*
X618135D01*
X732853Y95800D02*
Y100798D01*
X730354D01*
X729521Y99965D01*
Y98299D01*
X730354Y97466D01*
X732853D01*
X731187D02*
X729521Y95800D01*
X724523Y100798D02*
X726189Y99965D01*
X727855Y98299D01*
Y96633D01*
X727022Y95800D01*
X725356D01*
X724523Y96633D01*
Y97466D01*
X725356Y98299D01*
X727855D01*
X601625Y213401D02*
Y217566D01*
X602458Y218399D01*
X604124D01*
X604957Y217566D01*
Y213401D01*
X606623D02*
X609955D01*
Y214234D01*
X606623Y217566D01*
Y218399D01*
X746127Y211812D02*
X751125D01*
Y214311D01*
X750292Y215144D01*
X748626D01*
X747793Y214311D01*
Y211812D01*
Y213478D02*
X746127Y215144D01*
Y216810D02*
Y218477D01*
Y217643D01*
X751125D01*
X750292Y216810D01*
X746960Y220976D02*
X746127Y221809D01*
Y223475D01*
X746960Y224308D01*
X750292D01*
X751125Y223475D01*
Y221809D01*
X750292Y220976D01*
X749459D01*
X748626Y221809D01*
Y224308D01*
X701914Y106737D02*
X705246D01*
X706079Y105904D01*
Y104238D01*
X705246Y103405D01*
X701914D01*
X701081Y104238D01*
Y105904D01*
X702747Y105071D02*
X701081Y106737D01*
Y105904D02*
X701914Y106737D01*
X706079Y111735D02*
Y108403D01*
X703580D01*
X704413Y110069D01*
Y110902D01*
X703580Y111735D01*
X701914D01*
X701081Y110902D01*
Y109236D01*
X701914Y108403D01*
X756983Y95800D02*
Y100798D01*
X754484D01*
X753651Y99965D01*
Y98299D01*
X754484Y97466D01*
X756983D01*
X755317D02*
X753651Y95800D01*
X748653Y100798D02*
X751985D01*
Y98299D01*
X750319Y99132D01*
X749486D01*
X748653Y98299D01*
Y96633D01*
X749486Y95800D01*
X751152D01*
X751985Y96633D01*
X728065Y281519D02*
Y276521D01*
X725566D01*
X724733Y277354D01*
Y280686D01*
X725566Y281519D01*
X728065D01*
X723067Y280686D02*
X722234Y281519D01*
X720568D01*
X719735Y280686D01*
Y279853D01*
X720568Y279020D01*
X721401D01*
X720568D01*
X719735Y278187D01*
Y277354D01*
X720568Y276521D01*
X722234D01*
X723067Y277354D01*
X628626Y150791D02*
Y155789D01*
X626127D01*
X625293Y154956D01*
Y153290D01*
X626127Y152457D01*
X628626D01*
X626960D02*
X625293Y150791D01*
X623627D02*
X621961D01*
X622794D01*
Y155789D01*
X623627Y154956D01*
X619462Y155789D02*
X616130D01*
Y154956D01*
X619462Y151624D01*
Y150791D01*
X739776Y165419D02*
X743584D01*
Y167323D01*
X742950Y167958D01*
X741680D01*
X741045Y167323D01*
Y165419D01*
Y166689D02*
X739776Y167958D01*
Y169228D02*
Y170497D01*
Y169863D01*
X743584D01*
X742950Y169228D01*
Y172402D02*
X743584Y173037D01*
Y174306D01*
X742950Y174941D01*
X742315D01*
X741680Y174306D01*
X741045Y174941D01*
X740410D01*
X739776Y174306D01*
Y173037D01*
X740410Y172402D01*
X741045D01*
X741680Y173037D01*
X742315Y172402D01*
X742950D01*
X741680Y173037D02*
Y174306D01*
X741046Y190819D02*
X744854D01*
Y192723D01*
X744220Y193358D01*
X742950D01*
X742315Y192723D01*
Y190819D01*
Y192089D02*
X741046Y193358D01*
Y194628D02*
Y195897D01*
Y195263D01*
X744854D01*
X744220Y194628D01*
X744854Y200341D02*
X744220Y199071D01*
X742950Y197802D01*
X741680D01*
X741046Y198437D01*
Y199706D01*
X741680Y200341D01*
X742315D01*
X742950Y199706D01*
Y197802D01*
X660045Y213401D02*
Y217566D01*
X660878Y218399D01*
X662544D01*
X663377Y217566D01*
Y213401D01*
X665043Y214234D02*
X665876Y213401D01*
X667542D01*
X668375Y214234D01*
Y215067D01*
X667542Y215900D01*
X668375Y216733D01*
Y217566D01*
X667542Y218399D01*
X665876D01*
X665043Y217566D01*
Y216733D01*
X665876Y215900D01*
X665043Y215067D01*
Y214234D01*
X665876Y215900D02*
X667542D01*
X725484Y309921D02*
Y314919D01*
X722985D01*
X722152Y314086D01*
Y312420D01*
X722985Y311587D01*
X725484D01*
X723818D02*
X722152Y309921D01*
X720486Y314086D02*
X719653Y314919D01*
X717987D01*
X717154Y314086D01*
Y313253D01*
X717987Y312420D01*
X718820D01*
X717987D01*
X717154Y311587D01*
Y310754D01*
X717987Y309921D01*
X719653D01*
X720486Y310754D01*
X712989Y309921D02*
Y314919D01*
X715488Y312420D01*
X712156D01*
X938845Y189271D02*
Y194269D01*
X936345D01*
X935512Y193436D01*
Y191770D01*
X936345Y190937D01*
X938845D01*
X937178D02*
X935512Y189271D01*
X933846Y193436D02*
X933013Y194269D01*
X931347D01*
X930514Y193436D01*
Y192603D01*
X931347Y191770D01*
X932180D01*
X931347D01*
X930514Y190937D01*
Y190104D01*
X931347Y189271D01*
X933013D01*
X933846Y190104D01*
X928848Y193436D02*
X928015Y194269D01*
X926349D01*
X925516Y193436D01*
Y192603D01*
X926349Y191770D01*
X927182D01*
X926349D01*
X925516Y190937D01*
Y190104D01*
X926349Y189271D01*
X928015D01*
X928848Y190104D01*
X913485Y133309D02*
Y128311D01*
X910986D01*
X910153Y129144D01*
Y132476D01*
X910986Y133309D01*
X913485D01*
X905155D02*
X906821Y132476D01*
X908487Y130810D01*
Y129144D01*
X907654Y128311D01*
X905988D01*
X905155Y129144D01*
Y129977D01*
X905988Y130810D01*
X908487D01*
X889647Y278470D02*
Y273472D01*
X887148D01*
X886315Y274305D01*
Y277637D01*
X887148Y278470D01*
X889647D01*
X881317Y273472D02*
X884649D01*
X881317Y276804D01*
Y277637D01*
X882150Y278470D01*
X883816D01*
X884649Y277637D01*
X907709Y208763D02*
X912707D01*
Y211262D01*
X911874Y212095D01*
X910208D01*
X909375Y211262D01*
Y208763D01*
Y210429D02*
X907709Y212095D01*
Y213761D02*
Y215427D01*
Y214594D01*
X912707D01*
X911874Y213761D01*
X907709Y220426D02*
X912707D01*
X910208Y217927D01*
Y221259D01*
X766763Y207432D02*
Y211597D01*
X767596Y212430D01*
X769262D01*
X770095Y211597D01*
Y207432D01*
X775093D02*
X771761D01*
Y209931D01*
X773427Y209098D01*
X774260D01*
X775093Y209931D01*
Y211597D01*
X774260Y212430D01*
X772594D01*
X771761Y211597D01*
X863496Y103688D02*
X866828D01*
X867661Y102855D01*
Y101189D01*
X866828Y100356D01*
X863496D01*
X862663Y101189D01*
Y102855D01*
X864329Y102022D02*
X862663Y103688D01*
Y102855D02*
X863496Y103688D01*
X862663Y108686D02*
Y105354D01*
X865995Y108686D01*
X866828D01*
X867661Y107853D01*
Y106187D01*
X866828Y105354D01*
X790208Y147742D02*
Y152740D01*
X787709D01*
X786876Y151907D01*
Y150241D01*
X787709Y149408D01*
X790208D01*
X788542D02*
X786876Y147742D01*
X785209D02*
X783543D01*
X784376D01*
Y152740D01*
X785209Y151907D01*
X777712Y147742D02*
X781044D01*
X777712Y151074D01*
Y151907D01*
X778545Y152740D01*
X780211D01*
X781044Y151907D01*
X907787Y160503D02*
X912785D01*
Y163002D01*
X911952Y163835D01*
X910286D01*
X909453Y163002D01*
Y160503D01*
Y162169D02*
X907787Y163835D01*
Y165501D02*
Y167167D01*
Y166334D01*
X912785D01*
X911952Y165501D01*
Y169667D02*
X912785Y170500D01*
Y172166D01*
X911952Y172999D01*
X911119D01*
X910286Y172166D01*
Y171333D01*
Y172166D01*
X909453Y172999D01*
X908620D01*
X907787Y172166D01*
Y170500D01*
X908620Y169667D01*
X907787Y185466D02*
X912785D01*
Y187965D01*
X911952Y188798D01*
X910286D01*
X909453Y187965D01*
Y185466D01*
Y187132D02*
X907787Y188798D01*
Y190464D02*
Y192131D01*
Y191297D01*
X912785D01*
X911952Y190464D01*
X907787Y194630D02*
Y196296D01*
Y195463D01*
X912785D01*
X911952Y194630D01*
X783882Y184135D02*
Y187467D01*
X784715Y188300D01*
X786381D01*
X787214Y187467D01*
Y184135D01*
X786381Y183302D01*
X784715D01*
X785548Y184968D02*
X783882Y183302D01*
X784715D02*
X783882Y184135D01*
X782216Y183302D02*
X780550D01*
X781383D01*
Y188300D01*
X782216Y187467D01*
X908383Y232893D02*
X913381D01*
Y235392D01*
X912548Y236225D01*
X910882D01*
X910049Y235392D01*
Y232893D01*
Y234559D02*
X908383Y236225D01*
Y237891D02*
Y239557D01*
Y238724D01*
X913381D01*
X912548Y237891D01*
X913381Y245389D02*
Y242057D01*
X910882D01*
X911715Y243723D01*
Y244556D01*
X910882Y245389D01*
X909216D01*
X908383Y244556D01*
Y242890D01*
X909216Y242057D01*
X827815Y184375D02*
Y187707D01*
X828648Y188540D01*
X830314D01*
X831147Y187707D01*
Y184375D01*
X830314Y183542D01*
X828648D01*
X829481Y185208D02*
X827815Y183542D01*
X828648D02*
X827815Y184375D01*
X826149Y187707D02*
X825316Y188540D01*
X823650D01*
X822817Y187707D01*
Y186874D01*
X823650Y186041D01*
X824483D01*
X823650D01*
X822817Y185208D01*
Y184375D01*
X823650Y183542D01*
X825316D01*
X826149Y184375D01*
X822643Y208702D02*
Y212867D01*
X823476Y213700D01*
X825142D01*
X825975Y212867D01*
Y208702D01*
X830973D02*
X829307Y209535D01*
X827641Y211201D01*
Y212867D01*
X828474Y213700D01*
X830140D01*
X830973Y212867D01*
Y212034D01*
X830140Y211201D01*
X827641D01*
X894395Y307381D02*
Y312379D01*
X891895D01*
X891062Y311546D01*
Y309880D01*
X891895Y309047D01*
X894395D01*
X892728D02*
X891062Y307381D01*
X889396Y311546D02*
X888563Y312379D01*
X886897D01*
X886064Y311546D01*
Y310713D01*
X886897Y309880D01*
X887730D01*
X886897D01*
X886064Y309047D01*
Y308214D01*
X886897Y307381D01*
X888563D01*
X889396Y308214D01*
X881066Y307381D02*
X884398D01*
X881066Y310713D01*
Y311546D01*
X881899Y312379D01*
X883565D01*
X884398Y311546D01*
X483911Y230225D02*
X488076D01*
X488909Y229392D01*
Y227726D01*
X488076Y226893D01*
X483911D01*
X488909Y221895D02*
Y225227D01*
X485577Y221895D01*
X484744D01*
X483911Y222728D01*
Y224394D01*
X484744Y225227D01*
X480941Y107512D02*
X485106D01*
X485939Y106679D01*
Y105013D01*
X485106Y104180D01*
X480941D01*
X485939Y102514D02*
Y100848D01*
Y101681D01*
X480941D01*
X481774Y102514D01*
X251419Y241614D02*
X246421D01*
Y239115D01*
X247254Y238282D01*
X248920D01*
X249753Y239115D01*
Y241614D01*
Y239948D02*
X251419Y238282D01*
Y233284D02*
Y236616D01*
X248087Y233284D01*
X247254D01*
X246421Y234117D01*
Y235783D01*
X247254Y236616D01*
Y231618D02*
X246421Y230785D01*
Y229119D01*
X247254Y228286D01*
X248087D01*
X248920Y229119D01*
X249753Y228286D01*
X250586D01*
X251419Y229119D01*
Y230785D01*
X250586Y231618D01*
X249753D01*
X248920Y230785D01*
X248087Y231618D01*
X247254D01*
X248920Y230785D02*
Y229119D01*
X251419Y198435D02*
X246421D01*
Y195935D01*
X247254Y195102D01*
X248920D01*
X249753Y195935D01*
Y198435D01*
Y196768D02*
X251419Y195102D01*
Y190104D02*
Y193436D01*
X248087Y190104D01*
X247254D01*
X246421Y190937D01*
Y192603D01*
X247254Y193436D01*
X246421Y188438D02*
Y185105D01*
X247254D01*
X250586Y188438D01*
X251419D01*
X250149Y133665D02*
X245151D01*
Y131165D01*
X245984Y130332D01*
X247650D01*
X248483Y131165D01*
Y133665D01*
Y131998D02*
X250149Y130332D01*
Y125334D02*
Y128666D01*
X246817Y125334D01*
X245984D01*
X245151Y126167D01*
Y127833D01*
X245984Y128666D01*
X245151Y120336D02*
X245984Y122002D01*
X247650Y123668D01*
X249316D01*
X250149Y122835D01*
Y121169D01*
X249316Y120336D01*
X248483D01*
X247650Y121169D01*
Y123668D01*
X250149Y176845D02*
X245151D01*
Y174345D01*
X245984Y173512D01*
X247650D01*
X248483Y174345D01*
Y176845D01*
Y175178D02*
X250149Y173512D01*
Y168514D02*
Y171846D01*
X246817Y168514D01*
X245984D01*
X245151Y169347D01*
Y171013D01*
X245984Y171846D01*
X245151Y163515D02*
Y166848D01*
X247650D01*
X246817Y165182D01*
Y164349D01*
X247650Y163515D01*
X249316D01*
X250149Y164349D01*
Y166015D01*
X249316Y166848D01*
X250149Y153984D02*
X245151D01*
Y151485D01*
X245984Y150652D01*
X247650D01*
X248483Y151485D01*
Y153984D01*
Y152318D02*
X250149Y150652D01*
Y145654D02*
Y148986D01*
X246817Y145654D01*
X245984D01*
X245151Y146487D01*
Y148153D01*
X245984Y148986D01*
X250149Y141489D02*
X245151D01*
X247650Y143988D01*
Y140655D01*
X251419Y220025D02*
X246421D01*
Y217525D01*
X247254Y216692D01*
X248920D01*
X249753Y217525D01*
Y220025D01*
Y218358D02*
X251419Y216692D01*
Y211694D02*
Y215026D01*
X248087Y211694D01*
X247254D01*
X246421Y212527D01*
Y214193D01*
X247254Y215026D01*
Y210028D02*
X246421Y209195D01*
Y207529D01*
X247254Y206695D01*
X248087D01*
X248920Y207529D01*
Y208362D01*
Y207529D01*
X249753Y206695D01*
X250586D01*
X251419Y207529D01*
Y209195D01*
X250586Y210028D01*
X467715Y377827D02*
Y382825D01*
X465216D01*
X464383Y381992D01*
Y380326D01*
X465216Y379493D01*
X467715D01*
X466049D02*
X464383Y377827D01*
X460218D02*
Y382825D01*
X462717Y380326D01*
X459385D01*
X447395Y377827D02*
Y382825D01*
X444896D01*
X444063Y381992D01*
Y380326D01*
X444896Y379493D01*
X447395D01*
X445729D02*
X444063Y377827D01*
X442397Y381992D02*
X441564Y382825D01*
X439898D01*
X439065Y381992D01*
Y381159D01*
X439898Y380326D01*
X440731D01*
X439898D01*
X439065Y379493D01*
Y378660D01*
X439898Y377827D01*
X441564D01*
X442397Y378660D01*
X425805Y377905D02*
Y382903D01*
X423306D01*
X422473Y382070D01*
Y380404D01*
X423306Y379571D01*
X425805D01*
X424139D02*
X422473Y377905D01*
X417475D02*
X420807D01*
X417475Y381237D01*
Y382070D01*
X418308Y382903D01*
X419974D01*
X420807Y382070D01*
X289041Y52779D02*
Y47781D01*
X285709D01*
X280711Y51946D02*
X281544Y52779D01*
X283210D01*
X284043Y51946D01*
Y51113D01*
X283210Y50280D01*
X281544D01*
X280711Y49447D01*
Y48614D01*
X281544Y47781D01*
X283210D01*
X284043Y48614D01*
X279045Y47781D02*
X277379D01*
X278212D01*
Y52779D01*
X279045Y51946D01*
X146179Y184531D02*
Y187831D01*
Y186181D01*
X154431D01*
X156081Y187831D01*
Y189482D01*
X154431Y191132D01*
X147829Y181229D02*
X146179Y179579D01*
Y176278D01*
X147829Y174628D01*
X149480D01*
X151130Y176278D01*
Y177929D01*
Y176278D01*
X152780Y174628D01*
X154431D01*
X156081Y176278D01*
Y179579D01*
X154431Y181229D01*
X246452Y280266D02*
X247285Y281099D01*
X248951D01*
X249785Y280266D01*
Y276934D01*
X248951Y276101D01*
X247285D01*
X246452Y276934D01*
X241454Y276101D02*
X244786D01*
X241454Y279433D01*
Y280266D01*
X242287Y281099D01*
X243953D01*
X244786Y280266D01*
X239788D02*
X238955Y281099D01*
X237289D01*
X236455Y280266D01*
Y276934D01*
X237289Y276101D01*
X238955D01*
X239788Y276934D01*
Y280266D01*
X220636D02*
X221469Y281099D01*
X223135D01*
X223968Y280266D01*
Y276934D01*
X223135Y276101D01*
X221469D01*
X220636Y276934D01*
X218970Y276101D02*
X217304D01*
X218137D01*
Y281099D01*
X218970Y280266D01*
X214804Y276934D02*
X213971Y276101D01*
X212305D01*
X211472Y276934D01*
Y280266D01*
X212305Y281099D01*
X213971D01*
X214804Y280266D01*
Y279433D01*
X213971Y278600D01*
X211472D01*
X593606Y317937D02*
X594439Y317104D01*
Y315438D01*
X593606Y314605D01*
X590274D01*
X589441Y315438D01*
Y317104D01*
X590274Y317937D01*
X593606Y319603D02*
X594439Y320436D01*
Y322102D01*
X593606Y322935D01*
X592773D01*
X591940Y322102D01*
X591107Y322935D01*
X590274D01*
X589441Y322102D01*
Y320436D01*
X590274Y319603D01*
X591107D01*
X591940Y320436D01*
X592773Y319603D01*
X593606D01*
X591940Y320436D02*
Y322102D01*
X576143Y278526D02*
X576976Y279359D01*
X578642D01*
X579475Y278526D01*
Y275194D01*
X578642Y274361D01*
X576976D01*
X576143Y275194D01*
X574477Y279359D02*
X571145D01*
Y278526D01*
X574477Y275194D01*
Y274361D01*
X590154Y229433D02*
X589321Y230266D01*
Y231932D01*
X590154Y232765D01*
X593486D01*
X594319Y231932D01*
Y230266D01*
X593486Y229433D01*
X589321Y224435D02*
X590154Y226101D01*
X591820Y227767D01*
X593486D01*
X594319Y226934D01*
Y225268D01*
X593486Y224435D01*
X592653D01*
X591820Y225268D01*
Y227767D01*
X590154Y253563D02*
X589321Y254396D01*
Y256062D01*
X590154Y256895D01*
X593486D01*
X594319Y256062D01*
Y254396D01*
X593486Y253563D01*
X589321Y248565D02*
Y251897D01*
X591820D01*
X590987Y250231D01*
Y249398D01*
X591820Y248565D01*
X593486D01*
X594319Y249398D01*
Y251064D01*
X593486Y251897D01*
X590274Y200223D02*
X589441Y201056D01*
Y202722D01*
X590274Y203555D01*
X593606D01*
X594439Y202722D01*
Y201056D01*
X593606Y200223D01*
X594439Y196058D02*
X589441D01*
X591940Y198557D01*
Y195225D01*
X593606Y174427D02*
X594439Y173594D01*
Y171928D01*
X593606Y171095D01*
X590274D01*
X589441Y171928D01*
Y173594D01*
X590274Y174427D01*
X593606Y176093D02*
X594439Y176926D01*
Y178592D01*
X593606Y179425D01*
X592773D01*
X591940Y178592D01*
Y177759D01*
Y178592D01*
X591107Y179425D01*
X590274D01*
X589441Y178592D01*
Y176926D01*
X590274Y176093D01*
X588884Y106243D02*
X588051Y107076D01*
Y108742D01*
X588884Y109575D01*
X592216D01*
X593049Y108742D01*
Y107076D01*
X592216Y106243D01*
X593049Y101245D02*
Y104577D01*
X589717Y101245D01*
X588884D01*
X588051Y102078D01*
Y103744D01*
X588884Y104577D01*
X589004Y130810D02*
X588171Y131643D01*
Y133309D01*
X589004Y134142D01*
X592336D01*
X593169Y133309D01*
Y131643D01*
X592336Y130810D01*
X593169Y129144D02*
Y127478D01*
Y128311D01*
X588171D01*
X589004Y129144D01*
D87*
X358030Y204610D02*
G03*
X358030Y204610I-1000J0D01*
G01*
D88*
X640791Y155093D02*
X707796D01*
X640791Y122607D02*
Y155093D01*
Y122607D02*
X707796D01*
Y155093D01*
X802373Y152044D02*
X869379D01*
X802373Y119558D02*
Y152044D01*
Y119558D02*
X869379D01*
Y152044D01*
D89*
X325124Y137795D02*
X337820D01*
Y129331D01*
X327240Y116635D02*
X325124Y118751D01*
Y122983D01*
X327240Y125099D01*
X329356D01*
X331472Y122983D01*
Y118751D01*
X333588Y116635D01*
X335704D01*
X337820Y118751D01*
Y122983D01*
X335704Y125099D01*
X337820Y112403D02*
Y108171D01*
Y110287D01*
X325124D01*
X327240Y112403D01*
D90*
X377586Y167203D02*
X374254D01*
X373421Y168036D01*
Y169702D01*
X374254Y170535D01*
X377586D01*
X378419Y169702D01*
Y168036D01*
X376753Y168869D02*
X378419Y167203D01*
Y168036D02*
X377586Y167203D01*
X373421Y165537D02*
Y162205D01*
X374254D01*
X377586Y165537D01*
X378419D01*
X315315Y208239D02*
Y203241D01*
X312816D01*
X311983Y204074D01*
Y207406D01*
X312816Y208239D01*
X315315D01*
X306985D02*
X310317D01*
Y205740D01*
X308651Y206573D01*
X307818D01*
X306985Y205740D01*
Y204074D01*
X307818Y203241D01*
X309484D01*
X310317Y204074D01*
X373694Y233721D02*
Y238719D01*
X371195D01*
X370362Y237886D01*
Y236220D01*
X371195Y235387D01*
X373694D01*
X372028D02*
X370362Y233721D01*
X368696Y237886D02*
X367863Y238719D01*
X366197D01*
X365364Y237886D01*
Y237053D01*
X366197Y236220D01*
X367030D01*
X366197D01*
X365364Y235387D01*
Y234554D01*
X366197Y233721D01*
X367863D01*
X368696Y234554D01*
X363698Y237886D02*
X362865Y238719D01*
X361199D01*
X360365Y237886D01*
Y234554D01*
X361199Y233721D01*
X362865D01*
X363698Y234554D01*
Y237886D01*
M02*
