M48
;Layer_Color=9474304
;FILE_FORMAT=4:4
METRIC,LZ
;TYPE=PLATED
T01F00S00C0.2000
T02F00S00C0.3048
T03F00S00C0.5000
T04F00S00C0.5080
T06F00S00C0.6096
T07F00S00C0.6500
T08F00S00C1.0000
T09F00S00C1.1000
T10F00S00C1.2700
T11F00S00C1.3000
T12F00S00C1.4200
T13F00S00C2.5000
T14F00S00C3.3500
%
T01
X0014903Y0017751
X0015603Y0017051
X0016303Y0017751
X0017003Y0017051
Y0018451
X0016303Y0019151
X0014903
X0015603Y0018451
Y0019851
X0017003
X0017703Y0019151
Y0017751
T02
X0006604Y0001524
X0008636Y0004318
X00101398Y00043033
X0011938Y0001524
X0010668Y0015113
X0009525Y0014478
X0004318Y0009398
X0019812Y0009652
X0021336
X00245059Y00099105
X00251409Y00093589
X0029464Y0009017
X0029594Y0004829
X0027813Y0012954
X0024765Y0013843
X0022733Y00158901
X0020955Y0015875
X0020828Y0018161
X0024765Y0018034
Y002413
X0022987Y0025273
X0019685Y00252476
X0020066Y0030353
X0016256Y0030099
X0014859
X0013716Y0033909
X00121285Y0033655
X0009271Y0033782
X0008636Y0034417
X0009271Y0035433
X0011938Y0036576
X0011176Y0027178
X0009906
X0008509
X0004191Y003302
X0020447Y0034798
X0023368Y0036449
X00233231Y00382719
X0034925Y0024384
X0038989Y0026035
X0038227Y0018923
X0033274Y0014224
X0031623Y0015621
X0036703Y0008636
X0045466Y0002286
X0052959Y0014986
X00550177Y00175086
X00598424Y0017296
Y0013081
X0059309Y0022987
Y00254
X006096Y0025019
X0062484Y0025908
X0059436Y0028829
X0055626Y0030226
X0054229Y0028321
X0053086Y0028956
X0053975Y0025019
X0055245Y0023876
X0044704Y0024003
X00451658Y00268986
X0043942Y0026797
X00471424Y00268778
X0046355Y00381
X00443183Y00380935
X004191Y00381
X0052197Y0037719
X00522382Y00343508
X0058928Y0034163
X0059436Y0036703
X0064516Y0037084
X0070739Y0033782
Y0031623
X00739364Y00318546
X00745617Y00309933
X0074295Y0036576
X0074422Y00222504
X007493Y0020828
X0077978Y001524
X00714202Y00152146
X00667766Y0019431
X0079629Y0025273
X0086614Y0024892
X00861314Y0019812
X0089027Y002032
X0093599Y0020701
X00936789Y00241814
X0093726Y0028194
X0090297Y0032258
X00834569Y00329442
X0082931Y003683
X0085344Y0029464
X008763Y0015367
X0079502Y001143
T03
X00427622Y00312169
X0043612
X00444622
X00448922Y00303169
X00457322
X00465821
X00461622Y00312169
X00470121
X0047862Y00312171
X00440322Y00303169
T04
X0031623Y0010668
X0060833Y0019939
X0066548Y00254
X00696893Y00150696
X0078232Y0021082
X0082042Y00254
X00863219Y0014605
T06
X0053467Y0011557
X0064262Y0011684
X0067945Y0015494
X0061849Y0029591
X0079485Y00274241
T07
X0042292Y00303169
X0048322
T08
X0015621Y0032512
X0018161
X0020701
X0023241
X0025781
X0028321
X0030861
X0033401
X0035941
T09
X0090932Y001016
T10
X004064Y0001778
Y0004318
Y0006858
Y0009398
Y0011938
Y0014478
Y0017018
Y0019558
T11
X0058674Y0005701
X0063754
X0068834
X0073914
X0078994
X0084074
T12
X0088382Y000761
Y001271
X0093482
Y000761
T13
X0015621Y0002794
X0035941
T14
X00035Y00035
Y00365
X00915
Y00035
M30
