M48
;Layer_Color=9474304
;FILE_FORMAT=4:4
METRIC,LZ
;TYPE=PLATED
T01F00S00C0.2000
T02F00S00C0.2540
T04F00S00C1.1000
T05F00S00C1.3000
T06F00S00C1.4200
T07F00S00C3.3500
;TYPE=NON_PLATED
T08F00S00C0.6000
T09F00S00C1.4000
%
T01
X0015603Y001935
X0014903Y002005
X0016303
X0017003Y001935
Y002075
X0016303Y002145
X0014903
X0015603Y002075
Y002215
X0017003
X0017703Y002145
Y002005
T02
X0009906Y0002286
X0010795Y0003175
X0007112Y0008001
Y0010541
X0006858Y00127
X0009906Y0012065
X0009779Y0014732
X0008636Y0016383
X00124044Y0018173
X00137665Y0017063
X0015113Y0017907
X0016891Y0016002
X001778Y0015367
X0018923Y0015113
X0020066Y0014986
X00199814Y00167599
X0021844Y0015113
X0023368Y0014859
X0024892Y001778
X0029972Y0018034
X00298857Y00195724
X0029337Y002159
X002794Y00216027
X0028067Y0022606
Y0023495
X0030861Y0024511
X0034798
X0031115Y002921
X0026289Y0032004
X0020066Y0032893
X0018796Y0032639
X00179982Y00358915
X0022352Y0035433
X0014732Y0038735
X0011303Y0036449
X0011176Y0032639
X0013081Y0032893
X0008636Y0032385
X001143Y002794
X0015494Y0026543
X0017018Y0023622
X0018161Y0024384
X0014732Y0011557
X00128788
X0020066Y0008128
X0022987
X0021844Y0005207
X0020955
X0029337Y0007239
X0031115Y0005969
X0029972Y0003302
X0029337Y0002286
X0034163Y0002667
X00342657Y00111692
X00373871Y00114051
X00374884Y00163274
X0036576Y0017526
X0032766
X00393985Y00353651
X0001651Y0011049
X00403515Y00075937
X0041529Y0008763
Y0014351
X0041275Y0016383
X0040386Y0017526
X0044958Y0015748
X004699Y0015494
X00525145Y0016764
X0055245Y0013589
X0055499Y0012446
X0057658Y0012573
Y001397
X0060845Y00139065
X006425Y00137795
X0063246Y001651
Y0011049
Y0009906
X0061087Y0010414
X0060739Y00071755
X0058039Y0006858
X005715
X0056261
X005715Y0003683
X0059563Y0002794
X00609103Y00013994
X0063246Y0004445
X0064262Y0007239
X0049911Y0008382
X0047752Y0008128
X00488707Y00029244
X0051562Y0002413
X0050165Y0000762
X0053594Y0001016
X00506724Y00300542
X00479394Y00300918
X0048133Y0032385
X0050165
X0051054Y0033274
X0052959Y0033782
X0057277Y0031877
X0057531Y0030734
X0061468Y0033909
X0046101Y0031115
X0046355Y0027305
X0042418Y0026289
X0041402Y0027686
X0040894Y0030226
X0062357Y0041021
X0067564Y0042005
X0009652Y0044323
T04
X0024003Y0040386
T05
X006895Y001004
Y001512
Y00202
Y002528
Y003036
Y003544
T06
X0021453Y0037836
X0026553
Y0042936
X0021453
T07
X00035Y00035
X00715
Y00415
X00035
T08
X0018566Y0005712
X0024346
T09
X0016862Y00175
Y00275
M30
