G04*
G04 #@! TF.GenerationSoftware,Altium Limited,Altium Designer,26.5.0 (11)*
G04*
G04 Layer_Color=65535*
G04 Board_Origin=0|0*
%FSLAX44Y44*%
%MOMM*%
G71*
G04*
G04 #@! TF.SameCoordinates,B537C3E7-E53A-4C24-A561-7565F1881969*
G04*
G04*
G04 #@! TF.FilePolarity,Positive*
G04*
G01*
G75*
%ADD10C,0.2000*%
%ADD11C,0.1270*%
%ADD12C,0.2500*%
%ADD13C,0.5080*%
%ADD14C,0.2540*%
%ADD15C,0.1524*%
%ADD16C,0.2032*%
%ADD17C,0.1520*%
G36*
X824230Y342900D02*
X816610D01*
X820420Y346710D01*
X824230D01*
Y342900D01*
D02*
G37*
G36*
X699770D02*
X692150D01*
X695960Y346710D01*
X699770D01*
Y342900D01*
D02*
G37*
G36*
X576580D02*
X568960D01*
X572770Y346710D01*
X576580D01*
Y342900D01*
D02*
G37*
G36*
X745400Y298108D02*
X740285D01*
Y302030D01*
X745400D01*
Y298108D01*
D02*
G37*
G36*
X653562Y311313D02*
X654050D01*
Y308872D01*
X654538D01*
Y306919D01*
X655026D01*
Y304478D01*
X655515D01*
Y302038D01*
X656003D01*
Y300085D01*
X656491D01*
Y297644D01*
X656979D01*
Y295203D01*
X657467D01*
Y293251D01*
X657955D01*
Y290810D01*
X658443D01*
Y288369D01*
X658932D01*
Y286417D01*
X659420D01*
Y283976D01*
X659908D01*
Y281535D01*
X660396D01*
Y279094D01*
X660884D01*
Y277142D01*
X661372D01*
Y274701D01*
X661861D01*
Y273725D01*
X663813D01*
Y274213D01*
X665766D01*
Y274701D01*
X668206D01*
Y275189D01*
X671135D01*
Y275677D01*
X673576D01*
Y276166D01*
X676017D01*
Y276654D01*
X678458D01*
Y277142D01*
X681387D01*
Y277630D01*
X683828D01*
Y278118D01*
X686268D01*
Y278606D01*
X688709D01*
Y279094D01*
X691150D01*
Y279583D01*
X694079D01*
Y280071D01*
X696520D01*
Y280559D01*
X698960D01*
Y281047D01*
X700425D01*
Y280559D01*
X699448D01*
Y280071D01*
X698472D01*
Y279583D01*
X697496D01*
Y279094D01*
X696520D01*
Y278606D01*
X695543D01*
Y278118D01*
X694567D01*
Y277630D01*
X693591D01*
Y277142D01*
X692614D01*
Y276654D01*
X691638D01*
Y276166D01*
X690662D01*
Y275677D01*
X690174D01*
Y275189D01*
X688709D01*
Y274701D01*
X687733D01*
Y274213D01*
X687245D01*
Y273725D01*
X686268D01*
Y273237D01*
X685292D01*
Y272748D01*
X683828D01*
Y272260D01*
X682851D01*
Y271772D01*
X682363D01*
Y271284D01*
X681387D01*
Y270796D01*
X680411D01*
Y270308D01*
X679434D01*
Y269819D01*
X678458D01*
Y269331D01*
X677482D01*
Y268843D01*
X676505D01*
Y268355D01*
X675529D01*
Y267867D01*
X674553D01*
Y267379D01*
X673576D01*
Y266891D01*
X672600D01*
Y266402D01*
X671624D01*
Y265914D01*
X670647D01*
Y265426D01*
X669671D01*
Y264938D01*
X668695D01*
Y264450D01*
X667718D01*
Y263962D01*
X666742D01*
Y263473D01*
X665766D01*
Y262985D01*
X664790D01*
Y262497D01*
X664301D01*
Y261033D01*
X664790D01*
Y259080D01*
X665278D01*
Y256639D01*
X665766D01*
Y254198D01*
X666254D01*
Y252246D01*
X666742D01*
Y249805D01*
X667230D01*
Y248829D01*
X665766D01*
Y249317D01*
X663325D01*
Y249805D01*
X661372D01*
Y250293D01*
X659420D01*
Y250781D01*
X656979D01*
Y251269D01*
X655026D01*
Y251758D01*
X653074D01*
Y251269D01*
X652586D01*
Y250293D01*
X652097D01*
Y249317D01*
X651609D01*
Y248340D01*
X651121D01*
Y247364D01*
X650633D01*
Y246388D01*
X650145D01*
Y245412D01*
X649657D01*
Y244435D01*
X649168D01*
Y243947D01*
X648680D01*
Y242483D01*
X648192D01*
Y241506D01*
X647704D01*
Y241018D01*
X647216D01*
Y240042D01*
X646728D01*
Y239066D01*
X646239D01*
Y238089D01*
X645751D01*
Y237113D01*
X645263D01*
Y236137D01*
X644775D01*
Y235160D01*
X644287D01*
Y234184D01*
X643799D01*
Y233696D01*
X643311D01*
Y232719D01*
X642822D01*
Y231743D01*
X642334D01*
Y230767D01*
X641846D01*
Y229791D01*
X641358D01*
Y228814D01*
X640870D01*
Y227838D01*
X640382D01*
Y226862D01*
X639893D01*
Y225885D01*
X639405D01*
Y225397D01*
X638917D01*
Y224421D01*
X638429D01*
Y223445D01*
X637941D01*
Y222468D01*
X637453D01*
Y221492D01*
X636964D01*
Y220516D01*
X636476D01*
Y219539D01*
X635988D01*
Y218563D01*
X635500D01*
Y217587D01*
X635012D01*
Y219539D01*
X635500D01*
Y221980D01*
X635988D01*
Y224421D01*
X636476D01*
Y226862D01*
X636964D01*
Y229303D01*
X637453D01*
Y231743D01*
X637941D01*
Y233696D01*
X638429D01*
Y236137D01*
X638917D01*
Y238577D01*
X639405D01*
Y241018D01*
X639893D01*
Y243459D01*
X640382D01*
Y245900D01*
X640870D01*
Y248340D01*
X641358D01*
Y250781D01*
X641846D01*
Y252734D01*
X642334D01*
Y254198D01*
X641846D01*
Y254687D01*
X639405D01*
Y255175D01*
X637453D01*
Y255663D01*
X635012D01*
Y256151D01*
X633059D01*
Y256639D01*
X631107D01*
Y257127D01*
X628666D01*
Y257616D01*
X626713D01*
Y258104D01*
X624272D01*
Y258592D01*
X622320D01*
Y259080D01*
X619879D01*
Y259568D01*
X617926D01*
Y260056D01*
X615974D01*
Y260544D01*
X613533D01*
Y261033D01*
X611092D01*
Y261521D01*
X609140D01*
Y262009D01*
X607187D01*
Y262497D01*
X604746D01*
Y262985D01*
X603282D01*
Y263473D01*
X605234D01*
Y262985D01*
X611092D01*
Y262497D01*
X616950D01*
Y262009D01*
X623296D01*
Y261521D01*
X629642D01*
Y261033D01*
X635500D01*
Y260544D01*
X641846D01*
Y260056D01*
X643311D01*
Y260544D01*
X643799D01*
Y262497D01*
X644287D01*
Y264450D01*
X644775D01*
Y266891D01*
X645263D01*
Y269819D01*
X645751D01*
Y270308D01*
X646239D01*
Y270796D01*
X648680D01*
Y271284D01*
X651121D01*
Y271772D01*
X653562D01*
Y272260D01*
X655515D01*
Y278606D01*
X655026D01*
Y285929D01*
X654538D01*
Y293251D01*
X654050D01*
Y300085D01*
X653562D01*
Y300573D01*
Y301061D01*
Y308384D01*
X653074D01*
Y313754D01*
X653562D01*
Y311313D01*
D02*
G37*
G36*
X725639Y202482D02*
X725918D01*
Y201645D01*
X726197D01*
Y200808D01*
X726476D01*
Y199971D01*
X726755D01*
Y199413D01*
X727034D01*
Y198576D01*
X727313D01*
Y197739D01*
X727592D01*
Y197181D01*
X727871D01*
Y196344D01*
X728150D01*
Y195786D01*
X728429D01*
Y194949D01*
X728708D01*
Y194112D01*
X728987D01*
Y193554D01*
X729266D01*
Y192717D01*
X729545D01*
Y191880D01*
X729824D01*
Y191322D01*
X730103D01*
Y190485D01*
X730382D01*
Y189928D01*
X730661D01*
Y189090D01*
X730940D01*
Y188253D01*
X731219D01*
Y187696D01*
X731498D01*
Y186859D01*
X731777D01*
Y186301D01*
X732056D01*
Y185464D01*
X732335D01*
Y184905D01*
X732614D01*
Y184069D01*
X732893D01*
Y183510D01*
X733172D01*
Y182673D01*
X733451D01*
Y182115D01*
X733730D01*
Y181279D01*
X734009D01*
Y180721D01*
X734288D01*
Y179884D01*
X734567D01*
Y179326D01*
X734846D01*
Y178768D01*
X735125D01*
Y177931D01*
X735404D01*
Y177373D01*
X735683D01*
Y176815D01*
X735962D01*
Y176257D01*
X736241D01*
Y175420D01*
X736520D01*
Y174862D01*
X736799D01*
Y174304D01*
X737078D01*
Y173746D01*
X730103D01*
Y174025D01*
X729824D01*
Y174583D01*
X729545D01*
Y175420D01*
X729266D01*
Y176257D01*
X728987D01*
Y177094D01*
X728708D01*
Y177931D01*
X728429D01*
Y178768D01*
X728150D01*
Y179605D01*
X727871D01*
Y180441D01*
X727592D01*
Y181000D01*
X727313D01*
Y181836D01*
X727034D01*
Y182395D01*
X717269D01*
Y182115D01*
X716990D01*
Y181558D01*
X716711D01*
Y180721D01*
X716432D01*
Y179884D01*
X716153D01*
Y179047D01*
X715874D01*
Y178210D01*
X715595D01*
Y177373D01*
X715316D01*
Y176815D01*
X715037D01*
Y175699D01*
X714758D01*
Y174862D01*
X714479D01*
Y174025D01*
X714200D01*
Y173746D01*
X710294D01*
Y174304D01*
X710573D01*
Y174862D01*
X710852D01*
Y175699D01*
X711131D01*
Y176257D01*
X711410D01*
Y176815D01*
X711689D01*
Y177652D01*
X711968D01*
Y178210D01*
X712247D01*
Y178768D01*
X712526D01*
Y179605D01*
X712805D01*
Y180163D01*
X713084D01*
Y180721D01*
X713363D01*
Y181558D01*
X713642D01*
Y182115D01*
X713921D01*
Y182952D01*
X714200D01*
Y183510D01*
X714479D01*
Y184347D01*
X714758D01*
Y184905D01*
X715037D01*
Y185464D01*
X715316D01*
Y186301D01*
X715595D01*
Y186859D01*
X715874D01*
Y187696D01*
X716153D01*
Y188253D01*
X716432D01*
Y188811D01*
X716711D01*
Y189648D01*
X716990D01*
Y190207D01*
X717269D01*
Y191043D01*
X717548D01*
Y191602D01*
X717827D01*
Y192439D01*
X718106D01*
Y192997D01*
X718385D01*
Y193834D01*
X718664D01*
Y194391D01*
X718943D01*
Y195229D01*
X719222D01*
Y195786D01*
X719501D01*
Y196623D01*
X719780D01*
Y196903D01*
Y197181D01*
X720059D01*
Y198018D01*
X720338D01*
Y198576D01*
X720617D01*
Y199413D01*
X720896D01*
Y200250D01*
X721175D01*
Y200808D01*
X721454D01*
Y201366D01*
X721733D01*
Y202203D01*
X722012D01*
Y203040D01*
X723686D01*
Y202761D01*
X723965D01*
Y203040D01*
X725639D01*
Y202482D01*
D02*
G37*
G36*
X694391Y199692D02*
X694670D01*
Y199413D01*
X694391D01*
Y199134D01*
X693833D01*
Y199413D01*
X690764D01*
Y199692D01*
X686858D01*
Y178210D01*
X687137D01*
Y173746D01*
X680441D01*
Y179047D01*
X680720D01*
Y199413D01*
X680441D01*
Y199692D01*
X676535D01*
Y199413D01*
X673466D01*
Y199134D01*
X672908D01*
Y202761D01*
X694391D01*
Y199692D01*
D02*
G37*
G36*
X612086Y203319D02*
X615155D01*
Y203040D01*
X616550D01*
Y202761D01*
X617387D01*
Y202482D01*
X618503D01*
Y202203D01*
X619061D01*
Y201924D01*
X619619D01*
Y201645D01*
X620456D01*
Y201366D01*
X621014D01*
Y201087D01*
X621572D01*
Y200529D01*
X621293D01*
Y199971D01*
X621014D01*
Y198855D01*
X620735D01*
Y198018D01*
X620456D01*
Y196903D01*
X620177D01*
Y196623D01*
X619619D01*
Y196903D01*
X619340D01*
Y197181D01*
X619061D01*
Y197460D01*
X618782D01*
Y198018D01*
X618224D01*
Y198297D01*
X617945D01*
Y198576D01*
X617666D01*
Y198855D01*
X617387D01*
Y199134D01*
X616829D01*
Y199413D01*
X616550D01*
Y199692D01*
X615992D01*
Y199971D01*
X615434D01*
Y200250D01*
X614597D01*
Y200529D01*
X613481D01*
Y200808D01*
X609576D01*
Y200529D01*
X608460D01*
Y200250D01*
X607901D01*
Y199971D01*
X607065D01*
Y199692D01*
X606507D01*
Y199413D01*
X606227D01*
Y199134D01*
X605670D01*
Y198855D01*
X605391D01*
Y198576D01*
X605112D01*
Y198297D01*
X604832D01*
Y198018D01*
X604553D01*
Y197739D01*
X604274D01*
Y197460D01*
X603996D01*
Y197181D01*
X603717D01*
Y196903D01*
X603438D01*
Y196623D01*
X603158D01*
Y196065D01*
X602879D01*
Y195786D01*
X602601D01*
Y195229D01*
X602322D01*
Y194671D01*
X602043D01*
Y194112D01*
X601763D01*
Y193276D01*
X601484D01*
Y192717D01*
X601205D01*
Y191322D01*
X600927D01*
Y189648D01*
X600648D01*
Y185464D01*
X600927D01*
Y184069D01*
X601205D01*
Y182952D01*
X601484D01*
Y182115D01*
X601763D01*
Y181558D01*
X602043D01*
Y181000D01*
X602322D01*
Y180441D01*
X602601D01*
Y179884D01*
X602879D01*
Y179605D01*
X603158D01*
Y179326D01*
X603438D01*
Y178768D01*
X603717D01*
Y178489D01*
X603996D01*
Y178210D01*
X604274D01*
Y177931D01*
X604832D01*
Y177652D01*
X605112D01*
Y177373D01*
X605391D01*
Y177094D01*
X605948D01*
Y176815D01*
X606507D01*
Y176536D01*
X607065D01*
Y176257D01*
X607901D01*
Y175978D01*
X609017D01*
Y175699D01*
X612923D01*
Y175978D01*
X614597D01*
Y176257D01*
X615434D01*
Y176536D01*
X615713D01*
Y184905D01*
X615434D01*
Y186579D01*
X621851D01*
Y182673D01*
X621572D01*
Y175699D01*
X621851D01*
Y174862D01*
X621014D01*
Y174583D01*
X619898D01*
Y174304D01*
X618782D01*
Y174025D01*
X617387D01*
Y173746D01*
X615713D01*
Y173467D01*
X613760D01*
Y173188D01*
X607622D01*
Y173467D01*
X605948D01*
Y173746D01*
X604553D01*
Y174025D01*
X603717D01*
Y174304D01*
X602879D01*
Y174583D01*
X602043D01*
Y174862D01*
X601484D01*
Y175141D01*
X600927D01*
Y175420D01*
X600368D01*
Y175699D01*
X600089D01*
Y175978D01*
X599532D01*
Y176257D01*
X599253D01*
Y176536D01*
X598694D01*
Y176815D01*
X598415D01*
Y177094D01*
X598136D01*
Y177373D01*
X597858D01*
Y177652D01*
X597579D01*
Y177931D01*
X597299D01*
Y178210D01*
X597020D01*
Y178489D01*
X596741D01*
Y178768D01*
X596463D01*
Y179047D01*
X596184D01*
Y179605D01*
X595905D01*
Y179884D01*
X595625D01*
Y180441D01*
X595346D01*
Y181000D01*
X595067D01*
Y181558D01*
X594789D01*
Y182115D01*
X594510D01*
Y182952D01*
X594231D01*
Y184069D01*
X593951D01*
Y185742D01*
X593672D01*
Y189370D01*
X593951D01*
Y191043D01*
X594231D01*
Y192439D01*
X594510D01*
Y193276D01*
X594789D01*
Y194112D01*
X595067D01*
Y194671D01*
X595346D01*
Y195229D01*
X595625D01*
Y195786D01*
X595905D01*
Y196344D01*
X596184D01*
Y196623D01*
X596463D01*
Y197181D01*
X596741D01*
Y197460D01*
X597020D01*
Y197739D01*
X597299D01*
Y198018D01*
X597579D01*
Y198576D01*
X597858D01*
Y198855D01*
X598136D01*
Y199134D01*
X598694D01*
Y199413D01*
X598974D01*
Y199692D01*
X599253D01*
Y199971D01*
X599532D01*
Y200250D01*
X600089D01*
Y200529D01*
X600368D01*
Y200808D01*
X600927D01*
Y201087D01*
X601484D01*
Y201366D01*
X601763D01*
Y201645D01*
X602601D01*
Y201924D01*
X603158D01*
Y202203D01*
X603996D01*
Y202482D01*
X604832D01*
Y202761D01*
X605948D01*
Y203040D01*
X607343D01*
Y203319D01*
X610412D01*
Y203598D01*
X612086D01*
Y203319D01*
D02*
G37*
G36*
X654494Y201645D02*
X654215D01*
Y195229D01*
X653936D01*
Y186021D01*
X653657D01*
Y173746D01*
X650309D01*
Y174025D01*
X650030D01*
Y174304D01*
X649751D01*
Y174583D01*
X649472D01*
Y174862D01*
X649193D01*
Y175141D01*
X648914D01*
Y175420D01*
X648635D01*
Y175978D01*
X648356D01*
Y176257D01*
X648077D01*
Y176536D01*
X647798D01*
Y176815D01*
X647519D01*
Y177094D01*
X647240D01*
Y177373D01*
X646961D01*
Y177652D01*
X646682D01*
Y178210D01*
X646403D01*
Y178489D01*
X646124D01*
Y178768D01*
X645845D01*
Y179047D01*
X645566D01*
Y179326D01*
X645287D01*
Y179605D01*
X645008D01*
Y179884D01*
X644729D01*
Y180441D01*
X644450D01*
Y180721D01*
X644171D01*
Y181000D01*
X643892D01*
Y181279D01*
X643613D01*
Y181558D01*
X643334D01*
Y181836D01*
X643055D01*
Y182115D01*
X642776D01*
Y182395D01*
X642497D01*
Y182952D01*
X642218D01*
Y183232D01*
X641939D01*
Y183510D01*
X641660D01*
Y183790D01*
X641381D01*
Y184069D01*
X641102D01*
Y184347D01*
X640823D01*
Y184627D01*
X640544D01*
Y184905D01*
X640265D01*
Y185184D01*
X639986D01*
Y185464D01*
X639707D01*
Y186021D01*
X639428D01*
Y186301D01*
X639149D01*
Y186579D01*
X638870D01*
Y186859D01*
X638591D01*
Y187138D01*
X638312D01*
Y187416D01*
X638033D01*
Y187696D01*
X637754D01*
Y187974D01*
X637475D01*
Y188253D01*
X637196D01*
Y188533D01*
X636917D01*
Y188811D01*
X636638D01*
Y189090D01*
X636359D01*
Y189648D01*
X636080D01*
Y189928D01*
X635801D01*
Y190207D01*
X635522D01*
Y190485D01*
X635243D01*
Y190765D01*
X634964D01*
Y191043D01*
X634685D01*
Y191322D01*
X634406D01*
Y191602D01*
X634127D01*
Y191880D01*
X633848D01*
Y192160D01*
X633569D01*
Y192439D01*
X633290D01*
Y192717D01*
X633011D01*
Y192997D01*
X632732D01*
Y193276D01*
X632453D01*
Y193834D01*
X631895D01*
Y173746D01*
X627989D01*
Y174583D01*
X628268D01*
Y178489D01*
X628547D01*
Y183790D01*
X628826D01*
Y202761D01*
X632732D01*
Y202482D01*
X633011D01*
Y202203D01*
X633290D01*
Y201924D01*
X633569D01*
Y201645D01*
X633848D01*
Y201366D01*
X634127D01*
Y201087D01*
X634406D01*
Y200529D01*
X634685D01*
Y200250D01*
X634964D01*
Y199971D01*
X635243D01*
Y199692D01*
X635522D01*
Y199413D01*
X635801D01*
Y199134D01*
X636080D01*
Y198855D01*
X636359D01*
Y198576D01*
X636638D01*
Y198297D01*
X636917D01*
Y197739D01*
X637196D01*
Y197460D01*
X637475D01*
Y197181D01*
X637754D01*
Y196903D01*
X638033D01*
Y196623D01*
X638312D01*
Y196344D01*
X638591D01*
Y196065D01*
X638870D01*
Y195786D01*
X639149D01*
Y195508D01*
X639428D01*
Y195229D01*
X639707D01*
Y194949D01*
X639986D01*
Y194391D01*
X640265D01*
Y194112D01*
X640544D01*
Y193834D01*
X640823D01*
Y193554D01*
X641102D01*
Y193276D01*
X641381D01*
Y192997D01*
X641660D01*
Y192717D01*
X641939D01*
Y192439D01*
X642218D01*
Y192160D01*
X642497D01*
Y191602D01*
X642776D01*
Y191322D01*
X643055D01*
Y191043D01*
X643334D01*
Y190765D01*
X643613D01*
Y190485D01*
X643892D01*
Y190207D01*
X644171D01*
Y189928D01*
X644450D01*
Y189648D01*
X644729D01*
Y189370D01*
X645008D01*
Y189090D01*
X645287D01*
Y188533D01*
X645566D01*
Y188253D01*
X645845D01*
Y187974D01*
X646124D01*
Y187696D01*
X646403D01*
Y187416D01*
X646682D01*
Y187138D01*
X646961D01*
Y186859D01*
X647240D01*
Y186579D01*
X647519D01*
Y186301D01*
X647798D01*
Y186021D01*
X648077D01*
Y185742D01*
X648356D01*
Y185184D01*
X648914D01*
Y184905D01*
X649193D01*
Y184347D01*
X649472D01*
Y184069D01*
X649751D01*
Y183790D01*
X650030D01*
Y183510D01*
X650309D01*
Y183232D01*
X650588D01*
Y182952D01*
X650867D01*
Y201924D01*
X650588D01*
Y202761D01*
X654494D01*
Y201645D01*
D02*
G37*
G36*
X706109D02*
X705830D01*
Y194671D01*
X705551D01*
Y181836D01*
X705830D01*
Y174583D01*
X706109D01*
Y173746D01*
X699134D01*
Y175699D01*
Y175978D01*
Y179326D01*
X699413D01*
Y197181D01*
X699134D01*
Y202761D01*
X706109D01*
Y201645D01*
D02*
G37*
G36*
X668165Y197739D02*
Y197460D01*
Y196065D01*
X667886D01*
Y180441D01*
X668165D01*
Y173746D01*
X661469D01*
Y180441D01*
X661748D01*
Y195786D01*
X661469D01*
Y202761D01*
X668165D01*
Y197739D01*
D02*
G37*
G36*
X588093Y199134D02*
X587814D01*
Y177373D01*
X588093D01*
Y173746D01*
X581397D01*
Y174025D01*
X581118D01*
Y174583D01*
X581397D01*
Y180163D01*
X581676D01*
Y196344D01*
X581397D01*
Y201924D01*
X581118D01*
Y202761D01*
X587814D01*
Y203040D01*
X588093D01*
Y199134D01*
D02*
G37*
G36*
X632453Y169282D02*
X632174D01*
Y169561D01*
X632453D01*
Y169282D01*
D02*
G37*
G36*
X632174Y169003D02*
X631895D01*
Y169282D01*
X632174D01*
Y169003D01*
D02*
G37*
G36*
X631895Y168724D02*
X631616D01*
Y169003D01*
X631895D01*
Y168724D01*
D02*
G37*
G36*
X703598Y167608D02*
X703319D01*
Y167887D01*
X703598D01*
Y167608D01*
D02*
G37*
G36*
X691601D02*
X691322D01*
Y167887D01*
X691601D01*
Y167608D01*
D02*
G37*
G36*
X703319Y167329D02*
X703040D01*
Y167608D01*
X703319D01*
Y167329D01*
D02*
G37*
G36*
X701366D02*
X701087D01*
Y167608D01*
X700808D01*
Y167887D01*
X699134D01*
Y168166D01*
X701366D01*
Y167329D01*
D02*
G37*
G36*
X697739Y167887D02*
X696902D01*
Y167608D01*
X696344D01*
Y167329D01*
X696065D01*
Y168166D01*
X697739D01*
Y167887D01*
D02*
G37*
G36*
X624083D02*
X624362D01*
Y167329D01*
X624083D01*
Y167608D01*
X623804D01*
Y167887D01*
X623525D01*
Y168166D01*
X624083D01*
Y167887D01*
D02*
G37*
G36*
X694391D02*
X694949D01*
Y167608D01*
X695228D01*
Y167050D01*
X694670D01*
Y167608D01*
X694112D01*
Y167887D01*
X693833D01*
Y168166D01*
X694391D01*
Y167887D01*
D02*
G37*
G36*
X649472D02*
X650030D01*
Y167329D01*
X650309D01*
Y167050D01*
X649751D01*
Y167608D01*
X649193D01*
Y167887D01*
X648914D01*
Y168166D01*
X649472D01*
Y167887D01*
D02*
G37*
G36*
X685742Y166492D02*
Y166213D01*
X685463D01*
Y166771D01*
X685742D01*
Y166492D01*
D02*
G37*
G36*
X676814Y166213D02*
X676535D01*
Y166492D01*
X676814D01*
Y166213D01*
D02*
G37*
G36*
X616829D02*
X616550D01*
Y166771D01*
X616829D01*
Y166213D01*
D02*
G37*
G36*
X676535Y165655D02*
X676256D01*
Y166213D01*
X676535D01*
Y165655D01*
D02*
G37*
G36*
X685463Y165934D02*
Y165376D01*
X685184D01*
Y166213D01*
X685463D01*
Y165934D01*
D02*
G37*
G36*
X616550Y165376D02*
X616271D01*
Y166213D01*
X616550D01*
Y165376D01*
D02*
G37*
G36*
X676256Y165097D02*
X675977D01*
Y165376D01*
Y165655D01*
X676256D01*
Y165097D01*
D02*
G37*
G36*
X686579Y167050D02*
X686858D01*
Y166213D01*
X687137D01*
Y165655D01*
X687416D01*
Y165097D01*
X687695D01*
Y164260D01*
X687974D01*
Y163702D01*
X688253D01*
Y162865D01*
X688532D01*
Y162307D01*
X688811D01*
Y162028D01*
X689090D01*
Y161749D01*
X687416D01*
Y162028D01*
X687974D01*
Y162586D01*
X687695D01*
Y163423D01*
X687416D01*
Y164260D01*
X687137D01*
Y164539D01*
X685184D01*
Y164260D01*
X684905D01*
Y163981D01*
X684626D01*
Y164539D01*
X684905D01*
Y165376D01*
X685184D01*
Y164818D01*
X686858D01*
Y165655D01*
X686579D01*
Y166213D01*
X686300D01*
Y166771D01*
X686021D01*
Y167050D01*
X685742D01*
Y167329D01*
X686021D01*
Y167887D01*
X686579D01*
Y167050D01*
D02*
G37*
G36*
X617387Y167608D02*
X617666D01*
Y166771D01*
X617945D01*
Y166213D01*
X618224D01*
Y165376D01*
X618503D01*
Y164818D01*
X618782D01*
Y164260D01*
X619061D01*
Y163423D01*
X619340D01*
Y162865D01*
X619619D01*
Y162307D01*
X619898D01*
Y162028D01*
X620177D01*
Y161749D01*
X618503D01*
Y162028D01*
X619061D01*
Y162586D01*
X618782D01*
Y163423D01*
X618503D01*
Y163981D01*
X618224D01*
Y164539D01*
X615992D01*
Y163981D01*
X615713D01*
Y164818D01*
X615992D01*
Y165376D01*
X616271D01*
Y164818D01*
X617945D01*
Y165376D01*
X617666D01*
Y166213D01*
X617387D01*
Y166771D01*
X616829D01*
Y167329D01*
Y167608D01*
X617108D01*
Y167887D01*
X617387D01*
Y167608D01*
D02*
G37*
G36*
X682115Y167887D02*
X682394D01*
Y167608D01*
X682673D01*
Y167329D01*
X682952D01*
Y165097D01*
X682673D01*
Y164818D01*
X682394D01*
Y164539D01*
X681836D01*
Y164260D01*
X681278D01*
Y164539D01*
X681557D01*
Y164818D01*
X682115D01*
Y165097D01*
X682394D01*
Y165934D01*
X682673D01*
Y166492D01*
X682394D01*
Y167329D01*
X682115D01*
Y167608D01*
X681836D01*
Y167887D01*
X681557D01*
Y168166D01*
X682115D01*
Y167887D01*
D02*
G37*
G36*
X612923D02*
X613481D01*
Y167608D01*
X613760D01*
Y167329D01*
X614039D01*
Y166771D01*
Y166492D01*
Y165376D01*
X613760D01*
Y164818D01*
X613481D01*
Y164539D01*
X612923D01*
Y164260D01*
X612086D01*
Y164539D01*
X612644D01*
Y164818D01*
X613202D01*
Y165376D01*
X613481D01*
Y167050D01*
X613202D01*
Y167329D01*
X612923D01*
Y167608D01*
X612644D01*
Y167887D01*
X612365D01*
Y168166D01*
X612923D01*
Y167887D01*
D02*
G37*
G36*
X615713Y163423D02*
X615434D01*
Y163702D01*
Y163981D01*
X615713D01*
Y163423D01*
D02*
G37*
G36*
X684626Y163144D02*
X684347D01*
Y163702D01*
Y163981D01*
X684626D01*
Y163144D01*
D02*
G37*
G36*
X675977Y164539D02*
X675698D01*
Y163981D01*
X675419D01*
Y163423D01*
X675140D01*
Y163144D01*
X674861D01*
Y163702D01*
X675140D01*
Y164260D01*
X675419D01*
Y164818D01*
X675698D01*
Y165097D01*
X675977D01*
Y164539D01*
D02*
G37*
G36*
X665096Y162865D02*
X664817D01*
Y165655D01*
Y165934D01*
Y167329D01*
X664538D01*
Y167887D01*
X665096D01*
Y162865D01*
D02*
G37*
G36*
X642218Y167608D02*
X641939D01*
Y161749D01*
X641381D01*
Y162307D01*
X641102D01*
Y162586D01*
X640823D01*
Y162865D01*
X640544D01*
Y163144D01*
X640265D01*
Y163423D01*
X639986D01*
Y163702D01*
X639707D01*
Y163981D01*
X639428D01*
Y164260D01*
X639149D01*
Y164539D01*
X638870D01*
Y164818D01*
X638591D01*
Y165376D01*
X638312D01*
Y165655D01*
X638033D01*
Y165934D01*
X637754D01*
Y166213D01*
X637475D01*
Y166492D01*
X637196D01*
Y166771D01*
X636917D01*
Y167050D01*
X636638D01*
Y162307D01*
X636917D01*
Y162028D01*
X637196D01*
Y161749D01*
X635801D01*
Y162028D01*
X636080D01*
Y162307D01*
X636359D01*
Y167608D01*
X636080D01*
Y167887D01*
X637196D01*
Y167608D01*
X637475D01*
Y167050D01*
X637754D01*
Y166771D01*
X638033D01*
Y166492D01*
X638312D01*
Y166213D01*
X638591D01*
Y165934D01*
X638870D01*
Y165655D01*
X639149D01*
Y165376D01*
X639428D01*
Y165097D01*
X639707D01*
Y164818D01*
X639986D01*
Y164260D01*
X640265D01*
Y163981D01*
X640544D01*
Y163702D01*
X640823D01*
Y163423D01*
X641102D01*
Y163144D01*
X641381D01*
Y162865D01*
X641660D01*
Y167608D01*
X641381D01*
Y167887D01*
X642218D01*
Y167608D01*
D02*
G37*
G36*
X655889Y167887D02*
X656168D01*
Y167608D01*
X656726D01*
Y167329D01*
X657005D01*
Y166771D01*
X657284D01*
Y166492D01*
X657563D01*
Y165655D01*
X657842D01*
Y163981D01*
X657563D01*
Y163144D01*
X657284D01*
Y162865D01*
X657005D01*
Y162586D01*
X656726D01*
Y162307D01*
X656447D01*
Y162865D01*
X656726D01*
Y163144D01*
X657005D01*
Y163981D01*
X657284D01*
Y165376D01*
X657005D01*
Y166213D01*
X656726D01*
Y166771D01*
X656447D01*
Y167050D01*
X656168D01*
Y167329D01*
X655889D01*
Y167608D01*
X655610D01*
Y167887D01*
X655052D01*
Y168166D01*
X655889D01*
Y167887D01*
D02*
G37*
G36*
X632453D02*
X633011D01*
Y167608D01*
X633569D01*
Y167329D01*
X633848D01*
Y166771D01*
X634127D01*
Y166492D01*
X634406D01*
Y165655D01*
X634685D01*
Y163702D01*
X634406D01*
Y163144D01*
X634127D01*
Y162865D01*
X633848D01*
Y162307D01*
X633290D01*
Y162865D01*
X633569D01*
Y163144D01*
X633848D01*
Y164260D01*
X634127D01*
Y165376D01*
X633848D01*
Y165655D01*
Y166213D01*
X633569D01*
Y166771D01*
X633290D01*
Y167050D01*
X633011D01*
Y167329D01*
X632732D01*
Y167608D01*
X632453D01*
Y167887D01*
X632174D01*
Y168166D01*
X632453D01*
Y167887D01*
D02*
G37*
G36*
X706109D02*
X706667D01*
Y167608D01*
X706946D01*
Y167329D01*
X707225D01*
Y167050D01*
X707504D01*
Y166771D01*
X707783D01*
Y166213D01*
X708062D01*
Y163423D01*
X707783D01*
Y162865D01*
X707504D01*
Y162586D01*
X707225D01*
Y162307D01*
X706946D01*
Y162028D01*
X706388D01*
Y162307D01*
X706667D01*
Y162586D01*
X706946D01*
Y162865D01*
X707225D01*
Y163702D01*
X707504D01*
Y164818D01*
Y165097D01*
Y165934D01*
X707225D01*
Y166492D01*
X706946D01*
Y167050D01*
X706667D01*
Y167329D01*
X706388D01*
Y167608D01*
X706109D01*
Y167887D01*
X705551D01*
Y168166D01*
X706109D01*
Y167887D01*
D02*
G37*
G36*
X706388Y161749D02*
X705830D01*
Y162028D01*
X706388D01*
Y161749D01*
D02*
G37*
G36*
X699134Y167608D02*
X698855D01*
Y162307D01*
X699134D01*
Y162028D01*
X699413D01*
Y161749D01*
X697739D01*
Y162028D01*
X698297D01*
Y164539D01*
Y164818D01*
Y167887D01*
X699134D01*
Y167608D01*
D02*
G37*
G36*
X695228Y162307D02*
Y162028D01*
X694670D01*
Y161749D01*
X694112D01*
Y162028D01*
X694391D01*
Y162307D01*
X694670D01*
Y162586D01*
X695228D01*
Y162307D01*
D02*
G37*
G36*
X684347Y162028D02*
X684626D01*
Y161749D01*
X683231D01*
Y162028D01*
X683510D01*
Y162307D01*
X683789D01*
Y162586D01*
X684068D01*
Y163144D01*
X684347D01*
Y162028D01*
D02*
G37*
G36*
X680441Y167608D02*
X680162D01*
Y162586D01*
X680441D01*
Y162028D01*
X680720D01*
Y161749D01*
X679325D01*
Y162028D01*
X679604D01*
Y162307D01*
X679883D01*
Y166771D01*
X679604D01*
Y167608D01*
X679325D01*
Y167887D01*
X679604D01*
Y168166D01*
X680441D01*
Y167608D01*
D02*
G37*
G36*
X677930D02*
X677651D01*
Y167050D01*
X677372D01*
Y163144D01*
X677651D01*
Y162028D01*
X678209D01*
Y161749D01*
X676256D01*
Y162028D01*
X676814D01*
Y162307D01*
X677093D01*
Y162586D01*
Y162865D01*
Y166492D01*
X676814D01*
Y167329D01*
X677093D01*
Y167887D01*
X677930D01*
Y167608D01*
D02*
G37*
G36*
X671513Y167887D02*
X671792D01*
Y167608D01*
X672071D01*
Y166771D01*
X672350D01*
Y166492D01*
X672629D01*
Y165934D01*
X672908D01*
Y165376D01*
X673187D01*
Y164818D01*
X673466D01*
Y164260D01*
X673745D01*
Y163702D01*
X674024D01*
Y163144D01*
X674303D01*
Y162865D01*
X674582D01*
Y163144D01*
X674861D01*
Y162586D01*
X674582D01*
Y162028D01*
X674303D01*
Y161749D01*
X674024D01*
Y162307D01*
X673745D01*
Y162865D01*
X673466D01*
Y163423D01*
X673187D01*
Y163981D01*
X672908D01*
Y164539D01*
X672629D01*
Y165376D01*
X672350D01*
Y165934D01*
X672071D01*
Y166213D01*
X671792D01*
Y166492D01*
X671513D01*
Y167329D01*
X671234D01*
Y167608D01*
X670955D01*
Y167887D01*
X671234D01*
Y168166D01*
X671513D01*
Y167887D01*
D02*
G37*
G36*
Y163423D02*
Y163144D01*
Y162307D01*
X671792D01*
Y162028D01*
X672071D01*
Y161749D01*
X670397D01*
Y162028D01*
X670955D01*
Y162307D01*
X671234D01*
Y165655D01*
X671513D01*
Y163423D01*
D02*
G37*
G36*
X669281Y167608D02*
X669002D01*
Y162028D01*
X669560D01*
Y161749D01*
X667886D01*
Y162028D01*
X668444D01*
Y167608D01*
X668165D01*
Y167887D01*
X669281D01*
Y167608D01*
D02*
G37*
G36*
X660074D02*
X660353D01*
Y167329D01*
X660632D01*
Y167050D01*
X660911D01*
Y166771D01*
X661190D01*
Y166492D01*
X661469D01*
Y166213D01*
X661748D01*
Y165934D01*
X662027D01*
Y165655D01*
X662306D01*
Y165376D01*
X662585D01*
Y165097D01*
X662864D01*
Y164539D01*
X663143D01*
Y164260D01*
X663422D01*
Y163981D01*
X663701D01*
Y163702D01*
X663980D01*
Y163423D01*
X664259D01*
Y163144D01*
X664538D01*
Y162865D01*
X664817D01*
Y162028D01*
X665096D01*
Y161749D01*
X664538D01*
Y162028D01*
X664259D01*
Y162307D01*
X663980D01*
Y162865D01*
X663701D01*
Y163144D01*
X663422D01*
Y163423D01*
X663143D01*
Y163702D01*
X662864D01*
Y163981D01*
X662585D01*
Y164260D01*
X662306D01*
Y164539D01*
X662027D01*
Y164818D01*
X661748D01*
Y165376D01*
X661469D01*
Y165655D01*
X661190D01*
Y165934D01*
X660911D01*
Y166213D01*
X660632D01*
Y166492D01*
X660353D01*
Y166771D01*
X660074D01*
Y167050D01*
X659516D01*
Y167608D01*
X659237D01*
Y167887D01*
X660074D01*
Y167608D01*
D02*
G37*
G36*
X659795Y162307D02*
X660074D01*
Y162028D01*
X660353D01*
Y161749D01*
X658958D01*
Y162028D01*
X659237D01*
Y162307D01*
X659516D01*
Y162865D01*
Y163144D01*
Y166771D01*
X659795D01*
Y162307D01*
D02*
G37*
G36*
X656447Y162028D02*
X656168D01*
Y161749D01*
X655610D01*
Y162028D01*
X655889D01*
Y162307D01*
X656447D01*
Y162028D01*
D02*
G37*
G36*
X650309Y162307D02*
X650030D01*
Y162028D01*
X649751D01*
Y161749D01*
X649193D01*
Y162028D01*
X649472D01*
Y162307D01*
X649751D01*
Y162586D01*
X650030D01*
Y163144D01*
X650309D01*
Y162307D01*
D02*
G37*
G36*
X633290Y162028D02*
X633011D01*
Y161749D01*
X632453D01*
Y162028D01*
X632732D01*
Y162307D01*
X633290D01*
Y162028D01*
D02*
G37*
G36*
X626873Y167608D02*
X626594D01*
Y162028D01*
X627152D01*
Y161749D01*
X625757D01*
Y162028D01*
X626036D01*
Y167608D01*
X625757D01*
Y167887D01*
X626873D01*
Y167608D01*
D02*
G37*
G36*
X622130Y167329D02*
X621851D01*
Y166213D01*
X622130D01*
Y165655D01*
X622688D01*
Y165376D01*
X622967D01*
Y165097D01*
X623525D01*
Y164818D01*
X623804D01*
Y164539D01*
X624083D01*
Y164260D01*
X624362D01*
Y162307D01*
X624083D01*
Y162028D01*
X623804D01*
Y161749D01*
X623246D01*
Y162028D01*
X623525D01*
Y162307D01*
X623804D01*
Y163981D01*
X623525D01*
Y164260D01*
X622967D01*
Y164539D01*
X622688D01*
Y164818D01*
X622130D01*
Y165097D01*
X621851D01*
Y165376D01*
X621572D01*
Y165934D01*
X621293D01*
Y166213D01*
Y167050D01*
X621572D01*
Y167608D01*
X621851D01*
Y167887D01*
X622130D01*
Y167329D01*
D02*
G37*
G36*
X615434Y162586D02*
X615155D01*
Y162307D01*
X615434D01*
Y162028D01*
X615713D01*
Y161749D01*
X614039D01*
Y162028D01*
X614597D01*
Y162307D01*
X614876D01*
Y162865D01*
X615155D01*
Y163423D01*
X615434D01*
Y162586D01*
D02*
G37*
G36*
X611250Y162028D02*
X611807D01*
Y161749D01*
X610412D01*
Y162028D01*
X610691D01*
Y167608D01*
X610412D01*
Y168166D01*
X611250D01*
Y162028D01*
D02*
G37*
G36*
X703040Y166771D02*
X702761D01*
Y166213D01*
X702482D01*
Y163981D01*
X702761D01*
Y163144D01*
X703040D01*
Y162865D01*
X703319D01*
Y162586D01*
X703598D01*
Y162307D01*
X703877D01*
Y162028D01*
X704435D01*
Y161749D01*
X705830D01*
Y161470D01*
X704156D01*
Y161749D01*
X703598D01*
Y162028D01*
X703319D01*
Y162307D01*
X702761D01*
Y162586D01*
X702482D01*
Y163144D01*
X702203D01*
Y163702D01*
X701924D01*
Y163981D01*
Y164260D01*
Y166492D01*
X702203D01*
Y166771D01*
X702482D01*
Y167050D01*
X702761D01*
Y167329D01*
X703040D01*
Y166771D01*
D02*
G37*
G36*
X691322Y167329D02*
X691043D01*
Y167050D01*
X690764D01*
Y166492D01*
X690485D01*
Y165655D01*
X690206D01*
Y164539D01*
X690485D01*
Y163423D01*
X690764D01*
Y162865D01*
X691043D01*
Y162586D01*
X691322D01*
Y162307D01*
X691601D01*
Y162028D01*
X692159D01*
Y161749D01*
X693833D01*
Y161470D01*
X692159D01*
Y161749D01*
X691322D01*
Y162028D01*
X691043D01*
Y162307D01*
X690764D01*
Y162586D01*
X690485D01*
Y162865D01*
X690206D01*
Y163144D01*
X689927D01*
Y163981D01*
X689648D01*
Y165934D01*
X689927D01*
Y166492D01*
X690206D01*
Y166771D01*
X690485D01*
Y167329D01*
X690764D01*
Y167608D01*
X691322D01*
Y167329D01*
D02*
G37*
G36*
X653378Y167608D02*
X653099D01*
Y167329D01*
X652820D01*
Y167050D01*
X652541D01*
Y166771D01*
X652262D01*
Y165934D01*
X651983D01*
Y164260D01*
X652262D01*
Y163423D01*
X652541D01*
Y162865D01*
X652820D01*
Y162586D01*
X653099D01*
Y162307D01*
X653378D01*
Y162028D01*
X653936D01*
Y161749D01*
X655331D01*
Y161470D01*
X653936D01*
Y161749D01*
X653099D01*
Y162028D01*
X652820D01*
Y162307D01*
X652541D01*
Y162586D01*
X652262D01*
Y162865D01*
X651983D01*
Y163423D01*
X651704D01*
Y163981D01*
X651425D01*
Y165934D01*
X651704D01*
Y166771D01*
X651983D01*
Y167050D01*
X652262D01*
Y167329D01*
X652541D01*
Y167608D01*
X652820D01*
Y167887D01*
X653378D01*
Y167608D01*
D02*
G37*
G36*
X646682D02*
X646403D01*
Y167329D01*
X646124D01*
Y167050D01*
X645845D01*
Y166492D01*
X645566D01*
Y165934D01*
X645287D01*
Y163981D01*
X645566D01*
Y163423D01*
X645845D01*
Y162865D01*
X646124D01*
Y162586D01*
X646403D01*
Y162307D01*
X646682D01*
Y162028D01*
X647240D01*
Y161749D01*
X648914D01*
Y161470D01*
X647240D01*
Y161749D01*
X646403D01*
Y162028D01*
X645845D01*
Y162307D01*
X645566D01*
Y162586D01*
X645287D01*
Y163144D01*
X645008D01*
Y163702D01*
X644729D01*
Y165934D01*
X645008D01*
Y166492D01*
X645287D01*
Y167050D01*
X645566D01*
Y167329D01*
X645845D01*
Y167608D01*
X646124D01*
Y167887D01*
X646682D01*
Y167608D01*
D02*
G37*
G36*
X630221D02*
X629942D01*
Y167329D01*
X629663D01*
Y167050D01*
X629384D01*
Y166492D01*
X629105D01*
Y165655D01*
X628826D01*
Y164260D01*
X629105D01*
Y163423D01*
X629384D01*
Y162865D01*
X629663D01*
Y162586D01*
X629942D01*
Y162307D01*
X630221D01*
Y162028D01*
X630779D01*
Y161749D01*
X632174D01*
Y161470D01*
X630779D01*
Y161749D01*
X629942D01*
Y162028D01*
X629663D01*
Y162307D01*
X629384D01*
Y162586D01*
X629105D01*
Y162865D01*
X628826D01*
Y163423D01*
X628547D01*
Y163981D01*
X628268D01*
Y166213D01*
X628547D01*
Y166771D01*
X628826D01*
Y167050D01*
X629105D01*
Y167329D01*
X629384D01*
Y167608D01*
X629663D01*
Y167887D01*
X630221D01*
Y167608D01*
D02*
G37*
G36*
X621293Y162028D02*
X621851D01*
Y161749D01*
X623246D01*
Y161470D01*
X621572D01*
Y161749D01*
X621014D01*
Y162586D01*
X621293D01*
Y162028D01*
D02*
G37*
G36*
X663734Y150211D02*
X663480D01*
Y150225D01*
Y150253D01*
X663466Y150296D01*
X663452Y150366D01*
X663424Y150521D01*
X663382Y150733D01*
X663325Y150958D01*
X663241Y151198D01*
X663156Y151438D01*
X663043Y151649D01*
X663029Y151677D01*
X662987Y151734D01*
X662916Y151832D01*
X662818Y151959D01*
X662691Y152086D01*
X662536Y152227D01*
X662366Y152368D01*
X662155Y152495D01*
X662127Y152509D01*
X662056Y152551D01*
X661944Y152593D01*
X661789Y152664D01*
X661605Y152720D01*
X661408Y152763D01*
X661182Y152805D01*
X660957Y152819D01*
X660844D01*
X660717Y152791D01*
X660548Y152763D01*
X660365Y152706D01*
X660167Y152636D01*
X659984Y152523D01*
X659801Y152382D01*
X659787Y152368D01*
X659730Y152312D01*
X659660Y152213D01*
X659575Y152100D01*
X659491Y151959D01*
X659420Y151790D01*
X659364Y151607D01*
X659350Y151409D01*
Y151395D01*
Y151339D01*
X659364Y151268D01*
X659392Y151156D01*
X659420Y151043D01*
X659463Y150916D01*
X659533Y150789D01*
X659632Y150648D01*
X659660Y150620D01*
X659688Y150592D01*
X659716Y150564D01*
X659773Y150507D01*
X659843Y150451D01*
X659942Y150380D01*
X660041Y150296D01*
X660167Y150211D01*
X660308Y150098D01*
X660463Y150000D01*
X660647Y149873D01*
X660858Y149746D01*
X661084Y149605D01*
X661338Y149464D01*
X661619Y149309D01*
X661634Y149295D01*
X661676Y149281D01*
X661746Y149239D01*
X661831Y149196D01*
X661929Y149140D01*
X662042Y149069D01*
X662310Y148914D01*
X662606Y148745D01*
X662888Y148576D01*
X663142Y148407D01*
X663255Y148322D01*
X663353Y148252D01*
X663382Y148238D01*
X663438Y148181D01*
X663522Y148111D01*
X663621Y148012D01*
X663748Y147885D01*
X663861Y147730D01*
X663988Y147575D01*
X664086Y147392D01*
X664100Y147364D01*
X664129Y147307D01*
X664171Y147208D01*
X664213Y147082D01*
X664256Y146927D01*
X664298Y146743D01*
X664326Y146546D01*
X664340Y146349D01*
Y146334D01*
Y146306D01*
Y146250D01*
X664326Y146179D01*
X664312Y146081D01*
X664298Y145982D01*
X664241Y145742D01*
X664143Y145461D01*
X664086Y145319D01*
X664002Y145164D01*
X663903Y145009D01*
X663804Y144868D01*
X663678Y144713D01*
X663537Y144572D01*
X663522Y144558D01*
X663494Y144544D01*
X663452Y144502D01*
X663396Y144460D01*
X663311Y144403D01*
X663212Y144333D01*
X663100Y144262D01*
X662973Y144206D01*
X662832Y144135D01*
X662677Y144065D01*
X662324Y143938D01*
X661915Y143853D01*
X661704Y143839D01*
X661464Y143825D01*
X661323D01*
X661225Y143839D01*
X661112D01*
X660985Y143853D01*
X660717Y143896D01*
X660703D01*
X660675Y143910D01*
X660619D01*
X660534Y143938D01*
X660421Y143966D01*
X660266Y144009D01*
X660083Y144065D01*
X659857Y144135D01*
X659829Y144149D01*
X659759Y144164D01*
X659646Y144206D01*
X659519Y144248D01*
X659378Y144276D01*
X659237Y144319D01*
X659124Y144333D01*
X659040Y144347D01*
X659012D01*
X658941Y144333D01*
X658856Y144305D01*
X658772Y144234D01*
X658758Y144220D01*
X658744Y144192D01*
X658715Y144149D01*
X658701Y144093D01*
X658673Y144023D01*
X658645Y143938D01*
X658631Y143825D01*
X658377D01*
Y146941D01*
X658631D01*
Y146927D01*
X658645Y146898D01*
Y146842D01*
X658659Y146786D01*
X658673Y146701D01*
X658701Y146602D01*
X658758Y146391D01*
X658814Y146151D01*
X658899Y145898D01*
X658997Y145672D01*
X659096Y145461D01*
X659110Y145446D01*
X659152Y145376D01*
X659223Y145291D01*
X659322Y145178D01*
X659448Y145052D01*
X659604Y144925D01*
X659787Y144784D01*
X659998Y144657D01*
X660012D01*
X660026Y144643D01*
X660111Y144615D01*
X660224Y144558D01*
X660393Y144502D01*
X660590Y144445D01*
X660816Y144389D01*
X661056Y144361D01*
X661323Y144347D01*
X661408D01*
X661464Y144361D01*
X661619Y144375D01*
X661803Y144403D01*
X662014Y144460D01*
X662240Y144530D01*
X662451Y144643D01*
X662648Y144784D01*
X662677Y144798D01*
X662733Y144868D01*
X662804Y144953D01*
X662902Y145080D01*
X662987Y145235D01*
X663071Y145418D01*
X663128Y145616D01*
X663142Y145841D01*
Y145855D01*
Y145898D01*
X663128Y145968D01*
X663114Y146053D01*
X663100Y146151D01*
X663057Y146264D01*
X663015Y146391D01*
X662944Y146518D01*
X662930Y146532D01*
X662916Y146574D01*
X662860Y146645D01*
X662804Y146729D01*
X662733Y146828D01*
X662634Y146927D01*
X662522Y147039D01*
X662381Y147152D01*
X662366Y147166D01*
X662324Y147194D01*
X662240Y147251D01*
X662099Y147335D01*
X662014Y147392D01*
X661915Y147462D01*
X661789Y147533D01*
X661662Y147603D01*
X661507Y147688D01*
X661338Y147787D01*
X661154Y147899D01*
X660943Y148012D01*
X660929Y148026D01*
X660886Y148040D01*
X660830Y148068D01*
X660760Y148125D01*
X660661Y148181D01*
X660548Y148238D01*
X660294Y148393D01*
X660026Y148548D01*
X659744Y148731D01*
X659491Y148900D01*
X659378Y148985D01*
X659279Y149055D01*
X659251Y149069D01*
X659195Y149126D01*
X659110Y149210D01*
X658997Y149309D01*
X658885Y149436D01*
X658758Y149591D01*
X658631Y149746D01*
X658532Y149915D01*
X658518Y149943D01*
X658490Y150000D01*
X658448Y150098D01*
X658405Y150225D01*
X658363Y150366D01*
X658321Y150549D01*
X658292Y150733D01*
X658278Y150944D01*
Y150958D01*
Y150986D01*
Y151043D01*
X658292Y151113D01*
X658307Y151198D01*
X658321Y151297D01*
X658377Y151522D01*
X658462Y151790D01*
X658588Y152072D01*
X658673Y152213D01*
X658786Y152368D01*
X658899Y152495D01*
X659026Y152636D01*
X659040Y152650D01*
X659054Y152664D01*
X659096Y152706D01*
X659166Y152749D01*
X659237Y152805D01*
X659322Y152861D01*
X659434Y152932D01*
X659547Y153002D01*
X659829Y153129D01*
X660153Y153242D01*
X660520Y153327D01*
X660731Y153341D01*
X660943Y153355D01*
X661070D01*
X661211Y153341D01*
X661408Y153313D01*
X661634Y153270D01*
X661901Y153200D01*
X662183Y153115D01*
X662479Y152988D01*
X662493D01*
X662536Y152960D01*
X662606Y152946D01*
X662691Y152918D01*
X662860Y152861D01*
X662944Y152847D01*
X663015Y152833D01*
X663043D01*
X663114Y152847D01*
X663212Y152875D01*
X663297Y152932D01*
X663311Y152946D01*
X663339Y152974D01*
X663367Y153017D01*
X663396Y153073D01*
X663424Y153157D01*
X663452Y153242D01*
X663480Y153355D01*
X663734D01*
Y150211D01*
D02*
G37*
G36*
X641658Y150479D02*
X641404D01*
Y150493D01*
X641390Y150521D01*
X641362Y150578D01*
X641334Y150648D01*
X641306Y150747D01*
X641263Y150845D01*
X641151Y151071D01*
X641024Y151339D01*
X640869Y151607D01*
X640685Y151861D01*
X640488Y152086D01*
X640474Y152100D01*
X640446Y152114D01*
X640403Y152156D01*
X640347Y152213D01*
X640262Y152269D01*
X640164Y152340D01*
X640051Y152410D01*
X639924Y152481D01*
X639783Y152551D01*
X639614Y152622D01*
X639262Y152749D01*
X638853Y152847D01*
X638641Y152861D01*
X638402Y152875D01*
X638331D01*
X638232Y152861D01*
X638120D01*
X637979Y152833D01*
X637810Y152805D01*
X637626Y152763D01*
X637429Y152706D01*
X637217Y152636D01*
X636992Y152537D01*
X636781Y152424D01*
X636555Y152297D01*
X636343Y152128D01*
X636132Y151945D01*
X635949Y151734D01*
X635765Y151494D01*
X635751Y151480D01*
X635737Y151438D01*
X635695Y151381D01*
X635653Y151283D01*
X635596Y151170D01*
X635526Y151043D01*
X635455Y150888D01*
X635399Y150704D01*
X635328Y150521D01*
X635258Y150296D01*
X635187Y150070D01*
X635131Y149831D01*
X635089Y149577D01*
X635047Y149295D01*
X635033Y149013D01*
X635018Y148717D01*
Y148703D01*
Y148660D01*
Y148590D01*
X635033Y148491D01*
Y148378D01*
X635047Y148252D01*
X635061Y148097D01*
X635075Y147942D01*
X635145Y147575D01*
X635230Y147166D01*
X635343Y146757D01*
X635512Y146349D01*
Y146334D01*
X635540Y146306D01*
X635568Y146250D01*
X635610Y146179D01*
X635653Y146081D01*
X635709Y145982D01*
X635864Y145757D01*
X636062Y145489D01*
X636273Y145235D01*
X636541Y144981D01*
X636823Y144770D01*
X636837D01*
X636865Y144756D01*
X636907Y144727D01*
X636964Y144699D01*
X637034Y144657D01*
X637133Y144615D01*
X637344Y144530D01*
X637598Y144431D01*
X637880Y144361D01*
X638176Y144305D01*
X638500Y144276D01*
X638585D01*
X638684Y144290D01*
X638811D01*
X638965Y144305D01*
X639121Y144333D01*
X639473Y144403D01*
X639501D01*
X639558Y144431D01*
X639642Y144460D01*
X639769Y144502D01*
X639910Y144544D01*
X640065Y144615D01*
X640389Y144770D01*
Y147434D01*
Y147448D01*
Y147462D01*
Y147547D01*
Y147660D01*
X640375Y147801D01*
X640361Y147956D01*
X640347Y148097D01*
X640319Y148223D01*
X640276Y148322D01*
Y148336D01*
X640262Y148364D01*
X640206Y148449D01*
X640093Y148548D01*
X639952Y148646D01*
X639938D01*
X639910Y148660D01*
X639854Y148689D01*
X639783Y148703D01*
X639670Y148731D01*
X639543Y148745D01*
X639388Y148759D01*
X639191D01*
Y149013D01*
X642715D01*
Y148759D01*
X642462D01*
X642377Y148745D01*
X642264Y148717D01*
X642137Y148675D01*
X642025Y148604D01*
X641912Y148519D01*
X641827Y148407D01*
Y148393D01*
X641813Y148350D01*
X641785Y148294D01*
X641771Y148195D01*
X641743Y148054D01*
X641714Y147885D01*
X641700Y147688D01*
Y147434D01*
Y144629D01*
X641686D01*
X641672Y144615D01*
X641630Y144586D01*
X641573Y144558D01*
X641418Y144488D01*
X641221Y144389D01*
X640981Y144290D01*
X640728Y144192D01*
X640446Y144107D01*
X640164Y144023D01*
X640150D01*
X640136Y144009D01*
X640093D01*
X640037Y143994D01*
X639966Y143980D01*
X639882Y143966D01*
X639670Y143924D01*
X639431Y143882D01*
X639149Y143853D01*
X638839Y143839D01*
X638500Y143825D01*
X638387D01*
X638247Y143839D01*
X638063Y143853D01*
X637852Y143882D01*
X637598Y143910D01*
X637316Y143966D01*
X637006Y144037D01*
X636696Y144121D01*
X636372Y144234D01*
X636033Y144375D01*
X635695Y144544D01*
X635371Y144727D01*
X635061Y144953D01*
X634765Y145221D01*
X634497Y145517D01*
X634483Y145531D01*
X634454Y145573D01*
X634398Y145644D01*
X634342Y145742D01*
X634257Y145855D01*
X634173Y146010D01*
X634088Y146165D01*
X633989Y146363D01*
X633891Y146560D01*
X633806Y146786D01*
X633721Y147025D01*
X633637Y147279D01*
X633581Y147547D01*
X633524Y147843D01*
X633496Y148125D01*
X633482Y148435D01*
Y148449D01*
Y148491D01*
Y148548D01*
X633496Y148646D01*
Y148745D01*
X633510Y148872D01*
X633524Y149027D01*
X633552Y149182D01*
X633623Y149535D01*
X633721Y149929D01*
X633862Y150338D01*
X634046Y150747D01*
X634060Y150761D01*
X634074Y150803D01*
X634116Y150874D01*
X634173Y150958D01*
X634243Y151071D01*
X634328Y151198D01*
X634426Y151339D01*
X634539Y151494D01*
X634807Y151818D01*
X635131Y152156D01*
X635498Y152481D01*
X635709Y152622D01*
X635921Y152763D01*
X635935Y152777D01*
X635963Y152791D01*
X636019Y152819D01*
X636104Y152861D01*
X636188Y152904D01*
X636315Y152946D01*
X636442Y153002D01*
X636597Y153059D01*
X636752Y153115D01*
X636936Y153172D01*
X637330Y153256D01*
X637781Y153327D01*
X638275Y153355D01*
X638458D01*
X638585Y153341D01*
X638712D01*
X638867Y153327D01*
X639177Y153270D01*
X639191D01*
X639248Y153256D01*
X639346Y153228D01*
X639473Y153200D01*
X639642Y153143D01*
X639840Y153087D01*
X640065Y153017D01*
X640333Y152918D01*
X640347D01*
X640389Y152890D01*
X640460Y152875D01*
X640530Y152847D01*
X640699Y152805D01*
X640770Y152777D01*
X640854D01*
X640897Y152791D01*
X640967Y152819D01*
X641038Y152890D01*
X641052Y152918D01*
X641066Y152946D01*
X641094Y152988D01*
X641108Y153059D01*
X641136Y153129D01*
X641151Y153228D01*
X641165Y153355D01*
X641418D01*
X641658Y150479D01*
D02*
G37*
G36*
X652668Y152890D02*
X652245D01*
X652146Y152875D01*
X652019Y152847D01*
X651878Y152805D01*
X651737Y152734D01*
X651610Y152650D01*
X651512Y152537D01*
Y152523D01*
X651484Y152495D01*
X651470Y152424D01*
X651441Y152340D01*
X651413Y152213D01*
X651399Y152044D01*
X651371Y151832D01*
Y151565D01*
Y143896D01*
X651117D01*
X645126Y151212D01*
Y145616D01*
Y145601D01*
Y145573D01*
Y145531D01*
Y145475D01*
X645140Y145334D01*
X645154Y145164D01*
X645168Y144981D01*
X645196Y144812D01*
X645239Y144671D01*
X645267Y144600D01*
X645295Y144558D01*
X645309Y144544D01*
X645351Y144516D01*
X645408Y144474D01*
X645492Y144431D01*
X645605Y144375D01*
X645746Y144333D01*
X645915Y144305D01*
X646099Y144290D01*
X646423D01*
Y144037D01*
X643237D01*
Y144290D01*
X643646D01*
X643744Y144305D01*
X643871Y144333D01*
X644012Y144375D01*
X644153Y144431D01*
X644280Y144516D01*
X644379Y144629D01*
X644393Y144643D01*
X644407Y144671D01*
X644435Y144741D01*
X644463Y144826D01*
X644492Y144967D01*
X644506Y145136D01*
X644534Y145348D01*
Y145616D01*
Y151945D01*
X644520Y151959D01*
X644463Y152016D01*
X644393Y152100D01*
X644308Y152185D01*
X644097Y152382D01*
X643998Y152467D01*
X643914Y152537D01*
X643900Y152551D01*
X643871Y152565D01*
X643829Y152593D01*
X643773Y152636D01*
X643688Y152678D01*
X643575Y152720D01*
X643463Y152777D01*
X643322Y152819D01*
X643307D01*
X643279Y152833D01*
X643237Y152847D01*
X643180Y152861D01*
X643096D01*
X642997Y152875D01*
X642885Y152890D01*
X642744D01*
Y153143D01*
X645196D01*
X650779Y146334D01*
Y151565D01*
Y151579D01*
Y151607D01*
Y151649D01*
Y151691D01*
X650765Y151832D01*
X650751Y152001D01*
X650736Y152185D01*
X650694Y152354D01*
X650652Y152509D01*
X650610Y152565D01*
X650582Y152608D01*
X650567Y152622D01*
X650539Y152650D01*
X650469Y152692D01*
X650384Y152749D01*
X650271Y152805D01*
X650144Y152847D01*
X649975Y152875D01*
X649792Y152890D01*
X649482D01*
Y153143D01*
X652668D01*
Y152890D01*
D02*
G37*
G36*
X675237Y149943D02*
X675181D01*
X675124Y149929D01*
X675040Y149915D01*
X674885Y149873D01*
X674814Y149831D01*
X674758Y149788D01*
X674744Y149774D01*
X674715Y149746D01*
X674673Y149704D01*
X674617Y149633D01*
X674546Y149535D01*
X674476Y149422D01*
X674405Y149295D01*
X674335Y149126D01*
X672178Y143853D01*
X671896D01*
X669697Y149041D01*
Y149055D01*
X669669Y149097D01*
X669641Y149168D01*
X669612Y149239D01*
X669514Y149408D01*
X669471Y149478D01*
X669415Y149549D01*
Y149563D01*
X669387Y149577D01*
X669331Y149647D01*
X669218Y149732D01*
X669077Y149816D01*
X669048Y149831D01*
X669020Y149845D01*
X668978Y149859D01*
X668922Y149873D01*
X668837Y149901D01*
X668738Y149915D01*
X668626Y149943D01*
Y150183D01*
X671516D01*
Y149943D01*
X671234D01*
X671177Y149929D01*
X671050Y149887D01*
X670923Y149802D01*
X670909Y149774D01*
X670867Y149718D01*
X670811Y149605D01*
X670797Y149464D01*
Y149450D01*
Y149422D01*
X670811Y149379D01*
Y149309D01*
X670825Y149224D01*
X670853Y149140D01*
X670938Y148914D01*
X672361Y145517D01*
X673799Y149041D01*
Y149055D01*
X673827Y149097D01*
X673841Y149168D01*
X673870Y149253D01*
X673912Y149436D01*
X673940Y149520D01*
Y149605D01*
Y149619D01*
Y149661D01*
X673926Y149718D01*
X673898Y149760D01*
X673884Y149774D01*
X673841Y149816D01*
X673785Y149859D01*
X673700Y149901D01*
X673672Y149915D01*
X673644D01*
X673602Y149929D01*
X673531D01*
X673461Y149943D01*
X673235D01*
Y150183D01*
X675237D01*
Y149943D01*
D02*
G37*
G36*
X689052Y153313D02*
X689151Y153298D01*
X689264Y153284D01*
X689517Y153242D01*
X689813Y153157D01*
X690124Y153031D01*
X690279Y152946D01*
X690434Y152847D01*
X690589Y152734D01*
X690730Y152608D01*
X690744Y152593D01*
X690758Y152579D01*
X690800Y152537D01*
X690843Y152481D01*
X690969Y152340D01*
X691110Y152128D01*
X691237Y151889D01*
X691364Y151607D01*
X691449Y151283D01*
X691463Y151113D01*
X691477Y150930D01*
Y150916D01*
Y150902D01*
Y150860D01*
Y150817D01*
X691463Y150676D01*
X691435Y150493D01*
X691392Y150296D01*
X691336Y150056D01*
X691251Y149802D01*
X691139Y149549D01*
Y149535D01*
X691110Y149506D01*
X691082Y149436D01*
X691040Y149365D01*
X690984Y149267D01*
X690927Y149140D01*
X690843Y149013D01*
X690758Y148858D01*
X690645Y148689D01*
X690532Y148505D01*
X690250Y148125D01*
X690081Y147913D01*
X689912Y147702D01*
X689729Y147476D01*
X689517Y147251D01*
X689503Y147237D01*
X689447Y147166D01*
X689362Y147082D01*
X689249Y146955D01*
X689123Y146814D01*
X688968Y146659D01*
X688629Y146292D01*
X688277Y145912D01*
X688108Y145728D01*
X687939Y145559D01*
X687783Y145404D01*
X687643Y145263D01*
X687530Y145150D01*
X687445Y145066D01*
X690208D01*
X690363Y145080D01*
X690532D01*
X690687Y145094D01*
X690814Y145108D01*
X690828D01*
X690871Y145122D01*
X690927Y145136D01*
X690998Y145150D01*
X691167Y145221D01*
X691336Y145319D01*
X691350Y145334D01*
X691378Y145348D01*
X691421Y145390D01*
X691477Y145446D01*
X691547Y145517D01*
X691618Y145587D01*
X691759Y145799D01*
X692027D01*
X691378Y144037D01*
X686007D01*
Y144276D01*
X686035Y144305D01*
X686106Y144375D01*
X686233Y144488D01*
X686402Y144643D01*
X686585Y144826D01*
X686811Y145038D01*
X687065Y145277D01*
X687318Y145531D01*
X687600Y145813D01*
X687868Y146095D01*
X688432Y146687D01*
X688686Y146983D01*
X688939Y147265D01*
X689165Y147547D01*
X689362Y147815D01*
X689376Y147829D01*
X689405Y147871D01*
X689447Y147956D01*
X689517Y148040D01*
X689588Y148167D01*
X689672Y148308D01*
X689757Y148463D01*
X689856Y148646D01*
X690025Y149027D01*
X690180Y149450D01*
X690250Y149661D01*
X690293Y149873D01*
X690321Y150098D01*
X690335Y150310D01*
Y150324D01*
Y150352D01*
Y150394D01*
X690321Y150451D01*
X690307Y150620D01*
X690265Y150817D01*
X690208Y151043D01*
X690109Y151283D01*
X689983Y151508D01*
X689799Y151734D01*
X689771Y151762D01*
X689701Y151818D01*
X689588Y151917D01*
X689433Y152016D01*
X689249Y152114D01*
X689038Y152213D01*
X688784Y152269D01*
X688516Y152297D01*
X688404D01*
X688277Y152283D01*
X688108Y152255D01*
X687924Y152199D01*
X687727Y152128D01*
X687516Y152030D01*
X687304Y151903D01*
X687276Y151889D01*
X687220Y151832D01*
X687121Y151734D01*
X687008Y151607D01*
X686881Y151452D01*
X686740Y151254D01*
X686628Y151029D01*
X686515Y150761D01*
X686275D01*
Y150775D01*
X686289Y150817D01*
Y150874D01*
X686317Y150958D01*
X686331Y151071D01*
X686360Y151184D01*
X686444Y151452D01*
X686557Y151762D01*
X686698Y152072D01*
X686881Y152382D01*
X687121Y152650D01*
X687135Y152664D01*
X687149Y152678D01*
X687191Y152706D01*
X687248Y152763D01*
X687318Y152805D01*
X687403Y152861D01*
X687600Y152988D01*
X687854Y153115D01*
X688150Y153228D01*
X688488Y153298D01*
X688671Y153313D01*
X688869Y153327D01*
X688982D01*
X689052Y153313D01*
D02*
G37*
G36*
X678733D02*
X678832Y153298D01*
X678945Y153284D01*
X679198Y153242D01*
X679494Y153157D01*
X679805Y153031D01*
X679960Y152946D01*
X680115Y152847D01*
X680270Y152734D01*
X680411Y152608D01*
X680425Y152593D01*
X680439Y152579D01*
X680481Y152537D01*
X680524Y152481D01*
X680650Y152340D01*
X680791Y152128D01*
X680918Y151889D01*
X681045Y151607D01*
X681130Y151283D01*
X681144Y151113D01*
X681158Y150930D01*
Y150916D01*
Y150902D01*
Y150860D01*
Y150817D01*
X681144Y150676D01*
X681116Y150493D01*
X681073Y150296D01*
X681017Y150056D01*
X680932Y149802D01*
X680819Y149549D01*
Y149535D01*
X680791Y149506D01*
X680763Y149436D01*
X680721Y149365D01*
X680665Y149267D01*
X680608Y149140D01*
X680524Y149013D01*
X680439Y148858D01*
X680326Y148689D01*
X680213Y148505D01*
X679931Y148125D01*
X679762Y147913D01*
X679593Y147702D01*
X679410Y147476D01*
X679198Y147251D01*
X679184Y147237D01*
X679128Y147166D01*
X679043Y147082D01*
X678931Y146955D01*
X678804Y146814D01*
X678649Y146659D01*
X678310Y146292D01*
X677958Y145912D01*
X677789Y145728D01*
X677619Y145559D01*
X677464Y145404D01*
X677324Y145263D01*
X677211Y145150D01*
X677126Y145066D01*
X679889D01*
X680044Y145080D01*
X680213D01*
X680368Y145094D01*
X680495Y145108D01*
X680509D01*
X680552Y145122D01*
X680608Y145136D01*
X680678Y145150D01*
X680848Y145221D01*
X681017Y145319D01*
X681031Y145334D01*
X681059Y145348D01*
X681102Y145390D01*
X681158Y145446D01*
X681228Y145517D01*
X681299Y145587D01*
X681440Y145799D01*
X681708D01*
X681059Y144037D01*
X675688D01*
Y144276D01*
X675716Y144305D01*
X675787Y144375D01*
X675914Y144488D01*
X676083Y144643D01*
X676266Y144826D01*
X676492Y145038D01*
X676746Y145277D01*
X676999Y145531D01*
X677281Y145813D01*
X677549Y146095D01*
X678113Y146687D01*
X678367Y146983D01*
X678620Y147265D01*
X678846Y147547D01*
X679043Y147815D01*
X679057Y147829D01*
X679086Y147871D01*
X679128Y147956D01*
X679198Y148040D01*
X679269Y148167D01*
X679353Y148308D01*
X679438Y148463D01*
X679537Y148646D01*
X679706Y149027D01*
X679861Y149450D01*
X679931Y149661D01*
X679974Y149873D01*
X680002Y150098D01*
X680016Y150310D01*
Y150324D01*
Y150352D01*
Y150394D01*
X680002Y150451D01*
X679988Y150620D01*
X679946Y150817D01*
X679889Y151043D01*
X679790Y151283D01*
X679664Y151508D01*
X679480Y151734D01*
X679452Y151762D01*
X679382Y151818D01*
X679269Y151917D01*
X679114Y152016D01*
X678931Y152114D01*
X678719Y152213D01*
X678465Y152269D01*
X678197Y152297D01*
X678085D01*
X677958Y152283D01*
X677789Y152255D01*
X677605Y152199D01*
X677408Y152128D01*
X677197Y152030D01*
X676985Y151903D01*
X676957Y151889D01*
X676901Y151832D01*
X676802Y151734D01*
X676689Y151607D01*
X676562Y151452D01*
X676421Y151254D01*
X676309Y151029D01*
X676196Y150761D01*
X675956D01*
Y150775D01*
X675970Y150817D01*
Y150874D01*
X675998Y150958D01*
X676012Y151071D01*
X676041Y151184D01*
X676125Y151452D01*
X676238Y151762D01*
X676379Y152072D01*
X676562Y152382D01*
X676802Y152650D01*
X676816Y152664D01*
X676830Y152678D01*
X676872Y152706D01*
X676929Y152763D01*
X676999Y152805D01*
X677084Y152861D01*
X677281Y152988D01*
X677535Y153115D01*
X677831Y153228D01*
X678169Y153298D01*
X678353Y153313D01*
X678550Y153327D01*
X678663D01*
X678733Y153313D01*
D02*
G37*
G36*
X657080Y152890D02*
X656657D01*
X656559Y152875D01*
X656432Y152847D01*
X656305Y152805D01*
X656178Y152749D01*
X656051Y152664D01*
X655938Y152551D01*
Y152537D01*
X655910Y152509D01*
X655896Y152438D01*
X655868Y152340D01*
X655840Y152213D01*
X655811Y152030D01*
X655797Y151804D01*
X655783Y151536D01*
Y145644D01*
Y145630D01*
Y145616D01*
Y145531D01*
Y145418D01*
X655797Y145277D01*
Y145122D01*
X655826Y144967D01*
X655840Y144826D01*
X655868Y144727D01*
X655882Y144699D01*
X655924Y144629D01*
X656009Y144544D01*
X656065Y144488D01*
X656136Y144445D01*
X656150D01*
X656192Y144417D01*
X656248Y144403D01*
X656319Y144375D01*
X656418Y144347D01*
X656516Y144319D01*
X656629Y144305D01*
X656742Y144290D01*
X657080D01*
Y144037D01*
X653204D01*
Y144290D01*
X653612D01*
X653711Y144305D01*
X653824Y144333D01*
X653965Y144375D01*
X654092Y144431D01*
X654219Y144502D01*
X654331Y144615D01*
X654345Y144629D01*
X654359Y144657D01*
X654388Y144727D01*
X654416Y144826D01*
X654444Y144953D01*
X654472Y145136D01*
X654500Y145362D01*
Y145503D01*
Y145644D01*
Y151536D01*
Y151550D01*
Y151565D01*
Y151649D01*
Y151762D01*
X654486Y151903D01*
X654472Y152058D01*
X654458Y152199D01*
X654430Y152340D01*
X654402Y152438D01*
Y152453D01*
X654388Y152467D01*
X654345Y152537D01*
X654261Y152636D01*
X654204Y152678D01*
X654134Y152720D01*
X654120Y152734D01*
X654078Y152749D01*
X654021Y152777D01*
X653951Y152805D01*
X653852Y152833D01*
X653753Y152861D01*
X653641Y152890D01*
X653204D01*
Y153143D01*
X657080D01*
Y152890D01*
D02*
G37*
G36*
X632650D02*
X632227D01*
X632128Y152875D01*
X632002Y152847D01*
X631875Y152805D01*
X631748Y152749D01*
X631621Y152664D01*
X631508Y152551D01*
Y152537D01*
X631480Y152509D01*
X631466Y152438D01*
X631438Y152340D01*
X631409Y152213D01*
X631381Y152030D01*
X631367Y151804D01*
X631353Y151536D01*
Y145644D01*
Y145630D01*
Y145616D01*
Y145531D01*
Y145418D01*
X631367Y145277D01*
Y145122D01*
X631395Y144967D01*
X631409Y144826D01*
X631438Y144727D01*
X631452Y144699D01*
X631494Y144629D01*
X631579Y144544D01*
X631635Y144488D01*
X631706Y144445D01*
X631720D01*
X631762Y144417D01*
X631818Y144403D01*
X631889Y144375D01*
X631987Y144347D01*
X632086Y144319D01*
X632199Y144305D01*
X632312Y144290D01*
X632650D01*
Y144037D01*
X628773D01*
Y144290D01*
X629182D01*
X629281Y144305D01*
X629394Y144333D01*
X629535Y144375D01*
X629661Y144431D01*
X629788Y144502D01*
X629901Y144615D01*
X629915Y144629D01*
X629929Y144657D01*
X629958Y144727D01*
X629986Y144826D01*
X630014Y144953D01*
X630042Y145136D01*
X630070Y145362D01*
Y145503D01*
Y145644D01*
Y151536D01*
Y151550D01*
Y151565D01*
Y151649D01*
Y151762D01*
X630056Y151903D01*
X630042Y152058D01*
X630028Y152199D01*
X630000Y152340D01*
X629972Y152438D01*
Y152453D01*
X629958Y152467D01*
X629915Y152537D01*
X629831Y152636D01*
X629774Y152678D01*
X629704Y152720D01*
X629690Y152734D01*
X629647Y152749D01*
X629591Y152777D01*
X629520Y152805D01*
X629422Y152833D01*
X629323Y152861D01*
X629210Y152890D01*
X628773D01*
Y153143D01*
X632650D01*
Y152890D01*
D02*
G37*
G36*
X684104Y145334D02*
X684175Y145319D01*
X684259Y145291D01*
X684344Y145249D01*
X684428Y145193D01*
X684513Y145122D01*
X684527Y145108D01*
X684555Y145080D01*
X684583Y145038D01*
X684626Y144967D01*
X684710Y144812D01*
X684724Y144713D01*
X684738Y144600D01*
Y144586D01*
Y144544D01*
X684724Y144488D01*
X684710Y144417D01*
X684682Y144333D01*
X684640Y144248D01*
X684583Y144149D01*
X684513Y144065D01*
X684499Y144051D01*
X684471Y144037D01*
X684428Y143994D01*
X684358Y143966D01*
X684203Y143882D01*
X684104Y143868D01*
X683991Y143853D01*
X683935D01*
X683879Y143868D01*
X683808Y143882D01*
X683724Y143910D01*
X683639Y143938D01*
X683540Y143994D01*
X683456Y144065D01*
X683442Y144079D01*
X683428Y144107D01*
X683385Y144149D01*
X683357Y144220D01*
X683315Y144290D01*
X683272Y144389D01*
X683258Y144488D01*
X683244Y144600D01*
Y144615D01*
Y144657D01*
X683258Y144713D01*
X683272Y144784D01*
X683301Y144868D01*
X683329Y144953D01*
X683385Y145038D01*
X683456Y145122D01*
X683470Y145136D01*
X683498Y145164D01*
X683540Y145193D01*
X683611Y145235D01*
X683681Y145277D01*
X683780Y145319D01*
X683879Y145334D01*
X683991Y145348D01*
X684048D01*
X684104Y145334D01*
D02*
G37*
%LPC*%
G36*
X655515Y271284D02*
X653562D01*
Y270796D01*
X651121D01*
Y270308D01*
X648680D01*
Y269819D01*
X646728D01*
Y268843D01*
X646239D01*
Y266891D01*
X645751D01*
Y264450D01*
X645263D01*
Y262009D01*
X644775D01*
Y260056D01*
X647704D01*
Y259568D01*
X654050D01*
Y259080D01*
X656491D01*
Y262497D01*
X656003D01*
Y270308D01*
X655515D01*
Y271284D01*
D02*
G37*
G36*
X722291Y194671D02*
X722012D01*
Y193834D01*
X721733D01*
Y193276D01*
X721454D01*
Y192717D01*
X721175D01*
Y192439D01*
Y191880D01*
X720896D01*
Y191322D01*
X720617D01*
Y190485D01*
X720338D01*
Y189928D01*
X720059D01*
Y189090D01*
X719780D01*
Y188533D01*
X719501D01*
Y187696D01*
X719222D01*
Y186859D01*
X718943D01*
Y186301D01*
X718664D01*
Y185464D01*
X718385D01*
Y184905D01*
X720338D01*
Y184627D01*
X723686D01*
Y184905D01*
X725918D01*
Y185464D01*
X725639D01*
Y186301D01*
X725360D01*
Y186859D01*
X725081D01*
Y187696D01*
X724802D01*
Y188533D01*
X724523D01*
Y189370D01*
X724244D01*
Y189928D01*
X723965D01*
Y190765D01*
X723686D01*
Y191602D01*
X723407D01*
Y192160D01*
X723128D01*
Y192997D01*
X722849D01*
Y193554D01*
X722570D01*
Y194391D01*
X722291D01*
Y194671D01*
D02*
G37*
%LPD*%
D10*
X745816Y300030D02*
G03*
X745816Y300030I-2916J0D01*
G01*
X393310Y325120D02*
G03*
X393310Y325120I-1000J0D01*
G01*
X75090Y307590D02*
G03*
X75090Y307590I-1000J0D01*
G01*
X86830Y97510D02*
G03*
X86830Y97510I-1000J0D01*
G01*
X76360Y71370D02*
G03*
X76360Y71370I-1000J0D01*
G01*
X551340Y57010D02*
G03*
X551340Y57010I-1000J0D01*
G01*
X948010Y246690D02*
Y268690D01*
X926510Y246690D02*
Y268690D01*
Y213910D02*
Y235910D01*
X948010Y213910D02*
Y235910D01*
X760400Y150030D02*
X920400D01*
X760400Y310030D02*
X920400D01*
X600120Y323010D02*
Y345010D01*
X621620Y323010D02*
Y345010D01*
X746170Y323010D02*
Y345010D01*
X767670Y323010D02*
Y345010D01*
X718230Y323010D02*
Y345010D01*
X739730Y323010D02*
Y345010D01*
X870630Y323010D02*
Y345010D01*
X892130Y323010D02*
Y345010D01*
X624250Y323010D02*
Y345010D01*
X645750Y323010D02*
Y345010D01*
X843960Y323010D02*
Y345010D01*
X865460Y323010D02*
Y345010D01*
X100751Y305278D02*
Y332502D01*
X82129Y305278D02*
Y332502D01*
X128860Y307770D02*
Y329770D01*
X107360Y307770D02*
Y329770D01*
X451699Y235308D02*
Y262532D01*
X470321Y235308D02*
Y262532D01*
X504001Y230670D02*
Y275670D01*
X530101D02*
X531901D01*
X504001D02*
X505801D01*
X531901Y230670D02*
Y275670D01*
X530101Y230670D02*
X531901D01*
X504001D02*
X505801D01*
X201018Y373801D02*
X228242D01*
X201018Y355179D02*
X228242D01*
X201018Y391581D02*
X228242D01*
X201018Y372959D02*
X228242D01*
X525359Y298808D02*
Y326032D01*
X543981Y298808D02*
Y326032D01*
X433919Y17542D02*
Y44766D01*
X452541Y17542D02*
Y44766D01*
X307101Y293791D02*
X334326D01*
X307101Y275169D02*
X334326D01*
X97369Y9368D02*
Y36592D01*
X115991Y9368D02*
Y36592D01*
X67990Y352220D02*
Y374220D01*
X89490Y352220D02*
Y374220D01*
X432480Y172000D02*
Y194000D01*
X453980Y172000D02*
Y194000D01*
X82980Y67900D02*
X104980D01*
X82980Y46400D02*
X104980D01*
X82980Y93300D02*
X104980D01*
X82980Y71800D02*
X104980D01*
X70530Y11860D02*
Y33860D01*
X92030Y11860D02*
Y33860D01*
D11*
X156210Y345440D02*
G03*
X130810Y320040I0J-25400D01*
G01*
Y27940D02*
G03*
X156210Y2540I25400J0D01*
G01*
X359410D02*
G03*
X384810Y27940I0J25400D01*
G01*
Y320040D02*
G03*
X359410Y345440I-25400J0D01*
G01*
X102870Y395090D02*
G03*
X102870Y395090I-2540J0D01*
G01*
X876820Y89950D02*
Y113250D01*
X897670Y134100D02*
X920970D01*
X941820Y89950D02*
Y113250D01*
X897670Y69100D02*
X920970D01*
X576530Y342950D02*
Y345950D01*
X538530Y342950D02*
X576530D01*
X538530D02*
Y345950D01*
X576530Y390650D02*
Y393650D01*
X538530D02*
X576530D01*
X538530Y390650D02*
Y393650D01*
X824180Y342950D02*
Y345950D01*
X786180Y342950D02*
X824180D01*
X786180D02*
Y345950D01*
X824180Y390650D02*
Y393650D01*
X786180D02*
X824180D01*
X786180Y390650D02*
Y393650D01*
X699720Y342950D02*
Y345950D01*
X661720Y342950D02*
X699720D01*
X661720D02*
Y345950D01*
X699720Y390650D02*
Y393650D01*
X661720D02*
X699720D01*
X661720Y390650D02*
Y393650D01*
X391200Y5180D02*
Y208180D01*
X548200Y5180D02*
Y208180D01*
X419125Y5180D02*
X548200D01*
X419125Y208180D02*
X548200D01*
X130810Y27940D02*
Y320040D01*
X156210Y2540D02*
X359410D01*
X384810Y27940D02*
Y320040D01*
X156210Y345440D02*
X359410D01*
X29610Y334890D02*
X54210D01*
X29610Y302890D02*
X54210D01*
X265930Y277060D02*
Y289510D01*
X258630D02*
X265930D01*
Y109510D02*
Y121960D01*
X258630Y109510D02*
X265930D01*
X10930D02*
X78130D01*
X10930Y289510D02*
X78130D01*
X10930Y109510D02*
Y289510D01*
X30880Y98670D02*
X55480D01*
X30880Y66670D02*
X55480D01*
X561340Y16510D02*
Y98010D01*
X866140D01*
Y16510D02*
Y98010D01*
X561340Y16510D02*
X866140D01*
D12*
X519201Y220670D02*
G03*
X519201Y220670I-1250J0D01*
G01*
D13*
X299780Y160087D02*
G03*
X299780Y160087I-3810J0D01*
G01*
D14*
X411421Y406770D02*
X494820Y406770D01*
X417632Y288920D02*
X422060D01*
X484167D02*
X488610D01*
X411421Y383306D02*
Y406770D01*
Y324296D02*
Y359234D01*
Y313004D02*
Y313285D01*
X494820Y383304D02*
Y402980D01*
Y324252D02*
Y359236D01*
Y313004D02*
Y313242D01*
X829314Y292097D02*
Y279402D01*
X831853Y276863D01*
X836932D01*
X839471Y279402D01*
Y292097D01*
X852167Y276863D02*
Y292097D01*
X844549Y284480D01*
X854706D01*
X606642Y389888D02*
Y379732D01*
X613413D01*
X623570Y389888D02*
X616799D01*
Y379732D01*
X623570D01*
X616799Y384810D02*
X620184D01*
X626956Y389888D02*
Y379732D01*
X632034D01*
X633727Y381424D01*
Y388196D01*
X632034Y389888D01*
X626956D01*
X637112Y379732D02*
X640498D01*
X638805D01*
Y389888D01*
X637112Y388196D01*
X846249Y392428D02*
Y382272D01*
X853020D01*
X863177Y392428D02*
X856406D01*
Y382272D01*
X863177D01*
X856406Y387350D02*
X859792D01*
X866563Y392428D02*
Y382272D01*
X871641D01*
X873334Y383964D01*
Y390736D01*
X871641Y392428D01*
X866563D01*
X876720Y390736D02*
X878412Y392428D01*
X881798D01*
X883491Y390736D01*
Y389043D01*
X881798Y387350D01*
X880105D01*
X881798D01*
X883491Y385657D01*
Y383964D01*
X881798Y382272D01*
X878412D01*
X876720Y383964D01*
X726247Y390772D02*
Y380615D01*
X733018D01*
X743175Y390772D02*
X736404D01*
Y380615D01*
X743175D01*
X736404Y385693D02*
X739790D01*
X746561Y390772D02*
Y380615D01*
X751639D01*
X753332Y382308D01*
Y389079D01*
X751639Y390772D01*
X746561D01*
X763488Y380615D02*
X756717D01*
X763488Y387386D01*
Y389079D01*
X761796Y390772D01*
X758410D01*
X756717Y389079D01*
X427993Y95256D02*
X440688D01*
X443228Y97795D01*
Y102874D01*
X440688Y105413D01*
X427993D01*
X443228Y110491D02*
Y115570D01*
Y113030D01*
X427993D01*
X430532Y110491D01*
Y123187D02*
X427993Y125726D01*
Y130805D01*
X430532Y133344D01*
X440688D01*
X443228Y130805D01*
Y125726D01*
X440688Y123187D01*
X430532D01*
X270506Y296972D02*
Y309668D01*
X267967Y312208D01*
X262888D01*
X260349Y309668D01*
Y296972D01*
X255271Y309668D02*
X252732Y312208D01*
X247653D01*
X245114Y309668D01*
Y299512D01*
X247653Y296972D01*
X252732D01*
X255271Y299512D01*
Y302051D01*
X252732Y304590D01*
X245114D01*
X45718Y179078D02*
X30482D01*
X35561Y184157D01*
X30482Y189235D01*
X45718D01*
X33022Y204470D02*
X30482Y201931D01*
Y196852D01*
X33022Y194313D01*
X43178D01*
X45718Y196852D01*
Y201931D01*
X43178Y204470D01*
X30482Y209548D02*
X43178D01*
X45718Y212088D01*
Y217166D01*
X43178Y219705D01*
X30482D01*
X45718Y224783D02*
Y229862D01*
Y227323D01*
X30482D01*
X33022Y224783D01*
D15*
X782331Y6400D02*
X780638D01*
Y11478D01*
X782331D01*
X788256Y10632D02*
X787410Y11478D01*
X785717D01*
X784870Y10632D01*
Y7246D01*
X785717Y6400D01*
X787410D01*
X788256Y7246D01*
X789949Y11478D02*
Y6400D01*
Y8939D01*
X793334D01*
Y11478D01*
Y6400D01*
X798413D02*
X795027D01*
X798413Y9785D01*
Y10632D01*
X797566Y11478D01*
X795873D01*
X795027Y10632D01*
X800105Y8939D02*
X803491D01*
X801798Y10632D02*
Y7246D01*
X833961Y10632D02*
X833115Y11478D01*
X831422D01*
X830575Y10632D01*
Y7246D01*
X831422Y6400D01*
X833115D01*
X833961Y7246D01*
X835654Y11478D02*
Y6400D01*
Y8939D01*
X839039D01*
Y11478D01*
Y6400D01*
X844118D02*
X840732D01*
X844118Y9785D01*
Y10632D01*
X843271Y11478D01*
X841579D01*
X840732Y10632D01*
X845810Y8939D02*
X849196D01*
X850889Y6400D02*
X852582D01*
Y11478D01*
X850889D01*
X681578Y6400D02*
X679885D01*
Y11478D01*
X681578D01*
X687502Y10632D02*
X686656Y11478D01*
X684963D01*
X684117Y10632D01*
Y7246D01*
X684963Y6400D01*
X686656D01*
X687502Y7246D01*
X689195Y11478D02*
Y6400D01*
Y8939D01*
X692581D01*
Y11478D01*
Y6400D01*
X694273D02*
X695966D01*
X695120D01*
Y11478D01*
X694273Y10632D01*
X698505Y8939D02*
X701891D01*
X700198Y10632D02*
Y7246D01*
X732361Y10632D02*
X731515Y11478D01*
X729822D01*
X728976Y10632D01*
Y7246D01*
X729822Y6400D01*
X731515D01*
X732361Y7246D01*
X734054Y11478D02*
Y6400D01*
Y8939D01*
X737439D01*
Y11478D01*
Y6400D01*
X739132D02*
X740825D01*
X739979D01*
Y11478D01*
X739132Y10632D01*
X743364Y8939D02*
X746750D01*
X748443Y6400D02*
X750135D01*
Y11478D01*
X748443D01*
X576591Y6400D02*
X574898D01*
Y11478D01*
X576591D01*
X579130D02*
Y8093D01*
X580823Y6400D01*
X582516Y8093D01*
Y11478D01*
X584209D02*
Y6400D01*
X586748D01*
X587594Y7246D01*
Y8093D01*
X586748Y8939D01*
X584209D01*
X586748D01*
X587594Y9785D01*
Y10632D01*
X586748Y11478D01*
X584209D01*
X589287Y6400D02*
Y9785D01*
X590980Y11478D01*
X592673Y9785D01*
Y6400D01*
Y8939D01*
X589287D01*
X594365Y11478D02*
X597751D01*
X596058D01*
Y6400D01*
X599444Y8939D02*
X602829D01*
X601137Y10632D02*
Y7246D01*
X619757Y11478D02*
Y8093D01*
X621450Y6400D01*
X623143Y8093D01*
Y11478D01*
X624836D02*
Y6400D01*
X627375D01*
X628221Y7246D01*
Y8093D01*
X627375Y8939D01*
X624836D01*
X627375D01*
X628221Y9785D01*
Y10632D01*
X627375Y11478D01*
X624836D01*
X629914Y6400D02*
Y9785D01*
X631607Y11478D01*
X633299Y9785D01*
Y6400D01*
Y8939D01*
X629914D01*
X634992Y11478D02*
X638378D01*
X636685D01*
Y6400D01*
X640070Y8939D02*
X643456D01*
X645149Y6400D02*
X646842D01*
Y11478D01*
X645149D01*
X881000Y59561D02*
X877699D01*
X879349D01*
Y51309D01*
X877699Y49659D01*
X876048D01*
X874398Y51309D01*
X890902Y49659D02*
X884301D01*
X890902Y56260D01*
Y57911D01*
X889252Y59561D01*
X885951D01*
X884301Y57911D01*
X934344Y279676D02*
X933511Y280509D01*
X931845D01*
X931012Y279676D01*
Y276344D01*
X931845Y275511D01*
X933511D01*
X934344Y276344D01*
X936010Y275511D02*
X937676D01*
X936843D01*
Y280509D01*
X936010Y279676D01*
X943508Y280509D02*
X940176D01*
Y278010D01*
X941842Y278843D01*
X942675D01*
X943508Y278010D01*
Y276344D01*
X942675Y275511D01*
X941009D01*
X940176Y276344D01*
X933074Y209431D02*
X932241Y210264D01*
X930575D01*
X929742Y209431D01*
Y206099D01*
X930575Y205266D01*
X932241D01*
X933074Y206099D01*
X934740Y205266D02*
X936406D01*
X935574D01*
Y210264D01*
X934740Y209431D01*
X941405Y205266D02*
Y210264D01*
X938906Y207765D01*
X942238D01*
X607538Y356471D02*
X606705Y357304D01*
X605039D01*
X604206Y356471D01*
Y353139D01*
X605039Y352306D01*
X606705D01*
X607538Y353139D01*
X612536Y352306D02*
X609204D01*
X612536Y355638D01*
Y356471D01*
X611703Y357304D01*
X610037D01*
X609204Y356471D01*
X616701Y352306D02*
Y357304D01*
X614202Y354805D01*
X617534D01*
X754858Y356471D02*
X754025Y357304D01*
X752359D01*
X751525Y356471D01*
Y353139D01*
X752359Y352306D01*
X754025D01*
X754858Y353139D01*
X759856Y352306D02*
X756524D01*
X759856Y355638D01*
Y356471D01*
X759023Y357304D01*
X757357D01*
X756524Y356471D01*
X764855Y357304D02*
X763188Y356471D01*
X761522Y354805D01*
Y353139D01*
X762355Y352306D01*
X764021D01*
X764855Y353139D01*
Y353972D01*
X764021Y354805D01*
X761522D01*
X726918Y356471D02*
X726085Y357304D01*
X724419D01*
X723586Y356471D01*
Y353139D01*
X724419Y352306D01*
X726085D01*
X726918Y353139D01*
X731916Y352306D02*
X728584D01*
X731916Y355638D01*
Y356471D01*
X731083Y357304D01*
X729417D01*
X728584Y356471D01*
X736915Y357304D02*
X733582D01*
Y354805D01*
X735248Y355638D01*
X736081D01*
X736915Y354805D01*
Y353139D01*
X736081Y352306D01*
X734415D01*
X733582Y353139D01*
X878048Y357741D02*
X877215Y358574D01*
X875549D01*
X874715Y357741D01*
Y354409D01*
X875549Y353576D01*
X877215D01*
X878048Y354409D01*
X883046Y353576D02*
X879714D01*
X883046Y356908D01*
Y357741D01*
X882213Y358574D01*
X880547D01*
X879714Y357741D01*
X884712D02*
X885545Y358574D01*
X887211D01*
X888045Y357741D01*
Y356908D01*
X887211Y356075D01*
X886378D01*
X887211D01*
X888045Y355242D01*
Y354409D01*
X887211Y353576D01*
X885545D01*
X884712Y354409D01*
X632501Y356471D02*
X631668Y357304D01*
X630002D01*
X629169Y356471D01*
Y353139D01*
X630002Y352306D01*
X631668D01*
X632501Y353139D01*
X637499Y352306D02*
X634167D01*
X637499Y355638D01*
Y356471D01*
X636666Y357304D01*
X635000D01*
X634167Y356471D01*
X639165Y352306D02*
X640831D01*
X639998D01*
Y357304D01*
X639165Y356471D01*
X851378Y357741D02*
X850545Y358574D01*
X848879D01*
X848046Y357741D01*
Y354409D01*
X848879Y353576D01*
X850545D01*
X851378Y354409D01*
X856376Y353576D02*
X853044D01*
X856376Y356908D01*
Y357741D01*
X855543Y358574D01*
X853877D01*
X853044Y357741D01*
X861375Y353576D02*
X858042D01*
X861375Y356908D01*
Y357741D01*
X860541Y358574D01*
X858875D01*
X858042Y357741D01*
X38995Y81400D02*
X37345Y79749D01*
Y76449D01*
X38995Y74798D01*
X40645D01*
X42296Y76449D01*
Y79749D01*
X43946Y81400D01*
X45597D01*
X47247Y79749D01*
Y76449D01*
X45597Y74798D01*
X47247Y84701D02*
Y88002D01*
Y86351D01*
X37345D01*
X38995Y84701D01*
X113965Y372189D02*
Y368024D01*
X114798Y367191D01*
X116464D01*
X117297Y368024D01*
Y372189D01*
X118963Y367191D02*
X120630D01*
X119796D01*
Y372189D01*
X118963Y371356D01*
X123129Y367191D02*
X124795D01*
X123962D01*
Y372189D01*
X123129Y371356D01*
X37339Y317239D02*
X35689Y315589D01*
Y312288D01*
X37339Y310638D01*
X38990D01*
X40640Y312288D01*
Y315589D01*
X42290Y317239D01*
X43941D01*
X45591Y315589D01*
Y312288D01*
X43941Y310638D01*
X45591Y327142D02*
Y320541D01*
X38990Y327142D01*
X37339D01*
X35689Y325492D01*
Y322191D01*
X37339Y320541D01*
X515661Y319084D02*
X520659D01*
Y316585D01*
X519826Y315752D01*
X518160D01*
X517327Y316585D01*
Y319084D01*
Y317418D02*
X515661Y315752D01*
Y310754D02*
Y314086D01*
X518993Y310754D01*
X519826D01*
X520659Y311587D01*
Y313253D01*
X519826Y314086D01*
X516494Y309088D02*
X515661Y308255D01*
Y306588D01*
X516494Y305756D01*
X519826D01*
X520659Y306588D01*
Y308255D01*
X519826Y309088D01*
X518993D01*
X518160Y308255D01*
Y305756D01*
X458511Y38414D02*
X463509D01*
Y35915D01*
X462676Y35082D01*
X461010D01*
X460177Y35915D01*
Y38414D01*
Y36748D02*
X458511Y35082D01*
Y30084D02*
Y33416D01*
X461843Y30084D01*
X462676D01*
X463509Y30917D01*
Y32583D01*
X462676Y33416D01*
X458511Y25085D02*
Y28418D01*
X461843Y25085D01*
X462676D01*
X463509Y25919D01*
Y27585D01*
X462676Y28418D01*
X236857Y388101D02*
X241855D01*
Y385602D01*
X241022Y384769D01*
X239356D01*
X238523Y385602D01*
Y388101D01*
Y386435D02*
X236857Y384769D01*
Y379771D02*
Y383103D01*
X240189Y379771D01*
X241022D01*
X241855Y380604D01*
Y382270D01*
X241022Y383103D01*
X236857Y378105D02*
Y376438D01*
Y377272D01*
X241855D01*
X241022Y378105D01*
X236857Y370738D02*
X241855D01*
Y368239D01*
X241022Y367406D01*
X239356D01*
X238523Y368239D01*
Y370738D01*
Y369072D02*
X236857Y367406D01*
Y365740D02*
Y364073D01*
Y364907D01*
X241855D01*
X241022Y365740D01*
Y361574D02*
X241855Y360741D01*
Y359075D01*
X241022Y358242D01*
X237690D01*
X236857Y359075D01*
Y360741D01*
X237690Y361574D01*
X241022D01*
X297895Y288645D02*
X302893D01*
Y286146D01*
X302060Y285313D01*
X300394D01*
X299561Y286146D01*
Y288645D01*
Y286979D02*
X297895Y285313D01*
X298728Y283647D02*
X297895Y282814D01*
Y281148D01*
X298728Y280315D01*
X302060D01*
X302893Y281148D01*
Y282814D01*
X302060Y283647D01*
X301227D01*
X300394Y282814D01*
Y280315D01*
X87275Y340521D02*
Y345519D01*
X89774D01*
X90607Y344686D01*
Y343020D01*
X89774Y342187D01*
X87275D01*
X88941D02*
X90607Y340521D01*
X92273Y344686D02*
X93106Y345519D01*
X94772D01*
X95605Y344686D01*
Y343853D01*
X94772Y343020D01*
X95605Y342187D01*
Y341354D01*
X94772Y340521D01*
X93106D01*
X92273Y341354D01*
Y342187D01*
X93106Y343020D01*
X92273Y343853D01*
Y344686D01*
X93106Y343020D02*
X94772D01*
X464342Y231099D02*
Y226101D01*
X461843D01*
X461010Y226934D01*
Y228600D01*
X461843Y229433D01*
X464342D01*
X462676D02*
X461010Y231099D01*
X459344D02*
X457678D01*
X458511D01*
Y226101D01*
X459344Y226934D01*
X873508Y17769D02*
Y27671D01*
X878459D01*
X880110Y26021D01*
Y22720D01*
X878459Y21070D01*
X873508D01*
X883411Y17769D02*
X886712D01*
X885061D01*
Y27671D01*
X883411Y26021D01*
X507561Y353880D02*
Y355546D01*
Y354714D01*
X503395D01*
X502562Y355546D01*
Y356380D01*
X503395Y357213D01*
X502562Y352214D02*
Y350548D01*
Y351381D01*
X507561D01*
X506728Y352214D01*
X532922Y217211D02*
Y222209D01*
X530423D01*
X529590Y221376D01*
Y218044D01*
X530423Y217211D01*
X532922D01*
X527924Y222209D02*
X526258D01*
X527091D01*
Y217211D01*
X527924Y218044D01*
X75824Y385206D02*
X74991Y386039D01*
X73325D01*
X72492Y385206D01*
Y381874D01*
X73325Y381041D01*
X74991D01*
X75824Y381874D01*
X77490Y381041D02*
X79156D01*
X78323D01*
Y386039D01*
X77490Y385206D01*
X81656D02*
X82489Y386039D01*
X84155D01*
X84988Y385206D01*
Y384373D01*
X84155Y383540D01*
X84988Y382707D01*
Y381874D01*
X84155Y381041D01*
X82489D01*
X81656Y381874D01*
Y382707D01*
X82489Y383540D01*
X81656Y384373D01*
Y385206D01*
X82489Y383540D02*
X84155D01*
X462676Y185796D02*
X463509Y186629D01*
Y188295D01*
X462676Y189128D01*
X459344D01*
X458511Y188295D01*
Y186629D01*
X459344Y185796D01*
X458511Y184130D02*
Y182463D01*
Y183297D01*
X463509D01*
X462676Y184130D01*
X463509Y179964D02*
Y176632D01*
X462676D01*
X459344Y179964D01*
X458511D01*
X115194Y339486D02*
X114361Y340319D01*
X112695D01*
X111862Y339486D01*
Y336154D01*
X112695Y335321D01*
X114361D01*
X115194Y336154D01*
X116860Y335321D02*
X118526D01*
X117694D01*
Y340319D01*
X116860Y339486D01*
X121026D02*
X121859Y340319D01*
X123525D01*
X124358Y339486D01*
Y338653D01*
X123525Y337820D01*
X122692D01*
X123525D01*
X124358Y336987D01*
Y336154D01*
X123525Y335321D01*
X121859D01*
X121026Y336154D01*
D16*
X705612Y85849D02*
Y78231D01*
Y82040D01*
X710690D01*
Y85849D01*
Y78231D01*
X717038D02*
X714499D01*
X713230Y79501D01*
Y82040D01*
X714499Y83309D01*
X717038D01*
X718308Y82040D01*
Y80770D01*
X713230D01*
X720847Y83309D02*
Y78231D01*
Y80770D01*
X722117Y82040D01*
X723386Y83309D01*
X724656D01*
X732273Y78231D02*
X729734D01*
X728465Y79501D01*
Y82040D01*
X729734Y83309D01*
X732273D01*
X733543Y82040D01*
Y80770D01*
X728465D01*
X743700Y85849D02*
Y78231D01*
X747508D01*
X748778Y79501D01*
Y80770D01*
Y82040D01*
X747508Y83309D01*
X743700D01*
X755126Y78231D02*
X752587D01*
X751317Y79501D01*
Y82040D01*
X752587Y83309D01*
X755126D01*
X756396Y82040D01*
Y80770D01*
X751317D01*
X771631Y85849D02*
Y78231D01*
X767822D01*
X766552Y79501D01*
Y82040D01*
X767822Y83309D01*
X771631D01*
X774170D02*
Y78231D01*
Y80770D01*
X775439Y82040D01*
X776709Y83309D01*
X777979D01*
X783057D02*
X785596D01*
X786866Y82040D01*
Y78231D01*
X783057D01*
X781787Y79501D01*
X783057Y80770D01*
X786866D01*
X791944Y75692D02*
X793214D01*
X794483Y76962D01*
Y83309D01*
X790675D01*
X789405Y82040D01*
Y79501D01*
X790675Y78231D01*
X794483D01*
X798292D02*
X800831D01*
X802101Y79501D01*
Y82040D01*
X800831Y83309D01*
X798292D01*
X797022Y82040D01*
Y79501D01*
X798292Y78231D01*
X804640D02*
Y83309D01*
X808449D01*
X809718Y82040D01*
Y78231D01*
X812258D02*
X816066D01*
X817336Y79501D01*
X816066Y80770D01*
X813527D01*
X812258Y82040D01*
X813527Y83309D01*
X817336D01*
X795782Y238391D02*
X798321D01*
X797052D01*
Y230773D01*
X795782D01*
X798321D01*
X803400D02*
Y237121D01*
Y234582D01*
X802130D01*
X804669D01*
X803400D01*
Y237121D01*
X804669Y238391D01*
X816095Y235851D02*
Y232043D01*
X817365Y230773D01*
X821174D01*
Y229503D01*
X819904Y228234D01*
X818635D01*
X821174Y230773D02*
Y235851D01*
X824983Y230773D02*
X827522D01*
X828791Y232043D01*
Y234582D01*
X827522Y235851D01*
X824983D01*
X823713Y234582D01*
Y232043D01*
X824983Y230773D01*
X831330Y235851D02*
Y232043D01*
X832600Y230773D01*
X836409D01*
Y235851D01*
X851644D02*
X847835D01*
X846566Y234582D01*
Y232043D01*
X847835Y230773D01*
X851644D01*
X855453Y235851D02*
X857992D01*
X859261Y234582D01*
Y230773D01*
X855453D01*
X854183Y232043D01*
X855453Y233312D01*
X859261D01*
X861801Y230773D02*
Y235851D01*
X865609D01*
X866879Y234582D01*
Y230773D01*
X795782Y214216D02*
X799591D01*
X800860Y215486D01*
X799591Y216755D01*
X797052D01*
X795782Y218025D01*
X797052Y219294D01*
X800860D01*
X807208Y214216D02*
X804669D01*
X803400Y215486D01*
Y218025D01*
X804669Y219294D01*
X807208D01*
X808478Y218025D01*
Y216755D01*
X803400D01*
X814826Y214216D02*
X812287D01*
X811017Y215486D01*
Y218025D01*
X812287Y219294D01*
X814826D01*
X816095Y218025D01*
Y216755D01*
X811017D01*
X827522Y220564D02*
Y219294D01*
X826252D01*
X828791D01*
X827522D01*
Y215486D01*
X828791Y214216D01*
X832600Y221834D02*
Y214216D01*
Y218025D01*
X833870Y219294D01*
X836409D01*
X837678Y218025D01*
Y214216D01*
X840218D02*
X842757D01*
X841487D01*
Y219294D01*
X840218D01*
X846566Y214216D02*
X850374D01*
X851644Y215486D01*
X850374Y216755D01*
X847835D01*
X846566Y218025D01*
X847835Y219294D01*
X851644D01*
X855453Y212946D02*
X856722Y214216D01*
Y215486D01*
X855453D01*
Y214216D01*
X856722D01*
X855453Y212946D01*
X854183Y211677D01*
X869418Y219294D02*
Y215486D01*
X870688Y214216D01*
X874497D01*
Y212946D01*
X873227Y211677D01*
X871957D01*
X874497Y214216D02*
Y219294D01*
X878305Y214216D02*
X880844D01*
X882114Y215486D01*
Y218025D01*
X880844Y219294D01*
X878305D01*
X877036Y218025D01*
Y215486D01*
X878305Y214216D01*
X884653Y219294D02*
Y215486D01*
X885923Y214216D01*
X889732D01*
Y219294D01*
X795782Y205277D02*
Y197659D01*
Y201468D01*
X797052Y202737D01*
X799591D01*
X800860Y201468D01*
Y197659D01*
X804669Y202737D02*
X807208D01*
X808478Y201468D01*
Y197659D01*
X804669D01*
X803400Y198929D01*
X804669Y200198D01*
X808478D01*
X811017Y202737D02*
X813556Y197659D01*
X816095Y202737D01*
X822443Y197659D02*
X819904D01*
X818635Y198929D01*
Y201468D01*
X819904Y202737D01*
X822443D01*
X823713Y201468D01*
Y200198D01*
X818635D01*
X835139Y202737D02*
X837679D01*
X838948Y201468D01*
Y197659D01*
X835139D01*
X833870Y198929D01*
X835139Y200198D01*
X838948D01*
X795782Y181102D02*
Y188720D01*
X799591D01*
X800860Y187450D01*
Y184911D01*
X799591Y183641D01*
X795782D01*
X803400Y188720D02*
Y183641D01*
Y186180D01*
X804669Y187450D01*
X805939Y188720D01*
X807208D01*
X812287Y183641D02*
X814826D01*
X816095Y184911D01*
Y187450D01*
X814826Y188720D01*
X812287D01*
X811017Y187450D01*
Y184911D01*
X812287Y183641D01*
X818635Y191259D02*
Y183641D01*
X822443D01*
X823713Y184911D01*
Y186180D01*
Y187450D01*
X822443Y188720D01*
X818635D01*
X826252Y183641D02*
X828791D01*
X827522D01*
Y191259D01*
X826252D01*
X836409Y183641D02*
X833870D01*
X832600Y184911D01*
Y187450D01*
X833870Y188720D01*
X836409D01*
X837678Y187450D01*
Y186180D01*
X832600D01*
X840218Y183641D02*
Y188720D01*
X841487D01*
X842757Y187450D01*
Y183641D01*
Y187450D01*
X844026Y188720D01*
X845296Y187450D01*
Y183641D01*
X104648Y129032D02*
X93222D01*
Y134745D01*
X95126Y136650D01*
X98935D01*
X100839Y134745D01*
Y129032D01*
X97030Y140458D02*
X102744D01*
X104648Y142363D01*
Y148076D01*
X97030D01*
X95126Y153789D02*
X97030D01*
Y151885D01*
Y155693D01*
Y153789D01*
X102744D01*
X104648Y155693D01*
X95126Y174737D02*
X97030D01*
Y172833D01*
Y176642D01*
Y174737D01*
X102744D01*
X104648Y176642D01*
X93222Y182355D02*
X104648D01*
X98935D01*
X97030Y184259D01*
Y188068D01*
X98935Y189972D01*
X104648D01*
X97030Y195686D02*
Y199494D01*
X98935Y201399D01*
X104648D01*
Y195686D01*
X102744Y193781D01*
X100839Y195686D01*
Y201399D01*
X95126Y207112D02*
X97030D01*
Y205207D01*
Y209016D01*
Y207112D01*
X102744D01*
X104648Y209016D01*
X93222Y226156D02*
X104648D01*
Y231869D01*
X102744Y233773D01*
X100839D01*
X98935D01*
X97030Y231869D01*
Y226156D01*
Y239486D02*
Y243295D01*
X98935Y245200D01*
X104648D01*
Y239486D01*
X102744Y237582D01*
X100839Y239486D01*
Y245200D01*
X97030Y256626D02*
Y250913D01*
X98935Y249008D01*
X102744D01*
X104648Y250913D01*
Y256626D01*
Y260435D02*
X93222D01*
X100839D02*
X97030Y266148D01*
X100839Y260435D02*
X104648Y266148D01*
X100839Y271861D02*
X91317D01*
X102744D02*
X104648D01*
D17*
X125689Y18695D02*
X120691D01*
Y21194D01*
X121524Y22027D01*
X123190D01*
X124023Y21194D01*
Y18695D01*
Y20361D02*
X125689Y22027D01*
X120691Y23693D02*
Y27025D01*
X121524D01*
X124856Y23693D01*
X125689D01*
X114696Y61336D02*
X115529Y62169D01*
Y63835D01*
X114696Y64668D01*
X111364D01*
X110531Y63835D01*
Y62169D01*
X111364Y61336D01*
X110531Y59670D02*
Y58003D01*
Y58836D01*
X115529D01*
X114696Y59670D01*
X110531Y52172D02*
Y55504D01*
X113863Y52172D01*
X114696D01*
X115529Y53005D01*
Y54671D01*
X114696Y55504D01*
Y84633D02*
X115529Y85466D01*
Y87132D01*
X114696Y87965D01*
X111364D01*
X110531Y87132D01*
Y85466D01*
X111364Y84633D01*
X110531Y82966D02*
Y81300D01*
Y82133D01*
X115529D01*
X114696Y82966D01*
X110531Y78801D02*
Y77135D01*
Y77968D01*
X115529D01*
X114696Y78801D01*
X61834Y19944D02*
X61001Y19111D01*
Y17445D01*
X61834Y16612D01*
X65166D01*
X65999Y17445D01*
Y19111D01*
X65166Y19944D01*
X65999Y21610D02*
Y23277D01*
Y22443D01*
X61001D01*
X61834Y21610D01*
Y25776D02*
X61001Y26609D01*
Y28275D01*
X61834Y29108D01*
X65166D01*
X65999Y28275D01*
Y26609D01*
X65166Y25776D01*
X61834D01*
M02*
