G04*
G04 #@! TF.GenerationSoftware,Altium Limited,Altium Designer,26.5.0 (11)*
G04*
G04 Layer_Color=65535*
G04 Board_Origin=0|0*
%FSLAX44Y44*%
%MOMM*%
G71*
G04*
G04 #@! TF.SameCoordinates,805A6E00-FF88-42AD-81E1-7D7A0FF39D89*
G04*
G04*
G04 #@! TF.FilePolarity,Positive*
G04*
G01*
G75*
%ADD10C,0.2000*%
%ADD11C,0.5080*%
%ADD12C,0.2500*%
%ADD13C,0.1270*%
%ADD14C,0.1524*%
%ADD15C,0.2540*%
%ADD16C,0.2032*%
%ADD17C,0.1250*%
%ADD18C,0.1520*%
G36*
X654050Y397510D02*
X646430D01*
X650240Y401320D01*
X654050D01*
Y397510D01*
D02*
G37*
G36*
X584200D02*
X576580D01*
X580390Y401320D01*
X584200D01*
Y397510D01*
D02*
G37*
G36*
X514350D02*
X506730D01*
X510540Y401320D01*
X514350D01*
Y397510D01*
D02*
G37*
G36*
X553331Y330363D02*
X553819D01*
Y327922D01*
X554307D01*
Y325969D01*
X554795D01*
Y323529D01*
X555284D01*
Y321088D01*
X555772D01*
Y319135D01*
X556260D01*
Y316694D01*
X556748D01*
Y314254D01*
X557236D01*
Y312301D01*
X557724D01*
Y309860D01*
X558213D01*
Y307419D01*
X558701D01*
Y305467D01*
X559189D01*
Y303026D01*
X559677D01*
Y300585D01*
X560165D01*
Y298144D01*
X560653D01*
Y296192D01*
X561142D01*
Y293751D01*
X561630D01*
Y292775D01*
X563582D01*
Y293263D01*
X565535D01*
Y293751D01*
X567976D01*
Y294239D01*
X570905D01*
Y294727D01*
X573345D01*
Y295215D01*
X575786D01*
Y295704D01*
X578227D01*
Y296192D01*
X581156D01*
Y296680D01*
X583597D01*
Y297168D01*
X586037D01*
Y297656D01*
X588478D01*
Y298144D01*
X590919D01*
Y298633D01*
X593848D01*
Y299121D01*
X596289D01*
Y299609D01*
X598730D01*
Y300097D01*
X600194D01*
Y299609D01*
X599218D01*
Y299121D01*
X598242D01*
Y298633D01*
X597265D01*
Y298144D01*
X596289D01*
Y297656D01*
X595312D01*
Y297168D01*
X594336D01*
Y296680D01*
X593360D01*
Y296192D01*
X592384D01*
Y295704D01*
X591407D01*
Y295215D01*
X590431D01*
Y294727D01*
X589943D01*
Y294239D01*
X588478D01*
Y293751D01*
X587502D01*
Y293263D01*
X587014D01*
Y292775D01*
X586037D01*
Y292286D01*
X585061D01*
Y291798D01*
X583597D01*
Y291310D01*
X582621D01*
Y290822D01*
X582132D01*
Y290334D01*
X581156D01*
Y289846D01*
X580180D01*
Y289358D01*
X579203D01*
Y288869D01*
X578227D01*
Y288381D01*
X577251D01*
Y287893D01*
X576274D01*
Y287405D01*
X575298D01*
Y286917D01*
X574322D01*
Y286429D01*
X573345D01*
Y285940D01*
X572369D01*
Y285452D01*
X571393D01*
Y284964D01*
X570416D01*
Y284476D01*
X569440D01*
Y283988D01*
X568464D01*
Y283500D01*
X567488D01*
Y283011D01*
X566511D01*
Y282523D01*
X565535D01*
Y282035D01*
X564559D01*
Y281547D01*
X564071D01*
Y280083D01*
X564559D01*
Y278130D01*
X565047D01*
Y275689D01*
X565535D01*
Y273248D01*
X566023D01*
Y271296D01*
X566511D01*
Y268855D01*
X567000D01*
Y267879D01*
X565535D01*
Y268367D01*
X563094D01*
Y268855D01*
X561142D01*
Y269343D01*
X559189D01*
Y269831D01*
X556748D01*
Y270319D01*
X554795D01*
Y270808D01*
X552843D01*
Y270319D01*
X552355D01*
Y269343D01*
X551867D01*
Y268367D01*
X551379D01*
Y267390D01*
X550890D01*
Y266414D01*
X550402D01*
Y265438D01*
X549914D01*
Y264462D01*
X549426D01*
Y263485D01*
X548938D01*
Y262997D01*
X548450D01*
Y261533D01*
X547961D01*
Y260556D01*
X547473D01*
Y260068D01*
X546985D01*
Y259092D01*
X546497D01*
Y258116D01*
X546009D01*
Y257139D01*
X545521D01*
Y256163D01*
X545032D01*
Y255187D01*
X544544D01*
Y254210D01*
X544056D01*
Y253234D01*
X543568D01*
Y252746D01*
X543080D01*
Y251770D01*
X542592D01*
Y250793D01*
X542104D01*
Y249817D01*
X541615D01*
Y248841D01*
X541127D01*
Y247864D01*
X540639D01*
Y246888D01*
X540151D01*
Y245912D01*
X539663D01*
Y244935D01*
X539174D01*
Y244447D01*
X538686D01*
Y243471D01*
X538198D01*
Y242495D01*
X537710D01*
Y241518D01*
X537222D01*
Y240542D01*
X536734D01*
Y239566D01*
X536246D01*
Y238589D01*
X535757D01*
Y237613D01*
X535269D01*
Y236637D01*
X534781D01*
Y238589D01*
X535269D01*
Y241030D01*
X535757D01*
Y243471D01*
X536246D01*
Y245912D01*
X536734D01*
Y248353D01*
X537222D01*
Y250793D01*
X537710D01*
Y252746D01*
X538198D01*
Y255187D01*
X538686D01*
Y257627D01*
X539174D01*
Y260068D01*
X539663D01*
Y262509D01*
X540151D01*
Y264950D01*
X540639D01*
Y267390D01*
X541127D01*
Y269831D01*
X541615D01*
Y271784D01*
X542104D01*
Y273248D01*
X541615D01*
Y273737D01*
X539174D01*
Y274225D01*
X537222D01*
Y274713D01*
X534781D01*
Y275201D01*
X532828D01*
Y275689D01*
X530876D01*
Y276177D01*
X528435D01*
Y276665D01*
X526483D01*
Y277154D01*
X524042D01*
Y277642D01*
X522089D01*
Y278130D01*
X519648D01*
Y278618D01*
X517696D01*
Y279106D01*
X515743D01*
Y279594D01*
X513302D01*
Y280083D01*
X510862D01*
Y280571D01*
X508909D01*
Y281059D01*
X506956D01*
Y281547D01*
X504515D01*
Y282035D01*
X503051D01*
Y282523D01*
X505004D01*
Y282035D01*
X510862D01*
Y281547D01*
X516719D01*
Y281059D01*
X523065D01*
Y280571D01*
X529411D01*
Y280083D01*
X535269D01*
Y279594D01*
X541615D01*
Y279106D01*
X543080D01*
Y279594D01*
X543568D01*
Y281547D01*
X544056D01*
Y283500D01*
X544544D01*
Y285940D01*
X545032D01*
Y288869D01*
X545521D01*
Y289358D01*
X546009D01*
Y289846D01*
X548450D01*
Y290334D01*
X550890D01*
Y290822D01*
X553331D01*
Y291310D01*
X555284D01*
Y297656D01*
X554795D01*
Y304979D01*
X554307D01*
Y312301D01*
X553819D01*
Y319135D01*
X553331D01*
Y319623D01*
Y320111D01*
Y327434D01*
X552843D01*
Y332803D01*
X553331D01*
Y330363D01*
D02*
G37*
G36*
X469685Y262010D02*
X464570D01*
Y265932D01*
X469685D01*
Y262010D01*
D02*
G37*
G36*
X617085Y235400D02*
X617364D01*
Y234563D01*
X617643D01*
Y233726D01*
X617922D01*
Y232889D01*
X618201D01*
Y232331D01*
X618480D01*
Y231494D01*
X618759D01*
Y230657D01*
X619038D01*
Y230099D01*
X619317D01*
Y229262D01*
X619596D01*
Y228704D01*
X619875D01*
Y227867D01*
X620154D01*
Y227030D01*
X620433D01*
Y226472D01*
X620712D01*
Y225635D01*
X620991D01*
Y224798D01*
X621270D01*
Y224240D01*
X621549D01*
Y223403D01*
X621828D01*
Y222845D01*
X622107D01*
Y222008D01*
X622386D01*
Y221171D01*
X622665D01*
Y220613D01*
X622944D01*
Y219776D01*
X623223D01*
Y219218D01*
X623502D01*
Y218381D01*
X623781D01*
Y217823D01*
X624060D01*
Y216986D01*
X624339D01*
Y216428D01*
X624618D01*
Y215591D01*
X624897D01*
Y215033D01*
X625176D01*
Y214196D01*
X625455D01*
Y213638D01*
X625734D01*
Y212801D01*
X626013D01*
Y212243D01*
X626292D01*
Y211686D01*
X626571D01*
Y210848D01*
X626850D01*
Y210291D01*
X627129D01*
Y209732D01*
X627408D01*
Y209174D01*
X627687D01*
Y208337D01*
X627966D01*
Y207780D01*
X628245D01*
Y207222D01*
X628524D01*
Y206663D01*
X621549D01*
Y206943D01*
X621270D01*
Y207500D01*
X620991D01*
Y208337D01*
X620712D01*
Y209174D01*
X620433D01*
Y210012D01*
X620154D01*
Y210848D01*
X619875D01*
Y211686D01*
X619596D01*
Y212523D01*
X619317D01*
Y213359D01*
X619038D01*
Y213917D01*
X618759D01*
Y214754D01*
X618480D01*
Y215312D01*
X608715D01*
Y215033D01*
X608436D01*
Y214475D01*
X608157D01*
Y213638D01*
X607878D01*
Y212801D01*
X607599D01*
Y211964D01*
X607320D01*
Y211127D01*
X607041D01*
Y210291D01*
X606762D01*
Y209732D01*
X606483D01*
Y208617D01*
X606204D01*
Y207780D01*
X605925D01*
Y206943D01*
X605646D01*
Y206663D01*
X601740D01*
Y207222D01*
X602019D01*
Y207780D01*
X602298D01*
Y208617D01*
X602577D01*
Y209174D01*
X602856D01*
Y209732D01*
X603135D01*
Y210569D01*
X603414D01*
Y211127D01*
X603693D01*
Y211686D01*
X603972D01*
Y212523D01*
X604251D01*
Y213080D01*
X604530D01*
Y213638D01*
X604809D01*
Y214475D01*
X605088D01*
Y215033D01*
X605367D01*
Y215870D01*
X605646D01*
Y216428D01*
X605925D01*
Y217265D01*
X606204D01*
Y217823D01*
X606483D01*
Y218381D01*
X606762D01*
Y219218D01*
X607041D01*
Y219776D01*
X607320D01*
Y220613D01*
X607599D01*
Y221171D01*
X607878D01*
Y221729D01*
X608157D01*
Y222566D01*
X608436D01*
Y223124D01*
X608715D01*
Y223961D01*
X608994D01*
Y224519D01*
X609273D01*
Y225356D01*
X609552D01*
Y225914D01*
X609831D01*
Y226751D01*
X610110D01*
Y227309D01*
X610389D01*
Y228146D01*
X610668D01*
Y228704D01*
X610947D01*
Y229541D01*
X611226D01*
Y229820D01*
Y230099D01*
X611505D01*
Y230936D01*
X611784D01*
Y231494D01*
X612063D01*
Y232331D01*
X612342D01*
Y233168D01*
X612621D01*
Y233726D01*
X612900D01*
Y234284D01*
X613179D01*
Y235121D01*
X613458D01*
Y235958D01*
X615132D01*
Y235679D01*
X615411D01*
Y235958D01*
X617085D01*
Y235400D01*
D02*
G37*
G36*
X585837Y232610D02*
X586116D01*
Y232331D01*
X585837D01*
Y232052D01*
X585279D01*
Y232331D01*
X582210D01*
Y232610D01*
X578304D01*
Y211127D01*
X578583D01*
Y206663D01*
X571887D01*
Y211964D01*
X572166D01*
Y232331D01*
X571887D01*
Y232610D01*
X567981D01*
Y232331D01*
X564912D01*
Y232052D01*
X564354D01*
Y235679D01*
X585837D01*
Y232610D01*
D02*
G37*
G36*
X503532Y236237D02*
X506601D01*
Y235958D01*
X507996D01*
Y235679D01*
X508833D01*
Y235400D01*
X509949D01*
Y235121D01*
X510507D01*
Y234842D01*
X511065D01*
Y234563D01*
X511902D01*
Y234284D01*
X512460D01*
Y234005D01*
X513018D01*
Y233447D01*
X512739D01*
Y232889D01*
X512460D01*
Y231773D01*
X512181D01*
Y230936D01*
X511902D01*
Y229820D01*
X511623D01*
Y229541D01*
X511065D01*
Y229820D01*
X510786D01*
Y230099D01*
X510507D01*
Y230378D01*
X510228D01*
Y230936D01*
X509670D01*
Y231215D01*
X509391D01*
Y231494D01*
X509112D01*
Y231773D01*
X508833D01*
Y232052D01*
X508275D01*
Y232331D01*
X507996D01*
Y232610D01*
X507438D01*
Y232889D01*
X506880D01*
Y233168D01*
X506043D01*
Y233447D01*
X504927D01*
Y233726D01*
X501021D01*
Y233447D01*
X499906D01*
Y233168D01*
X499347D01*
Y232889D01*
X498511D01*
Y232610D01*
X497952D01*
Y232331D01*
X497673D01*
Y232052D01*
X497116D01*
Y231773D01*
X496837D01*
Y231494D01*
X496558D01*
Y231215D01*
X496278D01*
Y230936D01*
X495999D01*
Y230657D01*
X495720D01*
Y230378D01*
X495442D01*
Y230099D01*
X495163D01*
Y229820D01*
X494883D01*
Y229541D01*
X494604D01*
Y228983D01*
X494325D01*
Y228704D01*
X494047D01*
Y228146D01*
X493768D01*
Y227588D01*
X493489D01*
Y227030D01*
X493209D01*
Y226193D01*
X492930D01*
Y225635D01*
X492651D01*
Y224240D01*
X492373D01*
Y222566D01*
X492094D01*
Y218381D01*
X492373D01*
Y216986D01*
X492651D01*
Y215870D01*
X492930D01*
Y215033D01*
X493209D01*
Y214475D01*
X493489D01*
Y213917D01*
X493768D01*
Y213359D01*
X494047D01*
Y212801D01*
X494325D01*
Y212523D01*
X494604D01*
Y212243D01*
X494883D01*
Y211686D01*
X495163D01*
Y211406D01*
X495442D01*
Y211127D01*
X495720D01*
Y210848D01*
X496278D01*
Y210569D01*
X496558D01*
Y210291D01*
X496837D01*
Y210012D01*
X497394D01*
Y209732D01*
X497952D01*
Y209454D01*
X498511D01*
Y209174D01*
X499347D01*
Y208895D01*
X500463D01*
Y208617D01*
X504369D01*
Y208895D01*
X506043D01*
Y209174D01*
X506880D01*
Y209454D01*
X507159D01*
Y217823D01*
X506880D01*
Y219497D01*
X513297D01*
Y215591D01*
X513018D01*
Y208617D01*
X513297D01*
Y207780D01*
X512460D01*
Y207500D01*
X511344D01*
Y207222D01*
X510228D01*
Y206943D01*
X508833D01*
Y206663D01*
X507159D01*
Y206385D01*
X505206D01*
Y206105D01*
X499068D01*
Y206385D01*
X497394D01*
Y206663D01*
X495999D01*
Y206943D01*
X495163D01*
Y207222D01*
X494325D01*
Y207500D01*
X493489D01*
Y207780D01*
X492930D01*
Y208058D01*
X492373D01*
Y208337D01*
X491814D01*
Y208617D01*
X491535D01*
Y208895D01*
X490978D01*
Y209174D01*
X490699D01*
Y209454D01*
X490140D01*
Y209732D01*
X489861D01*
Y210012D01*
X489582D01*
Y210291D01*
X489304D01*
Y210569D01*
X489025D01*
Y210848D01*
X488745D01*
Y211127D01*
X488466D01*
Y211406D01*
X488187D01*
Y211686D01*
X487909D01*
Y211964D01*
X487630D01*
Y212523D01*
X487351D01*
Y212801D01*
X487071D01*
Y213359D01*
X486792D01*
Y213917D01*
X486513D01*
Y214475D01*
X486235D01*
Y215033D01*
X485956D01*
Y215870D01*
X485676D01*
Y216986D01*
X485397D01*
Y218660D01*
X485118D01*
Y222287D01*
X485397D01*
Y223961D01*
X485676D01*
Y225356D01*
X485956D01*
Y226193D01*
X486235D01*
Y227030D01*
X486513D01*
Y227588D01*
X486792D01*
Y228146D01*
X487071D01*
Y228704D01*
X487351D01*
Y229262D01*
X487630D01*
Y229541D01*
X487909D01*
Y230099D01*
X488187D01*
Y230378D01*
X488466D01*
Y230657D01*
X488745D01*
Y230936D01*
X489025D01*
Y231494D01*
X489304D01*
Y231773D01*
X489582D01*
Y232052D01*
X490140D01*
Y232331D01*
X490420D01*
Y232610D01*
X490699D01*
Y232889D01*
X490978D01*
Y233168D01*
X491535D01*
Y233447D01*
X491814D01*
Y233726D01*
X492373D01*
Y234005D01*
X492930D01*
Y234284D01*
X493209D01*
Y234563D01*
X494047D01*
Y234842D01*
X494604D01*
Y235121D01*
X495442D01*
Y235400D01*
X496278D01*
Y235679D01*
X497394D01*
Y235958D01*
X498789D01*
Y236237D01*
X501858D01*
Y236516D01*
X503532D01*
Y236237D01*
D02*
G37*
G36*
X545940Y234563D02*
X545661D01*
Y228146D01*
X545382D01*
Y218939D01*
X545103D01*
Y206663D01*
X541755D01*
Y206943D01*
X541476D01*
Y207222D01*
X541197D01*
Y207500D01*
X540918D01*
Y207780D01*
X540639D01*
Y208058D01*
X540360D01*
Y208337D01*
X540081D01*
Y208895D01*
X539802D01*
Y209174D01*
X539523D01*
Y209454D01*
X539244D01*
Y209732D01*
X538965D01*
Y210012D01*
X538686D01*
Y210291D01*
X538407D01*
Y210569D01*
X538128D01*
Y211127D01*
X537849D01*
Y211406D01*
X537570D01*
Y211686D01*
X537291D01*
Y211964D01*
X537012D01*
Y212243D01*
X536733D01*
Y212523D01*
X536454D01*
Y212801D01*
X536175D01*
Y213359D01*
X535896D01*
Y213638D01*
X535617D01*
Y213917D01*
X535338D01*
Y214196D01*
X535059D01*
Y214475D01*
X534780D01*
Y214754D01*
X534501D01*
Y215033D01*
X534222D01*
Y215312D01*
X533943D01*
Y215870D01*
X533664D01*
Y216149D01*
X533385D01*
Y216428D01*
X533106D01*
Y216707D01*
X532827D01*
Y216986D01*
X532548D01*
Y217265D01*
X532269D01*
Y217544D01*
X531990D01*
Y217823D01*
X531711D01*
Y218102D01*
X531432D01*
Y218381D01*
X531153D01*
Y218939D01*
X530874D01*
Y219218D01*
X530595D01*
Y219497D01*
X530316D01*
Y219776D01*
X530037D01*
Y220055D01*
X529758D01*
Y220334D01*
X529479D01*
Y220613D01*
X529200D01*
Y220892D01*
X528921D01*
Y221171D01*
X528642D01*
Y221450D01*
X528363D01*
Y221729D01*
X528084D01*
Y222008D01*
X527805D01*
Y222566D01*
X527526D01*
Y222845D01*
X527247D01*
Y223124D01*
X526968D01*
Y223403D01*
X526689D01*
Y223682D01*
X526410D01*
Y223961D01*
X526131D01*
Y224240D01*
X525852D01*
Y224519D01*
X525573D01*
Y224798D01*
X525294D01*
Y225077D01*
X525015D01*
Y225356D01*
X524736D01*
Y225635D01*
X524457D01*
Y225914D01*
X524178D01*
Y226193D01*
X523899D01*
Y226751D01*
X523341D01*
Y206663D01*
X519435D01*
Y207500D01*
X519714D01*
Y211406D01*
X519993D01*
Y216707D01*
X520272D01*
Y235679D01*
X524178D01*
Y235400D01*
X524457D01*
Y235121D01*
X524736D01*
Y234842D01*
X525015D01*
Y234563D01*
X525294D01*
Y234284D01*
X525573D01*
Y234005D01*
X525852D01*
Y233447D01*
X526131D01*
Y233168D01*
X526410D01*
Y232889D01*
X526689D01*
Y232610D01*
X526968D01*
Y232331D01*
X527247D01*
Y232052D01*
X527526D01*
Y231773D01*
X527805D01*
Y231494D01*
X528084D01*
Y231215D01*
X528363D01*
Y230657D01*
X528642D01*
Y230378D01*
X528921D01*
Y230099D01*
X529200D01*
Y229820D01*
X529479D01*
Y229541D01*
X529758D01*
Y229262D01*
X530037D01*
Y228983D01*
X530316D01*
Y228704D01*
X530595D01*
Y228425D01*
X530874D01*
Y228146D01*
X531153D01*
Y227867D01*
X531432D01*
Y227309D01*
X531711D01*
Y227030D01*
X531990D01*
Y226751D01*
X532269D01*
Y226472D01*
X532548D01*
Y226193D01*
X532827D01*
Y225914D01*
X533106D01*
Y225635D01*
X533385D01*
Y225356D01*
X533664D01*
Y225077D01*
X533943D01*
Y224519D01*
X534222D01*
Y224240D01*
X534501D01*
Y223961D01*
X534780D01*
Y223682D01*
X535059D01*
Y223403D01*
X535338D01*
Y223124D01*
X535617D01*
Y222845D01*
X535896D01*
Y222566D01*
X536175D01*
Y222287D01*
X536454D01*
Y222008D01*
X536733D01*
Y221450D01*
X537012D01*
Y221171D01*
X537291D01*
Y220892D01*
X537570D01*
Y220613D01*
X537849D01*
Y220334D01*
X538128D01*
Y220055D01*
X538407D01*
Y219776D01*
X538686D01*
Y219497D01*
X538965D01*
Y219218D01*
X539244D01*
Y218939D01*
X539523D01*
Y218660D01*
X539802D01*
Y218102D01*
X540360D01*
Y217823D01*
X540639D01*
Y217265D01*
X540918D01*
Y216986D01*
X541197D01*
Y216707D01*
X541476D01*
Y216428D01*
X541755D01*
Y216149D01*
X542034D01*
Y215870D01*
X542313D01*
Y234842D01*
X542034D01*
Y235679D01*
X545940D01*
Y234563D01*
D02*
G37*
G36*
X597555D02*
X597276D01*
Y227588D01*
X596997D01*
Y214754D01*
X597276D01*
Y207500D01*
X597555D01*
Y206663D01*
X590580D01*
Y208617D01*
Y208895D01*
Y212243D01*
X590859D01*
Y230099D01*
X590580D01*
Y235679D01*
X597555D01*
Y234563D01*
D02*
G37*
G36*
X559611Y230657D02*
Y230378D01*
Y228983D01*
X559332D01*
Y213359D01*
X559611D01*
Y206663D01*
X552915D01*
Y213359D01*
X553194D01*
Y228704D01*
X552915D01*
Y235679D01*
X559611D01*
Y230657D01*
D02*
G37*
G36*
X479539Y232052D02*
X479260D01*
Y210291D01*
X479539D01*
Y206663D01*
X472843D01*
Y206943D01*
X472564D01*
Y207500D01*
X472843D01*
Y213080D01*
X473122D01*
Y229262D01*
X472843D01*
Y234842D01*
X472564D01*
Y235679D01*
X479260D01*
Y235958D01*
X479539D01*
Y232052D01*
D02*
G37*
G36*
X523899Y204739D02*
X523620D01*
Y205019D01*
X523899D01*
Y204739D01*
D02*
G37*
G36*
X523620Y204461D02*
X523341D01*
Y204739D01*
X523620D01*
Y204461D01*
D02*
G37*
G36*
X523341Y204181D02*
X523062D01*
Y204461D01*
X523341D01*
Y204181D01*
D02*
G37*
G36*
X595044Y203065D02*
X594765D01*
Y203344D01*
X595044D01*
Y203065D01*
D02*
G37*
G36*
X583047D02*
X582768D01*
Y203344D01*
X583047D01*
Y203065D01*
D02*
G37*
G36*
X594765Y202787D02*
X594486D01*
Y203065D01*
X594765D01*
Y202787D01*
D02*
G37*
G36*
X592812D02*
X592533D01*
Y203065D01*
X592254D01*
Y203344D01*
X590580D01*
Y203624D01*
X592812D01*
Y202787D01*
D02*
G37*
G36*
X589185Y203344D02*
X588348D01*
Y203065D01*
X587790D01*
Y202787D01*
X587511D01*
Y203624D01*
X589185D01*
Y203344D01*
D02*
G37*
G36*
X515529D02*
X515808D01*
Y202787D01*
X515529D01*
Y203065D01*
X515250D01*
Y203344D01*
X514971D01*
Y203624D01*
X515529D01*
Y203344D01*
D02*
G37*
G36*
X585837D02*
X586395D01*
Y203065D01*
X586674D01*
Y202507D01*
X586116D01*
Y203065D01*
X585558D01*
Y203344D01*
X585279D01*
Y203624D01*
X585837D01*
Y203344D01*
D02*
G37*
G36*
X540918D02*
X541476D01*
Y202787D01*
X541755D01*
Y202507D01*
X541197D01*
Y203065D01*
X540639D01*
Y203344D01*
X540360D01*
Y203624D01*
X540918D01*
Y203344D01*
D02*
G37*
G36*
X577188Y201950D02*
Y201670D01*
X576909D01*
Y202229D01*
X577188D01*
Y201950D01*
D02*
G37*
G36*
X568260Y201670D02*
X567981D01*
Y201950D01*
X568260D01*
Y201670D01*
D02*
G37*
G36*
X508275D02*
X507996D01*
Y202229D01*
X508275D01*
Y201670D01*
D02*
G37*
G36*
X567981Y201112D02*
X567702D01*
Y201670D01*
X567981D01*
Y201112D01*
D02*
G37*
G36*
X576909Y201392D02*
Y200833D01*
X576630D01*
Y201670D01*
X576909D01*
Y201392D01*
D02*
G37*
G36*
X507996Y200833D02*
X507717D01*
Y201670D01*
X507996D01*
Y200833D01*
D02*
G37*
G36*
X567702Y200555D02*
X567423D01*
Y200833D01*
Y201112D01*
X567702D01*
Y200555D01*
D02*
G37*
G36*
X578025Y202507D02*
X578304D01*
Y201670D01*
X578583D01*
Y201112D01*
X578862D01*
Y200555D01*
X579141D01*
Y199718D01*
X579420D01*
Y199160D01*
X579699D01*
Y198323D01*
X579978D01*
Y197765D01*
X580257D01*
Y197486D01*
X580536D01*
Y197207D01*
X578862D01*
Y197486D01*
X579420D01*
Y198043D01*
X579141D01*
Y198881D01*
X578862D01*
Y199718D01*
X578583D01*
Y199997D01*
X576630D01*
Y199718D01*
X576351D01*
Y199438D01*
X576072D01*
Y199997D01*
X576351D01*
Y200833D01*
X576630D01*
Y200275D01*
X578304D01*
Y201112D01*
X578025D01*
Y201670D01*
X577746D01*
Y202229D01*
X577467D01*
Y202507D01*
X577188D01*
Y202787D01*
X577467D01*
Y203344D01*
X578025D01*
Y202507D01*
D02*
G37*
G36*
X508833Y203065D02*
X509112D01*
Y202229D01*
X509391D01*
Y201670D01*
X509670D01*
Y200833D01*
X509949D01*
Y200275D01*
X510228D01*
Y199718D01*
X510507D01*
Y198881D01*
X510786D01*
Y198323D01*
X511065D01*
Y197765D01*
X511344D01*
Y197486D01*
X511623D01*
Y197207D01*
X509949D01*
Y197486D01*
X510507D01*
Y198043D01*
X510228D01*
Y198881D01*
X509949D01*
Y199438D01*
X509670D01*
Y199997D01*
X507438D01*
Y199438D01*
X507159D01*
Y200275D01*
X507438D01*
Y200833D01*
X507717D01*
Y200275D01*
X509391D01*
Y200833D01*
X509112D01*
Y201670D01*
X508833D01*
Y202229D01*
X508275D01*
Y202787D01*
Y203065D01*
X508554D01*
Y203344D01*
X508833D01*
Y203065D01*
D02*
G37*
G36*
X573561Y203344D02*
X573840D01*
Y203065D01*
X574119D01*
Y202787D01*
X574398D01*
Y200555D01*
X574119D01*
Y200275D01*
X573840D01*
Y199997D01*
X573282D01*
Y199718D01*
X572724D01*
Y199997D01*
X573003D01*
Y200275D01*
X573561D01*
Y200555D01*
X573840D01*
Y201392D01*
X574119D01*
Y201950D01*
X573840D01*
Y202787D01*
X573561D01*
Y203065D01*
X573282D01*
Y203344D01*
X573003D01*
Y203624D01*
X573561D01*
Y203344D01*
D02*
G37*
G36*
X504369D02*
X504927D01*
Y203065D01*
X505206D01*
Y202787D01*
X505485D01*
Y202229D01*
Y201950D01*
Y200833D01*
X505206D01*
Y200275D01*
X504927D01*
Y199997D01*
X504369D01*
Y199718D01*
X503532D01*
Y199997D01*
X504090D01*
Y200275D01*
X504648D01*
Y200833D01*
X504927D01*
Y202507D01*
X504648D01*
Y202787D01*
X504369D01*
Y203065D01*
X504090D01*
Y203344D01*
X503811D01*
Y203624D01*
X504369D01*
Y203344D01*
D02*
G37*
G36*
X507159Y198881D02*
X506880D01*
Y199160D01*
Y199438D01*
X507159D01*
Y198881D01*
D02*
G37*
G36*
X576072Y198602D02*
X575793D01*
Y199160D01*
Y199438D01*
X576072D01*
Y198602D01*
D02*
G37*
G36*
X567423Y199997D02*
X567144D01*
Y199438D01*
X566865D01*
Y198881D01*
X566586D01*
Y198602D01*
X566307D01*
Y199160D01*
X566586D01*
Y199718D01*
X566865D01*
Y200275D01*
X567144D01*
Y200555D01*
X567423D01*
Y199997D01*
D02*
G37*
G36*
X556542Y198323D02*
X556263D01*
Y201112D01*
Y201392D01*
Y202787D01*
X555984D01*
Y203344D01*
X556542D01*
Y198323D01*
D02*
G37*
G36*
X533664Y203065D02*
X533385D01*
Y197207D01*
X532827D01*
Y197765D01*
X532548D01*
Y198043D01*
X532269D01*
Y198323D01*
X531990D01*
Y198602D01*
X531711D01*
Y198881D01*
X531432D01*
Y199160D01*
X531153D01*
Y199438D01*
X530874D01*
Y199718D01*
X530595D01*
Y199997D01*
X530316D01*
Y200275D01*
X530037D01*
Y200833D01*
X529758D01*
Y201112D01*
X529479D01*
Y201392D01*
X529200D01*
Y201670D01*
X528921D01*
Y201950D01*
X528642D01*
Y202229D01*
X528363D01*
Y202507D01*
X528084D01*
Y197765D01*
X528363D01*
Y197486D01*
X528642D01*
Y197207D01*
X527247D01*
Y197486D01*
X527526D01*
Y197765D01*
X527805D01*
Y203065D01*
X527526D01*
Y203344D01*
X528642D01*
Y203065D01*
X528921D01*
Y202507D01*
X529200D01*
Y202229D01*
X529479D01*
Y201950D01*
X529758D01*
Y201670D01*
X530037D01*
Y201392D01*
X530316D01*
Y201112D01*
X530595D01*
Y200833D01*
X530874D01*
Y200555D01*
X531153D01*
Y200275D01*
X531432D01*
Y199718D01*
X531711D01*
Y199438D01*
X531990D01*
Y199160D01*
X532269D01*
Y198881D01*
X532548D01*
Y198602D01*
X532827D01*
Y198323D01*
X533106D01*
Y203065D01*
X532827D01*
Y203344D01*
X533664D01*
Y203065D01*
D02*
G37*
G36*
X547335Y203344D02*
X547614D01*
Y203065D01*
X548172D01*
Y202787D01*
X548451D01*
Y202229D01*
X548730D01*
Y201950D01*
X549009D01*
Y201112D01*
X549288D01*
Y199438D01*
X549009D01*
Y198602D01*
X548730D01*
Y198323D01*
X548451D01*
Y198043D01*
X548172D01*
Y197765D01*
X547893D01*
Y198323D01*
X548172D01*
Y198602D01*
X548451D01*
Y199438D01*
X548730D01*
Y200833D01*
X548451D01*
Y201670D01*
X548172D01*
Y202229D01*
X547893D01*
Y202507D01*
X547614D01*
Y202787D01*
X547335D01*
Y203065D01*
X547056D01*
Y203344D01*
X546498D01*
Y203624D01*
X547335D01*
Y203344D01*
D02*
G37*
G36*
X523899D02*
X524457D01*
Y203065D01*
X525015D01*
Y202787D01*
X525294D01*
Y202229D01*
X525573D01*
Y201950D01*
X525852D01*
Y201112D01*
X526131D01*
Y199160D01*
X525852D01*
Y198602D01*
X525573D01*
Y198323D01*
X525294D01*
Y197765D01*
X524736D01*
Y198323D01*
X525015D01*
Y198602D01*
X525294D01*
Y199718D01*
X525573D01*
Y200833D01*
X525294D01*
Y201112D01*
Y201670D01*
X525015D01*
Y202229D01*
X524736D01*
Y202507D01*
X524457D01*
Y202787D01*
X524178D01*
Y203065D01*
X523899D01*
Y203344D01*
X523620D01*
Y203624D01*
X523899D01*
Y203344D01*
D02*
G37*
G36*
X597555D02*
X598113D01*
Y203065D01*
X598392D01*
Y202787D01*
X598671D01*
Y202507D01*
X598950D01*
Y202229D01*
X599229D01*
Y201670D01*
X599508D01*
Y198881D01*
X599229D01*
Y198323D01*
X598950D01*
Y198043D01*
X598671D01*
Y197765D01*
X598392D01*
Y197486D01*
X597834D01*
Y197765D01*
X598113D01*
Y198043D01*
X598392D01*
Y198323D01*
X598671D01*
Y199160D01*
X598950D01*
Y200275D01*
Y200555D01*
Y201392D01*
X598671D01*
Y201950D01*
X598392D01*
Y202507D01*
X598113D01*
Y202787D01*
X597834D01*
Y203065D01*
X597555D01*
Y203344D01*
X596997D01*
Y203624D01*
X597555D01*
Y203344D01*
D02*
G37*
G36*
X597834Y197207D02*
X597276D01*
Y197486D01*
X597834D01*
Y197207D01*
D02*
G37*
G36*
X590580Y203065D02*
X590301D01*
Y197765D01*
X590580D01*
Y197486D01*
X590859D01*
Y197207D01*
X589185D01*
Y197486D01*
X589743D01*
Y199997D01*
Y200275D01*
Y203344D01*
X590580D01*
Y203065D01*
D02*
G37*
G36*
X586674Y197765D02*
Y197486D01*
X586116D01*
Y197207D01*
X585558D01*
Y197486D01*
X585837D01*
Y197765D01*
X586116D01*
Y198043D01*
X586674D01*
Y197765D01*
D02*
G37*
G36*
X575793Y197486D02*
X576072D01*
Y197207D01*
X574677D01*
Y197486D01*
X574956D01*
Y197765D01*
X575235D01*
Y198043D01*
X575514D01*
Y198602D01*
X575793D01*
Y197486D01*
D02*
G37*
G36*
X571887Y203065D02*
X571608D01*
Y198043D01*
X571887D01*
Y197486D01*
X572166D01*
Y197207D01*
X570771D01*
Y197486D01*
X571050D01*
Y197765D01*
X571329D01*
Y202229D01*
X571050D01*
Y203065D01*
X570771D01*
Y203344D01*
X571050D01*
Y203624D01*
X571887D01*
Y203065D01*
D02*
G37*
G36*
X569376D02*
X569097D01*
Y202507D01*
X568818D01*
Y198602D01*
X569097D01*
Y197486D01*
X569655D01*
Y197207D01*
X567702D01*
Y197486D01*
X568260D01*
Y197765D01*
X568539D01*
Y198043D01*
Y198323D01*
Y201950D01*
X568260D01*
Y202787D01*
X568539D01*
Y203344D01*
X569376D01*
Y203065D01*
D02*
G37*
G36*
X562959Y203344D02*
X563238D01*
Y203065D01*
X563517D01*
Y202229D01*
X563796D01*
Y201950D01*
X564075D01*
Y201392D01*
X564354D01*
Y200833D01*
X564633D01*
Y200275D01*
X564912D01*
Y199718D01*
X565191D01*
Y199160D01*
X565470D01*
Y198602D01*
X565749D01*
Y198323D01*
X566028D01*
Y198602D01*
X566307D01*
Y198043D01*
X566028D01*
Y197486D01*
X565749D01*
Y197207D01*
X565470D01*
Y197765D01*
X565191D01*
Y198323D01*
X564912D01*
Y198881D01*
X564633D01*
Y199438D01*
X564354D01*
Y199997D01*
X564075D01*
Y200833D01*
X563796D01*
Y201392D01*
X563517D01*
Y201670D01*
X563238D01*
Y201950D01*
X562959D01*
Y202787D01*
X562680D01*
Y203065D01*
X562401D01*
Y203344D01*
X562680D01*
Y203624D01*
X562959D01*
Y203344D01*
D02*
G37*
G36*
Y198881D02*
Y198602D01*
Y197765D01*
X563238D01*
Y197486D01*
X563517D01*
Y197207D01*
X561843D01*
Y197486D01*
X562401D01*
Y197765D01*
X562680D01*
Y201112D01*
X562959D01*
Y198881D01*
D02*
G37*
G36*
X560727Y203065D02*
X560448D01*
Y197486D01*
X561006D01*
Y197207D01*
X559332D01*
Y197486D01*
X559890D01*
Y203065D01*
X559611D01*
Y203344D01*
X560727D01*
Y203065D01*
D02*
G37*
G36*
X551520D02*
X551799D01*
Y202787D01*
X552078D01*
Y202507D01*
X552357D01*
Y202229D01*
X552636D01*
Y201950D01*
X552915D01*
Y201670D01*
X553194D01*
Y201392D01*
X553473D01*
Y201112D01*
X553752D01*
Y200833D01*
X554031D01*
Y200555D01*
X554310D01*
Y199997D01*
X554589D01*
Y199718D01*
X554868D01*
Y199438D01*
X555147D01*
Y199160D01*
X555426D01*
Y198881D01*
X555705D01*
Y198602D01*
X555984D01*
Y198323D01*
X556263D01*
Y197486D01*
X556542D01*
Y197207D01*
X555984D01*
Y197486D01*
X555705D01*
Y197765D01*
X555426D01*
Y198323D01*
X555147D01*
Y198602D01*
X554868D01*
Y198881D01*
X554589D01*
Y199160D01*
X554310D01*
Y199438D01*
X554031D01*
Y199718D01*
X553752D01*
Y199997D01*
X553473D01*
Y200275D01*
X553194D01*
Y200833D01*
X552915D01*
Y201112D01*
X552636D01*
Y201392D01*
X552357D01*
Y201670D01*
X552078D01*
Y201950D01*
X551799D01*
Y202229D01*
X551520D01*
Y202507D01*
X550962D01*
Y203065D01*
X550683D01*
Y203344D01*
X551520D01*
Y203065D01*
D02*
G37*
G36*
X551241Y197765D02*
X551520D01*
Y197486D01*
X551799D01*
Y197207D01*
X550404D01*
Y197486D01*
X550683D01*
Y197765D01*
X550962D01*
Y198323D01*
Y198602D01*
Y202229D01*
X551241D01*
Y197765D01*
D02*
G37*
G36*
X547893Y197486D02*
X547614D01*
Y197207D01*
X547056D01*
Y197486D01*
X547335D01*
Y197765D01*
X547893D01*
Y197486D01*
D02*
G37*
G36*
X541755Y197765D02*
X541476D01*
Y197486D01*
X541197D01*
Y197207D01*
X540639D01*
Y197486D01*
X540918D01*
Y197765D01*
X541197D01*
Y198043D01*
X541476D01*
Y198602D01*
X541755D01*
Y197765D01*
D02*
G37*
G36*
X524736Y197486D02*
X524457D01*
Y197207D01*
X523899D01*
Y197486D01*
X524178D01*
Y197765D01*
X524736D01*
Y197486D01*
D02*
G37*
G36*
X518319Y203065D02*
X518040D01*
Y197486D01*
X518598D01*
Y197207D01*
X517203D01*
Y197486D01*
X517482D01*
Y203065D01*
X517203D01*
Y203344D01*
X518319D01*
Y203065D01*
D02*
G37*
G36*
X513576Y202787D02*
X513297D01*
Y201670D01*
X513576D01*
Y201112D01*
X514134D01*
Y200833D01*
X514413D01*
Y200555D01*
X514971D01*
Y200275D01*
X515250D01*
Y199997D01*
X515529D01*
Y199718D01*
X515808D01*
Y197765D01*
X515529D01*
Y197486D01*
X515250D01*
Y197207D01*
X514692D01*
Y197486D01*
X514971D01*
Y197765D01*
X515250D01*
Y199438D01*
X514971D01*
Y199718D01*
X514413D01*
Y199997D01*
X514134D01*
Y200275D01*
X513576D01*
Y200555D01*
X513297D01*
Y200833D01*
X513018D01*
Y201392D01*
X512739D01*
Y201670D01*
Y202507D01*
X513018D01*
Y203065D01*
X513297D01*
Y203344D01*
X513576D01*
Y202787D01*
D02*
G37*
G36*
X506880Y198043D02*
X506601D01*
Y197765D01*
X506880D01*
Y197486D01*
X507159D01*
Y197207D01*
X505485D01*
Y197486D01*
X506043D01*
Y197765D01*
X506322D01*
Y198323D01*
X506601D01*
Y198881D01*
X506880D01*
Y198043D01*
D02*
G37*
G36*
X502695Y197486D02*
X503253D01*
Y197207D01*
X501858D01*
Y197486D01*
X502137D01*
Y203065D01*
X501858D01*
Y203624D01*
X502695D01*
Y197486D01*
D02*
G37*
G36*
X594486Y202229D02*
X594207D01*
Y201670D01*
X593928D01*
Y199438D01*
X594207D01*
Y198602D01*
X594486D01*
Y198323D01*
X594765D01*
Y198043D01*
X595044D01*
Y197765D01*
X595323D01*
Y197486D01*
X595881D01*
Y197207D01*
X597276D01*
Y196928D01*
X595602D01*
Y197207D01*
X595044D01*
Y197486D01*
X594765D01*
Y197765D01*
X594207D01*
Y198043D01*
X593928D01*
Y198602D01*
X593649D01*
Y199160D01*
X593370D01*
Y199438D01*
Y199718D01*
Y201950D01*
X593649D01*
Y202229D01*
X593928D01*
Y202507D01*
X594207D01*
Y202787D01*
X594486D01*
Y202229D01*
D02*
G37*
G36*
X582768Y202787D02*
X582489D01*
Y202507D01*
X582210D01*
Y201950D01*
X581931D01*
Y201112D01*
X581652D01*
Y199997D01*
X581931D01*
Y198881D01*
X582210D01*
Y198323D01*
X582489D01*
Y198043D01*
X582768D01*
Y197765D01*
X583047D01*
Y197486D01*
X583605D01*
Y197207D01*
X585279D01*
Y196928D01*
X583605D01*
Y197207D01*
X582768D01*
Y197486D01*
X582489D01*
Y197765D01*
X582210D01*
Y198043D01*
X581931D01*
Y198323D01*
X581652D01*
Y198602D01*
X581373D01*
Y199438D01*
X581094D01*
Y201392D01*
X581373D01*
Y201950D01*
X581652D01*
Y202229D01*
X581931D01*
Y202787D01*
X582210D01*
Y203065D01*
X582768D01*
Y202787D01*
D02*
G37*
G36*
X544824Y203065D02*
X544545D01*
Y202787D01*
X544266D01*
Y202507D01*
X543987D01*
Y202229D01*
X543708D01*
Y201392D01*
X543429D01*
Y199718D01*
X543708D01*
Y198881D01*
X543987D01*
Y198323D01*
X544266D01*
Y198043D01*
X544545D01*
Y197765D01*
X544824D01*
Y197486D01*
X545382D01*
Y197207D01*
X546777D01*
Y196928D01*
X545382D01*
Y197207D01*
X544545D01*
Y197486D01*
X544266D01*
Y197765D01*
X543987D01*
Y198043D01*
X543708D01*
Y198323D01*
X543429D01*
Y198881D01*
X543150D01*
Y199438D01*
X542871D01*
Y201392D01*
X543150D01*
Y202229D01*
X543429D01*
Y202507D01*
X543708D01*
Y202787D01*
X543987D01*
Y203065D01*
X544266D01*
Y203344D01*
X544824D01*
Y203065D01*
D02*
G37*
G36*
X538128D02*
X537849D01*
Y202787D01*
X537570D01*
Y202507D01*
X537291D01*
Y201950D01*
X537012D01*
Y201392D01*
X536733D01*
Y199438D01*
X537012D01*
Y198881D01*
X537291D01*
Y198323D01*
X537570D01*
Y198043D01*
X537849D01*
Y197765D01*
X538128D01*
Y197486D01*
X538686D01*
Y197207D01*
X540360D01*
Y196928D01*
X538686D01*
Y197207D01*
X537849D01*
Y197486D01*
X537291D01*
Y197765D01*
X537012D01*
Y198043D01*
X536733D01*
Y198602D01*
X536454D01*
Y199160D01*
X536175D01*
Y201392D01*
X536454D01*
Y201950D01*
X536733D01*
Y202507D01*
X537012D01*
Y202787D01*
X537291D01*
Y203065D01*
X537570D01*
Y203344D01*
X538128D01*
Y203065D01*
D02*
G37*
G36*
X521667D02*
X521388D01*
Y202787D01*
X521109D01*
Y202507D01*
X520830D01*
Y201950D01*
X520551D01*
Y201112D01*
X520272D01*
Y199718D01*
X520551D01*
Y198881D01*
X520830D01*
Y198323D01*
X521109D01*
Y198043D01*
X521388D01*
Y197765D01*
X521667D01*
Y197486D01*
X522225D01*
Y197207D01*
X523620D01*
Y196928D01*
X522225D01*
Y197207D01*
X521388D01*
Y197486D01*
X521109D01*
Y197765D01*
X520830D01*
Y198043D01*
X520551D01*
Y198323D01*
X520272D01*
Y198881D01*
X519993D01*
Y199438D01*
X519714D01*
Y201670D01*
X519993D01*
Y202229D01*
X520272D01*
Y202507D01*
X520551D01*
Y202787D01*
X520830D01*
Y203065D01*
X521109D01*
Y203344D01*
X521667D01*
Y203065D01*
D02*
G37*
G36*
X512739Y197486D02*
X513297D01*
Y197207D01*
X514692D01*
Y196928D01*
X513018D01*
Y197207D01*
X512460D01*
Y198043D01*
X512739D01*
Y197486D01*
D02*
G37*
G36*
X559631Y189581D02*
X559377D01*
Y189595D01*
Y189623D01*
X559363Y189666D01*
X559349Y189736D01*
X559321Y189891D01*
X559279Y190103D01*
X559222Y190328D01*
X559138Y190568D01*
X559053Y190808D01*
X558940Y191019D01*
X558926Y191047D01*
X558884Y191104D01*
X558814Y191202D01*
X558715Y191329D01*
X558588Y191456D01*
X558433Y191597D01*
X558264Y191738D01*
X558052Y191865D01*
X558024Y191879D01*
X557954Y191921D01*
X557841Y191964D01*
X557686Y192034D01*
X557503Y192090D01*
X557305Y192133D01*
X557080Y192175D01*
X556854Y192189D01*
X556741D01*
X556614Y192161D01*
X556445Y192133D01*
X556262Y192076D01*
X556065Y192006D01*
X555881Y191893D01*
X555698Y191752D01*
X555684Y191738D01*
X555628Y191682D01*
X555557Y191583D01*
X555472Y191470D01*
X555388Y191329D01*
X555317Y191160D01*
X555261Y190977D01*
X555247Y190779D01*
Y190765D01*
Y190709D01*
X555261Y190638D01*
X555289Y190526D01*
X555317Y190413D01*
X555360Y190286D01*
X555430Y190159D01*
X555529Y190018D01*
X555557Y189990D01*
X555585Y189962D01*
X555614Y189934D01*
X555670Y189877D01*
X555740Y189821D01*
X555839Y189750D01*
X555938Y189666D01*
X556065Y189581D01*
X556206Y189468D01*
X556361Y189370D01*
X556544Y189243D01*
X556755Y189116D01*
X556981Y188975D01*
X557235Y188834D01*
X557517Y188679D01*
X557531Y188665D01*
X557573Y188651D01*
X557644Y188608D01*
X557728Y188566D01*
X557827Y188510D01*
X557939Y188439D01*
X558207Y188284D01*
X558503Y188115D01*
X558785Y187946D01*
X559039Y187777D01*
X559152Y187692D01*
X559250Y187622D01*
X559279Y187608D01*
X559335Y187551D01*
X559420Y187481D01*
X559518Y187382D01*
X559645Y187255D01*
X559758Y187100D01*
X559885Y186945D01*
X559984Y186762D01*
X559998Y186734D01*
X560026Y186677D01*
X560068Y186579D01*
X560111Y186452D01*
X560153Y186297D01*
X560195Y186113D01*
X560223Y185916D01*
X560237Y185719D01*
Y185704D01*
Y185676D01*
Y185620D01*
X560223Y185549D01*
X560209Y185451D01*
X560195Y185352D01*
X560139Y185112D01*
X560040Y184830D01*
X559984Y184690D01*
X559899Y184534D01*
X559800Y184379D01*
X559702Y184238D01*
X559575Y184083D01*
X559434Y183942D01*
X559420Y183928D01*
X559392Y183914D01*
X559349Y183872D01*
X559293Y183830D01*
X559208Y183773D01*
X559110Y183703D01*
X558997Y183632D01*
X558870Y183576D01*
X558729Y183505D01*
X558574Y183435D01*
X558222Y183308D01*
X557813Y183223D01*
X557601Y183209D01*
X557361Y183195D01*
X557221D01*
X557122Y183209D01*
X557009D01*
X556882Y183223D01*
X556614Y183266D01*
X556600D01*
X556572Y183280D01*
X556516D01*
X556431Y183308D01*
X556318Y183336D01*
X556163Y183379D01*
X555980Y183435D01*
X555755Y183505D01*
X555726Y183519D01*
X555656Y183533D01*
X555543Y183576D01*
X555416Y183618D01*
X555275Y183646D01*
X555134Y183689D01*
X555021Y183703D01*
X554937Y183717D01*
X554909D01*
X554838Y183703D01*
X554754Y183675D01*
X554669Y183604D01*
X554655Y183590D01*
X554641Y183562D01*
X554613Y183519D01*
X554599Y183463D01*
X554570Y183393D01*
X554542Y183308D01*
X554528Y183195D01*
X554274D01*
Y186311D01*
X554528D01*
Y186297D01*
X554542Y186268D01*
Y186212D01*
X554556Y186156D01*
X554570Y186071D01*
X554599Y185972D01*
X554655Y185761D01*
X554711Y185521D01*
X554796Y185268D01*
X554895Y185042D01*
X554993Y184830D01*
X555007Y184816D01*
X555050Y184746D01*
X555120Y184661D01*
X555219Y184548D01*
X555346Y184422D01*
X555501Y184295D01*
X555684Y184154D01*
X555896Y184027D01*
X555910D01*
X555924Y184013D01*
X556008Y183985D01*
X556121Y183928D01*
X556290Y183872D01*
X556488Y183815D01*
X556713Y183759D01*
X556953Y183731D01*
X557221Y183717D01*
X557305D01*
X557361Y183731D01*
X557517Y183745D01*
X557700Y183773D01*
X557911Y183830D01*
X558137Y183900D01*
X558348Y184013D01*
X558546Y184154D01*
X558574Y184168D01*
X558630Y184238D01*
X558701Y184323D01*
X558799Y184450D01*
X558884Y184605D01*
X558969Y184788D01*
X559025Y184986D01*
X559039Y185211D01*
Y185225D01*
Y185268D01*
X559025Y185338D01*
X559011Y185422D01*
X558997Y185521D01*
X558955Y185634D01*
X558912Y185761D01*
X558842Y185888D01*
X558828Y185902D01*
X558814Y185944D01*
X558757Y186015D01*
X558701Y186099D01*
X558630Y186198D01*
X558532Y186297D01*
X558419Y186409D01*
X558278Y186522D01*
X558264Y186536D01*
X558222Y186564D01*
X558137Y186621D01*
X557996Y186705D01*
X557911Y186762D01*
X557813Y186832D01*
X557686Y186903D01*
X557559Y186973D01*
X557404Y187058D01*
X557235Y187157D01*
X557051Y187269D01*
X556840Y187382D01*
X556826Y187396D01*
X556784Y187410D01*
X556727Y187438D01*
X556657Y187495D01*
X556558Y187551D01*
X556445Y187608D01*
X556191Y187763D01*
X555924Y187918D01*
X555642Y188101D01*
X555388Y188270D01*
X555275Y188355D01*
X555177Y188425D01*
X555148Y188439D01*
X555092Y188496D01*
X555007Y188580D01*
X554895Y188679D01*
X554782Y188806D01*
X554655Y188961D01*
X554528Y189116D01*
X554429Y189285D01*
X554415Y189313D01*
X554387Y189370D01*
X554345Y189468D01*
X554302Y189595D01*
X554260Y189736D01*
X554218Y189919D01*
X554190Y190103D01*
X554176Y190314D01*
Y190328D01*
Y190357D01*
Y190413D01*
X554190Y190483D01*
X554204Y190568D01*
X554218Y190667D01*
X554274Y190892D01*
X554359Y191160D01*
X554486Y191442D01*
X554570Y191583D01*
X554683Y191738D01*
X554796Y191865D01*
X554923Y192006D01*
X554937Y192020D01*
X554951Y192034D01*
X554993Y192076D01*
X555064Y192119D01*
X555134Y192175D01*
X555219Y192231D01*
X555332Y192302D01*
X555444Y192372D01*
X555726Y192499D01*
X556050Y192612D01*
X556417Y192697D01*
X556628Y192711D01*
X556840Y192725D01*
X556967D01*
X557108Y192711D01*
X557305Y192682D01*
X557531Y192640D01*
X557799Y192570D01*
X558080Y192485D01*
X558377Y192358D01*
X558391D01*
X558433Y192330D01*
X558503Y192316D01*
X558588Y192288D01*
X558757Y192231D01*
X558842Y192217D01*
X558912Y192203D01*
X558940D01*
X559011Y192217D01*
X559110Y192246D01*
X559194Y192302D01*
X559208Y192316D01*
X559236Y192344D01*
X559265Y192386D01*
X559293Y192443D01*
X559321Y192527D01*
X559349Y192612D01*
X559377Y192725D01*
X559631D01*
Y189581D01*
D02*
G37*
G36*
X537555Y189849D02*
X537301D01*
Y189863D01*
X537287Y189891D01*
X537259Y189948D01*
X537231Y190018D01*
X537203Y190117D01*
X537160Y190215D01*
X537048Y190441D01*
X536921Y190709D01*
X536766Y190977D01*
X536583Y191231D01*
X536385Y191456D01*
X536371Y191470D01*
X536343Y191484D01*
X536301Y191527D01*
X536244Y191583D01*
X536160Y191639D01*
X536061Y191710D01*
X535948Y191780D01*
X535821Y191851D01*
X535680Y191921D01*
X535511Y191992D01*
X535159Y192119D01*
X534750Y192217D01*
X534538Y192231D01*
X534299Y192246D01*
X534228D01*
X534130Y192231D01*
X534017D01*
X533876Y192203D01*
X533707Y192175D01*
X533523Y192133D01*
X533326Y192076D01*
X533115Y192006D01*
X532889Y191907D01*
X532678Y191794D01*
X532452Y191667D01*
X532241Y191498D01*
X532029Y191315D01*
X531846Y191104D01*
X531663Y190864D01*
X531649Y190850D01*
X531634Y190808D01*
X531592Y190751D01*
X531550Y190653D01*
X531494Y190540D01*
X531423Y190413D01*
X531353Y190258D01*
X531296Y190075D01*
X531226Y189891D01*
X531155Y189666D01*
X531085Y189440D01*
X531028Y189200D01*
X530986Y188947D01*
X530944Y188665D01*
X530930Y188383D01*
X530916Y188087D01*
Y188073D01*
Y188030D01*
Y187960D01*
X530930Y187861D01*
Y187749D01*
X530944Y187622D01*
X530958Y187467D01*
X530972Y187311D01*
X531042Y186945D01*
X531127Y186536D01*
X531240Y186127D01*
X531409Y185719D01*
Y185704D01*
X531437Y185676D01*
X531465Y185620D01*
X531508Y185549D01*
X531550Y185451D01*
X531606Y185352D01*
X531761Y185126D01*
X531959Y184859D01*
X532170Y184605D01*
X532438Y184351D01*
X532720Y184140D01*
X532734D01*
X532762Y184126D01*
X532805Y184097D01*
X532861Y184069D01*
X532931Y184027D01*
X533030Y183985D01*
X533242Y183900D01*
X533495Y183801D01*
X533777Y183731D01*
X534073Y183675D01*
X534398Y183646D01*
X534482D01*
X534581Y183660D01*
X534708D01*
X534863Y183675D01*
X535018Y183703D01*
X535370Y183773D01*
X535398D01*
X535455Y183801D01*
X535539Y183830D01*
X535666Y183872D01*
X535807Y183914D01*
X535962Y183985D01*
X536287Y184140D01*
Y186804D01*
Y186818D01*
Y186832D01*
Y186917D01*
Y187030D01*
X536272Y187171D01*
X536258Y187326D01*
X536244Y187467D01*
X536216Y187593D01*
X536174Y187692D01*
Y187706D01*
X536160Y187734D01*
X536103Y187819D01*
X535990Y187918D01*
X535849Y188016D01*
X535835D01*
X535807Y188030D01*
X535751Y188059D01*
X535680Y188073D01*
X535568Y188101D01*
X535441Y188115D01*
X535286Y188129D01*
X535088D01*
Y188383D01*
X538613D01*
Y188129D01*
X538359D01*
X538274Y188115D01*
X538161Y188087D01*
X538035Y188045D01*
X537922Y187974D01*
X537809Y187889D01*
X537724Y187777D01*
Y187763D01*
X537710Y187720D01*
X537682Y187664D01*
X537668Y187565D01*
X537640Y187424D01*
X537612Y187255D01*
X537598Y187058D01*
Y186804D01*
Y183999D01*
X537584D01*
X537569Y183985D01*
X537527Y183957D01*
X537471Y183928D01*
X537316Y183858D01*
X537118Y183759D01*
X536879Y183660D01*
X536625Y183562D01*
X536343Y183477D01*
X536061Y183393D01*
X536047D01*
X536033Y183379D01*
X535990D01*
X535934Y183364D01*
X535864Y183350D01*
X535779Y183336D01*
X535568Y183294D01*
X535328Y183252D01*
X535046Y183223D01*
X534736Y183209D01*
X534398Y183195D01*
X534285D01*
X534144Y183209D01*
X533960Y183223D01*
X533749Y183252D01*
X533495Y183280D01*
X533213Y183336D01*
X532903Y183407D01*
X532593Y183491D01*
X532269Y183604D01*
X531931Y183745D01*
X531592Y183914D01*
X531268Y184097D01*
X530958Y184323D01*
X530662Y184591D01*
X530394Y184887D01*
X530380Y184901D01*
X530352Y184943D01*
X530295Y185014D01*
X530239Y185112D01*
X530154Y185225D01*
X530070Y185380D01*
X529985Y185535D01*
X529887Y185733D01*
X529788Y185930D01*
X529703Y186156D01*
X529619Y186395D01*
X529534Y186649D01*
X529478Y186917D01*
X529421Y187213D01*
X529393Y187495D01*
X529379Y187805D01*
Y187819D01*
Y187861D01*
Y187918D01*
X529393Y188016D01*
Y188115D01*
X529407Y188242D01*
X529421Y188397D01*
X529450Y188552D01*
X529520Y188904D01*
X529619Y189299D01*
X529760Y189708D01*
X529943Y190117D01*
X529957Y190131D01*
X529971Y190173D01*
X530013Y190244D01*
X530070Y190328D01*
X530140Y190441D01*
X530225Y190568D01*
X530323Y190709D01*
X530436Y190864D01*
X530704Y191188D01*
X531028Y191527D01*
X531395Y191851D01*
X531606Y191992D01*
X531818Y192133D01*
X531832Y192147D01*
X531860Y192161D01*
X531917Y192189D01*
X532001Y192231D01*
X532086Y192274D01*
X532212Y192316D01*
X532339Y192372D01*
X532494Y192429D01*
X532649Y192485D01*
X532833Y192542D01*
X533228Y192626D01*
X533679Y192697D01*
X534172Y192725D01*
X534355D01*
X534482Y192711D01*
X534609D01*
X534764Y192697D01*
X535074Y192640D01*
X535088D01*
X535145Y192626D01*
X535243Y192598D01*
X535370Y192570D01*
X535539Y192513D01*
X535737Y192457D01*
X535962Y192386D01*
X536230Y192288D01*
X536244D01*
X536287Y192260D01*
X536357Y192246D01*
X536427Y192217D01*
X536597Y192175D01*
X536667Y192147D01*
X536752D01*
X536794Y192161D01*
X536865Y192189D01*
X536935Y192260D01*
X536949Y192288D01*
X536963Y192316D01*
X536991Y192358D01*
X537006Y192429D01*
X537034Y192499D01*
X537048Y192598D01*
X537062Y192725D01*
X537316D01*
X537555Y189849D01*
D02*
G37*
G36*
X548565Y192260D02*
X548142D01*
X548043Y192246D01*
X547917Y192217D01*
X547776Y192175D01*
X547635Y192104D01*
X547508Y192020D01*
X547409Y191907D01*
Y191893D01*
X547381Y191865D01*
X547367Y191794D01*
X547339Y191710D01*
X547310Y191583D01*
X547296Y191414D01*
X547268Y191202D01*
Y190935D01*
Y183266D01*
X547014D01*
X541023Y190582D01*
Y184986D01*
Y184971D01*
Y184943D01*
Y184901D01*
Y184845D01*
X541037Y184704D01*
X541051Y184534D01*
X541065Y184351D01*
X541094Y184182D01*
X541136Y184041D01*
X541164Y183971D01*
X541192Y183928D01*
X541206Y183914D01*
X541249Y183886D01*
X541305Y183844D01*
X541390Y183801D01*
X541502Y183745D01*
X541643Y183703D01*
X541813Y183675D01*
X541996Y183660D01*
X542320D01*
Y183407D01*
X539134D01*
Y183660D01*
X539543D01*
X539642Y183675D01*
X539768Y183703D01*
X539910Y183745D01*
X540050Y183801D01*
X540177Y183886D01*
X540276Y183999D01*
X540290Y184013D01*
X540304Y184041D01*
X540332Y184111D01*
X540361Y184196D01*
X540389Y184337D01*
X540403Y184506D01*
X540431Y184718D01*
Y184986D01*
Y191315D01*
X540417Y191329D01*
X540361Y191386D01*
X540290Y191470D01*
X540205Y191555D01*
X539994Y191752D01*
X539895Y191837D01*
X539811Y191907D01*
X539797Y191921D01*
X539768Y191935D01*
X539726Y191964D01*
X539670Y192006D01*
X539585Y192048D01*
X539473Y192090D01*
X539360Y192147D01*
X539219Y192189D01*
X539205D01*
X539176Y192203D01*
X539134Y192217D01*
X539078Y192231D01*
X538993D01*
X538895Y192246D01*
X538782Y192260D01*
X538641D01*
Y192513D01*
X541094D01*
X546676Y185704D01*
Y190935D01*
Y190949D01*
Y190977D01*
Y191019D01*
Y191061D01*
X546662Y191202D01*
X546648Y191371D01*
X546634Y191555D01*
X546591Y191724D01*
X546549Y191879D01*
X546507Y191935D01*
X546479Y191978D01*
X546465Y191992D01*
X546436Y192020D01*
X546366Y192062D01*
X546281Y192119D01*
X546169Y192175D01*
X546042Y192217D01*
X545872Y192246D01*
X545689Y192260D01*
X545379D01*
Y192513D01*
X548565D01*
Y192260D01*
D02*
G37*
G36*
X571134Y189313D02*
X571078D01*
X571021Y189299D01*
X570937Y189285D01*
X570782Y189243D01*
X570711Y189200D01*
X570655Y189158D01*
X570641Y189144D01*
X570613Y189116D01*
X570570Y189074D01*
X570514Y189003D01*
X570444Y188904D01*
X570373Y188792D01*
X570303Y188665D01*
X570232Y188496D01*
X568075Y183223D01*
X567793D01*
X565594Y188411D01*
Y188425D01*
X565566Y188468D01*
X565538Y188538D01*
X565510Y188608D01*
X565411Y188778D01*
X565369Y188848D01*
X565312Y188919D01*
Y188933D01*
X565284Y188947D01*
X565228Y189017D01*
X565115Y189102D01*
X564974Y189186D01*
X564946Y189200D01*
X564917Y189215D01*
X564875Y189229D01*
X564819Y189243D01*
X564734Y189271D01*
X564636Y189285D01*
X564523Y189313D01*
Y189553D01*
X567413D01*
Y189313D01*
X567131D01*
X567074Y189299D01*
X566948Y189257D01*
X566821Y189172D01*
X566806Y189144D01*
X566764Y189088D01*
X566708Y188975D01*
X566694Y188834D01*
Y188820D01*
Y188792D01*
X566708Y188749D01*
Y188679D01*
X566722Y188594D01*
X566750Y188510D01*
X566835Y188284D01*
X568259Y184887D01*
X569696Y188411D01*
Y188425D01*
X569725Y188468D01*
X569739Y188538D01*
X569767Y188623D01*
X569809Y188806D01*
X569837Y188890D01*
Y188975D01*
Y188989D01*
Y189031D01*
X569823Y189088D01*
X569795Y189130D01*
X569781Y189144D01*
X569739Y189186D01*
X569682Y189229D01*
X569598Y189271D01*
X569570Y189285D01*
X569541D01*
X569499Y189299D01*
X569429D01*
X569358Y189313D01*
X569132D01*
Y189553D01*
X571134D01*
Y189313D01*
D02*
G37*
G36*
X576463Y186762D02*
X577689D01*
Y185803D01*
X576463D01*
Y183407D01*
X575349D01*
Y185803D01*
X571501D01*
Y186663D01*
X575716Y192697D01*
X576463D01*
Y186762D01*
D02*
G37*
G36*
X552977Y192260D02*
X552555D01*
X552456Y192246D01*
X552329Y192217D01*
X552202Y192175D01*
X552075Y192119D01*
X551948Y192034D01*
X551836Y191921D01*
Y191907D01*
X551807Y191879D01*
X551793Y191808D01*
X551765Y191710D01*
X551737Y191583D01*
X551709Y191400D01*
X551695Y191174D01*
X551680Y190906D01*
Y185014D01*
Y185000D01*
Y184986D01*
Y184901D01*
Y184788D01*
X551695Y184647D01*
Y184492D01*
X551723Y184337D01*
X551737Y184196D01*
X551765Y184097D01*
X551779Y184069D01*
X551821Y183999D01*
X551906Y183914D01*
X551962Y183858D01*
X552033Y183815D01*
X552047D01*
X552089Y183787D01*
X552146Y183773D01*
X552216Y183745D01*
X552315Y183717D01*
X552413Y183689D01*
X552526Y183675D01*
X552639Y183660D01*
X552977D01*
Y183407D01*
X549101D01*
Y183660D01*
X549510D01*
X549608Y183675D01*
X549721Y183703D01*
X549862Y183745D01*
X549989Y183801D01*
X550116Y183872D01*
X550229Y183985D01*
X550243Y183999D01*
X550257Y184027D01*
X550285Y184097D01*
X550313Y184196D01*
X550341Y184323D01*
X550369Y184506D01*
X550398Y184732D01*
Y184873D01*
Y185014D01*
Y190906D01*
Y190920D01*
Y190935D01*
Y191019D01*
Y191132D01*
X550383Y191273D01*
X550369Y191428D01*
X550355Y191569D01*
X550327Y191710D01*
X550299Y191808D01*
Y191823D01*
X550285Y191837D01*
X550243Y191907D01*
X550158Y192006D01*
X550102Y192048D01*
X550031Y192090D01*
X550017Y192104D01*
X549975Y192119D01*
X549918Y192147D01*
X549848Y192175D01*
X549749Y192203D01*
X549650Y192231D01*
X549538Y192260D01*
X549101D01*
Y192513D01*
X552977D01*
Y192260D01*
D02*
G37*
G36*
X528547D02*
X528124D01*
X528026Y192246D01*
X527899Y192217D01*
X527772Y192175D01*
X527645Y192119D01*
X527518Y192034D01*
X527405Y191921D01*
Y191907D01*
X527377Y191879D01*
X527363Y191808D01*
X527335Y191710D01*
X527307Y191583D01*
X527279Y191400D01*
X527265Y191174D01*
X527250Y190906D01*
Y185014D01*
Y185000D01*
Y184986D01*
Y184901D01*
Y184788D01*
X527265Y184647D01*
Y184492D01*
X527293Y184337D01*
X527307Y184196D01*
X527335Y184097D01*
X527349Y184069D01*
X527391Y183999D01*
X527476Y183914D01*
X527532Y183858D01*
X527603Y183815D01*
X527617D01*
X527659Y183787D01*
X527716Y183773D01*
X527786Y183745D01*
X527885Y183717D01*
X527983Y183689D01*
X528096Y183675D01*
X528209Y183660D01*
X528547D01*
Y183407D01*
X524671D01*
Y183660D01*
X525079D01*
X525178Y183675D01*
X525291Y183703D01*
X525432Y183745D01*
X525559Y183801D01*
X525686Y183872D01*
X525798Y183985D01*
X525812Y183999D01*
X525827Y184027D01*
X525855Y184097D01*
X525883Y184196D01*
X525911Y184323D01*
X525939Y184506D01*
X525967Y184732D01*
Y184873D01*
Y185014D01*
Y190906D01*
Y190920D01*
Y190935D01*
Y191019D01*
Y191132D01*
X525953Y191273D01*
X525939Y191428D01*
X525925Y191569D01*
X525897Y191710D01*
X525869Y191808D01*
Y191823D01*
X525855Y191837D01*
X525812Y191907D01*
X525728Y192006D01*
X525672Y192048D01*
X525601Y192090D01*
X525587Y192104D01*
X525545Y192119D01*
X525488Y192147D01*
X525418Y192175D01*
X525319Y192203D01*
X525220Y192231D01*
X525108Y192260D01*
X524671D01*
Y192513D01*
X528547D01*
Y192260D01*
D02*
G37*
%LPC*%
G36*
X555284Y290334D02*
X553331D01*
Y289846D01*
X550890D01*
Y289358D01*
X548450D01*
Y288869D01*
X546497D01*
Y287893D01*
X546009D01*
Y285940D01*
X545521D01*
Y283500D01*
X545032D01*
Y281059D01*
X544544D01*
Y279106D01*
X547473D01*
Y278618D01*
X553819D01*
Y278130D01*
X556260D01*
Y281547D01*
X555772D01*
Y289358D01*
X555284D01*
Y290334D01*
D02*
G37*
G36*
X613737Y227588D02*
X613458D01*
Y226751D01*
X613179D01*
Y226193D01*
X612900D01*
Y225635D01*
X612621D01*
Y225356D01*
Y224798D01*
X612342D01*
Y224240D01*
X612063D01*
Y223403D01*
X611784D01*
Y222845D01*
X611505D01*
Y222008D01*
X611226D01*
Y221450D01*
X610947D01*
Y220613D01*
X610668D01*
Y219776D01*
X610389D01*
Y219218D01*
X610110D01*
Y218381D01*
X609831D01*
Y217823D01*
X611784D01*
Y217544D01*
X615132D01*
Y217823D01*
X617364D01*
Y218381D01*
X617085D01*
Y219218D01*
X616806D01*
Y219776D01*
X616527D01*
Y220613D01*
X616248D01*
Y221450D01*
X615969D01*
Y222287D01*
X615690D01*
Y222845D01*
X615411D01*
Y223682D01*
X615132D01*
Y224519D01*
X614853D01*
Y225077D01*
X614574D01*
Y225914D01*
X614295D01*
Y226472D01*
X614016D01*
Y227309D01*
X613737D01*
Y227588D01*
D02*
G37*
G36*
X575349Y191273D02*
X572149Y186762D01*
X575349D01*
Y191273D01*
D02*
G37*
%LPD*%
D10*
X532600Y104160D02*
G03*
X532600Y104160I-1000J0D01*
G01*
X469986Y264010D02*
G03*
X469986Y264010I-2916J0D01*
G01*
X183560Y80320D02*
G03*
X183560Y80320I-1000J0D01*
G01*
X404720Y210770D02*
G03*
X404720Y210770I-1000J0D01*
G01*
X127882Y388865D02*
G03*
X127882Y388865I-1000J0D01*
G01*
X86830Y120500D02*
G03*
X86830Y120500I-1000J0D01*
G01*
X532600Y15260D02*
G03*
X532600Y15260I-1000J0D01*
G01*
X690500Y64000D02*
G03*
X690500Y64000I-1000J0D01*
G01*
X516190Y68990D02*
G03*
X516190Y68990I-1000J0D01*
G01*
X460740Y156530D02*
G03*
X460740Y156530I-1000J0D01*
G01*
X70010Y334260D02*
G03*
X70010Y334260I-1000J0D01*
G01*
X71280Y98040D02*
G03*
X71280Y98040I-1000J0D01*
G01*
X133370Y61330D02*
X135870D01*
X133370Y75830D02*
X135870D01*
X90940Y74260D02*
X91940D01*
X90940Y85760D02*
X91940D01*
X289570Y414010D02*
X449570D01*
X289570Y254010D02*
X449570D01*
X370907Y9029D02*
Y36253D01*
X352286Y9029D02*
Y36253D01*
X396307Y9029D02*
Y36253D01*
X377686Y9029D02*
Y36253D01*
X262041Y87153D02*
Y114378D01*
X243419Y87153D02*
Y114378D01*
X195159Y86718D02*
Y113942D01*
X213781Y86718D02*
Y113942D01*
X189651Y86718D02*
Y113942D01*
X171029Y86718D02*
Y113942D01*
X319560Y12720D02*
Y14520D01*
Y38820D02*
Y40620D01*
X274560D02*
X319560D01*
X274560Y12720D02*
Y14520D01*
Y38820D02*
Y40620D01*
Y12720D02*
X319560D01*
X219289Y86718D02*
Y113942D01*
X237911Y86718D02*
Y113942D01*
X104942Y446665D02*
X126942D01*
X104942Y425165D02*
X126942D01*
X158442Y394435D02*
Y416435D01*
X136942Y394435D02*
Y416435D01*
X78319Y366118D02*
Y393342D01*
X96941Y366118D02*
Y393342D01*
X77049Y409298D02*
Y436522D01*
X95671Y409298D02*
Y436522D01*
X639400Y345780D02*
Y367780D01*
X617900Y345780D02*
Y367780D01*
X586060Y345870D02*
Y367870D01*
X564560Y345870D02*
Y367870D01*
X535260Y345870D02*
Y367870D01*
X513760Y345870D02*
Y367870D01*
X560660Y345870D02*
Y367870D01*
X539160Y345870D02*
Y367870D01*
X612730Y345750D02*
Y367750D01*
X591230Y345750D02*
Y367750D01*
X480481Y338178D02*
Y365402D01*
X461859Y338178D02*
Y365402D01*
X508590Y345870D02*
Y367870D01*
X487090Y345870D02*
Y367870D01*
X635590Y10380D02*
Y32380D01*
X614090Y10380D02*
Y32380D01*
X281260Y329480D02*
Y351480D01*
X259760Y329480D02*
Y351480D01*
X253320Y329360D02*
Y351360D01*
X231820Y329360D02*
Y351360D01*
X456375Y30352D02*
X483600D01*
X456375Y48973D02*
X483600D01*
X456452Y4951D02*
X483677D01*
X456452Y23573D02*
X483677D01*
X419530Y15920D02*
X441530D01*
X419530Y37420D02*
X441530D01*
X660990Y10380D02*
Y32380D01*
X639490Y10380D02*
Y32380D01*
X614050Y94570D02*
X636050D01*
X614050Y73070D02*
X636050D01*
X614050Y70440D02*
X636050D01*
X614050Y48940D02*
X636050D01*
X613840Y136480D02*
X635840D01*
X613840Y114980D02*
X635840D01*
X506100Y113710D02*
X528100D01*
X506100Y135210D02*
X528100D01*
X506100Y137840D02*
X528100D01*
X506100Y159340D02*
X528100D01*
X613840Y160610D02*
X635840D01*
X613840Y139110D02*
X635840D01*
X506309Y32108D02*
Y59332D01*
X524931Y32108D02*
Y59332D01*
X509190Y86990D02*
Y90990D01*
X521190Y86990D02*
Y90990D01*
X372540Y208960D02*
X394540D01*
X372540Y230460D02*
X394540D01*
X465740Y174530D02*
Y178530D01*
X453740Y174530D02*
Y178530D01*
X333170Y230460D02*
X355170D01*
X333170Y208960D02*
X355170D01*
X469051Y124221D02*
Y151446D01*
X450429Y124221D02*
Y151446D01*
X448990Y85520D02*
Y107520D01*
X470490Y85520D02*
Y107520D01*
X77049Y331948D02*
Y359172D01*
X95671Y331948D02*
Y359172D01*
X158076Y354751D02*
X185301D01*
X158076Y336129D02*
X185301D01*
X158672Y381421D02*
X185897D01*
X158672Y362799D02*
X185897D01*
X122278Y87209D02*
X149502D01*
X122278Y105831D02*
X149502D01*
D11*
X62805Y47782D02*
G03*
X62805Y47782I-3810J0D01*
G01*
X397834Y313623D02*
G03*
X397834Y313623I-3810J0D01*
G01*
D12*
X330810Y26670D02*
G03*
X330810Y26670I-1250J0D01*
G01*
D13*
X538975Y119635D02*
Y154685D01*
X604025D01*
Y119635D02*
Y154685D01*
X538975Y119635D02*
X604025D01*
X259260Y32020D02*
Y48820D01*
Y-5680D02*
Y8620D01*
X169860Y32020D02*
Y48820D01*
Y-5680D02*
Y8620D01*
Y-5680D02*
X259260D01*
X443220Y48270D02*
Y75770D01*
X415720Y48270D02*
X443220D01*
X288220D02*
X315720D01*
X288220D02*
Y75770D01*
Y175770D02*
Y203270D01*
X315720D01*
X415720D02*
X443220D01*
Y175770D02*
Y203270D01*
X101882Y395815D02*
Y415815D01*
X128882Y395815D02*
Y415815D01*
X654000Y397560D02*
Y400560D01*
X616000Y397560D02*
X654000D01*
X616000D02*
Y400560D01*
X654000Y445260D02*
Y448260D01*
X616000D02*
X654000D01*
X616000Y445260D02*
Y448260D01*
X584150Y397560D02*
Y400560D01*
X546150Y397560D02*
X584150D01*
X546150D02*
Y400560D01*
X584150Y445260D02*
Y448260D01*
X546150D02*
X584150D01*
X546150Y445260D02*
Y448260D01*
X514300Y397560D02*
Y400560D01*
X476300Y397560D02*
X514300D01*
X476300D02*
Y400560D01*
X514300Y445260D02*
Y448260D01*
X476300D02*
X514300D01*
X476300Y445260D02*
Y448260D01*
X265930Y300050D02*
Y312500D01*
X258630D02*
X265930D01*
Y132500D02*
Y144950D01*
X258630Y132500D02*
X265930D01*
X10930D02*
X78130D01*
X10930Y312500D02*
X78130D01*
X10930Y132500D02*
Y312500D01*
X538975Y30735D02*
Y65785D01*
X604025D01*
Y30735D02*
Y65785D01*
X538975Y30735D02*
X604025D01*
X648500Y75000D02*
X730000D01*
X648500D02*
Y379800D01*
X730000D01*
Y75000D02*
Y379800D01*
X228380Y371360D02*
X251680D01*
X207530Y392210D02*
Y415510D01*
X228380Y436360D02*
X251680D01*
X272530Y392210D02*
Y415510D01*
X24530Y329560D02*
X49130D01*
X24530Y361560D02*
X49130D01*
X25800Y93340D02*
X50400D01*
X25800Y125340D02*
X50400D01*
D14*
X128309Y52832D02*
X137922D01*
X75438Y18836D02*
Y52832D01*
X91008Y762D02*
X122352D01*
X137922Y18836D02*
Y52832D01*
X75438D02*
X85051D01*
X594401Y161365D02*
X598566D01*
X599399Y162198D01*
Y163864D01*
X598566Y164697D01*
X594401D01*
X599399Y169695D02*
Y166363D01*
X596067Y169695D01*
X595234D01*
X594401Y168862D01*
Y167196D01*
X595234Y166363D01*
X226205Y118679D02*
Y123678D01*
X228704D01*
X229538Y122845D01*
Y121179D01*
X228704Y120346D01*
X226205D01*
X227871D02*
X229538Y118679D01*
X233703D02*
Y123678D01*
X231204Y121179D01*
X234536D01*
X103805Y389849D02*
Y385684D01*
X104638Y384851D01*
X106304D01*
X107137Y385684D01*
Y389849D01*
X108804Y384851D02*
X110470D01*
X109636D01*
Y389849D01*
X108804Y389016D01*
X112969Y384851D02*
X114635D01*
X113802D01*
Y389849D01*
X112969Y389016D01*
X67564Y432114D02*
X72562D01*
Y429615D01*
X71729Y428782D01*
X70063D01*
X69230Y429615D01*
Y432114D01*
Y430448D02*
X67564Y428782D01*
X71729Y427116D02*
X72562Y426283D01*
Y424617D01*
X71729Y423784D01*
X70896D01*
X70063Y424617D01*
Y425450D01*
Y424617D01*
X69230Y423784D01*
X68397D01*
X67564Y424617D01*
Y426283D01*
X68397Y427116D01*
X72562Y418786D02*
Y422118D01*
X70063D01*
X70896Y420452D01*
Y419618D01*
X70063Y418786D01*
X68397D01*
X67564Y419618D01*
Y421285D01*
X68397Y422118D01*
X72349Y373065D02*
X67351D01*
Y375565D01*
X68184Y376398D01*
X69850D01*
X70683Y375565D01*
Y373065D01*
Y374732D02*
X72349Y376398D01*
X68184Y378064D02*
X67351Y378897D01*
Y380563D01*
X68184Y381396D01*
X69017D01*
X69850Y380563D01*
Y379730D01*
Y380563D01*
X70683Y381396D01*
X71516D01*
X72349Y380563D01*
Y378897D01*
X71516Y378064D01*
X67351Y386395D02*
X68184Y384728D01*
X69850Y383062D01*
X71516D01*
X72349Y383895D01*
Y385561D01*
X71516Y386395D01*
X70683D01*
X69850Y385561D01*
Y383062D01*
X135494Y432278D02*
X134661Y431445D01*
Y429779D01*
X135494Y428946D01*
X138826D01*
X139659Y429779D01*
Y431445D01*
X138826Y432278D01*
X135494Y433944D02*
X134661Y434777D01*
Y436443D01*
X135494Y437276D01*
X136327D01*
X137160Y436443D01*
Y435610D01*
Y436443D01*
X137993Y437276D01*
X138826D01*
X139659Y436443D01*
Y434777D01*
X138826Y433944D01*
X135494Y438942D02*
X134661Y439775D01*
Y441441D01*
X135494Y442275D01*
X136327D01*
X137160Y441441D01*
Y440608D01*
Y441441D01*
X137993Y442275D01*
X138826D01*
X139659Y441441D01*
Y439775D01*
X138826Y438942D01*
X167138Y408767D02*
X167971Y409600D01*
Y411266D01*
X167138Y412099D01*
X163806D01*
X162973Y411266D01*
Y409600D01*
X163806Y408767D01*
X167138Y407101D02*
X167971Y406268D01*
Y404602D01*
X167138Y403769D01*
X166305D01*
X165472Y404602D01*
Y405435D01*
Y404602D01*
X164639Y403769D01*
X163806D01*
X162973Y404602D01*
Y406268D01*
X163806Y407101D01*
X162973Y399603D02*
X167971D01*
X165472Y402103D01*
Y398770D01*
X594401Y72028D02*
X598566D01*
X599399Y72861D01*
Y74527D01*
X598566Y75360D01*
X594401D01*
X599399Y77026D02*
Y78692D01*
Y77859D01*
X594401D01*
X595234Y77026D01*
X33915Y108070D02*
X32265Y106419D01*
Y103119D01*
X33915Y101468D01*
X35566D01*
X37216Y103119D01*
Y106419D01*
X38866Y108070D01*
X40517D01*
X42167Y106419D01*
Y103119D01*
X40517Y101468D01*
X42167Y111371D02*
Y114672D01*
Y113021D01*
X32265D01*
X33915Y111371D01*
X32259Y343909D02*
X30608Y342259D01*
Y338958D01*
X32259Y337308D01*
X33909D01*
X35560Y338958D01*
Y342259D01*
X37210Y343909D01*
X38861D01*
X40511Y342259D01*
Y338958D01*
X38861Y337308D01*
X40511Y353812D02*
Y347211D01*
X33909Y353812D01*
X32259D01*
X30608Y352162D01*
Y348861D01*
X32259Y347211D01*
X464506Y327701D02*
Y332699D01*
X467005D01*
X467838Y331866D01*
Y330200D01*
X467005Y329367D01*
X464506D01*
X466172D02*
X467838Y327701D01*
X472836D02*
X469504D01*
X472836Y331033D01*
Y331866D01*
X472003Y332699D01*
X470337D01*
X469504Y331866D01*
X474502Y328534D02*
X475335Y327701D01*
X477001D01*
X477835Y328534D01*
Y331866D01*
X477001Y332699D01*
X475335D01*
X474502Y331866D01*
Y331033D01*
X475335Y330200D01*
X477835D01*
X143116Y350001D02*
X148114D01*
Y347502D01*
X147281Y346669D01*
X145615D01*
X144782Y347502D01*
Y350001D01*
Y348335D02*
X143116Y346669D01*
Y341671D02*
Y345003D01*
X146448Y341671D01*
X147281D01*
X148114Y342504D01*
Y344170D01*
X147281Y345003D01*
X143116Y340005D02*
Y338339D01*
Y339172D01*
X148114D01*
X147281Y340005D01*
X143116Y378358D02*
X148114D01*
Y375859D01*
X147281Y375026D01*
X145615D01*
X144782Y375859D01*
Y378358D01*
Y376692D02*
X143116Y375026D01*
Y373360D02*
Y371693D01*
Y372527D01*
X148114D01*
X147281Y373360D01*
Y369194D02*
X148114Y368361D01*
Y366695D01*
X147281Y365862D01*
X143948D01*
X143116Y366695D01*
Y368361D01*
X143948Y369194D01*
X147281D01*
X71079Y342545D02*
X66081D01*
Y345044D01*
X66914Y345877D01*
X68580D01*
X69413Y345044D01*
Y342545D01*
Y344211D02*
X71079Y345877D01*
X66914Y347543D02*
X66081Y348376D01*
Y350042D01*
X66914Y350875D01*
X67747D01*
X68580Y350042D01*
X69413Y350875D01*
X70246D01*
X71079Y350042D01*
Y348376D01*
X70246Y347543D01*
X69413D01*
X68580Y348376D01*
X67747Y347543D01*
X66914D01*
X68580Y348376D02*
Y350042D01*
X497290Y35497D02*
X492292D01*
Y37996D01*
X493125Y38829D01*
X494791D01*
X495624Y37996D01*
Y35497D01*
Y37163D02*
X497290Y38829D01*
X492292Y43827D02*
X493125Y42161D01*
X494791Y40495D01*
X496457D01*
X497290Y41328D01*
Y42994D01*
X496457Y43827D01*
X495624D01*
X494791Y42994D01*
Y40495D01*
X489865Y19091D02*
Y24089D01*
X492364D01*
X493197Y23256D01*
Y21590D01*
X492364Y20757D01*
X489865D01*
X491531D02*
X493197Y19091D01*
X498195Y24089D02*
X494863D01*
Y21590D01*
X496529Y22423D01*
X497362D01*
X498195Y21590D01*
Y19924D01*
X497362Y19091D01*
X495696D01*
X494863Y19924D01*
X200305Y118151D02*
Y123149D01*
X202804D01*
X203637Y122316D01*
Y120650D01*
X202804Y119817D01*
X200305D01*
X201971D02*
X203637Y118151D01*
X205303Y122316D02*
X206136Y123149D01*
X207802D01*
X208635Y122316D01*
Y121483D01*
X207802Y120650D01*
X206969D01*
X207802D01*
X208635Y119817D01*
Y118984D01*
X207802Y118151D01*
X206136D01*
X205303Y118984D01*
X248565Y118151D02*
Y123149D01*
X251064D01*
X251897Y122316D01*
Y120650D01*
X251064Y119817D01*
X248565D01*
X250231D02*
X251897Y118151D01*
X256895D02*
X253563D01*
X256895Y121483D01*
Y122316D01*
X256062Y123149D01*
X254396D01*
X253563Y122316D01*
X166329Y96998D02*
X161331D01*
Y99497D01*
X162164Y100330D01*
X163830D01*
X164663Y99497D01*
Y96998D01*
Y98664D02*
X166329Y100330D01*
Y101996D02*
Y103662D01*
Y102829D01*
X161331D01*
X162164Y101996D01*
X670308Y388749D02*
Y398651D01*
X675259D01*
X676910Y397001D01*
Y393700D01*
X675259Y392049D01*
X670308D01*
X680211Y388749D02*
X683512D01*
X681861D01*
Y398651D01*
X680211Y397001D01*
X237110Y429131D02*
X233809D01*
X235459D01*
Y420879D01*
X233809Y419229D01*
X232158D01*
X230508Y420879D01*
X247012Y419229D02*
X240410D01*
X247012Y425830D01*
Y427481D01*
X245362Y429131D01*
X242061D01*
X240410Y427481D01*
X158910Y25020D02*
Y23354D01*
Y24187D01*
X163075D01*
X163908Y23354D01*
Y22521D01*
X163075Y21688D01*
X163908Y26686D02*
Y28352D01*
Y27519D01*
X158910D01*
X159743Y26686D01*
X333019Y41642D02*
X328021D01*
Y39142D01*
X328854Y38309D01*
X332186D01*
X333019Y39142D01*
Y41642D01*
X328021Y36643D02*
Y34977D01*
Y35810D01*
X333019D01*
X332186Y36643D01*
X571978Y340756D02*
X571145Y341589D01*
X569479D01*
X568646Y340756D01*
Y337424D01*
X569479Y336591D01*
X571145D01*
X571978Y337424D01*
X576976Y336591D02*
X573644D01*
X576976Y339923D01*
Y340756D01*
X576143Y341589D01*
X574477D01*
X573644Y340756D01*
X581974Y341589D02*
X580308Y340756D01*
X578642Y339090D01*
Y337424D01*
X579475Y336591D01*
X581141D01*
X581974Y337424D01*
Y338257D01*
X581141Y339090D01*
X578642D01*
X546578Y340756D02*
X545745Y341589D01*
X544079D01*
X543246Y340756D01*
Y337424D01*
X544079Y336591D01*
X545745D01*
X546578Y337424D01*
X551576Y336591D02*
X548244D01*
X551576Y339923D01*
Y340756D01*
X550743Y341589D01*
X549077D01*
X548244Y340756D01*
X556575Y341589D02*
X553242D01*
Y339090D01*
X554908Y339923D01*
X555741D01*
X556575Y339090D01*
Y337424D01*
X555741Y336591D01*
X554075D01*
X553242Y337424D01*
X521178Y340756D02*
X520345Y341589D01*
X518679D01*
X517845Y340756D01*
Y337424D01*
X518679Y336591D01*
X520345D01*
X521178Y337424D01*
X526176Y336591D02*
X522844D01*
X526176Y339923D01*
Y340756D01*
X525343Y341589D01*
X523677D01*
X522844Y340756D01*
X530341Y336591D02*
Y341589D01*
X527842Y339090D01*
X531175D01*
X598648Y340756D02*
X597815Y341589D01*
X596149D01*
X595316Y340756D01*
Y337424D01*
X596149Y336591D01*
X597815D01*
X598648Y337424D01*
X603646Y336591D02*
X600314D01*
X603646Y339923D01*
Y340756D01*
X602813Y341589D01*
X601147D01*
X600314Y340756D01*
X605312D02*
X606145Y341589D01*
X607811D01*
X608644Y340756D01*
Y339923D01*
X607811Y339090D01*
X606978D01*
X607811D01*
X608644Y338257D01*
Y337424D01*
X607811Y336591D01*
X606145D01*
X605312Y337424D01*
X625318Y340756D02*
X624485Y341589D01*
X622819D01*
X621986Y340756D01*
Y337424D01*
X622819Y336591D01*
X624485D01*
X625318Y337424D01*
X630316Y336591D02*
X626984D01*
X630316Y339923D01*
Y340756D01*
X629483Y341589D01*
X627817D01*
X626984Y340756D01*
X635314Y336591D02*
X631982D01*
X635314Y339923D01*
Y340756D01*
X634481Y341589D01*
X632815D01*
X631982Y340756D01*
X495341D02*
X494508Y341589D01*
X492842D01*
X492009Y340756D01*
Y337424D01*
X492842Y336591D01*
X494508D01*
X495341Y337424D01*
X500339Y336591D02*
X497007D01*
X500339Y339923D01*
Y340756D01*
X499506Y341589D01*
X497840D01*
X497007Y340756D01*
X502005Y336591D02*
X503671D01*
X502838D01*
Y341589D01*
X502005Y340756D01*
X239654Y362346D02*
X238821Y363179D01*
X237155D01*
X236322Y362346D01*
Y359014D01*
X237155Y358181D01*
X238821D01*
X239654Y359014D01*
X241320Y358181D02*
X242987D01*
X242153D01*
Y363179D01*
X241320Y362346D01*
X248818Y363179D02*
X245486D01*
Y360680D01*
X247152Y361513D01*
X247985D01*
X248818Y360680D01*
Y359014D01*
X247985Y358181D01*
X246319D01*
X245486Y359014D01*
X267194Y362676D02*
X266361Y363509D01*
X264695D01*
X263862Y362676D01*
Y359344D01*
X264695Y358511D01*
X266361D01*
X267194Y359344D01*
X268860Y358511D02*
X270527D01*
X269694D01*
Y363509D01*
X268860Y362676D01*
X275525Y358511D02*
Y363509D01*
X273026Y361010D01*
X276358D01*
X131206Y348356D02*
X132039Y349189D01*
Y350855D01*
X131206Y351688D01*
X127874D01*
X127041Y350855D01*
Y349189D01*
X127874Y348356D01*
X127041Y346690D02*
Y345023D01*
Y345857D01*
X132039D01*
X131206Y346690D01*
Y342524D02*
X132039Y341691D01*
Y340025D01*
X131206Y339192D01*
X130373D01*
X129540Y340025D01*
Y340858D01*
Y340025D01*
X128707Y339192D01*
X127874D01*
X127041Y340025D01*
Y341691D01*
X127874Y342524D01*
X429577Y10556D02*
X428744Y11389D01*
X427078D01*
X426245Y10556D01*
Y7224D01*
X427078Y6391D01*
X428744D01*
X429577Y7224D01*
X431243D02*
X432076Y6391D01*
X433742D01*
X434575Y7224D01*
Y10556D01*
X433742Y11389D01*
X432076D01*
X431243Y10556D01*
Y9723D01*
X432076Y8890D01*
X434575D01*
X499626Y149423D02*
X500459Y150256D01*
Y151922D01*
X499626Y152755D01*
X496294D01*
X495461Y151922D01*
Y150256D01*
X496294Y149423D01*
X499626Y147757D02*
X500459Y146924D01*
Y145258D01*
X499626Y144425D01*
X498793D01*
X497960Y145258D01*
X497127Y144425D01*
X496294D01*
X495461Y145258D01*
Y146924D01*
X496294Y147757D01*
X497127D01*
X497960Y146924D01*
X498793Y147757D01*
X499626D01*
X497960Y146924D02*
Y145258D01*
X499506Y125293D02*
X500339Y126126D01*
Y127792D01*
X499506Y128625D01*
X496174D01*
X495341Y127792D01*
Y126126D01*
X496174Y125293D01*
X500339Y123627D02*
Y120295D01*
X499506D01*
X496174Y123627D01*
X495341D01*
X639684Y147757D02*
X638851Y146924D01*
Y145258D01*
X639684Y144425D01*
X643016D01*
X643849Y145258D01*
Y146924D01*
X643016Y147757D01*
X638851Y152755D02*
X639684Y151089D01*
X641350Y149423D01*
X643016D01*
X643849Y150256D01*
Y151922D01*
X643016Y152755D01*
X642183D01*
X641350Y151922D01*
Y149423D01*
X639804Y123627D02*
X638971Y122794D01*
Y121128D01*
X639804Y120295D01*
X643136D01*
X643969Y121128D01*
Y122794D01*
X643136Y123627D01*
X638971Y128625D02*
Y125293D01*
X641470D01*
X640637Y126959D01*
Y127792D01*
X641470Y128625D01*
X643136D01*
X643969Y127792D01*
Y126126D01*
X643136Y125293D01*
X639894Y58857D02*
X639061Y58024D01*
Y56358D01*
X639894Y55525D01*
X643226D01*
X644059Y56358D01*
Y58024D01*
X643226Y58857D01*
X644059Y63022D02*
X639061D01*
X641560Y60523D01*
Y63855D01*
X643226Y84653D02*
X644059Y85486D01*
Y87152D01*
X643226Y87985D01*
X639894D01*
X639061Y87152D01*
Y85486D01*
X639894Y84653D01*
X643226Y82987D02*
X644059Y82154D01*
Y80488D01*
X643226Y79655D01*
X642393D01*
X641560Y80488D01*
Y81321D01*
Y80488D01*
X640727Y79655D01*
X639894D01*
X639061Y80488D01*
Y82154D01*
X639894Y82987D01*
X649407Y42306D02*
X648574Y43139D01*
X646908D01*
X646075Y42306D01*
Y38974D01*
X646908Y38141D01*
X648574D01*
X649407Y38974D01*
X654405Y38141D02*
X651073D01*
X654405Y41473D01*
Y42306D01*
X653572Y43139D01*
X651906D01*
X651073Y42306D01*
X624840D02*
X624007Y43139D01*
X622341D01*
X621508Y42306D01*
Y38974D01*
X622341Y38141D01*
X624007D01*
X624840Y38974D01*
X626506Y38141D02*
X628172D01*
X627339D01*
Y43139D01*
X626506Y42306D01*
D15*
X8890Y69850D02*
Y82546D01*
X15238D01*
X17354Y80430D01*
Y76198D01*
X15238Y74082D01*
X8890D01*
X13122D02*
X17354Y69850D01*
X27934D02*
X23702D01*
X21586Y71966D01*
Y76198D01*
X23702Y78314D01*
X27934D01*
X30050Y76198D01*
Y74082D01*
X21586D01*
X34282Y69850D02*
X40630D01*
X42746Y71966D01*
X40630Y74082D01*
X36398D01*
X34282Y76198D01*
X36398Y78314D01*
X42746D01*
X53326Y69850D02*
X49094D01*
X46978Y71966D01*
Y76198D01*
X49094Y78314D01*
X53326D01*
X55442Y76198D01*
Y74082D01*
X46978D01*
X61789Y80430D02*
Y78314D01*
X59674D01*
X63906D01*
X61789D01*
Y71966D01*
X63906Y69850D01*
X15240Y383536D02*
Y370840D01*
X21588D01*
X23704Y372956D01*
Y375072D01*
X21588Y377188D01*
X15240D01*
X21588D01*
X23704Y379304D01*
Y381420D01*
X21588Y383536D01*
X15240D01*
X30052Y370840D02*
X34284D01*
X36400Y372956D01*
Y377188D01*
X34284Y379304D01*
X30052D01*
X27936Y377188D01*
Y372956D01*
X30052Y370840D01*
X42748D02*
X46980D01*
X49096Y372956D01*
Y377188D01*
X46980Y379304D01*
X42748D01*
X40632Y377188D01*
Y372956D01*
X42748Y370840D01*
X55444Y381420D02*
Y379304D01*
X53328D01*
X57560D01*
X55444D01*
Y372956D01*
X57560Y370840D01*
X744220Y191766D02*
Y189227D01*
X736602D01*
Y191766D01*
X737872Y200653D02*
X736602Y199384D01*
Y196845D01*
X737872Y195575D01*
X742950D01*
X744220Y196845D01*
Y199384D01*
X742950Y200653D01*
X736602Y203193D02*
X744220D01*
X740411D01*
Y208271D01*
X736602D01*
X744220D01*
Y210810D02*
Y213349D01*
Y212080D01*
X736602D01*
X737872Y210810D01*
X740411Y217158D02*
Y222236D01*
X737872Y219697D02*
X742950D01*
X737872Y245089D02*
X736602Y243820D01*
Y241280D01*
X737872Y240011D01*
X742950D01*
X744220Y241280D01*
Y243820D01*
X742950Y245089D01*
X736602Y247628D02*
X744220D01*
X740411D01*
Y252707D01*
X736602D01*
X744220D01*
Y255246D02*
Y257785D01*
Y256515D01*
X736602D01*
X737872Y255246D01*
X740411Y261594D02*
Y266672D01*
X744220Y269211D02*
Y271750D01*
X736602D01*
Y269211D01*
X744220Y292099D02*
Y289560D01*
X736602D01*
Y292099D01*
X737872Y300986D02*
X736602Y299717D01*
Y297178D01*
X737872Y295908D01*
X742950D01*
X744220Y297178D01*
Y299717D01*
X742950Y300986D01*
X736602Y303526D02*
X744220D01*
X740411D01*
Y308604D01*
X736602D01*
X744220D01*
Y316221D02*
Y311143D01*
X739142Y316221D01*
X737872D01*
X736602Y314952D01*
Y312413D01*
X737872Y311143D01*
X740411Y318761D02*
Y323839D01*
X737872Y321300D02*
X742950D01*
X737872Y346692D02*
X736602Y345422D01*
Y342883D01*
X737872Y341613D01*
X742950D01*
X744220Y342883D01*
Y345422D01*
X742950Y346692D01*
X736602Y349231D02*
X744220D01*
X740411D01*
Y354309D01*
X736602D01*
X744220D01*
Y361927D02*
Y356848D01*
X739142Y361927D01*
X737872D01*
X736602Y360657D01*
Y358118D01*
X737872Y356848D01*
X740411Y364466D02*
Y369544D01*
X744220Y372083D02*
Y374622D01*
X736602D01*
Y372083D01*
X744220Y73659D02*
Y71120D01*
X736602D01*
Y73659D01*
Y77468D02*
X741681D01*
X744220Y80007D01*
X741681Y82546D01*
X736602D01*
Y85085D02*
X744220D01*
Y88894D01*
X742950Y90164D01*
X741681D01*
X740411Y88894D01*
Y85085D01*
Y88894D01*
X739142Y90164D01*
X737872D01*
X736602Y88894D01*
Y85085D01*
X744220Y92703D02*
X739142D01*
X736602Y95242D01*
X739142Y97781D01*
X744220D01*
X740411D01*
Y92703D01*
X736602Y100321D02*
Y105399D01*
Y102860D01*
X744220D01*
X740411Y107938D02*
Y113016D01*
X737872Y110477D02*
X742950D01*
X736602Y130791D02*
X741681D01*
X744220Y133330D01*
X741681Y135869D01*
X736602D01*
Y138408D02*
X744220D01*
Y142217D01*
X742950Y143487D01*
X741681D01*
X740411Y142217D01*
Y138408D01*
Y142217D01*
X739142Y143487D01*
X737872D01*
X736602Y142217D01*
Y138408D01*
X744220Y146026D02*
X739142D01*
X736602Y148565D01*
X739142Y151104D01*
X744220D01*
X740411D01*
Y146026D01*
X736602Y153643D02*
Y158722D01*
Y156182D01*
X744220D01*
X740411Y161261D02*
Y166339D01*
X744220Y168878D02*
Y171418D01*
X736602D01*
Y168878D01*
X621035Y392429D02*
Y384811D01*
X626113D01*
X633730Y392429D02*
X628652D01*
Y384811D01*
X633730D01*
X628652Y388620D02*
X631191D01*
X636270Y392429D02*
Y384811D01*
X640078D01*
X641348Y386081D01*
Y391159D01*
X640078Y392429D01*
X636270D01*
X643887Y391159D02*
X645157Y392429D01*
X647696D01*
X648966Y391159D01*
Y389890D01*
X647696Y388620D01*
X646426D01*
X647696D01*
X648966Y387350D01*
Y386081D01*
X647696Y384811D01*
X645157D01*
X643887Y386081D01*
X551185Y392429D02*
Y384811D01*
X556263D01*
X563880Y392429D02*
X558802D01*
Y384811D01*
X563880D01*
X558802Y388620D02*
X561341D01*
X566420Y392429D02*
Y384811D01*
X570228D01*
X571498Y386081D01*
Y391159D01*
X570228Y392429D01*
X566420D01*
X579115Y384811D02*
X574037D01*
X579115Y389890D01*
Y391159D01*
X577846Y392429D01*
X575307D01*
X574037Y391159D01*
X482604Y392429D02*
Y384811D01*
X487682D01*
X495300Y392429D02*
X490222D01*
Y384811D01*
X495300D01*
X490222Y388620D02*
X492761D01*
X497839Y392429D02*
Y384811D01*
X501648D01*
X502918Y386081D01*
Y391159D01*
X501648Y392429D01*
X497839D01*
X505457Y384811D02*
X507996D01*
X506726D01*
Y392429D01*
X505457Y391159D01*
X45718Y202068D02*
X30482D01*
X35561Y207147D01*
X30482Y212225D01*
X45718D01*
X33022Y227460D02*
X30482Y224921D01*
Y219842D01*
X33022Y217303D01*
X43178D01*
X45718Y219842D01*
Y224921D01*
X43178Y227460D01*
X30482Y232538D02*
X43178D01*
X45718Y235078D01*
Y240156D01*
X43178Y242695D01*
X30482D01*
X45718Y247773D02*
Y252852D01*
Y250313D01*
X30482D01*
X33022Y247773D01*
X388616Y284482D02*
Y297178D01*
X386077Y299718D01*
X380998D01*
X378459Y297178D01*
Y284482D01*
X365763Y299718D02*
Y284482D01*
X373381Y292100D01*
X363224D01*
D16*
X100838Y153162D02*
X89412D01*
Y158875D01*
X91316Y160779D01*
X95125D01*
X97029Y158875D01*
Y153162D01*
X93221Y164588D02*
X98934D01*
X100838Y166493D01*
Y172206D01*
X93221D01*
X91316Y177919D02*
X93221D01*
Y176015D01*
Y179823D01*
Y177919D01*
X98934D01*
X100838Y179823D01*
X91316Y198867D02*
X93221D01*
Y196963D01*
Y200772D01*
Y198867D01*
X98934D01*
X100838Y200772D01*
X89412Y206485D02*
X100838D01*
X95125D01*
X93221Y208389D01*
Y212198D01*
X95125Y214102D01*
X100838D01*
X93221Y219816D02*
Y223624D01*
X95125Y225529D01*
X100838D01*
Y219816D01*
X98934Y217911D01*
X97029Y219816D01*
Y225529D01*
X91316Y231242D02*
X93221D01*
Y229337D01*
Y233146D01*
Y231242D01*
X98934D01*
X100838Y233146D01*
X89412Y250286D02*
X100838D01*
Y255999D01*
X98934Y257903D01*
X97029D01*
X95125D01*
X93221Y255999D01*
Y250286D01*
Y263616D02*
Y267425D01*
X95125Y269329D01*
X100838D01*
Y263616D01*
X98934Y261712D01*
X97029Y263616D01*
Y269329D01*
X93221Y280756D02*
Y275043D01*
X95125Y273138D01*
X98934D01*
X100838Y275043D01*
Y280756D01*
Y284565D02*
X89412D01*
X97029D02*
X93221Y290278D01*
X97029Y284565D02*
X100838Y290278D01*
X97029Y295991D02*
X87507D01*
X98934D02*
X100838D01*
D17*
X147279Y40330D02*
Y41996D01*
Y41163D01*
X143114D01*
X142281Y41996D01*
Y42829D01*
X143114Y43662D01*
X142281Y36165D02*
X147279D01*
X144780Y38664D01*
Y35332D01*
D18*
X456408Y77866D02*
X455575Y78699D01*
X453909D01*
X453075Y77866D01*
Y74534D01*
X453909Y73701D01*
X455575D01*
X456408Y74534D01*
X458074Y77866D02*
X458907Y78699D01*
X460573D01*
X461406Y77866D01*
Y77033D01*
X460573Y76200D01*
X459740D01*
X460573D01*
X461406Y75367D01*
Y74534D01*
X460573Y73701D01*
X458907D01*
X458074Y74534D01*
X466404Y73701D02*
X463072D01*
X466404Y77033D01*
Y77866D01*
X465571Y78699D01*
X463905D01*
X463072Y77866D01*
X322184Y217211D02*
X321351Y216378D01*
Y214712D01*
X322184Y213879D01*
X325516D01*
X326349Y214712D01*
Y216378D01*
X325516Y217211D01*
X322184Y218877D02*
X321351Y219710D01*
Y221376D01*
X322184Y222209D01*
X323017D01*
X323850Y221376D01*
Y220543D01*
Y221376D01*
X324683Y222209D01*
X325516D01*
X326349Y221376D01*
Y219710D01*
X325516Y218877D01*
X326349Y223875D02*
Y225541D01*
Y224708D01*
X321351D01*
X322184Y223875D01*
X362824Y216378D02*
X361991Y215545D01*
Y213879D01*
X362824Y213046D01*
X366156D01*
X366989Y213879D01*
Y215545D01*
X366156Y216378D01*
X362824Y218044D02*
X361991Y218877D01*
Y220543D01*
X362824Y221376D01*
X363657D01*
X364490Y220543D01*
Y219710D01*
Y220543D01*
X365323Y221376D01*
X366156D01*
X366989Y220543D01*
Y218877D01*
X366156Y218044D01*
X362824Y223042D02*
X361991Y223875D01*
Y225541D01*
X362824Y226374D01*
X366156D01*
X366989Y225541D01*
Y223875D01*
X366156Y223042D01*
X362824D01*
X402591Y28294D02*
X407589D01*
Y25795D01*
X406756Y24962D01*
X405090D01*
X404257Y25795D01*
Y28294D01*
Y26628D02*
X402591Y24962D01*
X406756Y23296D02*
X407589Y22463D01*
Y20797D01*
X406756Y19964D01*
X405923D01*
X405090Y20797D01*
Y21630D01*
Y20797D01*
X404257Y19964D01*
X403424D01*
X402591Y20797D01*
Y22463D01*
X403424Y23296D01*
X402591Y15798D02*
X407589D01*
X405090Y18298D01*
Y14965D01*
X346629Y30206D02*
X341631D01*
Y32705D01*
X342464Y33538D01*
X344130D01*
X344963Y32705D01*
Y30206D01*
Y31872D02*
X346629Y33538D01*
X342464Y35204D02*
X341631Y36037D01*
Y37703D01*
X342464Y38536D01*
X343297D01*
X344130Y37703D01*
Y36870D01*
Y37703D01*
X344963Y38536D01*
X345796D01*
X346629Y37703D01*
Y36037D01*
X345796Y35204D01*
X342464Y40202D02*
X341631Y41035D01*
Y42701D01*
X342464Y43534D01*
X343297D01*
X344130Y42701D01*
Y41868D01*
Y42701D01*
X344963Y43534D01*
X345796D01*
X346629Y42701D01*
Y41035D01*
X345796Y40202D01*
X473751Y145094D02*
X478749D01*
Y142595D01*
X477916Y141762D01*
X476250D01*
X475417Y142595D01*
Y145094D01*
Y143428D02*
X473751Y141762D01*
X477916Y140096D02*
X478749Y139263D01*
Y137597D01*
X477916Y136764D01*
X477083D01*
X476250Y137597D01*
Y138430D01*
Y137597D01*
X475417Y136764D01*
X474584D01*
X473751Y137597D01*
Y139263D01*
X474584Y140096D01*
X473751Y131765D02*
Y135098D01*
X477083Y131765D01*
X477916D01*
X478749Y132598D01*
Y134265D01*
X477916Y135098D01*
X477479Y180695D02*
X472481D01*
Y178196D01*
X473314Y177363D01*
X476646D01*
X477479Y178196D01*
Y180695D01*
Y172365D02*
X476646Y174031D01*
X474980Y175697D01*
X473314D01*
X472481Y174864D01*
Y173198D01*
X473314Y172365D01*
X474147D01*
X474980Y173198D01*
Y175697D01*
X534629Y41755D02*
X529631D01*
Y44254D01*
X530464Y45087D01*
X532130D01*
X532963Y44254D01*
Y41755D01*
Y43421D02*
X534629Y45087D01*
X530464Y46753D02*
X529631Y47586D01*
Y49252D01*
X530464Y50085D01*
X531297D01*
X532130Y49252D01*
Y48419D01*
Y49252D01*
X532963Y50085D01*
X533796D01*
X534629Y49252D01*
Y47586D01*
X533796Y46753D01*
X534629Y51751D02*
Y53418D01*
Y52585D01*
X529631D01*
X530464Y51751D01*
X529201Y83665D02*
X534199D01*
Y86164D01*
X533366Y86997D01*
X530034D01*
X529201Y86164D01*
Y83665D01*
X534199Y91162D02*
X529201D01*
X531700Y88663D01*
Y91995D01*
X450851Y58105D02*
X455016D01*
X455849Y58938D01*
Y60604D01*
X455016Y61437D01*
X450851D01*
X455016Y63103D02*
X455849Y63936D01*
Y65602D01*
X455016Y66435D01*
X451684D01*
X450851Y65602D01*
Y63936D01*
X451684Y63103D01*
X452517D01*
X453350Y63936D01*
Y66435D01*
X141325Y116799D02*
Y111801D01*
X138826D01*
X137993Y112634D01*
Y114300D01*
X138826Y115133D01*
X141325D01*
X139659D02*
X137993Y116799D01*
X136327Y111801D02*
X132995D01*
Y112634D01*
X136327Y115966D01*
Y116799D01*
X112156Y84196D02*
X112989Y85029D01*
Y86695D01*
X112156Y87528D01*
X108824D01*
X107991Y86695D01*
Y85029D01*
X108824Y84196D01*
X107991Y82530D02*
Y80863D01*
Y81697D01*
X112989D01*
X112156Y82530D01*
X107991Y75032D02*
Y78364D01*
X111323Y75032D01*
X112156D01*
X112989Y75865D01*
Y77531D01*
X112156Y78364D01*
Y107493D02*
X112989Y108326D01*
Y109992D01*
X112156Y110825D01*
X108824D01*
X107991Y109992D01*
Y108326D01*
X108824Y107493D01*
X107991Y105827D02*
Y104160D01*
Y104993D01*
X112989D01*
X112156Y105827D01*
X107991Y101661D02*
Y99995D01*
Y100828D01*
X112989D01*
X112156Y101661D01*
X154544Y65664D02*
X153711Y64831D01*
Y63165D01*
X154544Y62332D01*
X157876D01*
X158709Y63165D01*
Y64831D01*
X157876Y65664D01*
X158709Y67330D02*
Y68997D01*
Y68163D01*
X153711D01*
X154544Y67330D01*
Y71496D02*
X153711Y72329D01*
Y73995D01*
X154544Y74828D01*
X157876D01*
X158709Y73995D01*
Y72329D01*
X157876Y71496D01*
X154544D01*
M02*
