G04*
G04 #@! TF.GenerationSoftware,Altium Limited,Altium Designer,26.5.0 (11)*
G04*
G04 Layer_Color=8388736*
G04 Board_Origin=0|0*
%FSLAX44Y44*%
%MOMM*%
G71*
G04*
G04 #@! TF.SameCoordinates,805A6E00-FF88-42AD-81E1-7D7A0FF39D89*
G04*
G04*
G04 #@! TF.FilePolarity,Negative*
G04*
G01*
G75*
G04:AMPARAMS|DCode=19|XSize=0.93mm|YSize=1.31mm|CornerRadius=0.0698mm|HoleSize=0mm|Usage=FLASHONLY|Rotation=0.000|XOffset=0mm|YOffset=0mm|HoleType=Round|Shape=RoundedRectangle|*
%AMROUNDEDRECTD19*
21,1,0.9300,1.1705,0,0,0.0*
21,1,0.7905,1.3100,0,0,0.0*
1,1,0.1395,0.3953,-0.5853*
1,1,0.1395,-0.3953,-0.5853*
1,1,0.1395,-0.3953,0.5853*
1,1,0.1395,0.3953,0.5853*
%
%ADD19ROUNDEDRECTD19*%
G04:AMPARAMS|DCode=20|XSize=3.24mm|YSize=1.31mm|CornerRadius=0.0983mm|HoleSize=0mm|Usage=FLASHONLY|Rotation=0.000|XOffset=0mm|YOffset=0mm|HoleType=Round|Shape=RoundedRectangle|*
%AMROUNDEDRECTD20*
21,1,3.2400,1.1135,0,0,0.0*
21,1,3.0435,1.3100,0,0,0.0*
1,1,0.1965,1.5218,-0.5568*
1,1,0.1965,-1.5218,-0.5568*
1,1,0.1965,-1.5218,0.5568*
1,1,0.1965,1.5218,0.5568*
%
%ADD20ROUNDEDRECTD20*%
%ADD21R,0.6604X1.5494*%
%ADD22R,1.5000X0.9000*%
%ADD23R,1.3500X0.9500*%
%ADD24R,1.9500X1.0500*%
%ADD25R,0.9500X1.3500*%
%ADD26R,1.4500X1.1000*%
%ADD27R,1.0637X1.0621*%
%ADD28R,0.3500X0.5000*%
%ADD29R,1.0621X1.0637*%
%ADD30R,0.9000X1.5000*%
%ADD31R,0.9500X1.3500*%
%ADD32R,1.3000X1.4500*%
%ADD33R,1.7000X1.6800*%
%ADD34R,1.0000X1.2500*%
%ADD35R,1.4500X1.3000*%
%ADD37R,1.0500X0.6500*%
%ADD38R,0.9000X0.9000*%
%ADD39R,1.5000X0.9000*%
%ADD41R,1.9050X1.2954*%
%ADD42R,1.6000X1.9000*%
%ADD43R,1.9000X1.6000*%
%ADD44R,0.7000X1.2400*%
%ADD45R,0.4000X1.2400*%
%ADD46O,0.9000X1.7000*%
%ADD47O,0.9000X2.0000*%
%ADD48C,2.1300*%
%ADD49C,1.9500*%
%ADD50R,1.9500X1.9500*%
%ADD51C,1.6500*%
%ADD52C,1.4000*%
%ADD53C,0.6000*%
%ADD54C,5.0000*%
D19*
X594400Y103710D02*
D03*
X571500D02*
D03*
X548600D02*
D03*
X571500Y14810D02*
D03*
X548600D02*
D03*
X594400D02*
D03*
D20*
X571500Y170610D02*
D03*
Y81710D02*
D03*
D21*
X91680Y47782D02*
D03*
X121680D02*
D03*
X111680D02*
D03*
X101680D02*
D03*
D22*
X659500Y406910D02*
D03*
X589650D02*
D03*
X519800D02*
D03*
X470800Y438910D02*
D03*
X540650D02*
D03*
X610500D02*
D03*
Y406910D02*
D03*
X659500Y438910D02*
D03*
X540650Y406910D02*
D03*
X589650Y438910D02*
D03*
X470800Y406910D02*
D03*
X519800Y438910D02*
D03*
D23*
X524510Y364370D02*
D03*
X628650Y364280D02*
D03*
X601980Y364250D02*
D03*
X575310Y364370D02*
D03*
X549910D02*
D03*
X497840D02*
D03*
X270510Y332980D02*
D03*
X459740Y104020D02*
D03*
X147692Y412935D02*
D03*
X242570Y332860D02*
D03*
Y347860D02*
D03*
X270510Y347980D02*
D03*
X147692Y397935D02*
D03*
X459740Y89020D02*
D03*
X624840Y13880D02*
D03*
X650240D02*
D03*
X497840Y349370D02*
D03*
X524510D02*
D03*
X549910D02*
D03*
X575310D02*
D03*
X601980Y349250D02*
D03*
X628650Y349280D02*
D03*
X650240Y28880D02*
D03*
X624840D02*
D03*
D24*
X295570Y324010D02*
D03*
Y384010D02*
D03*
X443570Y264010D02*
D03*
Y404010D02*
D03*
X295570Y304010D02*
D03*
X443570Y284010D02*
D03*
Y364010D02*
D03*
Y304010D02*
D03*
Y324010D02*
D03*
Y344010D02*
D03*
X295570Y264010D02*
D03*
Y284010D02*
D03*
Y344010D02*
D03*
Y364010D02*
D03*
Y404010D02*
D03*
X443570Y384010D02*
D03*
D25*
X376040Y219710D02*
D03*
X351670D02*
D03*
X524600Y148590D02*
D03*
Y124460D02*
D03*
X108442Y435915D02*
D03*
X617550Y59690D02*
D03*
Y83820D02*
D03*
X617340Y125730D02*
D03*
Y149860D02*
D03*
X123442Y435915D02*
D03*
X336670Y219710D02*
D03*
X391040D02*
D03*
X423030Y26670D02*
D03*
X509600Y124460D02*
D03*
Y148590D02*
D03*
X632550Y59690D02*
D03*
Y83820D02*
D03*
X632340Y125730D02*
D03*
Y149860D02*
D03*
X438030Y26670D02*
D03*
D26*
X515190Y97990D02*
D03*
X459740Y185530D02*
D03*
X515190Y79990D02*
D03*
X459740Y167530D02*
D03*
D27*
X180578Y372110D02*
D03*
X179982Y345440D02*
D03*
X144184Y96520D02*
D03*
X478359Y14262D02*
D03*
X163395Y345440D02*
D03*
X478281Y39662D02*
D03*
X163991Y372110D02*
D03*
X461693Y39662D02*
D03*
X461771Y14262D02*
D03*
X127596Y96520D02*
D03*
D28*
X125132Y413815D02*
D03*
X112132D02*
D03*
X125132Y397815D02*
D03*
X118632Y413815D02*
D03*
X112132Y397815D02*
D03*
X105632D02*
D03*
Y413815D02*
D03*
X118632Y397815D02*
D03*
D29*
X87630Y388024D02*
D03*
X86360Y353854D02*
D03*
X180340Y108624D02*
D03*
X252730Y109059D02*
D03*
X86360Y431204D02*
D03*
X515620Y37426D02*
D03*
X459740Y129540D02*
D03*
X471170Y343496D02*
D03*
X86360Y337266D02*
D03*
X386997Y14347D02*
D03*
X361597D02*
D03*
X228600Y92036D02*
D03*
X204470D02*
D03*
Y108624D02*
D03*
X228600D02*
D03*
X180340Y92036D02*
D03*
X252730Y92472D02*
D03*
X361597Y30935D02*
D03*
X386997D02*
D03*
X87630Y371436D02*
D03*
X86360Y414616D02*
D03*
X471170Y360084D02*
D03*
X515620Y54014D02*
D03*
X459740Y146128D02*
D03*
D30*
X98530Y135000D02*
D03*
X111230Y310000D02*
D03*
X98530D02*
D03*
X85830Y135000D02*
D03*
Y310000D02*
D03*
X149330Y135000D02*
D03*
X250930Y310000D02*
D03*
X162030Y135000D02*
D03*
X123930D02*
D03*
X187430D02*
D03*
X225530D02*
D03*
X136630Y310000D02*
D03*
X162030D02*
D03*
X123930D02*
D03*
X212830Y135000D02*
D03*
X136630D02*
D03*
X187430Y310000D02*
D03*
X149330D02*
D03*
X174730Y135000D02*
D03*
X200130D02*
D03*
Y310000D02*
D03*
X250930Y135000D02*
D03*
X238230D02*
D03*
X111230D02*
D03*
X174730Y310000D02*
D03*
X212830D02*
D03*
X225530D02*
D03*
X238230D02*
D03*
D31*
X99440Y80010D02*
D03*
X83440D02*
D03*
D32*
X99440Y105410D02*
D03*
X83440D02*
D03*
D33*
X314960Y26670D02*
D03*
X279160D02*
D03*
D34*
X144620Y68580D02*
D03*
X124620D02*
D03*
D35*
X113030Y337440D02*
D03*
Y353440D02*
D03*
D37*
X17350Y120090D02*
D03*
X58850D02*
D03*
X16080Y356310D02*
D03*
X57580D02*
D03*
Y334810D02*
D03*
X16080D02*
D03*
X58850Y98590D02*
D03*
X17350D02*
D03*
D38*
X149030Y193500D02*
D03*
X163030D02*
D03*
X177030D02*
D03*
X149030Y221500D02*
D03*
Y207500D02*
D03*
X163030Y221500D02*
D03*
Y207500D02*
D03*
X177030D02*
D03*
Y221500D02*
D03*
D39*
X263430Y254250D02*
D03*
Y241550D02*
D03*
Y228850D02*
D03*
Y203450D02*
D03*
Y216150D02*
D03*
Y178050D02*
D03*
Y190750D02*
D03*
Y152650D02*
D03*
Y292350D02*
D03*
Y279650D02*
D03*
Y266950D02*
D03*
Y165350D02*
D03*
D41*
X134680Y9032D02*
D03*
X78680D02*
D03*
D42*
X384720Y191770D02*
D03*
X365720D02*
D03*
X327720Y59770D02*
D03*
X403720D02*
D03*
X327720Y191770D02*
D03*
X346720D02*
D03*
X403720D02*
D03*
X384720Y59770D02*
D03*
X365720D02*
D03*
X346720D02*
D03*
D43*
X431720Y106770D02*
D03*
X299720Y87770D02*
D03*
Y163770D02*
D03*
X431720Y87770D02*
D03*
Y163770D02*
D03*
Y144770D02*
D03*
X299720D02*
D03*
X431720Y125770D02*
D03*
X299720Y106770D02*
D03*
Y125770D02*
D03*
D44*
X246560Y67820D02*
D03*
X182560D02*
D03*
X190560D02*
D03*
X238560D02*
D03*
D45*
X217060D02*
D03*
X207060D02*
D03*
X222060D02*
D03*
X212060D02*
D03*
X202060D02*
D03*
X197060D02*
D03*
X227060D02*
D03*
X232060D02*
D03*
D46*
X171310Y20320D02*
D03*
X257810D02*
D03*
D47*
X171310Y62020D02*
D03*
X257810D02*
D03*
D48*
X214530Y378360D02*
D03*
Y429360D02*
D03*
X265530Y378360D02*
D03*
Y429360D02*
D03*
D49*
X689500Y151200D02*
D03*
Y202000D02*
D03*
Y303600D02*
D03*
Y252800D02*
D03*
Y354400D02*
D03*
D50*
Y100400D02*
D03*
D51*
X240030Y403860D02*
D03*
D52*
X168620Y175000D02*
D03*
Y275000D02*
D03*
D53*
X185660Y57120D02*
D03*
X243460D02*
D03*
D54*
X715000Y415000D02*
D03*
Y35000D02*
D03*
X35000D02*
D03*
Y415000D02*
D03*
M02*
