G04*
G04 #@! TF.GenerationSoftware,Altium Limited,Altium Designer,26.5.0 (11)*
G04*
G04 Layer_Physical_Order=2*
G04 Layer_Color=36540*
G04 Board_Origin=0|0*
%FSLAX44Y44*%
%MOMM*%
G71*
G04*
G04 #@! TF.SameCoordinates,779C5E83-ED05-44A4-BDBC-C6229AFA92C3*
G04*
G04*
G04 #@! TF.FilePolarity,Positive*
G04*
G01*
G75*
%ADD35C,1.6500*%
%ADD36C,2.1300*%
%ADD41C,1.9500*%
%ADD43C,3.2000*%
%ADD44C,1.4000*%
%ADD48C,1.0500*%
%ADD49C,5.0000*%
%ADD56C,0.4000*%
%ADD57C,1.7780*%
%ADD58O,1.0000X2.6000*%
%ADD59C,0.9000*%
%ADD60C,0.7000*%
%ADD61C,1.9050*%
%ADD63C,0.6096*%
%ADD64C,0.9906*%
G36*
X925888Y399487D02*
X929683Y398470D01*
X933313Y396967D01*
X936715Y395002D01*
X939832Y392611D01*
X942610Y389832D01*
X945002Y386715D01*
X946967Y383313D01*
X948470Y379683D01*
X949487Y375888D01*
X950000Y371992D01*
Y370028D01*
Y29972D01*
Y28008D01*
X949487Y24112D01*
X948470Y20317D01*
X946967Y16687D01*
X945002Y13285D01*
X942610Y10168D01*
X939832Y7390D01*
X936715Y4998D01*
X933313Y3033D01*
X929683Y1530D01*
X925888Y513D01*
X921992Y0D01*
X28008D01*
X24112Y513D01*
X20317Y1530D01*
X16687Y3033D01*
X13285Y4998D01*
X10168Y7390D01*
X7390Y10168D01*
X4998Y13285D01*
X3033Y16687D01*
X1530Y20317D01*
X513Y24112D01*
X0Y28008D01*
Y29972D01*
Y370028D01*
Y371992D01*
X513Y375888D01*
X1530Y379683D01*
X3033Y383313D01*
X4998Y386715D01*
X7390Y389832D01*
X10168Y392611D01*
X13285Y395002D01*
X16687Y396967D01*
X20317Y398470D01*
X24112Y399487D01*
X28008Y400000D01*
X921992D01*
X925888Y399487D01*
D02*
G37*
%LPC*%
G36*
X234039Y386783D02*
X232423D01*
X230929Y386164D01*
X229786Y385021D01*
X229167Y383527D01*
Y381911D01*
X229786Y380417D01*
X230929Y379274D01*
X232423Y378655D01*
X234039D01*
X235533Y379274D01*
X236676Y380417D01*
X237295Y381911D01*
Y383527D01*
X236676Y385021D01*
X235533Y386164D01*
X234039Y386783D01*
D02*
G37*
G36*
X464358Y385064D02*
X462742D01*
X461248Y384445D01*
X460105Y383302D01*
X459486Y381808D01*
Y380192D01*
X460105Y378698D01*
X461248Y377555D01*
X462742Y376936D01*
X464358D01*
X465852Y377555D01*
X466995Y378698D01*
X467614Y380192D01*
Y381808D01*
X466995Y383302D01*
X465852Y384445D01*
X464358Y385064D01*
D02*
G37*
G36*
X443991Y384999D02*
X442374D01*
X440881Y384380D01*
X439737Y383237D01*
X439119Y381743D01*
Y380126D01*
X439737Y378633D01*
X440881Y377489D01*
X442374Y376871D01*
X443991D01*
X445485Y377489D01*
X446628Y378633D01*
X447247Y380126D01*
Y381743D01*
X446628Y383237D01*
X445485Y384380D01*
X443991Y384999D01*
D02*
G37*
G36*
X234488Y368554D02*
X232872D01*
X231378Y367935D01*
X230235Y366792D01*
X229616Y365298D01*
Y363682D01*
X230235Y362188D01*
X231378Y361045D01*
X232872Y360426D01*
X234488D01*
X235982Y361045D01*
X237125Y362188D01*
X237744Y363682D01*
Y365298D01*
X237125Y366792D01*
X235982Y367935D01*
X234488Y368554D01*
D02*
G37*
G36*
X93518Y358394D02*
X91902D01*
X90408Y357775D01*
X89265Y356632D01*
X88646Y355138D01*
Y353522D01*
X89265Y352028D01*
X90408Y350885D01*
X91902Y350266D01*
X93518D01*
X95012Y350885D01*
X96155Y352028D01*
X96774Y353522D01*
Y355138D01*
X96155Y356632D01*
X95012Y357775D01*
X93518Y358394D01*
D02*
G37*
G36*
X205278Y352044D02*
X203662D01*
X202168Y351425D01*
X201025Y350282D01*
X200406Y348788D01*
Y347172D01*
X201025Y345678D01*
X202168Y344535D01*
X203662Y343916D01*
X205278D01*
X206772Y344535D01*
X207915Y345678D01*
X208534Y347172D01*
Y348788D01*
X207915Y350282D01*
X206772Y351425D01*
X205278Y352044D01*
D02*
G37*
G36*
X590088Y345694D02*
X588472D01*
X586978Y345075D01*
X585835Y343932D01*
X585216Y342438D01*
Y340822D01*
X585835Y339328D01*
X586978Y338185D01*
X588472Y337566D01*
X590088D01*
X591582Y338185D01*
X592725Y339328D01*
X593344Y340822D01*
Y342438D01*
X592725Y343932D01*
X591582Y345075D01*
X590088Y345694D01*
D02*
G37*
G36*
X137968Y343154D02*
X136352D01*
X134858Y342535D01*
X133715Y341392D01*
X133096Y339898D01*
Y338282D01*
X133715Y336788D01*
X134858Y335645D01*
X136352Y335026D01*
X137968D01*
X139462Y335645D01*
X140605Y336788D01*
X141224Y338282D01*
Y339898D01*
X140605Y341392D01*
X139462Y342535D01*
X137968Y343154D01*
D02*
G37*
G36*
X708198Y341884D02*
X706582D01*
X705088Y341265D01*
X703945Y340122D01*
X703326Y338628D01*
Y337012D01*
X703945Y335518D01*
X705088Y334375D01*
X706582Y333756D01*
X708198D01*
X709692Y334375D01*
X710835Y335518D01*
X711454Y337012D01*
Y338628D01*
X710835Y340122D01*
X709692Y341265D01*
X708198Y341884D01*
D02*
G37*
G36*
X93518D02*
X91902D01*
X90408Y341265D01*
X89265Y340122D01*
X88646Y338628D01*
Y337012D01*
X89265Y335518D01*
X90408Y334375D01*
X91902Y333756D01*
X93518D01*
X95012Y334375D01*
X96155Y335518D01*
X96774Y337012D01*
Y338628D01*
X96155Y340122D01*
X95012Y341265D01*
X93518Y341884D01*
D02*
G37*
G36*
X835378Y333506D02*
X833761D01*
X832267Y332887D01*
X831124Y331744D01*
X830506Y330250D01*
Y328633D01*
X831124Y327140D01*
X832267Y325996D01*
X833761Y325378D01*
X835378D01*
X836871Y325996D01*
X838015Y327140D01*
X838633Y328633D01*
Y330250D01*
X838015Y331744D01*
X836871Y332887D01*
X835378Y333506D01*
D02*
G37*
G36*
X903778Y326644D02*
X902162D01*
X900668Y326025D01*
X899525Y324882D01*
X898906Y323388D01*
Y321772D01*
X899525Y320278D01*
X900668Y319135D01*
X902162Y318516D01*
X903778D01*
X905272Y319135D01*
X906415Y320278D01*
X907034Y321772D01*
Y323388D01*
X906415Y324882D01*
X905272Y326025D01*
X903778Y326644D01*
D02*
G37*
G36*
X360714Y335026D02*
X358106D01*
X355586Y334351D01*
X353328Y333047D01*
X351483Y331202D01*
X350179Y328944D01*
X349504Y326424D01*
Y323816D01*
X350179Y321296D01*
X351483Y319038D01*
X353328Y317193D01*
X355586Y315889D01*
X358106Y315214D01*
X360714D01*
X363234Y315889D01*
X365492Y317193D01*
X367337Y319038D01*
X368641Y321296D01*
X369316Y323816D01*
Y326424D01*
X368641Y328944D01*
X367337Y331202D01*
X365492Y333047D01*
X363234Y334351D01*
X360714Y335026D01*
D02*
G37*
G36*
X335314D02*
X332706D01*
X330186Y334351D01*
X327928Y333047D01*
X326083Y331202D01*
X324779Y328944D01*
X324104Y326424D01*
Y323816D01*
X324779Y321296D01*
X326083Y319038D01*
X327928Y317193D01*
X330186Y315889D01*
X332706Y315214D01*
X335314D01*
X337834Y315889D01*
X340092Y317193D01*
X341937Y319038D01*
X343241Y321296D01*
X343916Y323816D01*
Y326424D01*
X343241Y328944D01*
X341937Y331202D01*
X340092Y333047D01*
X337834Y334351D01*
X335314Y335026D01*
D02*
G37*
G36*
X309914D02*
X307306D01*
X304786Y334351D01*
X302528Y333047D01*
X300683Y331202D01*
X299379Y328944D01*
X298704Y326424D01*
Y323816D01*
X299379Y321296D01*
X300683Y319038D01*
X302528Y317193D01*
X304786Y315889D01*
X307306Y315214D01*
X309914D01*
X312434Y315889D01*
X314692Y317193D01*
X316537Y319038D01*
X317841Y321296D01*
X318516Y323816D01*
Y326424D01*
X317841Y328944D01*
X316537Y331202D01*
X314692Y333047D01*
X312434Y334351D01*
X309914Y335026D01*
D02*
G37*
G36*
X284514D02*
X281906D01*
X279386Y334351D01*
X277128Y333047D01*
X275283Y331202D01*
X273979Y328944D01*
X273304Y326424D01*
Y323816D01*
X273979Y321296D01*
X275283Y319038D01*
X277128Y317193D01*
X279386Y315889D01*
X281906Y315214D01*
X284514D01*
X287034Y315889D01*
X289292Y317193D01*
X291137Y319038D01*
X292441Y321296D01*
X293116Y323816D01*
Y326424D01*
X292441Y328944D01*
X291137Y331202D01*
X289292Y333047D01*
X287034Y334351D01*
X284514Y335026D01*
D02*
G37*
G36*
X259114D02*
X256506D01*
X253986Y334351D01*
X251728Y333047D01*
X249883Y331202D01*
X248579Y328944D01*
X247904Y326424D01*
Y323816D01*
X248579Y321296D01*
X249883Y319038D01*
X251728Y317193D01*
X253986Y315889D01*
X256506Y315214D01*
X259114D01*
X261634Y315889D01*
X263892Y317193D01*
X265737Y319038D01*
X267041Y321296D01*
X267716Y323816D01*
Y326424D01*
X267041Y328944D01*
X265737Y331202D01*
X263892Y333047D01*
X261634Y334351D01*
X259114Y335026D01*
D02*
G37*
G36*
X233714D02*
X231106D01*
X228586Y334351D01*
X226328Y333047D01*
X224483Y331202D01*
X223179Y328944D01*
X222504Y326424D01*
Y323816D01*
X223179Y321296D01*
X224483Y319038D01*
X226328Y317193D01*
X228586Y315889D01*
X231106Y315214D01*
X233714D01*
X236234Y315889D01*
X238492Y317193D01*
X240337Y319038D01*
X241641Y321296D01*
X242316Y323816D01*
Y326424D01*
X241641Y328944D01*
X240337Y331202D01*
X238492Y333047D01*
X236234Y334351D01*
X233714Y335026D01*
D02*
G37*
G36*
X182914D02*
X180306D01*
X177786Y334351D01*
X175528Y333047D01*
X173683Y331202D01*
X172379Y328944D01*
X171704Y326424D01*
Y323816D01*
X172379Y321296D01*
X173683Y319038D01*
X175528Y317193D01*
X177786Y315889D01*
X180306Y315214D01*
X182914D01*
X185434Y315889D01*
X187692Y317193D01*
X189537Y319038D01*
X190841Y321296D01*
X191516Y323816D01*
Y326424D01*
X190841Y328944D01*
X189537Y331202D01*
X187692Y333047D01*
X185434Y334351D01*
X182914Y335026D01*
D02*
G37*
G36*
X157514D02*
X154906D01*
X152386Y334351D01*
X150128Y333047D01*
X148283Y331202D01*
X146979Y328944D01*
X146304Y326424D01*
Y323816D01*
X146979Y321296D01*
X148283Y319038D01*
X150128Y317193D01*
X152386Y315889D01*
X154906Y315214D01*
X157514D01*
X160034Y315889D01*
X162292Y317193D01*
X164137Y319038D01*
X165441Y321296D01*
X166116Y323816D01*
Y326424D01*
X165441Y328944D01*
X164137Y331202D01*
X162292Y333047D01*
X160034Y334351D01*
X157514Y335026D01*
D02*
G37*
G36*
X740173Y322610D02*
X738556D01*
X737062Y321991D01*
X735919Y320848D01*
X735300Y319354D01*
Y317737D01*
X735919Y316244D01*
X737062Y315100D01*
X738556Y314482D01*
X740173D01*
X741666Y315100D01*
X742810Y316244D01*
X743428Y317737D01*
Y319354D01*
X742810Y320848D01*
X741666Y321991D01*
X740173Y322610D01*
D02*
G37*
G36*
X491466Y325036D02*
X488974D01*
X486671Y324082D01*
X484908Y322319D01*
X483954Y320016D01*
Y317524D01*
X484908Y315221D01*
X486671Y313458D01*
X488974Y312504D01*
X491466D01*
X493769Y313458D01*
X495532Y315221D01*
X496486Y317524D01*
Y320016D01*
X495532Y322319D01*
X493769Y324082D01*
X491466Y325036D01*
D02*
G37*
G36*
X708198Y320294D02*
X706582D01*
X705088Y319675D01*
X703945Y318532D01*
X703326Y317038D01*
Y315422D01*
X703945Y313928D01*
X705088Y312785D01*
X706582Y312166D01*
X708198D01*
X709692Y312785D01*
X710835Y313928D01*
X711454Y315422D01*
Y317038D01*
X710835Y318532D01*
X709692Y319675D01*
X708198Y320294D01*
D02*
G37*
G36*
X201468Y307594D02*
X199852D01*
X198358Y306975D01*
X197215Y305832D01*
X196596Y304338D01*
Y302722D01*
X197215Y301228D01*
X198358Y300085D01*
X199852Y299466D01*
X201468D01*
X202962Y300085D01*
X204105Y301228D01*
X204724Y302722D01*
Y304338D01*
X204105Y305832D01*
X202962Y306975D01*
X201468Y307594D01*
D02*
G37*
G36*
X417268Y325036D02*
X414775D01*
X412472Y324082D01*
X410709Y322319D01*
X409756Y320016D01*
Y317524D01*
X410709Y315221D01*
X412472Y313458D01*
X414775Y312504D01*
X417268D01*
X419571Y313458D01*
X420331Y314218D01*
X423039Y313334D01*
X423106Y313067D01*
X423106Y312426D01*
Y311270D01*
X423793Y309610D01*
X425064Y308340D01*
X426723Y307652D01*
X428520D01*
X430180Y308340D01*
X430212Y308372D01*
X431871Y309360D01*
X433531Y308372D01*
X433562Y308340D01*
X434942Y307768D01*
X435436Y307119D01*
X436239Y305112D01*
X435806Y304068D01*
Y302271D01*
X436493Y300611D01*
X437764Y299341D01*
X439423Y298653D01*
X441220D01*
X442880Y299341D01*
X442963Y299424D01*
X444622Y300348D01*
X446281Y299424D01*
X446364Y299341D01*
X448024Y298653D01*
X449820D01*
X451480Y299341D01*
X453122Y300377D01*
X454764Y299341D01*
X456424Y298653D01*
X458220D01*
X459880Y299341D01*
X459912Y299373D01*
X461571Y300361D01*
X463231Y299373D01*
X463263Y299341D01*
X464922Y298653D01*
X466719D01*
X468379Y299341D01*
X469649Y300611D01*
X470337Y302271D01*
Y304068D01*
X469904Y305112D01*
X470840Y307243D01*
X471229Y307740D01*
X472679Y308340D01*
X473949Y309610D01*
X474637Y311270D01*
Y313067D01*
X473949Y314727D01*
X472679Y315997D01*
X471019Y316684D01*
X469223D01*
X467563Y315997D01*
X467531Y315965D01*
X465872Y314977D01*
X464212Y315965D01*
X464180Y315997D01*
X462520Y316684D01*
X460724D01*
X459064Y315997D01*
X457794Y314727D01*
X457106Y313067D01*
Y311270D01*
X457539Y310225D01*
X456603Y308095D01*
X456214Y307598D01*
X454764Y306998D01*
X453122Y305962D01*
X451480Y306998D01*
X450030Y307598D01*
X449641Y308095D01*
X448705Y310225D01*
X449138Y311270D01*
Y313067D01*
X448450Y314727D01*
X447180Y315997D01*
X445520Y316684D01*
X443724D01*
X442064Y315997D01*
X442031Y315964D01*
X440371Y314978D01*
X438712Y315964D01*
X438679Y315997D01*
X437019Y316684D01*
X435222D01*
X433562Y315997D01*
X433531Y315965D01*
X431871Y314977D01*
X430212Y315965D01*
X430180Y315997D01*
X428520Y316684D01*
X426723D01*
X425064Y315997D01*
X423793Y314727D01*
X423793Y314727D01*
X424791Y315724D01*
X423429Y314912D01*
X422477Y315394D01*
X422026Y316892D01*
X422287Y317524D01*
Y320016D01*
X421334Y322319D01*
X419571Y324082D01*
X417268Y325036D01*
D02*
G37*
G36*
X557068Y306324D02*
X555452D01*
X553958Y305705D01*
X552815Y304562D01*
X552196Y303068D01*
Y301452D01*
X552815Y299958D01*
X553958Y298815D01*
X555452Y298196D01*
X557068D01*
X558562Y298815D01*
X559705Y299958D01*
X560324Y301452D01*
Y303068D01*
X559705Y304562D01*
X558562Y305705D01*
X557068Y306324D01*
D02*
G37*
G36*
X163368Y305054D02*
X161752D01*
X160258Y304435D01*
X159115Y303292D01*
X158496Y301798D01*
Y300182D01*
X159115Y298688D01*
X160258Y297545D01*
X161752Y296926D01*
X163368D01*
X164862Y297545D01*
X166005Y298688D01*
X166624Y300182D01*
Y301798D01*
X166005Y303292D01*
X164862Y304435D01*
X163368Y305054D01*
D02*
G37*
G36*
X149398D02*
X147782D01*
X146288Y304435D01*
X145145Y303292D01*
X144526Y301798D01*
Y300182D01*
X145145Y298688D01*
X146288Y297545D01*
X147782Y296926D01*
X149398D01*
X150892Y297545D01*
X152035Y298688D01*
X152654Y300182D01*
Y301798D01*
X152035Y303292D01*
X150892Y304435D01*
X149398Y305054D01*
D02*
G37*
G36*
X854248Y298704D02*
X852632D01*
X851138Y298085D01*
X849995Y296942D01*
X849376Y295448D01*
Y293832D01*
X849995Y292338D01*
X851138Y291195D01*
X852632Y290576D01*
X854248D01*
X855742Y291195D01*
X856885Y292338D01*
X857504Y293832D01*
Y295448D01*
X856885Y296942D01*
X855742Y298085D01*
X854248Y298704D01*
D02*
G37*
G36*
X619677Y301879D02*
X617303D01*
X615109Y300970D01*
X613430Y299291D01*
X612521Y297097D01*
Y294723D01*
X613430Y292529D01*
X615109Y290850D01*
X617303Y289941D01*
X619677D01*
X621871Y290850D01*
X623550Y292529D01*
X624459Y294723D01*
Y297097D01*
X623550Y299291D01*
X621871Y300970D01*
X619677Y301879D01*
D02*
G37*
G36*
X531668Y293624D02*
X530052D01*
X528558Y293005D01*
X527415Y291862D01*
X526796Y290368D01*
Y288752D01*
X527415Y287258D01*
X528558Y286115D01*
X530052Y285496D01*
X531668D01*
X533162Y286115D01*
X534305Y287258D01*
X534924Y288752D01*
Y290368D01*
X534305Y291862D01*
X533162Y293005D01*
X531668Y293624D01*
D02*
G37*
G36*
X796037Y280210D02*
X793663D01*
X791469Y279301D01*
X789790Y277622D01*
X788881Y275428D01*
Y273054D01*
X789790Y270860D01*
X791469Y269181D01*
X793663Y268272D01*
X796037D01*
X798231Y269181D01*
X799910Y270860D01*
X800819Y273054D01*
Y275428D01*
X799910Y277622D01*
X798231Y279301D01*
X796037Y280210D01*
D02*
G37*
G36*
X112568Y275844D02*
X110952D01*
X109458Y275225D01*
X108315Y274082D01*
X107696Y272588D01*
Y270972D01*
X108315Y269478D01*
X109458Y268335D01*
X110952Y267716D01*
X112568D01*
X114062Y268335D01*
X115205Y269478D01*
X115824Y270972D01*
Y272588D01*
X115205Y274082D01*
X114062Y275225D01*
X112568Y275844D01*
D02*
G37*
G36*
X99868D02*
X98252D01*
X96758Y275225D01*
X95615Y274082D01*
X94996Y272588D01*
Y270972D01*
X95615Y269478D01*
X96758Y268335D01*
X98252Y267716D01*
X99868D01*
X101362Y268335D01*
X102505Y269478D01*
X103124Y270972D01*
Y272588D01*
X102505Y274082D01*
X101362Y275225D01*
X99868Y275844D01*
D02*
G37*
G36*
X452467Y273050D02*
X450850D01*
X449356Y272431D01*
X448213Y271288D01*
X447594Y269794D01*
Y268178D01*
X448213Y266684D01*
X449356Y265541D01*
X450850Y264922D01*
X452467D01*
X453960Y265541D01*
X455104Y266684D01*
X455722Y268178D01*
Y269794D01*
X455104Y271288D01*
X453960Y272431D01*
X452467Y273050D01*
D02*
G37*
G36*
X472232Y272842D02*
X470616D01*
X469122Y272224D01*
X467979Y271080D01*
X467360Y269587D01*
Y267970D01*
X467979Y266476D01*
X469122Y265333D01*
X470616Y264714D01*
X472232D01*
X473726Y265333D01*
X474869Y266476D01*
X475488Y267970D01*
Y269587D01*
X474869Y271080D01*
X473726Y272224D01*
X472232Y272842D01*
D02*
G37*
G36*
X440228Y272034D02*
X438612D01*
X437118Y271415D01*
X435975Y270272D01*
X435356Y268778D01*
Y267162D01*
X435975Y265668D01*
X437118Y264525D01*
X438612Y263906D01*
X440228D01*
X441722Y264525D01*
X442865Y265668D01*
X443484Y267162D01*
Y268778D01*
X442865Y270272D01*
X441722Y271415D01*
X440228Y272034D01*
D02*
G37*
G36*
X390698Y264414D02*
X389082D01*
X387588Y263795D01*
X386445Y262652D01*
X385826Y261158D01*
Y259542D01*
X386445Y258048D01*
X387588Y256905D01*
X389082Y256286D01*
X390698D01*
X392192Y256905D01*
X393335Y258048D01*
X393954Y259542D01*
Y261158D01*
X393335Y262652D01*
X392192Y263795D01*
X390698Y264414D01*
D02*
G37*
G36*
X625648Y263144D02*
X624032D01*
X622538Y262525D01*
X621395Y261382D01*
X620776Y259888D01*
Y258272D01*
X621395Y256778D01*
X622538Y255635D01*
X624032Y255016D01*
X625648D01*
X627142Y255635D01*
X628285Y256778D01*
X628904Y258272D01*
Y259888D01*
X628285Y261382D01*
X627142Y262525D01*
X625648Y263144D01*
D02*
G37*
G36*
X797098Y256794D02*
X795482D01*
X793988Y256175D01*
X792845Y255032D01*
X792226Y253538D01*
Y251922D01*
X792845Y250428D01*
X793988Y249285D01*
X795482Y248666D01*
X797098D01*
X798592Y249285D01*
X799735Y250428D01*
X800354Y251922D01*
Y253538D01*
X799735Y255032D01*
X798592Y256175D01*
X797098Y256794D01*
D02*
G37*
G36*
X197658Y256540D02*
X196042D01*
X194548Y255921D01*
X193405Y254778D01*
X192786Y253284D01*
Y251668D01*
X193405Y250174D01*
X194548Y249031D01*
X196042Y248412D01*
X197658D01*
X199152Y249031D01*
X200295Y250174D01*
X200914Y251668D01*
Y253284D01*
X200295Y254778D01*
X199152Y255921D01*
X197658Y256540D01*
D02*
G37*
G36*
X821607Y259969D02*
X819233D01*
X817039Y259060D01*
X815360Y257381D01*
X814451Y255187D01*
Y252813D01*
X815360Y250619D01*
X817039Y248940D01*
X819233Y248031D01*
X821607D01*
X823801Y248940D01*
X825480Y250619D01*
X826389Y252813D01*
Y255187D01*
X825480Y257381D01*
X823801Y259060D01*
X821607Y259969D01*
D02*
G37*
G36*
X666667D02*
X664293D01*
X662099Y259060D01*
X660420Y257381D01*
X659511Y255187D01*
Y252813D01*
X660420Y250619D01*
X662099Y248940D01*
X664293Y248031D01*
X666667D01*
X668861Y248940D01*
X670540Y250619D01*
X671449Y252813D01*
Y255187D01*
X670540Y257381D01*
X668861Y259060D01*
X666667Y259969D01*
D02*
G37*
G36*
X610408Y254254D02*
X608792D01*
X607298Y253635D01*
X606155Y252492D01*
X605536Y250998D01*
Y249382D01*
X606155Y247888D01*
X607298Y246745D01*
X608792Y246126D01*
X610408D01*
X611902Y246745D01*
X613045Y247888D01*
X613664Y249382D01*
Y250998D01*
X613045Y252492D01*
X611902Y253635D01*
X610408Y254254D01*
D02*
G37*
G36*
X540558D02*
X538942D01*
X537448Y253635D01*
X536305Y252492D01*
X535686Y250998D01*
Y249382D01*
X536305Y247888D01*
X537448Y246745D01*
X538942Y246126D01*
X540558D01*
X542052Y246745D01*
X543195Y247888D01*
X543814Y249382D01*
Y250998D01*
X543195Y252492D01*
X542052Y253635D01*
X540558Y254254D01*
D02*
G37*
G36*
X350058Y247904D02*
X348442D01*
X346948Y247285D01*
X345805Y246142D01*
X345186Y244648D01*
Y243032D01*
X345805Y241538D01*
X346948Y240395D01*
X348442Y239776D01*
X350058D01*
X351552Y240395D01*
X352695Y241538D01*
X353314Y243032D01*
Y244648D01*
X352695Y246142D01*
X351552Y247285D01*
X350058Y247904D01*
D02*
G37*
G36*
X937597Y245878D02*
X935980D01*
X934487Y245259D01*
X933343Y244116D01*
X932725Y242622D01*
Y241006D01*
X933343Y239512D01*
X934487Y238369D01*
X935980Y237750D01*
X937597D01*
X939091Y238369D01*
X940234Y239512D01*
X940853Y241006D01*
Y242622D01*
X940234Y244116D01*
X939091Y245259D01*
X937597Y245878D01*
D02*
G37*
G36*
X248458Y245364D02*
X246842D01*
X245348Y244745D01*
X244205Y243602D01*
X243586Y242108D01*
Y240492D01*
X244205Y238998D01*
X245348Y237855D01*
X246842Y237236D01*
X248458D01*
X249952Y237855D01*
X251095Y238998D01*
X251714Y240492D01*
Y242108D01*
X251095Y243602D01*
X249952Y244745D01*
X248458Y245364D01*
D02*
G37*
G36*
X553258Y242824D02*
X551642D01*
X550148Y242205D01*
X549005Y241062D01*
X548386Y239568D01*
Y237952D01*
X549005Y236458D01*
X550148Y235315D01*
X551642Y234696D01*
X553258D01*
X554752Y235315D01*
X555895Y236458D01*
X556514Y237952D01*
Y239568D01*
X555895Y241062D01*
X554752Y242205D01*
X553258Y242824D01*
D02*
G37*
G36*
X166705Y243436D02*
X164595D01*
X162556Y242890D01*
X160728Y241834D01*
X159236Y240342D01*
X158180Y238514D01*
X157634Y236475D01*
Y234365D01*
X158180Y232326D01*
X159236Y230498D01*
X160728Y229006D01*
X162556Y227950D01*
X164595Y227404D01*
X166705D01*
X168744Y227950D01*
X170572Y229006D01*
X172064Y230498D01*
X173120Y232326D01*
X173666Y234365D01*
Y236475D01*
X173120Y238514D01*
X172064Y240342D01*
X170572Y241834D01*
X168744Y242890D01*
X166705Y243436D01*
D02*
G37*
G36*
X783507Y216789D02*
X781133D01*
X778939Y215880D01*
X777260Y214201D01*
X776351Y212007D01*
Y209633D01*
X777260Y207439D01*
X778939Y205760D01*
X781133Y204851D01*
X783507D01*
X785701Y205760D01*
X787380Y207439D01*
X788289Y209633D01*
Y212007D01*
X787380Y214201D01*
X785701Y215880D01*
X783507Y216789D01*
D02*
G37*
G36*
X750108Y212344D02*
X748492D01*
X746998Y211725D01*
X745855Y210582D01*
X745236Y209088D01*
Y207472D01*
X745855Y205978D01*
X746998Y204835D01*
X748492Y204216D01*
X750108D01*
X751602Y204835D01*
X752745Y205978D01*
X753364Y207472D01*
Y209088D01*
X752745Y210582D01*
X751602Y211725D01*
X750108Y212344D01*
D02*
G37*
G36*
X609517Y205359D02*
X607143D01*
X604949Y204450D01*
X603270Y202771D01*
X602361Y200577D01*
Y198203D01*
X603270Y196009D01*
X604949Y194330D01*
X607143Y193421D01*
X609517D01*
X611711Y194330D01*
X613390Y196009D01*
X614299Y198203D01*
Y200577D01*
X613390Y202771D01*
X611711Y204450D01*
X609517Y205359D01*
D02*
G37*
G36*
X407788Y206121D02*
X405012D01*
X402331Y205403D01*
X399928Y204015D01*
X397965Y202052D01*
X396577Y199649D01*
X395859Y196968D01*
Y194192D01*
X396577Y191511D01*
X397965Y189108D01*
X399928Y187145D01*
X402331Y185757D01*
X405012Y185039D01*
X407788D01*
X410469Y185757D01*
X412872Y187145D01*
X414835Y189108D01*
X416223Y191511D01*
X416941Y194192D01*
Y196968D01*
X416223Y199649D01*
X414835Y202052D01*
X412872Y204015D01*
X410469Y205403D01*
X407788Y206121D01*
D02*
G37*
G36*
X209088Y185674D02*
X207472D01*
X205978Y185055D01*
X204835Y183912D01*
X204216Y182418D01*
Y180802D01*
X204835Y179308D01*
X205978Y178165D01*
X207472Y177546D01*
X209088D01*
X210582Y178165D01*
X211725Y179308D01*
X212344Y180802D01*
Y182418D01*
X211725Y183912D01*
X210582Y185055D01*
X209088Y185674D01*
D02*
G37*
G36*
X248458Y184404D02*
X246842D01*
X245348Y183785D01*
X244205Y182642D01*
X243586Y181148D01*
Y179532D01*
X244205Y178038D01*
X245348Y176895D01*
X246842Y176276D01*
X248458D01*
X249952Y176895D01*
X251095Y178038D01*
X251714Y179532D01*
Y181148D01*
X251095Y182642D01*
X249952Y183785D01*
X248458Y184404D01*
D02*
G37*
G36*
X550985Y179150D02*
X549369D01*
X547875Y178531D01*
X546732Y177388D01*
X546113Y175894D01*
Y174277D01*
X546732Y172784D01*
X547875Y171640D01*
X549369Y171022D01*
X550985D01*
X552479Y171640D01*
X553622Y172784D01*
X554241Y174277D01*
Y175894D01*
X553622Y177388D01*
X552479Y178531D01*
X550985Y179150D01*
D02*
G37*
G36*
X525676Y204296D02*
X522324D01*
X519037Y203642D01*
X515940Y202359D01*
X513153Y200497D01*
X510783Y198127D01*
X508921Y195340D01*
X507638Y192243D01*
X506984Y188956D01*
Y185604D01*
X507638Y182317D01*
X508921Y179220D01*
X510783Y176433D01*
X513153Y174063D01*
X515940Y172201D01*
X519037Y170918D01*
X522324Y170264D01*
X525676D01*
X528963Y170918D01*
X532060Y172201D01*
X534847Y174063D01*
X537217Y176433D01*
X539079Y179220D01*
X540362Y182317D01*
X541016Y185604D01*
Y188956D01*
X540362Y192243D01*
X539079Y195340D01*
X537217Y198127D01*
X534847Y200497D01*
X532060Y202359D01*
X528963Y203642D01*
X525676Y204296D01*
D02*
G37*
G36*
X228138Y162965D02*
X226522D01*
X225028Y162346D01*
X223885Y161203D01*
X223266Y159709D01*
Y158092D01*
X223885Y156599D01*
X225028Y155455D01*
X226522Y154837D01*
X228138D01*
X229632Y155455D01*
X230775Y156599D01*
X231394Y158092D01*
Y159709D01*
X230775Y161203D01*
X229632Y162346D01*
X228138Y162965D01*
D02*
G37*
G36*
X210358Y162814D02*
X208742D01*
X207248Y162195D01*
X206105Y161052D01*
X205486Y159558D01*
Y157942D01*
X206105Y156448D01*
X207248Y155305D01*
X208742Y154686D01*
X210358D01*
X211852Y155305D01*
X212995Y156448D01*
X213614Y157942D01*
Y159558D01*
X212995Y161052D01*
X211852Y162195D01*
X210358Y162814D01*
D02*
G37*
G36*
X317038Y160274D02*
X315422D01*
X313928Y159655D01*
X312785Y158512D01*
X312166Y157018D01*
Y155402D01*
X312785Y153908D01*
X313928Y152765D01*
X315422Y152146D01*
X317038D01*
X318532Y152765D01*
X319675Y153908D01*
X320294Y155402D01*
Y157018D01*
X319675Y158512D01*
X318532Y159655D01*
X317038Y160274D01*
D02*
G37*
G36*
X680637Y160909D02*
X678263D01*
X676069Y160000D01*
X674390Y158321D01*
X673481Y156127D01*
Y153753D01*
X674390Y151559D01*
X676069Y149880D01*
X678263Y148971D01*
X680637D01*
X682831Y149880D01*
X684510Y151559D01*
X685419Y153753D01*
Y156127D01*
X684510Y158321D01*
X682831Y160000D01*
X680637Y160909D01*
D02*
G37*
G36*
X107488Y155194D02*
X105872D01*
X104378Y154575D01*
X103235Y153432D01*
X102616Y151938D01*
Y150322D01*
X103235Y148828D01*
X104378Y147685D01*
X105872Y147066D01*
X107488D01*
X108982Y147685D01*
X110125Y148828D01*
X110744Y150322D01*
Y151938D01*
X110125Y153432D01*
X108982Y154575D01*
X107488Y155194D01*
D02*
G37*
G36*
X96058Y148844D02*
X94442D01*
X92948Y148225D01*
X91805Y147082D01*
X91186Y145588D01*
Y143972D01*
X91805Y142478D01*
X92948Y141335D01*
X94442Y140716D01*
X96058D01*
X97552Y141335D01*
X98695Y142478D01*
X99314Y143972D01*
Y145588D01*
X98695Y147082D01*
X97552Y148225D01*
X96058Y148844D01*
D02*
G37*
G36*
X333548Y146304D02*
X331932D01*
X330438Y145685D01*
X329295Y144542D01*
X328676Y143048D01*
Y141432D01*
X329295Y139938D01*
X330438Y138795D01*
X331932Y138176D01*
X333548D01*
X335042Y138795D01*
X336185Y139938D01*
X336804Y141432D01*
Y143048D01*
X336185Y144542D01*
X335042Y145685D01*
X333548Y146304D01*
D02*
G37*
G36*
X248458Y142494D02*
X246842D01*
X245348Y141875D01*
X244205Y140732D01*
X243586Y139238D01*
Y137622D01*
X244205Y136128D01*
X245348Y134985D01*
X246842Y134366D01*
X248458D01*
X249952Y134985D01*
X251095Y136128D01*
X251714Y137622D01*
Y139238D01*
X251095Y140732D01*
X249952Y141875D01*
X248458Y142494D01*
D02*
G37*
G36*
X407788Y155321D02*
X405012D01*
X402331Y154603D01*
X399928Y153215D01*
X397965Y151252D01*
X396577Y148849D01*
X395859Y146168D01*
Y143392D01*
X396577Y140711D01*
X397965Y138308D01*
X399928Y136345D01*
X402331Y134957D01*
X405012Y134239D01*
X407788D01*
X410469Y134957D01*
X412872Y136345D01*
X414835Y138308D01*
X416223Y140711D01*
X416941Y143392D01*
Y146168D01*
X416223Y148849D01*
X414835Y151252D01*
X412872Y153215D01*
X410469Y154603D01*
X407788Y155321D01*
D02*
G37*
G36*
X166705Y143436D02*
X164595D01*
X162556Y142890D01*
X160728Y141834D01*
X159236Y140342D01*
X158180Y138514D01*
X157634Y136475D01*
Y134365D01*
X158180Y132326D01*
X159236Y130498D01*
X160728Y129006D01*
X162556Y127950D01*
X164595Y127404D01*
X166705D01*
X168744Y127950D01*
X170572Y129006D01*
X172064Y130498D01*
X173120Y132326D01*
X173666Y134365D01*
Y136475D01*
X173120Y138514D01*
X172064Y140342D01*
X170572Y141834D01*
X168744Y142890D01*
X166705Y143436D01*
D02*
G37*
G36*
X278938Y133604D02*
X277322D01*
X275828Y132985D01*
X274685Y131842D01*
X274066Y130348D01*
Y128732D01*
X274685Y127238D01*
X275828Y126095D01*
X277322Y125476D01*
X278938D01*
X280432Y126095D01*
X281575Y127238D01*
X282194Y128732D01*
Y130348D01*
X281575Y131842D01*
X280432Y132985D01*
X278938Y133604D01*
D02*
G37*
G36*
X643807Y122809D02*
X641433D01*
X639239Y121900D01*
X637560Y120221D01*
X636651Y118027D01*
Y115653D01*
X637560Y113459D01*
X639239Y111780D01*
X641433Y110871D01*
X643807D01*
X646001Y111780D01*
X647680Y113459D01*
X648589Y115653D01*
Y118027D01*
X647680Y120221D01*
X646001Y121900D01*
X643807Y122809D01*
D02*
G37*
G36*
X535857Y121539D02*
X533483D01*
X531289Y120630D01*
X529610Y118951D01*
X528701Y116757D01*
Y114383D01*
X529610Y112189D01*
X531289Y110510D01*
X533483Y109601D01*
X535857D01*
X538051Y110510D01*
X539730Y112189D01*
X540639Y114383D01*
Y116757D01*
X539730Y118951D01*
X538051Y120630D01*
X535857Y121539D01*
D02*
G37*
G36*
X407788Y129921D02*
X405012D01*
X402331Y129203D01*
X399928Y127815D01*
X397965Y125852D01*
X396577Y123449D01*
X395859Y120768D01*
Y117992D01*
X396577Y115311D01*
X397965Y112908D01*
X399928Y110945D01*
X402331Y109557D01*
X405012Y108839D01*
X407788D01*
X410469Y109557D01*
X412872Y110945D01*
X414835Y112908D01*
X416223Y115311D01*
X416941Y117992D01*
Y120768D01*
X416223Y123449D01*
X414835Y125852D01*
X412872Y127815D01*
X410469Y129203D01*
X407788Y129921D01*
D02*
G37*
G36*
X70930Y290610D02*
X10930D01*
X10152Y290288D01*
X9830Y289510D01*
Y109510D01*
X10152Y108732D01*
X10930Y108410D01*
X70930D01*
X71708Y108732D01*
X72030Y109510D01*
Y289510D01*
X71708Y290288D01*
X70930Y290610D01*
D02*
G37*
G36*
X317417Y112649D02*
X315043D01*
X312849Y111740D01*
X311170Y110061D01*
X310261Y107867D01*
Y105493D01*
X311170Y103299D01*
X312849Y101620D01*
X315043Y100711D01*
X317417D01*
X319611Y101620D01*
X321290Y103299D01*
X322199Y105493D01*
Y107867D01*
X321290Y110061D01*
X319611Y111740D01*
X317417Y112649D01*
D02*
G37*
G36*
X214168Y100584D02*
X212552D01*
X211058Y99965D01*
X209915Y98822D01*
X209296Y97328D01*
Y95712D01*
X209915Y94218D01*
X211058Y93075D01*
X212552Y92456D01*
X214168D01*
X215662Y93075D01*
X216805Y94218D01*
X217424Y95712D01*
Y97328D01*
X216805Y98822D01*
X215662Y99965D01*
X214168Y100584D01*
D02*
G37*
G36*
X198928D02*
X197312D01*
X195818Y99965D01*
X194675Y98822D01*
X194056Y97328D01*
Y95712D01*
X194675Y94218D01*
X195818Y93075D01*
X197312Y92456D01*
X198928D01*
X200422Y93075D01*
X201565Y94218D01*
X202184Y95712D01*
Y97328D01*
X201565Y98822D01*
X200422Y99965D01*
X198928Y100584D01*
D02*
G37*
G36*
X245867Y103169D02*
X244251D01*
X242757Y102550D01*
X241614Y101407D01*
X240995Y99914D01*
Y98297D01*
X241614Y96803D01*
X242757Y95660D01*
X244251Y95041D01*
X244998D01*
X246071Y94747D01*
X247345Y92904D01*
Y92781D01*
X247964Y91287D01*
X249107Y90144D01*
X250601Y89525D01*
X252217D01*
X253711Y90144D01*
X254854Y91287D01*
X255473Y92781D01*
Y94397D01*
X254854Y95891D01*
X253711Y97034D01*
X252217Y97653D01*
X251470D01*
X250397Y97947D01*
X249123Y99790D01*
Y99914D01*
X248504Y101407D01*
X247361Y102550D01*
X245867Y103169D01*
D02*
G37*
G36*
X911075Y114930D02*
X907565D01*
X904175Y114022D01*
X901135Y112267D01*
X898653Y109785D01*
X896898Y106745D01*
X895990Y103355D01*
Y99845D01*
X896898Y96455D01*
X898653Y93415D01*
X901135Y90933D01*
X904175Y89178D01*
X907565Y88270D01*
X911075D01*
X914465Y89178D01*
X917505Y90933D01*
X919987Y93415D01*
X921742Y96455D01*
X922650Y99845D01*
Y103355D01*
X921742Y106745D01*
X919987Y109785D01*
X917505Y112267D01*
X914465Y114022D01*
X911075Y114930D01*
D02*
G37*
G36*
X295448Y94234D02*
X293832D01*
X292338Y93615D01*
X291195Y92472D01*
X290576Y90978D01*
Y89362D01*
X291195Y87868D01*
X292338Y86725D01*
X293832Y86106D01*
X295448D01*
X296942Y86725D01*
X298085Y87868D01*
X298704Y89362D01*
Y90978D01*
X298085Y92472D01*
X296942Y93615D01*
X295448Y94234D01*
D02*
G37*
G36*
X407788Y104521D02*
X405012D01*
X402331Y103803D01*
X399928Y102415D01*
X397965Y100452D01*
X396577Y98049D01*
X395859Y95368D01*
Y92592D01*
X396577Y89911D01*
X397965Y87508D01*
X399928Y85545D01*
X402331Y84157D01*
X405012Y83439D01*
X407788D01*
X410469Y84157D01*
X412872Y85545D01*
X414835Y87508D01*
X416223Y89911D01*
X416941Y92592D01*
Y95368D01*
X416223Y98049D01*
X414835Y100452D01*
X412872Y102415D01*
X410469Y103803D01*
X407788Y104521D01*
D02*
G37*
G36*
Y79121D02*
X405012D01*
X402331Y78403D01*
X399928Y77015D01*
X397965Y75052D01*
X396577Y72649D01*
X395859Y69968D01*
Y67192D01*
X396577Y64511D01*
X397965Y62108D01*
X399928Y60145D01*
X402331Y58757D01*
X405012Y58039D01*
X407788D01*
X410469Y58757D01*
X412872Y60145D01*
X414835Y62108D01*
X416223Y64511D01*
X416941Y67192D01*
Y69968D01*
X416223Y72649D01*
X414835Y75052D01*
X412872Y77015D01*
X410469Y78403D01*
X407788Y79121D01*
D02*
G37*
G36*
X842157Y67776D02*
X839323D01*
X836584Y67042D01*
X834129Y65625D01*
X832125Y63621D01*
X830708Y61165D01*
X829974Y58427D01*
Y55593D01*
X830708Y52854D01*
X832125Y50399D01*
X834129Y48395D01*
X836584Y46978D01*
X839323Y46244D01*
X842157D01*
X844895Y46978D01*
X847350Y48395D01*
X849355Y50399D01*
X850772Y52854D01*
X851506Y55593D01*
Y58427D01*
X850772Y61165D01*
X849355Y63621D01*
X847350Y65625D01*
X844895Y67042D01*
X842157Y67776D01*
D02*
G37*
G36*
X791357D02*
X788523D01*
X785785Y67042D01*
X783329Y65625D01*
X781325Y63621D01*
X779908Y61165D01*
X779174Y58427D01*
Y55593D01*
X779908Y52854D01*
X781325Y50399D01*
X783329Y48395D01*
X785785Y46978D01*
X788523Y46244D01*
X791357D01*
X794096Y46978D01*
X796551Y48395D01*
X798555Y50399D01*
X799972Y52854D01*
X800706Y55593D01*
Y58427D01*
X799972Y61165D01*
X798555Y63621D01*
X796551Y65625D01*
X794096Y67042D01*
X791357Y67776D01*
D02*
G37*
G36*
X740557D02*
X737723D01*
X734985Y67042D01*
X732530Y65625D01*
X730525Y63621D01*
X729108Y61165D01*
X728374Y58427D01*
Y55593D01*
X729108Y52854D01*
X730525Y50399D01*
X732530Y48395D01*
X734985Y46978D01*
X737723Y46244D01*
X740557D01*
X743296Y46978D01*
X745751Y48395D01*
X747755Y50399D01*
X749172Y52854D01*
X749906Y55593D01*
Y58427D01*
X749172Y61165D01*
X747755Y63621D01*
X745751Y65625D01*
X743296Y67042D01*
X740557Y67776D01*
D02*
G37*
G36*
X689757D02*
X686923D01*
X684184Y67042D01*
X681730Y65625D01*
X679725Y63621D01*
X678308Y61165D01*
X677574Y58427D01*
Y55593D01*
X678308Y52854D01*
X679725Y50399D01*
X681730Y48395D01*
X684184Y46978D01*
X686923Y46244D01*
X689757D01*
X692495Y46978D01*
X694950Y48395D01*
X696955Y50399D01*
X698372Y52854D01*
X699106Y55593D01*
Y58427D01*
X698372Y61165D01*
X696955Y63621D01*
X694950Y65625D01*
X692495Y67042D01*
X689757Y67776D01*
D02*
G37*
G36*
X588157D02*
X585323D01*
X582584Y67042D01*
X580130Y65625D01*
X578125Y63621D01*
X576708Y61165D01*
X575974Y58427D01*
Y55593D01*
X576708Y52854D01*
X578125Y50399D01*
X580130Y48395D01*
X582584Y46978D01*
X585323Y46244D01*
X588157D01*
X590896Y46978D01*
X593350Y48395D01*
X595355Y50399D01*
X596772Y52854D01*
X597506Y55593D01*
Y58427D01*
X596772Y61165D01*
X595355Y63621D01*
X593350Y65625D01*
X590896Y67042D01*
X588157Y67776D01*
D02*
G37*
G36*
X102206Y47097D02*
X100589D01*
X99096Y46478D01*
X97952Y45335D01*
X97334Y43841D01*
Y42224D01*
X97952Y40731D01*
X99096Y39587D01*
X100589Y38969D01*
X102206D01*
X103700Y39587D01*
X104843Y40731D01*
X105462Y42224D01*
Y43841D01*
X104843Y45335D01*
X103700Y46478D01*
X102206Y47097D01*
D02*
G37*
G36*
X407788Y53721D02*
X405012D01*
X402331Y53003D01*
X399928Y51615D01*
X397965Y49652D01*
X396577Y47249D01*
X395859Y44568D01*
Y41792D01*
X396577Y39111D01*
X397965Y36708D01*
X399928Y34745D01*
X402331Y33357D01*
X405012Y32639D01*
X407788D01*
X410469Y33357D01*
X412872Y34745D01*
X414835Y36708D01*
X416223Y39111D01*
X416941Y41792D01*
Y44568D01*
X416223Y47249D01*
X414835Y49652D01*
X412872Y51615D01*
X410469Y53003D01*
X407788Y53721D01*
D02*
G37*
G36*
X120188Y19304D02*
X118572D01*
X117078Y18685D01*
X115935Y17542D01*
X115316Y16048D01*
Y14432D01*
X115935Y12938D01*
X117078Y11795D01*
X118572Y11176D01*
X120188D01*
X121682Y11795D01*
X122825Y12938D01*
X123444Y14432D01*
Y16048D01*
X122825Y17542D01*
X121682Y18685D01*
X120188Y19304D01*
D02*
G37*
G36*
X361086Y44956D02*
X357734D01*
X354447Y44302D01*
X351350Y43019D01*
X348563Y41157D01*
X346193Y38787D01*
X344331Y36000D01*
X343048Y32903D01*
X342394Y29616D01*
Y26264D01*
X343048Y22977D01*
X344331Y19880D01*
X346193Y17093D01*
X348563Y14723D01*
X351350Y12861D01*
X354447Y11578D01*
X357734Y10924D01*
X361086D01*
X364373Y11578D01*
X367470Y12861D01*
X370257Y14723D01*
X372627Y17093D01*
X374489Y19880D01*
X375772Y22977D01*
X376426Y26264D01*
Y29616D01*
X375772Y32903D01*
X374489Y36000D01*
X372627Y38787D01*
X370257Y41157D01*
X367470Y43019D01*
X364373Y44302D01*
X361086Y44956D01*
D02*
G37*
G36*
X157886D02*
X154534D01*
X151247Y44302D01*
X148150Y43019D01*
X145363Y41157D01*
X142993Y38787D01*
X141131Y36000D01*
X139848Y32903D01*
X139194Y29616D01*
Y26264D01*
X139848Y22977D01*
X141131Y19880D01*
X142993Y17093D01*
X145363Y14723D01*
X148150Y12861D01*
X151247Y11578D01*
X154534Y10924D01*
X157886D01*
X161173Y11578D01*
X164270Y12861D01*
X167057Y14723D01*
X169427Y17093D01*
X171289Y19880D01*
X172572Y22977D01*
X173226Y26264D01*
Y29616D01*
X172572Y32903D01*
X171289Y36000D01*
X169427Y38787D01*
X167057Y41157D01*
X164270Y43019D01*
X161173Y44302D01*
X157886Y44956D01*
D02*
G37*
G36*
X525676Y43096D02*
X522324D01*
X519037Y42442D01*
X515940Y41159D01*
X513153Y39297D01*
X510783Y36927D01*
X508921Y34140D01*
X507638Y31043D01*
X506984Y27756D01*
Y24404D01*
X507638Y21117D01*
X508921Y18020D01*
X510783Y15233D01*
X513153Y12863D01*
X515940Y11001D01*
X519037Y9718D01*
X522324Y9064D01*
X525676D01*
X528963Y9718D01*
X532060Y11001D01*
X534847Y12863D01*
X537217Y15233D01*
X539079Y18020D01*
X540362Y21117D01*
X541016Y24404D01*
Y27756D01*
X540362Y31043D01*
X539079Y34140D01*
X537217Y36927D01*
X534847Y39297D01*
X532060Y41159D01*
X528963Y42442D01*
X525676Y43096D01*
D02*
G37*
G36*
X407788Y28321D02*
X405012D01*
X402331Y27603D01*
X399928Y26215D01*
X397965Y24252D01*
X396577Y21849D01*
X395859Y19168D01*
Y16392D01*
X396577Y13711D01*
X397965Y11308D01*
X399928Y9345D01*
X402331Y7957D01*
X405012Y7239D01*
X407788D01*
X410469Y7957D01*
X412872Y9345D01*
X414835Y11308D01*
X416223Y13711D01*
X416941Y16392D01*
Y19168D01*
X416223Y21849D01*
X414835Y24252D01*
X412872Y26215D01*
X410469Y27603D01*
X407788Y28321D01*
D02*
G37*
%LPD*%
D35*
X909320Y101600D02*
D03*
D36*
X883820Y76100D02*
D03*
Y127100D02*
D03*
X934820D02*
D03*
Y76100D02*
D03*
D41*
X637540Y57010D02*
D03*
X739140D02*
D03*
X840740D02*
D03*
X586740D02*
D03*
X688340D02*
D03*
X789940D02*
D03*
D43*
X524000Y26080D02*
D03*
Y187280D02*
D03*
X156210Y27940D02*
D03*
X359410D02*
D03*
D44*
X165650Y135420D02*
D03*
Y235420D02*
D03*
D48*
X416021Y318770D02*
D03*
X490220D02*
D03*
D49*
X35000Y35000D02*
D03*
Y365000D02*
D03*
X915000Y35000D02*
D03*
Y365000D02*
D03*
D56*
X149030Y177510D02*
D03*
X156030Y170510D02*
D03*
X163030Y177510D02*
D03*
X149030Y191510D02*
D03*
X156030Y198510D02*
D03*
Y184510D02*
D03*
X163030Y191510D02*
D03*
X170030Y170510D02*
D03*
Y184510D02*
D03*
X177030Y191510D02*
D03*
Y177510D02*
D03*
X170030Y198510D02*
D03*
D57*
X207010Y325120D02*
D03*
X308610D02*
D03*
X181610D02*
D03*
X257810D02*
D03*
X283210D02*
D03*
X232410D02*
D03*
X156210D02*
D03*
X334010D02*
D03*
X359410D02*
D03*
D58*
X410371Y297770D02*
D03*
X495871D02*
D03*
D59*
X422920Y303169D02*
D03*
X483220D02*
D03*
D60*
X478620Y312171D02*
D03*
X457322Y303169D02*
D03*
X448922D02*
D03*
X440322D02*
D03*
X465821D02*
D03*
X444622Y312169D02*
D03*
X427622D02*
D03*
X436120D02*
D03*
X461622D02*
D03*
X470121D02*
D03*
D61*
X406400Y170180D02*
D03*
Y195580D02*
D03*
Y43180D02*
D03*
Y68580D02*
D03*
Y93980D02*
D03*
Y119380D02*
D03*
Y144780D02*
D03*
Y17780D02*
D03*
D63*
X714202Y152146D02*
D03*
X745617Y309933D02*
D03*
X594360Y367030D02*
D03*
X935990Y207010D02*
D03*
X645160Y370840D02*
D03*
X829310Y368300D02*
D03*
X742950Y365760D02*
D03*
X66040Y15240D02*
D03*
X43180Y93980D02*
D03*
X86360Y43180D02*
D03*
X295940Y48290D02*
D03*
X454660Y22860D02*
D03*
X367030Y86360D02*
D03*
X382270Y189230D02*
D03*
X41910Y330200D02*
D03*
X121285Y336550D02*
D03*
X86360Y344170D02*
D03*
X119380Y365760D02*
D03*
X229870Y252730D02*
D03*
X522382Y343508D02*
D03*
X419100Y381000D02*
D03*
X521970Y377190D02*
D03*
X529590Y149860D02*
D03*
X598424Y130810D02*
D03*
Y172960D02*
D03*
X667766Y194310D02*
D03*
X795020Y114300D02*
D03*
X779780Y152400D02*
D03*
X876300Y153670D02*
D03*
X890270Y203200D02*
D03*
X542290Y283210D02*
D03*
X593090Y229870D02*
D03*
Y254000D02*
D03*
X744220Y222504D02*
D03*
X937260Y281940D02*
D03*
X447040Y240030D02*
D03*
X594360Y288290D02*
D03*
X85090Y271780D02*
D03*
X866140Y248920D02*
D03*
X861314Y198120D02*
D03*
X739364Y318546D02*
D03*
X834569Y329442D02*
D03*
X902970Y322580D02*
D03*
X589280Y341630D02*
D03*
X707390Y337820D02*
D03*
X936789Y241814D02*
D03*
X609600Y250190D02*
D03*
X749300Y208280D02*
D03*
X556260Y302260D02*
D03*
X539750Y250190D02*
D03*
X233231Y382719D02*
D03*
X233680Y364490D02*
D03*
X247650Y241300D02*
D03*
X92710Y337820D02*
D03*
Y354330D02*
D03*
X196850Y252476D02*
D03*
X247650Y138430D02*
D03*
X208280Y181610D02*
D03*
X119380Y15240D02*
D03*
X101398Y43033D02*
D03*
X707390Y316230D02*
D03*
X853440Y294640D02*
D03*
X471424Y268778D02*
D03*
X99060Y271780D02*
D03*
X443183Y380935D02*
D03*
X463550Y381000D02*
D03*
X111760Y271780D02*
D03*
X278130Y129540D02*
D03*
X796290Y252730D02*
D03*
X624840Y259080D02*
D03*
X227330Y158901D02*
D03*
X439420Y267970D02*
D03*
X552450Y238760D02*
D03*
X451658Y268986D02*
D03*
X389890Y260350D02*
D03*
X247650Y180340D02*
D03*
X209550Y158750D02*
D03*
X245059Y99105D02*
D03*
X251409Y93589D02*
D03*
X106680Y151130D02*
D03*
X332740Y142240D02*
D03*
X95250Y144780D02*
D03*
X294640Y90170D02*
D03*
X316230Y156210D02*
D03*
X550177Y175086D02*
D03*
X213360Y96520D02*
D03*
X198120D02*
D03*
X349250Y243840D02*
D03*
X137160Y339090D02*
D03*
X204470Y347980D02*
D03*
X200660Y303530D02*
D03*
X148590Y300990D02*
D03*
X162560D02*
D03*
X530860Y289560D02*
D03*
D64*
X696893Y150696D02*
D03*
X863219Y146050D02*
D03*
X618490Y295910D02*
D03*
X679450Y154940D02*
D03*
X642620Y116840D02*
D03*
X794850Y274241D02*
D03*
X782320Y210820D02*
D03*
X820420Y254000D02*
D03*
X534670Y115570D02*
D03*
X316230Y106680D02*
D03*
X608330Y199390D02*
D03*
X665480Y254000D02*
D03*
M02*
