G04*
G04 #@! TF.GenerationSoftware,Altium Limited,Altium Designer,26.5.0 (11)*
G04*
G04 Layer_Color=16711935*
G04 Board_Origin=0|0*
%FSLAX44Y44*%
%MOMM*%
G71*
G04*
G04 #@! TF.SameCoordinates,B537C3E7-E53A-4C24-A561-7565F1881969*
G04*
G04*
G04 #@! TF.FilePolarity,Negative*
G04*
G01*
G75*
%ADD20R,1.3500X0.9500*%
%ADD24R,0.9500X1.3500*%
%ADD27R,1.0621X1.0637*%
%ADD30R,1.0637X1.0621*%
%ADD35C,1.6500*%
%ADD36C,2.1300*%
%ADD37C,1.9820*%
%ADD38O,1.1016X2.7016*%
%ADD39C,1.0016*%
%ADD40C,0.8016*%
%ADD41C,1.9500*%
%ADD42C,2.1090*%
%ADD43C,3.2000*%
%ADD44C,1.4000*%
%ADD45C,3.4040*%
%ADD46R,1.9820X1.9820*%
%ADD47R,1.9500X1.9500*%
%ADD48C,1.0500*%
%ADD49C,5.0000*%
%ADD65R,2.3114X2.3114*%
%ADD66R,1.5000X0.6000*%
G04:AMPARAMS|DCode=67|XSize=1.15mm|YSize=0.5mm|CornerRadius=0.125mm|HoleSize=0mm|Usage=FLASHONLY|Rotation=270.000|XOffset=0mm|YOffset=0mm|HoleType=Round|Shape=RoundedRectangle|*
%AMROUNDEDRECTD67*
21,1,1.1500,0.2500,0,0,270.0*
21,1,0.9000,0.5000,0,0,270.0*
1,1,0.2500,-0.1250,-0.4500*
1,1,0.2500,-0.1250,0.4500*
1,1,0.2500,0.1250,0.4500*
1,1,0.2500,0.1250,-0.4500*
%
%ADD67ROUNDEDRECTD67*%
G04:AMPARAMS|DCode=68|XSize=0.93mm|YSize=1.31mm|CornerRadius=0.0698mm|HoleSize=0mm|Usage=FLASHONLY|Rotation=270.000|XOffset=0mm|YOffset=0mm|HoleType=Round|Shape=RoundedRectangle|*
%AMROUNDEDRECTD68*
21,1,0.9300,1.1705,0,0,270.0*
21,1,0.7905,1.3100,0,0,270.0*
1,1,0.1395,-0.5853,-0.3953*
1,1,0.1395,-0.5853,0.3953*
1,1,0.1395,0.5853,0.3953*
1,1,0.1395,0.5853,-0.3953*
%
%ADD68ROUNDEDRECTD68*%
G04:AMPARAMS|DCode=71|XSize=2.15mm|YSize=1.48mm|CornerRadius=0.185mm|HoleSize=0mm|Usage=FLASHONLY|Rotation=270.000|XOffset=0mm|YOffset=0mm|HoleType=Round|Shape=RoundedRectangle|*
%AMROUNDEDRECTD71*
21,1,2.1500,1.1100,0,0,270.0*
21,1,1.7800,1.4800,0,0,270.0*
1,1,0.3700,-0.5550,-0.8900*
1,1,0.3700,-0.5550,0.8900*
1,1,0.3700,0.5550,0.8900*
1,1,0.3700,0.5550,-0.8900*
%
%ADD71ROUNDEDRECTD71*%
%ADD72R,1.1000X1.4500*%
%ADD75R,2.3400X1.5000*%
G04:AMPARAMS|DCode=77|XSize=3.24mm|YSize=1.31mm|CornerRadius=0.0983mm|HoleSize=0mm|Usage=FLASHONLY|Rotation=270.000|XOffset=0mm|YOffset=0mm|HoleType=Round|Shape=RoundedRectangle|*
%AMROUNDEDRECTD77*
21,1,3.2400,1.1135,0,0,270.0*
21,1,3.0435,1.3100,0,0,270.0*
1,1,0.1965,-0.5568,-1.5218*
1,1,0.1965,-0.5568,1.5218*
1,1,0.1965,0.5568,1.5218*
1,1,0.1965,0.5568,-1.5218*
%
%ADD77ROUNDEDRECTD77*%
%ADD82R,1.1016X0.9016*%
%ADD83R,1.2954X2.3622*%
%ADD84R,1.4532X0.9032*%
%ADD85R,3.7084X2.3622*%
G04:AMPARAMS|DCode=86|XSize=1.414mm|YSize=0.934mm|CornerRadius=0.1677mm|HoleSize=0mm|Usage=FLASHONLY|Rotation=0.000|XOffset=0mm|YOffset=0mm|HoleType=Round|Shape=RoundedRectangle|*
%AMROUNDEDRECTD86*
21,1,1.4140,0.5986,0,0,0.0*
21,1,1.0786,0.9340,0,0,0.0*
1,1,0.3354,0.5393,-0.2993*
1,1,0.3354,-0.5393,-0.2993*
1,1,0.3354,-0.5393,0.2993*
1,1,0.3354,0.5393,0.2993*
%
%ADD86ROUNDEDRECTD86*%
D20*
X243166Y252850D02*
D03*
X217766Y252970D02*
D03*
X779488Y114929D02*
D03*
X243166Y267850D02*
D03*
X217766Y267970D02*
D03*
X779488Y129929D02*
D03*
D24*
X581420Y105410D02*
D03*
X581660Y130810D02*
D03*
X582930Y175260D02*
D03*
Y199390D02*
D03*
X582810Y227330D02*
D03*
X582690Y251460D02*
D03*
X582810Y294640D02*
D03*
X582930Y318770D02*
D03*
X567930D02*
D03*
X567810Y294640D02*
D03*
Y227330D02*
D03*
X567690Y251460D02*
D03*
X566420Y105410D02*
D03*
X567930Y199390D02*
D03*
X566660Y130810D02*
D03*
X567930Y175260D02*
D03*
D27*
X758190Y182284D02*
D03*
Y165696D02*
D03*
X932180Y179744D02*
D03*
X421640Y368974D02*
D03*
X510540Y342900D02*
D03*
X754088Y114731D02*
D03*
X728688Y114809D02*
D03*
Y131397D02*
D03*
X754088Y131319D02*
D03*
X932180Y163156D02*
D03*
X463550Y368974D02*
D03*
X443230D02*
D03*
X463550Y352386D02*
D03*
X443230D02*
D03*
X421640D02*
D03*
X510540Y326312D02*
D03*
D30*
X727114Y295910D02*
D03*
X894754Y292100D02*
D03*
X235624Y234950D02*
D03*
X375324Y219710D02*
D03*
X715606Y169800D02*
D03*
X732194Y218060D02*
D03*
X877188Y166751D02*
D03*
X893776Y215011D02*
D03*
X715606Y242190D02*
D03*
X877188Y239141D02*
D03*
X235624Y213360D02*
D03*
Y170180D02*
D03*
Y191770D02*
D03*
Y148590D02*
D03*
Y127000D02*
D03*
X732194Y242190D02*
D03*
X715606Y218060D02*
D03*
X631268Y169800D02*
D03*
X614680D02*
D03*
X732194D02*
D03*
X715606Y193930D02*
D03*
X732194D02*
D03*
X710526Y295910D02*
D03*
X877188Y215011D02*
D03*
X792850Y166751D02*
D03*
X776262D02*
D03*
X893776D02*
D03*
X877188Y190881D02*
D03*
X893776D02*
D03*
Y239141D02*
D03*
X878166Y292100D02*
D03*
X219036Y191770D02*
D03*
Y170180D02*
D03*
Y148590D02*
D03*
Y127000D02*
D03*
Y234950D02*
D03*
Y213360D02*
D03*
X358736Y219710D02*
D03*
D35*
X909320Y101600D02*
D03*
D36*
X883820Y76100D02*
D03*
Y127100D02*
D03*
X934820D02*
D03*
Y76100D02*
D03*
D37*
X207010Y325120D02*
D03*
X308610D02*
D03*
X181610D02*
D03*
X257810D02*
D03*
X283210D02*
D03*
X232410D02*
D03*
X156210D02*
D03*
X334010D02*
D03*
D38*
X410371Y297770D02*
D03*
X495871D02*
D03*
D39*
X422920Y303169D02*
D03*
X483220D02*
D03*
D40*
X478620Y312171D02*
D03*
X457322Y303169D02*
D03*
X448922D02*
D03*
X440322D02*
D03*
X465821D02*
D03*
X444622Y312169D02*
D03*
X427622D02*
D03*
X436120D02*
D03*
X461622D02*
D03*
X470121D02*
D03*
D41*
X637540Y57010D02*
D03*
X739140D02*
D03*
X840740D02*
D03*
X688340D02*
D03*
X789940D02*
D03*
D42*
X406400Y170180D02*
D03*
Y195580D02*
D03*
Y43180D02*
D03*
Y68580D02*
D03*
Y93980D02*
D03*
Y119380D02*
D03*
Y144780D02*
D03*
Y17780D02*
D03*
D43*
X524000Y26080D02*
D03*
Y187280D02*
D03*
D44*
X165650Y135420D02*
D03*
Y235420D02*
D03*
D45*
X156210Y27940D02*
D03*
X359410D02*
D03*
D46*
Y325120D02*
D03*
D47*
X586740Y57010D02*
D03*
D48*
X416021Y318770D02*
D03*
X490220D02*
D03*
D49*
X35000Y35000D02*
D03*
Y365000D02*
D03*
X915000Y35000D02*
D03*
Y365000D02*
D03*
D65*
X295970Y67370D02*
D03*
X366970D02*
D03*
X295970Y138370D02*
D03*
X366970D02*
D03*
D66*
X195150Y159420D02*
D03*
Y237920D02*
D03*
Y181420D02*
D03*
Y192420D02*
D03*
Y170420D02*
D03*
Y148420D02*
D03*
Y137420D02*
D03*
Y214420D02*
D03*
Y203420D02*
D03*
Y225420D02*
D03*
D67*
X373530Y191210D02*
D03*
X360530Y191410D02*
D03*
X367030Y171810D02*
D03*
D68*
X549910Y149940D02*
D03*
X552880Y273090D02*
D03*
Y250190D02*
D03*
Y227290D02*
D03*
X549910Y127040D02*
D03*
Y104140D02*
D03*
D71*
X771182Y229361D02*
D03*
X609600Y232410D02*
D03*
Y318010D02*
D03*
X635000D02*
D03*
Y232410D02*
D03*
X690880D02*
D03*
X665480D02*
D03*
Y318010D02*
D03*
X690880D02*
D03*
X796582Y229361D02*
D03*
X771182Y314961D02*
D03*
X796582D02*
D03*
X827062D02*
D03*
Y229361D02*
D03*
X852462D02*
D03*
Y314961D02*
D03*
D72*
X553720Y318770D02*
D03*
X735330Y148590D02*
D03*
X753330D02*
D03*
X714900Y265050D02*
D03*
X732900D02*
D03*
X900320Y146050D02*
D03*
X918320D02*
D03*
X876482Y262001D02*
D03*
X894482D02*
D03*
X535720Y318770D02*
D03*
D75*
X117150Y113720D02*
D03*
Y257120D02*
D03*
D77*
X485980Y250190D02*
D03*
X483010Y127040D02*
D03*
D82*
X670480Y201790D02*
D03*
X832062Y198741D02*
D03*
X693480Y211291D02*
D03*
Y192290D02*
D03*
X855062Y208242D02*
D03*
Y189241D02*
D03*
D83*
X697230Y169800D02*
D03*
X858812Y166751D02*
D03*
X674370Y169800D02*
D03*
X651256D02*
D03*
X835952Y166751D02*
D03*
X812838D02*
D03*
D84*
X651104Y209780D02*
D03*
Y190780D02*
D03*
X626110Y200280D02*
D03*
X787692Y197231D02*
D03*
X812686Y206731D02*
D03*
Y187731D02*
D03*
D85*
X674370Y107824D02*
D03*
X835952Y104775D02*
D03*
D86*
X295620Y189230D02*
D03*
X329220D02*
D03*
M02*
