G04*
G04 #@! TF.GenerationSoftware,Altium Limited,Altium Designer,26.5.0 (11)*
G04*
G04 Layer_Color=65535*
G04 Board_Origin=0|0*
%FSLAX44Y44*%
%MOMM*%
G71*
G04*
G04 #@! TF.SameCoordinates,779C5E83-ED05-44A4-BDBC-C6229AFA92C3*
G04*
G04*
G04 #@! TF.FilePolarity,Positive*
G04*
G01*
G75*
%ADD10C,0.2000*%
%ADD11C,0.1270*%
%ADD12C,0.2500*%
%ADD13C,0.5080*%
%ADD14C,0.2540*%
%ADD15C,0.1524*%
%ADD16C,0.2032*%
%ADD17C,0.1520*%
G36*
X824230Y342900D02*
X816610D01*
X820420Y346710D01*
X824230D01*
Y342900D01*
D02*
G37*
G36*
X699770D02*
X692150D01*
X695960Y346710D01*
X699770D01*
Y342900D01*
D02*
G37*
G36*
X576580D02*
X568960D01*
X572770Y346710D01*
X576580D01*
Y342900D01*
D02*
G37*
G36*
X745400Y298108D02*
X740285D01*
Y302030D01*
X745400D01*
Y298108D01*
D02*
G37*
G36*
X653562Y311313D02*
X654050D01*
Y308872D01*
X654538D01*
Y306919D01*
X655026D01*
Y304478D01*
X655515D01*
Y302038D01*
X656003D01*
Y300085D01*
X656491D01*
Y297644D01*
X656979D01*
Y295203D01*
X657467D01*
Y293251D01*
X657955D01*
Y290810D01*
X658443D01*
Y288369D01*
X658932D01*
Y286417D01*
X659420D01*
Y283976D01*
X659908D01*
Y281535D01*
X660396D01*
Y279094D01*
X660884D01*
Y277142D01*
X661372D01*
Y274701D01*
X661861D01*
Y273725D01*
X663813D01*
Y274213D01*
X665766D01*
Y274701D01*
X668206D01*
Y275189D01*
X671135D01*
Y275677D01*
X673576D01*
Y276166D01*
X676017D01*
Y276654D01*
X678458D01*
Y277142D01*
X681387D01*
Y277630D01*
X683828D01*
Y278118D01*
X686268D01*
Y278606D01*
X688709D01*
Y279094D01*
X691150D01*
Y279583D01*
X694079D01*
Y280071D01*
X696520D01*
Y280559D01*
X698960D01*
Y281047D01*
X700425D01*
Y280559D01*
X699448D01*
Y280071D01*
X698472D01*
Y279583D01*
X697496D01*
Y279094D01*
X696520D01*
Y278606D01*
X695543D01*
Y278118D01*
X694567D01*
Y277630D01*
X693591D01*
Y277142D01*
X692614D01*
Y276654D01*
X691638D01*
Y276166D01*
X690662D01*
Y275677D01*
X690174D01*
Y275189D01*
X688709D01*
Y274701D01*
X687733D01*
Y274213D01*
X687245D01*
Y273725D01*
X686268D01*
Y273237D01*
X685292D01*
Y272748D01*
X683828D01*
Y272260D01*
X682851D01*
Y271772D01*
X682363D01*
Y271284D01*
X681387D01*
Y270796D01*
X680411D01*
Y270308D01*
X679434D01*
Y269819D01*
X678458D01*
Y269331D01*
X677482D01*
Y268843D01*
X676505D01*
Y268355D01*
X675529D01*
Y267867D01*
X674553D01*
Y267379D01*
X673576D01*
Y266891D01*
X672600D01*
Y266402D01*
X671624D01*
Y265914D01*
X670647D01*
Y265426D01*
X669671D01*
Y264938D01*
X668695D01*
Y264450D01*
X667718D01*
Y263962D01*
X666742D01*
Y263473D01*
X665766D01*
Y262985D01*
X664790D01*
Y262497D01*
X664301D01*
Y261033D01*
X664790D01*
Y259080D01*
X665278D01*
Y256639D01*
X665766D01*
Y254198D01*
X666254D01*
Y252246D01*
X666742D01*
Y249805D01*
X667230D01*
Y248829D01*
X665766D01*
Y249317D01*
X663325D01*
Y249805D01*
X661372D01*
Y250293D01*
X659420D01*
Y250781D01*
X656979D01*
Y251269D01*
X655026D01*
Y251758D01*
X653074D01*
Y251269D01*
X652586D01*
Y250293D01*
X652097D01*
Y249317D01*
X651609D01*
Y248340D01*
X651121D01*
Y247364D01*
X650633D01*
Y246388D01*
X650145D01*
Y245412D01*
X649657D01*
Y244435D01*
X649168D01*
Y243947D01*
X648680D01*
Y242483D01*
X648192D01*
Y241506D01*
X647704D01*
Y241018D01*
X647216D01*
Y240042D01*
X646728D01*
Y239066D01*
X646239D01*
Y238089D01*
X645751D01*
Y237113D01*
X645263D01*
Y236137D01*
X644775D01*
Y235160D01*
X644287D01*
Y234184D01*
X643799D01*
Y233696D01*
X643311D01*
Y232719D01*
X642822D01*
Y231743D01*
X642334D01*
Y230767D01*
X641846D01*
Y229791D01*
X641358D01*
Y228814D01*
X640870D01*
Y227838D01*
X640382D01*
Y226862D01*
X639893D01*
Y225885D01*
X639405D01*
Y225397D01*
X638917D01*
Y224421D01*
X638429D01*
Y223445D01*
X637941D01*
Y222468D01*
X637453D01*
Y221492D01*
X636964D01*
Y220516D01*
X636476D01*
Y219539D01*
X635988D01*
Y218563D01*
X635500D01*
Y217587D01*
X635012D01*
Y219539D01*
X635500D01*
Y221980D01*
X635988D01*
Y224421D01*
X636476D01*
Y226862D01*
X636964D01*
Y229303D01*
X637453D01*
Y231743D01*
X637941D01*
Y233696D01*
X638429D01*
Y236137D01*
X638917D01*
Y238577D01*
X639405D01*
Y241018D01*
X639893D01*
Y243459D01*
X640382D01*
Y245900D01*
X640870D01*
Y248340D01*
X641358D01*
Y250781D01*
X641846D01*
Y252734D01*
X642334D01*
Y254198D01*
X641846D01*
Y254687D01*
X639405D01*
Y255175D01*
X637453D01*
Y255663D01*
X635012D01*
Y256151D01*
X633059D01*
Y256639D01*
X631107D01*
Y257127D01*
X628666D01*
Y257616D01*
X626713D01*
Y258104D01*
X624272D01*
Y258592D01*
X622320D01*
Y259080D01*
X619879D01*
Y259568D01*
X617926D01*
Y260056D01*
X615974D01*
Y260544D01*
X613533D01*
Y261033D01*
X611092D01*
Y261521D01*
X609140D01*
Y262009D01*
X607187D01*
Y262497D01*
X604746D01*
Y262985D01*
X603282D01*
Y263473D01*
X605234D01*
Y262985D01*
X611092D01*
Y262497D01*
X616950D01*
Y262009D01*
X623296D01*
Y261521D01*
X629642D01*
Y261033D01*
X635500D01*
Y260544D01*
X641846D01*
Y260056D01*
X643311D01*
Y260544D01*
X643799D01*
Y262497D01*
X644287D01*
Y264450D01*
X644775D01*
Y266891D01*
X645263D01*
Y269819D01*
X645751D01*
Y270308D01*
X646239D01*
Y270796D01*
X648680D01*
Y271284D01*
X651121D01*
Y271772D01*
X653562D01*
Y272260D01*
X655515D01*
Y278606D01*
X655026D01*
Y285929D01*
X654538D01*
Y293251D01*
X654050D01*
Y300085D01*
X653562D01*
Y300573D01*
Y301061D01*
Y308384D01*
X653074D01*
Y313754D01*
X653562D01*
Y311313D01*
D02*
G37*
G36*
X725639Y202482D02*
X725918D01*
Y201645D01*
X726197D01*
Y200808D01*
X726476D01*
Y199971D01*
X726755D01*
Y199413D01*
X727034D01*
Y198576D01*
X727313D01*
Y197739D01*
X727592D01*
Y197181D01*
X727871D01*
Y196344D01*
X728150D01*
Y195786D01*
X728429D01*
Y194949D01*
X728708D01*
Y194112D01*
X728987D01*
Y193554D01*
X729266D01*
Y192717D01*
X729545D01*
Y191880D01*
X729824D01*
Y191322D01*
X730103D01*
Y190485D01*
X730382D01*
Y189928D01*
X730661D01*
Y189090D01*
X730940D01*
Y188253D01*
X731219D01*
Y187696D01*
X731498D01*
Y186859D01*
X731777D01*
Y186301D01*
X732056D01*
Y185464D01*
X732335D01*
Y184905D01*
X732614D01*
Y184069D01*
X732893D01*
Y183510D01*
X733172D01*
Y182673D01*
X733451D01*
Y182115D01*
X733730D01*
Y181279D01*
X734009D01*
Y180721D01*
X734288D01*
Y179884D01*
X734567D01*
Y179326D01*
X734846D01*
Y178768D01*
X735125D01*
Y177931D01*
X735404D01*
Y177373D01*
X735683D01*
Y176815D01*
X735962D01*
Y176257D01*
X736241D01*
Y175420D01*
X736520D01*
Y174862D01*
X736799D01*
Y174304D01*
X737078D01*
Y173746D01*
X730103D01*
Y174025D01*
X729824D01*
Y174583D01*
X729545D01*
Y175420D01*
X729266D01*
Y176257D01*
X728987D01*
Y177094D01*
X728708D01*
Y177931D01*
X728429D01*
Y178768D01*
X728150D01*
Y179605D01*
X727871D01*
Y180441D01*
X727592D01*
Y181000D01*
X727313D01*
Y181836D01*
X727034D01*
Y182395D01*
X717269D01*
Y182115D01*
X716990D01*
Y181558D01*
X716711D01*
Y180721D01*
X716432D01*
Y179884D01*
X716153D01*
Y179047D01*
X715874D01*
Y178210D01*
X715595D01*
Y177373D01*
X715316D01*
Y176815D01*
X715037D01*
Y175699D01*
X714758D01*
Y174862D01*
X714479D01*
Y174025D01*
X714200D01*
Y173746D01*
X710294D01*
Y174304D01*
X710573D01*
Y174862D01*
X710852D01*
Y175699D01*
X711131D01*
Y176257D01*
X711410D01*
Y176815D01*
X711689D01*
Y177652D01*
X711968D01*
Y178210D01*
X712247D01*
Y178768D01*
X712526D01*
Y179605D01*
X712805D01*
Y180163D01*
X713084D01*
Y180721D01*
X713363D01*
Y181558D01*
X713642D01*
Y182115D01*
X713921D01*
Y182952D01*
X714200D01*
Y183510D01*
X714479D01*
Y184347D01*
X714758D01*
Y184905D01*
X715037D01*
Y185464D01*
X715316D01*
Y186301D01*
X715595D01*
Y186859D01*
X715874D01*
Y187696D01*
X716153D01*
Y188253D01*
X716432D01*
Y188811D01*
X716711D01*
Y189648D01*
X716990D01*
Y190207D01*
X717269D01*
Y191043D01*
X717548D01*
Y191602D01*
X717827D01*
Y192439D01*
X718106D01*
Y192997D01*
X718385D01*
Y193834D01*
X718664D01*
Y194391D01*
X718943D01*
Y195229D01*
X719222D01*
Y195786D01*
X719501D01*
Y196623D01*
X719780D01*
Y196903D01*
Y197181D01*
X720059D01*
Y198018D01*
X720338D01*
Y198576D01*
X720617D01*
Y199413D01*
X720896D01*
Y200250D01*
X721175D01*
Y200808D01*
X721454D01*
Y201366D01*
X721733D01*
Y202203D01*
X722012D01*
Y203040D01*
X723686D01*
Y202761D01*
X723965D01*
Y203040D01*
X725639D01*
Y202482D01*
D02*
G37*
G36*
X694391Y199692D02*
X694670D01*
Y199413D01*
X694391D01*
Y199134D01*
X693833D01*
Y199413D01*
X690764D01*
Y199692D01*
X686858D01*
Y178210D01*
X687137D01*
Y173746D01*
X680441D01*
Y179047D01*
X680720D01*
Y199413D01*
X680441D01*
Y199692D01*
X676535D01*
Y199413D01*
X673466D01*
Y199134D01*
X672908D01*
Y202761D01*
X694391D01*
Y199692D01*
D02*
G37*
G36*
X612086Y203319D02*
X615155D01*
Y203040D01*
X616550D01*
Y202761D01*
X617387D01*
Y202482D01*
X618503D01*
Y202203D01*
X619061D01*
Y201924D01*
X619619D01*
Y201645D01*
X620456D01*
Y201366D01*
X621014D01*
Y201087D01*
X621572D01*
Y200529D01*
X621293D01*
Y199971D01*
X621014D01*
Y198855D01*
X620735D01*
Y198018D01*
X620456D01*
Y196903D01*
X620177D01*
Y196623D01*
X619619D01*
Y196903D01*
X619340D01*
Y197181D01*
X619061D01*
Y197460D01*
X618782D01*
Y198018D01*
X618224D01*
Y198297D01*
X617945D01*
Y198576D01*
X617666D01*
Y198855D01*
X617387D01*
Y199134D01*
X616829D01*
Y199413D01*
X616550D01*
Y199692D01*
X615992D01*
Y199971D01*
X615434D01*
Y200250D01*
X614597D01*
Y200529D01*
X613481D01*
Y200808D01*
X609576D01*
Y200529D01*
X608460D01*
Y200250D01*
X607901D01*
Y199971D01*
X607065D01*
Y199692D01*
X606507D01*
Y199413D01*
X606227D01*
Y199134D01*
X605670D01*
Y198855D01*
X605391D01*
Y198576D01*
X605112D01*
Y198297D01*
X604832D01*
Y198018D01*
X604553D01*
Y197739D01*
X604274D01*
Y197460D01*
X603996D01*
Y197181D01*
X603717D01*
Y196903D01*
X603438D01*
Y196623D01*
X603158D01*
Y196065D01*
X602879D01*
Y195786D01*
X602601D01*
Y195229D01*
X602322D01*
Y194671D01*
X602043D01*
Y194112D01*
X601763D01*
Y193276D01*
X601484D01*
Y192717D01*
X601205D01*
Y191322D01*
X600927D01*
Y189648D01*
X600648D01*
Y185464D01*
X600927D01*
Y184069D01*
X601205D01*
Y182952D01*
X601484D01*
Y182115D01*
X601763D01*
Y181558D01*
X602043D01*
Y181000D01*
X602322D01*
Y180441D01*
X602601D01*
Y179884D01*
X602879D01*
Y179605D01*
X603158D01*
Y179326D01*
X603438D01*
Y178768D01*
X603717D01*
Y178489D01*
X603996D01*
Y178210D01*
X604274D01*
Y177931D01*
X604832D01*
Y177652D01*
X605112D01*
Y177373D01*
X605391D01*
Y177094D01*
X605948D01*
Y176815D01*
X606507D01*
Y176536D01*
X607065D01*
Y176257D01*
X607901D01*
Y175978D01*
X609017D01*
Y175699D01*
X612923D01*
Y175978D01*
X614597D01*
Y176257D01*
X615434D01*
Y176536D01*
X615713D01*
Y184905D01*
X615434D01*
Y186579D01*
X621851D01*
Y182673D01*
X621572D01*
Y175699D01*
X621851D01*
Y174862D01*
X621014D01*
Y174583D01*
X619898D01*
Y174304D01*
X618782D01*
Y174025D01*
X617387D01*
Y173746D01*
X615713D01*
Y173467D01*
X613760D01*
Y173188D01*
X607622D01*
Y173467D01*
X605948D01*
Y173746D01*
X604553D01*
Y174025D01*
X603717D01*
Y174304D01*
X602879D01*
Y174583D01*
X602043D01*
Y174862D01*
X601484D01*
Y175141D01*
X600927D01*
Y175420D01*
X600368D01*
Y175699D01*
X600089D01*
Y175978D01*
X599532D01*
Y176257D01*
X599253D01*
Y176536D01*
X598694D01*
Y176815D01*
X598415D01*
Y177094D01*
X598136D01*
Y177373D01*
X597858D01*
Y177652D01*
X597579D01*
Y177931D01*
X597299D01*
Y178210D01*
X597020D01*
Y178489D01*
X596741D01*
Y178768D01*
X596463D01*
Y179047D01*
X596184D01*
Y179605D01*
X595905D01*
Y179884D01*
X595625D01*
Y180441D01*
X595346D01*
Y181000D01*
X595067D01*
Y181558D01*
X594789D01*
Y182115D01*
X594510D01*
Y182952D01*
X594231D01*
Y184069D01*
X593951D01*
Y185742D01*
X593672D01*
Y189370D01*
X593951D01*
Y191043D01*
X594231D01*
Y192439D01*
X594510D01*
Y193276D01*
X594789D01*
Y194112D01*
X595067D01*
Y194671D01*
X595346D01*
Y195229D01*
X595625D01*
Y195786D01*
X595905D01*
Y196344D01*
X596184D01*
Y196623D01*
X596463D01*
Y197181D01*
X596741D01*
Y197460D01*
X597020D01*
Y197739D01*
X597299D01*
Y198018D01*
X597579D01*
Y198576D01*
X597858D01*
Y198855D01*
X598136D01*
Y199134D01*
X598694D01*
Y199413D01*
X598974D01*
Y199692D01*
X599253D01*
Y199971D01*
X599532D01*
Y200250D01*
X600089D01*
Y200529D01*
X600368D01*
Y200808D01*
X600927D01*
Y201087D01*
X601484D01*
Y201366D01*
X601763D01*
Y201645D01*
X602601D01*
Y201924D01*
X603158D01*
Y202203D01*
X603996D01*
Y202482D01*
X604832D01*
Y202761D01*
X605948D01*
Y203040D01*
X607343D01*
Y203319D01*
X610412D01*
Y203598D01*
X612086D01*
Y203319D01*
D02*
G37*
G36*
X654494Y201645D02*
X654215D01*
Y195229D01*
X653936D01*
Y186021D01*
X653657D01*
Y173746D01*
X650309D01*
Y174025D01*
X650030D01*
Y174304D01*
X649751D01*
Y174583D01*
X649472D01*
Y174862D01*
X649193D01*
Y175141D01*
X648914D01*
Y175420D01*
X648635D01*
Y175978D01*
X648356D01*
Y176257D01*
X648077D01*
Y176536D01*
X647798D01*
Y176815D01*
X647519D01*
Y177094D01*
X647240D01*
Y177373D01*
X646961D01*
Y177652D01*
X646682D01*
Y178210D01*
X646403D01*
Y178489D01*
X646124D01*
Y178768D01*
X645845D01*
Y179047D01*
X645566D01*
Y179326D01*
X645287D01*
Y179605D01*
X645008D01*
Y179884D01*
X644729D01*
Y180441D01*
X644450D01*
Y180721D01*
X644171D01*
Y181000D01*
X643892D01*
Y181279D01*
X643613D01*
Y181558D01*
X643334D01*
Y181836D01*
X643055D01*
Y182115D01*
X642776D01*
Y182395D01*
X642497D01*
Y182952D01*
X642218D01*
Y183232D01*
X641939D01*
Y183510D01*
X641660D01*
Y183790D01*
X641381D01*
Y184069D01*
X641102D01*
Y184347D01*
X640823D01*
Y184627D01*
X640544D01*
Y184905D01*
X640265D01*
Y185184D01*
X639986D01*
Y185464D01*
X639707D01*
Y186021D01*
X639428D01*
Y186301D01*
X639149D01*
Y186579D01*
X638870D01*
Y186859D01*
X638591D01*
Y187138D01*
X638312D01*
Y187416D01*
X638033D01*
Y187696D01*
X637754D01*
Y187974D01*
X637475D01*
Y188253D01*
X637196D01*
Y188533D01*
X636917D01*
Y188811D01*
X636638D01*
Y189090D01*
X636359D01*
Y189648D01*
X636080D01*
Y189928D01*
X635801D01*
Y190207D01*
X635522D01*
Y190485D01*
X635243D01*
Y190765D01*
X634964D01*
Y191043D01*
X634685D01*
Y191322D01*
X634406D01*
Y191602D01*
X634127D01*
Y191880D01*
X633848D01*
Y192160D01*
X633569D01*
Y192439D01*
X633290D01*
Y192717D01*
X633011D01*
Y192997D01*
X632732D01*
Y193276D01*
X632453D01*
Y193834D01*
X631895D01*
Y173746D01*
X627989D01*
Y174583D01*
X628268D01*
Y178489D01*
X628547D01*
Y183790D01*
X628826D01*
Y202761D01*
X632732D01*
Y202482D01*
X633011D01*
Y202203D01*
X633290D01*
Y201924D01*
X633569D01*
Y201645D01*
X633848D01*
Y201366D01*
X634127D01*
Y201087D01*
X634406D01*
Y200529D01*
X634685D01*
Y200250D01*
X634964D01*
Y199971D01*
X635243D01*
Y199692D01*
X635522D01*
Y199413D01*
X635801D01*
Y199134D01*
X636080D01*
Y198855D01*
X636359D01*
Y198576D01*
X636638D01*
Y198297D01*
X636917D01*
Y197739D01*
X637196D01*
Y197460D01*
X637475D01*
Y197181D01*
X637754D01*
Y196903D01*
X638033D01*
Y196623D01*
X638312D01*
Y196344D01*
X638591D01*
Y196065D01*
X638870D01*
Y195786D01*
X639149D01*
Y195508D01*
X639428D01*
Y195229D01*
X639707D01*
Y194949D01*
X639986D01*
Y194391D01*
X640265D01*
Y194112D01*
X640544D01*
Y193834D01*
X640823D01*
Y193554D01*
X641102D01*
Y193276D01*
X641381D01*
Y192997D01*
X641660D01*
Y192717D01*
X641939D01*
Y192439D01*
X642218D01*
Y192160D01*
X642497D01*
Y191602D01*
X642776D01*
Y191322D01*
X643055D01*
Y191043D01*
X643334D01*
Y190765D01*
X643613D01*
Y190485D01*
X643892D01*
Y190207D01*
X644171D01*
Y189928D01*
X644450D01*
Y189648D01*
X644729D01*
Y189370D01*
X645008D01*
Y189090D01*
X645287D01*
Y188533D01*
X645566D01*
Y188253D01*
X645845D01*
Y187974D01*
X646124D01*
Y187696D01*
X646403D01*
Y187416D01*
X646682D01*
Y187138D01*
X646961D01*
Y186859D01*
X647240D01*
Y186579D01*
X647519D01*
Y186301D01*
X647798D01*
Y186021D01*
X648077D01*
Y185742D01*
X648356D01*
Y185184D01*
X648914D01*
Y184905D01*
X649193D01*
Y184347D01*
X649472D01*
Y184069D01*
X649751D01*
Y183790D01*
X650030D01*
Y183510D01*
X650309D01*
Y183232D01*
X650588D01*
Y182952D01*
X650867D01*
Y201924D01*
X650588D01*
Y202761D01*
X654494D01*
Y201645D01*
D02*
G37*
G36*
X706109D02*
X705830D01*
Y194671D01*
X705551D01*
Y181836D01*
X705830D01*
Y174583D01*
X706109D01*
Y173746D01*
X699134D01*
Y175699D01*
Y175978D01*
Y179326D01*
X699413D01*
Y197181D01*
X699134D01*
Y202761D01*
X706109D01*
Y201645D01*
D02*
G37*
G36*
X668165Y197739D02*
Y197460D01*
Y196065D01*
X667886D01*
Y180441D01*
X668165D01*
Y173746D01*
X661469D01*
Y180441D01*
X661748D01*
Y195786D01*
X661469D01*
Y202761D01*
X668165D01*
Y197739D01*
D02*
G37*
G36*
X588093Y199134D02*
X587814D01*
Y177373D01*
X588093D01*
Y173746D01*
X581397D01*
Y174025D01*
X581118D01*
Y174583D01*
X581397D01*
Y180163D01*
X581676D01*
Y196344D01*
X581397D01*
Y201924D01*
X581118D01*
Y202761D01*
X587814D01*
Y203040D01*
X588093D01*
Y199134D01*
D02*
G37*
G36*
X632453Y169282D02*
X632174D01*
Y169561D01*
X632453D01*
Y169282D01*
D02*
G37*
G36*
X632174Y169003D02*
X631895D01*
Y169282D01*
X632174D01*
Y169003D01*
D02*
G37*
G36*
X631895Y168724D02*
X631616D01*
Y169003D01*
X631895D01*
Y168724D01*
D02*
G37*
G36*
X703598Y167608D02*
X703319D01*
Y167887D01*
X703598D01*
Y167608D01*
D02*
G37*
G36*
X691601D02*
X691322D01*
Y167887D01*
X691601D01*
Y167608D01*
D02*
G37*
G36*
X703319Y167329D02*
X703040D01*
Y167608D01*
X703319D01*
Y167329D01*
D02*
G37*
G36*
X701366D02*
X701087D01*
Y167608D01*
X700808D01*
Y167887D01*
X699134D01*
Y168166D01*
X701366D01*
Y167329D01*
D02*
G37*
G36*
X697739Y167887D02*
X696902D01*
Y167608D01*
X696344D01*
Y167329D01*
X696065D01*
Y168166D01*
X697739D01*
Y167887D01*
D02*
G37*
G36*
X624083D02*
X624362D01*
Y167329D01*
X624083D01*
Y167608D01*
X623804D01*
Y167887D01*
X623525D01*
Y168166D01*
X624083D01*
Y167887D01*
D02*
G37*
G36*
X694391D02*
X694949D01*
Y167608D01*
X695228D01*
Y167050D01*
X694670D01*
Y167608D01*
X694112D01*
Y167887D01*
X693833D01*
Y168166D01*
X694391D01*
Y167887D01*
D02*
G37*
G36*
X649472D02*
X650030D01*
Y167329D01*
X650309D01*
Y167050D01*
X649751D01*
Y167608D01*
X649193D01*
Y167887D01*
X648914D01*
Y168166D01*
X649472D01*
Y167887D01*
D02*
G37*
G36*
X685742Y166492D02*
Y166213D01*
X685463D01*
Y166771D01*
X685742D01*
Y166492D01*
D02*
G37*
G36*
X676814Y166213D02*
X676535D01*
Y166492D01*
X676814D01*
Y166213D01*
D02*
G37*
G36*
X616829D02*
X616550D01*
Y166771D01*
X616829D01*
Y166213D01*
D02*
G37*
G36*
X676535Y165655D02*
X676256D01*
Y166213D01*
X676535D01*
Y165655D01*
D02*
G37*
G36*
X685463Y165934D02*
Y165376D01*
X685184D01*
Y166213D01*
X685463D01*
Y165934D01*
D02*
G37*
G36*
X616550Y165376D02*
X616271D01*
Y166213D01*
X616550D01*
Y165376D01*
D02*
G37*
G36*
X676256Y165097D02*
X675977D01*
Y165376D01*
Y165655D01*
X676256D01*
Y165097D01*
D02*
G37*
G36*
X686579Y167050D02*
X686858D01*
Y166213D01*
X687137D01*
Y165655D01*
X687416D01*
Y165097D01*
X687695D01*
Y164260D01*
X687974D01*
Y163702D01*
X688253D01*
Y162865D01*
X688532D01*
Y162307D01*
X688811D01*
Y162028D01*
X689090D01*
Y161749D01*
X687416D01*
Y162028D01*
X687974D01*
Y162586D01*
X687695D01*
Y163423D01*
X687416D01*
Y164260D01*
X687137D01*
Y164539D01*
X685184D01*
Y164260D01*
X684905D01*
Y163981D01*
X684626D01*
Y164539D01*
X684905D01*
Y165376D01*
X685184D01*
Y164818D01*
X686858D01*
Y165655D01*
X686579D01*
Y166213D01*
X686300D01*
Y166771D01*
X686021D01*
Y167050D01*
X685742D01*
Y167329D01*
X686021D01*
Y167887D01*
X686579D01*
Y167050D01*
D02*
G37*
G36*
X617387Y167608D02*
X617666D01*
Y166771D01*
X617945D01*
Y166213D01*
X618224D01*
Y165376D01*
X618503D01*
Y164818D01*
X618782D01*
Y164260D01*
X619061D01*
Y163423D01*
X619340D01*
Y162865D01*
X619619D01*
Y162307D01*
X619898D01*
Y162028D01*
X620177D01*
Y161749D01*
X618503D01*
Y162028D01*
X619061D01*
Y162586D01*
X618782D01*
Y163423D01*
X618503D01*
Y163981D01*
X618224D01*
Y164539D01*
X615992D01*
Y163981D01*
X615713D01*
Y164818D01*
X615992D01*
Y165376D01*
X616271D01*
Y164818D01*
X617945D01*
Y165376D01*
X617666D01*
Y166213D01*
X617387D01*
Y166771D01*
X616829D01*
Y167329D01*
Y167608D01*
X617108D01*
Y167887D01*
X617387D01*
Y167608D01*
D02*
G37*
G36*
X682115Y167887D02*
X682394D01*
Y167608D01*
X682673D01*
Y167329D01*
X682952D01*
Y165097D01*
X682673D01*
Y164818D01*
X682394D01*
Y164539D01*
X681836D01*
Y164260D01*
X681278D01*
Y164539D01*
X681557D01*
Y164818D01*
X682115D01*
Y165097D01*
X682394D01*
Y165934D01*
X682673D01*
Y166492D01*
X682394D01*
Y167329D01*
X682115D01*
Y167608D01*
X681836D01*
Y167887D01*
X681557D01*
Y168166D01*
X682115D01*
Y167887D01*
D02*
G37*
G36*
X612923D02*
X613481D01*
Y167608D01*
X613760D01*
Y167329D01*
X614039D01*
Y166771D01*
Y166492D01*
Y165376D01*
X613760D01*
Y164818D01*
X613481D01*
Y164539D01*
X612923D01*
Y164260D01*
X612086D01*
Y164539D01*
X612644D01*
Y164818D01*
X613202D01*
Y165376D01*
X613481D01*
Y167050D01*
X613202D01*
Y167329D01*
X612923D01*
Y167608D01*
X612644D01*
Y167887D01*
X612365D01*
Y168166D01*
X612923D01*
Y167887D01*
D02*
G37*
G36*
X615713Y163423D02*
X615434D01*
Y163702D01*
Y163981D01*
X615713D01*
Y163423D01*
D02*
G37*
G36*
X684626Y163144D02*
X684347D01*
Y163702D01*
Y163981D01*
X684626D01*
Y163144D01*
D02*
G37*
G36*
X675977Y164539D02*
X675698D01*
Y163981D01*
X675419D01*
Y163423D01*
X675140D01*
Y163144D01*
X674861D01*
Y163702D01*
X675140D01*
Y164260D01*
X675419D01*
Y164818D01*
X675698D01*
Y165097D01*
X675977D01*
Y164539D01*
D02*
G37*
G36*
X665096Y162865D02*
X664817D01*
Y165655D01*
Y165934D01*
Y167329D01*
X664538D01*
Y167887D01*
X665096D01*
Y162865D01*
D02*
G37*
G36*
X642218Y167608D02*
X641939D01*
Y161749D01*
X641381D01*
Y162307D01*
X641102D01*
Y162586D01*
X640823D01*
Y162865D01*
X640544D01*
Y163144D01*
X640265D01*
Y163423D01*
X639986D01*
Y163702D01*
X639707D01*
Y163981D01*
X639428D01*
Y164260D01*
X639149D01*
Y164539D01*
X638870D01*
Y164818D01*
X638591D01*
Y165376D01*
X638312D01*
Y165655D01*
X638033D01*
Y165934D01*
X637754D01*
Y166213D01*
X637475D01*
Y166492D01*
X637196D01*
Y166771D01*
X636917D01*
Y167050D01*
X636638D01*
Y162307D01*
X636917D01*
Y162028D01*
X637196D01*
Y161749D01*
X635801D01*
Y162028D01*
X636080D01*
Y162307D01*
X636359D01*
Y167608D01*
X636080D01*
Y167887D01*
X637196D01*
Y167608D01*
X637475D01*
Y167050D01*
X637754D01*
Y166771D01*
X638033D01*
Y166492D01*
X638312D01*
Y166213D01*
X638591D01*
Y165934D01*
X638870D01*
Y165655D01*
X639149D01*
Y165376D01*
X639428D01*
Y165097D01*
X639707D01*
Y164818D01*
X639986D01*
Y164260D01*
X640265D01*
Y163981D01*
X640544D01*
Y163702D01*
X640823D01*
Y163423D01*
X641102D01*
Y163144D01*
X641381D01*
Y162865D01*
X641660D01*
Y167608D01*
X641381D01*
Y167887D01*
X642218D01*
Y167608D01*
D02*
G37*
G36*
X655889Y167887D02*
X656168D01*
Y167608D01*
X656726D01*
Y167329D01*
X657005D01*
Y166771D01*
X657284D01*
Y166492D01*
X657563D01*
Y165655D01*
X657842D01*
Y163981D01*
X657563D01*
Y163144D01*
X657284D01*
Y162865D01*
X657005D01*
Y162586D01*
X656726D01*
Y162307D01*
X656447D01*
Y162865D01*
X656726D01*
Y163144D01*
X657005D01*
Y163981D01*
X657284D01*
Y165376D01*
X657005D01*
Y166213D01*
X656726D01*
Y166771D01*
X656447D01*
Y167050D01*
X656168D01*
Y167329D01*
X655889D01*
Y167608D01*
X655610D01*
Y167887D01*
X655052D01*
Y168166D01*
X655889D01*
Y167887D01*
D02*
G37*
G36*
X632453D02*
X633011D01*
Y167608D01*
X633569D01*
Y167329D01*
X633848D01*
Y166771D01*
X634127D01*
Y166492D01*
X634406D01*
Y165655D01*
X634685D01*
Y163702D01*
X634406D01*
Y163144D01*
X634127D01*
Y162865D01*
X633848D01*
Y162307D01*
X633290D01*
Y162865D01*
X633569D01*
Y163144D01*
X633848D01*
Y164260D01*
X634127D01*
Y165376D01*
X633848D01*
Y165655D01*
Y166213D01*
X633569D01*
Y166771D01*
X633290D01*
Y167050D01*
X633011D01*
Y167329D01*
X632732D01*
Y167608D01*
X632453D01*
Y167887D01*
X632174D01*
Y168166D01*
X632453D01*
Y167887D01*
D02*
G37*
G36*
X706109D02*
X706667D01*
Y167608D01*
X706946D01*
Y167329D01*
X707225D01*
Y167050D01*
X707504D01*
Y166771D01*
X707783D01*
Y166213D01*
X708062D01*
Y163423D01*
X707783D01*
Y162865D01*
X707504D01*
Y162586D01*
X707225D01*
Y162307D01*
X706946D01*
Y162028D01*
X706388D01*
Y162307D01*
X706667D01*
Y162586D01*
X706946D01*
Y162865D01*
X707225D01*
Y163702D01*
X707504D01*
Y164818D01*
Y165097D01*
Y165934D01*
X707225D01*
Y166492D01*
X706946D01*
Y167050D01*
X706667D01*
Y167329D01*
X706388D01*
Y167608D01*
X706109D01*
Y167887D01*
X705551D01*
Y168166D01*
X706109D01*
Y167887D01*
D02*
G37*
G36*
X706388Y161749D02*
X705830D01*
Y162028D01*
X706388D01*
Y161749D01*
D02*
G37*
G36*
X699134Y167608D02*
X698855D01*
Y162307D01*
X699134D01*
Y162028D01*
X699413D01*
Y161749D01*
X697739D01*
Y162028D01*
X698297D01*
Y164539D01*
Y164818D01*
Y167887D01*
X699134D01*
Y167608D01*
D02*
G37*
G36*
X695228Y162307D02*
Y162028D01*
X694670D01*
Y161749D01*
X694112D01*
Y162028D01*
X694391D01*
Y162307D01*
X694670D01*
Y162586D01*
X695228D01*
Y162307D01*
D02*
G37*
G36*
X684347Y162028D02*
X684626D01*
Y161749D01*
X683231D01*
Y162028D01*
X683510D01*
Y162307D01*
X683789D01*
Y162586D01*
X684068D01*
Y163144D01*
X684347D01*
Y162028D01*
D02*
G37*
G36*
X680441Y167608D02*
X680162D01*
Y162586D01*
X680441D01*
Y162028D01*
X680720D01*
Y161749D01*
X679325D01*
Y162028D01*
X679604D01*
Y162307D01*
X679883D01*
Y166771D01*
X679604D01*
Y167608D01*
X679325D01*
Y167887D01*
X679604D01*
Y168166D01*
X680441D01*
Y167608D01*
D02*
G37*
G36*
X677930D02*
X677651D01*
Y167050D01*
X677372D01*
Y163144D01*
X677651D01*
Y162028D01*
X678209D01*
Y161749D01*
X676256D01*
Y162028D01*
X676814D01*
Y162307D01*
X677093D01*
Y162586D01*
Y162865D01*
Y166492D01*
X676814D01*
Y167329D01*
X677093D01*
Y167887D01*
X677930D01*
Y167608D01*
D02*
G37*
G36*
X671513Y167887D02*
X671792D01*
Y167608D01*
X672071D01*
Y166771D01*
X672350D01*
Y166492D01*
X672629D01*
Y165934D01*
X672908D01*
Y165376D01*
X673187D01*
Y164818D01*
X673466D01*
Y164260D01*
X673745D01*
Y163702D01*
X674024D01*
Y163144D01*
X674303D01*
Y162865D01*
X674582D01*
Y163144D01*
X674861D01*
Y162586D01*
X674582D01*
Y162028D01*
X674303D01*
Y161749D01*
X674024D01*
Y162307D01*
X673745D01*
Y162865D01*
X673466D01*
Y163423D01*
X673187D01*
Y163981D01*
X672908D01*
Y164539D01*
X672629D01*
Y165376D01*
X672350D01*
Y165934D01*
X672071D01*
Y166213D01*
X671792D01*
Y166492D01*
X671513D01*
Y167329D01*
X671234D01*
Y167608D01*
X670955D01*
Y167887D01*
X671234D01*
Y168166D01*
X671513D01*
Y167887D01*
D02*
G37*
G36*
Y163423D02*
Y163144D01*
Y162307D01*
X671792D01*
Y162028D01*
X672071D01*
Y161749D01*
X670397D01*
Y162028D01*
X670955D01*
Y162307D01*
X671234D01*
Y165655D01*
X671513D01*
Y163423D01*
D02*
G37*
G36*
X669281Y167608D02*
X669002D01*
Y162028D01*
X669560D01*
Y161749D01*
X667886D01*
Y162028D01*
X668444D01*
Y167608D01*
X668165D01*
Y167887D01*
X669281D01*
Y167608D01*
D02*
G37*
G36*
X660074D02*
X660353D01*
Y167329D01*
X660632D01*
Y167050D01*
X660911D01*
Y166771D01*
X661190D01*
Y166492D01*
X661469D01*
Y166213D01*
X661748D01*
Y165934D01*
X662027D01*
Y165655D01*
X662306D01*
Y165376D01*
X662585D01*
Y165097D01*
X662864D01*
Y164539D01*
X663143D01*
Y164260D01*
X663422D01*
Y163981D01*
X663701D01*
Y163702D01*
X663980D01*
Y163423D01*
X664259D01*
Y163144D01*
X664538D01*
Y162865D01*
X664817D01*
Y162028D01*
X665096D01*
Y161749D01*
X664538D01*
Y162028D01*
X664259D01*
Y162307D01*
X663980D01*
Y162865D01*
X663701D01*
Y163144D01*
X663422D01*
Y163423D01*
X663143D01*
Y163702D01*
X662864D01*
Y163981D01*
X662585D01*
Y164260D01*
X662306D01*
Y164539D01*
X662027D01*
Y164818D01*
X661748D01*
Y165376D01*
X661469D01*
Y165655D01*
X661190D01*
Y165934D01*
X660911D01*
Y166213D01*
X660632D01*
Y166492D01*
X660353D01*
Y166771D01*
X660074D01*
Y167050D01*
X659516D01*
Y167608D01*
X659237D01*
Y167887D01*
X660074D01*
Y167608D01*
D02*
G37*
G36*
X659795Y162307D02*
X660074D01*
Y162028D01*
X660353D01*
Y161749D01*
X658958D01*
Y162028D01*
X659237D01*
Y162307D01*
X659516D01*
Y162865D01*
Y163144D01*
Y166771D01*
X659795D01*
Y162307D01*
D02*
G37*
G36*
X656447Y162028D02*
X656168D01*
Y161749D01*
X655610D01*
Y162028D01*
X655889D01*
Y162307D01*
X656447D01*
Y162028D01*
D02*
G37*
G36*
X650309Y162307D02*
X650030D01*
Y162028D01*
X649751D01*
Y161749D01*
X649193D01*
Y162028D01*
X649472D01*
Y162307D01*
X649751D01*
Y162586D01*
X650030D01*
Y163144D01*
X650309D01*
Y162307D01*
D02*
G37*
G36*
X633290Y162028D02*
X633011D01*
Y161749D01*
X632453D01*
Y162028D01*
X632732D01*
Y162307D01*
X633290D01*
Y162028D01*
D02*
G37*
G36*
X626873Y167608D02*
X626594D01*
Y162028D01*
X627152D01*
Y161749D01*
X625757D01*
Y162028D01*
X626036D01*
Y167608D01*
X625757D01*
Y167887D01*
X626873D01*
Y167608D01*
D02*
G37*
G36*
X622130Y167329D02*
X621851D01*
Y166213D01*
X622130D01*
Y165655D01*
X622688D01*
Y165376D01*
X622967D01*
Y165097D01*
X623525D01*
Y164818D01*
X623804D01*
Y164539D01*
X624083D01*
Y164260D01*
X624362D01*
Y162307D01*
X624083D01*
Y162028D01*
X623804D01*
Y161749D01*
X623246D01*
Y162028D01*
X623525D01*
Y162307D01*
X623804D01*
Y163981D01*
X623525D01*
Y164260D01*
X622967D01*
Y164539D01*
X622688D01*
Y164818D01*
X622130D01*
Y165097D01*
X621851D01*
Y165376D01*
X621572D01*
Y165934D01*
X621293D01*
Y166213D01*
Y167050D01*
X621572D01*
Y167608D01*
X621851D01*
Y167887D01*
X622130D01*
Y167329D01*
D02*
G37*
G36*
X615434Y162586D02*
X615155D01*
Y162307D01*
X615434D01*
Y162028D01*
X615713D01*
Y161749D01*
X614039D01*
Y162028D01*
X614597D01*
Y162307D01*
X614876D01*
Y162865D01*
X615155D01*
Y163423D01*
X615434D01*
Y162586D01*
D02*
G37*
G36*
X611250Y162028D02*
X611807D01*
Y161749D01*
X610412D01*
Y162028D01*
X610691D01*
Y167608D01*
X610412D01*
Y168166D01*
X611250D01*
Y162028D01*
D02*
G37*
G36*
X703040Y166771D02*
X702761D01*
Y166213D01*
X702482D01*
Y163981D01*
X702761D01*
Y163144D01*
X703040D01*
Y162865D01*
X703319D01*
Y162586D01*
X703598D01*
Y162307D01*
X703877D01*
Y162028D01*
X704435D01*
Y161749D01*
X705830D01*
Y161470D01*
X704156D01*
Y161749D01*
X703598D01*
Y162028D01*
X703319D01*
Y162307D01*
X702761D01*
Y162586D01*
X702482D01*
Y163144D01*
X702203D01*
Y163702D01*
X701924D01*
Y163981D01*
Y164260D01*
Y166492D01*
X702203D01*
Y166771D01*
X702482D01*
Y167050D01*
X702761D01*
Y167329D01*
X703040D01*
Y166771D01*
D02*
G37*
G36*
X691322Y167329D02*
X691043D01*
Y167050D01*
X690764D01*
Y166492D01*
X690485D01*
Y165655D01*
X690206D01*
Y164539D01*
X690485D01*
Y163423D01*
X690764D01*
Y162865D01*
X691043D01*
Y162586D01*
X691322D01*
Y162307D01*
X691601D01*
Y162028D01*
X692159D01*
Y161749D01*
X693833D01*
Y161470D01*
X692159D01*
Y161749D01*
X691322D01*
Y162028D01*
X691043D01*
Y162307D01*
X690764D01*
Y162586D01*
X690485D01*
Y162865D01*
X690206D01*
Y163144D01*
X689927D01*
Y163981D01*
X689648D01*
Y165934D01*
X689927D01*
Y166492D01*
X690206D01*
Y166771D01*
X690485D01*
Y167329D01*
X690764D01*
Y167608D01*
X691322D01*
Y167329D01*
D02*
G37*
G36*
X653378Y167608D02*
X653099D01*
Y167329D01*
X652820D01*
Y167050D01*
X652541D01*
Y166771D01*
X652262D01*
Y165934D01*
X651983D01*
Y164260D01*
X652262D01*
Y163423D01*
X652541D01*
Y162865D01*
X652820D01*
Y162586D01*
X653099D01*
Y162307D01*
X653378D01*
Y162028D01*
X653936D01*
Y161749D01*
X655331D01*
Y161470D01*
X653936D01*
Y161749D01*
X653099D01*
Y162028D01*
X652820D01*
Y162307D01*
X652541D01*
Y162586D01*
X652262D01*
Y162865D01*
X651983D01*
Y163423D01*
X651704D01*
Y163981D01*
X651425D01*
Y165934D01*
X651704D01*
Y166771D01*
X651983D01*
Y167050D01*
X652262D01*
Y167329D01*
X652541D01*
Y167608D01*
X652820D01*
Y167887D01*
X653378D01*
Y167608D01*
D02*
G37*
G36*
X646682D02*
X646403D01*
Y167329D01*
X646124D01*
Y167050D01*
X645845D01*
Y166492D01*
X645566D01*
Y165934D01*
X645287D01*
Y163981D01*
X645566D01*
Y163423D01*
X645845D01*
Y162865D01*
X646124D01*
Y162586D01*
X646403D01*
Y162307D01*
X646682D01*
Y162028D01*
X647240D01*
Y161749D01*
X648914D01*
Y161470D01*
X647240D01*
Y161749D01*
X646403D01*
Y162028D01*
X645845D01*
Y162307D01*
X645566D01*
Y162586D01*
X645287D01*
Y163144D01*
X645008D01*
Y163702D01*
X644729D01*
Y165934D01*
X645008D01*
Y166492D01*
X645287D01*
Y167050D01*
X645566D01*
Y167329D01*
X645845D01*
Y167608D01*
X646124D01*
Y167887D01*
X646682D01*
Y167608D01*
D02*
G37*
G36*
X630221D02*
X629942D01*
Y167329D01*
X629663D01*
Y167050D01*
X629384D01*
Y166492D01*
X629105D01*
Y165655D01*
X628826D01*
Y164260D01*
X629105D01*
Y163423D01*
X629384D01*
Y162865D01*
X629663D01*
Y162586D01*
X629942D01*
Y162307D01*
X630221D01*
Y162028D01*
X630779D01*
Y161749D01*
X632174D01*
Y161470D01*
X630779D01*
Y161749D01*
X629942D01*
Y162028D01*
X629663D01*
Y162307D01*
X629384D01*
Y162586D01*
X629105D01*
Y162865D01*
X628826D01*
Y163423D01*
X628547D01*
Y163981D01*
X628268D01*
Y166213D01*
X628547D01*
Y166771D01*
X628826D01*
Y167050D01*
X629105D01*
Y167329D01*
X629384D01*
Y167608D01*
X629663D01*
Y167887D01*
X630221D01*
Y167608D01*
D02*
G37*
G36*
X621293Y162028D02*
X621851D01*
Y161749D01*
X623246D01*
Y161470D01*
X621572D01*
Y161749D01*
X621014D01*
Y162586D01*
X621293D01*
Y162028D01*
D02*
G37*
G36*
X668922Y150201D02*
X668676D01*
Y150210D01*
X668668Y150244D01*
X668659Y150286D01*
X668651Y150353D01*
X668634Y150430D01*
X668617Y150514D01*
X668600Y150616D01*
X668575Y150717D01*
X668516Y150954D01*
X668439Y151191D01*
X668346Y151428D01*
X668296Y151538D01*
X668236Y151639D01*
Y151648D01*
X668220Y151665D01*
X668203Y151690D01*
X668177Y151732D01*
X668110Y151825D01*
X668008Y151952D01*
X667881Y152087D01*
X667729Y152231D01*
X667543Y152367D01*
X667340Y152493D01*
X667331D01*
X667315Y152510D01*
X667281Y152527D01*
X667238Y152544D01*
X667188Y152570D01*
X667129Y152595D01*
X667052Y152620D01*
X666976Y152654D01*
X666799Y152713D01*
X666596Y152764D01*
X666376Y152798D01*
X666147Y152815D01*
X666080D01*
X666029Y152806D01*
X665970Y152798D01*
X665902Y152789D01*
X665741Y152764D01*
X665555Y152713D01*
X665361Y152637D01*
X665268Y152586D01*
X665166Y152527D01*
X665073Y152460D01*
X664989Y152383D01*
X664980Y152375D01*
X664972Y152367D01*
X664946Y152341D01*
X664921Y152307D01*
X664845Y152223D01*
X664760Y152104D01*
X664676Y151961D01*
X664600Y151791D01*
X664549Y151614D01*
X664540Y151512D01*
X664532Y151411D01*
Y151402D01*
Y151394D01*
X664540Y151343D01*
X664549Y151259D01*
X664566Y151166D01*
X664600Y151047D01*
X664650Y150920D01*
X664726Y150785D01*
X664819Y150658D01*
X664828Y150650D01*
X664845Y150633D01*
X664870Y150607D01*
X664912Y150565D01*
X664963Y150514D01*
X665031Y150455D01*
X665124Y150379D01*
X665225Y150303D01*
X665344Y150210D01*
X665488Y150108D01*
X665648Y149998D01*
X665834Y149880D01*
X666037Y149745D01*
X666274Y149609D01*
X666528Y149465D01*
X666807Y149313D01*
X666824Y149305D01*
X666866Y149279D01*
X666926Y149246D01*
X667010Y149203D01*
X667120Y149144D01*
X667238Y149076D01*
X667365Y149000D01*
X667501Y148924D01*
X667797Y148755D01*
X668084Y148586D01*
X668220Y148493D01*
X668338Y148417D01*
X668456Y148341D01*
X668549Y148264D01*
X668558D01*
X668566Y148247D01*
X668592Y148230D01*
X668626Y148197D01*
X668710Y148121D01*
X668812Y148019D01*
X668930Y147892D01*
X669048Y147748D01*
X669167Y147579D01*
X669268Y147402D01*
Y147393D01*
X669277Y147376D01*
X669294Y147351D01*
X669311Y147317D01*
X669328Y147266D01*
X669353Y147216D01*
X669395Y147089D01*
X669446Y146928D01*
X669480Y146750D01*
X669514Y146564D01*
X669522Y146361D01*
Y146353D01*
Y146319D01*
X669514Y146260D01*
Y146192D01*
X669497Y146099D01*
X669480Y145998D01*
X669454Y145879D01*
X669421Y145752D01*
X669378Y145617D01*
X669328Y145473D01*
X669260Y145321D01*
X669184Y145177D01*
X669091Y145025D01*
X668981Y144873D01*
X668862Y144720D01*
X668719Y144577D01*
X668710Y144568D01*
X668685Y144543D01*
X668634Y144509D01*
X668575Y144458D01*
X668490Y144407D01*
X668397Y144340D01*
X668287Y144272D01*
X668160Y144204D01*
X668017Y144137D01*
X667856Y144069D01*
X667687Y144001D01*
X667509Y143951D01*
X667306Y143900D01*
X667103Y143866D01*
X666883Y143841D01*
X666646Y143832D01*
X666503D01*
X666401Y143841D01*
X666291Y143849D01*
X666164Y143858D01*
X665902Y143900D01*
X665894D01*
X665860Y143908D01*
X665801Y143925D01*
X665716Y143942D01*
X665665Y143959D01*
X665606Y143976D01*
X665530Y143993D01*
X665454Y144018D01*
X665361Y144044D01*
X665268Y144078D01*
X665158Y144111D01*
X665039Y144145D01*
X665031D01*
X665014Y144154D01*
X664980Y144162D01*
X664938Y144179D01*
X664887Y144196D01*
X664828Y144213D01*
X664693Y144255D01*
X664549Y144289D01*
X664413Y144323D01*
X664295Y144348D01*
X664253Y144357D01*
X664185D01*
X664151Y144348D01*
X664117Y144340D01*
X664024Y144314D01*
X663982Y144281D01*
X663940Y144247D01*
Y144238D01*
X663923Y144230D01*
X663906Y144196D01*
X663889Y144154D01*
X663864Y144103D01*
X663847Y144027D01*
X663821Y143942D01*
X663804Y143832D01*
X663559D01*
Y146953D01*
X663804D01*
Y146945D01*
X663813Y146911D01*
X663821Y146860D01*
X663838Y146793D01*
X663855Y146708D01*
X663872Y146615D01*
X663897Y146514D01*
X663923Y146404D01*
X663990Y146167D01*
X664075Y145921D01*
X664168Y145685D01*
X664219Y145583D01*
X664270Y145482D01*
Y145473D01*
X664287Y145465D01*
X664304Y145439D01*
X664329Y145406D01*
X664397Y145312D01*
X664498Y145203D01*
X664625Y145076D01*
X664777Y144940D01*
X664963Y144805D01*
X665175Y144678D01*
X665183D01*
X665200Y144661D01*
X665234Y144653D01*
X665285Y144627D01*
X665335Y144602D01*
X665403Y144577D01*
X665488Y144551D01*
X665572Y144517D01*
X665665Y144484D01*
X665767Y144458D01*
X665995Y144407D01*
X666249Y144374D01*
X666511Y144357D01*
X666596D01*
X666646Y144365D01*
X666722Y144374D01*
X666799Y144382D01*
X666892Y144390D01*
X666993Y144416D01*
X667205Y144467D01*
X667424Y144543D01*
X667534Y144593D01*
X667645Y144653D01*
X667746Y144720D01*
X667839Y144796D01*
X667848Y144805D01*
X667864Y144813D01*
X667881Y144839D01*
X667915Y144873D01*
X667949Y144915D01*
X667991Y144974D01*
X668084Y145092D01*
X668177Y145253D01*
X668253Y145431D01*
X668287Y145524D01*
X668313Y145625D01*
X668321Y145735D01*
X668330Y145845D01*
Y145862D01*
Y145905D01*
X668321Y145972D01*
X668304Y146057D01*
X668287Y146158D01*
X668253Y146277D01*
X668203Y146395D01*
X668143Y146522D01*
X668135Y146539D01*
X668110Y146581D01*
X668067Y146649D01*
X668000Y146733D01*
X667924Y146835D01*
X667822Y146936D01*
X667704Y147055D01*
X667568Y147165D01*
X667551Y147173D01*
X667534Y147190D01*
X667509Y147207D01*
X667475Y147233D01*
X667424Y147266D01*
X667365Y147300D01*
X667289Y147351D01*
X667205Y147402D01*
X667103Y147461D01*
X666985Y147528D01*
X666849Y147613D01*
X666697Y147698D01*
X666528Y147799D01*
X666342Y147901D01*
X666130Y148019D01*
X666114Y148027D01*
X666080Y148045D01*
X666021Y148078D01*
X665944Y148129D01*
X665843Y148180D01*
X665733Y148247D01*
X665614Y148315D01*
X665488Y148391D01*
X665209Y148560D01*
X664938Y148730D01*
X664802Y148823D01*
X664676Y148907D01*
X664566Y148983D01*
X664464Y149059D01*
X664456Y149068D01*
X664439Y149076D01*
X664413Y149102D01*
X664388Y149127D01*
X664295Y149203D01*
X664185Y149313D01*
X664067Y149440D01*
X663940Y149584D01*
X663821Y149745D01*
X663720Y149914D01*
Y149922D01*
X663711Y149939D01*
X663695Y149965D01*
X663678Y149998D01*
X663661Y150041D01*
X663644Y150091D01*
X663593Y150218D01*
X663551Y150379D01*
X663508Y150556D01*
X663475Y150751D01*
X663466Y150954D01*
Y150962D01*
Y150996D01*
X663475Y151047D01*
Y151115D01*
X663492Y151199D01*
X663508Y151301D01*
X663525Y151411D01*
X663559Y151529D01*
X663601Y151656D01*
X663652Y151791D01*
X663711Y151935D01*
X663788Y152079D01*
X663872Y152214D01*
X663974Y152358D01*
X664084Y152502D01*
X664219Y152637D01*
X664227Y152646D01*
X664253Y152671D01*
X664295Y152705D01*
X664354Y152747D01*
X664430Y152806D01*
X664515Y152866D01*
X664625Y152925D01*
X664743Y152992D01*
X664870Y153060D01*
X665014Y153119D01*
X665175Y153187D01*
X665344Y153238D01*
X665521Y153280D01*
X665716Y153314D01*
X665919Y153339D01*
X666130Y153348D01*
X666207D01*
X666257Y153339D01*
X666325D01*
X666401Y153331D01*
X666494Y153314D01*
X666596Y153306D01*
X666706Y153280D01*
X666833Y153263D01*
X667095Y153195D01*
X667374Y153103D01*
X667526Y153052D01*
X667678Y152984D01*
X667687D01*
X667695Y152976D01*
X667738Y152959D01*
X667805Y152933D01*
X667881Y152908D01*
X668059Y152849D01*
X668143Y152832D01*
X668211Y152823D01*
X668236D01*
X668270Y152832D01*
X668313Y152840D01*
X668397Y152866D01*
X668448Y152891D01*
X668490Y152925D01*
X668499Y152933D01*
X668507Y152950D01*
X668533Y152976D01*
X668558Y153018D01*
X668592Y153077D01*
X668617Y153145D01*
X668651Y153238D01*
X668676Y153348D01*
X668922D01*
Y150201D01*
D02*
G37*
G36*
X646837Y150472D02*
X646600D01*
Y150480D01*
X646583Y150523D01*
X646567Y150574D01*
X646533Y150650D01*
X646499Y150734D01*
X646457Y150836D01*
X646406Y150954D01*
X646347Y151073D01*
X646220Y151335D01*
X646059Y151605D01*
X645882Y151859D01*
X645780Y151978D01*
X645678Y152087D01*
X645670Y152096D01*
X645645Y152121D01*
X645594Y152164D01*
X645535Y152214D01*
X645450Y152274D01*
X645357Y152333D01*
X645239Y152409D01*
X645112Y152485D01*
X644968Y152553D01*
X644816Y152629D01*
X644638Y152688D01*
X644452Y152756D01*
X644258Y152798D01*
X644046Y152840D01*
X643826Y152866D01*
X643589Y152874D01*
X643513D01*
X643420Y152866D01*
X643302Y152849D01*
X643158Y152832D01*
X642989Y152798D01*
X642803Y152756D01*
X642608Y152705D01*
X642397Y152629D01*
X642177Y152536D01*
X641957Y152426D01*
X641737Y152290D01*
X641525Y152138D01*
X641314Y151952D01*
X641120Y151741D01*
X640942Y151495D01*
X640934Y151479D01*
X640908Y151445D01*
X640874Y151377D01*
X640824Y151292D01*
X640764Y151174D01*
X640705Y151047D01*
X640637Y150886D01*
X640570Y150717D01*
X640494Y150523D01*
X640426Y150311D01*
X640367Y150083D01*
X640308Y149838D01*
X640257Y149584D01*
X640223Y149313D01*
X640198Y149026D01*
X640189Y148730D01*
Y148713D01*
Y148670D01*
Y148603D01*
X640198Y148510D01*
X640206Y148391D01*
X640214Y148264D01*
X640231Y148112D01*
X640248Y147943D01*
X640282Y147765D01*
X640308Y147579D01*
X640350Y147376D01*
X640401Y147182D01*
X640460Y146970D01*
X640527Y146767D01*
X640604Y146556D01*
X640688Y146353D01*
X640697Y146344D01*
X640714Y146311D01*
X640739Y146251D01*
X640781Y146175D01*
X640832Y146091D01*
X640891Y145989D01*
X640959Y145879D01*
X641043Y145761D01*
X641136Y145634D01*
X641229Y145499D01*
X641339Y145372D01*
X641458Y145245D01*
X641585Y145118D01*
X641720Y145000D01*
X641855Y144890D01*
X642008Y144788D01*
X642016Y144780D01*
X642041Y144763D01*
X642092Y144746D01*
X642151Y144712D01*
X642228Y144670D01*
X642312Y144627D01*
X642414Y144585D01*
X642524Y144543D01*
X642651Y144492D01*
X642777Y144450D01*
X643056Y144365D01*
X643209Y144331D01*
X643369Y144314D01*
X643522Y144298D01*
X643682Y144289D01*
X643818D01*
X643868Y144298D01*
X643995Y144306D01*
X644139Y144323D01*
X644308Y144340D01*
X644477Y144374D01*
X644655Y144416D01*
X644663D01*
X644680Y144424D01*
X644706Y144433D01*
X644740Y144441D01*
X644824Y144467D01*
X644951Y144509D01*
X645086Y144560D01*
X645239Y144627D01*
X645399Y144704D01*
X645569Y144788D01*
Y147427D01*
Y147436D01*
Y147461D01*
Y147495D01*
Y147537D01*
Y147596D01*
X645560Y147655D01*
X645552Y147799D01*
X645543Y147951D01*
X645526Y148095D01*
X645492Y148222D01*
X645475Y148281D01*
X645459Y148324D01*
X645450Y148332D01*
X645442Y148357D01*
X645416Y148400D01*
X645383Y148442D01*
X645332Y148493D01*
X645281Y148552D01*
X645213Y148603D01*
X645137Y148645D01*
X645129Y148653D01*
X645095Y148662D01*
X645036Y148679D01*
X644960Y148704D01*
X644858Y148730D01*
X644723Y148747D01*
X644562Y148755D01*
X644376Y148763D01*
Y149009D01*
X647903D01*
Y148763D01*
X647683D01*
X647649Y148755D01*
X647556Y148747D01*
X647446Y148721D01*
X647328Y148679D01*
X647209Y148611D01*
X647100Y148527D01*
X647007Y148408D01*
X646998Y148400D01*
X646990Y148357D01*
X646964Y148290D01*
X646956Y148247D01*
X646947Y148188D01*
X646930Y148129D01*
X646922Y148061D01*
X646913Y147977D01*
X646897Y147884D01*
X646888Y147791D01*
Y147681D01*
X646880Y147562D01*
Y147427D01*
Y144636D01*
X646871Y144627D01*
X646846Y144619D01*
X646804Y144593D01*
X646744Y144568D01*
X646677Y144534D01*
X646592Y144492D01*
X646499Y144450D01*
X646397Y144407D01*
X646288Y144357D01*
X646161Y144306D01*
X645907Y144204D01*
X645628Y144111D01*
X645349Y144027D01*
X645340D01*
X645315Y144018D01*
X645273Y144010D01*
X645213Y143993D01*
X645146Y143984D01*
X645061Y143968D01*
X644968Y143951D01*
X644858Y143934D01*
X644740Y143908D01*
X644613Y143891D01*
X644477Y143875D01*
X644325Y143866D01*
X644021Y143841D01*
X643682Y143832D01*
X643564D01*
X643505Y143841D01*
X643429D01*
X643344Y143849D01*
X643251Y143858D01*
X643141Y143866D01*
X643031Y143883D01*
X642777Y143925D01*
X642498Y143976D01*
X642194Y144044D01*
X641872Y144128D01*
X641543Y144247D01*
X641213Y144382D01*
X640874Y144543D01*
X640553Y144737D01*
X640392Y144847D01*
X640240Y144957D01*
X640088Y145084D01*
X639944Y145219D01*
X639809Y145363D01*
X639673Y145515D01*
X639665Y145532D01*
X639631Y145575D01*
X639580Y145642D01*
X639512Y145744D01*
X639436Y145862D01*
X639352Y146006D01*
X639259Y146167D01*
X639166Y146361D01*
X639064Y146564D01*
X638971Y146784D01*
X638887Y147029D01*
X638811Y147283D01*
X638743Y147554D01*
X638692Y147842D01*
X638658Y148138D01*
X638650Y148442D01*
Y148459D01*
Y148493D01*
Y148560D01*
X638658Y148645D01*
X638667Y148755D01*
X638684Y148882D01*
X638700Y149026D01*
X638726Y149178D01*
X638751Y149347D01*
X638793Y149533D01*
X638836Y149719D01*
X638895Y149922D01*
X638963Y150125D01*
X639039Y150328D01*
X639123Y150540D01*
X639225Y150743D01*
X639233Y150759D01*
X639259Y150802D01*
X639293Y150870D01*
X639352Y150962D01*
X639419Y151073D01*
X639504Y151191D01*
X639605Y151335D01*
X639715Y151487D01*
X639842Y151648D01*
X639986Y151808D01*
X640138Y151978D01*
X640308Y152147D01*
X640485Y152307D01*
X640680Y152468D01*
X640883Y152620D01*
X641103Y152756D01*
X641111Y152764D01*
X641145Y152781D01*
X641204Y152806D01*
X641280Y152849D01*
X641373Y152891D01*
X641492Y152942D01*
X641627Y153001D01*
X641771Y153052D01*
X641940Y153111D01*
X642118Y153162D01*
X642312Y153212D01*
X642524Y153255D01*
X642735Y153297D01*
X642972Y153322D01*
X643209Y153339D01*
X643463Y153348D01*
X643640D01*
X643767Y153339D01*
X643902Y153331D01*
X644054Y153314D01*
X644215Y153288D01*
X644368Y153263D01*
X644384D01*
X644410Y153255D01*
X644444Y153246D01*
X644486Y153238D01*
X644537Y153221D01*
X644596Y153212D01*
X644663Y153187D01*
X644740Y153170D01*
X644824Y153145D01*
X644917Y153111D01*
X645027Y153085D01*
X645256Y153001D01*
X645518Y152908D01*
X645526D01*
X645535Y152900D01*
X645577Y152891D01*
X645645Y152866D01*
X645721Y152840D01*
X645805Y152815D01*
X645890Y152798D01*
X645966Y152781D01*
X646025Y152773D01*
X646051D01*
X646101Y152789D01*
X646169Y152823D01*
X646203Y152849D01*
X646237Y152882D01*
X646245Y152891D01*
X646254Y152908D01*
X646271Y152942D01*
X646288Y152984D01*
X646304Y153052D01*
X646330Y153128D01*
X646347Y153229D01*
X646355Y153348D01*
X646600D01*
X646837Y150472D01*
D02*
G37*
G36*
X657833Y152900D02*
X657452D01*
X657419Y152891D01*
X657317Y152882D01*
X657190Y152857D01*
X657055Y152815D01*
X656919Y152747D01*
X656793Y152663D01*
X656691Y152544D01*
X656683Y152536D01*
X656666Y152502D01*
X656649Y152434D01*
X656632Y152392D01*
X656623Y152341D01*
X656607Y152282D01*
X656590Y152214D01*
X656581Y152138D01*
X656573Y152045D01*
X656564Y151944D01*
X656556Y151834D01*
X656547Y151707D01*
Y151572D01*
Y143891D01*
X656302D01*
X650297Y151225D01*
Y145609D01*
Y145600D01*
Y145575D01*
Y145532D01*
Y145473D01*
X650305Y145406D01*
Y145329D01*
X650322Y145160D01*
X650339Y144983D01*
X650373Y144813D01*
X650390Y144729D01*
X650415Y144661D01*
X650441Y144602D01*
X650474Y144560D01*
X650483Y144551D01*
X650525Y144517D01*
X650584Y144475D01*
X650669Y144424D01*
X650779Y144365D01*
X650914Y144323D01*
X651075Y144289D01*
X651261Y144281D01*
X651582D01*
Y144035D01*
X648419D01*
Y144281D01*
X648791D01*
X648825Y144289D01*
X648926Y144298D01*
X649053Y144323D01*
X649189Y144365D01*
X649324Y144424D01*
X649451Y144509D01*
X649552Y144627D01*
X649561Y144636D01*
X649578Y144670D01*
X649603Y144737D01*
X649612Y144780D01*
X649629Y144830D01*
X649645Y144890D01*
X649654Y144957D01*
X649671Y145042D01*
X649679Y145135D01*
X649688Y145236D01*
X649696Y145346D01*
X649705Y145473D01*
Y145609D01*
Y151952D01*
X649696Y151961D01*
X649688Y151969D01*
X649637Y152028D01*
X649569Y152104D01*
X649476Y152197D01*
X649383Y152299D01*
X649282Y152400D01*
X649180Y152485D01*
X649096Y152553D01*
X649087Y152561D01*
X649062Y152578D01*
X649011Y152612D01*
X648943Y152646D01*
X648859Y152688D01*
X648757Y152739D01*
X648639Y152781D01*
X648495Y152832D01*
X648487D01*
X648461Y152840D01*
X648410Y152857D01*
X648351Y152866D01*
X648267Y152882D01*
X648174Y152891D01*
X648055Y152900D01*
X647920D01*
Y153145D01*
X650373D01*
X655955Y146311D01*
Y151572D01*
Y151580D01*
Y151605D01*
Y151648D01*
Y151707D01*
X655947Y151775D01*
Y151851D01*
X655930Y152020D01*
X655904Y152197D01*
X655871Y152367D01*
X655854Y152443D01*
X655828Y152510D01*
X655795Y152570D01*
X655761Y152612D01*
X655752Y152620D01*
X655718Y152654D01*
X655659Y152705D01*
X655575Y152756D01*
X655465Y152806D01*
X655329Y152857D01*
X655169Y152891D01*
X654983Y152900D01*
X654670D01*
Y153145D01*
X657833D01*
Y152900D01*
D02*
G37*
G36*
X680433Y149948D02*
X680416D01*
X680374Y149939D01*
X680315Y149931D01*
X680247Y149914D01*
X680087Y149871D01*
X680010Y149838D01*
X679951Y149804D01*
X679943Y149795D01*
X679909Y149761D01*
X679867Y149711D01*
X679807Y149643D01*
X679748Y149542D01*
X679672Y149423D01*
X679596Y149288D01*
X679528Y149119D01*
X677355Y143849D01*
X677075D01*
X674885Y149034D01*
Y149043D01*
X674876Y149051D01*
X674859Y149093D01*
X674826Y149161D01*
X674792Y149237D01*
X674699Y149406D01*
X674648Y149491D01*
X674597Y149558D01*
X674589Y149567D01*
X674572Y149584D01*
X674546Y149618D01*
X674504Y149651D01*
X674453Y149694D01*
X674394Y149745D01*
X674259Y149829D01*
X674250D01*
X674233Y149838D01*
X674208Y149854D01*
X674157Y149863D01*
X674098Y149888D01*
X674022Y149905D01*
X673929Y149922D01*
X673811Y149948D01*
Y150193D01*
X676686D01*
Y149948D01*
X676458D01*
X676407Y149939D01*
X676356Y149931D01*
X676289Y149914D01*
X676221Y149888D01*
X676162Y149854D01*
X676103Y149812D01*
X676094Y149804D01*
X676086Y149787D01*
X676060Y149761D01*
X676035Y149719D01*
X676010Y149677D01*
X675993Y149618D01*
X675976Y149550D01*
X675967Y149474D01*
Y149465D01*
Y149432D01*
X675976Y149381D01*
X675984Y149313D01*
X676001Y149237D01*
X676027Y149136D01*
X676060Y149034D01*
X676111Y148916D01*
X677541Y145524D01*
X678978Y149043D01*
Y149051D01*
X678987Y149059D01*
X679004Y149102D01*
X679029Y149169D01*
X679055Y149254D01*
X679080Y149347D01*
X679105Y149448D01*
X679122Y149542D01*
X679131Y149618D01*
Y149626D01*
Y149635D01*
X679122Y149668D01*
X679105Y149719D01*
X679072Y149770D01*
Y149778D01*
X679063Y149787D01*
X679021Y149829D01*
X678961Y149871D01*
X678885Y149905D01*
X678877D01*
X678860Y149914D01*
X678835Y149922D01*
X678784Y149931D01*
X678725D01*
X678640Y149939D01*
X678539Y149948D01*
X678420D01*
Y150193D01*
X680433D01*
Y149948D01*
D02*
G37*
G36*
X683825Y153322D02*
X683901D01*
X683994Y153306D01*
X684104Y153297D01*
X684231Y153272D01*
X684366Y153238D01*
X684502Y153204D01*
X684654Y153153D01*
X684806Y153094D01*
X684967Y153026D01*
X685119Y152942D01*
X685271Y152849D01*
X685424Y152739D01*
X685567Y152612D01*
X685576Y152603D01*
X685601Y152578D01*
X685635Y152544D01*
X685686Y152485D01*
X685737Y152417D01*
X685804Y152333D01*
X685872Y152240D01*
X685939Y152138D01*
X686007Y152020D01*
X686075Y151893D01*
X686143Y151749D01*
X686193Y151605D01*
X686244Y151445D01*
X686278Y151284D01*
X686303Y151106D01*
X686312Y150929D01*
Y150920D01*
Y150895D01*
Y150861D01*
X686303Y150810D01*
Y150751D01*
X686295Y150675D01*
X686286Y150590D01*
X686269Y150497D01*
X686236Y150286D01*
X686176Y150057D01*
X686092Y149804D01*
X685982Y149550D01*
X685973Y149542D01*
X685956Y149499D01*
X685931Y149440D01*
X685889Y149364D01*
X685838Y149262D01*
X685770Y149144D01*
X685686Y149009D01*
X685601Y148856D01*
X685491Y148687D01*
X685373Y148510D01*
X685246Y148315D01*
X685094Y148121D01*
X684941Y147909D01*
X684764Y147698D01*
X684578Y147478D01*
X684375Y147249D01*
X684366Y147241D01*
X684358Y147233D01*
X684333Y147207D01*
X684299Y147173D01*
X684214Y147080D01*
X684104Y146962D01*
X683977Y146818D01*
X683825Y146649D01*
X683656Y146471D01*
X683487Y146294D01*
X683131Y145913D01*
X682954Y145727D01*
X682785Y145549D01*
X682632Y145389D01*
X682497Y145253D01*
X682379Y145135D01*
X682328Y145092D01*
X682286Y145050D01*
X684908D01*
X685060Y145059D01*
X685229D01*
X685398Y145076D01*
X685551Y145084D01*
X685618Y145092D01*
X685677Y145101D01*
X685694D01*
X685728Y145110D01*
X685787Y145126D01*
X685855Y145143D01*
X685939Y145177D01*
X686024Y145211D01*
X686117Y145262D01*
X686210Y145312D01*
X686219Y145321D01*
X686253Y145346D01*
X686295Y145380D01*
X686354Y145439D01*
X686413Y145499D01*
X686489Y145583D01*
X686557Y145676D01*
X686625Y145786D01*
X686870D01*
X686227Y144035D01*
X680856D01*
Y144281D01*
X680865Y144289D01*
X680882Y144306D01*
X680915Y144331D01*
X680958Y144374D01*
X681017Y144424D01*
X681085Y144492D01*
X681161Y144560D01*
X681245Y144636D01*
X681431Y144822D01*
X681660Y145033D01*
X681897Y145270D01*
X682159Y145532D01*
X682429Y145803D01*
X682709Y146091D01*
X682988Y146387D01*
X683258Y146683D01*
X683521Y146970D01*
X683766Y147266D01*
X683994Y147545D01*
X684189Y147808D01*
X684197Y147824D01*
X684231Y147867D01*
X684282Y147943D01*
X684341Y148036D01*
X684417Y148163D01*
X684493Y148298D01*
X684586Y148459D01*
X684679Y148637D01*
X684764Y148823D01*
X684857Y149017D01*
X684933Y149229D01*
X685009Y149440D01*
X685068Y149660D01*
X685119Y149880D01*
X685153Y150100D01*
X685161Y150311D01*
Y150320D01*
Y150353D01*
Y150396D01*
X685153Y150455D01*
X685145Y150531D01*
X685136Y150616D01*
X685119Y150709D01*
X685094Y150819D01*
X685034Y151047D01*
X684992Y151166D01*
X684933Y151284D01*
X684874Y151402D01*
X684806Y151521D01*
X684722Y151631D01*
X684629Y151741D01*
X684620Y151749D01*
X684603Y151766D01*
X684578Y151791D01*
X684536Y151834D01*
X684485Y151876D01*
X684426Y151918D01*
X684349Y151969D01*
X684273Y152028D01*
X684180Y152079D01*
X684087Y152130D01*
X683867Y152223D01*
X683749Y152257D01*
X683622Y152282D01*
X683495Y152299D01*
X683360Y152307D01*
X683292D01*
X683250Y152299D01*
X683191D01*
X683114Y152290D01*
X683038Y152274D01*
X682954Y152257D01*
X682768Y152214D01*
X682565Y152138D01*
X682353Y152045D01*
X682252Y151978D01*
X682150Y151910D01*
X682142Y151901D01*
X682125Y151893D01*
X682100Y151868D01*
X682066Y151834D01*
X682023Y151791D01*
X681973Y151741D01*
X681913Y151681D01*
X681854Y151614D01*
X681787Y151538D01*
X681727Y151453D01*
X681660Y151360D01*
X681592Y151259D01*
X681533Y151149D01*
X681474Y151022D01*
X681364Y150759D01*
X681118D01*
Y150777D01*
X681127Y150810D01*
X681135Y150878D01*
X681152Y150962D01*
X681178Y151064D01*
X681203Y151182D01*
X681245Y151318D01*
X681288Y151462D01*
X681338Y151614D01*
X681397Y151766D01*
X681465Y151927D01*
X681550Y152087D01*
X681634Y152240D01*
X681736Y152392D01*
X681846Y152527D01*
X681973Y152663D01*
X681981Y152671D01*
X682007Y152688D01*
X682049Y152722D01*
X682100Y152764D01*
X682167Y152815D01*
X682252Y152874D01*
X682345Y152933D01*
X682455Y153001D01*
X682573Y153060D01*
X682709Y153119D01*
X682852Y153179D01*
X683005Y153229D01*
X683165Y153272D01*
X683343Y153306D01*
X683521Y153322D01*
X683715Y153331D01*
X683766D01*
X683825Y153322D01*
D02*
G37*
G36*
X662257Y152900D02*
X661876D01*
X661834Y152891D01*
X661741Y152882D01*
X661614Y152857D01*
X661487Y152823D01*
X661352Y152764D01*
X661225Y152680D01*
X661115Y152570D01*
X661106Y152561D01*
X661089Y152519D01*
X661064Y152460D01*
X661047Y152409D01*
X661039Y152358D01*
X661022Y152299D01*
X661005Y152223D01*
X660988Y152138D01*
X660979Y152045D01*
X660971Y151935D01*
X660963Y151817D01*
X660954Y151681D01*
Y151538D01*
Y145642D01*
Y145634D01*
Y145609D01*
Y145575D01*
Y145532D01*
Y145473D01*
X660963Y145414D01*
Y145270D01*
X660971Y145118D01*
X660988Y144966D01*
X661013Y144830D01*
X661022Y144780D01*
X661039Y144729D01*
Y144720D01*
X661056Y144704D01*
X661072Y144670D01*
X661098Y144627D01*
X661140Y144585D01*
X661182Y144534D01*
X661242Y144492D01*
X661318Y144441D01*
X661335Y144433D01*
X661368Y144416D01*
X661428Y144390D01*
X661504Y144365D01*
X661597Y144331D01*
X661698Y144306D01*
X661808Y144289D01*
X661927Y144281D01*
X662257D01*
Y144035D01*
X658366D01*
Y144281D01*
X658738D01*
X658780Y144289D01*
X658873Y144298D01*
X659000Y144323D01*
X659127Y144357D01*
X659262Y144416D01*
X659389Y144492D01*
X659499Y144602D01*
X659508Y144610D01*
X659525Y144653D01*
X659541Y144678D01*
X659550Y144712D01*
X659567Y144763D01*
X659584Y144813D01*
X659601Y144881D01*
X659618Y144949D01*
X659626Y145042D01*
X659643Y145135D01*
X659651Y145245D01*
X659660Y145363D01*
X659668Y145499D01*
Y145642D01*
Y151538D01*
Y151546D01*
Y151572D01*
Y151605D01*
Y151648D01*
Y151707D01*
X659660Y151766D01*
Y151910D01*
X659643Y152062D01*
X659626Y152206D01*
X659609Y152341D01*
X659592Y152400D01*
X659575Y152443D01*
Y152451D01*
X659558Y152468D01*
X659541Y152502D01*
X659516Y152544D01*
X659482Y152586D01*
X659432Y152637D01*
X659372Y152688D01*
X659305Y152730D01*
X659288Y152739D01*
X659254Y152756D01*
X659195Y152781D01*
X659119Y152815D01*
X659026Y152849D01*
X658916Y152874D01*
X658806Y152891D01*
X658687Y152900D01*
X658366D01*
Y153145D01*
X662257D01*
Y152900D01*
D02*
G37*
G36*
X637821D02*
X637440D01*
X637398Y152891D01*
X637305Y152882D01*
X637178Y152857D01*
X637051Y152823D01*
X636916Y152764D01*
X636789Y152680D01*
X636679Y152570D01*
X636670Y152561D01*
X636654Y152519D01*
X636628Y152460D01*
X636611Y152409D01*
X636603Y152358D01*
X636586Y152299D01*
X636569Y152223D01*
X636552Y152138D01*
X636544Y152045D01*
X636535Y151935D01*
X636527Y151817D01*
X636518Y151681D01*
Y151538D01*
Y145642D01*
Y145634D01*
Y145609D01*
Y145575D01*
Y145532D01*
Y145473D01*
X636527Y145414D01*
Y145270D01*
X636535Y145118D01*
X636552Y144966D01*
X636577Y144830D01*
X636586Y144780D01*
X636603Y144729D01*
Y144720D01*
X636620Y144704D01*
X636637Y144670D01*
X636662Y144627D01*
X636704Y144585D01*
X636747Y144534D01*
X636806Y144492D01*
X636882Y144441D01*
X636899Y144433D01*
X636933Y144416D01*
X636992Y144390D01*
X637068Y144365D01*
X637161Y144331D01*
X637263Y144306D01*
X637373Y144289D01*
X637491Y144281D01*
X637821D01*
Y144035D01*
X633930D01*
Y144281D01*
X634302D01*
X634344Y144289D01*
X634438Y144298D01*
X634564Y144323D01*
X634691Y144357D01*
X634827Y144416D01*
X634953Y144492D01*
X635064Y144602D01*
X635072Y144610D01*
X635089Y144653D01*
X635106Y144678D01*
X635114Y144712D01*
X635131Y144763D01*
X635148Y144813D01*
X635165Y144881D01*
X635182Y144949D01*
X635190Y145042D01*
X635207Y145135D01*
X635216Y145245D01*
X635224Y145363D01*
X635233Y145499D01*
Y145642D01*
Y151538D01*
Y151546D01*
Y151572D01*
Y151605D01*
Y151648D01*
Y151707D01*
X635224Y151766D01*
Y151910D01*
X635207Y152062D01*
X635190Y152206D01*
X635173Y152341D01*
X635157Y152400D01*
X635140Y152443D01*
Y152451D01*
X635123Y152468D01*
X635106Y152502D01*
X635080Y152544D01*
X635047Y152586D01*
X634996Y152637D01*
X634937Y152688D01*
X634869Y152730D01*
X634852Y152739D01*
X634818Y152756D01*
X634759Y152781D01*
X634683Y152815D01*
X634590Y152849D01*
X634480Y152874D01*
X634370Y152891D01*
X634252Y152900D01*
X633930D01*
Y153145D01*
X637821D01*
Y152900D01*
D02*
G37*
%LPC*%
G36*
X655515Y271284D02*
X653562D01*
Y270796D01*
X651121D01*
Y270308D01*
X648680D01*
Y269819D01*
X646728D01*
Y268843D01*
X646239D01*
Y266891D01*
X645751D01*
Y264450D01*
X645263D01*
Y262009D01*
X644775D01*
Y260056D01*
X647704D01*
Y259568D01*
X654050D01*
Y259080D01*
X656491D01*
Y262497D01*
X656003D01*
Y270308D01*
X655515D01*
Y271284D01*
D02*
G37*
G36*
X722291Y194671D02*
X722012D01*
Y193834D01*
X721733D01*
Y193276D01*
X721454D01*
Y192717D01*
X721175D01*
Y192439D01*
Y191880D01*
X720896D01*
Y191322D01*
X720617D01*
Y190485D01*
X720338D01*
Y189928D01*
X720059D01*
Y189090D01*
X719780D01*
Y188533D01*
X719501D01*
Y187696D01*
X719222D01*
Y186859D01*
X718943D01*
Y186301D01*
X718664D01*
Y185464D01*
X718385D01*
Y184905D01*
X720338D01*
Y184627D01*
X723686D01*
Y184905D01*
X725918D01*
Y185464D01*
X725639D01*
Y186301D01*
X725360D01*
Y186859D01*
X725081D01*
Y187696D01*
X724802D01*
Y188533D01*
X724523D01*
Y189370D01*
X724244D01*
Y189928D01*
X723965D01*
Y190765D01*
X723686D01*
Y191602D01*
X723407D01*
Y192160D01*
X723128D01*
Y192997D01*
X722849D01*
Y193554D01*
X722570D01*
Y194391D01*
X722291D01*
Y194671D01*
D02*
G37*
%LPD*%
D10*
X745816Y300030D02*
G03*
X745816Y300030I-2916J0D01*
G01*
X393310Y325120D02*
G03*
X393310Y325120I-1000J0D01*
G01*
X75090Y307590D02*
G03*
X75090Y307590I-1000J0D01*
G01*
X86830Y97510D02*
G03*
X86830Y97510I-1000J0D01*
G01*
X76360Y71370D02*
G03*
X76360Y71370I-1000J0D01*
G01*
X551340Y57010D02*
G03*
X551340Y57010I-1000J0D01*
G01*
X948010Y246690D02*
Y268690D01*
X926510Y246690D02*
Y268690D01*
Y213910D02*
Y235910D01*
X948010Y213910D02*
Y235910D01*
X760400Y150030D02*
X920400D01*
X760400Y310030D02*
X920400D01*
X600120Y323010D02*
Y345010D01*
X621620Y323010D02*
Y345010D01*
X746170Y323010D02*
Y345010D01*
X767670Y323010D02*
Y345010D01*
X718230Y323010D02*
Y345010D01*
X739730Y323010D02*
Y345010D01*
X870630Y323010D02*
Y345010D01*
X892130Y323010D02*
Y345010D01*
X624250Y323010D02*
Y345010D01*
X645750Y323010D02*
Y345010D01*
X843960Y323010D02*
Y345010D01*
X865460Y323010D02*
Y345010D01*
X100751Y305278D02*
Y332502D01*
X82129Y305278D02*
Y332502D01*
X128860Y307770D02*
Y329770D01*
X107360Y307770D02*
Y329770D01*
X451699Y235308D02*
Y262532D01*
X470321Y235308D02*
Y262532D01*
X504001Y230670D02*
Y275670D01*
X530101D02*
X531901D01*
X504001D02*
X505801D01*
X531901Y230670D02*
Y275670D01*
X530101Y230670D02*
X531901D01*
X504001D02*
X505801D01*
X201018Y373801D02*
X228242D01*
X201018Y355179D02*
X228242D01*
X201018Y391581D02*
X228242D01*
X201018Y372959D02*
X228242D01*
X525359Y298808D02*
Y326032D01*
X543981Y298808D02*
Y326032D01*
X433919Y17542D02*
Y44766D01*
X452541Y17542D02*
Y44766D01*
X307101Y293791D02*
X334326D01*
X307101Y275169D02*
X334326D01*
X97369Y9368D02*
Y36592D01*
X115991Y9368D02*
Y36592D01*
X67990Y352220D02*
Y374220D01*
X89490Y352220D02*
Y374220D01*
X432480Y172000D02*
Y194000D01*
X453980Y172000D02*
Y194000D01*
X82980Y67900D02*
X104980D01*
X82980Y46400D02*
X104980D01*
X82980Y93300D02*
X104980D01*
X82980Y71800D02*
X104980D01*
X70530Y11860D02*
Y33860D01*
X92030Y11860D02*
Y33860D01*
D11*
X156210Y345440D02*
G03*
X130810Y320040I0J-25400D01*
G01*
Y27940D02*
G03*
X156210Y2540I25400J0D01*
G01*
X359410D02*
G03*
X384810Y27940I0J25400D01*
G01*
Y320040D02*
G03*
X359410Y345440I-25400J0D01*
G01*
X102870Y395090D02*
G03*
X102870Y395090I-2540J0D01*
G01*
X876820Y89950D02*
Y113250D01*
X897670Y134100D02*
X920970D01*
X941820Y89950D02*
Y113250D01*
X897670Y69100D02*
X920970D01*
X576530Y342950D02*
Y345950D01*
X538530Y342950D02*
X576530D01*
X538530D02*
Y345950D01*
X576530Y390650D02*
Y393650D01*
X538530D02*
X576530D01*
X538530Y390650D02*
Y393650D01*
X824180Y342950D02*
Y345950D01*
X786180Y342950D02*
X824180D01*
X786180D02*
Y345950D01*
X824180Y390650D02*
Y393650D01*
X786180D02*
X824180D01*
X786180Y390650D02*
Y393650D01*
X699720Y342950D02*
Y345950D01*
X661720Y342950D02*
X699720D01*
X661720D02*
Y345950D01*
X699720Y390650D02*
Y393650D01*
X661720D02*
X699720D01*
X661720Y390650D02*
Y393650D01*
X391200Y5180D02*
Y208180D01*
X548200Y5180D02*
Y208180D01*
X419125Y5180D02*
X548200D01*
X419125Y208180D02*
X548200D01*
X130810Y27940D02*
Y320040D01*
X156210Y2540D02*
X359410D01*
X384810Y27940D02*
Y320040D01*
X156210Y345440D02*
X359410D01*
X29610Y334890D02*
X54210D01*
X29610Y302890D02*
X54210D01*
X265930Y277060D02*
Y289510D01*
X258630D02*
X265930D01*
Y109510D02*
Y121960D01*
X258630Y109510D02*
X265930D01*
X10930D02*
X78130D01*
X10930Y289510D02*
X78130D01*
X10930Y109510D02*
Y289510D01*
X30880Y98670D02*
X55480D01*
X30880Y66670D02*
X55480D01*
X561340Y16510D02*
Y98010D01*
X866140D01*
Y16510D02*
Y98010D01*
X561340Y16510D02*
X866140D01*
D12*
X519201Y220670D02*
G03*
X519201Y220670I-1250J0D01*
G01*
D13*
X299780Y160087D02*
G03*
X299780Y160087I-3810J0D01*
G01*
D14*
X411421Y406770D02*
X494820Y406770D01*
X417632Y288920D02*
X422060D01*
X484167D02*
X488610D01*
X411421Y383306D02*
Y406770D01*
Y324296D02*
Y359234D01*
Y313004D02*
Y313285D01*
X494820Y383304D02*
Y402980D01*
Y324252D02*
Y359236D01*
Y313004D02*
Y313242D01*
X829314Y292097D02*
Y279402D01*
X831853Y276863D01*
X836932D01*
X839471Y279402D01*
Y292097D01*
X852167Y276863D02*
Y292097D01*
X844549Y284480D01*
X854706D01*
X606642Y389888D02*
Y379732D01*
X613413D01*
X623570Y389888D02*
X616799D01*
Y379732D01*
X623570D01*
X616799Y384810D02*
X620184D01*
X626956Y389888D02*
Y379732D01*
X632034D01*
X633727Y381424D01*
Y388196D01*
X632034Y389888D01*
X626956D01*
X637112Y379732D02*
X640498D01*
X638805D01*
Y389888D01*
X637112Y388196D01*
X846249Y392428D02*
Y382272D01*
X853020D01*
X863177Y392428D02*
X856406D01*
Y382272D01*
X863177D01*
X856406Y387350D02*
X859792D01*
X866563Y392428D02*
Y382272D01*
X871641D01*
X873334Y383964D01*
Y390736D01*
X871641Y392428D01*
X866563D01*
X876720Y390736D02*
X878412Y392428D01*
X881798D01*
X883491Y390736D01*
Y389043D01*
X881798Y387350D01*
X880105D01*
X881798D01*
X883491Y385657D01*
Y383964D01*
X881798Y382272D01*
X878412D01*
X876720Y383964D01*
X726247Y390772D02*
Y380615D01*
X733018D01*
X743175Y390772D02*
X736404D01*
Y380615D01*
X743175D01*
X736404Y385693D02*
X739790D01*
X746561Y390772D02*
Y380615D01*
X751639D01*
X753332Y382308D01*
Y389079D01*
X751639Y390772D01*
X746561D01*
X763488Y380615D02*
X756717D01*
X763488Y387386D01*
Y389079D01*
X761796Y390772D01*
X758410D01*
X756717Y389079D01*
X427993Y95256D02*
X440688D01*
X443228Y97795D01*
Y102874D01*
X440688Y105413D01*
X427993D01*
X443228Y110491D02*
Y115570D01*
Y113030D01*
X427993D01*
X430532Y110491D01*
Y123187D02*
X427993Y125726D01*
Y130805D01*
X430532Y133344D01*
X440688D01*
X443228Y130805D01*
Y125726D01*
X440688Y123187D01*
X430532D01*
X270506Y296972D02*
Y309668D01*
X267967Y312208D01*
X262888D01*
X260349Y309668D01*
Y296972D01*
X255271Y309668D02*
X252732Y312208D01*
X247653D01*
X245114Y309668D01*
Y299512D01*
X247653Y296972D01*
X252732D01*
X255271Y299512D01*
Y302051D01*
X252732Y304590D01*
X245114D01*
X45718Y179078D02*
X30482D01*
X35561Y184157D01*
X30482Y189235D01*
X45718D01*
X33022Y204470D02*
X30482Y201931D01*
Y196852D01*
X33022Y194313D01*
X43178D01*
X45718Y196852D01*
Y201931D01*
X43178Y204470D01*
X30482Y209548D02*
X43178D01*
X45718Y212088D01*
Y217166D01*
X43178Y219705D01*
X30482D01*
X45718Y224783D02*
Y229862D01*
Y227323D01*
X30482D01*
X33022Y224783D01*
D15*
X681578Y6400D02*
X679885D01*
Y11478D01*
X681578D01*
X687502Y10632D02*
X686656Y11478D01*
X684963D01*
X684117Y10632D01*
Y7246D01*
X684963Y6400D01*
X686656D01*
X687502Y7246D01*
X689195Y11478D02*
Y6400D01*
Y8939D01*
X692581D01*
Y11478D01*
Y6400D01*
X694273D02*
X695966D01*
X695120D01*
Y11478D01*
X694273Y10632D01*
X698505Y8939D02*
X701891D01*
X700198Y10632D02*
Y7246D01*
X732361Y10632D02*
X731515Y11478D01*
X729822D01*
X728976Y10632D01*
Y7246D01*
X729822Y6400D01*
X731515D01*
X732361Y7246D01*
X734054Y11478D02*
Y6400D01*
Y8939D01*
X737439D01*
Y11478D01*
Y6400D01*
X739132D02*
X740825D01*
X739979D01*
Y11478D01*
X739132Y10632D01*
X743364Y8939D02*
X746750D01*
X748443Y6400D02*
X750135D01*
Y11478D01*
X748443D01*
X782331Y6400D02*
X780638D01*
Y11478D01*
X782331D01*
X788256Y10632D02*
X787410Y11478D01*
X785717D01*
X784870Y10632D01*
Y7246D01*
X785717Y6400D01*
X787410D01*
X788256Y7246D01*
X789949Y11478D02*
Y6400D01*
Y8939D01*
X793334D01*
Y11478D01*
Y6400D01*
X798413D02*
X795027D01*
X798413Y9785D01*
Y10632D01*
X797566Y11478D01*
X795873D01*
X795027Y10632D01*
X800105Y8939D02*
X803491D01*
X801798Y10632D02*
Y7246D01*
X833961Y10632D02*
X833115Y11478D01*
X831422D01*
X830575Y10632D01*
Y7246D01*
X831422Y6400D01*
X833115D01*
X833961Y7246D01*
X835654Y11478D02*
Y6400D01*
Y8939D01*
X839039D01*
Y11478D01*
Y6400D01*
X844118D02*
X840732D01*
X844118Y9785D01*
Y10632D01*
X843271Y11478D01*
X841579D01*
X840732Y10632D01*
X845810Y8939D02*
X849196D01*
X850889Y6400D02*
X852582D01*
Y11478D01*
X850889D01*
X576591Y6400D02*
X574898D01*
Y11478D01*
X576591D01*
X579130D02*
Y8093D01*
X580823Y6400D01*
X582516Y8093D01*
Y11478D01*
X584209D02*
Y6400D01*
X586748D01*
X587594Y7246D01*
Y8093D01*
X586748Y8939D01*
X584209D01*
X586748D01*
X587594Y9785D01*
Y10632D01*
X586748Y11478D01*
X584209D01*
X589287Y6400D02*
Y9785D01*
X590980Y11478D01*
X592673Y9785D01*
Y6400D01*
Y8939D01*
X589287D01*
X594365Y11478D02*
X597751D01*
X596058D01*
Y6400D01*
X599444Y8939D02*
X602829D01*
X601137Y10632D02*
Y7246D01*
X619757Y11478D02*
Y8093D01*
X621450Y6400D01*
X623143Y8093D01*
Y11478D01*
X624836D02*
Y6400D01*
X627375D01*
X628221Y7246D01*
Y8093D01*
X627375Y8939D01*
X624836D01*
X627375D01*
X628221Y9785D01*
Y10632D01*
X627375Y11478D01*
X624836D01*
X629914Y6400D02*
Y9785D01*
X631607Y11478D01*
X633299Y9785D01*
Y6400D01*
Y8939D01*
X629914D01*
X634992Y11478D02*
X638378D01*
X636685D01*
Y6400D01*
X640070Y8939D02*
X643456D01*
X645149Y6400D02*
X646842D01*
Y11478D01*
X645149D01*
X881000Y59561D02*
X877699D01*
X879349D01*
Y51309D01*
X877699Y49659D01*
X876048D01*
X874398Y51309D01*
X890902Y49659D02*
X884301D01*
X890902Y56260D01*
Y57911D01*
X889252Y59561D01*
X885951D01*
X884301Y57911D01*
X934344Y279676D02*
X933511Y280509D01*
X931845D01*
X931012Y279676D01*
Y276344D01*
X931845Y275511D01*
X933511D01*
X934344Y276344D01*
X936010Y275511D02*
X937676D01*
X936843D01*
Y280509D01*
X936010Y279676D01*
X943508Y280509D02*
X940176D01*
Y278010D01*
X941842Y278843D01*
X942675D01*
X943508Y278010D01*
Y276344D01*
X942675Y275511D01*
X941009D01*
X940176Y276344D01*
X933074Y209431D02*
X932241Y210264D01*
X930575D01*
X929742Y209431D01*
Y206099D01*
X930575Y205266D01*
X932241D01*
X933074Y206099D01*
X934740Y205266D02*
X936406D01*
X935574D01*
Y210264D01*
X934740Y209431D01*
X941405Y205266D02*
Y210264D01*
X938906Y207765D01*
X942238D01*
X607538Y356471D02*
X606705Y357304D01*
X605039D01*
X604206Y356471D01*
Y353139D01*
X605039Y352306D01*
X606705D01*
X607538Y353139D01*
X612536Y352306D02*
X609204D01*
X612536Y355638D01*
Y356471D01*
X611703Y357304D01*
X610037D01*
X609204Y356471D01*
X616701Y352306D02*
Y357304D01*
X614202Y354805D01*
X617534D01*
X754858Y356471D02*
X754025Y357304D01*
X752359D01*
X751525Y356471D01*
Y353139D01*
X752359Y352306D01*
X754025D01*
X754858Y353139D01*
X759856Y352306D02*
X756524D01*
X759856Y355638D01*
Y356471D01*
X759023Y357304D01*
X757357D01*
X756524Y356471D01*
X764855Y357304D02*
X763188Y356471D01*
X761522Y354805D01*
Y353139D01*
X762355Y352306D01*
X764021D01*
X764855Y353139D01*
Y353972D01*
X764021Y354805D01*
X761522D01*
X726918Y356471D02*
X726085Y357304D01*
X724419D01*
X723586Y356471D01*
Y353139D01*
X724419Y352306D01*
X726085D01*
X726918Y353139D01*
X731916Y352306D02*
X728584D01*
X731916Y355638D01*
Y356471D01*
X731083Y357304D01*
X729417D01*
X728584Y356471D01*
X736915Y357304D02*
X733582D01*
Y354805D01*
X735248Y355638D01*
X736081D01*
X736915Y354805D01*
Y353139D01*
X736081Y352306D01*
X734415D01*
X733582Y353139D01*
X878048Y357741D02*
X877215Y358574D01*
X875549D01*
X874715Y357741D01*
Y354409D01*
X875549Y353576D01*
X877215D01*
X878048Y354409D01*
X883046Y353576D02*
X879714D01*
X883046Y356908D01*
Y357741D01*
X882213Y358574D01*
X880547D01*
X879714Y357741D01*
X884712D02*
X885545Y358574D01*
X887211D01*
X888045Y357741D01*
Y356908D01*
X887211Y356075D01*
X886378D01*
X887211D01*
X888045Y355242D01*
Y354409D01*
X887211Y353576D01*
X885545D01*
X884712Y354409D01*
X632501Y356471D02*
X631668Y357304D01*
X630002D01*
X629169Y356471D01*
Y353139D01*
X630002Y352306D01*
X631668D01*
X632501Y353139D01*
X637499Y352306D02*
X634167D01*
X637499Y355638D01*
Y356471D01*
X636666Y357304D01*
X635000D01*
X634167Y356471D01*
X639165Y352306D02*
X640831D01*
X639998D01*
Y357304D01*
X639165Y356471D01*
X851378Y357741D02*
X850545Y358574D01*
X848879D01*
X848046Y357741D01*
Y354409D01*
X848879Y353576D01*
X850545D01*
X851378Y354409D01*
X856376Y353576D02*
X853044D01*
X856376Y356908D01*
Y357741D01*
X855543Y358574D01*
X853877D01*
X853044Y357741D01*
X861375Y353576D02*
X858042D01*
X861375Y356908D01*
Y357741D01*
X860541Y358574D01*
X858875D01*
X858042Y357741D01*
X38995Y81400D02*
X37345Y79749D01*
Y76449D01*
X38995Y74798D01*
X40645D01*
X42296Y76449D01*
Y79749D01*
X43946Y81400D01*
X45597D01*
X47247Y79749D01*
Y76449D01*
X45597Y74798D01*
X47247Y84701D02*
Y88002D01*
Y86351D01*
X37345D01*
X38995Y84701D01*
X113965Y372189D02*
Y368024D01*
X114798Y367191D01*
X116464D01*
X117297Y368024D01*
Y372189D01*
X118963Y367191D02*
X120630D01*
X119796D01*
Y372189D01*
X118963Y371356D01*
X123129Y367191D02*
X124795D01*
X123962D01*
Y372189D01*
X123129Y371356D01*
X37339Y317239D02*
X35689Y315589D01*
Y312288D01*
X37339Y310638D01*
X38990D01*
X40640Y312288D01*
Y315589D01*
X42290Y317239D01*
X43941D01*
X45591Y315589D01*
Y312288D01*
X43941Y310638D01*
X45591Y327142D02*
Y320541D01*
X38990Y327142D01*
X37339D01*
X35689Y325492D01*
Y322191D01*
X37339Y320541D01*
X515661Y319084D02*
X520659D01*
Y316585D01*
X519826Y315752D01*
X518160D01*
X517327Y316585D01*
Y319084D01*
Y317418D02*
X515661Y315752D01*
Y310754D02*
Y314086D01*
X518993Y310754D01*
X519826D01*
X520659Y311587D01*
Y313253D01*
X519826Y314086D01*
X516494Y309088D02*
X515661Y308255D01*
Y306588D01*
X516494Y305756D01*
X519826D01*
X520659Y306588D01*
Y308255D01*
X519826Y309088D01*
X518993D01*
X518160Y308255D01*
Y305756D01*
X458511Y38414D02*
X463509D01*
Y35915D01*
X462676Y35082D01*
X461010D01*
X460177Y35915D01*
Y38414D01*
Y36748D02*
X458511Y35082D01*
Y30084D02*
Y33416D01*
X461843Y30084D01*
X462676D01*
X463509Y30917D01*
Y32583D01*
X462676Y33416D01*
X458511Y25085D02*
Y28418D01*
X461843Y25085D01*
X462676D01*
X463509Y25919D01*
Y27585D01*
X462676Y28418D01*
X236857Y388101D02*
X241855D01*
Y385602D01*
X241022Y384769D01*
X239356D01*
X238523Y385602D01*
Y388101D01*
Y386435D02*
X236857Y384769D01*
Y379771D02*
Y383103D01*
X240189Y379771D01*
X241022D01*
X241855Y380604D01*
Y382270D01*
X241022Y383103D01*
X236857Y378105D02*
Y376438D01*
Y377272D01*
X241855D01*
X241022Y378105D01*
X236857Y370738D02*
X241855D01*
Y368239D01*
X241022Y367406D01*
X239356D01*
X238523Y368239D01*
Y370738D01*
Y369072D02*
X236857Y367406D01*
Y365740D02*
Y364073D01*
Y364907D01*
X241855D01*
X241022Y365740D01*
Y361574D02*
X241855Y360741D01*
Y359075D01*
X241022Y358242D01*
X237690D01*
X236857Y359075D01*
Y360741D01*
X237690Y361574D01*
X241022D01*
X297895Y288645D02*
X302893D01*
Y286146D01*
X302060Y285313D01*
X300394D01*
X299561Y286146D01*
Y288645D01*
Y286979D02*
X297895Y285313D01*
X298728Y283647D02*
X297895Y282814D01*
Y281148D01*
X298728Y280315D01*
X302060D01*
X302893Y281148D01*
Y282814D01*
X302060Y283647D01*
X301227D01*
X300394Y282814D01*
Y280315D01*
X87275Y340521D02*
Y345519D01*
X89774D01*
X90607Y344686D01*
Y343020D01*
X89774Y342187D01*
X87275D01*
X88941D02*
X90607Y340521D01*
X92273Y344686D02*
X93106Y345519D01*
X94772D01*
X95605Y344686D01*
Y343853D01*
X94772Y343020D01*
X95605Y342187D01*
Y341354D01*
X94772Y340521D01*
X93106D01*
X92273Y341354D01*
Y342187D01*
X93106Y343020D01*
X92273Y343853D01*
Y344686D01*
X93106Y343020D02*
X94772D01*
X464342Y231099D02*
Y226101D01*
X461843D01*
X461010Y226934D01*
Y228600D01*
X461843Y229433D01*
X464342D01*
X462676D02*
X461010Y231099D01*
X459344D02*
X457678D01*
X458511D01*
Y226101D01*
X459344Y226934D01*
X873508Y17769D02*
Y27671D01*
X878459D01*
X880110Y26021D01*
Y22720D01*
X878459Y21070D01*
X873508D01*
X883411Y17769D02*
X886712D01*
X885061D01*
Y27671D01*
X883411Y26021D01*
X507561Y353880D02*
Y355546D01*
Y354714D01*
X503395D01*
X502562Y355546D01*
Y356380D01*
X503395Y357213D01*
X502562Y352214D02*
Y350548D01*
Y351381D01*
X507561D01*
X506728Y352214D01*
X532922Y217211D02*
Y222209D01*
X530423D01*
X529590Y221376D01*
Y218044D01*
X530423Y217211D01*
X532922D01*
X527924Y222209D02*
X526258D01*
X527091D01*
Y217211D01*
X527924Y218044D01*
X75824Y385206D02*
X74991Y386039D01*
X73325D01*
X72492Y385206D01*
Y381874D01*
X73325Y381041D01*
X74991D01*
X75824Y381874D01*
X77490Y381041D02*
X79156D01*
X78323D01*
Y386039D01*
X77490Y385206D01*
X81656D02*
X82489Y386039D01*
X84155D01*
X84988Y385206D01*
Y384373D01*
X84155Y383540D01*
X84988Y382707D01*
Y381874D01*
X84155Y381041D01*
X82489D01*
X81656Y381874D01*
Y382707D01*
X82489Y383540D01*
X81656Y384373D01*
Y385206D01*
X82489Y383540D02*
X84155D01*
X462676Y185796D02*
X463509Y186629D01*
Y188295D01*
X462676Y189128D01*
X459344D01*
X458511Y188295D01*
Y186629D01*
X459344Y185796D01*
X458511Y184130D02*
Y182463D01*
Y183297D01*
X463509D01*
X462676Y184130D01*
X463509Y179964D02*
Y176632D01*
X462676D01*
X459344Y179964D01*
X458511D01*
X115194Y339486D02*
X114361Y340319D01*
X112695D01*
X111862Y339486D01*
Y336154D01*
X112695Y335321D01*
X114361D01*
X115194Y336154D01*
X116860Y335321D02*
X118526D01*
X117694D01*
Y340319D01*
X116860Y339486D01*
X121026D02*
X121859Y340319D01*
X123525D01*
X124358Y339486D01*
Y338653D01*
X123525Y337820D01*
X122692D01*
X123525D01*
X124358Y336987D01*
Y336154D01*
X123525Y335321D01*
X121859D01*
X121026Y336154D01*
D16*
X705612Y85849D02*
Y78231D01*
Y82040D01*
X710690D01*
Y85849D01*
Y78231D01*
X717038D02*
X714499D01*
X713230Y79501D01*
Y82040D01*
X714499Y83309D01*
X717038D01*
X718308Y82040D01*
Y80770D01*
X713230D01*
X720847Y83309D02*
Y78231D01*
Y80770D01*
X722117Y82040D01*
X723386Y83309D01*
X724656D01*
X732273Y78231D02*
X729734D01*
X728465Y79501D01*
Y82040D01*
X729734Y83309D01*
X732273D01*
X733543Y82040D01*
Y80770D01*
X728465D01*
X743700Y85849D02*
Y78231D01*
X747508D01*
X748778Y79501D01*
Y80770D01*
Y82040D01*
X747508Y83309D01*
X743700D01*
X755126Y78231D02*
X752587D01*
X751317Y79501D01*
Y82040D01*
X752587Y83309D01*
X755126D01*
X756396Y82040D01*
Y80770D01*
X751317D01*
X771631Y85849D02*
Y78231D01*
X767822D01*
X766552Y79501D01*
Y82040D01*
X767822Y83309D01*
X771631D01*
X774170D02*
Y78231D01*
Y80770D01*
X775439Y82040D01*
X776709Y83309D01*
X777979D01*
X783057D02*
X785596D01*
X786866Y82040D01*
Y78231D01*
X783057D01*
X781787Y79501D01*
X783057Y80770D01*
X786866D01*
X791944Y75692D02*
X793214D01*
X794483Y76962D01*
Y83309D01*
X790675D01*
X789405Y82040D01*
Y79501D01*
X790675Y78231D01*
X794483D01*
X798292D02*
X800831D01*
X802101Y79501D01*
Y82040D01*
X800831Y83309D01*
X798292D01*
X797022Y82040D01*
Y79501D01*
X798292Y78231D01*
X804640D02*
Y83309D01*
X808449D01*
X809718Y82040D01*
Y78231D01*
X812258D02*
X816066D01*
X817336Y79501D01*
X816066Y80770D01*
X813527D01*
X812258Y82040D01*
X813527Y83309D01*
X817336D01*
X795782Y238391D02*
X798321D01*
X797052D01*
Y230773D01*
X795782D01*
X798321D01*
X803400D02*
Y237121D01*
Y234582D01*
X802130D01*
X804669D01*
X803400D01*
Y237121D01*
X804669Y238391D01*
X816095Y235851D02*
Y232043D01*
X817365Y230773D01*
X821174D01*
Y229503D01*
X819904Y228234D01*
X818635D01*
X821174Y230773D02*
Y235851D01*
X824983Y230773D02*
X827522D01*
X828791Y232043D01*
Y234582D01*
X827522Y235851D01*
X824983D01*
X823713Y234582D01*
Y232043D01*
X824983Y230773D01*
X831330Y235851D02*
Y232043D01*
X832600Y230773D01*
X836409D01*
Y235851D01*
X851644D02*
X847835D01*
X846566Y234582D01*
Y232043D01*
X847835Y230773D01*
X851644D01*
X855453Y235851D02*
X857992D01*
X859261Y234582D01*
Y230773D01*
X855453D01*
X854183Y232043D01*
X855453Y233312D01*
X859261D01*
X861801Y230773D02*
Y235851D01*
X865609D01*
X866879Y234582D01*
Y230773D01*
X795782Y214216D02*
X799591D01*
X800860Y215486D01*
X799591Y216755D01*
X797052D01*
X795782Y218025D01*
X797052Y219294D01*
X800860D01*
X807208Y214216D02*
X804669D01*
X803400Y215486D01*
Y218025D01*
X804669Y219294D01*
X807208D01*
X808478Y218025D01*
Y216755D01*
X803400D01*
X814826Y214216D02*
X812287D01*
X811017Y215486D01*
Y218025D01*
X812287Y219294D01*
X814826D01*
X816095Y218025D01*
Y216755D01*
X811017D01*
X827522Y220564D02*
Y219294D01*
X826252D01*
X828791D01*
X827522D01*
Y215486D01*
X828791Y214216D01*
X832600Y221834D02*
Y214216D01*
Y218025D01*
X833870Y219294D01*
X836409D01*
X837678Y218025D01*
Y214216D01*
X840218D02*
X842757D01*
X841487D01*
Y219294D01*
X840218D01*
X846566Y214216D02*
X850374D01*
X851644Y215486D01*
X850374Y216755D01*
X847835D01*
X846566Y218025D01*
X847835Y219294D01*
X851644D01*
X855453Y212946D02*
X856722Y214216D01*
Y215486D01*
X855453D01*
Y214216D01*
X856722D01*
X855453Y212946D01*
X854183Y211677D01*
X869418Y219294D02*
Y215486D01*
X870688Y214216D01*
X874497D01*
Y212946D01*
X873227Y211677D01*
X871957D01*
X874497Y214216D02*
Y219294D01*
X878305Y214216D02*
X880844D01*
X882114Y215486D01*
Y218025D01*
X880844Y219294D01*
X878305D01*
X877036Y218025D01*
Y215486D01*
X878305Y214216D01*
X884653Y219294D02*
Y215486D01*
X885923Y214216D01*
X889732D01*
Y219294D01*
X795782Y205277D02*
Y197659D01*
Y201468D01*
X797052Y202737D01*
X799591D01*
X800860Y201468D01*
Y197659D01*
X804669Y202737D02*
X807208D01*
X808478Y201468D01*
Y197659D01*
X804669D01*
X803400Y198929D01*
X804669Y200198D01*
X808478D01*
X811017Y202737D02*
X813556Y197659D01*
X816095Y202737D01*
X822443Y197659D02*
X819904D01*
X818635Y198929D01*
Y201468D01*
X819904Y202737D01*
X822443D01*
X823713Y201468D01*
Y200198D01*
X818635D01*
X835139Y202737D02*
X837679D01*
X838948Y201468D01*
Y197659D01*
X835139D01*
X833870Y198929D01*
X835139Y200198D01*
X838948D01*
X795782Y181102D02*
Y188720D01*
X799591D01*
X800860Y187450D01*
Y184911D01*
X799591Y183641D01*
X795782D01*
X803400Y188720D02*
Y183641D01*
Y186180D01*
X804669Y187450D01*
X805939Y188720D01*
X807208D01*
X812287Y183641D02*
X814826D01*
X816095Y184911D01*
Y187450D01*
X814826Y188720D01*
X812287D01*
X811017Y187450D01*
Y184911D01*
X812287Y183641D01*
X818635Y191259D02*
Y183641D01*
X822443D01*
X823713Y184911D01*
Y186180D01*
Y187450D01*
X822443Y188720D01*
X818635D01*
X826252Y183641D02*
X828791D01*
X827522D01*
Y191259D01*
X826252D01*
X836409Y183641D02*
X833870D01*
X832600Y184911D01*
Y187450D01*
X833870Y188720D01*
X836409D01*
X837678Y187450D01*
Y186180D01*
X832600D01*
X840218Y183641D02*
Y188720D01*
X841487D01*
X842757Y187450D01*
Y183641D01*
Y187450D01*
X844026Y188720D01*
X845296Y187450D01*
Y183641D01*
X104648Y129032D02*
X93222D01*
Y134745D01*
X95126Y136650D01*
X98935D01*
X100839Y134745D01*
Y129032D01*
X97030Y140458D02*
X102744D01*
X104648Y142363D01*
Y148076D01*
X97030D01*
X95126Y153789D02*
X97030D01*
Y151885D01*
Y155693D01*
Y153789D01*
X102744D01*
X104648Y155693D01*
X95126Y174737D02*
X97030D01*
Y172833D01*
Y176642D01*
Y174737D01*
X102744D01*
X104648Y176642D01*
X93222Y182355D02*
X104648D01*
X98935D01*
X97030Y184259D01*
Y188068D01*
X98935Y189972D01*
X104648D01*
X97030Y195686D02*
Y199494D01*
X98935Y201399D01*
X104648D01*
Y195686D01*
X102744Y193781D01*
X100839Y195686D01*
Y201399D01*
X95126Y207112D02*
X97030D01*
Y205207D01*
Y209016D01*
Y207112D01*
X102744D01*
X104648Y209016D01*
X93222Y226156D02*
X104648D01*
Y231869D01*
X102744Y233773D01*
X100839D01*
X98935D01*
X97030Y231869D01*
Y226156D01*
Y239486D02*
Y243295D01*
X98935Y245200D01*
X104648D01*
Y239486D01*
X102744Y237582D01*
X100839Y239486D01*
Y245200D01*
X97030Y256626D02*
Y250913D01*
X98935Y249008D01*
X102744D01*
X104648Y250913D01*
Y256626D01*
Y260435D02*
X93222D01*
X100839D02*
X97030Y266148D01*
X100839Y260435D02*
X104648Y266148D01*
X100839Y271861D02*
X91317D01*
X102744D02*
X104648D01*
D17*
X125689Y18695D02*
X120691D01*
Y21194D01*
X121524Y22027D01*
X123190D01*
X124023Y21194D01*
Y18695D01*
Y20361D02*
X125689Y22027D01*
X120691Y23693D02*
Y27025D01*
X121524D01*
X124856Y23693D01*
X125689D01*
X114696Y61336D02*
X115529Y62169D01*
Y63835D01*
X114696Y64668D01*
X111364D01*
X110531Y63835D01*
Y62169D01*
X111364Y61336D01*
X110531Y59670D02*
Y58003D01*
Y58836D01*
X115529D01*
X114696Y59670D01*
X110531Y52172D02*
Y55504D01*
X113863Y52172D01*
X114696D01*
X115529Y53005D01*
Y54671D01*
X114696Y55504D01*
Y84633D02*
X115529Y85466D01*
Y87132D01*
X114696Y87965D01*
X111364D01*
X110531Y87132D01*
Y85466D01*
X111364Y84633D01*
X110531Y82966D02*
Y81300D01*
Y82133D01*
X115529D01*
X114696Y82966D01*
X110531Y78801D02*
Y77135D01*
Y77968D01*
X115529D01*
X114696Y78801D01*
X61834Y19944D02*
X61001Y19111D01*
Y17445D01*
X61834Y16612D01*
X65166D01*
X65999Y17445D01*
Y19111D01*
X65166Y19944D01*
X65999Y21610D02*
Y23277D01*
Y22443D01*
X61001D01*
X61834Y21610D01*
Y25776D02*
X61001Y26609D01*
Y28275D01*
X61834Y29108D01*
X65166D01*
X65999Y28275D01*
Y26609D01*
X65166Y25776D01*
X61834D01*
M02*
