G04*
G04 #@! TF.GenerationSoftware,Altium Limited,Altium Designer,26.5.0 (11)*
G04*
G04 Layer_Physical_Order=1*
G04 Layer_Color=255*
G04 Board_Origin=0|0*
%FSLAX44Y44*%
%MOMM*%
G71*
G04*
G04 #@! TF.SameCoordinates,B537C3E7-E53A-4C24-A561-7565F1881969*
G04*
G04*
G04 #@! TF.FilePolarity,Positive*
G04*
G01*
G75*
%ADD14C,0.2540*%
%ADD15C,0.1524*%
%ADD16C,0.2032*%
%ADD20R,1.3500X0.9500*%
%ADD21R,1.9500X1.0500*%
%ADD22R,1.5000X0.9000*%
%ADD23R,1.0500X0.6500*%
%ADD24R,0.9500X1.3500*%
%ADD25R,0.9000X1.5000*%
%ADD26R,0.9000X0.9000*%
%ADD27R,1.0621X1.0637*%
%ADD28R,0.8000X1.0000*%
%ADD29R,1.0000X0.8000*%
%ADD30R,1.0637X1.0621*%
%ADD31R,1.5000X0.9000*%
%ADD32R,1.6800X1.7000*%
%ADD35C,1.6500*%
%ADD36C,2.1300*%
%ADD41C,1.9500*%
%ADD43C,3.2000*%
%ADD44C,1.4000*%
%ADD47R,1.9500X1.9500*%
%ADD48C,1.0500*%
%ADD49C,5.0000*%
%ADD50R,0.2500X1.6000*%
%ADD51R,1.6000X2.2000*%
%ADD52C,0.1727*%
%ADD53C,1.5240*%
%ADD54C,0.3810*%
%ADD55C,0.1016*%
%ADD56C,0.4000*%
%ADD57C,1.7780*%
%ADD58O,1.0000X2.6000*%
%ADD59C,0.9000*%
%ADD60C,0.7000*%
%ADD61C,1.9050*%
%ADD62R,1.7780X1.7780*%
%ADD63C,0.6096*%
%ADD64C,0.9906*%
G36*
X925888Y399487D02*
X929683Y398470D01*
X933313Y396967D01*
X936715Y395002D01*
X939832Y392611D01*
X942610Y389832D01*
X945002Y386715D01*
X946967Y383313D01*
X948470Y379683D01*
X949487Y375888D01*
X950000Y371992D01*
Y370028D01*
Y29972D01*
Y28008D01*
X949487Y24112D01*
X948470Y20317D01*
X946967Y16687D01*
X945002Y13285D01*
X942610Y10168D01*
X939832Y7390D01*
X936715Y4998D01*
X933313Y3033D01*
X929683Y1530D01*
X925888Y513D01*
X921992Y0D01*
X28008D01*
X24112Y513D01*
X20317Y1530D01*
X16687Y3033D01*
X13285Y4998D01*
X10168Y7390D01*
X7390Y10168D01*
X4998Y13285D01*
X3033Y16687D01*
X1530Y20317D01*
X513Y24112D01*
X0Y28008D01*
Y29972D01*
Y370028D01*
Y371992D01*
X513Y375888D01*
X1530Y379683D01*
X3033Y383313D01*
X4998Y386715D01*
X7390Y389832D01*
X10168Y392611D01*
X13285Y395002D01*
X16687Y396967D01*
X20317Y398470D01*
X24112Y399487D01*
X28008Y400000D01*
X921992D01*
X925888Y399487D01*
D02*
G37*
%LPC*%
G36*
X110396Y389706D02*
X98364D01*
Y379674D01*
X110396D01*
Y389706D01*
D02*
G37*
G36*
X838196Y389816D02*
X821164D01*
Y378784D01*
X838196D01*
Y389816D01*
D02*
G37*
G36*
X464358Y385064D02*
X462742D01*
X461248Y384445D01*
X460105Y383302D01*
X459486Y381808D01*
Y380192D01*
X460105Y378698D01*
X461248Y377555D01*
X462742Y376936D01*
X464358D01*
X465852Y377555D01*
X466995Y378698D01*
X467614Y380192D01*
Y381808D01*
X466995Y383302D01*
X465852Y384445D01*
X464358Y385064D01*
D02*
G37*
G36*
X443991Y384999D02*
X442374D01*
X440881Y384380D01*
X439737Y383237D01*
X439119Y381743D01*
Y380126D01*
X439737Y378633D01*
X440881Y377489D01*
X442374Y376871D01*
X443991D01*
X445485Y377489D01*
X446628Y378633D01*
X447247Y380126D01*
Y381743D01*
X446628Y383237D01*
X445485Y384380D01*
X443991Y384999D01*
D02*
G37*
G36*
X86506Y376486D02*
X70974D01*
Y364954D01*
X86506D01*
Y368648D01*
X98364D01*
Y364674D01*
X102308D01*
Y359706D01*
X98364D01*
Y356402D01*
X96251D01*
X96155Y356632D01*
X95012Y357775D01*
X93518Y358394D01*
X91902D01*
X90408Y357775D01*
X89265Y356632D01*
X88646Y355138D01*
Y353522D01*
X89265Y352028D01*
X90408Y350885D01*
X91902Y350266D01*
X93518D01*
X95012Y350885D01*
X96155Y352028D01*
X96251Y352258D01*
X98364D01*
Y349674D01*
X110396D01*
Y359706D01*
X106452D01*
Y364674D01*
X110396D01*
Y374706D01*
X98364D01*
Y372792D01*
X86506D01*
Y376486D01*
D02*
G37*
G36*
X713736Y389816D02*
X696704D01*
Y378784D01*
X713736D01*
Y381209D01*
X745551D01*
X772164Y354596D01*
Y346784D01*
X789196D01*
Y357816D01*
X775536D01*
X748164Y385188D01*
X747408Y385693D01*
X746516Y385871D01*
X713736D01*
Y389816D01*
D02*
G37*
G36*
X590546D02*
X573514D01*
Y378784D01*
X586790D01*
X591302Y374272D01*
X592058Y373767D01*
X592950Y373589D01*
X626415D01*
X646122Y353882D01*
X646878Y353377D01*
X647704Y353212D01*
Y346784D01*
X664736D01*
Y357816D01*
X653215D01*
X652990Y357861D01*
X648735D01*
X629028Y377568D01*
X628272Y378073D01*
X627380Y378251D01*
X593915D01*
X590546Y381620D01*
Y389816D01*
D02*
G37*
G36*
X140396Y374706D02*
X128364D01*
Y364674D01*
X137100D01*
X156052Y345722D01*
X156808Y345217D01*
X157700Y345039D01*
X173380D01*
X174272Y345217D01*
X175028Y345722D01*
X180781Y351475D01*
X195644D01*
X196536Y351652D01*
X197292Y352158D01*
X202393Y357259D01*
X203409Y356838D01*
Y351940D01*
X202168Y351425D01*
X201025Y350282D01*
X200406Y348788D01*
Y347172D01*
X201025Y345678D01*
X202168Y344535D01*
X203662Y343916D01*
X205278D01*
X206772Y344535D01*
X207915Y345678D01*
X208534Y347172D01*
Y348788D01*
X208030Y350006D01*
X208071Y350212D01*
Y358163D01*
X212671D01*
Y370817D01*
X200002D01*
Y361460D01*
X194679Y356137D01*
X179816D01*
X178924Y355959D01*
X178168Y355454D01*
X172415Y349701D01*
X158665D01*
X140396Y367970D01*
Y374706D01*
D02*
G37*
G36*
X701736Y357856D02*
X701536Y357816D01*
X696704D01*
Y346784D01*
X702540D01*
Y341042D01*
X702540Y341042D01*
X702698Y340249D01*
X703147Y339577D01*
X703551Y339173D01*
X703326Y338628D01*
Y337012D01*
X703945Y335518D01*
X705088Y334375D01*
X706582Y333756D01*
X708198D01*
X709692Y334375D01*
X710835Y335518D01*
X711454Y337012D01*
Y338628D01*
X710835Y340122D01*
X709692Y341265D01*
X708198Y341884D01*
X706700D01*
X706684Y341900D01*
Y346784D01*
X713736D01*
Y357816D01*
X701936D01*
X701736Y357856D01*
D02*
G37*
G36*
X256540Y396031D02*
X217766D01*
X216874Y395853D01*
X216118Y395348D01*
X209367Y388597D01*
X200002D01*
Y379240D01*
X183773Y363011D01*
X173602D01*
X172710Y362833D01*
X171954Y362328D01*
X167533Y357907D01*
X167359D01*
X141658Y383608D01*
X140902Y384113D01*
X140396Y384214D01*
Y389706D01*
X128364D01*
Y379674D01*
X137885D01*
X138110Y379629D01*
X139045D01*
X164746Y353928D01*
X165502Y353423D01*
X166394Y353245D01*
X168498D01*
X169390Y353423D01*
X170146Y353928D01*
X174567Y358349D01*
X184738D01*
X185630Y358527D01*
X186386Y359032D01*
X203298Y375943D01*
X212671D01*
Y385308D01*
X215573Y388211D01*
X216589Y387790D01*
Y375943D01*
X229258D01*
Y379507D01*
X230274Y379928D01*
X230929Y379274D01*
X231384Y379085D01*
Y367938D01*
X231378Y367935D01*
X230274Y366832D01*
X230067Y366843D01*
X229258Y367090D01*
Y370817D01*
X216589D01*
Y358163D01*
X229258D01*
Y361890D01*
X230067Y362137D01*
X230274Y362148D01*
X231378Y361045D01*
X232872Y360426D01*
X234488D01*
X235982Y361045D01*
X237125Y362188D01*
X237744Y363682D01*
Y365298D01*
X237125Y366792D01*
X235982Y367935D01*
X235527Y368124D01*
Y379271D01*
X235533Y379274D01*
X236676Y380417D01*
X237295Y381911D01*
Y383527D01*
X236676Y385021D01*
X235533Y386164D01*
X234039Y386783D01*
X232423D01*
X230929Y386164D01*
X230274Y385510D01*
X229258Y385931D01*
Y388597D01*
X217396D01*
X216975Y389613D01*
X218732Y391369D01*
X255575D01*
X292055Y354889D01*
Y331449D01*
X291975Y331427D01*
X291039Y331300D01*
X289292Y333047D01*
X287034Y334351D01*
X284514Y335026D01*
X281906D01*
X279386Y334351D01*
X277128Y333047D01*
X275283Y331202D01*
X273979Y328944D01*
X273304Y326424D01*
Y323816D01*
X273979Y321296D01*
X274752Y319958D01*
X265691Y310897D01*
X255098D01*
X254206Y310719D01*
X253450Y310214D01*
X239812Y296576D01*
X239307Y295820D01*
X239248Y295526D01*
X232714D01*
Y278494D01*
X242369D01*
X242790Y277478D01*
X225453Y260141D01*
X88595D01*
X75547Y273189D01*
Y290457D01*
X75369Y291349D01*
X74864Y292105D01*
X64991Y301978D01*
Y303874D01*
X68926D01*
Y305809D01*
X85113D01*
Y304262D01*
X97767D01*
Y308265D01*
X110344D01*
Y305504D01*
X125876D01*
Y317036D01*
X110344D01*
Y312927D01*
X97767D01*
Y316931D01*
X85113D01*
Y310471D01*
X68926D01*
Y312406D01*
X56394D01*
Y310471D01*
X27426D01*
Y312406D01*
X14894D01*
Y303874D01*
X27426D01*
Y305809D01*
X56394D01*
Y303874D01*
X60329D01*
Y301013D01*
X60507Y300121D01*
X61012Y299365D01*
X68828Y291548D01*
X68439Y290610D01*
X10930D01*
X10152Y290288D01*
X9830Y289510D01*
Y109510D01*
X10152Y108732D01*
X10930Y108410D01*
X70930D01*
X71708Y108732D01*
X72030Y109510D01*
Y268787D01*
X72968Y269175D01*
X85982Y256162D01*
X86738Y255657D01*
X87630Y255479D01*
X192778D01*
X193274Y254463D01*
X192786Y253284D01*
Y251668D01*
X193405Y250174D01*
X194548Y249031D01*
X196042Y248412D01*
X197658D01*
X199152Y249031D01*
X200295Y250174D01*
X200914Y251668D01*
Y253284D01*
X200426Y254463D01*
X200922Y255479D01*
X226418D01*
X227310Y255657D01*
X228066Y256162D01*
X249348Y277444D01*
X249853Y278200D01*
X249912Y278494D01*
X256446D01*
Y295526D01*
X246791D01*
X246370Y296542D01*
X256063Y306235D01*
X266656D01*
X267548Y306413D01*
X268304Y306918D01*
X278048Y316662D01*
X279386Y315889D01*
X281906Y315214D01*
X284514D01*
X287034Y315889D01*
X289292Y317193D01*
X291039Y318940D01*
X291975Y318813D01*
X292055Y318792D01*
Y260181D01*
X272885Y241011D01*
X271946Y241400D01*
Y249476D01*
X254914D01*
Y238444D01*
X268990D01*
X269379Y237505D01*
X268650Y236776D01*
X254914D01*
Y225744D01*
X271946D01*
Y233480D01*
X296485Y258019D01*
X386473D01*
X387588Y256905D01*
X389082Y256286D01*
X390698D01*
X392192Y256905D01*
X393335Y258048D01*
X393954Y259542D01*
Y261158D01*
X393335Y262652D01*
X392192Y263795D01*
X390698Y264414D01*
X389082D01*
X387588Y263795D01*
X386473Y262681D01*
X296717D01*
Y355854D01*
X296539Y356746D01*
X296034Y357502D01*
X258188Y395348D01*
X257432Y395853D01*
X256540Y396031D01*
D02*
G37*
G36*
X93518Y341884D02*
X91902D01*
X90408Y341265D01*
X89265Y340122D01*
X88646Y338628D01*
Y337012D01*
X89265Y335518D01*
X90248Y334534D01*
X90080Y333780D01*
X89937Y333518D01*
X85113D01*
Y320849D01*
X97767D01*
Y333518D01*
X95483D01*
X95339Y333780D01*
X95172Y334534D01*
X96155Y335518D01*
X96774Y337012D01*
Y338628D01*
X96155Y340122D01*
X95012Y341265D01*
X93518Y341884D01*
D02*
G37*
G36*
X590546Y357816D02*
X573514D01*
Y346784D01*
X581196D01*
X585311Y342669D01*
X585216Y342438D01*
Y340822D01*
X585835Y339328D01*
X586978Y338185D01*
X588032Y337748D01*
X588144Y337187D01*
X588593Y336515D01*
X600063Y325045D01*
X600063Y325045D01*
X600735Y324596D01*
X601528Y324438D01*
X601528Y324438D01*
X603104D01*
Y320744D01*
X618636D01*
Y324438D01*
X627234D01*
Y320744D01*
X642766D01*
Y332276D01*
X627234D01*
Y328582D01*
X618636D01*
Y332276D01*
X603104D01*
Y329301D01*
X602088Y328880D01*
X592183Y338785D01*
X592725Y339328D01*
X593344Y340822D01*
Y342438D01*
X592725Y343932D01*
X591582Y345075D01*
X590088Y345694D01*
X589032D01*
X588977Y345768D01*
X589491Y346784D01*
X590546D01*
Y357816D01*
D02*
G37*
G36*
X764686Y332276D02*
X749154D01*
Y323674D01*
X745618Y320138D01*
X743103D01*
X742810Y320848D01*
X741666Y321991D01*
X740173Y322610D01*
X738556D01*
X738029Y322391D01*
X736746Y323674D01*
Y332276D01*
X721214D01*
Y320744D01*
X733816D01*
X735300Y319260D01*
Y317737D01*
X735919Y316244D01*
X737062Y315100D01*
X738556Y314482D01*
X740173D01*
X741666Y315100D01*
X742561Y315994D01*
X746476D01*
X746476Y315994D01*
X747269Y316152D01*
X747941Y316601D01*
X752084Y320744D01*
X764686D01*
Y332276D01*
D02*
G37*
G36*
X838196Y357816D02*
X821164D01*
Y346784D01*
X827608D01*
Y334331D01*
X827608Y334331D01*
X827766Y333538D01*
X828215Y332866D01*
X830601Y330480D01*
X830506Y330250D01*
Y328633D01*
X831124Y327140D01*
X832267Y325996D01*
X833761Y325378D01*
X835378D01*
X836386Y325795D01*
X837256Y324925D01*
X837256Y324925D01*
X837928Y324476D01*
X838721Y324318D01*
X838721Y324318D01*
X846944D01*
Y320744D01*
X862476D01*
Y324438D01*
X873614D01*
Y320744D01*
X889146D01*
Y324438D01*
X897421D01*
X898906Y322953D01*
Y321772D01*
X899525Y320278D01*
X900668Y319135D01*
X902162Y318516D01*
X903778D01*
X905272Y319135D01*
X906415Y320278D01*
X907034Y321772D01*
Y323388D01*
X906415Y324882D01*
X905272Y326025D01*
X903778Y326644D01*
X902162D01*
X901393Y326326D01*
X899744Y327975D01*
X899072Y328424D01*
X898279Y328582D01*
X898279Y328582D01*
X889146D01*
Y332276D01*
X873614D01*
Y328582D01*
X862476D01*
Y332276D01*
X846944D01*
Y328462D01*
X839579D01*
X838633Y329407D01*
Y330250D01*
X838015Y331744D01*
X836871Y332887D01*
X835378Y333506D01*
X833761D01*
X833531Y333410D01*
X831752Y335189D01*
Y346784D01*
X838196D01*
Y357816D01*
D02*
G37*
G36*
X369316Y335026D02*
X349504D01*
Y315214D01*
X369316D01*
Y335026D01*
D02*
G37*
G36*
X137968Y343154D02*
X136352D01*
X134858Y342535D01*
X133715Y341392D01*
X133096Y339898D01*
Y338282D01*
X133715Y336788D01*
X134858Y335645D01*
X136352Y335026D01*
X137968D01*
X139462Y335645D01*
X140577Y336759D01*
X242875D01*
X249352Y330282D01*
X248579Y328944D01*
X247904Y326424D01*
Y323816D01*
X248579Y321296D01*
X249883Y319038D01*
X251728Y317193D01*
X253986Y315889D01*
X256506Y315214D01*
X259114D01*
X261634Y315889D01*
X263892Y317193D01*
X265737Y319038D01*
X267041Y321296D01*
X267716Y323816D01*
Y326424D01*
X267041Y328944D01*
X265737Y331202D01*
X263892Y333047D01*
X261634Y334351D01*
X259114Y335026D01*
X256506D01*
X253986Y334351D01*
X252648Y333578D01*
X245488Y340738D01*
X244732Y341243D01*
X243840Y341421D01*
X140577D01*
X139462Y342535D01*
X137968Y343154D01*
D02*
G37*
G36*
X233714Y335026D02*
X231106D01*
X228586Y334351D01*
X226328Y333047D01*
X224483Y331202D01*
X223179Y328944D01*
X222504Y326424D01*
Y323816D01*
X223179Y321296D01*
X224483Y319038D01*
X226328Y317193D01*
X228586Y315889D01*
X231106Y315214D01*
X233714D01*
X236234Y315889D01*
X238492Y317193D01*
X240337Y319038D01*
X241641Y321296D01*
X242316Y323816D01*
Y326424D01*
X241641Y328944D01*
X240337Y331202D01*
X238492Y333047D01*
X236234Y334351D01*
X233714Y335026D01*
D02*
G37*
G36*
X182914D02*
X180306D01*
X177786Y334351D01*
X175528Y333047D01*
X173683Y331202D01*
X172379Y328944D01*
X171704Y326424D01*
Y323816D01*
X172379Y321296D01*
X173683Y319038D01*
X175528Y317193D01*
X177786Y315889D01*
X180306Y315214D01*
X182914D01*
X185434Y315889D01*
X187692Y317193D01*
X189537Y319038D01*
X190841Y321296D01*
X191516Y323816D01*
Y326424D01*
X190841Y328944D01*
X189537Y331202D01*
X187692Y333047D01*
X185434Y334351D01*
X182914Y335026D01*
D02*
G37*
G36*
X157514D02*
X154906D01*
X152386Y334351D01*
X150128Y333047D01*
X148283Y331202D01*
X146979Y328944D01*
X146304Y326424D01*
Y323816D01*
X146979Y321296D01*
X148283Y319038D01*
X150128Y317193D01*
X152386Y315889D01*
X154906Y315214D01*
X157514D01*
X160034Y315889D01*
X162292Y317193D01*
X164137Y319038D01*
X165441Y321296D01*
X166116Y323816D01*
Y326424D01*
X165441Y328944D01*
X164137Y331202D01*
X162292Y333047D01*
X160034Y334351D01*
X157514Y335026D01*
D02*
G37*
G36*
X471019Y316684D02*
X469223D01*
X467563Y315997D01*
X466475Y314909D01*
X465872Y314802D01*
X465268Y314909D01*
X464180Y315997D01*
X462520Y316684D01*
X460724D01*
X459064Y315997D01*
X457794Y314727D01*
X457106Y313067D01*
Y311270D01*
X457794Y309610D01*
X458901Y308503D01*
X458326Y307642D01*
X458220Y307685D01*
X456424D01*
X454764Y306998D01*
X453746Y305980D01*
X453122Y305822D01*
X452498Y305980D01*
X451480Y306998D01*
X449820Y307685D01*
X448024D01*
X447919Y307642D01*
X447343Y308503D01*
X448450Y309610D01*
X449138Y311270D01*
Y313067D01*
X448450Y314727D01*
X447180Y315997D01*
X445520Y316684D01*
X443724D01*
X442064Y315997D01*
X440974Y314907D01*
X440371Y314801D01*
X439768Y314907D01*
X438679Y315997D01*
X437019Y316684D01*
X435222D01*
X433562Y315997D01*
X432474Y314909D01*
X431871Y314802D01*
X431268Y314909D01*
X430180Y315997D01*
X428520Y316684D01*
X426723D01*
X425064Y315997D01*
X423793Y314727D01*
X423106Y313067D01*
Y311270D01*
X423793Y309610D01*
X425064Y308340D01*
X426723Y307652D01*
X428520D01*
X430180Y308340D01*
X431268Y309428D01*
X431871Y309536D01*
X432474Y309428D01*
X433562Y308340D01*
X435222Y307652D01*
X436982D01*
X437080Y307547D01*
X437531Y306765D01*
X436493Y305727D01*
X435806Y304068D01*
Y302271D01*
X436493Y300611D01*
X437764Y299341D01*
X438657Y298971D01*
Y296173D01*
X437884Y295586D01*
X437335Y295586D01*
X433352D01*
Y277554D01*
X437335D01*
X437884Y277554D01*
X438841Y277412D01*
Y272034D01*
X438612D01*
X437118Y271415D01*
X435975Y270272D01*
X435356Y268778D01*
Y267162D01*
X435975Y265668D01*
X437118Y264525D01*
X438612Y263906D01*
X440228D01*
X441722Y264525D01*
X442865Y265668D01*
X443484Y267162D01*
Y268778D01*
X442865Y270272D01*
X442387Y270750D01*
X442467Y271149D01*
Y277232D01*
X443349Y277554D01*
X443899Y277554D01*
X447332D01*
X447881Y277554D01*
X448768Y277554D01*
X449487Y276836D01*
Y272485D01*
X449356Y272431D01*
X448213Y271288D01*
X447594Y269794D01*
Y268178D01*
X448213Y266684D01*
X449356Y265541D01*
X450850Y264922D01*
X452467D01*
X453960Y265541D01*
X455104Y266684D01*
X455722Y268178D01*
Y269794D01*
X455104Y271288D01*
X453960Y272431D01*
X452786Y272918D01*
Y276770D01*
X453346Y277554D01*
X453897Y277554D01*
X457329D01*
X457878Y277554D01*
X458540Y276812D01*
Y263548D01*
X454683D01*
X454683Y250879D01*
X453799Y250561D01*
X368830D01*
X367938Y250384D01*
X367182Y249879D01*
X352519Y235217D01*
X351581Y235606D01*
Y240423D01*
X352695Y241538D01*
X353314Y243032D01*
Y244648D01*
X352695Y246142D01*
X351552Y247285D01*
X350058Y247904D01*
X348442D01*
X346948Y247285D01*
X345805Y246142D01*
X345186Y244648D01*
Y243032D01*
X345805Y241538D01*
X346919Y240423D01*
Y234646D01*
X333165Y220891D01*
X271946D01*
Y224076D01*
X254914D01*
Y213044D01*
X269380D01*
X269769Y212105D01*
X269085Y211421D01*
X266660D01*
X266435Y211376D01*
X254914D01*
Y208191D01*
X246500D01*
X245608Y208013D01*
X244852Y207508D01*
X208582Y171238D01*
X208077Y170482D01*
X207900Y169590D01*
Y162465D01*
X207248Y162195D01*
X206105Y161052D01*
X205486Y159558D01*
Y157942D01*
X206105Y156448D01*
X207248Y155305D01*
X208742Y154686D01*
X210358D01*
X211852Y155305D01*
X212995Y156448D01*
X213614Y157942D01*
Y159558D01*
X212995Y161052D01*
X212561Y161486D01*
Y168625D01*
X247465Y203529D01*
X254914D01*
Y200344D01*
X268990D01*
X269379Y199405D01*
X268650Y198676D01*
X254914D01*
Y195491D01*
X245834D01*
X244942Y195313D01*
X244186Y194808D01*
X225682Y176304D01*
X225177Y175548D01*
X224999Y174656D01*
Y162317D01*
X223885Y161203D01*
X223266Y159709D01*
Y158092D01*
X223885Y156599D01*
X225028Y155455D01*
X226522Y154837D01*
X228138D01*
X229632Y155455D01*
X230775Y156599D01*
X231394Y158092D01*
Y159709D01*
X230775Y161203D01*
X229661Y162317D01*
Y173691D01*
X246799Y190829D01*
X254914D01*
Y187644D01*
X268990D01*
X269379Y186705D01*
X268650Y185976D01*
X254914D01*
Y182671D01*
X251067D01*
X249952Y183785D01*
X248458Y184404D01*
X246842D01*
X245348Y183785D01*
X244205Y182642D01*
X243586Y181148D01*
Y179532D01*
X244205Y178038D01*
X245348Y176895D01*
X246842Y176276D01*
X248458D01*
X249952Y176895D01*
X251067Y178009D01*
X254914D01*
Y174944D01*
X269380D01*
X269769Y174005D01*
X269085Y173321D01*
X266660D01*
X266435Y173276D01*
X254914D01*
Y162244D01*
X271946D01*
Y169590D01*
X304361Y202005D01*
X340022D01*
X340914Y202183D01*
X341670Y202688D01*
X352701Y213719D01*
X382976D01*
X383397Y212703D01*
X256337Y85643D01*
X236423D01*
X227861Y94205D01*
Y103494D01*
X231046D01*
Y120526D01*
X220014D01*
Y103494D01*
X223199D01*
Y93240D01*
X223377Y92348D01*
X223882Y91592D01*
X233810Y81664D01*
X234566Y81159D01*
X235458Y80981D01*
X255351D01*
X255895Y79965D01*
X255785Y79801D01*
X192847D01*
X170170Y102478D01*
X170591Y103494D01*
X180246D01*
Y120526D01*
X169214D01*
Y104974D01*
X168316Y104587D01*
X167591Y105170D01*
Y108780D01*
X167546Y109005D01*
Y120526D01*
X156514D01*
Y106450D01*
X155575Y106061D01*
X154846Y106790D01*
Y120526D01*
X143814D01*
Y103494D01*
X151550D01*
X188069Y66975D01*
X188825Y66469D01*
X189717Y66292D01*
X273093D01*
X273985Y66469D01*
X274741Y66975D01*
X293872Y86106D01*
X295448D01*
X296942Y86725D01*
X298085Y87868D01*
X298704Y89362D01*
Y90978D01*
X298085Y92472D01*
X296942Y93615D01*
X295448Y94234D01*
X293832D01*
X292338Y93615D01*
X291195Y92472D01*
X290576Y90978D01*
Y89402D01*
X272127Y70953D01*
X190683D01*
X159081Y102555D01*
X159470Y103494D01*
X163048D01*
X163107Y103200D01*
X163612Y102444D01*
X190234Y75822D01*
X190990Y75317D01*
X191882Y75139D01*
X257617D01*
X258509Y75317D01*
X259265Y75822D01*
X328343Y144900D01*
X329204Y144324D01*
X328676Y143048D01*
Y141432D01*
X329295Y139938D01*
X330409Y138823D01*
Y91440D01*
X330587Y90548D01*
X331092Y89792D01*
X397477Y23407D01*
X396577Y21849D01*
X395859Y19168D01*
Y16392D01*
X396577Y13711D01*
X397965Y11308D01*
X399928Y9345D01*
X402331Y7957D01*
X405012Y7239D01*
X407788D01*
X410469Y7957D01*
X412872Y9345D01*
X414835Y11308D01*
X416223Y13711D01*
X416941Y16392D01*
Y19168D01*
X416223Y21849D01*
X414835Y24252D01*
X412872Y26215D01*
X410469Y27603D01*
X407788Y28321D01*
X405012D01*
X402331Y27603D01*
X400773Y26703D01*
X335071Y92405D01*
Y138823D01*
X336185Y139938D01*
X336804Y141432D01*
Y143048D01*
X336185Y144542D01*
X335042Y145685D01*
X333548Y146304D01*
X331932D01*
X330656Y145776D01*
X330080Y146637D01*
X389393Y205949D01*
X401246D01*
X401518Y204933D01*
X399928Y204015D01*
X397965Y202052D01*
X396577Y199649D01*
X395859Y196968D01*
Y194192D01*
X396577Y191511D01*
X397965Y189108D01*
X399928Y187145D01*
X402331Y185757D01*
X405012Y185039D01*
X407788D01*
X410469Y185757D01*
X412872Y187145D01*
X414835Y189108D01*
X416223Y191511D01*
X416397Y192162D01*
X435464D01*
Y184734D01*
X450996D01*
Y196266D01*
X439696D01*
X439496Y196306D01*
X439496Y196306D01*
X416941D01*
Y196968D01*
X416223Y199649D01*
X414835Y202052D01*
X412872Y204015D01*
X411282Y204933D01*
X411554Y205949D01*
X564184D01*
X582806Y187328D01*
X583562Y186823D01*
X584454Y186645D01*
X754763D01*
X755634Y186296D01*
X755634Y185629D01*
Y173764D01*
X777166D01*
Y185973D01*
X777166Y186296D01*
X777285Y187263D01*
X777382Y187328D01*
X847754Y257699D01*
X903634D01*
Y253764D01*
X925166D01*
Y266296D01*
X903634D01*
Y262361D01*
X846788D01*
X845896Y262183D01*
X845140Y261678D01*
X778182Y194720D01*
X777166Y195141D01*
Y205302D01*
X777166Y205664D01*
X778042Y206435D01*
X778275Y206424D01*
X778939Y205760D01*
X781133Y204851D01*
X783507D01*
X785701Y205760D01*
X787380Y207439D01*
X788289Y209633D01*
Y212007D01*
X787380Y214201D01*
X785701Y215880D01*
X783507Y216789D01*
X781133D01*
X778939Y215880D01*
X778182Y215123D01*
X777166Y215544D01*
Y226296D01*
X755634D01*
Y218381D01*
X729734D01*
X729346Y219319D01*
X737566Y227539D01*
X775970D01*
X776862Y227717D01*
X777618Y228222D01*
X783968Y234572D01*
X784473Y235328D01*
X784651Y236220D01*
Y248610D01*
X784473Y249502D01*
X783968Y250258D01*
X777166Y257060D01*
Y266296D01*
X755634D01*
Y253764D01*
X773870D01*
X779989Y247645D01*
Y237185D01*
X778105Y235301D01*
X777166Y235690D01*
Y246296D01*
X755634D01*
Y242361D01*
X695960D01*
X695068Y242183D01*
X694312Y241678D01*
X678485Y225851D01*
X527367D01*
Y235782D01*
X549681D01*
X550148Y235315D01*
X551642Y234696D01*
X553258D01*
X554752Y235315D01*
X555895Y236458D01*
X556514Y237952D01*
Y239568D01*
X555895Y241062D01*
X554752Y242205D01*
X553258Y242824D01*
X551642D01*
X550148Y242205D01*
X549681Y241738D01*
X527367D01*
Y244786D01*
X508535D01*
Y225851D01*
X351073D01*
X350685Y226789D01*
X369795Y245900D01*
X525091D01*
X525983Y246077D01*
X526739Y246583D01*
X557855Y277699D01*
X633227D01*
X633683Y277244D01*
X634439Y276739D01*
X635331Y276561D01*
X639749D01*
X640641Y276739D01*
X641397Y277244D01*
X641853Y277699D01*
X755634D01*
Y273764D01*
X777166D01*
Y286296D01*
X755634D01*
Y282361D01*
X640887D01*
X639995Y282183D01*
X639239Y281678D01*
X638784Y281223D01*
X636296D01*
X635841Y281678D01*
X635085Y282183D01*
X634193Y282361D01*
X556890D01*
X555998Y282183D01*
X555242Y281678D01*
X524125Y250561D01*
X468221D01*
X467337Y250879D01*
X467337Y251577D01*
Y263548D01*
X462683D01*
Y275999D01*
X463699Y276750D01*
X463926Y276680D01*
X463975Y276429D01*
X464369Y275841D01*
X468554Y271656D01*
X467979Y271080D01*
X467360Y269587D01*
Y267970D01*
X467979Y266476D01*
X469122Y265333D01*
X470616Y264714D01*
X472232D01*
X473726Y265333D01*
X474869Y266476D01*
X475488Y267970D01*
Y269587D01*
X474869Y271080D01*
X473726Y272224D01*
X472239Y272839D01*
X472224Y272917D01*
X471831Y273505D01*
X471296Y274041D01*
X471684Y274980D01*
X508535D01*
Y261554D01*
X527367D01*
Y280586D01*
X508535D01*
Y278605D01*
X477872D01*
Y295586D01*
X473340D01*
Y295586D01*
X472875D01*
Y295586D01*
X468343D01*
X467528Y296071D01*
Y298988D01*
X468379Y299341D01*
X469649Y300611D01*
X470337Y302271D01*
Y304068D01*
X469649Y305727D01*
X468542Y306835D01*
X469117Y307696D01*
X469223Y307652D01*
X471019D01*
X472679Y308340D01*
X473949Y309610D01*
X474637Y311270D01*
Y313067D01*
X473949Y314727D01*
X472679Y315997D01*
X471019Y316684D01*
D02*
G37*
G36*
X541546Y357816D02*
X524514D01*
Y346784D01*
X532598D01*
Y327048D01*
X528343D01*
Y314379D01*
X540997D01*
Y327048D01*
X536742D01*
Y346784D01*
X541546D01*
Y357816D01*
D02*
G37*
G36*
X491466Y325036D02*
X488974D01*
X486671Y324082D01*
X484908Y322319D01*
X483954Y320016D01*
Y317524D01*
X484908Y315221D01*
X486671Y313458D01*
X488974Y312504D01*
X491466D01*
X493769Y313458D01*
X495532Y315221D01*
X496486Y317524D01*
Y320016D01*
X495532Y322319D01*
X493769Y324082D01*
X491466Y325036D01*
D02*
G37*
G36*
X417268D02*
X414775D01*
X412472Y324082D01*
X410709Y322319D01*
X409756Y320016D01*
Y317524D01*
X410709Y315221D01*
X412472Y313458D01*
X414775Y312504D01*
X417268D01*
X419571Y313458D01*
X421334Y315221D01*
X422287Y317524D01*
Y320016D01*
X421334Y322319D01*
X419571Y324082D01*
X417268Y325036D01*
D02*
G37*
G36*
X708198Y320294D02*
X706582D01*
X705088Y319675D01*
X703945Y318532D01*
X703326Y317038D01*
Y315422D01*
X703945Y313928D01*
X705088Y312785D01*
X706582Y312166D01*
X708198D01*
X709692Y312785D01*
X710835Y313928D01*
X711454Y315422D01*
Y317038D01*
X710835Y318532D01*
X709692Y319675D01*
X708198Y320294D01*
D02*
G37*
G36*
X557068Y306324D02*
X555452D01*
X553958Y305705D01*
X552815Y304562D01*
X552196Y303068D01*
Y301452D01*
X552815Y299958D01*
X553958Y298815D01*
X555452Y298196D01*
X557068D01*
X558562Y298815D01*
X559705Y299958D01*
X560324Y301452D01*
Y303068D01*
X559705Y304562D01*
X558562Y305705D01*
X557068Y306324D01*
D02*
G37*
G36*
X925166Y306296D02*
X903634D01*
Y293764D01*
X925166D01*
Y306296D01*
D02*
G37*
G36*
X854248Y298704D02*
X852632D01*
X851138Y298085D01*
X849995Y296942D01*
X849376Y295448D01*
Y293832D01*
X849995Y292338D01*
X851138Y291195D01*
X852632Y290576D01*
X854248D01*
X855742Y291195D01*
X856885Y292338D01*
X857504Y293832D01*
Y295448D01*
X856885Y296942D01*
X855742Y298085D01*
X854248Y298704D01*
D02*
G37*
G36*
X619677Y301879D02*
X617303D01*
X615109Y300970D01*
X613430Y299291D01*
X612521Y297097D01*
Y294723D01*
X613430Y292529D01*
X615109Y290850D01*
X617303Y289941D01*
X619677D01*
X621871Y290850D01*
X623550Y292529D01*
X624459Y294723D01*
Y297097D01*
X623550Y299291D01*
X621871Y300970D01*
X619677Y301879D01*
D02*
G37*
G36*
X540997Y310461D02*
X528343D01*
Y297792D01*
X528529D01*
Y292977D01*
X527415Y291862D01*
X526796Y290368D01*
Y288752D01*
X527415Y287258D01*
X528558Y286115D01*
X530052Y285496D01*
X531668D01*
X533162Y286115D01*
X534305Y287258D01*
X534924Y288752D01*
Y290368D01*
X534305Y291862D01*
X533191Y292977D01*
Y297792D01*
X540997D01*
Y310461D01*
D02*
G37*
G36*
X231046Y295526D02*
X220014D01*
Y278494D01*
X231046D01*
Y295526D01*
D02*
G37*
G36*
X218346D02*
X207314D01*
Y278494D01*
X218346D01*
Y295526D01*
D02*
G37*
G36*
X201468Y307594D02*
X199852D01*
X198358Y306975D01*
X197215Y305832D01*
X196596Y304338D01*
Y302722D01*
X197215Y301228D01*
X198329Y300113D01*
Y295526D01*
X194614D01*
Y278494D01*
X205646D01*
Y295526D01*
X202991D01*
Y300113D01*
X204105Y301228D01*
X204724Y302722D01*
Y304338D01*
X204105Y305832D01*
X202962Y306975D01*
X201468Y307594D01*
D02*
G37*
G36*
X192946Y295526D02*
X181914D01*
Y278494D01*
X192946D01*
Y295526D01*
D02*
G37*
G36*
X180246D02*
X169214D01*
Y278494D01*
X180246D01*
Y295526D01*
D02*
G37*
G36*
X163368Y305054D02*
X161752D01*
X160258Y304435D01*
X159115Y303292D01*
X158496Y301798D01*
Y300182D01*
X159115Y298688D01*
X160229Y297573D01*
Y295526D01*
X156514D01*
Y278494D01*
X167546D01*
Y295526D01*
X164891D01*
Y297573D01*
X166005Y298688D01*
X166624Y300182D01*
Y301798D01*
X166005Y303292D01*
X164862Y304435D01*
X163368Y305054D01*
D02*
G37*
G36*
X149398D02*
X147782D01*
X146288Y304435D01*
X145145Y303292D01*
X144526Y301798D01*
Y300182D01*
X145145Y298688D01*
X146259Y297573D01*
Y295526D01*
X143814D01*
Y278494D01*
X154846D01*
Y295526D01*
X150921D01*
Y297573D01*
X152035Y298688D01*
X152654Y300182D01*
Y301798D01*
X152035Y303292D01*
X150892Y304435D01*
X149398Y305054D01*
D02*
G37*
G36*
X142146Y295526D02*
X131114D01*
Y278494D01*
X142146D01*
Y295526D01*
D02*
G37*
G36*
X129446D02*
X118414D01*
Y278494D01*
X129446D01*
Y295526D01*
D02*
G37*
G36*
X335314Y335026D02*
X332706D01*
X330186Y334351D01*
X327928Y333047D01*
X326083Y331202D01*
X324779Y328944D01*
X324104Y326424D01*
Y323816D01*
X324779Y321296D01*
X326083Y319038D01*
X327928Y317193D01*
X329139Y316494D01*
Y290807D01*
X322673D01*
Y278153D01*
X335342D01*
Y290807D01*
X333801D01*
Y315214D01*
X335314D01*
X337834Y315889D01*
X340092Y317193D01*
X341937Y319038D01*
X343241Y321296D01*
X343916Y323816D01*
Y326424D01*
X343241Y328944D01*
X341937Y331202D01*
X340092Y333047D01*
X337834Y334351D01*
X335314Y335026D01*
D02*
G37*
G36*
X309914D02*
X307306D01*
X304786Y334351D01*
X302528Y333047D01*
X300683Y331202D01*
X299379Y328944D01*
X298704Y326424D01*
Y323816D01*
X299379Y321296D01*
X300683Y319038D01*
X302528Y317193D01*
X304786Y315889D01*
X306279Y315489D01*
Y290807D01*
X306085D01*
Y278153D01*
X318755D01*
Y290807D01*
X310941D01*
Y315489D01*
X312434Y315889D01*
X314692Y317193D01*
X316537Y319038D01*
X317841Y321296D01*
X318516Y323816D01*
Y326424D01*
X317841Y328944D01*
X316537Y331202D01*
X314692Y333047D01*
X312434Y334351D01*
X309914Y335026D01*
D02*
G37*
G36*
X925166Y286296D02*
X903634D01*
Y273764D01*
X925166D01*
Y286296D01*
D02*
G37*
G36*
X796037Y280210D02*
X793663D01*
X791469Y279301D01*
X789790Y277622D01*
X788881Y275428D01*
Y273054D01*
X789790Y270860D01*
X791469Y269181D01*
X793663Y268272D01*
X796037D01*
X798231Y269181D01*
X799910Y270860D01*
X800819Y273054D01*
Y275428D01*
X799910Y277622D01*
X798231Y279301D01*
X796037Y280210D01*
D02*
G37*
G36*
X116746Y295526D02*
X105714D01*
Y278494D01*
X108899D01*
Y274667D01*
X108315Y274082D01*
X107696Y272588D01*
Y270972D01*
X108315Y269478D01*
X109458Y268335D01*
X110952Y267716D01*
X112568D01*
X114062Y268335D01*
X115205Y269478D01*
X115824Y270972D01*
Y272588D01*
X115205Y274082D01*
X114062Y275225D01*
X113561Y275433D01*
Y278494D01*
X116746D01*
Y295526D01*
D02*
G37*
G36*
X104046D02*
X93014D01*
Y278494D01*
X96729D01*
Y275197D01*
X95615Y274082D01*
X94996Y272588D01*
Y270972D01*
X95615Y269478D01*
X96758Y268335D01*
X98252Y267716D01*
X99868D01*
X101362Y268335D01*
X102505Y269478D01*
X103124Y270972D01*
Y272588D01*
X102505Y274082D01*
X101391Y275197D01*
Y278494D01*
X104046D01*
Y295526D01*
D02*
G37*
G36*
X271946Y274876D02*
X254914D01*
Y263844D01*
X271946D01*
Y274876D01*
D02*
G37*
G36*
X625648Y263144D02*
X624032D01*
X622538Y262525D01*
X621395Y261382D01*
X620776Y259888D01*
Y258272D01*
X621395Y256778D01*
X622538Y255635D01*
X624032Y255016D01*
X625648D01*
X627142Y255635D01*
X628285Y256778D01*
X628904Y258272D01*
Y259888D01*
X628285Y261382D01*
X627142Y262525D01*
X625648Y263144D01*
D02*
G37*
G36*
X271946Y262176D02*
X254914D01*
Y251144D01*
X271946D01*
Y262176D01*
D02*
G37*
G36*
X797098Y256794D02*
X795482D01*
X793988Y256175D01*
X792845Y255032D01*
X792226Y253538D01*
Y251922D01*
X792845Y250428D01*
X793988Y249285D01*
X795482Y248666D01*
X797098D01*
X798592Y249285D01*
X799735Y250428D01*
X800354Y251922D01*
Y253538D01*
X799735Y255032D01*
X798592Y256175D01*
X797098Y256794D01*
D02*
G37*
G36*
X821607Y259969D02*
X819233D01*
X817039Y259060D01*
X815360Y257381D01*
X814451Y255187D01*
Y252813D01*
X815360Y250619D01*
X817039Y248940D01*
X819233Y248031D01*
X821607D01*
X823801Y248940D01*
X825480Y250619D01*
X826389Y252813D01*
Y255187D01*
X825480Y257381D01*
X823801Y259060D01*
X821607Y259969D01*
D02*
G37*
G36*
X666667D02*
X664293D01*
X662099Y259060D01*
X660420Y257381D01*
X659511Y255187D01*
Y252813D01*
X660420Y250619D01*
X662099Y248940D01*
X664293Y248031D01*
X666667D01*
X668861Y248940D01*
X670540Y250619D01*
X671449Y252813D01*
Y255187D01*
X670540Y257381D01*
X668861Y259060D01*
X666667Y259969D01*
D02*
G37*
G36*
X610408Y254254D02*
X608792D01*
X607298Y253635D01*
X606155Y252492D01*
X605536Y250998D01*
Y249382D01*
X606155Y247888D01*
X607298Y246745D01*
X608792Y246126D01*
X610408D01*
X611902Y246745D01*
X613045Y247888D01*
X613664Y249382D01*
Y250998D01*
X613045Y252492D01*
X611902Y253635D01*
X610408Y254254D01*
D02*
G37*
G36*
X540558D02*
X538942D01*
X537448Y253635D01*
X536305Y252492D01*
X535686Y250998D01*
Y249382D01*
X536305Y247888D01*
X537448Y246745D01*
X538942Y246126D01*
X540558D01*
X542052Y246745D01*
X543195Y247888D01*
X543814Y249382D01*
Y250998D01*
X543195Y252492D01*
X542052Y253635D01*
X540558Y254254D01*
D02*
G37*
G36*
X945026Y255956D02*
X929494D01*
Y244424D01*
X928498Y244375D01*
X925166D01*
Y246296D01*
X903634D01*
Y233764D01*
X925166D01*
Y239713D01*
X932857D01*
X933222Y239192D01*
X932726Y238176D01*
X929494D01*
Y226644D01*
X945026D01*
Y238176D01*
X940335D01*
X939914Y239192D01*
X940234Y239512D01*
X940853Y241006D01*
Y242622D01*
X940527Y243408D01*
X941206Y244424D01*
X945026D01*
Y255956D01*
D02*
G37*
G36*
X248458Y245364D02*
X246842D01*
X245348Y244745D01*
X244205Y243602D01*
X243586Y242108D01*
Y240492D01*
X244205Y238998D01*
X245348Y237855D01*
X246842Y237236D01*
X248458D01*
X249952Y237855D01*
X251095Y238998D01*
X251714Y240492D01*
Y242108D01*
X251095Y243602D01*
X249952Y244745D01*
X248458Y245364D01*
D02*
G37*
G36*
X166705Y243436D02*
X164595D01*
X162556Y242890D01*
X160728Y241834D01*
X159236Y240342D01*
X158180Y238514D01*
X157634Y236475D01*
Y234365D01*
X158180Y232326D01*
X159236Y230498D01*
X160728Y229006D01*
X162556Y227950D01*
X164595Y227404D01*
X166705D01*
X168744Y227950D01*
X170572Y229006D01*
X172064Y230498D01*
X173120Y232326D01*
X173666Y234365D01*
Y236475D01*
X173120Y238514D01*
X172064Y240342D01*
X170572Y241834D01*
X168744Y242890D01*
X166705Y243436D01*
D02*
G37*
G36*
X925166Y226296D02*
X903634D01*
Y213764D01*
X925166D01*
Y226296D01*
D02*
G37*
G36*
Y206296D02*
X903634D01*
Y193764D01*
X925166D01*
Y206296D01*
D02*
G37*
G36*
X209088Y185674D02*
X207472D01*
X205978Y185055D01*
X204835Y183912D01*
X204216Y182418D01*
Y180802D01*
X204835Y179308D01*
X205978Y178165D01*
X207472Y177546D01*
X209088D01*
X210582Y178165D01*
X211725Y179308D01*
X212344Y180802D01*
Y182418D01*
X211725Y183912D01*
X210582Y185055D01*
X209088Y185674D01*
D02*
G37*
G36*
X550985Y179150D02*
X549369D01*
X547875Y178531D01*
X546732Y177388D01*
X546113Y175894D01*
Y174277D01*
X546732Y172784D01*
X547875Y171640D01*
X549369Y171022D01*
X550985D01*
X552479Y171640D01*
X553622Y172784D01*
X554241Y174277D01*
Y175894D01*
X553622Y177388D01*
X552479Y178531D01*
X550985Y179150D01*
D02*
G37*
G36*
X525676Y204296D02*
X522324D01*
X519037Y203642D01*
X515940Y202359D01*
X513153Y200497D01*
X510783Y198127D01*
X508921Y195340D01*
X507638Y192243D01*
X506984Y188956D01*
Y185604D01*
X507638Y182317D01*
X508921Y179220D01*
X510783Y176433D01*
X513153Y174063D01*
X515940Y172201D01*
X519037Y170918D01*
X522324Y170264D01*
X525676D01*
X528963Y170918D01*
X532060Y172201D01*
X534847Y174063D01*
X537217Y176433D01*
X539079Y179220D01*
X540362Y182317D01*
X541016Y185604D01*
Y188956D01*
X540362Y192243D01*
X539079Y195340D01*
X537217Y198127D01*
X534847Y200497D01*
X532060Y202359D01*
X528963Y203642D01*
X525676Y204296D01*
D02*
G37*
G36*
X271946Y160576D02*
X254914D01*
Y149544D01*
X271946D01*
Y153879D01*
X312813D01*
X313928Y152765D01*
X315422Y152146D01*
X317038D01*
X318532Y152765D01*
X319675Y153908D01*
X320294Y155402D01*
Y157018D01*
X319675Y158512D01*
X318532Y159655D01*
X317038Y160274D01*
X315422D01*
X313928Y159655D01*
X312813Y158541D01*
X271946D01*
Y160576D01*
D02*
G37*
G36*
Y147876D02*
X254914D01*
Y136844D01*
X271946D01*
Y147876D01*
D02*
G37*
G36*
X248458Y142494D02*
X246842D01*
X245348Y141875D01*
X244205Y140732D01*
X243586Y139238D01*
Y137622D01*
X244205Y136128D01*
X245348Y134985D01*
X246842Y134366D01*
X248458D01*
X249952Y134985D01*
X251095Y136128D01*
X251714Y137622D01*
Y139238D01*
X251095Y140732D01*
X249952Y141875D01*
X248458Y142494D01*
D02*
G37*
G36*
X407788Y155321D02*
X405012D01*
X402331Y154603D01*
X399928Y153215D01*
X397965Y151252D01*
X396577Y148849D01*
X395859Y146168D01*
Y143392D01*
X396577Y140711D01*
X397965Y138308D01*
X399928Y136345D01*
X402331Y134957D01*
X405012Y134239D01*
X407788D01*
X410469Y134957D01*
X412872Y136345D01*
X414835Y138308D01*
X416223Y140711D01*
X416941Y143392D01*
Y146168D01*
X416223Y148849D01*
X414835Y151252D01*
X412872Y153215D01*
X410469Y154603D01*
X407788Y155321D01*
D02*
G37*
G36*
X166705Y143436D02*
X164595D01*
X162556Y142890D01*
X160728Y141834D01*
X159236Y140342D01*
X158180Y138514D01*
X157634Y136475D01*
Y134365D01*
X158180Y132326D01*
X159236Y130498D01*
X160728Y129006D01*
X162556Y127950D01*
X164595Y127404D01*
X166705D01*
X168744Y127950D01*
X170572Y129006D01*
X172064Y130498D01*
X173120Y132326D01*
X173666Y134365D01*
Y136475D01*
X173120Y138514D01*
X172064Y140342D01*
X170572Y141834D01*
X168744Y142890D01*
X166705Y143436D01*
D02*
G37*
G36*
X271946Y135176D02*
X254914D01*
Y124144D01*
X271946D01*
Y127209D01*
X274713D01*
X275828Y126095D01*
X277322Y125476D01*
X278938D01*
X280432Y126095D01*
X281575Y127238D01*
X282194Y128732D01*
Y130348D01*
X281575Y131842D01*
X280432Y132985D01*
X278938Y133604D01*
X277322D01*
X275828Y132985D01*
X274713Y131871D01*
X271946D01*
Y135176D01*
D02*
G37*
G36*
X535857Y121539D02*
X533483D01*
X531289Y120630D01*
X529610Y118951D01*
X528701Y116757D01*
Y114383D01*
X529610Y112189D01*
X531289Y110510D01*
X533483Y109601D01*
X535857D01*
X538051Y110510D01*
X539730Y112189D01*
X540639Y114383D01*
Y116757D01*
X539730Y118951D01*
X538051Y120630D01*
X535857Y121539D01*
D02*
G37*
G36*
X407788Y129921D02*
X405012D01*
X402331Y129203D01*
X399928Y127815D01*
X397965Y125852D01*
X396577Y123449D01*
X395859Y120768D01*
Y117992D01*
X396577Y115311D01*
X397965Y112908D01*
X399928Y110945D01*
X402331Y109557D01*
X405012Y108839D01*
X407788D01*
X410469Y109557D01*
X412872Y110945D01*
X414835Y112908D01*
X416223Y115311D01*
X416941Y117992D01*
Y120768D01*
X416223Y123449D01*
X414835Y125852D01*
X412872Y127815D01*
X410469Y129203D01*
X407788Y129921D01*
D02*
G37*
G36*
X679450Y163650D02*
X677196Y163354D01*
X675095Y162484D01*
X673291Y161099D01*
X636461Y124269D01*
X635076Y122465D01*
X634206Y120365D01*
X633909Y118110D01*
Y116840D01*
X634206Y114586D01*
X635076Y112485D01*
X636461Y110681D01*
X638265Y109297D01*
X640366Y108426D01*
X642620Y108130D01*
X644874Y108426D01*
X646975Y109297D01*
X648779Y110681D01*
X650163Y112485D01*
X650765Y113936D01*
X685609Y148781D01*
X686993Y150585D01*
X687864Y152685D01*
X688160Y154940D01*
X687864Y157194D01*
X686993Y159295D01*
X685609Y161099D01*
X683805Y162484D01*
X681704Y163354D01*
X679450Y163650D01*
D02*
G37*
G36*
X256446Y120526D02*
X245414D01*
Y109703D01*
X245357Y109415D01*
Y104311D01*
X244461Y103580D01*
X243961Y103680D01*
X243746Y104060D01*
Y120526D01*
X232714D01*
Y109703D01*
X232657Y109415D01*
Y98510D01*
X232883Y97371D01*
X233529Y96404D01*
X240367Y89566D01*
X241333Y88921D01*
X242473Y88694D01*
X248874D01*
X250013Y88921D01*
X250918Y89525D01*
X252217D01*
X253711Y90144D01*
X254854Y91287D01*
X255473Y92781D01*
Y94397D01*
X254854Y95891D01*
X253711Y97034D01*
X252217Y97653D01*
X250601D01*
X249823Y97331D01*
X249106Y98047D01*
X249116Y98279D01*
X249123Y98297D01*
Y98457D01*
X249148Y99081D01*
X250441Y100374D01*
X251087Y101340D01*
X251313Y102480D01*
Y103494D01*
X256446D01*
Y120526D01*
D02*
G37*
G36*
X192946D02*
X181914D01*
Y103494D01*
X192946D01*
Y120526D01*
D02*
G37*
G36*
X107488Y155194D02*
X105872D01*
X104378Y154575D01*
X103235Y153432D01*
X102616Y151938D01*
Y150322D01*
X103235Y148828D01*
X104378Y147685D01*
X105872Y147066D01*
X106532D01*
X132056Y121542D01*
X131635Y120526D01*
X131114D01*
Y103494D01*
X142146D01*
Y120526D01*
X138956D01*
Y121832D01*
X138729Y122972D01*
X138084Y123938D01*
X110744Y151278D01*
Y151938D01*
X110125Y153432D01*
X108982Y154575D01*
X107488Y155194D01*
D02*
G37*
G36*
X96058Y148844D02*
X94442D01*
X92948Y148225D01*
X91805Y147082D01*
X91186Y145588D01*
Y143972D01*
X91805Y142478D01*
X92948Y141335D01*
X94442Y140716D01*
X95102D01*
X114354Y121465D01*
X113965Y120526D01*
X105714D01*
Y103494D01*
X108899D01*
Y37608D01*
X100353D01*
Y33605D01*
X89046D01*
Y36126D01*
X78025D01*
X77800Y36171D01*
X76346D01*
X66261Y46255D01*
Y67654D01*
X70196D01*
Y76186D01*
X57664D01*
Y74251D01*
X28696D01*
Y76186D01*
X16164D01*
Y67654D01*
X28696D01*
Y69589D01*
X57664D01*
Y67654D01*
X61599D01*
Y45290D01*
X61777Y44398D01*
X62282Y43642D01*
X73514Y32410D01*
Y24594D01*
X89046D01*
Y28943D01*
X100353D01*
Y24939D01*
X113007D01*
Y34376D01*
X113383Y34940D01*
X113561Y35832D01*
Y103494D01*
X116746D01*
Y117745D01*
X117685Y118133D01*
X118357Y117461D01*
Y114605D01*
X118414Y114317D01*
Y103494D01*
X129446D01*
Y120526D01*
X123625D01*
X123441Y120801D01*
X99314Y144928D01*
Y145588D01*
X98695Y147082D01*
X97552Y148225D01*
X96058Y148844D01*
D02*
G37*
G36*
X317417Y112649D02*
X315043D01*
X312849Y111740D01*
X311170Y110061D01*
X310261Y107867D01*
Y105493D01*
X311170Y103299D01*
X312849Y101620D01*
X315043Y100711D01*
X317417D01*
X319611Y101620D01*
X321290Y103299D01*
X322199Y105493D01*
Y107867D01*
X321290Y110061D01*
X319611Y111740D01*
X317417Y112649D01*
D02*
G37*
G36*
X218346Y120526D02*
X207314D01*
Y103494D01*
X211029D01*
Y99937D01*
X209915Y98822D01*
X209296Y97328D01*
Y95712D01*
X209915Y94218D01*
X211058Y93075D01*
X212552Y92456D01*
X214168D01*
X215662Y93075D01*
X216805Y94218D01*
X217424Y95712D01*
Y97328D01*
X216805Y98822D01*
X215691Y99937D01*
Y103494D01*
X218346D01*
Y120526D01*
D02*
G37*
G36*
X205646D02*
X194614D01*
Y103494D01*
X195789D01*
Y99937D01*
X194675Y98822D01*
X194056Y97328D01*
Y95712D01*
X194675Y94218D01*
X195818Y93075D01*
X197312Y92456D01*
X198928D01*
X200422Y93075D01*
X201565Y94218D01*
X202184Y95712D01*
Y97328D01*
X201565Y98822D01*
X200451Y99937D01*
Y103494D01*
X205646D01*
Y120526D01*
D02*
G37*
G36*
X929230Y170360D02*
X899570D01*
Y149700D01*
X903260D01*
Y113493D01*
X901135Y112267D01*
X898653Y109785D01*
X896898Y106745D01*
X895990Y103355D01*
Y99845D01*
X896898Y96455D01*
X898653Y93415D01*
X901135Y90933D01*
X904175Y89178D01*
X907565Y88270D01*
X911075D01*
X914465Y89178D01*
X917505Y90933D01*
X919987Y93415D01*
X921742Y96455D01*
X922650Y99845D01*
Y103355D01*
X921742Y106745D01*
X919987Y109785D01*
X917505Y112267D01*
X915380Y113493D01*
Y149700D01*
X929230D01*
Y170360D01*
D02*
G37*
G36*
X407788Y104521D02*
X405012D01*
X402331Y103803D01*
X399928Y102415D01*
X397965Y100452D01*
X396577Y98049D01*
X395859Y95368D01*
Y92592D01*
X396577Y89911D01*
X397965Y87508D01*
X399928Y85545D01*
X402331Y84157D01*
X405012Y83439D01*
X407788D01*
X410469Y84157D01*
X412872Y85545D01*
X414835Y87508D01*
X416223Y89911D01*
X416941Y92592D01*
Y95368D01*
X416223Y98049D01*
X414835Y100452D01*
X412872Y102415D01*
X410469Y103803D01*
X407788Y104521D01*
D02*
G37*
G36*
Y79121D02*
X405012D01*
X402331Y78403D01*
X399928Y77015D01*
X397965Y75052D01*
X396577Y72649D01*
X395859Y69968D01*
Y67192D01*
X396577Y64511D01*
X397965Y62108D01*
X399928Y60145D01*
X402331Y58757D01*
X405012Y58039D01*
X407788D01*
X410469Y58757D01*
X412872Y60145D01*
X414835Y62108D01*
X416223Y64511D01*
X416941Y67192D01*
Y69968D01*
X416223Y72649D01*
X414835Y75052D01*
X412872Y77015D01*
X410469Y78403D01*
X407788Y79121D01*
D02*
G37*
G36*
X842157Y67776D02*
X839323D01*
X836584Y67042D01*
X834129Y65625D01*
X832125Y63621D01*
X830708Y61165D01*
X829974Y58427D01*
Y55593D01*
X830708Y52854D01*
X832125Y50399D01*
X834129Y48395D01*
X836584Y46978D01*
X839323Y46244D01*
X842157D01*
X844895Y46978D01*
X847350Y48395D01*
X849355Y50399D01*
X850772Y52854D01*
X851506Y55593D01*
Y58427D01*
X850772Y61165D01*
X849355Y63621D01*
X847350Y65625D01*
X844895Y67042D01*
X842157Y67776D01*
D02*
G37*
G36*
X791357D02*
X788523D01*
X785785Y67042D01*
X783329Y65625D01*
X781325Y63621D01*
X779908Y61165D01*
X779174Y58427D01*
Y55593D01*
X779908Y52854D01*
X781325Y50399D01*
X783329Y48395D01*
X785785Y46978D01*
X788523Y46244D01*
X791357D01*
X794096Y46978D01*
X796551Y48395D01*
X798555Y50399D01*
X799972Y52854D01*
X800706Y55593D01*
Y58427D01*
X799972Y61165D01*
X798555Y63621D01*
X796551Y65625D01*
X794096Y67042D01*
X791357Y67776D01*
D02*
G37*
G36*
X740557D02*
X737723D01*
X734985Y67042D01*
X732530Y65625D01*
X730525Y63621D01*
X729108Y61165D01*
X728374Y58427D01*
Y55593D01*
X729108Y52854D01*
X730525Y50399D01*
X732530Y48395D01*
X734985Y46978D01*
X737723Y46244D01*
X740557D01*
X743296Y46978D01*
X745751Y48395D01*
X747755Y50399D01*
X749172Y52854D01*
X749906Y55593D01*
Y58427D01*
X749172Y61165D01*
X747755Y63621D01*
X745751Y65625D01*
X743296Y67042D01*
X740557Y67776D01*
D02*
G37*
G36*
X689757D02*
X686923D01*
X684184Y67042D01*
X681730Y65625D01*
X679725Y63621D01*
X678308Y61165D01*
X677574Y58427D01*
Y55593D01*
X678308Y52854D01*
X679725Y50399D01*
X681730Y48395D01*
X684184Y46978D01*
X686923Y46244D01*
X689757D01*
X692495Y46978D01*
X694950Y48395D01*
X696955Y50399D01*
X698372Y52854D01*
X699106Y55593D01*
Y58427D01*
X698372Y61165D01*
X696955Y63621D01*
X694950Y65625D01*
X692495Y67042D01*
X689757Y67776D01*
D02*
G37*
G36*
X597506D02*
X575974D01*
Y46244D01*
X597506D01*
Y67776D01*
D02*
G37*
G36*
X104046Y120526D02*
X93014D01*
Y103494D01*
X99408D01*
Y90316D01*
X95714D01*
Y74784D01*
X99408D01*
Y64916D01*
X95714D01*
Y49384D01*
X99408D01*
Y46607D01*
X99096Y46478D01*
X97952Y45335D01*
X97334Y43841D01*
Y42224D01*
X97952Y40731D01*
X99096Y39587D01*
X100589Y38969D01*
X102206D01*
X103700Y39587D01*
X104843Y40731D01*
X105462Y42224D01*
Y43841D01*
X104843Y45335D01*
X103700Y46478D01*
X103552Y46539D01*
Y49384D01*
X107246D01*
Y64916D01*
X103552D01*
Y74784D01*
X107246D01*
Y90316D01*
X103552D01*
Y103494D01*
X104046D01*
Y120526D01*
D02*
G37*
G36*
X407788Y53721D02*
X405012D01*
X402331Y53003D01*
X399928Y51615D01*
X397965Y49652D01*
X396577Y47249D01*
X395859Y44568D01*
Y41792D01*
X396577Y39111D01*
X397965Y36708D01*
X399928Y34745D01*
X402331Y33357D01*
X405012Y32639D01*
X407788D01*
X410469Y33357D01*
X412872Y34745D01*
X414835Y36708D01*
X416223Y39111D01*
X416688Y40849D01*
X436903D01*
Y33113D01*
X449557D01*
Y45782D01*
X436903D01*
Y45511D01*
X416688D01*
X416223Y47249D01*
X414835Y49652D01*
X412872Y51615D01*
X410469Y53003D01*
X407788Y53721D01*
D02*
G37*
G36*
X113007Y21021D02*
X100353D01*
Y8352D01*
X113007D01*
Y13168D01*
X115839D01*
X115935Y12938D01*
X117078Y11795D01*
X118572Y11176D01*
X120188D01*
X121682Y11795D01*
X122825Y12938D01*
X123444Y14432D01*
Y16048D01*
X122825Y17542D01*
X121682Y18685D01*
X120188Y19304D01*
X118572D01*
X117078Y18685D01*
X115935Y17542D01*
X115839Y17312D01*
X113007D01*
Y21021D01*
D02*
G37*
G36*
X361086Y44956D02*
X357734D01*
X354447Y44302D01*
X351350Y43019D01*
X348563Y41157D01*
X346193Y38787D01*
X344331Y36000D01*
X343048Y32903D01*
X342394Y29616D01*
Y26264D01*
X343048Y22977D01*
X344331Y19880D01*
X346193Y17093D01*
X348563Y14723D01*
X351350Y12861D01*
X354447Y11578D01*
X357734Y10924D01*
X361086D01*
X364373Y11578D01*
X367470Y12861D01*
X370257Y14723D01*
X372627Y17093D01*
X374489Y19880D01*
X375772Y22977D01*
X376426Y26264D01*
Y29616D01*
X375772Y32903D01*
X374489Y36000D01*
X372627Y38787D01*
X370257Y41157D01*
X367470Y43019D01*
X364373Y44302D01*
X361086Y44956D01*
D02*
G37*
G36*
X157886D02*
X154534D01*
X151247Y44302D01*
X148150Y43019D01*
X145363Y41157D01*
X142993Y38787D01*
X141131Y36000D01*
X139848Y32903D01*
X139194Y29616D01*
Y26264D01*
X139848Y22977D01*
X141131Y19880D01*
X142993Y17093D01*
X145363Y14723D01*
X148150Y12861D01*
X151247Y11578D01*
X154534Y10924D01*
X157886D01*
X161173Y11578D01*
X164270Y12861D01*
X167057Y14723D01*
X169427Y17093D01*
X171289Y19880D01*
X172572Y22977D01*
X173226Y26264D01*
Y29616D01*
X172572Y32903D01*
X171289Y36000D01*
X169427Y38787D01*
X167057Y41157D01*
X164270Y43019D01*
X161173Y44302D01*
X157886Y44956D01*
D02*
G37*
G36*
X525676Y43096D02*
X522324D01*
X519037Y42442D01*
X515940Y41159D01*
X513153Y39297D01*
X510783Y36927D01*
X508921Y34140D01*
X507638Y31043D01*
X506984Y27756D01*
Y24404D01*
X507638Y21117D01*
X508921Y18020D01*
X510783Y15233D01*
X513153Y12863D01*
X515940Y11001D01*
X519037Y9718D01*
X522324Y9064D01*
X525676D01*
X528963Y9718D01*
X532060Y11001D01*
X534847Y12863D01*
X537217Y15233D01*
X539079Y18020D01*
X540362Y21117D01*
X541016Y24404D01*
Y27756D01*
X540362Y31043D01*
X539079Y34140D01*
X537217Y36927D01*
X534847Y39297D01*
X532060Y41159D01*
X528963Y42442D01*
X525676Y43096D01*
D02*
G37*
%LPD*%
G36*
X755634Y233764D02*
X775029D01*
X775436Y232829D01*
X774926Y232201D01*
X736600D01*
X735708Y232023D01*
X734952Y231518D01*
X725475Y222041D01*
X682595D01*
X682206Y222980D01*
X696925Y237699D01*
X755634D01*
Y233764D01*
D02*
G37*
G36*
X776729Y212919D02*
X776351Y212007D01*
Y209633D01*
X777260Y207439D01*
X777294Y207405D01*
X777305Y207171D01*
X776534Y206296D01*
X776233Y206296D01*
X755634D01*
Y202361D01*
X712795D01*
X709038Y206118D01*
X708282Y206623D01*
X707390Y206801D01*
X621996D01*
X617072Y211724D01*
X617072Y211724D01*
X616093Y212703D01*
X616514Y213719D01*
X762420D01*
X762645Y213764D01*
X776164D01*
X776729Y212919D01*
D02*
G37*
G36*
X613776Y208428D02*
X613776Y208428D01*
X619382Y202822D01*
X620138Y202317D01*
X621030Y202139D01*
X706425D01*
X710182Y198382D01*
X710938Y197877D01*
X711830Y197699D01*
X755634D01*
Y193764D01*
X775789D01*
X776210Y192748D01*
X774769Y191307D01*
X585420D01*
X568159Y208566D01*
X568548Y209505D01*
X612699D01*
X613776Y208428D01*
D02*
G37*
G36*
X300386Y204622D02*
X272885Y177121D01*
X271946Y177510D01*
Y182680D01*
X294827Y205561D01*
X299998D01*
X300386Y204622D01*
D02*
G37*
%LPC*%
G36*
X750108Y212344D02*
X748492D01*
X746998Y211725D01*
X745855Y210582D01*
X745236Y209088D01*
Y207472D01*
X745855Y205978D01*
X746998Y204835D01*
X748492Y204216D01*
X750108D01*
X751602Y204835D01*
X752745Y205978D01*
X753364Y207472D01*
Y209088D01*
X752745Y210582D01*
X751602Y211725D01*
X750108Y212344D01*
D02*
G37*
G36*
X609517Y205359D02*
X607143D01*
X604949Y204450D01*
X603270Y202771D01*
X602361Y200577D01*
Y198203D01*
X603270Y196009D01*
X604949Y194330D01*
X607143Y193421D01*
X609517D01*
X611711Y194330D01*
X613390Y196009D01*
X614299Y198203D01*
Y200577D01*
X613390Y202771D01*
X611711Y204450D01*
X609517Y205359D01*
D02*
G37*
%LPD*%
D14*
X936789Y249719D02*
X937260Y250190D01*
X936789Y241814D02*
Y249719D01*
X916414Y242044D02*
X935268D01*
X936789Y232881D02*
Y241814D01*
X914400Y240030D02*
X916414Y242044D01*
X936789Y232881D02*
X937260Y232410D01*
X308610Y288290D02*
Y325120D01*
Y288290D02*
X312420Y284480D01*
X909320Y156050D02*
X913300Y160030D01*
X914400D01*
X762420Y216050D02*
X766400Y220030D01*
X266660Y170990D02*
X270050D01*
X263430Y167760D02*
X266660Y170990D01*
X303396Y204336D02*
X340022D01*
X351736Y216050D01*
X270050Y170990D02*
X303396Y204336D01*
X351736Y216050D02*
X762420D01*
X705220Y383540D02*
X746516D01*
X774450Y355606D01*
Y355530D02*
Y355606D01*
Y355530D02*
X777680Y352300D01*
X780680D01*
X592950Y375920D02*
X627380D01*
X647770Y355530D01*
X652990D01*
X656220Y352300D01*
X582030Y386840D02*
X584954D01*
X588184Y380686D02*
Y383610D01*
X584954Y386840D02*
X588184Y383610D01*
Y380686D02*
X592950Y375920D01*
X179816Y353806D02*
X195644D01*
X206328Y364490D01*
X173380Y347370D02*
X179816Y353806D01*
X157700Y347370D02*
X173380D01*
X134380Y384690D02*
X138110Y381960D01*
X166394Y355576D02*
X168498D01*
X138110Y381960D02*
X140010D01*
X173602Y360680D02*
X184738D01*
X168498Y355576D02*
X173602Y360680D01*
X140010Y381960D02*
X166394Y355576D01*
X99060Y271780D02*
Y286480D01*
X111230Y272310D02*
X111760Y271780D01*
X111230Y272310D02*
Y287010D01*
X263550Y129540D02*
X278130D01*
X98530Y287010D02*
X99060Y286480D01*
X73216Y272224D02*
Y290457D01*
Y272224D02*
X87630Y257810D01*
X62660Y308140D02*
X88984D01*
X62660Y301013D02*
Y308140D01*
Y301013D02*
X73216Y290457D01*
X87630Y257810D02*
X226418D01*
X247700Y279092D01*
X770900Y260030D02*
X782320Y248610D01*
X775970Y229870D02*
X782320Y236220D01*
Y248610D01*
X639749Y278892D02*
X640887Y280030D01*
X525091Y248231D02*
X556890Y280030D01*
X634193D01*
X635331Y278892D02*
X639749D01*
X634193Y280030D02*
X635331Y278892D01*
X206336Y382270D02*
X217766Y393700D01*
X266430Y231260D02*
X295520Y260350D01*
X256540Y393700D02*
X294386Y355854D01*
X217766Y393700D02*
X256540D01*
X294386Y259216D02*
Y355854D01*
X206328Y382270D02*
X206336D01*
X640887Y280030D02*
X766400D01*
X227330Y158901D02*
Y174656D01*
X245834Y193160D01*
X263430Y231260D02*
X266430D01*
X295520Y260350D02*
X389890D01*
X736600Y229870D02*
X775970D01*
X775734Y188976D02*
X846788Y260030D01*
X584454Y188976D02*
X775734D01*
X846788Y260030D02*
X914400D01*
X335603Y215004D02*
X368830Y248231D01*
X525091D01*
X245834Y193160D02*
X263430D01*
X266430D01*
X210230Y169590D02*
X246500Y205860D01*
X263430D01*
X210230Y159430D02*
Y169590D01*
X247650Y180340D02*
X263310D01*
X263430Y180460D01*
X266430D01*
X209550Y158750D02*
X210230Y159430D01*
X263430Y205860D02*
X266660Y209090D01*
X332740Y91440D02*
Y142240D01*
Y91440D02*
X406400Y17780D01*
X349250Y233680D02*
Y243840D01*
X137160Y339090D02*
X243840D01*
X165260Y104092D02*
X191882Y77470D01*
X257617D01*
X388427Y208280D01*
X149330Y109010D02*
Y112010D01*
Y109010D02*
X189717Y68623D01*
X273093D01*
X294640Y90170D01*
X530860Y289560D02*
Y300316D01*
X534670Y304126D01*
X350367Y219710D02*
X726440D01*
X385826Y211836D02*
X613664D01*
X388427Y208280D02*
X565150D01*
X349148Y223520D02*
X679450D01*
X257302Y83312D02*
X385826Y211836D01*
X266430Y193160D02*
X284718Y211448D01*
X266430Y180460D02*
X293862Y207892D01*
X338549D01*
X350367Y219710D01*
X337076Y211448D02*
X349148Y223520D01*
X679450D02*
X695960Y240030D01*
X584200Y189230D02*
X584454Y188976D01*
X565150Y208280D02*
X584200Y189230D01*
X235458Y83312D02*
X257302D01*
X263430Y155060D02*
X264580Y156210D01*
X316230D01*
X334130Y218560D02*
X349250Y233680D01*
X284718Y211448D02*
X337076D01*
X275964Y215004D02*
X335603D01*
X263430Y218560D02*
X334130D01*
X270050Y209090D02*
X275964Y215004D01*
X266660Y209090D02*
X270050D01*
X266656Y308566D02*
X283210Y325120D01*
X255098Y308566D02*
X266656D01*
X241460Y294928D02*
X255098Y308566D01*
X204470Y348942D02*
X205740Y350212D01*
Y363894D01*
X204470Y347980D02*
Y348942D01*
X200130Y287010D02*
X200660Y287540D01*
Y303530D01*
X205740Y363894D02*
X206336Y364490D01*
X711830Y200030D02*
X766400D01*
X621030Y204470D02*
X707390D01*
X711830Y200030D01*
X726440Y219710D02*
X736600Y229870D01*
X615424Y210076D02*
X621030Y204470D01*
X615424Y210076D02*
X615424D01*
X766400Y260030D02*
X770900D01*
X695960Y240030D02*
X766400D01*
X162030Y112010D02*
X165260Y108780D01*
Y104092D02*
Y108780D01*
X613664Y211836D02*
X615424Y210076D01*
X615424D01*
X225530Y93240D02*
Y112010D01*
Y93240D02*
X235458Y83312D01*
X162560Y287540D02*
Y300990D01*
X162030Y287010D02*
X162560Y287540D01*
X148590Y287750D02*
Y300990D01*
Y287750D02*
X149330Y287010D01*
X331470Y286942D02*
Y322580D01*
X329008Y284480D02*
X331470Y286942D01*
Y322580D02*
X334010Y325120D01*
X243840Y339090D02*
X257810Y325120D01*
X198120Y110000D02*
X200130Y112010D01*
X198120Y96520D02*
Y110000D01*
X63930Y45290D02*
X75380Y33840D01*
X77800D02*
X81280Y30360D01*
X63930Y45290D02*
Y71920D01*
X75380Y33840D02*
X77800D01*
X81280Y30360D02*
X82194Y31274D01*
X106680D02*
Y31282D01*
X111230Y35832D01*
Y112010D01*
X22430Y71920D02*
X63930D01*
X82194Y31274D02*
X106680D01*
X206328Y364490D02*
X206336D01*
X134380Y369690D02*
X135380D01*
X157700Y347370D01*
X238230Y287010D02*
X241460Y290240D01*
Y294928D01*
X184738Y360680D02*
X206328Y382270D01*
X21160Y308140D02*
X62660D01*
X88984D02*
X91440Y310596D01*
X117436D01*
X118110Y311270D01*
X247700Y279092D02*
Y283780D01*
X250930Y287010D01*
X263430Y129660D02*
X263550Y129540D01*
X212830Y112010D02*
X213360Y111480D01*
Y96520D02*
Y111480D01*
X439498Y43180D02*
X443230Y39448D01*
X406400Y43180D02*
X439498D01*
D15*
X465650Y277123D02*
X470549Y272224D01*
Y269653D02*
Y272224D01*
X465650Y277123D02*
Y279621D01*
X470549Y269653D02*
X471424Y268778D01*
X440295Y270790D02*
X440654Y271149D01*
X439420Y267970D02*
X440295Y268845D01*
Y270790D01*
X440654Y271149D02*
Y286534D01*
X440617Y286570D02*
X440654Y286534D01*
X440470Y286718D02*
X440617Y286570D01*
X465715Y286676D02*
Y303064D01*
X465821Y303169D01*
X440470Y286718D02*
Y303022D01*
X440322Y303169D02*
X440470Y303022D01*
X512228Y276792D02*
X517951Y271070D01*
X468622Y276792D02*
X512228D01*
X467545Y277870D02*
X468622Y276792D01*
X465609Y279820D02*
Y286570D01*
X467545Y277870D02*
Y277885D01*
X465609Y279820D02*
X467545Y277885D01*
D16*
X751997Y309933D02*
X761900Y300030D01*
X745617Y309933D02*
X751997D01*
X761900Y300030D02*
X766400D01*
X594360Y367030D02*
X598716Y362674D01*
Y359813D02*
Y362674D01*
X935990Y207010D02*
Y216140D01*
X935212Y206232D02*
X935990Y207010D01*
X935212Y196342D02*
Y206232D01*
X935990Y216140D02*
X937260Y217410D01*
X918900Y180030D02*
X935212Y196342D01*
X649736Y375416D02*
Y380816D01*
X650785Y381865D01*
X645160Y370840D02*
X649736Y375416D01*
X650785Y381865D02*
X654551D01*
X812905Y365832D02*
X815373Y368300D01*
X841376Y356234D02*
X872804D01*
X829310Y368300D02*
X841376Y356234D01*
X815373Y368300D02*
X829310D01*
X739837Y356505D02*
Y358516D01*
X736725Y353393D02*
X739837Y356505D01*
Y358516D02*
X742950Y361629D01*
Y365760D01*
Y361629D02*
X748344Y356234D01*
X736725Y351319D02*
Y353393D01*
X728980Y341510D02*
X730980D01*
X734714Y345244D02*
Y349308D01*
X736725Y351319D01*
X730980Y341510D02*
X734714Y345244D01*
X723246Y353393D02*
X736725D01*
X720405Y356234D02*
X723246Y353393D01*
X654551Y381865D02*
X655600Y380816D01*
Y377050D02*
Y380816D01*
X598716Y359813D02*
X602295Y356234D01*
X626424D01*
X66040Y15240D02*
X81160D01*
X22430Y93420D02*
X22990Y93980D01*
X63370D02*
X63930Y93420D01*
X22990Y93980D02*
X63370D01*
X81160Y15240D02*
X81280Y15360D01*
X86360Y43180D02*
Y57030D01*
X86480Y57150D02*
Y82550D01*
Y111360D01*
X86360Y57030D02*
X86480Y57150D01*
X85830Y112010D02*
X86480Y111360D01*
X443230Y22860D02*
X454660D01*
X407986Y171766D02*
X439496D01*
X406400Y170180D02*
X407986Y171766D01*
X439496D02*
X443230Y175500D01*
X21720Y330200D02*
X41910D01*
X21160Y329640D02*
X21720Y330200D01*
X62100D02*
X62660Y329640D01*
X41910Y330200D02*
X62100D01*
X121285Y329445D02*
Y336550D01*
X86360Y344170D02*
Y345270D01*
X118110Y326270D02*
X121285Y329445D01*
X80740Y355720D02*
X84474Y351986D01*
Y347156D02*
Y351986D01*
Y347156D02*
X86360Y345270D01*
X78740Y355720D02*
X80740D01*
X119380Y365760D02*
Y385690D01*
X120158Y362442D02*
X127522Y355078D01*
X120158Y362442D02*
Y364982D01*
X133992Y355078D02*
X134380Y354690D01*
X127522Y355078D02*
X133992D01*
X119380Y365760D02*
X120158Y364982D01*
X401371Y371269D02*
Y374016D01*
X408355Y381000D01*
X419100D01*
X510792Y377190D02*
X537350D01*
X504871Y371269D02*
X510792Y377190D01*
X696893Y150197D02*
X697230Y149860D01*
X696893Y150197D02*
Y150696D01*
X766400Y160030D02*
X772150D01*
X779780Y152400D01*
X914400Y180030D02*
X918900D01*
X537350Y377190D02*
X537490Y377050D01*
X937260Y265190D02*
Y281940D01*
X872804Y356234D02*
X876538Y359968D01*
X909968D01*
X915000Y365000D01*
X447040Y240030D02*
X460414D01*
X461010Y240626D01*
X480606Y286570D02*
Y298670D01*
X483220Y301284D01*
Y303169D01*
X425620Y286570D02*
Y298584D01*
X422920Y301284D02*
X425620Y298584D01*
X422920Y301284D02*
Y303169D01*
X425620Y286570D02*
X430620D01*
X85090Y271780D02*
Y286270D01*
X85830Y287010D01*
X739424Y318066D02*
X746476D01*
X730980Y326510D02*
X738944Y318546D01*
X739154Y318336D02*
X739424Y318066D01*
X738944Y318546D02*
X739364D01*
X746476Y318066D02*
X754920Y326510D01*
X834569Y329442D02*
X835669D01*
X829680Y334331D02*
X834569Y329442D01*
X835669D02*
X838721Y326390D01*
X829680Y334331D02*
Y352300D01*
X881380Y326510D02*
X898279D01*
X902209Y322580D01*
X854710Y326510D02*
X881380D01*
X902209Y322580D02*
X902970D01*
X754920Y326510D02*
X756920D01*
X838721Y326390D02*
X854590D01*
X728980Y326510D02*
X730980D01*
X854590Y326390D02*
X854710Y326510D01*
X701736Y355784D02*
X705220Y352300D01*
X704061Y349368D02*
X704612Y348816D01*
X701758Y349368D02*
X704061D01*
X704612Y341042D02*
Y348816D01*
X589280Y341630D02*
X590058Y340852D01*
X582428Y348482D02*
Y354442D01*
X582030Y354840D02*
X582428Y354442D01*
Y348482D02*
X589280Y341630D01*
X707390Y337820D02*
Y338264D01*
X704612Y341042D02*
X707390Y338264D01*
X610870Y326510D02*
X635000D01*
X590058Y337980D02*
X601528Y326510D01*
X610870D01*
X590058Y337980D02*
Y340852D01*
X407746Y194234D02*
X439496D01*
X443230Y190500D01*
X406400Y195580D02*
X407746Y194234D01*
X233456Y364715D02*
Y382495D01*
X233231Y382719D02*
X233456Y382495D01*
Y364715D02*
X233680Y364490D01*
X223373Y382719D02*
X233231D01*
X222924Y382270D02*
X223373Y382719D01*
X222924Y364490D02*
X233680D01*
X104380Y354690D02*
Y369690D01*
X103350Y370720D02*
X104380Y369690D01*
X104020Y354330D02*
X104380Y354690D01*
X78740Y370720D02*
X103350D01*
X92710Y354330D02*
X104020D01*
X91440Y327184D02*
X92710Y328454D01*
Y337820D01*
X98530Y112010D02*
X101480Y109060D01*
Y82550D02*
Y109060D01*
X106680Y14686D02*
X107234Y15240D01*
X119380D01*
X101480Y43115D02*
Y57150D01*
Y82550D01*
X101398Y43033D02*
X101480Y43115D01*
X534670Y320714D02*
Y354840D01*
X460611Y257612D02*
Y286570D01*
Y257612D02*
X461010Y257214D01*
D20*
X937260Y265190D02*
D03*
Y250190D02*
D03*
Y217410D02*
D03*
Y232410D02*
D03*
X81280Y15360D02*
D03*
X443230Y175500D02*
D03*
X118110Y326270D02*
D03*
X78740Y355720D02*
D03*
X610870Y341510D02*
D03*
X635000D02*
D03*
X728980D02*
D03*
X756920D02*
D03*
X854710D02*
D03*
X881380D02*
D03*
X854710Y326510D02*
D03*
X881380D02*
D03*
X756920D02*
D03*
X728980D02*
D03*
X635000D02*
D03*
X610870D02*
D03*
X443230Y190500D02*
D03*
X78740Y370720D02*
D03*
X81280Y30360D02*
D03*
X118110Y311270D02*
D03*
D21*
X766400Y240030D02*
D03*
Y220030D02*
D03*
X914400Y260030D02*
D03*
X766400Y200030D02*
D03*
Y280030D02*
D03*
Y260030D02*
D03*
X914400Y300030D02*
D03*
Y280030D02*
D03*
Y220030D02*
D03*
Y200030D02*
D03*
Y160030D02*
D03*
X766400Y180030D02*
D03*
Y160030D02*
D03*
X914400Y180030D02*
D03*
X766400Y300030D02*
D03*
X914400Y240030D02*
D03*
D22*
X656220Y384300D02*
D03*
X780680D02*
D03*
X533030D02*
D03*
X829680Y352300D02*
D03*
X705220D02*
D03*
X582030D02*
D03*
X533030D02*
D03*
X582030Y384300D02*
D03*
X780680Y352300D02*
D03*
X829680Y384300D02*
D03*
X656220Y352300D02*
D03*
X705220Y384300D02*
D03*
D23*
X63930Y93420D02*
D03*
X22430D02*
D03*
X62660Y329640D02*
D03*
X21160D02*
D03*
X63930Y71920D02*
D03*
X22430D02*
D03*
X62660Y308140D02*
D03*
X21160D02*
D03*
D24*
X86480Y57150D02*
D03*
Y82550D02*
D03*
X101480D02*
D03*
Y57150D02*
D03*
D25*
X85830Y112010D02*
D03*
Y287010D02*
D03*
X98530Y112010D02*
D03*
X111230Y287010D02*
D03*
X136630Y112010D02*
D03*
X162030D02*
D03*
X225530D02*
D03*
X162030Y287010D02*
D03*
X149330D02*
D03*
X200130Y112010D02*
D03*
X111230D02*
D03*
X238230D02*
D03*
X200130Y287010D02*
D03*
X250930Y112010D02*
D03*
X238230Y287010D02*
D03*
X98530D02*
D03*
X250930D02*
D03*
X123930Y112010D02*
D03*
X149330D02*
D03*
X212830D02*
D03*
X123930Y287010D02*
D03*
X136630D02*
D03*
X174730D02*
D03*
X187430D02*
D03*
X212830D02*
D03*
X225530D02*
D03*
X187430Y112010D02*
D03*
X174730D02*
D03*
D26*
X149030Y184510D02*
D03*
Y198510D02*
D03*
Y170510D02*
D03*
X163030Y184510D02*
D03*
Y198510D02*
D03*
Y170510D02*
D03*
X177030D02*
D03*
Y184510D02*
D03*
Y198510D02*
D03*
D27*
X443230Y22860D02*
D03*
X461010Y240626D02*
D03*
X91440Y327184D02*
D03*
X106680Y14686D02*
D03*
Y31274D02*
D03*
X91440Y310596D02*
D03*
X534670Y304126D02*
D03*
X461010Y257214D02*
D03*
X443230Y39448D02*
D03*
X534670Y320714D02*
D03*
D28*
X119380Y385690D02*
D03*
D29*
X134380Y354690D02*
D03*
X104380Y369690D02*
D03*
Y354690D02*
D03*
X134380Y369690D02*
D03*
Y384690D02*
D03*
X104380D02*
D03*
D30*
X222924Y382270D02*
D03*
Y364490D02*
D03*
X312420Y284480D02*
D03*
X206336Y364490D02*
D03*
Y382270D02*
D03*
X329008Y284480D02*
D03*
D31*
X263430Y167760D02*
D03*
Y180460D02*
D03*
Y193160D02*
D03*
Y205860D02*
D03*
Y155060D02*
D03*
Y231260D02*
D03*
Y129660D02*
D03*
Y218560D02*
D03*
Y269360D02*
D03*
Y256660D02*
D03*
Y243960D02*
D03*
Y142360D02*
D03*
D32*
X517951Y235270D02*
D03*
Y271070D02*
D03*
D35*
X909320Y101600D02*
D03*
D36*
X883820Y76100D02*
D03*
Y127100D02*
D03*
X934820D02*
D03*
Y76100D02*
D03*
D41*
X637540Y57010D02*
D03*
X739140D02*
D03*
X840740D02*
D03*
X688340D02*
D03*
X789940D02*
D03*
D43*
X524000Y26080D02*
D03*
Y187280D02*
D03*
X156210Y27940D02*
D03*
X359410D02*
D03*
D44*
X165650Y135420D02*
D03*
Y235420D02*
D03*
D47*
X586740Y57010D02*
D03*
D48*
X416021Y318770D02*
D03*
X490220D02*
D03*
D49*
X35000Y35000D02*
D03*
Y365000D02*
D03*
X915000Y35000D02*
D03*
Y365000D02*
D03*
D50*
X430620Y286570D02*
D03*
X425620D02*
D03*
X480606D02*
D03*
X450615D02*
D03*
X455612D02*
D03*
X465609D02*
D03*
X440617D02*
D03*
X460611D02*
D03*
X475606D02*
D03*
X470609D02*
D03*
X445615D02*
D03*
X435618D02*
D03*
D51*
X401371Y371269D02*
D03*
X504871D02*
D03*
D52*
X909320Y101600D02*
Y154950D01*
D53*
X642620Y116840D02*
Y118110D01*
X679450Y154940D01*
D54*
X521441Y238760D02*
X552450D01*
X517951Y235270D02*
X521441Y238760D01*
X106680Y151130D02*
X135978Y121832D01*
Y112662D02*
Y121832D01*
Y112662D02*
X136630Y112010D01*
X95250Y144780D02*
X121335Y118695D01*
Y114605D02*
Y118695D01*
Y114605D02*
X123930Y112010D01*
X235635Y98510D02*
X242473Y91672D01*
X235635Y98510D02*
Y109415D01*
X242473Y91672D02*
X248874D01*
X248335Y109415D02*
X250930Y112010D01*
X245059Y99105D02*
Y99204D01*
X250790Y93589D02*
X251409D01*
X248874Y91672D02*
X250790Y93589D01*
X245059Y99204D02*
X248335Y102480D01*
Y109415D01*
X235635D02*
X238230Y112010D01*
D55*
X451137Y269508D02*
X451658Y268986D01*
X451137Y269508D02*
Y286049D01*
X450615Y286570D02*
X451137Y286049D01*
X455612Y286570D02*
Y296479D01*
X448922Y303169D02*
X455612Y296479D01*
D56*
X149030Y177510D02*
D03*
X156030Y170510D02*
D03*
X163030Y177510D02*
D03*
X149030Y191510D02*
D03*
X156030Y198510D02*
D03*
Y184510D02*
D03*
X163030Y191510D02*
D03*
X170030Y170510D02*
D03*
Y184510D02*
D03*
X177030Y191510D02*
D03*
Y177510D02*
D03*
X170030Y198510D02*
D03*
D57*
X207010Y325120D02*
D03*
X308610D02*
D03*
X181610D02*
D03*
X257810D02*
D03*
X283210D02*
D03*
X232410D02*
D03*
X156210D02*
D03*
X334010D02*
D03*
D58*
X410371Y297770D02*
D03*
X495871D02*
D03*
D59*
X422920Y303169D02*
D03*
X483220D02*
D03*
D60*
X478620Y312171D02*
D03*
X457322Y303169D02*
D03*
X448922D02*
D03*
X440322D02*
D03*
X465821D02*
D03*
X444622Y312169D02*
D03*
X427622D02*
D03*
X436120D02*
D03*
X461622D02*
D03*
X470121D02*
D03*
D61*
X406400Y170180D02*
D03*
Y195580D02*
D03*
Y43180D02*
D03*
Y68580D02*
D03*
Y93980D02*
D03*
Y119380D02*
D03*
Y144780D02*
D03*
Y17780D02*
D03*
D62*
X359410Y325120D02*
D03*
D63*
X714202Y152146D02*
D03*
X745617Y309933D02*
D03*
X594360Y367030D02*
D03*
X935990Y207010D02*
D03*
X645160Y370840D02*
D03*
X829310Y368300D02*
D03*
X742950Y365760D02*
D03*
X66040Y15240D02*
D03*
X43180Y93980D02*
D03*
X86360Y43180D02*
D03*
X295940Y48290D02*
D03*
X454660Y22860D02*
D03*
X367030Y86360D02*
D03*
X382270Y189230D02*
D03*
X41910Y330200D02*
D03*
X121285Y336550D02*
D03*
X86360Y344170D02*
D03*
X119380Y365760D02*
D03*
X229870Y252730D02*
D03*
X522382Y343508D02*
D03*
X419100Y381000D02*
D03*
X521970Y377190D02*
D03*
X529590Y149860D02*
D03*
X598424Y130810D02*
D03*
Y172960D02*
D03*
X667766Y194310D02*
D03*
X795020Y114300D02*
D03*
X779780Y152400D02*
D03*
X876300Y153670D02*
D03*
X890270Y203200D02*
D03*
X542290Y283210D02*
D03*
X593090Y229870D02*
D03*
Y254000D02*
D03*
X744220Y222504D02*
D03*
X937260Y281940D02*
D03*
X447040Y240030D02*
D03*
X594360Y288290D02*
D03*
X85090Y271780D02*
D03*
X866140Y248920D02*
D03*
X861314Y198120D02*
D03*
X739364Y318546D02*
D03*
X834569Y329442D02*
D03*
X902970Y322580D02*
D03*
X589280Y341630D02*
D03*
X707390Y337820D02*
D03*
X936789Y241814D02*
D03*
X609600Y250190D02*
D03*
X749300Y208280D02*
D03*
X556260Y302260D02*
D03*
X539750Y250190D02*
D03*
X233231Y382719D02*
D03*
X233680Y364490D02*
D03*
X247650Y241300D02*
D03*
X92710Y337820D02*
D03*
Y354330D02*
D03*
X196850Y252476D02*
D03*
X247650Y138430D02*
D03*
X208280Y181610D02*
D03*
X119380Y15240D02*
D03*
X101398Y43033D02*
D03*
X707390Y316230D02*
D03*
X853440Y294640D02*
D03*
X471424Y268778D02*
D03*
X99060Y271780D02*
D03*
X443183Y380935D02*
D03*
X463550Y381000D02*
D03*
X111760Y271780D02*
D03*
X278130Y129540D02*
D03*
X796290Y252730D02*
D03*
X624840Y259080D02*
D03*
X227330Y158901D02*
D03*
X439420Y267970D02*
D03*
X552450Y238760D02*
D03*
X451658Y268986D02*
D03*
X389890Y260350D02*
D03*
X247650Y180340D02*
D03*
X209550Y158750D02*
D03*
X245059Y99105D02*
D03*
X251409Y93589D02*
D03*
X106680Y151130D02*
D03*
X332740Y142240D02*
D03*
X95250Y144780D02*
D03*
X294640Y90170D02*
D03*
X316230Y156210D02*
D03*
X550177Y175086D02*
D03*
X213360Y96520D02*
D03*
X198120D02*
D03*
X349250Y243840D02*
D03*
X137160Y339090D02*
D03*
X204470Y347980D02*
D03*
X200660Y303530D02*
D03*
X148590Y300990D02*
D03*
X162560D02*
D03*
X530860Y289560D02*
D03*
D64*
X696893Y150696D02*
D03*
X863219Y146050D02*
D03*
X618490Y295910D02*
D03*
X679450Y154940D02*
D03*
X642620Y116840D02*
D03*
X794850Y274241D02*
D03*
X782320Y210820D02*
D03*
X820420Y254000D02*
D03*
X534670Y115570D02*
D03*
X316230Y106680D02*
D03*
X608330Y199390D02*
D03*
X665480Y254000D02*
D03*
M02*
