G04*
G04 #@! TF.GenerationSoftware,Altium Limited,Altium Designer,26.5.0 (11)*
G04*
G04 Layer_Color=32896*
G04 Board_Origin=0|0*
%FSLAX44Y44*%
%MOMM*%
G71*
G04*
G04 #@! TF.SameCoordinates,805A6E00-FF88-42AD-81E1-7D7A0FF39D89*
G04*
G04*
G04 #@! TF.FilePolarity,Positive*
G04*
G01*
G75*
%ADD10C,0.2000*%
%ADD11C,0.5080*%
%ADD13C,0.1270*%
%ADD14C,0.1524*%
%ADD15C,0.2540*%
%ADD17C,0.1250*%
%ADD18C,0.1520*%
%ADD79C,0.1500*%
%ADD80C,0.2007*%
%ADD81C,0.0762*%
G36*
X155634Y400939D02*
X158386D01*
Y400829D01*
X160477D01*
Y400719D01*
X162348D01*
Y400609D01*
X163999D01*
Y400499D01*
X165430D01*
Y400389D01*
X166861D01*
Y400279D01*
X168182D01*
Y400168D01*
X169503D01*
Y400059D01*
X170603D01*
Y399948D01*
X171594D01*
Y399838D01*
X172805D01*
Y399728D01*
X173795D01*
Y399618D01*
X174786D01*
Y399508D01*
X175886D01*
Y399398D01*
X176767D01*
Y399288D01*
X177758D01*
Y399178D01*
X178638D01*
Y399068D01*
X179519D01*
Y398958D01*
X180289D01*
Y398848D01*
X181170D01*
Y398738D01*
X182160D01*
Y398628D01*
X182270D01*
Y396977D01*
X182050D01*
Y397087D01*
X181170D01*
Y397197D01*
X180399D01*
Y397307D01*
X179519D01*
Y397417D01*
X178528D01*
Y397527D01*
X177648D01*
Y397637D01*
X176767D01*
Y397747D01*
X175777D01*
Y397857D01*
X174786D01*
Y397967D01*
X173795D01*
Y398077D01*
X172805D01*
Y398187D01*
X171704D01*
Y398297D01*
X170603D01*
Y398408D01*
X169393D01*
Y398517D01*
X168072D01*
Y398628D01*
X166861D01*
Y398738D01*
X165540D01*
Y398848D01*
X163999D01*
Y398958D01*
X162458D01*
Y399068D01*
X160477D01*
Y399178D01*
X158386D01*
Y399288D01*
X155634D01*
Y399398D01*
X149140D01*
Y399508D01*
X149030D01*
Y399398D01*
X148810D01*
Y399508D01*
X148700D01*
Y399398D01*
X142977D01*
Y399288D01*
X140115D01*
Y399178D01*
X137914D01*
Y399068D01*
X136042D01*
Y398958D01*
X134391D01*
Y398848D01*
X132961D01*
Y398738D01*
X131530D01*
Y398628D01*
X130319D01*
Y398517D01*
X129108D01*
Y398408D01*
X127898D01*
Y398297D01*
X126797D01*
Y398187D01*
X125696D01*
Y398077D01*
X124705D01*
Y397967D01*
X123605D01*
Y397857D01*
X122614D01*
Y397747D01*
X121734D01*
Y397637D01*
X120743D01*
Y397527D01*
X119863D01*
Y397417D01*
X118982D01*
Y397307D01*
X118102D01*
Y397197D01*
X117221D01*
Y397087D01*
X116341D01*
Y396977D01*
X116230D01*
Y398738D01*
X117221D01*
Y398848D01*
X118102D01*
Y398958D01*
X118982D01*
Y399068D01*
X119753D01*
Y399178D01*
X120633D01*
Y399288D01*
X121734D01*
Y399398D01*
X122614D01*
Y399508D01*
X123605D01*
Y399618D01*
X124595D01*
Y399728D01*
X125696D01*
Y399838D01*
X126797D01*
Y399948D01*
X127898D01*
Y400059D01*
X128998D01*
Y400168D01*
X130209D01*
Y400279D01*
X131530D01*
Y400389D01*
X133071D01*
Y400499D01*
X134501D01*
Y400609D01*
X136263D01*
Y400719D01*
X137914D01*
Y400829D01*
X140115D01*
Y400939D01*
X142757D01*
Y401049D01*
X155634D01*
Y400939D01*
D02*
G37*
G36*
X155084Y388942D02*
X152442D01*
Y392024D01*
X150131D01*
Y391913D01*
X150021D01*
Y391693D01*
X150131D01*
Y391583D01*
X150021D01*
Y391253D01*
X150131D01*
Y391143D01*
X150021D01*
Y390813D01*
X150131D01*
Y390703D01*
X150021D01*
Y390373D01*
X150131D01*
Y388942D01*
X147489D01*
Y389932D01*
Y390042D01*
Y396866D01*
X150131D01*
Y395326D01*
X150021D01*
Y394995D01*
X150131D01*
Y394885D01*
X150021D01*
Y394555D01*
X150131D01*
Y394445D01*
X150021D01*
Y394225D01*
X150131D01*
Y394115D01*
X151011D01*
Y394225D01*
X151122D01*
Y394115D01*
X151342D01*
Y394225D01*
X151452D01*
Y394115D01*
X151672D01*
Y394225D01*
X151782D01*
Y394115D01*
X152002D01*
Y394225D01*
X152112D01*
Y394115D01*
X152442D01*
Y396866D01*
X155084D01*
Y388942D01*
D02*
G37*
G36*
X167081Y396096D02*
X168622D01*
Y395986D01*
X170273D01*
Y395876D01*
X171814D01*
Y395766D01*
X172034D01*
Y395106D01*
X171924D01*
Y393564D01*
X171814D01*
Y391913D01*
X171704D01*
Y390373D01*
X171594D01*
Y388832D01*
X171484D01*
Y387841D01*
X170823D01*
Y387951D01*
X169282D01*
Y388061D01*
X167742D01*
Y388171D01*
X166201D01*
Y388281D01*
X164990D01*
Y389272D01*
X165100D01*
Y390262D01*
X165320D01*
Y390153D01*
X166971D01*
Y390042D01*
X168622D01*
Y389932D01*
X169062D01*
Y390703D01*
X169172D01*
Y391143D01*
X169062D01*
Y391253D01*
X167631D01*
Y391363D01*
X166201D01*
Y391473D01*
X165980D01*
Y392904D01*
X166091D01*
Y393234D01*
X166971D01*
Y393124D01*
X168402D01*
Y393014D01*
X169282D01*
Y393895D01*
X169393D01*
Y394115D01*
X168292D01*
Y394225D01*
X166641D01*
Y394335D01*
X165540D01*
Y395106D01*
X165650D01*
Y396206D01*
X167081D01*
Y396096D01*
D02*
G37*
G36*
X125036Y394445D02*
X125146D01*
Y392244D01*
X125256D01*
Y390153D01*
X125366D01*
Y388171D01*
X125476D01*
Y387401D01*
X123935D01*
Y387291D01*
X123055D01*
Y388171D01*
X122944D01*
Y390153D01*
X122834D01*
Y391913D01*
X122724D01*
Y391473D01*
X122614D01*
Y391253D01*
X122504D01*
Y391033D01*
X122394D01*
Y390813D01*
X122284D01*
Y390593D01*
X122174D01*
Y390373D01*
X122064D01*
Y390153D01*
X121954D01*
Y389932D01*
X121844D01*
Y389712D01*
X121734D01*
Y389492D01*
X121624D01*
Y389382D01*
X121514D01*
Y389162D01*
X121404D01*
Y388942D01*
X121293D01*
Y388722D01*
X121183D01*
Y388502D01*
X121073D01*
Y388281D01*
X120963D01*
Y388171D01*
X120853D01*
Y387951D01*
X120743D01*
Y387731D01*
X120633D01*
Y387511D01*
X120523D01*
Y387291D01*
X120413D01*
Y387181D01*
X119753D01*
Y387071D01*
X117992D01*
Y387511D01*
X117881D01*
Y389492D01*
X117771D01*
Y391693D01*
X117661D01*
Y393785D01*
X117551D01*
Y394995D01*
X118652D01*
Y395106D01*
X119973D01*
Y393895D01*
X120083D01*
Y391693D01*
X120193D01*
Y390483D01*
X120303D01*
Y390923D01*
X120413D01*
Y391253D01*
X120523D01*
Y391473D01*
X120633D01*
Y391693D01*
X120743D01*
Y391804D01*
X120853D01*
Y392024D01*
X120963D01*
Y392244D01*
X121073D01*
Y392464D01*
X121183D01*
Y392684D01*
X121293D01*
Y392904D01*
X121404D01*
Y393014D01*
X121514D01*
Y393234D01*
X121624D01*
Y393455D01*
X121734D01*
Y393675D01*
X121844D01*
Y393895D01*
X121954D01*
Y394115D01*
X122064D01*
Y394335D01*
X122174D01*
Y394555D01*
X122284D01*
Y394775D01*
X122394D01*
Y394995D01*
X122504D01*
Y395106D01*
X122614D01*
Y395215D01*
X122944D01*
Y395326D01*
X124926D01*
Y395436D01*
X125036D01*
Y394445D01*
D02*
G37*
G36*
X161028Y396646D02*
X161578D01*
Y396536D01*
X161908D01*
Y396426D01*
X162128D01*
Y396316D01*
X162348D01*
Y396206D01*
X162568D01*
Y396096D01*
X162679D01*
Y395986D01*
X162899D01*
Y395876D01*
X163009D01*
Y395766D01*
X163119D01*
Y395656D01*
X163229D01*
Y395546D01*
X163339D01*
Y395436D01*
X163449D01*
Y395326D01*
X163559D01*
Y395106D01*
X163669D01*
Y394995D01*
X163779D01*
Y394775D01*
X163889D01*
Y394555D01*
X163999D01*
Y394225D01*
X164109D01*
Y393895D01*
X164219D01*
Y393124D01*
X164329D01*
Y392244D01*
X164219D01*
Y391473D01*
X164109D01*
Y391033D01*
X163999D01*
Y390703D01*
X163889D01*
Y390483D01*
X163779D01*
Y390262D01*
X163669D01*
Y390042D01*
X163559D01*
Y389932D01*
X163449D01*
Y389712D01*
X163339D01*
Y389602D01*
X163229D01*
Y389492D01*
X163119D01*
Y389382D01*
X163009D01*
Y389272D01*
X162899D01*
Y389162D01*
X162789D01*
Y389052D01*
X162568D01*
Y388942D01*
X162458D01*
Y388832D01*
X162238D01*
Y388722D01*
X162018D01*
Y388611D01*
X161688D01*
Y388502D01*
X161248D01*
Y388391D01*
X159267D01*
Y388502D01*
X158716D01*
Y388611D01*
X158386D01*
Y388722D01*
X158166D01*
Y388832D01*
X157946D01*
Y388942D01*
X157836D01*
Y389052D01*
X157615D01*
Y389162D01*
X157505D01*
Y389272D01*
X157395D01*
Y389382D01*
X157285D01*
Y389492D01*
X157175D01*
Y389602D01*
X157065D01*
Y389712D01*
X156955D01*
Y389822D01*
X156845D01*
Y390042D01*
X156735D01*
Y390153D01*
X156625D01*
Y390483D01*
X156515D01*
Y390813D01*
X156405D01*
Y391253D01*
X156295D01*
Y391913D01*
X156405D01*
Y391804D01*
X158496D01*
Y391693D01*
X158716D01*
Y391363D01*
X158826D01*
Y391033D01*
X158936D01*
Y390813D01*
X159046D01*
Y390703D01*
X159156D01*
Y390593D01*
X159376D01*
Y390483D01*
X159597D01*
Y390373D01*
X160587D01*
Y390483D01*
X160917D01*
Y390593D01*
X161028D01*
Y390703D01*
X161138D01*
Y390813D01*
X161248D01*
Y390923D01*
X161358D01*
Y391143D01*
X161468D01*
Y391473D01*
X161578D01*
Y391583D01*
Y391804D01*
X161688D01*
Y393675D01*
X161578D01*
Y394005D01*
X161468D01*
Y394115D01*
X161358D01*
Y394335D01*
X161248D01*
Y394445D01*
X161138D01*
Y394555D01*
X160917D01*
Y394665D01*
X160697D01*
Y394775D01*
X159707D01*
Y394665D01*
X159487D01*
Y394555D01*
X159267D01*
Y394445D01*
X159156D01*
Y394225D01*
X159046D01*
Y394005D01*
X158936D01*
Y393675D01*
X158826D01*
Y393564D01*
X158716D01*
Y393675D01*
X156845D01*
Y393785D01*
X156515D01*
Y394335D01*
X156625D01*
Y394665D01*
X156735D01*
Y394995D01*
X156845D01*
Y395215D01*
X156955D01*
Y395326D01*
X157065D01*
Y395546D01*
X157175D01*
Y395656D01*
X157285D01*
Y395766D01*
X157395D01*
Y395876D01*
X157505D01*
Y395986D01*
X157615D01*
Y396096D01*
X157836D01*
Y396206D01*
X157946D01*
Y396316D01*
X158166D01*
Y396426D01*
X158496D01*
Y396536D01*
X158716D01*
Y396646D01*
X159267D01*
Y396757D01*
X161028D01*
Y396646D01*
D02*
G37*
G36*
X142426Y396866D02*
X143307D01*
Y396757D01*
X143637D01*
Y396646D01*
X143967D01*
Y396536D01*
X144187D01*
Y396426D01*
X144408D01*
Y396316D01*
X144517D01*
Y396206D01*
X144628D01*
Y396096D01*
X144848D01*
Y395986D01*
X144958D01*
Y395876D01*
X145068D01*
Y395766D01*
X145178D01*
Y395656D01*
X145288D01*
Y395546D01*
X145398D01*
Y395326D01*
X145508D01*
Y395215D01*
X145618D01*
Y394995D01*
X145728D01*
Y394775D01*
X145838D01*
Y394555D01*
X145948D01*
Y394115D01*
X146059D01*
Y393675D01*
X146168D01*
Y391693D01*
X146059D01*
Y391253D01*
X145948D01*
Y390923D01*
X145838D01*
Y390593D01*
X145728D01*
Y390373D01*
X145618D01*
Y390262D01*
X145508D01*
Y390042D01*
X145398D01*
Y389932D01*
X145288D01*
Y389822D01*
X145178D01*
Y389712D01*
X145068D01*
Y389602D01*
X144958D01*
Y389492D01*
X144848D01*
Y389382D01*
X144738D01*
Y389272D01*
X144517D01*
Y389162D01*
X144408D01*
Y389052D01*
X144187D01*
Y388942D01*
X143967D01*
Y388832D01*
X143637D01*
Y388722D01*
X143307D01*
Y388611D01*
X142646D01*
Y388502D01*
X141436D01*
Y388611D01*
X140775D01*
Y388722D01*
X140445D01*
Y388832D01*
X140115D01*
Y388942D01*
X139895D01*
Y389052D01*
X139675D01*
Y389162D01*
X139565D01*
Y389272D01*
X139344D01*
Y389382D01*
X139234D01*
Y389492D01*
X139124D01*
Y389602D01*
X139014D01*
Y389712D01*
X138904D01*
Y389932D01*
X138794D01*
Y390042D01*
X138684D01*
Y390153D01*
X138574D01*
Y390373D01*
X138464D01*
Y390483D01*
X138354D01*
Y390813D01*
X138244D01*
Y391033D01*
X138134D01*
Y391473D01*
X138024D01*
Y392024D01*
X137914D01*
Y393564D01*
X138024D01*
Y394115D01*
X138134D01*
Y394555D01*
X138244D01*
Y394775D01*
X138354D01*
Y394995D01*
X138464D01*
Y395215D01*
X138574D01*
Y395326D01*
X138684D01*
Y395436D01*
X138794D01*
Y395656D01*
X138904D01*
Y395766D01*
X139014D01*
Y395876D01*
X139124D01*
Y395986D01*
X139344D01*
Y396096D01*
X139454D01*
Y396206D01*
X139565D01*
Y396316D01*
X139785D01*
Y396426D01*
X140005D01*
Y396536D01*
X140225D01*
Y396646D01*
X140555D01*
Y396757D01*
X140885D01*
Y396866D01*
X141766D01*
Y396977D01*
X142426D01*
Y396866D01*
D02*
G37*
G36*
X132630Y395656D02*
X132740D01*
Y394005D01*
X132851D01*
Y392464D01*
X132961D01*
Y390813D01*
X133071D01*
Y389382D01*
X133181D01*
Y388171D01*
X132080D01*
Y388061D01*
X130539D01*
Y387951D01*
X128998D01*
Y387841D01*
X127457D01*
Y387731D01*
X126687D01*
Y388722D01*
X126577D01*
Y389712D01*
X128228D01*
Y389822D01*
X129769D01*
Y389932D01*
X130539D01*
Y390593D01*
X130429D01*
Y391143D01*
X128998D01*
Y391033D01*
X127347D01*
Y390923D01*
X127237D01*
Y391473D01*
X127127D01*
Y392794D01*
X128228D01*
Y392904D01*
X129769D01*
Y393014D01*
X130319D01*
Y393675D01*
X130209D01*
Y394115D01*
X130099D01*
Y394005D01*
X128448D01*
Y393895D01*
X126797D01*
Y393785D01*
X126467D01*
Y394115D01*
X126356D01*
Y395546D01*
X126247D01*
Y395656D01*
X126577D01*
Y395766D01*
X128118D01*
Y395876D01*
X129658D01*
Y395986D01*
X131200D01*
Y396096D01*
X132630D01*
Y395656D01*
D02*
G37*
G36*
X174786Y395326D02*
X175886D01*
Y395215D01*
X176327D01*
Y394885D01*
X176217D01*
Y393895D01*
X176107D01*
Y392794D01*
X175997D01*
Y392574D01*
X176107D01*
Y392464D01*
X177097D01*
Y392354D01*
X178088D01*
Y392244D01*
X178418D01*
Y392794D01*
X178528D01*
Y393785D01*
X178638D01*
Y394885D01*
X178748D01*
Y394995D01*
X178968D01*
Y394885D01*
X180069D01*
Y394775D01*
X181170D01*
Y394665D01*
X181280D01*
Y394555D01*
X181170D01*
Y393564D01*
X181060D01*
Y392574D01*
X180950D01*
Y391473D01*
X180840D01*
Y390373D01*
X180730D01*
Y389382D01*
X180619D01*
Y388391D01*
X180509D01*
Y387291D01*
X180399D01*
Y386740D01*
X180179D01*
Y386851D01*
X179188D01*
Y386960D01*
X178088D01*
Y387071D01*
X177868D01*
Y387511D01*
X177978D01*
Y388611D01*
X178088D01*
Y389712D01*
X178198D01*
Y390153D01*
X177207D01*
Y390262D01*
X176217D01*
Y390373D01*
X175777D01*
Y389712D01*
X175666D01*
Y388611D01*
X175556D01*
Y387621D01*
X175446D01*
Y387291D01*
X175006D01*
Y387401D01*
X173905D01*
Y387511D01*
X173025D01*
Y387621D01*
X172915D01*
Y387841D01*
X173025D01*
Y388942D01*
X173135D01*
Y389932D01*
X173245D01*
Y390923D01*
X173355D01*
Y392024D01*
X173465D01*
Y393124D01*
X173575D01*
Y394115D01*
X173685D01*
Y394225D01*
Y395106D01*
X173795D01*
Y395436D01*
X174786D01*
Y395326D01*
D02*
G37*
G36*
X144077Y385089D02*
X144297D01*
Y384869D01*
X144408D01*
Y384759D01*
X144517D01*
Y384649D01*
X144628D01*
Y384429D01*
X144738D01*
Y384209D01*
X144848D01*
Y383989D01*
X144958D01*
Y383879D01*
X145068D01*
Y383658D01*
X145178D01*
Y383438D01*
X145288D01*
Y383328D01*
X145398D01*
Y383108D01*
X145508D01*
Y382998D01*
X146389D01*
Y382888D01*
X147819D01*
Y382778D01*
X155304D01*
Y382888D01*
X155414D01*
Y382778D01*
X155524D01*
Y382888D01*
X161798D01*
Y382998D01*
X161908D01*
Y382888D01*
X162018D01*
Y382998D01*
X162238D01*
Y382888D01*
X162348D01*
Y382998D01*
X163449D01*
Y382888D01*
X163889D01*
Y382778D01*
X164219D01*
Y382668D01*
X164440D01*
Y382558D01*
X164550D01*
Y382448D01*
X164770D01*
Y382338D01*
X164880D01*
Y382228D01*
X165100D01*
Y382118D01*
X165210D01*
Y382007D01*
X165320D01*
Y381898D01*
X165430D01*
Y381787D01*
X165540D01*
Y381677D01*
X165650D01*
Y381567D01*
X165760D01*
Y381457D01*
X165870D01*
Y381347D01*
X165980D01*
Y381237D01*
X166091D01*
Y381127D01*
X166201D01*
Y380907D01*
X166311D01*
Y380797D01*
X166421D01*
Y380687D01*
X166531D01*
Y380467D01*
X166641D01*
Y380247D01*
X166751D01*
Y380026D01*
X166861D01*
Y379806D01*
X166971D01*
Y378926D01*
X166861D01*
Y378705D01*
X166641D01*
Y378596D01*
X166531D01*
Y378485D01*
X166201D01*
Y378375D01*
X165540D01*
Y378265D01*
X164109D01*
Y378155D01*
X160257D01*
Y378045D01*
X160147D01*
Y378155D01*
X160037D01*
Y378045D01*
X154754D01*
Y377935D01*
X152442D01*
Y377825D01*
X150791D01*
Y377715D01*
X149361D01*
Y377825D01*
X148040D01*
Y377935D01*
X147379D01*
Y378045D01*
X146939D01*
Y378155D01*
X146499D01*
Y378265D01*
X146168D01*
Y378375D01*
X145948D01*
Y378485D01*
X145618D01*
Y378596D01*
X145398D01*
Y378705D01*
X145288D01*
Y378816D01*
X145068D01*
Y378926D01*
X144848D01*
Y379036D01*
X144738D01*
Y379146D01*
X144628D01*
Y379256D01*
X144517D01*
Y379366D01*
X144408D01*
Y379476D01*
X144297D01*
Y379586D01*
X144187D01*
Y379696D01*
X144077D01*
Y379806D01*
X143967D01*
Y379916D01*
X143857D01*
Y380136D01*
X143747D01*
Y380356D01*
X143637D01*
Y380577D01*
X143527D01*
Y380797D01*
X143417D01*
Y381127D01*
X143307D01*
Y381787D01*
X143197D01*
Y383218D01*
X143307D01*
Y383879D01*
X143417D01*
Y384319D01*
X143527D01*
Y384759D01*
X143637D01*
Y385089D01*
X143747D01*
Y385200D01*
X144077D01*
Y385089D01*
D02*
G37*
G36*
X150021Y376834D02*
X151232D01*
Y376724D01*
X151342D01*
Y376174D01*
X151452D01*
Y375734D01*
X151562D01*
Y375404D01*
X151672D01*
Y375073D01*
X151782D01*
Y374743D01*
X151892D01*
Y374523D01*
X152002D01*
Y374303D01*
X152112D01*
Y374083D01*
X152222D01*
Y373973D01*
X152332D01*
Y373753D01*
X152442D01*
Y373643D01*
X152552D01*
Y373422D01*
X152662D01*
Y373312D01*
X152773D01*
Y373202D01*
X152883D01*
Y373092D01*
X152993D01*
Y372982D01*
X153103D01*
Y372872D01*
X153213D01*
Y372762D01*
X153323D01*
Y372652D01*
X153433D01*
Y372542D01*
X153543D01*
Y372432D01*
X153653D01*
Y372322D01*
X153873D01*
Y372212D01*
X153983D01*
Y372102D01*
X154093D01*
Y371992D01*
X154313D01*
Y371881D01*
X154424D01*
Y371771D01*
X154644D01*
Y371661D01*
X154754D01*
Y371551D01*
X154974D01*
Y371441D01*
X155084D01*
Y371331D01*
X155304D01*
Y371221D01*
X155524D01*
Y371001D01*
X155414D01*
Y370781D01*
X155304D01*
Y370671D01*
X155194D01*
Y370451D01*
X155084D01*
Y370340D01*
X154974D01*
Y370120D01*
X154864D01*
Y370010D01*
X154754D01*
Y369900D01*
X154644D01*
Y369790D01*
X154534D01*
Y369570D01*
X154424D01*
Y369460D01*
X154313D01*
Y369350D01*
X154203D01*
Y369240D01*
X154093D01*
Y369130D01*
X153983D01*
Y369020D01*
X153873D01*
Y368910D01*
X153763D01*
Y368800D01*
X153653D01*
Y368689D01*
X153543D01*
Y368579D01*
X153323D01*
Y368469D01*
X153213D01*
Y368359D01*
X153103D01*
Y368249D01*
X152993D01*
Y368139D01*
X152773D01*
Y368029D01*
X152662D01*
Y367919D01*
X152552D01*
Y367809D01*
X152332D01*
Y367699D01*
X152222D01*
Y367589D01*
X151672D01*
Y367699D01*
X151232D01*
Y367809D01*
X151011D01*
Y367919D01*
X150791D01*
Y368029D01*
X150571D01*
Y368139D01*
X150351D01*
Y368249D01*
X150131D01*
Y368359D01*
X149911D01*
Y368469D01*
X149801D01*
Y368579D01*
X149691D01*
Y368689D01*
X149471D01*
Y368800D01*
X149361D01*
Y368910D01*
X149250D01*
Y369020D01*
X149030D01*
Y369130D01*
X148920D01*
Y369240D01*
X148810D01*
Y369350D01*
X148700D01*
Y369460D01*
X148590D01*
Y369570D01*
X148480D01*
Y369680D01*
X148370D01*
Y369790D01*
X148260D01*
Y369900D01*
X148150D01*
Y370010D01*
X148040D01*
Y370120D01*
X147930D01*
Y370230D01*
X147819D01*
Y370340D01*
X147710D01*
Y370561D01*
X147599D01*
Y370671D01*
X147489D01*
Y370781D01*
X147379D01*
Y370891D01*
X147269D01*
Y371111D01*
X147159D01*
Y371221D01*
X147049D01*
Y371441D01*
X146939D01*
Y371551D01*
X146829D01*
Y371771D01*
X146719D01*
Y371881D01*
X146609D01*
Y372102D01*
X146499D01*
Y372322D01*
X146389D01*
Y372542D01*
X146279D01*
Y372762D01*
X146168D01*
Y372982D01*
X146059D01*
Y373312D01*
X145948D01*
Y373643D01*
X145838D01*
Y373973D01*
X145728D01*
Y374633D01*
X145618D01*
Y375514D01*
X145728D01*
Y376064D01*
X145838D01*
Y376394D01*
X145948D01*
Y376614D01*
X146059D01*
Y376834D01*
X146829D01*
Y376945D01*
X146939D01*
Y376834D01*
X147049D01*
Y376945D01*
X149801D01*
Y376834D01*
X149911D01*
Y376945D01*
X150021D01*
Y376834D01*
D02*
G37*
G36*
X160147Y377165D02*
X160367D01*
Y377054D01*
X160477D01*
Y376945D01*
X160587D01*
Y376724D01*
X160697D01*
Y376504D01*
X160807D01*
Y375514D01*
X160697D01*
Y375294D01*
X160587D01*
Y375183D01*
X160477D01*
Y374963D01*
X160367D01*
Y374853D01*
X160257D01*
Y374743D01*
X160147D01*
Y374633D01*
X160037D01*
Y374523D01*
X159927D01*
Y374413D01*
X159817D01*
Y374303D01*
X159597D01*
Y374193D01*
X159487D01*
Y374083D01*
X159267D01*
Y373973D01*
X159156D01*
Y373863D01*
X158936D01*
Y373753D01*
X158716D01*
Y373643D01*
X158496D01*
Y373532D01*
X158276D01*
Y373422D01*
X158056D01*
Y373312D01*
X157725D01*
Y373202D01*
X156295D01*
Y373312D01*
X155854D01*
Y373422D01*
X155524D01*
Y373532D01*
X155304D01*
Y373643D01*
X155084D01*
Y373753D01*
X154864D01*
Y373863D01*
X154644D01*
Y373973D01*
X154534D01*
Y374083D01*
X154313D01*
Y374193D01*
X154203D01*
Y374303D01*
X154093D01*
Y374413D01*
X153983D01*
Y374523D01*
X153873D01*
Y374633D01*
X153763D01*
Y374743D01*
X153653D01*
Y374963D01*
X153543D01*
Y375183D01*
X153433D01*
Y375404D01*
X153323D01*
Y375844D01*
X153213D01*
Y376394D01*
Y376504D01*
X153323D01*
Y376834D01*
X153433D01*
Y377054D01*
X153543D01*
Y377165D01*
X153763D01*
Y377275D01*
X154424D01*
Y377165D01*
X154754D01*
Y377054D01*
X154974D01*
Y376945D01*
X155194D01*
Y376834D01*
X155304D01*
Y376724D01*
X155524D01*
Y376614D01*
X155634D01*
Y376504D01*
X155744D01*
Y376394D01*
X155854D01*
Y376284D01*
X156074D01*
Y376174D01*
X156185D01*
Y376064D01*
X156405D01*
Y375954D01*
X156845D01*
Y375844D01*
X156955D01*
Y375954D01*
X157505D01*
Y376064D01*
X157725D01*
Y376174D01*
X157946D01*
Y376284D01*
X158056D01*
Y376394D01*
X158276D01*
Y376504D01*
X158386D01*
Y376614D01*
X158606D01*
Y376724D01*
X158716D01*
Y376834D01*
X158936D01*
Y376945D01*
X159046D01*
Y377054D01*
X159267D01*
Y377165D01*
X159487D01*
Y377275D01*
X160147D01*
Y377165D01*
D02*
G37*
G36*
X135382Y380467D02*
X138464D01*
Y380356D01*
X140885D01*
Y380247D01*
X142646D01*
Y379806D01*
X142757D01*
Y379036D01*
X142866D01*
Y377385D01*
X142977D01*
Y374963D01*
X142757D01*
Y374853D01*
X142316D01*
Y374743D01*
X141876D01*
Y374633D01*
X141436D01*
Y374523D01*
X140995D01*
Y374413D01*
X140445D01*
Y374303D01*
X140005D01*
Y374193D01*
X139565D01*
Y374083D01*
X139124D01*
Y373973D01*
X138684D01*
Y373863D01*
X138134D01*
Y373753D01*
X137693D01*
Y373643D01*
X137143D01*
Y373532D01*
X136703D01*
Y373422D01*
X136152D01*
Y373312D01*
X135602D01*
Y373202D01*
X135052D01*
Y373092D01*
X134501D01*
Y372982D01*
X134061D01*
Y372872D01*
X133401D01*
Y372762D01*
X132851D01*
Y372652D01*
X132300D01*
Y372542D01*
X131640D01*
Y372432D01*
X131089D01*
Y372322D01*
X130539D01*
Y372212D01*
X129879D01*
Y372102D01*
X129218D01*
Y371992D01*
X128668D01*
Y371881D01*
X128007D01*
Y371771D01*
X127347D01*
Y371661D01*
X126687D01*
Y371551D01*
X126026D01*
Y371441D01*
X125366D01*
Y371331D01*
X124705D01*
Y371221D01*
X124045D01*
Y371111D01*
X123495D01*
Y371221D01*
X123165D01*
Y371331D01*
X122944D01*
Y371441D01*
X122834D01*
Y371551D01*
X122724D01*
Y371661D01*
X122614D01*
Y371771D01*
X122504D01*
Y371881D01*
X122394D01*
Y372102D01*
X122284D01*
Y372322D01*
X122174D01*
Y372542D01*
X122064D01*
Y372762D01*
X121954D01*
Y373092D01*
X121844D01*
Y373422D01*
X121734D01*
Y373753D01*
X121624D01*
Y374303D01*
X121514D01*
Y374963D01*
X121404D01*
Y377715D01*
X121514D01*
Y378375D01*
X121624D01*
Y378816D01*
X121734D01*
Y379146D01*
X121844D01*
Y379366D01*
X121954D01*
Y379586D01*
X122064D01*
Y379806D01*
X122174D01*
Y379916D01*
X122284D01*
Y380026D01*
X122394D01*
Y380247D01*
X122614D01*
Y380356D01*
X122724D01*
Y380467D01*
X123055D01*
Y380577D01*
X135382D01*
Y380467D01*
D02*
G37*
G36*
X165320Y376394D02*
X166971D01*
Y376284D01*
X168072D01*
Y376174D01*
X169062D01*
Y376064D01*
X169943D01*
Y375954D01*
X170713D01*
Y375844D01*
X171374D01*
Y375734D01*
X172034D01*
Y375624D01*
X172695D01*
Y375514D01*
X173245D01*
Y375404D01*
X173905D01*
Y375294D01*
X174346D01*
Y375183D01*
X174896D01*
Y375073D01*
X175446D01*
Y374963D01*
X175777D01*
Y374853D01*
X175997D01*
Y374743D01*
X176217D01*
Y374633D01*
X176437D01*
Y374523D01*
X176547D01*
Y374413D01*
X176767D01*
Y374303D01*
X176877D01*
Y374193D01*
X176987D01*
Y374083D01*
X177097D01*
Y373863D01*
X177207D01*
Y373753D01*
X177317D01*
Y373532D01*
X177428D01*
Y373312D01*
X177537D01*
Y372982D01*
X177648D01*
Y372542D01*
X177758D01*
Y371771D01*
X177868D01*
Y370010D01*
X177758D01*
Y368359D01*
X176987D01*
Y368469D01*
X176657D01*
Y368579D01*
X176437D01*
Y368689D01*
X176327D01*
Y368800D01*
X176217D01*
Y368910D01*
X176107D01*
Y369020D01*
X175997D01*
Y369130D01*
X175886D01*
Y369240D01*
X175666D01*
Y369350D01*
X174456D01*
Y369240D01*
X173685D01*
Y369130D01*
X172805D01*
Y369020D01*
X172034D01*
Y368910D01*
X171264D01*
Y368800D01*
X170603D01*
Y368689D01*
X169833D01*
Y368579D01*
X169062D01*
Y368469D01*
X168402D01*
Y368359D01*
X167742D01*
Y368249D01*
X166971D01*
Y368139D01*
X166311D01*
Y368029D01*
X165650D01*
Y367919D01*
X164990D01*
Y367809D01*
X164329D01*
Y367699D01*
X163559D01*
Y367589D01*
X162899D01*
Y367479D01*
X162348D01*
Y367369D01*
X161688D01*
Y367259D01*
X161028D01*
Y367149D01*
X160477D01*
Y367038D01*
X159817D01*
Y366928D01*
X159267D01*
Y366818D01*
X158606D01*
Y366708D01*
X158056D01*
Y366598D01*
X157505D01*
Y366488D01*
X156955D01*
Y366378D01*
X156405D01*
Y366268D01*
X155744D01*
Y366158D01*
X154974D01*
Y366268D01*
X154644D01*
Y366378D01*
X154534D01*
Y366488D01*
X154424D01*
Y367038D01*
X154534D01*
Y367149D01*
X154644D01*
Y367259D01*
X154754D01*
Y367369D01*
X154864D01*
Y367479D01*
X154974D01*
Y367589D01*
X155084D01*
Y367699D01*
X155194D01*
Y367809D01*
X155304D01*
Y367919D01*
X155414D01*
Y368029D01*
X155524D01*
Y368139D01*
X155634D01*
Y368249D01*
X155744D01*
Y368359D01*
X155854D01*
Y368469D01*
X155964D01*
Y368579D01*
X156074D01*
Y368689D01*
X156185D01*
Y368800D01*
X156295D01*
Y369020D01*
X156515D01*
Y369240D01*
X156735D01*
Y369460D01*
X156955D01*
Y369680D01*
X157065D01*
Y369790D01*
X157175D01*
Y369900D01*
X157285D01*
Y370010D01*
X157395D01*
Y370120D01*
X157505D01*
Y370230D01*
X157615D01*
Y370340D01*
X157725D01*
Y370451D01*
X157836D01*
Y370561D01*
X157946D01*
Y370671D01*
X158056D01*
Y370781D01*
X158166D01*
Y370891D01*
X158276D01*
Y371001D01*
X158386D01*
Y371111D01*
X158496D01*
Y371221D01*
X158606D01*
Y371331D01*
X158716D01*
Y371441D01*
X158826D01*
Y371551D01*
X158936D01*
Y371661D01*
X159046D01*
Y371771D01*
X159156D01*
Y371881D01*
X159267D01*
Y371992D01*
X159376D01*
Y372102D01*
X159487D01*
Y372212D01*
X159597D01*
Y372322D01*
X159707D01*
Y372432D01*
X159817D01*
Y372542D01*
X159927D01*
Y372652D01*
X160037D01*
Y372762D01*
X160147D01*
Y372872D01*
X160257D01*
Y372982D01*
X160367D01*
Y373092D01*
X160477D01*
Y373202D01*
X160587D01*
Y373312D01*
X160697D01*
Y373422D01*
X160807D01*
Y373532D01*
X160917D01*
Y373643D01*
X161028D01*
Y373753D01*
X161138D01*
Y373863D01*
X161248D01*
Y373973D01*
X161358D01*
Y374083D01*
X161468D01*
Y374193D01*
X161578D01*
Y374303D01*
X161688D01*
Y374413D01*
X161798D01*
Y374523D01*
X161908D01*
Y374633D01*
X162018D01*
Y374743D01*
X162238D01*
Y374963D01*
X162458D01*
Y375073D01*
X162568D01*
Y375183D01*
X162679D01*
Y375294D01*
X162789D01*
Y375404D01*
X162899D01*
Y375514D01*
X163119D01*
Y375624D01*
X163229D01*
Y375734D01*
X163339D01*
Y375844D01*
X163449D01*
Y375954D01*
X163559D01*
Y376064D01*
X163779D01*
Y376174D01*
X163889D01*
Y376284D01*
X163999D01*
Y376394D01*
X164219D01*
Y376504D01*
X165320D01*
Y376394D01*
D02*
G37*
G36*
X164109Y365608D02*
X164329D01*
Y365498D01*
X164440D01*
Y365167D01*
X164219D01*
Y365057D01*
X163889D01*
Y364947D01*
X163559D01*
Y364837D01*
X163119D01*
Y364727D01*
X162789D01*
Y364617D01*
X162458D01*
Y364507D01*
X162128D01*
Y364397D01*
X161798D01*
Y364287D01*
X161358D01*
Y364177D01*
X161028D01*
Y364067D01*
X160697D01*
Y363957D01*
X160257D01*
Y363847D01*
X159927D01*
Y363736D01*
X159597D01*
Y363626D01*
X159267D01*
Y363516D01*
X158826D01*
Y363406D01*
X158496D01*
Y363296D01*
X158166D01*
Y363186D01*
X157836D01*
Y363076D01*
X157395D01*
Y362966D01*
X157065D01*
Y362856D01*
X156735D01*
Y362746D01*
X156405D01*
Y362636D01*
X155964D01*
Y362526D01*
X155634D01*
Y362416D01*
X155304D01*
Y362306D01*
X154974D01*
Y362196D01*
X154534D01*
Y362085D01*
X154203D01*
Y361975D01*
X153873D01*
Y361865D01*
X153433D01*
Y361755D01*
X153103D01*
Y361645D01*
X152773D01*
Y361535D01*
X152442D01*
Y361425D01*
X152002D01*
Y361315D01*
X151672D01*
Y361205D01*
X151342D01*
Y361095D01*
X151011D01*
Y360985D01*
X150571D01*
Y360875D01*
X150241D01*
Y360765D01*
X149911D01*
Y360655D01*
X149361D01*
Y360545D01*
X148810D01*
Y361095D01*
X148920D01*
Y361425D01*
X149030D01*
Y361755D01*
X149140D01*
Y361975D01*
X149250D01*
Y362085D01*
X149361D01*
Y362196D01*
Y362306D01*
X149471D01*
Y362416D01*
X149581D01*
Y362526D01*
X149691D01*
Y362636D01*
X149801D01*
Y362746D01*
X149911D01*
Y362856D01*
X150021D01*
Y362966D01*
X150131D01*
Y363076D01*
X150241D01*
Y363186D01*
X150351D01*
Y363296D01*
X150571D01*
Y363406D01*
X150681D01*
Y363516D01*
X150901D01*
Y363626D01*
X151122D01*
Y363736D01*
X151342D01*
Y363847D01*
X151562D01*
Y363957D01*
X151782D01*
Y364067D01*
X152002D01*
Y364177D01*
X152332D01*
Y364287D01*
X152552D01*
Y364397D01*
X152993D01*
Y364507D01*
X153323D01*
Y364617D01*
X153763D01*
Y364727D01*
X154203D01*
Y364837D01*
X154754D01*
Y364947D01*
X155414D01*
Y365057D01*
X156295D01*
Y365167D01*
X157395D01*
Y365277D01*
X160477D01*
Y365387D01*
X161248D01*
Y365498D01*
X161798D01*
Y365608D01*
X162568D01*
Y365718D01*
X164109D01*
Y365608D01*
D02*
G37*
G36*
X143857Y372652D02*
X143967D01*
Y372542D01*
X144077D01*
Y372432D01*
X144187D01*
Y372322D01*
X144297D01*
Y372102D01*
X144408D01*
Y371881D01*
X144517D01*
Y371771D01*
X144628D01*
Y371551D01*
X144738D01*
Y371331D01*
X144848D01*
Y371001D01*
X144958D01*
Y370781D01*
X145068D01*
Y370451D01*
X145178D01*
Y369900D01*
X145288D01*
Y369350D01*
X145178D01*
Y369020D01*
X145068D01*
Y368910D01*
X144848D01*
Y368800D01*
X144628D01*
Y368689D01*
X144408D01*
Y368579D01*
X144187D01*
Y368469D01*
X144077D01*
Y368359D01*
X143857D01*
Y368249D01*
X143637D01*
Y368139D01*
X143417D01*
Y368029D01*
X143197D01*
Y367919D01*
X142977D01*
Y367809D01*
X142866D01*
Y367699D01*
X142646D01*
Y367589D01*
X142426D01*
Y367479D01*
X142206D01*
Y367369D01*
X141986D01*
Y367259D01*
X141766D01*
Y367149D01*
X141546D01*
Y367038D01*
X141326D01*
Y366928D01*
X141105D01*
Y366818D01*
X140885D01*
Y366708D01*
X140665D01*
Y366598D01*
X140445D01*
Y366488D01*
X140335D01*
Y366378D01*
X140115D01*
Y366268D01*
X139895D01*
Y366158D01*
X139675D01*
Y366048D01*
X139454D01*
Y365938D01*
X139234D01*
Y365828D01*
X139014D01*
Y365718D01*
X138794D01*
Y365608D01*
X138574D01*
Y365498D01*
X138354D01*
Y365387D01*
X138134D01*
Y365277D01*
X137914D01*
Y365167D01*
X137693D01*
Y365057D01*
X137473D01*
Y364947D01*
X137253D01*
Y364837D01*
X137033D01*
Y364727D01*
X136813D01*
Y364617D01*
X136593D01*
Y364507D01*
X136373D01*
Y364397D01*
X136152D01*
Y364287D01*
X135932D01*
Y364177D01*
X135712D01*
Y364067D01*
X135492D01*
Y363957D01*
X135272D01*
Y363847D01*
X135052D01*
Y363736D01*
X134832D01*
Y363626D01*
X134612D01*
Y363516D01*
X134391D01*
Y363406D01*
X134171D01*
Y363296D01*
X133951D01*
Y363186D01*
X133731D01*
Y363076D01*
X133511D01*
Y362966D01*
X133291D01*
Y362856D01*
X133071D01*
Y362746D01*
X132851D01*
Y362636D01*
X132630D01*
Y362526D01*
X132410D01*
Y362416D01*
X132080D01*
Y362306D01*
X131860D01*
Y362196D01*
X131640D01*
Y362085D01*
X131420D01*
Y361975D01*
X131200D01*
Y361865D01*
X130979D01*
Y361755D01*
X130759D01*
Y361645D01*
X130429D01*
Y361535D01*
X130209D01*
Y361425D01*
X129989D01*
Y361315D01*
X129658D01*
Y361205D01*
X129438D01*
Y361095D01*
X129218D01*
Y360985D01*
X128998D01*
Y360875D01*
X128668D01*
Y360765D01*
X128338D01*
Y360655D01*
X128118D01*
Y360545D01*
X127787D01*
Y360434D01*
X126797D01*
Y360545D01*
X126577D01*
Y360655D01*
X126356D01*
Y360765D01*
X126247D01*
Y360875D01*
X126026D01*
Y360985D01*
X125916D01*
Y361095D01*
X125806D01*
Y361205D01*
X125696D01*
Y361315D01*
X125586D01*
Y361425D01*
X125476D01*
Y361645D01*
X125366D01*
Y361755D01*
X125256D01*
Y361865D01*
X125146D01*
Y361975D01*
X125036D01*
Y362196D01*
X124926D01*
Y362416D01*
X124816D01*
Y362526D01*
X124705D01*
Y362746D01*
X124595D01*
Y362966D01*
X124485D01*
Y363076D01*
X124375D01*
Y363296D01*
X124265D01*
Y363516D01*
X124155D01*
Y363847D01*
X124045D01*
Y364067D01*
X123935D01*
Y364397D01*
X123825D01*
Y364727D01*
X123715D01*
Y365057D01*
X123605D01*
Y365498D01*
X123495D01*
Y366268D01*
X123385D01*
Y367259D01*
X123495D01*
Y367809D01*
X123605D01*
Y368029D01*
X123715D01*
Y368249D01*
X123825D01*
Y368359D01*
X124045D01*
Y368469D01*
X124265D01*
Y368579D01*
X124485D01*
Y368689D01*
X124816D01*
Y368800D01*
X125256D01*
Y368910D01*
X125916D01*
Y369020D01*
X126467D01*
Y369130D01*
X127017D01*
Y369240D01*
X127457D01*
Y369350D01*
X128007D01*
Y369460D01*
X128448D01*
Y369570D01*
X128998D01*
Y369680D01*
X129438D01*
Y369790D01*
X129879D01*
Y369900D01*
X130319D01*
Y370010D01*
X130759D01*
Y370120D01*
X131200D01*
Y370230D01*
X131640D01*
Y370340D01*
X132080D01*
Y370451D01*
X132630D01*
Y370561D01*
X133071D01*
Y370671D01*
X133511D01*
Y370781D01*
X133951D01*
Y370891D01*
X134391D01*
Y371001D01*
X134832D01*
Y371111D01*
X135272D01*
Y371221D01*
X135712D01*
Y371331D01*
X136263D01*
Y371441D01*
X136703D01*
Y371551D01*
X137143D01*
Y371661D01*
X137583D01*
Y371771D01*
X138134D01*
Y371881D01*
X138574D01*
Y371992D01*
X139124D01*
Y372102D01*
X139675D01*
Y372212D01*
X140225D01*
Y372322D01*
X140775D01*
Y372432D01*
X141436D01*
Y372542D01*
X142206D01*
Y372652D01*
X143087D01*
Y372762D01*
X143857D01*
Y372652D01*
D02*
G37*
G36*
X146719Y367479D02*
X147049D01*
Y367369D01*
X147269D01*
Y367259D01*
X147489D01*
Y367149D01*
X147710D01*
Y367038D01*
X147819D01*
Y366928D01*
X147930D01*
Y366818D01*
X148040D01*
Y366708D01*
X148150D01*
Y366598D01*
X148260D01*
Y366488D01*
X148370D01*
Y366378D01*
X148480D01*
Y366268D01*
X148590D01*
Y366158D01*
X148700D01*
Y366048D01*
X148810D01*
Y365828D01*
X148920D01*
Y365718D01*
X149030D01*
Y365608D01*
X149140D01*
Y365387D01*
X149250D01*
Y365277D01*
X149361D01*
Y365057D01*
X149471D01*
Y364947D01*
X149361D01*
Y364727D01*
X149250D01*
Y364617D01*
X149140D01*
Y364397D01*
X149030D01*
Y364287D01*
X148920D01*
Y364177D01*
X148810D01*
Y364067D01*
X148700D01*
Y363957D01*
X148590D01*
Y363736D01*
X148480D01*
Y363626D01*
X148370D01*
Y363516D01*
X148260D01*
Y363406D01*
X148150D01*
Y363296D01*
X148040D01*
Y363186D01*
X147930D01*
Y363076D01*
X147819D01*
Y362966D01*
X147710D01*
Y362746D01*
X147599D01*
Y362636D01*
X147489D01*
Y362526D01*
X147379D01*
Y362416D01*
X147269D01*
Y362306D01*
X147159D01*
Y362196D01*
X147049D01*
Y362085D01*
X146939D01*
Y361975D01*
X146829D01*
Y361865D01*
X146719D01*
Y361755D01*
X146609D01*
Y361645D01*
X146499D01*
Y361535D01*
X146389D01*
Y361425D01*
X146279D01*
Y361315D01*
X146168D01*
Y361095D01*
X145948D01*
Y360875D01*
X145838D01*
Y360765D01*
X145728D01*
Y360655D01*
X145508D01*
Y360434D01*
X145398D01*
Y360324D01*
X145288D01*
Y360214D01*
X145178D01*
Y360104D01*
X145068D01*
Y359994D01*
X144958D01*
Y359884D01*
X144848D01*
Y359774D01*
X144738D01*
Y359664D01*
X144628D01*
Y359554D01*
X144517D01*
Y359444D01*
X144408D01*
Y359334D01*
X144297D01*
Y359224D01*
X144187D01*
Y359114D01*
X144077D01*
Y359004D01*
X143967D01*
Y358894D01*
X143747D01*
Y358673D01*
X143527D01*
Y358563D01*
X143417D01*
Y358453D01*
X143307D01*
Y358343D01*
X143197D01*
Y358233D01*
X143087D01*
Y358123D01*
X142977D01*
Y358013D01*
X142866D01*
Y357903D01*
X142757D01*
Y357793D01*
X142646D01*
Y357683D01*
X142536D01*
Y357573D01*
X142426D01*
Y357463D01*
X142316D01*
Y357353D01*
X142096D01*
Y357243D01*
X141986D01*
Y357132D01*
X141876D01*
Y357022D01*
X141766D01*
Y356912D01*
X141656D01*
Y356802D01*
X141546D01*
Y356692D01*
X141326D01*
Y356582D01*
X141215D01*
Y356472D01*
X141105D01*
Y356362D01*
X140995D01*
Y356252D01*
X140885D01*
Y356142D01*
X140665D01*
Y356032D01*
X140555D01*
Y355922D01*
X140445D01*
Y355812D01*
X140225D01*
Y355702D01*
X140115D01*
Y355592D01*
X139895D01*
Y355481D01*
X139785D01*
Y355371D01*
X139565D01*
Y355261D01*
X139344D01*
Y355151D01*
X139124D01*
Y355041D01*
X138904D01*
Y354931D01*
X136923D01*
Y354821D01*
X131309D01*
Y354931D01*
X130319D01*
Y355041D01*
X129879D01*
Y355151D01*
X129549D01*
Y355261D01*
X129328D01*
Y355371D01*
X129218D01*
Y355481D01*
X128998D01*
Y355592D01*
X128888D01*
Y355812D01*
X128778D01*
Y355922D01*
X128668D01*
Y356032D01*
X128558D01*
Y356142D01*
X128448D01*
Y356362D01*
X128338D01*
Y356582D01*
X128228D01*
Y356802D01*
X128118D01*
Y357132D01*
X128007D01*
Y357573D01*
X128118D01*
Y357683D01*
X128228D01*
Y357793D01*
X128338D01*
Y357903D01*
X128558D01*
Y358013D01*
X128668D01*
Y358123D01*
X128888D01*
Y358233D01*
X129108D01*
Y358343D01*
X129218D01*
Y358453D01*
X129438D01*
Y358563D01*
X129658D01*
Y358673D01*
X129769D01*
Y358783D01*
X129989D01*
Y358894D01*
X130209D01*
Y359004D01*
X130319D01*
Y359114D01*
X130539D01*
Y359224D01*
X130759D01*
Y359334D01*
X130869D01*
Y359444D01*
X131089D01*
Y359554D01*
X131309D01*
Y359664D01*
X131420D01*
Y359774D01*
X131640D01*
Y359884D01*
X131860D01*
Y359994D01*
X132080D01*
Y360104D01*
X132300D01*
Y360214D01*
X132410D01*
Y360324D01*
X132630D01*
Y360434D01*
X132851D01*
Y360545D01*
X133071D01*
Y360655D01*
X133181D01*
Y360765D01*
X133401D01*
Y360875D01*
X133621D01*
Y360985D01*
X133841D01*
Y361095D01*
X134061D01*
Y361205D01*
X134281D01*
Y361315D01*
X134391D01*
Y361425D01*
X134612D01*
Y361535D01*
X134832D01*
Y361645D01*
X135052D01*
Y361755D01*
X135272D01*
Y361865D01*
X135382D01*
Y361975D01*
X135602D01*
Y362085D01*
X135822D01*
Y362196D01*
X136042D01*
Y362306D01*
X136263D01*
Y362416D01*
X136483D01*
Y362526D01*
X136703D01*
Y362636D01*
X136923D01*
Y362746D01*
X137143D01*
Y362856D01*
X137363D01*
Y362966D01*
X137473D01*
Y363076D01*
X137693D01*
Y363186D01*
X137914D01*
Y363296D01*
X138134D01*
Y363406D01*
X138354D01*
Y363516D01*
X138574D01*
Y363626D01*
X138794D01*
Y363736D01*
X139014D01*
Y363847D01*
X139234D01*
Y363957D01*
X139344D01*
Y364067D01*
X139565D01*
Y364177D01*
X139785D01*
Y364287D01*
X140005D01*
Y364397D01*
X140225D01*
Y364507D01*
X140445D01*
Y364617D01*
X140665D01*
Y364727D01*
X140885D01*
Y364837D01*
X141105D01*
Y364947D01*
X141326D01*
Y365057D01*
X141546D01*
Y365167D01*
X141766D01*
Y365277D01*
X141986D01*
Y365387D01*
X142096D01*
Y365498D01*
X142316D01*
Y365608D01*
X142536D01*
Y365718D01*
X142757D01*
Y365828D01*
X142977D01*
Y365938D01*
X143197D01*
Y366048D01*
X143417D01*
Y366158D01*
X143637D01*
Y366268D01*
X143747D01*
Y366378D01*
X143967D01*
Y366488D01*
X144187D01*
Y366598D01*
X144408D01*
Y366708D01*
X144628D01*
Y366818D01*
X144848D01*
Y366928D01*
X145068D01*
Y367038D01*
X145288D01*
Y367149D01*
X145508D01*
Y367259D01*
X145728D01*
Y367369D01*
X145838D01*
Y367479D01*
X146168D01*
Y367589D01*
X146719D01*
Y367479D01*
D02*
G37*
G36*
X154754Y351629D02*
X154644D01*
Y351409D01*
X154534D01*
Y351189D01*
X154424D01*
Y351079D01*
X154313D01*
Y350859D01*
X154203D01*
Y350749D01*
X154093D01*
Y350528D01*
X153983D01*
Y350308D01*
X153873D01*
Y350198D01*
X153763D01*
Y349978D01*
X153653D01*
Y349868D01*
X153543D01*
Y349648D01*
X153433D01*
Y349428D01*
X153323D01*
Y349318D01*
X153213D01*
Y349098D01*
X153103D01*
Y348988D01*
X152993D01*
Y348767D01*
X152883D01*
Y348547D01*
X152773D01*
Y348437D01*
X152662D01*
Y348217D01*
X152552D01*
Y348107D01*
X152442D01*
Y347777D01*
X152552D01*
Y347557D01*
X152662D01*
Y347447D01*
X152773D01*
Y347226D01*
X152883D01*
Y347116D01*
X152993D01*
Y346896D01*
X153103D01*
Y346786D01*
X153213D01*
Y346566D01*
X153323D01*
Y346456D01*
X153433D01*
Y346346D01*
X153543D01*
Y346126D01*
X153653D01*
Y346016D01*
X153763D01*
Y345796D01*
X153873D01*
Y345686D01*
X153983D01*
Y345465D01*
X154093D01*
Y345355D01*
X154203D01*
Y345135D01*
X154313D01*
Y345025D01*
X154424D01*
Y344805D01*
X154534D01*
Y344695D01*
X154644D01*
Y344585D01*
X154754D01*
Y344365D01*
X154864D01*
Y344255D01*
X154974D01*
Y344035D01*
X155084D01*
Y343924D01*
X155194D01*
Y343814D01*
X152662D01*
Y343704D01*
X152552D01*
Y343814D01*
X152442D01*
Y343704D01*
X152332D01*
Y343814D01*
X152222D01*
Y343924D01*
X152112D01*
Y344145D01*
X152002D01*
Y344255D01*
X151892D01*
Y344475D01*
X151782D01*
Y344695D01*
X151672D01*
Y344915D01*
X151562D01*
Y345025D01*
X151452D01*
Y345245D01*
X151342D01*
Y345465D01*
X151232D01*
Y345575D01*
X151122D01*
Y345796D01*
X150901D01*
Y345575D01*
X150791D01*
Y345355D01*
X150681D01*
Y345245D01*
X150571D01*
Y345025D01*
X150461D01*
Y344805D01*
X150351D01*
Y344585D01*
X150241D01*
Y344365D01*
X150131D01*
Y344145D01*
X150021D01*
Y343924D01*
X149911D01*
Y343704D01*
X147049D01*
Y343924D01*
X147159D01*
Y344035D01*
X147269D01*
Y344255D01*
X147379D01*
Y344365D01*
X147489D01*
Y344585D01*
X147599D01*
Y344805D01*
X147710D01*
Y345025D01*
X147819D01*
Y345135D01*
X147930D01*
Y345355D01*
X148040D01*
Y345465D01*
X148150D01*
Y345686D01*
X148260D01*
Y345796D01*
X148370D01*
Y346016D01*
X148480D01*
Y346236D01*
X148590D01*
Y346346D01*
X148700D01*
Y346566D01*
X148810D01*
Y346786D01*
X148920D01*
Y346896D01*
X149030D01*
Y347116D01*
X149140D01*
Y347226D01*
X149250D01*
Y347447D01*
X149361D01*
Y347667D01*
X149471D01*
Y347777D01*
X149581D01*
Y347887D01*
X149471D01*
Y348107D01*
X149361D01*
Y348217D01*
X149250D01*
Y348327D01*
X149140D01*
Y348547D01*
X149030D01*
Y348657D01*
X148920D01*
Y348877D01*
X148810D01*
Y348988D01*
X148700D01*
Y349208D01*
X148590D01*
Y349318D01*
X148480D01*
Y349428D01*
X148370D01*
Y349648D01*
X148260D01*
Y349758D01*
X148150D01*
Y349978D01*
X148040D01*
Y350088D01*
X147930D01*
Y350308D01*
X147819D01*
Y350418D01*
X147710D01*
Y350528D01*
X147599D01*
Y350749D01*
X147489D01*
Y350859D01*
X147379D01*
Y350969D01*
X147269D01*
Y351189D01*
X147159D01*
Y351299D01*
X147049D01*
Y351519D01*
X146939D01*
Y351629D01*
X149801D01*
Y351409D01*
X149911D01*
Y351189D01*
X150021D01*
Y351079D01*
X150131D01*
Y350859D01*
X150241D01*
Y350749D01*
X150351D01*
Y350528D01*
X150461D01*
Y350308D01*
X150571D01*
Y350088D01*
X150681D01*
Y349978D01*
X150791D01*
Y349758D01*
X151011D01*
Y349978D01*
X151122D01*
Y350198D01*
X151232D01*
Y350418D01*
X151342D01*
Y350639D01*
X151452D01*
Y350859D01*
X151562D01*
Y351079D01*
X151672D01*
Y351299D01*
X151782D01*
Y351519D01*
X151892D01*
Y351739D01*
X154754D01*
Y351629D01*
D02*
G37*
G36*
X171924Y352400D02*
X172034D01*
Y351189D01*
X172144D01*
Y349868D01*
X172254D01*
Y348657D01*
X172364D01*
Y347447D01*
X172474D01*
Y347006D01*
Y346896D01*
Y346236D01*
X172584D01*
Y344805D01*
X171594D01*
Y344695D01*
X170383D01*
Y345025D01*
X170273D01*
Y346126D01*
X170163D01*
Y347447D01*
X170053D01*
Y348767D01*
X169943D01*
Y349758D01*
X169833D01*
Y348877D01*
X169723D01*
Y348107D01*
X169613D01*
Y347557D01*
X169503D01*
Y346896D01*
X169393D01*
Y346236D01*
X169282D01*
Y345575D01*
X169172D01*
Y344915D01*
X169062D01*
Y344475D01*
X167852D01*
Y344365D01*
X167301D01*
Y344475D01*
X167191D01*
Y344805D01*
X167081D01*
Y345135D01*
X166971D01*
Y345465D01*
X166861D01*
Y345796D01*
X166751D01*
Y346016D01*
X166641D01*
Y346346D01*
X166531D01*
Y346676D01*
X166421D01*
Y347006D01*
X166311D01*
Y347337D01*
X166201D01*
Y347667D01*
X166091D01*
Y347997D01*
X165980D01*
Y348327D01*
X165870D01*
Y348657D01*
X165760D01*
Y348988D01*
X165650D01*
Y349318D01*
X165540D01*
Y348437D01*
X165650D01*
Y347226D01*
X165760D01*
Y346126D01*
X165870D01*
Y344915D01*
X165980D01*
Y344255D01*
X165320D01*
Y344145D01*
X164109D01*
Y344035D01*
X163669D01*
Y345025D01*
X163559D01*
Y346236D01*
X163449D01*
Y347447D01*
X163339D01*
Y348767D01*
X163229D01*
Y349978D01*
X163119D01*
Y351189D01*
X163009D01*
Y351959D01*
X163119D01*
Y352069D01*
X164440D01*
Y352179D01*
X165650D01*
Y352290D01*
X166091D01*
Y352069D01*
X166201D01*
Y351849D01*
X166311D01*
Y351519D01*
X166421D01*
Y351189D01*
X166531D01*
Y350969D01*
X166641D01*
Y350639D01*
X166751D01*
Y350418D01*
X166861D01*
Y350088D01*
X166971D01*
Y349868D01*
X167081D01*
Y349538D01*
X167191D01*
Y349208D01*
X167301D01*
Y348988D01*
X167411D01*
Y348657D01*
X167521D01*
Y348327D01*
X167631D01*
Y348107D01*
X167742D01*
Y347667D01*
X167852D01*
Y347337D01*
X167962D01*
Y347887D01*
X168072D01*
Y348547D01*
X168182D01*
Y349098D01*
X168292D01*
Y349758D01*
X168402D01*
Y350308D01*
X168512D01*
Y350969D01*
X168622D01*
Y351519D01*
X168732D01*
Y352179D01*
X168842D01*
Y352510D01*
X169393D01*
Y352620D01*
X170603D01*
Y352730D01*
X171924D01*
Y352400D01*
D02*
G37*
G36*
X139344Y351959D02*
X139895D01*
Y351849D01*
X140225D01*
Y351739D01*
X140445D01*
Y351629D01*
X140665D01*
Y351519D01*
X140885D01*
Y351409D01*
X141105D01*
Y351299D01*
X141215D01*
Y351189D01*
X141326D01*
Y351079D01*
X141436D01*
Y350969D01*
X141546D01*
Y350859D01*
X141656D01*
Y350749D01*
X141766D01*
Y350639D01*
X141876D01*
Y350418D01*
X141986D01*
Y350308D01*
X142096D01*
Y350088D01*
X142206D01*
Y349868D01*
X142316D01*
Y349538D01*
X142426D01*
Y349098D01*
X142536D01*
Y346896D01*
X142426D01*
Y346346D01*
X142316D01*
Y346126D01*
X142206D01*
Y345796D01*
X142096D01*
Y345575D01*
X141986D01*
Y345355D01*
X141876D01*
Y345245D01*
X141766D01*
Y345025D01*
X141656D01*
Y344915D01*
X141546D01*
Y344805D01*
X141436D01*
Y344695D01*
X141326D01*
Y344585D01*
X141105D01*
Y344475D01*
X140995D01*
Y344365D01*
X140885D01*
Y344255D01*
X140665D01*
Y344145D01*
X140445D01*
Y344035D01*
X140225D01*
Y343924D01*
X139895D01*
Y343814D01*
X139454D01*
Y343704D01*
X137693D01*
Y343814D01*
X137143D01*
Y343924D01*
X136813D01*
Y344035D01*
X136483D01*
Y344145D01*
X136263D01*
Y344255D01*
X136152D01*
Y344365D01*
X135932D01*
Y344475D01*
X135822D01*
Y344585D01*
X135602D01*
Y344805D01*
X135382D01*
Y345025D01*
X135272D01*
Y345135D01*
X135162D01*
Y345245D01*
X135052D01*
Y345465D01*
X134942D01*
Y345686D01*
X134832D01*
Y346016D01*
X134722D01*
Y346456D01*
X134612D01*
Y347226D01*
X135162D01*
Y347116D01*
X137033D01*
Y346566D01*
X137143D01*
Y346346D01*
X137253D01*
Y346126D01*
X137363D01*
Y346016D01*
X137473D01*
Y345906D01*
X137693D01*
Y345796D01*
X137914D01*
Y345686D01*
X138904D01*
Y345796D01*
X139124D01*
Y345906D01*
X139344D01*
Y346016D01*
X139454D01*
Y346126D01*
X139565D01*
Y346346D01*
X139675D01*
Y346566D01*
X139785D01*
Y346786D01*
X139895D01*
Y347226D01*
X140005D01*
Y348877D01*
X139895D01*
Y349208D01*
X139785D01*
Y349538D01*
X139675D01*
Y349648D01*
X139565D01*
Y349758D01*
X139454D01*
Y349868D01*
X139344D01*
Y349978D01*
X139124D01*
Y350088D01*
X137914D01*
Y349978D01*
X137693D01*
Y349868D01*
X137583D01*
Y349758D01*
X137473D01*
Y349648D01*
X137363D01*
Y349428D01*
X137253D01*
Y348988D01*
X135492D01*
Y349098D01*
X134722D01*
Y349208D01*
X134832D01*
Y349758D01*
X134942D01*
Y350088D01*
X135052D01*
Y350308D01*
X135162D01*
Y350528D01*
X135272D01*
Y350749D01*
X135382D01*
Y350859D01*
X135492D01*
Y350969D01*
X135602D01*
Y351079D01*
X135712D01*
Y351189D01*
X135822D01*
Y351299D01*
X135932D01*
Y351409D01*
X136042D01*
Y351519D01*
X136263D01*
Y351629D01*
X136483D01*
Y351739D01*
X136703D01*
Y351849D01*
X137033D01*
Y351959D01*
X137473D01*
Y352069D01*
X139344D01*
Y351959D01*
D02*
G37*
G36*
X130209Y352620D02*
X130979D01*
Y352510D01*
X131420D01*
Y352400D01*
X131750D01*
Y352290D01*
X131970D01*
Y352179D01*
X132190D01*
Y352069D01*
X132410D01*
Y351959D01*
X132520D01*
Y351849D01*
X132740D01*
Y351739D01*
X132851D01*
Y351629D01*
X132961D01*
Y351519D01*
X133071D01*
Y351409D01*
X133181D01*
Y351189D01*
X133291D01*
Y351079D01*
X133401D01*
Y350969D01*
X133511D01*
Y350749D01*
X133621D01*
Y350528D01*
X133731D01*
Y350308D01*
X133841D01*
Y349868D01*
X133951D01*
Y349428D01*
X134061D01*
Y347997D01*
X133951D01*
Y347337D01*
X133841D01*
Y346896D01*
X133731D01*
Y346566D01*
X133621D01*
Y346346D01*
X133511D01*
Y346126D01*
X133401D01*
Y345906D01*
X133291D01*
Y345796D01*
X133181D01*
Y345686D01*
X133071D01*
Y345575D01*
X132961D01*
Y345355D01*
X132740D01*
Y345245D01*
X132630D01*
Y345135D01*
X132520D01*
Y345025D01*
X132410D01*
Y344915D01*
X132190D01*
Y344805D01*
X132080D01*
Y344695D01*
X131860D01*
Y344585D01*
X131530D01*
Y344475D01*
X131200D01*
Y344365D01*
X130539D01*
Y344255D01*
X129549D01*
Y344365D01*
X128778D01*
Y344475D01*
X128338D01*
Y344585D01*
X128118D01*
Y344695D01*
X127787D01*
Y344805D01*
X127567D01*
Y344915D01*
X127457D01*
Y345025D01*
X127237D01*
Y345135D01*
X127127D01*
Y345245D01*
X127017D01*
Y345355D01*
X126907D01*
Y345465D01*
X126797D01*
Y345575D01*
X126687D01*
Y345686D01*
X126577D01*
Y345796D01*
X126467D01*
Y345906D01*
X126356D01*
Y346126D01*
X126247D01*
Y346346D01*
X126136D01*
Y346566D01*
X126026D01*
Y346896D01*
X125916D01*
Y347226D01*
X125806D01*
Y348217D01*
X125696D01*
Y348437D01*
X125806D01*
Y349428D01*
X125916D01*
Y349868D01*
X126026D01*
Y350308D01*
X126136D01*
Y350528D01*
X126247D01*
Y350749D01*
X126356D01*
Y350969D01*
X126467D01*
Y351079D01*
X126577D01*
Y351299D01*
X126687D01*
Y351409D01*
X126797D01*
Y351519D01*
X126907D01*
Y351629D01*
X127017D01*
Y351739D01*
X127127D01*
Y351849D01*
X127237D01*
Y351959D01*
X127457D01*
Y352069D01*
X127567D01*
Y352179D01*
X127787D01*
Y352290D01*
X128007D01*
Y352400D01*
X128228D01*
Y352510D01*
X128668D01*
Y352620D01*
X129328D01*
Y352730D01*
X130209D01*
Y352620D01*
D02*
G37*
G36*
X161688Y351299D02*
X161798D01*
Y349098D01*
X161908D01*
Y347006D01*
X162018D01*
Y345025D01*
X162128D01*
Y344145D01*
X162018D01*
Y344035D01*
X160037D01*
Y343924D01*
X157836D01*
Y343814D01*
X155744D01*
Y343704D01*
X155634D01*
Y344365D01*
X155524D01*
Y345686D01*
X156735D01*
Y345796D01*
X158936D01*
Y345906D01*
X159487D01*
Y346786D01*
X159376D01*
Y347116D01*
X157946D01*
Y347006D01*
X156185D01*
Y348217D01*
X156074D01*
Y348767D01*
X156955D01*
Y348877D01*
X158936D01*
Y348988D01*
X159376D01*
Y349098D01*
X159267D01*
Y349978D01*
X157395D01*
Y349868D01*
X155414D01*
Y351409D01*
X155304D01*
Y351739D01*
X156955D01*
Y351849D01*
X158936D01*
Y351959D01*
X161028D01*
Y352069D01*
X161688D01*
Y351299D01*
D02*
G37*
G36*
X146389Y351629D02*
X146499D01*
Y350418D01*
X146389D01*
Y347337D01*
X146279D01*
Y344365D01*
X146168D01*
Y343704D01*
X145068D01*
Y343814D01*
X143637D01*
Y346346D01*
X143747D01*
Y349428D01*
X143857D01*
Y349538D01*
Y349648D01*
Y351739D01*
X146389D01*
Y351629D01*
D02*
G37*
G36*
X182270Y342494D02*
X182160D01*
Y342383D01*
X181280D01*
Y342273D01*
X180289D01*
Y342163D01*
X179409D01*
Y342053D01*
X178528D01*
Y341943D01*
X177648D01*
Y341833D01*
X176767D01*
Y341723D01*
X175777D01*
Y341613D01*
X174786D01*
Y341503D01*
X173795D01*
Y341393D01*
X172805D01*
Y341283D01*
X171704D01*
Y341173D01*
X170383D01*
Y341063D01*
X169282D01*
Y340953D01*
X168072D01*
Y340843D01*
X166861D01*
Y340732D01*
X165320D01*
Y340622D01*
X163779D01*
Y340512D01*
X162238D01*
Y340402D01*
X160257D01*
Y340292D01*
X158056D01*
Y340182D01*
X155084D01*
Y340072D01*
X143307D01*
Y340182D01*
X140225D01*
Y340292D01*
X138024D01*
Y340402D01*
X136152D01*
Y340512D01*
X134501D01*
Y340622D01*
X132961D01*
Y340732D01*
X131640D01*
Y340843D01*
X130209D01*
Y340953D01*
X128998D01*
Y341063D01*
X127787D01*
Y341173D01*
X126687D01*
Y341283D01*
X125696D01*
Y341393D01*
X124595D01*
Y341503D01*
X123605D01*
Y341613D01*
X122614D01*
Y341723D01*
X121734D01*
Y341833D01*
X120633D01*
Y341943D01*
X119753D01*
Y342053D01*
X118872D01*
Y342163D01*
X117992D01*
Y342273D01*
X117221D01*
Y342383D01*
X116341D01*
Y342494D01*
X116230D01*
Y344145D01*
X116341D01*
Y344035D01*
X117221D01*
Y343924D01*
X118102D01*
Y343814D01*
X118872D01*
Y343704D01*
X119863D01*
Y343594D01*
X120743D01*
Y343484D01*
X121734D01*
Y343374D01*
X122614D01*
Y343264D01*
X123715D01*
Y343154D01*
X124595D01*
Y343044D01*
X125696D01*
Y342934D01*
X126797D01*
Y342824D01*
X127898D01*
Y342714D01*
X128998D01*
Y342604D01*
X130319D01*
Y342494D01*
X131640D01*
Y342383D01*
X132961D01*
Y342273D01*
X134501D01*
Y342163D01*
X136152D01*
Y342053D01*
X138024D01*
Y341943D01*
X140225D01*
Y341833D01*
X143087D01*
Y341723D01*
X154974D01*
Y341833D01*
X158056D01*
Y341943D01*
X160367D01*
Y342053D01*
X162128D01*
Y342163D01*
X163889D01*
Y342273D01*
X165320D01*
Y342383D01*
X166751D01*
Y342494D01*
X168072D01*
Y342604D01*
X169282D01*
Y342714D01*
X170493D01*
Y342824D01*
X171704D01*
Y342934D01*
X172695D01*
Y343044D01*
X173795D01*
Y343154D01*
X174786D01*
Y343264D01*
X175777D01*
Y343374D01*
X176767D01*
Y343484D01*
X177648D01*
Y343594D01*
X178528D01*
Y343704D01*
X179409D01*
Y343814D01*
X180289D01*
Y343924D01*
X181280D01*
Y344035D01*
X182050D01*
Y344145D01*
X182270D01*
Y342494D01*
D02*
G37*
G36*
X40329Y317625D02*
X40479Y317608D01*
X40779Y317508D01*
X41062Y317375D01*
X41295Y317225D01*
X41495Y317075D01*
X41629Y316942D01*
X41729Y316842D01*
X41745Y316825D01*
X41762Y316808D01*
X41995Y316475D01*
X42162Y316109D01*
X42295Y315759D01*
X42379Y315409D01*
X42429Y315092D01*
X42445Y314959D01*
Y314842D01*
X42462Y314759D01*
Y314626D01*
X42445Y314226D01*
X42395Y313859D01*
X42312Y313526D01*
X42229Y313259D01*
X42145Y313026D01*
X42062Y312859D01*
X42045Y312810D01*
X42012Y312759D01*
X41995Y312743D01*
Y312726D01*
X41812Y312460D01*
X41612Y312226D01*
X41429Y312026D01*
X41229Y311876D01*
X41079Y311760D01*
X40946Y311693D01*
X40862Y311643D01*
X40829Y311626D01*
X40679Y311576D01*
X40529Y311527D01*
X40179Y311443D01*
X39796Y311393D01*
X39429Y311343D01*
X39096Y311327D01*
X38946D01*
X38813Y311310D01*
X38713D01*
X38630D01*
X38580D01*
X38563D01*
X33281D01*
X33014D01*
X32781Y311293D01*
X32614Y311277D01*
X32481Y311260D01*
X32381D01*
X32331Y311243D01*
X32298Y311227D01*
X32281D01*
X32115Y311127D01*
X31998Y311027D01*
X31931Y310943D01*
X31915Y310910D01*
X31848Y310793D01*
X31815Y310677D01*
X31748Y310427D01*
Y310310D01*
X31731Y310227D01*
Y309794D01*
X31448D01*
Y315509D01*
X31731D01*
Y314892D01*
X31765Y314759D01*
X31781Y314626D01*
X31815Y314526D01*
X31848Y314442D01*
X31865Y314393D01*
X31898Y314359D01*
Y314342D01*
X31948Y314242D01*
X32015Y314176D01*
X32131Y314059D01*
X32231Y314009D01*
X32248Y313993D01*
X32264D01*
X32364Y313959D01*
X32514Y313926D01*
X32681Y313909D01*
X32848D01*
X33014Y313893D01*
X33148D01*
X33248D01*
X33264D01*
X33281D01*
X39046D01*
X39346D01*
X39613D01*
X39863Y313909D01*
X40079D01*
X40262D01*
X40446Y313926D01*
X40579D01*
X40712Y313943D01*
X40812Y313959D01*
X40896D01*
X40979Y313976D01*
X41029D01*
X41096Y313993D01*
X41112D01*
X41245Y314026D01*
X41346Y314076D01*
X41445Y314126D01*
X41512Y314176D01*
X41579Y314226D01*
X41612Y314276D01*
X41629Y314293D01*
X41645Y314309D01*
X41745Y314492D01*
X41795Y314659D01*
Y314742D01*
X41812Y314809D01*
Y314859D01*
X41795Y315026D01*
X41779Y315192D01*
X41745Y315326D01*
X41695Y315425D01*
X41662Y315525D01*
X41629Y315592D01*
X41612Y315625D01*
X41595Y315642D01*
X41529Y315709D01*
X41479Y315759D01*
X41362Y315809D01*
X41279Y315842D01*
X41262D01*
X41245D01*
X41196Y315825D01*
X41112Y315809D01*
X40962Y315742D01*
X40896Y315709D01*
X40846Y315676D01*
X40812Y315642D01*
X40796D01*
X40679Y315576D01*
X40596Y315509D01*
X40512Y315476D01*
X40462Y315442D01*
X40396Y315392D01*
X40379D01*
X40246Y315359D01*
X40129Y315326D01*
X40029D01*
X40012D01*
X39996D01*
X39829Y315342D01*
X39679Y315375D01*
X39563Y315425D01*
X39446Y315492D01*
X39346Y315559D01*
X39279Y315609D01*
X39246Y315642D01*
X39229Y315659D01*
X39129Y315792D01*
X39046Y315925D01*
X38996Y316059D01*
X38946Y316192D01*
X38930Y316309D01*
X38913Y316392D01*
Y316475D01*
X38930Y316658D01*
X38963Y316808D01*
X39029Y316959D01*
X39079Y317075D01*
X39146Y317175D01*
X39213Y317242D01*
X39246Y317292D01*
X39263Y317308D01*
X39396Y317425D01*
X39546Y317508D01*
X39696Y317558D01*
X39846Y317592D01*
X39962Y317625D01*
X40062Y317642D01*
X40146D01*
X40163D01*
X40329Y317625D01*
D02*
G37*
G36*
X41312Y308960D02*
X41495Y308911D01*
X41645Y308860D01*
X41779Y308777D01*
X41895Y308711D01*
X41979Y308661D01*
X42029Y308611D01*
X42045Y308594D01*
X42179Y308444D01*
X42262Y308294D01*
X42329Y308127D01*
X42379Y307977D01*
X42412Y307861D01*
X42429Y307744D01*
Y307661D01*
X42412Y307461D01*
X42362Y307278D01*
X42312Y307128D01*
X42229Y306994D01*
X42162Y306878D01*
X42112Y306794D01*
X42062Y306744D01*
X42045Y306728D01*
X41895Y306595D01*
X41745Y306495D01*
X41579Y306428D01*
X41429Y306378D01*
X41312Y306345D01*
X41196Y306328D01*
X41129D01*
X41112D01*
X40912Y306345D01*
X40729Y306395D01*
X40579Y306461D01*
X40446Y306528D01*
X40329Y306595D01*
X40246Y306661D01*
X40196Y306711D01*
X40179Y306728D01*
X40046Y306878D01*
X39946Y307028D01*
X39879Y307194D01*
X39829Y307344D01*
X39796Y307461D01*
X39779Y307561D01*
Y307661D01*
X39796Y307861D01*
X39846Y308044D01*
X39913Y308194D01*
X39979Y308327D01*
X40046Y308444D01*
X40113Y308527D01*
X40163Y308577D01*
X40179Y308594D01*
X40329Y308727D01*
X40479Y308811D01*
X40646Y308877D01*
X40796Y308927D01*
X40912Y308960D01*
X41012Y308977D01*
X41096D01*
X41112D01*
X41312Y308960D01*
D02*
G37*
G36*
X42212Y297863D02*
X41929D01*
X41912Y298147D01*
X41879Y298380D01*
X41845Y298563D01*
X41812Y298696D01*
X41795Y298797D01*
X41762Y298863D01*
X41745Y298896D01*
Y298913D01*
X41662Y299030D01*
X41546Y299130D01*
X41445Y299196D01*
X41329Y299230D01*
X41229Y299263D01*
X41146Y299280D01*
X41096D01*
X41079D01*
X40946Y299263D01*
X40796Y299246D01*
X40512Y299163D01*
X40379Y299130D01*
X40279Y299096D01*
X40212Y299080D01*
X40196Y299063D01*
X39146Y298596D01*
Y294831D01*
X40496Y294248D01*
X40679Y294164D01*
X40812Y294114D01*
X40912Y294064D01*
X40996Y294031D01*
X41046Y294014D01*
X41079Y293998D01*
X41096D01*
X41212Y293964D01*
X41295Y293948D01*
X41362D01*
X41396D01*
X41479D01*
X41546Y293981D01*
X41662Y294031D01*
X41729Y294098D01*
X41762Y294114D01*
Y294131D01*
X41812Y294248D01*
X41862Y294381D01*
X41912Y294664D01*
Y294797D01*
X41929Y294914D01*
Y295231D01*
X42212D01*
Y290015D01*
X41929D01*
X41912Y290199D01*
X41862Y290349D01*
X41829Y290482D01*
X41779Y290582D01*
X41729Y290665D01*
X41679Y290732D01*
X41662Y290765D01*
X41645Y290782D01*
X41579Y290849D01*
X41479Y290932D01*
X41262Y291082D01*
X41012Y291232D01*
X40729Y291382D01*
X40479Y291498D01*
X40362Y291565D01*
X40262Y291598D01*
X40179Y291648D01*
X40113Y291682D01*
X40079Y291698D01*
X40062D01*
X31231Y295564D01*
Y295714D01*
X39829Y299563D01*
X40046Y299663D01*
X40246Y299763D01*
X40429Y299846D01*
X40596Y299946D01*
X40746Y300030D01*
X40879Y300096D01*
X41112Y300229D01*
X41262Y300346D01*
X41379Y300429D01*
X41445Y300479D01*
X41462Y300496D01*
X41595Y300646D01*
X41695Y300796D01*
X41779Y300963D01*
X41845Y301112D01*
X41879Y301246D01*
X41912Y301346D01*
X41929Y301413D01*
Y301446D01*
X42212D01*
Y297863D01*
D02*
G37*
G36*
X41312Y289099D02*
X41495Y289049D01*
X41645Y288999D01*
X41779Y288916D01*
X41895Y288849D01*
X41979Y288799D01*
X42029Y288749D01*
X42045Y288732D01*
X42179Y288582D01*
X42262Y288432D01*
X42329Y288266D01*
X42379Y288116D01*
X42412Y287999D01*
X42429Y287883D01*
Y287799D01*
X42412Y287599D01*
X42362Y287416D01*
X42312Y287266D01*
X42229Y287133D01*
X42162Y287016D01*
X42112Y286933D01*
X42062Y286883D01*
X42045Y286866D01*
X41895Y286733D01*
X41745Y286633D01*
X41579Y286566D01*
X41429Y286516D01*
X41312Y286483D01*
X41196Y286466D01*
X41129D01*
X41112D01*
X40912Y286483D01*
X40729Y286533D01*
X40579Y286600D01*
X40446Y286666D01*
X40329Y286733D01*
X40246Y286800D01*
X40196Y286849D01*
X40179Y286866D01*
X40046Y287016D01*
X39946Y287166D01*
X39879Y287333D01*
X39829Y287483D01*
X39796Y287599D01*
X39779Y287699D01*
Y287799D01*
X39796Y287999D01*
X39846Y288183D01*
X39913Y288333D01*
X39979Y288466D01*
X40046Y288582D01*
X40113Y288666D01*
X40163Y288716D01*
X40179Y288732D01*
X40329Y288866D01*
X40479Y288949D01*
X40646Y289016D01*
X40796Y289066D01*
X40912Y289099D01*
X41012Y289116D01*
X41096D01*
X41112D01*
X41312Y289099D01*
D02*
G37*
G36*
X42212Y275819D02*
X41929D01*
Y276069D01*
X41912Y276286D01*
X41879Y276469D01*
X41862Y276602D01*
X41829Y276702D01*
X41812Y276785D01*
X41795Y276819D01*
Y276835D01*
X41679Y277002D01*
X41562Y277119D01*
X41479Y277202D01*
X41462Y277219D01*
X41445D01*
X41329Y277252D01*
X41179Y277269D01*
X40996Y277302D01*
X40796D01*
X40612Y277319D01*
X40462D01*
X40362D01*
X40346D01*
X40329D01*
X37330D01*
Y276985D01*
X37313Y276686D01*
Y276402D01*
X37297Y276136D01*
X37280Y275902D01*
X37263Y275686D01*
X37247Y275502D01*
X37230Y275336D01*
X37213Y275186D01*
X37197Y275053D01*
Y274953D01*
X37180Y274869D01*
X37163Y274803D01*
X37147Y274753D01*
Y274719D01*
X37030Y274319D01*
X36880Y273969D01*
X36713Y273653D01*
X36530Y273403D01*
X36380Y273203D01*
X36247Y273053D01*
X36163Y272970D01*
X36130Y272936D01*
X35830Y272720D01*
X35530Y272553D01*
X35230Y272437D01*
X34964Y272353D01*
X34714Y272303D01*
X34514Y272287D01*
X34447Y272270D01*
X34397D01*
X34364D01*
X34347D01*
X34114Y272287D01*
X33897Y272320D01*
X33698Y272370D01*
X33498Y272420D01*
X33148Y272586D01*
X32848Y272770D01*
X32598Y272970D01*
X32514Y273053D01*
X32431Y273120D01*
X32364Y273186D01*
X32315Y273236D01*
X32298Y273270D01*
X32281Y273286D01*
X32131Y273486D01*
X31998Y273720D01*
X31898Y273969D01*
X31798Y274236D01*
X31648Y274786D01*
X31548Y275336D01*
X31515Y275586D01*
X31498Y275836D01*
X31465Y276052D01*
Y276236D01*
X31448Y276402D01*
Y281301D01*
X31731D01*
Y281051D01*
X31748Y280834D01*
X31781Y280668D01*
X31798Y280518D01*
X31831Y280418D01*
X31865Y280351D01*
X31881Y280318D01*
Y280301D01*
X31931Y280201D01*
X31998Y280118D01*
X32115Y280001D01*
X32215Y279935D01*
X32231Y279918D01*
X32248D01*
X32348Y279885D01*
X32514Y279851D01*
X32681Y279835D01*
X32864Y279818D01*
X33048Y279801D01*
X33198D01*
X33298D01*
X33314D01*
X33331D01*
X40329D01*
X40629D01*
X40879Y279818D01*
X41062Y279835D01*
X41212Y279851D01*
X41329Y279885D01*
X41396Y279901D01*
X41429Y279918D01*
X41445D01*
X41595Y280018D01*
X41695Y280135D01*
X41779Y280235D01*
X41795Y280268D01*
Y280285D01*
X41845Y280401D01*
X41879Y280551D01*
X41912Y280884D01*
X41929Y281051D01*
Y281301D01*
X42212D01*
Y275819D01*
D02*
G37*
G36*
Y267171D02*
X41929D01*
X41912Y267321D01*
X41895Y267454D01*
X41879Y267571D01*
X41862Y267654D01*
X41845Y267721D01*
X41829Y267771D01*
X41812Y267788D01*
Y267804D01*
X41712Y267921D01*
X41612Y268021D01*
X41529Y268071D01*
X41512Y268088D01*
X41495D01*
X41429Y268104D01*
X41362Y268121D01*
X41162Y268138D01*
X41062D01*
X40979D01*
X40929D01*
X40912D01*
X40479D01*
X38779D01*
X38446Y268121D01*
X38113Y268104D01*
X37830Y268054D01*
X37580Y268004D01*
X37363Y267971D01*
X37213Y267921D01*
X37113Y267904D01*
X37080Y267888D01*
X36897Y267821D01*
X36747Y267738D01*
X36613Y267654D01*
X36513Y267588D01*
X36430Y267521D01*
X36363Y267454D01*
X36330Y267421D01*
X36314Y267404D01*
X36247Y267321D01*
X36214Y267238D01*
X36147Y267105D01*
X36130Y266988D01*
Y266888D01*
X36147Y266838D01*
X36163Y266805D01*
X36180Y266788D01*
X36197Y266755D01*
X36247Y266705D01*
X36347Y266571D01*
X36430Y266471D01*
X36463Y266438D01*
X36480Y266421D01*
X36563Y266305D01*
X36630Y266171D01*
X36680Y266055D01*
X36713Y265938D01*
X36730Y265838D01*
X36747Y265755D01*
Y265688D01*
X36730Y265555D01*
X36697Y265438D01*
X36597Y265255D01*
X36547Y265172D01*
X36513Y265122D01*
X36480Y265088D01*
X36463Y265072D01*
X36347Y264988D01*
X36214Y264922D01*
X36063Y264872D01*
X35930Y264839D01*
X35814Y264822D01*
X35714Y264805D01*
X35647D01*
X35630D01*
X35447Y264822D01*
X35297Y264839D01*
X35164Y264888D01*
X35064Y264939D01*
X34980Y264988D01*
X34914Y265022D01*
X34880Y265055D01*
X34864Y265072D01*
X34764Y265172D01*
X34697Y265288D01*
X34647Y265405D01*
X34614Y265522D01*
X34597Y265622D01*
X34581Y265705D01*
Y265772D01*
X34597Y265972D01*
X34647Y266155D01*
X34697Y266338D01*
X34764Y266505D01*
X34847Y266655D01*
X34897Y266755D01*
X34947Y266821D01*
X34964Y266855D01*
X35047Y266955D01*
X35130Y267071D01*
X35347Y267288D01*
X35597Y267505D01*
X35864Y267704D01*
X36097Y267871D01*
X36297Y268021D01*
X36363Y268071D01*
X36430Y268104D01*
X36463Y268121D01*
X36480Y268138D01*
X34797D01*
Y271187D01*
X35080D01*
X35097Y271054D01*
X35130Y270937D01*
X35147Y270854D01*
X35180Y270770D01*
X35197Y270720D01*
X35214Y270687D01*
X35230Y270654D01*
X35330Y270554D01*
X35430Y270487D01*
X35530Y270437D01*
X35547Y270420D01*
X35564D01*
X35647Y270404D01*
X35764Y270387D01*
X35897Y270370D01*
X36030Y270354D01*
X36147D01*
X36263D01*
X36330D01*
X36363D01*
X40462D01*
X40646D01*
X40796D01*
X41062Y270387D01*
X41279Y270404D01*
X41445Y270437D01*
X41546Y270470D01*
X41629Y270504D01*
X41662Y270520D01*
X41679Y270537D01*
X41745Y270620D01*
X41812Y270704D01*
X41879Y270920D01*
X41912Y271020D01*
Y271103D01*
X41929Y271170D01*
Y271187D01*
X42212D01*
Y267171D01*
D02*
G37*
G36*
Y260223D02*
X41929D01*
X41912Y260406D01*
X41879Y260573D01*
X41845Y260690D01*
X41812Y260790D01*
X41762Y260873D01*
X41729Y260923D01*
X41712Y260940D01*
X41695Y260956D01*
X41579Y261006D01*
X41445Y261056D01*
X41279Y261089D01*
X41096Y261106D01*
X40946D01*
X40812Y261123D01*
X40712D01*
X40679D01*
X34797D01*
Y264239D01*
X35080D01*
X35097Y264055D01*
X35130Y263905D01*
X35180Y263789D01*
X35230Y263689D01*
X35264Y263622D01*
X35314Y263572D01*
X35330Y263556D01*
X35347Y263539D01*
X35447Y263472D01*
X35597Y263422D01*
X35764Y263389D01*
X35930Y263356D01*
X36080D01*
X36214Y263339D01*
X36314D01*
X36330D01*
X36347D01*
X40679D01*
X40946D01*
X41162Y263372D01*
X41329Y263389D01*
X41462Y263422D01*
X41546Y263456D01*
X41612Y263472D01*
X41629Y263505D01*
X41645D01*
X41745Y263605D01*
X41812Y263722D01*
X41862Y263839D01*
X41895Y263972D01*
X41912Y264072D01*
X41929Y264155D01*
Y264239D01*
X42212D01*
Y260223D01*
D02*
G37*
G36*
X32614Y263439D02*
X32781Y263405D01*
X32931Y263339D01*
X33064Y263272D01*
X33164Y263222D01*
X33231Y263156D01*
X33281Y263122D01*
X33298Y263106D01*
X33414Y262972D01*
X33498Y262822D01*
X33564Y262672D01*
X33598Y262539D01*
X33631Y262422D01*
X33647Y262323D01*
Y262239D01*
X33631Y262056D01*
X33598Y261889D01*
X33531Y261739D01*
X33464Y261623D01*
X33414Y261523D01*
X33348Y261439D01*
X33314Y261389D01*
X33298Y261373D01*
X33164Y261256D01*
X33014Y261156D01*
X32864Y261089D01*
X32731Y261056D01*
X32614Y261023D01*
X32514Y261006D01*
X32448D01*
X32431D01*
X32248Y261023D01*
X32081Y261056D01*
X31931Y261123D01*
X31815Y261189D01*
X31715Y261256D01*
X31631Y261323D01*
X31581Y261356D01*
X31565Y261373D01*
X31448Y261506D01*
X31348Y261656D01*
X31281Y261806D01*
X31248Y261939D01*
X31215Y262056D01*
X31198Y262156D01*
Y262239D01*
X31215Y262422D01*
X31248Y262589D01*
X31315Y262739D01*
X31381Y262872D01*
X31448Y262972D01*
X31515Y263039D01*
X31548Y263089D01*
X31565Y263106D01*
X31715Y263222D01*
X31848Y263305D01*
X31998Y263372D01*
X32131Y263405D01*
X32248Y263439D01*
X32348Y263456D01*
X32415D01*
X32431D01*
X32614Y263439D01*
D02*
G37*
G36*
X39179Y259373D02*
X39663Y259307D01*
X40096Y259190D01*
X40296Y259140D01*
X40462Y259073D01*
X40629Y259007D01*
X40762Y258957D01*
X40879Y258890D01*
X40979Y258840D01*
X41062Y258807D01*
X41112Y258773D01*
X41146Y258740D01*
X41162D01*
X41379Y258573D01*
X41579Y258390D01*
X41745Y258190D01*
X41895Y257990D01*
X42012Y257790D01*
X42112Y257574D01*
X42195Y257374D01*
X42262Y257174D01*
X42329Y256991D01*
X42362Y256807D01*
X42395Y256641D01*
X42412Y256507D01*
Y256391D01*
X42429Y256307D01*
Y256241D01*
X42412Y255891D01*
X42345Y255574D01*
X42262Y255291D01*
X42179Y255041D01*
X42079Y254841D01*
X42012Y254691D01*
X41945Y254591D01*
X41929Y254558D01*
X41829Y254424D01*
X41712Y254291D01*
X41429Y254041D01*
X41146Y253808D01*
X40862Y253608D01*
X40596Y253441D01*
X40479Y253375D01*
X40379Y253308D01*
X40296Y253275D01*
X40229Y253242D01*
X40196Y253208D01*
X40179D01*
X40012Y253491D01*
X40262Y253658D01*
X40462Y253808D01*
X40629Y253941D01*
X40762Y254075D01*
X40862Y254174D01*
X40929Y254258D01*
X40962Y254308D01*
X40979Y254324D01*
X41062Y254475D01*
X41129Y254624D01*
X41162Y254758D01*
X41196Y254891D01*
X41212Y255008D01*
X41229Y255091D01*
Y255174D01*
X41196Y255458D01*
X41129Y255707D01*
X41029Y255941D01*
X40896Y256124D01*
X40779Y256274D01*
X40679Y256391D01*
X40612Y256474D01*
X40579Y256491D01*
X40229Y256724D01*
X39846Y256907D01*
X39463Y257057D01*
X39079Y257157D01*
X38746Y257207D01*
X38596Y257240D01*
X38480Y257257D01*
X38380D01*
X38296Y257274D01*
X38246D01*
X38230D01*
Y253208D01*
X37896Y253225D01*
X37596Y253258D01*
X37313Y253308D01*
X37047Y253375D01*
X36797Y253441D01*
X36580Y253525D01*
X36380Y253608D01*
X36197Y253675D01*
X36030Y253758D01*
X35897Y253841D01*
X35780Y253908D01*
X35680Y253975D01*
X35614Y254025D01*
X35564Y254075D01*
X35530Y254091D01*
X35514Y254108D01*
X35347Y254275D01*
X35197Y254424D01*
X35080Y254591D01*
X34980Y254758D01*
X34814Y255091D01*
X34697Y255391D01*
X34631Y255658D01*
X34614Y255774D01*
X34597Y255874D01*
X34581Y255941D01*
Y256057D01*
X34597Y256307D01*
X34631Y256541D01*
X34681Y256774D01*
X34747Y256991D01*
X34931Y257390D01*
X35130Y257740D01*
X35230Y257890D01*
X35330Y258024D01*
X35430Y258140D01*
X35514Y258223D01*
X35580Y258307D01*
X35630Y258357D01*
X35664Y258390D01*
X35680Y258407D01*
X35897Y258590D01*
X36130Y258740D01*
X36363Y258873D01*
X36597Y258990D01*
X36847Y259073D01*
X37097Y259157D01*
X37563Y259273D01*
X37780Y259323D01*
X37980Y259357D01*
X38163Y259373D01*
X38330Y259390D01*
X38446Y259407D01*
X38546D01*
X38613D01*
X38630D01*
X39179Y259373D01*
D02*
G37*
G36*
X35580Y251559D02*
X39596D01*
X39813D01*
X39996D01*
X40163D01*
X40329Y251542D01*
X40462D01*
X40579D01*
X40762Y251525D01*
X40896Y251509D01*
X40979D01*
X41029Y251492D01*
X41046D01*
X41229Y251425D01*
X41379Y251342D01*
X41529Y251242D01*
X41662Y251125D01*
X41779Y251042D01*
X41862Y250959D01*
X41912Y250892D01*
X41929Y250875D01*
X42062Y250675D01*
X42145Y250476D01*
X42212Y250275D01*
X42262Y250092D01*
X42295Y249926D01*
X42312Y249792D01*
Y249676D01*
X42295Y249409D01*
X42245Y249176D01*
X42179Y248943D01*
X42079Y248743D01*
X41962Y248543D01*
X41829Y248376D01*
X41695Y248226D01*
X41546Y248076D01*
X41412Y247959D01*
X41279Y247859D01*
X41146Y247776D01*
X41029Y247693D01*
X40929Y247643D01*
X40862Y247610D01*
X40812Y247576D01*
X40796D01*
X40612Y247826D01*
X40746Y247910D01*
X40862Y247993D01*
X41062Y248176D01*
X41196Y248343D01*
X41295Y248493D01*
X41346Y248609D01*
X41379Y248726D01*
X41396Y248793D01*
Y248809D01*
X41379Y248893D01*
X41346Y248993D01*
X41312Y249042D01*
X41295Y249076D01*
X41196Y249176D01*
X41096Y249242D01*
X41029Y249276D01*
X40996Y249293D01*
X40896Y249309D01*
X40779Y249326D01*
X40496Y249342D01*
X40379D01*
X40262D01*
X40196D01*
X40163D01*
X35580D01*
Y247576D01*
X34797D01*
Y249342D01*
X32065D01*
Y249609D01*
X32415Y249809D01*
X32748Y250026D01*
X33048Y250226D01*
X33298Y250425D01*
X33514Y250592D01*
X33681Y250725D01*
X33781Y250809D01*
X33797Y250825D01*
X33814Y250842D01*
X34097Y251109D01*
X34381Y251392D01*
X34631Y251675D01*
X34864Y251942D01*
X35047Y252175D01*
X35197Y252358D01*
X35247Y252425D01*
X35280Y252475D01*
X35297Y252508D01*
X35314Y252525D01*
X35580D01*
Y251559D01*
D02*
G37*
G36*
X38830Y246793D02*
X39113Y246776D01*
X39629Y246677D01*
X40079Y246527D01*
X40296Y246443D01*
X40479Y246360D01*
X40662Y246277D01*
X40812Y246193D01*
X40946Y246110D01*
X41062Y246043D01*
X41146Y245993D01*
X41212Y245943D01*
X41245Y245927D01*
X41262Y245910D01*
X41462Y245727D01*
X41645Y245543D01*
X41795Y245343D01*
X41929Y245127D01*
X42045Y244910D01*
X42145Y244710D01*
X42229Y244494D01*
X42279Y244294D01*
X42329Y244094D01*
X42362Y243911D01*
X42395Y243761D01*
X42412Y243611D01*
X42429Y243511D01*
Y243344D01*
X42412Y243027D01*
X42379Y242744D01*
X42312Y242461D01*
X42229Y242211D01*
X42129Y241978D01*
X42029Y241761D01*
X41912Y241561D01*
X41779Y241378D01*
X41662Y241211D01*
X41546Y241078D01*
X41445Y240961D01*
X41346Y240861D01*
X41262Y240778D01*
X41196Y240728D01*
X41162Y240695D01*
X41146Y240678D01*
X40946Y240545D01*
X40729Y240411D01*
X40296Y240212D01*
X39846Y240078D01*
X39429Y239978D01*
X39246Y239945D01*
X39063Y239911D01*
X38913Y239895D01*
X38779D01*
X38663Y239878D01*
X38580D01*
X38530D01*
X38513D01*
X38113Y239895D01*
X37746Y239945D01*
X37397Y240012D01*
X37113Y240095D01*
X36863Y240178D01*
X36763Y240212D01*
X36680Y240245D01*
X36597Y240278D01*
X36547Y240295D01*
X36530Y240311D01*
X36513D01*
X36180Y240495D01*
X35897Y240695D01*
X35647Y240895D01*
X35447Y241111D01*
X35280Y241294D01*
X35180Y241444D01*
X35097Y241544D01*
X35080Y241561D01*
Y241578D01*
X34914Y241894D01*
X34797Y242211D01*
X34697Y242511D01*
X34647Y242794D01*
X34614Y243027D01*
X34581Y243211D01*
Y243377D01*
X34597Y243661D01*
X34631Y243944D01*
X34697Y244210D01*
X34764Y244444D01*
X34864Y244677D01*
X34964Y244877D01*
X35064Y245060D01*
X35180Y245227D01*
X35297Y245394D01*
X35397Y245527D01*
X35497Y245627D01*
X35597Y245727D01*
X35664Y245793D01*
X35730Y245843D01*
X35764Y245877D01*
X35780Y245893D01*
X36014Y246060D01*
X36230Y246193D01*
X36480Y246310D01*
X36713Y246427D01*
X37180Y246593D01*
X37613Y246693D01*
X37796Y246726D01*
X37980Y246760D01*
X38146Y246776D01*
X38280Y246793D01*
X38396Y246810D01*
X38480D01*
X38530D01*
X38546D01*
X38830Y246793D01*
D02*
G37*
G36*
X42212Y209353D02*
X38796Y208853D01*
Y209153D01*
X39063Y209236D01*
X39296Y209319D01*
X39529Y209419D01*
X39729Y209519D01*
X39929Y209636D01*
X40096Y209753D01*
X40262Y209853D01*
X40396Y209953D01*
X40529Y210069D01*
X40629Y210152D01*
X40729Y210236D01*
X40796Y210319D01*
X40862Y210386D01*
X40896Y210436D01*
X40912Y210452D01*
X40929Y210469D01*
X41162Y210836D01*
X41329Y211219D01*
X41445Y211635D01*
X41529Y212019D01*
X41562Y212185D01*
X41579Y212352D01*
X41595Y212502D01*
Y212635D01*
X41612Y212735D01*
Y213685D01*
X41595Y213818D01*
X41579Y213935D01*
X41546Y214018D01*
X41529Y214102D01*
X41512Y214151D01*
X41495Y214168D01*
Y214185D01*
X41379Y214318D01*
X41279Y214401D01*
X41196Y214451D01*
X41162Y214468D01*
X41062Y214485D01*
X40912Y214501D01*
X40729Y214518D01*
X40546D01*
X40362Y214535D01*
X40212D01*
X40113D01*
X40096D01*
X40079D01*
X37047D01*
X37063Y214268D01*
X37080Y214035D01*
X37113Y213835D01*
X37147Y213668D01*
X37197Y213535D01*
X37230Y213435D01*
X37247Y213385D01*
X37263Y213368D01*
X37346Y213218D01*
X37463Y213085D01*
X37596Y212952D01*
X37730Y212852D01*
X37846Y212768D01*
X37946Y212702D01*
X38013Y212668D01*
X38046Y212652D01*
X38280Y212535D01*
X38530Y212452D01*
X38779Y212385D01*
X39013Y212319D01*
X39229Y212285D01*
X39396Y212252D01*
X39463D01*
X39513Y212235D01*
X39529D01*
X39546D01*
Y211935D01*
X33914D01*
Y212235D01*
X34364Y212302D01*
X34747Y212385D01*
X35064Y212485D01*
X35330Y212585D01*
X35547Y212685D01*
X35697Y212752D01*
X35780Y212819D01*
X35814Y212835D01*
X36030Y213035D01*
X36180Y213268D01*
X36297Y213518D01*
X36363Y213752D01*
X36413Y213985D01*
X36430Y214168D01*
X36447Y214235D01*
Y214535D01*
X32065D01*
Y213018D01*
X32081Y212835D01*
Y212668D01*
X32115Y212369D01*
X32131Y212152D01*
X32164Y211969D01*
X32198Y211852D01*
X32215Y211785D01*
Y211769D01*
X32315Y211502D01*
X32431Y211252D01*
X32548Y211052D01*
X32681Y210886D01*
X32781Y210752D01*
X32881Y210669D01*
X32948Y210602D01*
X32964Y210586D01*
X33181Y210436D01*
X33431Y210302D01*
X33714Y210203D01*
X33981Y210103D01*
X34231Y210036D01*
X34447Y209986D01*
X34514Y209953D01*
X34581D01*
X34614Y209936D01*
X34631D01*
Y209636D01*
X31448D01*
Y218634D01*
X31731D01*
Y218284D01*
X31748Y218100D01*
X31765Y217934D01*
X31798Y217801D01*
X31848Y217684D01*
X31898Y217584D01*
X31931Y217517D01*
X31948Y217484D01*
X31965Y217467D01*
X32098Y217334D01*
X32231Y217234D01*
X32298Y217201D01*
X32348Y217184D01*
X32381Y217167D01*
X32398D01*
X32481Y217151D01*
X32598Y217134D01*
X32748D01*
X32898Y217117D01*
X33048D01*
X33164D01*
X33248D01*
X33264D01*
X33281D01*
X40379D01*
X40662D01*
X40879Y217134D01*
X41062Y217151D01*
X41196Y217167D01*
X41295Y217184D01*
X41346Y217201D01*
X41379Y217217D01*
X41396D01*
X41562Y217301D01*
X41679Y217417D01*
X41745Y217501D01*
X41762Y217517D01*
Y217534D01*
X41812Y217651D01*
X41862Y217767D01*
X41912Y218017D01*
Y218117D01*
X41929Y218200D01*
Y218634D01*
X42212D01*
Y209353D01*
D02*
G37*
G36*
X41312Y207386D02*
X41495Y207337D01*
X41645Y207287D01*
X41779Y207203D01*
X41895Y207137D01*
X41979Y207087D01*
X42029Y207037D01*
X42045Y207020D01*
X42179Y206870D01*
X42262Y206720D01*
X42329Y206553D01*
X42379Y206403D01*
X42412Y206287D01*
X42429Y206170D01*
Y206087D01*
X42412Y205887D01*
X42362Y205704D01*
X42312Y205554D01*
X42229Y205420D01*
X42162Y205304D01*
X42112Y205220D01*
X42062Y205170D01*
X42045Y205154D01*
X41895Y205021D01*
X41745Y204921D01*
X41579Y204854D01*
X41429Y204804D01*
X41312Y204771D01*
X41196Y204754D01*
X41129D01*
X41112D01*
X40912Y204771D01*
X40729Y204820D01*
X40579Y204887D01*
X40446Y204954D01*
X40329Y205021D01*
X40246Y205087D01*
X40196Y205137D01*
X40179Y205154D01*
X40046Y205304D01*
X39946Y205454D01*
X39879Y205620D01*
X39829Y205770D01*
X39796Y205887D01*
X39779Y205987D01*
Y206087D01*
X39796Y206287D01*
X39846Y206470D01*
X39913Y206620D01*
X39979Y206753D01*
X40046Y206870D01*
X40113Y206953D01*
X40163Y207003D01*
X40179Y207020D01*
X40329Y207153D01*
X40479Y207237D01*
X40646Y207303D01*
X40796Y207353D01*
X40912Y207386D01*
X41012Y207403D01*
X41096D01*
X41112D01*
X41312Y207386D01*
D02*
G37*
G36*
X37480Y199322D02*
X37930Y199255D01*
X38346Y199172D01*
X38713Y199055D01*
X38863Y199005D01*
X39013Y198955D01*
X39129Y198922D01*
X39229Y198872D01*
X39313Y198839D01*
X39379Y198805D01*
X39413Y198789D01*
X39429D01*
X39746Y198605D01*
X40029Y198405D01*
X40279Y198206D01*
X40512Y198006D01*
X40696Y197839D01*
X40846Y197706D01*
X40929Y197606D01*
X40946Y197572D01*
X40962D01*
X41212Y197272D01*
X41429Y196973D01*
X41612Y196673D01*
X41762Y196389D01*
X41895Y196156D01*
X41979Y195956D01*
X42012Y195889D01*
X42045Y195840D01*
X42062Y195806D01*
Y195790D01*
X42195Y195390D01*
X42295Y194956D01*
X42362Y194540D01*
X42412Y194140D01*
X42429Y193957D01*
X42445Y193790D01*
Y193640D01*
X42462Y193507D01*
Y193257D01*
X42445Y192807D01*
X42429Y192390D01*
X42395Y191991D01*
X42345Y191641D01*
X42329Y191491D01*
X42295Y191357D01*
X42279Y191241D01*
X42262Y191141D01*
X42245Y191057D01*
Y190991D01*
X42229Y190957D01*
Y190941D01*
X42129Y190524D01*
X42029Y190141D01*
X41912Y189774D01*
X41795Y189441D01*
X41695Y189174D01*
X41662Y189058D01*
X41612Y188975D01*
X41595Y188891D01*
X41562Y188841D01*
X41546Y188808D01*
Y188791D01*
X39296D01*
X39096D01*
X38930Y188775D01*
X38813D01*
X38713Y188758D01*
X38646Y188741D01*
X38596D01*
X38563Y188725D01*
X38380Y188625D01*
X38263Y188508D01*
X38180Y188408D01*
X38163Y188391D01*
Y188375D01*
X38113Y188258D01*
X38080Y188141D01*
X38013Y187858D01*
X37996Y187725D01*
Y187625D01*
X37980Y187558D01*
Y187525D01*
X37696D01*
Y192757D01*
X37980D01*
Y192490D01*
X38013Y192224D01*
X38030Y192124D01*
X38063Y192024D01*
X38096Y191940D01*
X38113Y191891D01*
X38146Y191857D01*
Y191840D01*
X38196Y191740D01*
X38263Y191657D01*
X38363Y191557D01*
X38446Y191491D01*
X38463Y191474D01*
X38480D01*
X38563Y191441D01*
X38679Y191407D01*
X38813Y191391D01*
X38963D01*
X39079Y191374D01*
X39196D01*
X39263D01*
X39296D01*
X41546D01*
X41645Y191691D01*
X41679Y191840D01*
X41712Y191957D01*
X41745Y192074D01*
X41762Y192157D01*
X41779Y192207D01*
Y192224D01*
X41829Y192507D01*
X41845Y192640D01*
Y192757D01*
X41862Y192857D01*
Y193007D01*
X41845Y193407D01*
X41779Y193773D01*
X41695Y194107D01*
X41595Y194390D01*
X41495Y194623D01*
X41412Y194790D01*
X41379Y194856D01*
X41346Y194906D01*
X41329Y194923D01*
Y194940D01*
X41096Y195223D01*
X40829Y195456D01*
X40546Y195656D01*
X40262Y195823D01*
X40012Y195940D01*
X39896Y195989D01*
X39796Y196039D01*
X39729Y196073D01*
X39663Y196089D01*
X39629Y196106D01*
X39613D01*
X39163Y196223D01*
X38696Y196323D01*
X38246Y196389D01*
X37813Y196423D01*
X37630Y196439D01*
X37446Y196456D01*
X37297D01*
X37163Y196473D01*
X37047D01*
X36963D01*
X36913D01*
X36897D01*
X36413Y196456D01*
X35964Y196423D01*
X35547Y196373D01*
X35180Y196306D01*
X35014Y196273D01*
X34864Y196239D01*
X34731Y196223D01*
X34614Y196189D01*
X34531Y196173D01*
X34464Y196156D01*
X34431Y196139D01*
X34414D01*
X33981Y195989D01*
X33598Y195823D01*
X33281Y195639D01*
X33014Y195440D01*
X32798Y195273D01*
X32648Y195140D01*
X32548Y195040D01*
X32514Y195023D01*
Y195006D01*
X32281Y194690D01*
X32115Y194356D01*
X31998Y194023D01*
X31915Y193690D01*
X31865Y193423D01*
X31848Y193290D01*
Y193190D01*
X31831Y193107D01*
Y192990D01*
X31848Y192757D01*
X31865Y192524D01*
X31965Y192107D01*
X32081Y191707D01*
X32231Y191357D01*
X32315Y191207D01*
X32381Y191074D01*
X32464Y190957D01*
X32514Y190857D01*
X32564Y190774D01*
X32614Y190724D01*
X32631Y190691D01*
X32648Y190674D01*
X32798Y190474D01*
X32981Y190291D01*
X33348Y189974D01*
X33747Y189691D01*
X34114Y189474D01*
X34464Y189291D01*
X34614Y189224D01*
X34747Y189174D01*
X34847Y189125D01*
X34931Y189091D01*
X34980Y189075D01*
X34997D01*
Y188791D01*
X31198D01*
Y189075D01*
X31365Y189141D01*
X31498Y189208D01*
X31598Y189258D01*
X31681Y189324D01*
X31748Y189375D01*
X31798Y189408D01*
X31815Y189424D01*
X31831Y189441D01*
X31915Y189574D01*
X31965Y189708D01*
X31981Y189808D01*
Y189841D01*
X31965Y189924D01*
X31931Y190058D01*
X31898Y190208D01*
X31831Y190358D01*
X31781Y190524D01*
X31748Y190641D01*
X31715Y190741D01*
X31698Y190758D01*
Y190774D01*
X31598Y191041D01*
X31515Y191274D01*
X31448Y191457D01*
X31398Y191624D01*
X31365Y191740D01*
X31348Y191824D01*
X31331Y191874D01*
Y191891D01*
X31248Y192390D01*
X31231Y192640D01*
X31215Y192857D01*
X31198Y193057D01*
Y193340D01*
X31215Y193807D01*
X31265Y194273D01*
X31348Y194690D01*
X31465Y195106D01*
X31581Y195473D01*
X31731Y195840D01*
X31881Y196156D01*
X32031Y196456D01*
X32198Y196723D01*
X32348Y196956D01*
X32498Y197156D01*
X32614Y197322D01*
X32731Y197456D01*
X32814Y197556D01*
X32864Y197622D01*
X32881Y197639D01*
X33198Y197939D01*
X33531Y198206D01*
X33881Y198422D01*
X34231Y198622D01*
X34564Y198789D01*
X34914Y198922D01*
X35247Y199039D01*
X35547Y199122D01*
X35847Y199189D01*
X36114Y199255D01*
X36363Y199289D01*
X36580Y199305D01*
X36747Y199322D01*
X36863Y199339D01*
X36947D01*
X36980D01*
X37480Y199322D01*
D02*
G37*
G36*
X35114Y186692D02*
X35147Y186558D01*
X35197Y186442D01*
X35247Y186359D01*
X35297Y186292D01*
X35330Y186259D01*
X35347Y186225D01*
X35364D01*
X35464Y186175D01*
X35614Y186125D01*
X35780Y186092D01*
X35964Y186075D01*
X36130Y186059D01*
X36280D01*
X36380D01*
X36397D01*
X36413D01*
X39363D01*
X39596D01*
X39813D01*
X40012Y186042D01*
X40179D01*
X40496Y186009D01*
X40746Y185975D01*
X40929Y185959D01*
X41062Y185925D01*
X41129Y185909D01*
X41162D01*
X41346Y185825D01*
X41512Y185742D01*
X41662Y185625D01*
X41795Y185525D01*
X41895Y185425D01*
X41979Y185342D01*
X42029Y185275D01*
X42045Y185259D01*
X42179Y185059D01*
X42262Y184876D01*
X42329Y184676D01*
X42379Y184509D01*
X42412Y184359D01*
X42429Y184226D01*
Y184126D01*
X42412Y183892D01*
X42379Y183659D01*
X42345Y183459D01*
X42279Y183293D01*
X42229Y183143D01*
X42195Y183043D01*
X42162Y182959D01*
X42145Y182943D01*
X42029Y182743D01*
X41879Y182543D01*
X41729Y182376D01*
X41579Y182210D01*
X41445Y182076D01*
X41329Y181960D01*
X41262Y181893D01*
X41229Y181876D01*
X42212D01*
Y178860D01*
X41929D01*
X41895Y179027D01*
X41862Y179160D01*
X41829Y179277D01*
X41779Y179360D01*
X41745Y179427D01*
X41712Y179477D01*
X41679Y179494D01*
Y179510D01*
X41562Y179560D01*
X41412Y179594D01*
X41245Y179627D01*
X41062Y179644D01*
X40879D01*
X40729Y179660D01*
X40629D01*
X40612D01*
X40596D01*
X34797D01*
Y182676D01*
X35080D01*
X35114Y182510D01*
X35147Y182376D01*
X35197Y182260D01*
X35247Y182176D01*
X35297Y182110D01*
X35330Y182076D01*
X35347Y182043D01*
X35364D01*
X35464Y181993D01*
X35614Y181943D01*
X35780Y181910D01*
X35964Y181893D01*
X36130Y181876D01*
X36280D01*
X36380D01*
X36397D01*
X36413D01*
X40379D01*
X40596Y182043D01*
X40762Y182193D01*
X40912Y182310D01*
X41012Y182426D01*
X41096Y182526D01*
X41162Y182593D01*
X41179Y182626D01*
X41196Y182643D01*
X41279Y182826D01*
X41329Y182993D01*
Y183059D01*
X41346Y183109D01*
Y183159D01*
X41329Y183309D01*
X41279Y183426D01*
X41245Y183509D01*
X41229Y183543D01*
X41129Y183643D01*
X41012Y183709D01*
X40929Y183759D01*
X40912Y183776D01*
X40896D01*
X40779Y183793D01*
X40629Y183809D01*
X40462Y183826D01*
X40296D01*
X40129Y183843D01*
X39996D01*
X39896D01*
X39879D01*
X39863D01*
X34797D01*
Y186859D01*
X35080D01*
X35114Y186692D01*
D02*
G37*
G36*
X41096Y177577D02*
X41295Y177528D01*
X41479Y177461D01*
X41629Y177377D01*
X41745Y177311D01*
X41829Y177244D01*
X41895Y177194D01*
X41912Y177178D01*
X42045Y177011D01*
X42145Y176844D01*
X42212Y176661D01*
X42262Y176494D01*
X42295Y176345D01*
X42312Y176228D01*
Y176128D01*
X42295Y175928D01*
X42262Y175711D01*
X42195Y175495D01*
X42129Y175295D01*
X41929Y174878D01*
X41712Y174495D01*
X41595Y174328D01*
X41495Y174162D01*
X41396Y174028D01*
X41295Y173912D01*
X41229Y173812D01*
X41162Y173745D01*
X41129Y173695D01*
X41112Y173678D01*
X41329Y173645D01*
X41512Y173578D01*
X41679Y173512D01*
X41795Y173445D01*
X41895Y173379D01*
X41979Y173312D01*
X42012Y173279D01*
X42029Y173262D01*
X42129Y173112D01*
X42195Y172945D01*
X42245Y172779D01*
X42279Y172629D01*
X42295Y172479D01*
X42312Y172362D01*
Y172262D01*
X42295Y172062D01*
X42279Y171879D01*
X42229Y171712D01*
X42179Y171579D01*
X42145Y171462D01*
X42095Y171362D01*
X42079Y171312D01*
X42062Y171296D01*
X41945Y171129D01*
X41812Y170979D01*
X41662Y170846D01*
X41529Y170713D01*
X41396Y170613D01*
X41295Y170529D01*
X41229Y170479D01*
X41196Y170463D01*
X41012Y170713D01*
X41112Y170796D01*
X41179Y170863D01*
X41229Y170946D01*
X41262Y170996D01*
X41295Y171096D01*
Y171129D01*
X41279Y171196D01*
X41262Y171262D01*
X41245Y171296D01*
Y171312D01*
X41179Y171362D01*
X41112Y171396D01*
X41062Y171429D01*
X41046D01*
X40979Y171446D01*
X40896D01*
X40679Y171462D01*
X40579D01*
X40496D01*
X40429D01*
X40412D01*
X37530D01*
X37313D01*
X37130D01*
X36947Y171479D01*
X36797D01*
X36647Y171496D01*
X36530D01*
X36330Y171512D01*
X36180Y171546D01*
X36080Y171562D01*
X36030Y171579D01*
X36014D01*
X35814Y171662D01*
X35630Y171779D01*
X35464Y171912D01*
X35314Y172046D01*
X35197Y172179D01*
X35114Y172279D01*
X35047Y172346D01*
X35031Y172379D01*
X34880Y172629D01*
X34764Y172895D01*
X34697Y173179D01*
X34631Y173445D01*
X34597Y173678D01*
X34581Y173878D01*
Y174045D01*
X34597Y174378D01*
X34631Y174678D01*
X34664Y174978D01*
X34714Y175228D01*
X34780Y175445D01*
X34814Y175595D01*
X34831Y175661D01*
X34847Y175711D01*
X34864Y175728D01*
Y175745D01*
X34980Y176028D01*
X35114Y176278D01*
X35247Y176494D01*
X35364Y176661D01*
X35480Y176811D01*
X35580Y176911D01*
X35647Y176978D01*
X35664Y176994D01*
X35864Y177144D01*
X36047Y177261D01*
X36230Y177328D01*
X36397Y177394D01*
X36547Y177428D01*
X36647Y177444D01*
X36713D01*
X36747D01*
X36897Y177428D01*
X37030Y177394D01*
X37147Y177344D01*
X37247Y177278D01*
X37330Y177211D01*
X37397Y177161D01*
X37430Y177128D01*
X37446Y177111D01*
X37547Y176978D01*
X37613Y176844D01*
X37680Y176694D01*
X37713Y176561D01*
X37730Y176461D01*
X37746Y176361D01*
Y176278D01*
X37730Y176111D01*
X37696Y175961D01*
X37663Y175828D01*
X37613Y175728D01*
X37563Y175645D01*
X37513Y175578D01*
X37497Y175545D01*
X37480Y175528D01*
X37380Y175428D01*
X37263Y175361D01*
X37147Y175295D01*
X37047Y175261D01*
X36947Y175245D01*
X36880Y175228D01*
X36830D01*
X36813D01*
X36697Y175245D01*
X36580Y175278D01*
X36363Y175378D01*
X36280Y175428D01*
X36214Y175478D01*
X36180Y175511D01*
X36163Y175528D01*
X36080Y175611D01*
X35997Y175661D01*
X35864Y175728D01*
X35780Y175761D01*
X35747D01*
X35680Y175745D01*
X35614Y175728D01*
X35514Y175645D01*
X35447Y175578D01*
X35414Y175561D01*
Y175545D01*
X35330Y175411D01*
X35280Y175278D01*
X35214Y174995D01*
X35197Y174878D01*
X35180Y174778D01*
Y174695D01*
X35214Y174478D01*
X35264Y174295D01*
X35297Y174228D01*
X35314Y174178D01*
X35347Y174145D01*
Y174128D01*
X35414Y174028D01*
X35480Y173962D01*
X35597Y173845D01*
X35697Y173795D01*
X35714Y173778D01*
X35730D01*
X35830Y173745D01*
X35980Y173712D01*
X36163Y173695D01*
X36330D01*
X36497Y173678D01*
X36647D01*
X36747D01*
X36763D01*
X36780D01*
X37530D01*
X37730Y174128D01*
X37930Y174528D01*
X38113Y174895D01*
X38296Y175211D01*
X38446Y175511D01*
X38596Y175778D01*
X38746Y176011D01*
X38863Y176194D01*
X38979Y176378D01*
X39063Y176511D01*
X39146Y176628D01*
X39213Y176728D01*
X39279Y176794D01*
X39313Y176844D01*
X39329Y176861D01*
X39346Y176878D01*
X39479Y177011D01*
X39596Y177111D01*
X39863Y177294D01*
X40113Y177411D01*
X40346Y177511D01*
X40562Y177561D01*
X40712Y177577D01*
X40779Y177594D01*
X40829D01*
X40846D01*
X40862D01*
X41096Y177577D01*
D02*
G37*
G36*
X39179Y169530D02*
X39679Y169463D01*
X40096Y169363D01*
X40296Y169296D01*
X40462Y169230D01*
X40629Y169180D01*
X40762Y169113D01*
X40879Y169063D01*
X40979Y169013D01*
X41062Y168980D01*
X41112Y168946D01*
X41146Y168913D01*
X41162D01*
X41379Y168746D01*
X41579Y168580D01*
X41745Y168396D01*
X41895Y168213D01*
X42012Y168030D01*
X42112Y167830D01*
X42195Y167647D01*
X42262Y167480D01*
X42362Y167147D01*
X42395Y167013D01*
X42412Y166897D01*
Y166797D01*
X42429Y166730D01*
Y166664D01*
X42412Y166464D01*
X42395Y166280D01*
X42362Y166114D01*
X42312Y165964D01*
X42262Y165847D01*
X42229Y165764D01*
X42212Y165697D01*
X42195Y165681D01*
X42079Y165514D01*
X41945Y165331D01*
X41795Y165164D01*
X41629Y164997D01*
X41495Y164864D01*
X41379Y164764D01*
X41295Y164681D01*
X41262Y164664D01*
X42429D01*
X41812Y161548D01*
X41529D01*
X41512Y161698D01*
X41495Y161831D01*
X41479Y161948D01*
X41462Y162031D01*
X41429Y162098D01*
X41412Y162148D01*
X41396Y162165D01*
Y162181D01*
X41279Y162281D01*
X41146Y162365D01*
X41046Y162398D01*
X41012Y162415D01*
X40996D01*
X40962D01*
X40912Y162431D01*
X40779D01*
X40612D01*
X40429Y162448D01*
X40262D01*
X40113D01*
X40012D01*
X39996D01*
X39979D01*
X31448D01*
Y165730D01*
X31781D01*
Y165547D01*
X31798Y165397D01*
X31815Y165281D01*
X31831Y165181D01*
X31865Y165114D01*
X31881Y165064D01*
X31898Y165047D01*
Y165031D01*
X31998Y164897D01*
X32115Y164814D01*
X32215Y164764D01*
X32231Y164747D01*
X32248D01*
X32331Y164714D01*
X32481Y164697D01*
X32648Y164681D01*
X32814D01*
X32981Y164664D01*
X33131D01*
X33231D01*
X33248D01*
X33264D01*
X35514D01*
X35330Y164847D01*
X35180Y165014D01*
X35064Y165164D01*
X34964Y165297D01*
X34880Y165414D01*
X34831Y165497D01*
X34814Y165547D01*
X34797Y165564D01*
X34731Y165714D01*
X34664Y165881D01*
X34631Y166031D01*
X34614Y166180D01*
X34597Y166314D01*
X34581Y166414D01*
Y166497D01*
X34597Y166797D01*
X34647Y167080D01*
X34731Y167347D01*
X34814Y167563D01*
X34914Y167763D01*
X34980Y167897D01*
X35047Y167997D01*
X35064Y168013D01*
Y168030D01*
X35264Y168280D01*
X35497Y168513D01*
X35730Y168696D01*
X35964Y168863D01*
X36163Y168996D01*
X36347Y169080D01*
X36413Y169113D01*
X36447Y169146D01*
X36480Y169163D01*
X36497D01*
X36863Y169296D01*
X37230Y169396D01*
X37596Y169463D01*
X37930Y169513D01*
X38213Y169546D01*
X38346D01*
X38446Y169563D01*
X38530D01*
X38596D01*
X38630D01*
X38646D01*
X39179Y169530D01*
D02*
G37*
G36*
X41096Y160415D02*
X41295Y160365D01*
X41479Y160299D01*
X41629Y160215D01*
X41745Y160149D01*
X41829Y160082D01*
X41895Y160032D01*
X41912Y160015D01*
X42045Y159849D01*
X42145Y159682D01*
X42212Y159499D01*
X42262Y159332D01*
X42295Y159182D01*
X42312Y159066D01*
Y158966D01*
X42295Y158766D01*
X42262Y158549D01*
X42195Y158332D01*
X42129Y158132D01*
X41929Y157716D01*
X41712Y157333D01*
X41595Y157166D01*
X41495Y156999D01*
X41396Y156866D01*
X41295Y156749D01*
X41229Y156650D01*
X41162Y156583D01*
X41129Y156533D01*
X41112Y156516D01*
X41329Y156483D01*
X41512Y156416D01*
X41679Y156350D01*
X41795Y156283D01*
X41895Y156216D01*
X41979Y156150D01*
X42012Y156116D01*
X42029Y156100D01*
X42129Y155950D01*
X42195Y155783D01*
X42245Y155617D01*
X42279Y155466D01*
X42295Y155316D01*
X42312Y155200D01*
Y155100D01*
X42295Y154900D01*
X42279Y154717D01*
X42229Y154550D01*
X42179Y154417D01*
X42145Y154300D01*
X42095Y154200D01*
X42079Y154150D01*
X42062Y154134D01*
X41945Y153967D01*
X41812Y153817D01*
X41662Y153684D01*
X41529Y153550D01*
X41396Y153450D01*
X41295Y153367D01*
X41229Y153317D01*
X41196Y153300D01*
X41012Y153550D01*
X41112Y153634D01*
X41179Y153700D01*
X41229Y153784D01*
X41262Y153834D01*
X41295Y153934D01*
Y153967D01*
X41279Y154033D01*
X41262Y154100D01*
X41245Y154134D01*
Y154150D01*
X41179Y154200D01*
X41112Y154234D01*
X41062Y154267D01*
X41046D01*
X40979Y154284D01*
X40896D01*
X40679Y154300D01*
X40579D01*
X40496D01*
X40429D01*
X40412D01*
X37530D01*
X37313D01*
X37130D01*
X36947Y154317D01*
X36797D01*
X36647Y154333D01*
X36530D01*
X36330Y154350D01*
X36180Y154383D01*
X36080Y154400D01*
X36030Y154417D01*
X36014D01*
X35814Y154500D01*
X35630Y154617D01*
X35464Y154750D01*
X35314Y154883D01*
X35197Y155017D01*
X35114Y155117D01*
X35047Y155183D01*
X35031Y155217D01*
X34880Y155466D01*
X34764Y155733D01*
X34697Y156016D01*
X34631Y156283D01*
X34597Y156516D01*
X34581Y156716D01*
Y156883D01*
X34597Y157216D01*
X34631Y157516D01*
X34664Y157816D01*
X34714Y158066D01*
X34780Y158282D01*
X34814Y158432D01*
X34831Y158499D01*
X34847Y158549D01*
X34864Y158566D01*
Y158582D01*
X34980Y158866D01*
X35114Y159116D01*
X35247Y159332D01*
X35364Y159499D01*
X35480Y159649D01*
X35580Y159749D01*
X35647Y159815D01*
X35664Y159832D01*
X35864Y159982D01*
X36047Y160099D01*
X36230Y160165D01*
X36397Y160232D01*
X36547Y160265D01*
X36647Y160282D01*
X36713D01*
X36747D01*
X36897Y160265D01*
X37030Y160232D01*
X37147Y160182D01*
X37247Y160115D01*
X37330Y160049D01*
X37397Y159999D01*
X37430Y159965D01*
X37446Y159949D01*
X37547Y159815D01*
X37613Y159682D01*
X37680Y159532D01*
X37713Y159399D01*
X37730Y159299D01*
X37746Y159199D01*
Y159116D01*
X37730Y158949D01*
X37696Y158799D01*
X37663Y158666D01*
X37613Y158566D01*
X37563Y158482D01*
X37513Y158416D01*
X37497Y158382D01*
X37480Y158366D01*
X37380Y158266D01*
X37263Y158199D01*
X37147Y158132D01*
X37047Y158099D01*
X36947Y158083D01*
X36880Y158066D01*
X36830D01*
X36813D01*
X36697Y158083D01*
X36580Y158116D01*
X36363Y158216D01*
X36280Y158266D01*
X36214Y158316D01*
X36180Y158349D01*
X36163Y158366D01*
X36080Y158449D01*
X35997Y158499D01*
X35864Y158566D01*
X35780Y158599D01*
X35747D01*
X35680Y158582D01*
X35614Y158566D01*
X35514Y158482D01*
X35447Y158416D01*
X35414Y158399D01*
Y158382D01*
X35330Y158249D01*
X35280Y158116D01*
X35214Y157833D01*
X35197Y157716D01*
X35180Y157616D01*
Y157533D01*
X35214Y157316D01*
X35264Y157133D01*
X35297Y157066D01*
X35314Y157016D01*
X35347Y156983D01*
Y156966D01*
X35414Y156866D01*
X35480Y156799D01*
X35597Y156683D01*
X35697Y156633D01*
X35714Y156616D01*
X35730D01*
X35830Y156583D01*
X35980Y156550D01*
X36163Y156533D01*
X36330D01*
X36497Y156516D01*
X36647D01*
X36747D01*
X36763D01*
X36780D01*
X37530D01*
X37730Y156966D01*
X37930Y157366D01*
X38113Y157733D01*
X38296Y158049D01*
X38446Y158349D01*
X38596Y158616D01*
X38746Y158849D01*
X38863Y159032D01*
X38979Y159215D01*
X39063Y159349D01*
X39146Y159466D01*
X39213Y159565D01*
X39279Y159632D01*
X39313Y159682D01*
X39329Y159699D01*
X39346Y159715D01*
X39479Y159849D01*
X39596Y159949D01*
X39863Y160132D01*
X40113Y160249D01*
X40346Y160349D01*
X40562Y160399D01*
X40712Y160415D01*
X40779Y160432D01*
X40829D01*
X40846D01*
X40862D01*
X41096Y160415D01*
D02*
G37*
G36*
X42212Y148435D02*
X41929D01*
X41912Y148585D01*
X41895Y148718D01*
X41879Y148835D01*
X41862Y148918D01*
X41845Y148985D01*
X41829Y149035D01*
X41812Y149052D01*
Y149068D01*
X41712Y149185D01*
X41612Y149285D01*
X41529Y149335D01*
X41512Y149351D01*
X41495D01*
X41429Y149368D01*
X41362Y149385D01*
X41162Y149401D01*
X41062D01*
X40979D01*
X40929D01*
X40912D01*
X40479D01*
X38779D01*
X38446Y149385D01*
X38113Y149368D01*
X37830Y149318D01*
X37580Y149268D01*
X37363Y149235D01*
X37213Y149185D01*
X37113Y149168D01*
X37080Y149151D01*
X36897Y149085D01*
X36747Y149002D01*
X36613Y148918D01*
X36513Y148851D01*
X36430Y148785D01*
X36363Y148718D01*
X36330Y148685D01*
X36314Y148668D01*
X36247Y148585D01*
X36214Y148502D01*
X36147Y148368D01*
X36130Y148252D01*
Y148152D01*
X36147Y148102D01*
X36163Y148068D01*
X36180Y148052D01*
X36197Y148018D01*
X36247Y147968D01*
X36347Y147835D01*
X36430Y147735D01*
X36463Y147702D01*
X36480Y147685D01*
X36563Y147569D01*
X36630Y147435D01*
X36680Y147319D01*
X36713Y147202D01*
X36730Y147102D01*
X36747Y147019D01*
Y146952D01*
X36730Y146819D01*
X36697Y146702D01*
X36597Y146519D01*
X36547Y146435D01*
X36513Y146385D01*
X36480Y146352D01*
X36463Y146335D01*
X36347Y146252D01*
X36214Y146186D01*
X36063Y146136D01*
X35930Y146102D01*
X35814Y146086D01*
X35714Y146069D01*
X35647D01*
X35630D01*
X35447Y146086D01*
X35297Y146102D01*
X35164Y146152D01*
X35064Y146202D01*
X34980Y146252D01*
X34914Y146285D01*
X34880Y146319D01*
X34864Y146335D01*
X34764Y146435D01*
X34697Y146552D01*
X34647Y146669D01*
X34614Y146785D01*
X34597Y146885D01*
X34581Y146969D01*
Y147035D01*
X34597Y147235D01*
X34647Y147419D01*
X34697Y147602D01*
X34764Y147768D01*
X34847Y147918D01*
X34897Y148018D01*
X34947Y148085D01*
X34964Y148118D01*
X35047Y148218D01*
X35130Y148335D01*
X35347Y148552D01*
X35597Y148768D01*
X35864Y148968D01*
X36097Y149135D01*
X36297Y149285D01*
X36363Y149335D01*
X36430Y149368D01*
X36463Y149385D01*
X36480Y149401D01*
X34797D01*
Y152451D01*
X35080D01*
X35097Y152317D01*
X35130Y152201D01*
X35147Y152117D01*
X35180Y152034D01*
X35197Y151984D01*
X35214Y151951D01*
X35230Y151917D01*
X35330Y151817D01*
X35430Y151751D01*
X35530Y151701D01*
X35547Y151684D01*
X35564D01*
X35647Y151667D01*
X35764Y151651D01*
X35897Y151634D01*
X36030Y151617D01*
X36147D01*
X36263D01*
X36330D01*
X36363D01*
X40462D01*
X40646D01*
X40796D01*
X41062Y151651D01*
X41279Y151667D01*
X41445Y151701D01*
X41546Y151734D01*
X41629Y151767D01*
X41662Y151784D01*
X41679Y151801D01*
X41745Y151884D01*
X41812Y151967D01*
X41879Y152184D01*
X41912Y152284D01*
Y152367D01*
X41929Y152434D01*
Y152451D01*
X42212D01*
Y148435D01*
D02*
G37*
G36*
Y141220D02*
X41929D01*
X41912Y141370D01*
X41895Y141503D01*
X41879Y141620D01*
X41862Y141703D01*
X41845Y141770D01*
X41829Y141820D01*
X41812Y141837D01*
Y141853D01*
X41712Y141970D01*
X41612Y142070D01*
X41529Y142120D01*
X41512Y142137D01*
X41495D01*
X41429Y142153D01*
X41362Y142170D01*
X41162Y142187D01*
X41062D01*
X40979D01*
X40929D01*
X40912D01*
X40479D01*
X38779D01*
X38446Y142170D01*
X38113Y142153D01*
X37830Y142103D01*
X37580Y142053D01*
X37363Y142020D01*
X37213Y141970D01*
X37113Y141953D01*
X37080Y141937D01*
X36897Y141870D01*
X36747Y141787D01*
X36613Y141703D01*
X36513Y141637D01*
X36430Y141570D01*
X36363Y141503D01*
X36330Y141470D01*
X36314Y141453D01*
X36247Y141370D01*
X36214Y141287D01*
X36147Y141153D01*
X36130Y141037D01*
Y140937D01*
X36147Y140887D01*
X36163Y140854D01*
X36180Y140837D01*
X36197Y140804D01*
X36247Y140754D01*
X36347Y140620D01*
X36430Y140520D01*
X36463Y140487D01*
X36480Y140470D01*
X36563Y140354D01*
X36630Y140220D01*
X36680Y140104D01*
X36713Y139987D01*
X36730Y139887D01*
X36747Y139804D01*
Y139737D01*
X36730Y139604D01*
X36697Y139487D01*
X36597Y139304D01*
X36547Y139221D01*
X36513Y139171D01*
X36480Y139137D01*
X36463Y139121D01*
X36347Y139037D01*
X36214Y138971D01*
X36063Y138921D01*
X35930Y138887D01*
X35814Y138871D01*
X35714Y138854D01*
X35647D01*
X35630D01*
X35447Y138871D01*
X35297Y138887D01*
X35164Y138937D01*
X35064Y138987D01*
X34980Y139037D01*
X34914Y139071D01*
X34880Y139104D01*
X34864Y139121D01*
X34764Y139221D01*
X34697Y139337D01*
X34647Y139454D01*
X34614Y139571D01*
X34597Y139670D01*
X34581Y139754D01*
Y139820D01*
X34597Y140020D01*
X34647Y140204D01*
X34697Y140387D01*
X34764Y140554D01*
X34847Y140704D01*
X34897Y140804D01*
X34947Y140870D01*
X34964Y140904D01*
X35047Y141004D01*
X35130Y141120D01*
X35347Y141337D01*
X35597Y141553D01*
X35864Y141753D01*
X36097Y141920D01*
X36297Y142070D01*
X36363Y142120D01*
X36430Y142153D01*
X36463Y142170D01*
X36480Y142187D01*
X34797D01*
Y145236D01*
X35080D01*
X35097Y145103D01*
X35130Y144986D01*
X35147Y144902D01*
X35180Y144819D01*
X35197Y144769D01*
X35214Y144736D01*
X35230Y144703D01*
X35330Y144603D01*
X35430Y144536D01*
X35530Y144486D01*
X35547Y144469D01*
X35564D01*
X35647Y144453D01*
X35764Y144436D01*
X35897Y144419D01*
X36030Y144403D01*
X36147D01*
X36263D01*
X36330D01*
X36363D01*
X40462D01*
X40646D01*
X40796D01*
X41062Y144436D01*
X41279Y144453D01*
X41445Y144486D01*
X41546Y144519D01*
X41629Y144553D01*
X41662Y144569D01*
X41679Y144586D01*
X41745Y144669D01*
X41812Y144753D01*
X41879Y144969D01*
X41912Y145069D01*
Y145153D01*
X41929Y145219D01*
Y145236D01*
X42212D01*
Y141220D01*
D02*
G37*
G36*
X41096Y137854D02*
X41295Y137804D01*
X41479Y137738D01*
X41629Y137654D01*
X41745Y137588D01*
X41829Y137521D01*
X41895Y137471D01*
X41912Y137454D01*
X42045Y137288D01*
X42145Y137121D01*
X42212Y136938D01*
X42262Y136771D01*
X42295Y136621D01*
X42312Y136505D01*
Y136405D01*
X42295Y136205D01*
X42262Y135988D01*
X42195Y135772D01*
X42129Y135572D01*
X41929Y135155D01*
X41712Y134772D01*
X41595Y134605D01*
X41495Y134438D01*
X41396Y134305D01*
X41295Y134189D01*
X41229Y134089D01*
X41162Y134022D01*
X41129Y133972D01*
X41112Y133955D01*
X41329Y133922D01*
X41512Y133855D01*
X41679Y133789D01*
X41795Y133722D01*
X41895Y133655D01*
X41979Y133589D01*
X42012Y133555D01*
X42029Y133539D01*
X42129Y133389D01*
X42195Y133222D01*
X42245Y133056D01*
X42279Y132906D01*
X42295Y132756D01*
X42312Y132639D01*
Y132539D01*
X42295Y132339D01*
X42279Y132156D01*
X42229Y131989D01*
X42179Y131856D01*
X42145Y131739D01*
X42095Y131639D01*
X42079Y131589D01*
X42062Y131573D01*
X41945Y131406D01*
X41812Y131256D01*
X41662Y131123D01*
X41529Y130989D01*
X41396Y130890D01*
X41295Y130806D01*
X41229Y130756D01*
X41196Y130739D01*
X41012Y130989D01*
X41112Y131073D01*
X41179Y131139D01*
X41229Y131223D01*
X41262Y131273D01*
X41295Y131373D01*
Y131406D01*
X41279Y131473D01*
X41262Y131539D01*
X41245Y131573D01*
Y131589D01*
X41179Y131639D01*
X41112Y131673D01*
X41062Y131706D01*
X41046D01*
X40979Y131723D01*
X40896D01*
X40679Y131739D01*
X40579D01*
X40496D01*
X40429D01*
X40412D01*
X37530D01*
X37313D01*
X37130D01*
X36947Y131756D01*
X36797D01*
X36647Y131773D01*
X36530D01*
X36330Y131789D01*
X36180Y131823D01*
X36080Y131839D01*
X36030Y131856D01*
X36014D01*
X35814Y131939D01*
X35630Y132056D01*
X35464Y132189D01*
X35314Y132322D01*
X35197Y132456D01*
X35114Y132556D01*
X35047Y132622D01*
X35031Y132656D01*
X34880Y132906D01*
X34764Y133172D01*
X34697Y133455D01*
X34631Y133722D01*
X34597Y133955D01*
X34581Y134155D01*
Y134322D01*
X34597Y134655D01*
X34631Y134955D01*
X34664Y135255D01*
X34714Y135505D01*
X34780Y135722D01*
X34814Y135871D01*
X34831Y135938D01*
X34847Y135988D01*
X34864Y136005D01*
Y136021D01*
X34980Y136305D01*
X35114Y136555D01*
X35247Y136771D01*
X35364Y136938D01*
X35480Y137088D01*
X35580Y137188D01*
X35647Y137254D01*
X35664Y137271D01*
X35864Y137421D01*
X36047Y137538D01*
X36230Y137604D01*
X36397Y137671D01*
X36547Y137704D01*
X36647Y137721D01*
X36713D01*
X36747D01*
X36897Y137704D01*
X37030Y137671D01*
X37147Y137621D01*
X37247Y137554D01*
X37330Y137488D01*
X37397Y137438D01*
X37430Y137404D01*
X37446Y137388D01*
X37547Y137254D01*
X37613Y137121D01*
X37680Y136971D01*
X37713Y136838D01*
X37730Y136738D01*
X37746Y136638D01*
Y136555D01*
X37730Y136388D01*
X37696Y136238D01*
X37663Y136105D01*
X37613Y136005D01*
X37563Y135921D01*
X37513Y135855D01*
X37497Y135822D01*
X37480Y135805D01*
X37380Y135705D01*
X37263Y135638D01*
X37147Y135572D01*
X37047Y135538D01*
X36947Y135522D01*
X36880Y135505D01*
X36830D01*
X36813D01*
X36697Y135522D01*
X36580Y135555D01*
X36363Y135655D01*
X36280Y135705D01*
X36214Y135755D01*
X36180Y135788D01*
X36163Y135805D01*
X36080Y135888D01*
X35997Y135938D01*
X35864Y136005D01*
X35780Y136038D01*
X35747D01*
X35680Y136021D01*
X35614Y136005D01*
X35514Y135921D01*
X35447Y135855D01*
X35414Y135838D01*
Y135822D01*
X35330Y135688D01*
X35280Y135555D01*
X35214Y135272D01*
X35197Y135155D01*
X35180Y135055D01*
Y134972D01*
X35214Y134755D01*
X35264Y134572D01*
X35297Y134505D01*
X35314Y134455D01*
X35347Y134422D01*
Y134405D01*
X35414Y134305D01*
X35480Y134239D01*
X35597Y134122D01*
X35697Y134072D01*
X35714Y134055D01*
X35730D01*
X35830Y134022D01*
X35980Y133989D01*
X36163Y133972D01*
X36330D01*
X36497Y133955D01*
X36647D01*
X36747D01*
X36763D01*
X36780D01*
X37530D01*
X37730Y134405D01*
X37930Y134805D01*
X38113Y135172D01*
X38296Y135488D01*
X38446Y135788D01*
X38596Y136055D01*
X38746Y136288D01*
X38863Y136471D01*
X38979Y136655D01*
X39063Y136788D01*
X39146Y136905D01*
X39213Y137005D01*
X39279Y137071D01*
X39313Y137121D01*
X39329Y137138D01*
X39346Y137155D01*
X39479Y137288D01*
X39596Y137388D01*
X39863Y137571D01*
X40113Y137688D01*
X40346Y137788D01*
X40562Y137838D01*
X40712Y137854D01*
X40779Y137871D01*
X40829D01*
X40846D01*
X40862D01*
X41096Y137854D01*
D02*
G37*
G36*
X42212Y126057D02*
X41929D01*
X41912Y126224D01*
X41862Y126357D01*
X41829Y126474D01*
X41779Y126557D01*
X41729Y126624D01*
X41679Y126674D01*
X41662Y126691D01*
X41645Y126707D01*
X41529Y126757D01*
X41379Y126791D01*
X41196Y126824D01*
X41029Y126840D01*
X40862D01*
X40729Y126857D01*
X40629D01*
X40612D01*
X40596D01*
X36613D01*
X36413Y126707D01*
X36230Y126557D01*
X36097Y126424D01*
X35980Y126307D01*
X35897Y126207D01*
X35830Y126124D01*
X35797Y126074D01*
X35780Y126057D01*
X35680Y125857D01*
X35630Y125674D01*
X35614Y125608D01*
Y125491D01*
X35630Y125341D01*
X35680Y125208D01*
X35747Y125124D01*
X35764Y125091D01*
X35897Y124958D01*
X36014Y124874D01*
X36114Y124841D01*
X36147Y124824D01*
X36163D01*
X36214Y124808D01*
X36280Y124791D01*
X36463Y124774D01*
X36663Y124758D01*
X36880D01*
X37080Y124741D01*
X37247D01*
X37313D01*
X37363D01*
X37397D01*
X37413D01*
X40596D01*
X40829D01*
X41012Y124758D01*
X41162D01*
X41279Y124774D01*
X41362Y124791D01*
X41412D01*
X41445Y124808D01*
X41462D01*
X41595Y124858D01*
X41695Y124941D01*
X41762Y125008D01*
X41795Y125024D01*
Y125041D01*
X41879Y125191D01*
X41912Y125341D01*
X41929Y125407D01*
Y125524D01*
X42212D01*
Y121692D01*
X41929D01*
X41912Y121875D01*
X41879Y122025D01*
X41829Y122142D01*
X41762Y122242D01*
X41712Y122308D01*
X41662Y122358D01*
X41629Y122375D01*
X41612Y122392D01*
X41512Y122442D01*
X41362Y122475D01*
X41196Y122492D01*
X41029Y122508D01*
X40862Y122525D01*
X40729D01*
X40629D01*
X40612D01*
X40596D01*
X36613D01*
X36430Y122392D01*
X36280Y122258D01*
X36163Y122142D01*
X36047Y122025D01*
X35964Y121942D01*
X35914Y121875D01*
X35880Y121825D01*
X35864Y121808D01*
X35780Y121675D01*
X35714Y121559D01*
X35680Y121442D01*
X35647Y121342D01*
X35630Y121242D01*
X35614Y121175D01*
Y121125D01*
X35630Y120959D01*
X35680Y120842D01*
X35730Y120759D01*
X35747Y120725D01*
X35864Y120609D01*
X35997Y120525D01*
X36114Y120492D01*
X36147Y120476D01*
X36163D01*
X36214Y120459D01*
X36297Y120442D01*
X36463Y120426D01*
X36680Y120409D01*
X36880D01*
X37080Y120392D01*
X37247D01*
X37313D01*
X37363D01*
X37397D01*
X37413D01*
X40596D01*
X40862D01*
X41079Y120409D01*
X41262Y120442D01*
X41396Y120459D01*
X41479Y120492D01*
X41546Y120525D01*
X41579Y120542D01*
X41595D01*
X41695Y120625D01*
X41779Y120742D01*
X41829Y120842D01*
X41879Y120959D01*
X41895Y121059D01*
X41912Y121142D01*
X41929Y121192D01*
Y121209D01*
X42212D01*
Y117376D01*
X41929D01*
X41895Y117543D01*
X41862Y117676D01*
X41829Y117793D01*
X41779Y117876D01*
X41745Y117943D01*
X41712Y117993D01*
X41679Y118009D01*
Y118026D01*
X41562Y118076D01*
X41412Y118109D01*
X41245Y118143D01*
X41062Y118159D01*
X40879D01*
X40729Y118176D01*
X40629D01*
X40612D01*
X40596D01*
X37563D01*
X37147D01*
X36797Y118209D01*
X36497Y118226D01*
X36263Y118259D01*
X36080Y118293D01*
X35947Y118326D01*
X35864Y118343D01*
X35847Y118359D01*
X35647Y118426D01*
X35480Y118526D01*
X35314Y118626D01*
X35197Y118743D01*
X35080Y118842D01*
X35014Y118909D01*
X34964Y118976D01*
X34947Y118993D01*
X34831Y119176D01*
X34731Y119376D01*
X34664Y119576D01*
X34631Y119776D01*
X34597Y119942D01*
X34581Y120076D01*
Y120209D01*
X34597Y120442D01*
X34631Y120659D01*
X34681Y120875D01*
X34731Y121059D01*
X34797Y121209D01*
X34847Y121325D01*
X34880Y121392D01*
X34897Y121425D01*
X35031Y121642D01*
X35197Y121858D01*
X35364Y122075D01*
X35530Y122258D01*
X35680Y122425D01*
X35814Y122542D01*
X35897Y122625D01*
X35914Y122658D01*
X35930D01*
X35697Y122758D01*
X35480Y122875D01*
X35314Y122992D01*
X35164Y123125D01*
X35047Y123225D01*
X34980Y123308D01*
X34931Y123375D01*
X34914Y123391D01*
X34797Y123575D01*
X34714Y123775D01*
X34664Y123975D01*
X34614Y124174D01*
X34597Y124341D01*
X34581Y124474D01*
Y124591D01*
X34597Y124824D01*
X34614Y125024D01*
X34664Y125224D01*
X34714Y125391D01*
X34764Y125524D01*
X34797Y125641D01*
X34831Y125707D01*
X34847Y125724D01*
X34964Y125924D01*
X35097Y126124D01*
X35264Y126307D01*
X35414Y126491D01*
X35547Y126641D01*
X35664Y126757D01*
X35747Y126824D01*
X35780Y126857D01*
X34797D01*
Y129873D01*
X35080D01*
X35114Y129706D01*
X35147Y129557D01*
X35197Y129440D01*
X35247Y129356D01*
X35297Y129290D01*
X35330Y129256D01*
X35347Y129223D01*
X35364D01*
X35464Y129173D01*
X35614Y129140D01*
X35780Y129107D01*
X35964Y129090D01*
X36130Y129073D01*
X36280D01*
X36380D01*
X36397D01*
X36413D01*
X40596D01*
X40896D01*
X41129Y129090D01*
X41295Y129107D01*
X41429Y129140D01*
X41529Y129157D01*
X41595Y129190D01*
X41612Y129206D01*
X41629D01*
X41712Y129290D01*
X41795Y129390D01*
X41845Y129507D01*
X41879Y129606D01*
X41895Y129706D01*
X41912Y129790D01*
X41929Y129856D01*
Y129873D01*
X42212D01*
Y126057D01*
D02*
G37*
G36*
X41096Y116193D02*
X41295Y116143D01*
X41479Y116077D01*
X41629Y115993D01*
X41745Y115927D01*
X41829Y115860D01*
X41895Y115810D01*
X41912Y115793D01*
X42045Y115627D01*
X42145Y115460D01*
X42212Y115277D01*
X42262Y115110D01*
X42295Y114960D01*
X42312Y114844D01*
Y114744D01*
X42295Y114544D01*
X42262Y114327D01*
X42195Y114110D01*
X42129Y113911D01*
X41929Y113494D01*
X41712Y113111D01*
X41595Y112944D01*
X41495Y112777D01*
X41396Y112644D01*
X41295Y112528D01*
X41229Y112428D01*
X41162Y112361D01*
X41129Y112311D01*
X41112Y112294D01*
X41329Y112261D01*
X41512Y112194D01*
X41679Y112128D01*
X41795Y112061D01*
X41895Y111994D01*
X41979Y111928D01*
X42012Y111894D01*
X42029Y111878D01*
X42129Y111728D01*
X42195Y111561D01*
X42245Y111394D01*
X42279Y111244D01*
X42295Y111095D01*
X42312Y110978D01*
Y110878D01*
X42295Y110678D01*
X42279Y110495D01*
X42229Y110328D01*
X42179Y110195D01*
X42145Y110078D01*
X42095Y109978D01*
X42079Y109928D01*
X42062Y109911D01*
X41945Y109745D01*
X41812Y109595D01*
X41662Y109462D01*
X41529Y109328D01*
X41396Y109228D01*
X41295Y109145D01*
X41229Y109095D01*
X41196Y109078D01*
X41012Y109328D01*
X41112Y109412D01*
X41179Y109478D01*
X41229Y109562D01*
X41262Y109612D01*
X41295Y109712D01*
Y109745D01*
X41279Y109811D01*
X41262Y109878D01*
X41245Y109911D01*
Y109928D01*
X41179Y109978D01*
X41112Y110012D01*
X41062Y110045D01*
X41046D01*
X40979Y110062D01*
X40896D01*
X40679Y110078D01*
X40579D01*
X40496D01*
X40429D01*
X40412D01*
X37530D01*
X37313D01*
X37130D01*
X36947Y110095D01*
X36797D01*
X36647Y110111D01*
X36530D01*
X36330Y110128D01*
X36180Y110161D01*
X36080Y110178D01*
X36030Y110195D01*
X36014D01*
X35814Y110278D01*
X35630Y110395D01*
X35464Y110528D01*
X35314Y110661D01*
X35197Y110795D01*
X35114Y110895D01*
X35047Y110961D01*
X35031Y110995D01*
X34880Y111244D01*
X34764Y111511D01*
X34697Y111794D01*
X34631Y112061D01*
X34597Y112294D01*
X34581Y112494D01*
Y112661D01*
X34597Y112994D01*
X34631Y113294D01*
X34664Y113594D01*
X34714Y113844D01*
X34780Y114060D01*
X34814Y114210D01*
X34831Y114277D01*
X34847Y114327D01*
X34864Y114344D01*
Y114360D01*
X34980Y114644D01*
X35114Y114894D01*
X35247Y115110D01*
X35364Y115277D01*
X35480Y115427D01*
X35580Y115527D01*
X35647Y115593D01*
X35664Y115610D01*
X35864Y115760D01*
X36047Y115877D01*
X36230Y115943D01*
X36397Y116010D01*
X36547Y116043D01*
X36647Y116060D01*
X36713D01*
X36747D01*
X36897Y116043D01*
X37030Y116010D01*
X37147Y115960D01*
X37247Y115893D01*
X37330Y115827D01*
X37397Y115777D01*
X37430Y115743D01*
X37446Y115727D01*
X37547Y115593D01*
X37613Y115460D01*
X37680Y115310D01*
X37713Y115177D01*
X37730Y115077D01*
X37746Y114977D01*
Y114894D01*
X37730Y114727D01*
X37696Y114577D01*
X37663Y114444D01*
X37613Y114344D01*
X37563Y114260D01*
X37513Y114194D01*
X37497Y114160D01*
X37480Y114144D01*
X37380Y114044D01*
X37263Y113977D01*
X37147Y113911D01*
X37047Y113877D01*
X36947Y113861D01*
X36880Y113844D01*
X36830D01*
X36813D01*
X36697Y113861D01*
X36580Y113894D01*
X36363Y113994D01*
X36280Y114044D01*
X36214Y114094D01*
X36180Y114127D01*
X36163Y114144D01*
X36080Y114227D01*
X35997Y114277D01*
X35864Y114344D01*
X35780Y114377D01*
X35747D01*
X35680Y114360D01*
X35614Y114344D01*
X35514Y114260D01*
X35447Y114194D01*
X35414Y114177D01*
Y114160D01*
X35330Y114027D01*
X35280Y113894D01*
X35214Y113610D01*
X35197Y113494D01*
X35180Y113394D01*
Y113311D01*
X35214Y113094D01*
X35264Y112911D01*
X35297Y112844D01*
X35314Y112794D01*
X35347Y112761D01*
Y112744D01*
X35414Y112644D01*
X35480Y112577D01*
X35597Y112461D01*
X35697Y112411D01*
X35714Y112394D01*
X35730D01*
X35830Y112361D01*
X35980Y112327D01*
X36163Y112311D01*
X36330D01*
X36497Y112294D01*
X36647D01*
X36747D01*
X36763D01*
X36780D01*
X37530D01*
X37730Y112744D01*
X37930Y113144D01*
X38113Y113511D01*
X38296Y113827D01*
X38446Y114127D01*
X38596Y114394D01*
X38746Y114627D01*
X38863Y114810D01*
X38979Y114993D01*
X39063Y115127D01*
X39146Y115244D01*
X39213Y115343D01*
X39279Y115410D01*
X39313Y115460D01*
X39329Y115477D01*
X39346Y115493D01*
X39479Y115627D01*
X39596Y115727D01*
X39863Y115910D01*
X40113Y116027D01*
X40346Y116127D01*
X40562Y116177D01*
X40712Y116193D01*
X40779Y116210D01*
X40829D01*
X40846D01*
X40862D01*
X41096Y116193D01*
D02*
G37*
%LPC*%
G36*
X142646Y394885D02*
X141436D01*
Y394775D01*
X141105D01*
Y394665D01*
X140995D01*
Y394555D01*
X140885D01*
Y394445D01*
X140775D01*
Y394225D01*
X140665D01*
Y393895D01*
X140555D01*
Y393234D01*
X140445D01*
Y392464D01*
X140555D01*
Y391693D01*
X140665D01*
Y391363D01*
X140775D01*
Y391143D01*
X140885D01*
Y391033D01*
X140995D01*
Y390923D01*
X141105D01*
Y390813D01*
X141215D01*
Y390703D01*
X141436D01*
Y390593D01*
X141876D01*
Y390483D01*
X142206D01*
Y390593D01*
X142757D01*
Y390703D01*
X142977D01*
Y390813D01*
X143087D01*
Y390923D01*
X143197D01*
Y391033D01*
X143307D01*
Y391253D01*
X143417D01*
Y391473D01*
X143527D01*
Y391913D01*
X143637D01*
Y393344D01*
X143527D01*
Y393895D01*
X143417D01*
Y394115D01*
X143307D01*
Y394335D01*
X143197D01*
Y394555D01*
X143087D01*
Y394665D01*
X142866D01*
Y394775D01*
X142646D01*
Y394885D01*
D02*
G37*
G36*
X130099Y350749D02*
X129658D01*
Y350639D01*
X129218D01*
Y350528D01*
X129108D01*
Y350418D01*
X128998D01*
Y350308D01*
X128888D01*
Y350198D01*
X128778D01*
Y350088D01*
X128668D01*
Y349868D01*
X128558D01*
Y349538D01*
X128448D01*
Y348988D01*
X128338D01*
Y347337D01*
X128448D01*
Y347006D01*
X128558D01*
Y346786D01*
X128668D01*
Y346676D01*
X128778D01*
Y346566D01*
X128998D01*
Y346456D01*
X129218D01*
Y346346D01*
X130539D01*
Y346456D01*
X130759D01*
Y346566D01*
X130869D01*
Y346676D01*
X130979D01*
Y346896D01*
X131089D01*
Y347006D01*
X131200D01*
Y347337D01*
X131309D01*
Y347667D01*
X131420D01*
Y348547D01*
X131530D01*
Y349208D01*
X131420D01*
Y349758D01*
X131309D01*
Y349978D01*
X131200D01*
Y350198D01*
X131089D01*
Y350308D01*
X130979D01*
Y350418D01*
X130759D01*
Y350528D01*
X130539D01*
Y350639D01*
X130099D01*
Y350749D01*
D02*
G37*
G36*
X38563Y298330D02*
X34897Y296680D01*
X38563Y295081D01*
Y298330D01*
D02*
G37*
G36*
X36713Y277319D02*
X32065D01*
Y277002D01*
X32081Y276635D01*
X32148Y276319D01*
X32248Y276052D01*
X32348Y275819D01*
X32448Y275652D01*
X32548Y275536D01*
X32614Y275452D01*
X32631Y275436D01*
X32864Y275252D01*
X33131Y275119D01*
X33431Y275036D01*
X33714Y274969D01*
X33964Y274936D01*
X34081Y274919D01*
X34181Y274903D01*
X34264D01*
X34331D01*
X34364D01*
X34381D01*
X34797Y274919D01*
X35164Y274986D01*
X35464Y275069D01*
X35714Y275169D01*
X35914Y275269D01*
X36047Y275352D01*
X36130Y275419D01*
X36163Y275436D01*
X36347Y275652D01*
X36497Y275886D01*
X36597Y276136D01*
X36663Y276369D01*
X36697Y276586D01*
X36713Y276752D01*
X36730Y276819D01*
Y277052D01*
X36713Y277169D01*
Y277319D01*
D02*
G37*
G36*
X37713Y257307D02*
X37446D01*
X37013Y257290D01*
X36630Y257240D01*
X36297Y257157D01*
X36014Y257074D01*
X35797Y257007D01*
X35647Y256924D01*
X35547Y256874D01*
X35514Y256857D01*
X35380Y256757D01*
X35280Y256641D01*
X35197Y256524D01*
X35147Y256407D01*
X35114Y256324D01*
X35097Y256241D01*
Y256174D01*
X35114Y255991D01*
X35164Y255858D01*
X35230Y255774D01*
X35247Y255741D01*
X35347Y255641D01*
X35464Y255541D01*
X35714Y255408D01*
X35814Y255358D01*
X35897Y255324D01*
X35964Y255308D01*
X35980D01*
X36080Y255274D01*
X36180Y255258D01*
X36447Y255224D01*
X36730Y255191D01*
X37013Y255174D01*
X37280Y255158D01*
X37397D01*
X37513D01*
X37596D01*
X37663D01*
X37696D01*
X37713D01*
Y257307D01*
D02*
G37*
G36*
X39446Y244494D02*
X39296D01*
X39229D01*
X39179D01*
X39163D01*
X39146D01*
X38846D01*
X38580D01*
X38313D01*
X38080Y244477D01*
X37863D01*
X37647Y244460D01*
X37463D01*
X37297Y244444D01*
X37147D01*
X37013D01*
X36897Y244427D01*
X36813D01*
X36747Y244410D01*
X36680D01*
X36663D01*
X36647D01*
X36330Y244377D01*
X36080Y244310D01*
X35864Y244260D01*
X35714Y244194D01*
X35597Y244144D01*
X35514Y244094D01*
X35464Y244060D01*
X35447Y244044D01*
X35347Y243927D01*
X35264Y243811D01*
X35214Y243694D01*
X35164Y243577D01*
X35147Y243494D01*
X35130Y243411D01*
Y243344D01*
X35164Y243111D01*
X35214Y242944D01*
X35247Y242877D01*
X35264Y242827D01*
X35297Y242811D01*
Y242794D01*
X35397Y242694D01*
X35514Y242611D01*
X35764Y242477D01*
X35864Y242428D01*
X35964Y242394D01*
X36030Y242361D01*
X36047D01*
X36147Y242328D01*
X36263Y242311D01*
X36547Y242261D01*
X36847Y242228D01*
X37163Y242211D01*
X37446Y242194D01*
X37563D01*
X37680D01*
X37763D01*
X37830D01*
X37880D01*
X37896D01*
X38313D01*
X38679D01*
X39029Y242211D01*
X39329Y242228D01*
X39613D01*
X39863Y242244D01*
X40079Y242261D01*
X40262Y242278D01*
X40429Y242294D01*
X40579Y242311D01*
X40679Y242328D01*
X40779D01*
X40846Y242344D01*
X40896Y242361D01*
X40912D01*
X40929D01*
X41096Y242411D01*
X41245Y242461D01*
X41379Y242544D01*
X41495Y242611D01*
X41579Y242677D01*
X41645Y242728D01*
X41679Y242761D01*
X41695Y242778D01*
X41762Y242861D01*
X41795Y242961D01*
X41862Y243161D01*
Y243244D01*
X41879Y243294D01*
Y243361D01*
X41862Y243494D01*
X41829Y243611D01*
X41795Y243727D01*
X41729Y243827D01*
X41679Y243911D01*
X41645Y243977D01*
X41612Y244011D01*
X41595Y244027D01*
X41479Y244127D01*
X41329Y244210D01*
X41046Y244310D01*
X40929Y244344D01*
X40829Y244377D01*
X40746Y244394D01*
X40729D01*
X40179Y244444D01*
X39913Y244477D01*
X39663D01*
X39446Y244494D01*
D02*
G37*
G36*
X40196Y175428D02*
X40146D01*
X40129D01*
X39962Y175411D01*
X39813Y175378D01*
X39663Y175328D01*
X39529Y175278D01*
X39429Y175228D01*
X39329Y175178D01*
X39279Y175145D01*
X39263Y175128D01*
X39029Y174928D01*
X38813Y174712D01*
X38596Y174462D01*
X38430Y174228D01*
X38280Y174012D01*
X38163Y173845D01*
X38113Y173778D01*
X38096Y173729D01*
X38063Y173695D01*
Y173678D01*
X40529D01*
X40679Y173878D01*
X40796Y174045D01*
X40862Y174212D01*
X40929Y174345D01*
X40962Y174462D01*
X40979Y174545D01*
Y174612D01*
X40962Y174745D01*
X40946Y174862D01*
X40912Y174945D01*
X40879Y175028D01*
X40846Y175095D01*
X40812Y175145D01*
X40779Y175161D01*
Y175178D01*
X40662Y175261D01*
X40562Y175328D01*
X40446Y175361D01*
X40346Y175395D01*
X40262Y175411D01*
X40196Y175428D01*
D02*
G37*
G36*
X38630Y167247D02*
X38513D01*
X38413D01*
X38346D01*
X38296D01*
X38280D01*
X37830Y167230D01*
X37446Y167213D01*
X37130Y167180D01*
X36863Y167147D01*
X36663Y167113D01*
X36513Y167097D01*
X36430Y167064D01*
X36397D01*
X36180Y166997D01*
X35997Y166914D01*
X35847Y166830D01*
X35730Y166764D01*
X35647Y166697D01*
X35580Y166647D01*
X35547Y166614D01*
X35530Y166597D01*
X35430Y166430D01*
X35380Y166280D01*
X35364Y166214D01*
Y166114D01*
X35380Y165964D01*
X35414Y165814D01*
X35464Y165664D01*
X35530Y165531D01*
X35714Y165281D01*
X35914Y165064D01*
X36130Y164897D01*
X36297Y164764D01*
X36380Y164731D01*
X36430Y164697D01*
X36463Y164664D01*
X36480D01*
X40396D01*
X40579Y164781D01*
X40746Y164897D01*
X40896Y165014D01*
X41029Y165131D01*
X41129Y165247D01*
X41212Y165364D01*
X41346Y165564D01*
X41429Y165730D01*
X41462Y165864D01*
X41479Y165947D01*
Y165980D01*
X41462Y166197D01*
X41396Y166347D01*
X41346Y166447D01*
X41329Y166464D01*
Y166480D01*
X41196Y166614D01*
X41046Y166730D01*
X40896Y166814D01*
X40729Y166897D01*
X40596Y166964D01*
X40462Y167013D01*
X40396Y167030D01*
X40362Y167047D01*
X40229Y167080D01*
X40079Y167113D01*
X39763Y167164D01*
X39413Y167197D01*
X39063Y167213D01*
X38763Y167230D01*
X38630Y167247D01*
D02*
G37*
G36*
X40196Y158266D02*
X40146D01*
X40129D01*
X39962Y158249D01*
X39813Y158216D01*
X39663Y158166D01*
X39529Y158116D01*
X39429Y158066D01*
X39329Y158016D01*
X39279Y157983D01*
X39263Y157966D01*
X39029Y157766D01*
X38813Y157549D01*
X38596Y157299D01*
X38430Y157066D01*
X38280Y156849D01*
X38163Y156683D01*
X38113Y156616D01*
X38096Y156566D01*
X38063Y156533D01*
Y156516D01*
X40529D01*
X40679Y156716D01*
X40796Y156883D01*
X40862Y157049D01*
X40929Y157183D01*
X40962Y157299D01*
X40979Y157383D01*
Y157449D01*
X40962Y157583D01*
X40946Y157699D01*
X40912Y157783D01*
X40879Y157866D01*
X40846Y157933D01*
X40812Y157983D01*
X40779Y157999D01*
Y158016D01*
X40662Y158099D01*
X40562Y158166D01*
X40446Y158199D01*
X40346Y158232D01*
X40262Y158249D01*
X40196Y158266D01*
D02*
G37*
G36*
Y135705D02*
X40146D01*
X40129D01*
X39962Y135688D01*
X39813Y135655D01*
X39663Y135605D01*
X39529Y135555D01*
X39429Y135505D01*
X39329Y135455D01*
X39279Y135422D01*
X39263Y135405D01*
X39029Y135205D01*
X38813Y134988D01*
X38596Y134739D01*
X38430Y134505D01*
X38280Y134289D01*
X38163Y134122D01*
X38113Y134055D01*
X38096Y134005D01*
X38063Y133972D01*
Y133955D01*
X40529D01*
X40679Y134155D01*
X40796Y134322D01*
X40862Y134488D01*
X40929Y134622D01*
X40962Y134739D01*
X40979Y134822D01*
Y134888D01*
X40962Y135022D01*
X40946Y135138D01*
X40912Y135222D01*
X40879Y135305D01*
X40846Y135372D01*
X40812Y135422D01*
X40779Y135438D01*
Y135455D01*
X40662Y135538D01*
X40562Y135605D01*
X40446Y135638D01*
X40346Y135672D01*
X40262Y135688D01*
X40196Y135705D01*
D02*
G37*
G36*
Y114044D02*
X40146D01*
X40129D01*
X39962Y114027D01*
X39813Y113994D01*
X39663Y113944D01*
X39529Y113894D01*
X39429Y113844D01*
X39329Y113794D01*
X39279Y113760D01*
X39263Y113744D01*
X39029Y113544D01*
X38813Y113327D01*
X38596Y113077D01*
X38430Y112844D01*
X38280Y112627D01*
X38163Y112461D01*
X38113Y112394D01*
X38096Y112344D01*
X38063Y112311D01*
Y112294D01*
X40529D01*
X40679Y112494D01*
X40796Y112661D01*
X40862Y112827D01*
X40929Y112961D01*
X40962Y113077D01*
X40979Y113161D01*
Y113227D01*
X40962Y113361D01*
X40946Y113477D01*
X40912Y113561D01*
X40879Y113644D01*
X40846Y113710D01*
X40812Y113760D01*
X40779Y113777D01*
Y113794D01*
X40662Y113877D01*
X40562Y113944D01*
X40446Y113977D01*
X40346Y114010D01*
X40262Y114027D01*
X40196Y114044D01*
D02*
G37*
%LPD*%
D10*
X446022Y207891D02*
G03*
X446022Y207891I-1000J0D01*
G01*
X500707Y424532D02*
G03*
X500707Y424532I-1000J0D01*
G01*
X501902Y207891D02*
G03*
X501902Y207891I-1000J0D01*
G01*
X447000Y381880D02*
G03*
X447000Y381880I-1000J0D01*
G01*
X502737Y252104D02*
G03*
X502737Y252104I-1000J0D01*
G01*
X588887Y86676D02*
G03*
X588887Y86676I-1000J0D01*
G01*
X582230Y275590D02*
G03*
X582230Y275590I-1000J0D01*
G01*
X499070Y382260D02*
G03*
X499070Y382260I-1000J0D01*
G01*
X212320Y254000D02*
G03*
X212320Y254000I-1000J0D01*
G01*
X405900Y294640D02*
G03*
X405900Y294640I-1000J0D01*
G01*
X339020Y172240D02*
G03*
X339020Y172240I-1000J0D01*
G01*
X599885Y76095D02*
X627109D01*
X599885Y94716D02*
X627109D01*
X443588Y221829D02*
X470812D01*
X443588Y240451D02*
X470812D01*
X587676Y218492D02*
Y245717D01*
X606298Y218492D02*
Y245717D01*
X580137Y390920D02*
Y418144D01*
X561516Y390920D02*
Y418144D01*
X561477Y328238D02*
X567477D01*
X493707Y402532D02*
Y406532D01*
X505707Y402532D02*
Y406532D01*
X585646Y390920D02*
Y418144D01*
X604268Y390920D02*
Y418144D01*
X539416Y218492D02*
Y245717D01*
X558038Y218492D02*
Y245717D01*
X563507Y155810D02*
X569507D01*
X587676Y117566D02*
Y144790D01*
X606298Y117566D02*
Y144790D01*
X582168Y218492D02*
Y245717D01*
X563546Y218492D02*
Y245717D01*
X531878Y390920D02*
Y418144D01*
X513256Y390920D02*
Y418144D01*
X585646Y289994D02*
Y317218D01*
X604268Y289994D02*
Y317218D01*
X533908Y218492D02*
Y245717D01*
X515286Y218492D02*
Y245717D01*
X495737Y230104D02*
Y234104D01*
X507737Y230104D02*
Y234104D01*
X537386Y390920D02*
Y418144D01*
X556007Y390920D02*
Y418144D01*
X565887Y80676D02*
X569887D01*
X565887Y92676D02*
X569887D01*
X437238Y389469D02*
X464462D01*
X437238Y408091D02*
X464462D01*
X590234Y266279D02*
X617458D01*
X590234Y284901D02*
X617458D01*
X559230Y269590D02*
X563230D01*
X559230Y281590D02*
X563230D01*
X216688Y283841D02*
X243912D01*
X216688Y265219D02*
X243912D01*
X216688Y219071D02*
X243912D01*
X216688Y200449D02*
X243912D01*
X216688Y262251D02*
X243912D01*
X216688Y243629D02*
X243912D01*
X216688Y197481D02*
X243912D01*
X216688Y178859D02*
X243912D01*
X216688Y175891D02*
X243912D01*
X216688Y157269D02*
X243912D01*
X216688Y240661D02*
X243912D01*
X216688Y222039D02*
X243912D01*
X387990Y139980D02*
X409990D01*
X387990Y161480D02*
X409990D01*
X206664Y292320D02*
Y314320D01*
X228164Y292320D02*
Y314320D01*
X232064Y292200D02*
Y314200D01*
X253564Y292200D02*
Y314200D01*
X315028Y265851D02*
X342252D01*
X315028Y247229D02*
X342252D01*
X371430Y84250D02*
Y106250D01*
X349930Y84250D02*
Y106250D01*
X335870Y84250D02*
Y106250D01*
X314370Y84250D02*
Y106250D01*
X381358Y100751D02*
X408582D01*
X381358Y82129D02*
X408582D01*
X387990Y114580D02*
X409990D01*
X387990Y136080D02*
X409990D01*
D11*
X62805Y47782D02*
G03*
X62805Y47782I-3810J0D01*
G01*
X397834Y313623D02*
G03*
X397834Y313623I-3810J0D01*
G01*
D13*
X485872Y116091D02*
Y181091D01*
X439272Y116091D02*
Y181091D01*
X541752Y116091D02*
Y181091D01*
X495152Y116091D02*
Y181091D01*
X486850Y290080D02*
Y355080D01*
X440250Y290080D02*
Y355080D01*
X492320Y290460D02*
Y355460D01*
X538920Y290460D02*
Y355460D01*
X77820Y156600D02*
X105220D01*
X135120D02*
X194820D01*
Y170800D01*
Y283700D02*
Y293400D01*
X135120D02*
X194820D01*
X77820D02*
X105220D01*
X77820Y156600D02*
Y293400D01*
X363400Y286140D02*
X390400D01*
X363400Y303140D02*
X390400D01*
X316500Y289110D02*
Y302710D01*
X340780Y289110D02*
Y302710D01*
X334640D02*
X340640D01*
X316640D02*
X322640D01*
X330520Y122240D02*
X333470D01*
X330520D02*
Y125190D01*
X370520Y122240D02*
Y125190D01*
X367570Y122240D02*
X370520D01*
X367570Y162240D02*
X370520D01*
Y159290D02*
Y162240D01*
X330520Y159290D02*
Y162240D01*
X333470D01*
D14*
X313693Y350224D02*
Y391456D01*
X337908Y415671D02*
X379140D01*
X403355Y350224D02*
Y391456D01*
X337908Y326009D02*
X379140D01*
X620162Y66397D02*
Y71395D01*
X617662D01*
X616829Y70562D01*
Y68896D01*
X617662Y68063D01*
X620162D01*
X618495D02*
X616829Y66397D01*
X615163Y70562D02*
X614330Y71395D01*
X612664D01*
X611831Y70562D01*
Y69729D01*
X612664Y68896D01*
X613497D01*
X612664D01*
X611831Y68063D01*
Y67230D01*
X612664Y66397D01*
X614330D01*
X615163Y67230D01*
X610165D02*
X609332Y66397D01*
X607666D01*
X606833Y67230D01*
Y70562D01*
X607666Y71395D01*
X609332D01*
X610165Y70562D01*
Y69729D01*
X609332Y68896D01*
X606833D01*
X463865Y245151D02*
Y250149D01*
X461365D01*
X460532Y249316D01*
Y247650D01*
X461365Y246817D01*
X463865D01*
X462198D02*
X460532Y245151D01*
X456367D02*
Y250149D01*
X458866Y247650D01*
X455534D01*
X453868Y249316D02*
X453035Y250149D01*
X451369D01*
X450536Y249316D01*
Y245984D01*
X451369Y245151D01*
X453035D01*
X453868Y245984D01*
Y249316D01*
X603235Y254409D02*
Y259407D01*
X600736D01*
X599903Y258574D01*
Y256908D01*
X600736Y256075D01*
X603235D01*
X601569D02*
X599903Y254409D01*
X598237D02*
X596570D01*
X597403D01*
Y259407D01*
X598237Y258574D01*
X594071D02*
X593238Y259407D01*
X591572D01*
X590739Y258574D01*
Y257741D01*
X591572Y256908D01*
X590739Y256075D01*
Y255242D01*
X591572Y254409D01*
X593238D01*
X594071Y255242D01*
Y256075D01*
X593238Y256908D01*
X594071Y257741D01*
Y258574D01*
X593238Y256908D02*
X591572D01*
X576242Y426837D02*
Y431835D01*
X573743D01*
X572910Y431002D01*
Y429336D01*
X573743Y428503D01*
X576242D01*
X574576D02*
X572910Y426837D01*
X571243D02*
X569577D01*
X570410D01*
Y431835D01*
X571243Y431002D01*
X567078Y426837D02*
X565412D01*
X566245D01*
Y431835D01*
X567078Y431002D01*
X441897Y86782D02*
Y90947D01*
X442730Y91780D01*
X444396D01*
X445229Y90947D01*
Y86782D01*
X446895D02*
X450227D01*
Y87615D01*
X446895Y90947D01*
Y91780D01*
X577573Y302932D02*
X574241D01*
X573408Y303765D01*
Y305431D01*
X574241Y306264D01*
X577573D01*
X578406Y305431D01*
Y303765D01*
X576740Y304598D02*
X578406Y302932D01*
Y303765D02*
X577573Y302932D01*
X578406Y301266D02*
Y299600D01*
Y300433D01*
X573408D01*
X574241Y301266D01*
X483238Y408697D02*
X488236D01*
Y406198D01*
X487403Y405365D01*
X484071D01*
X483238Y406198D01*
Y408697D01*
X488236Y400367D02*
Y403699D01*
X484904Y400367D01*
X484071D01*
X483238Y401200D01*
Y402866D01*
X484071Y403699D01*
X601205Y426837D02*
Y431835D01*
X598706D01*
X597873Y431002D01*
Y429336D01*
X598706Y428503D01*
X601205D01*
X599539D02*
X597873Y426837D01*
X596207D02*
X594540D01*
X595373D01*
Y431835D01*
X596207Y431002D01*
X592041D02*
X591208Y431835D01*
X589542D01*
X588709Y431002D01*
Y430169D01*
X589542Y429336D01*
X590375D01*
X589542D01*
X588709Y428503D01*
Y427670D01*
X589542Y426837D01*
X591208D01*
X592041Y427670D01*
X554975Y254331D02*
Y259329D01*
X552476D01*
X551643Y258496D01*
Y256830D01*
X552476Y255997D01*
X554975D01*
X553309D02*
X551643Y254331D01*
X549977D02*
X548310D01*
X549143D01*
Y259329D01*
X549977Y258496D01*
X545811Y255164D02*
X544978Y254331D01*
X543312D01*
X542479Y255164D01*
Y258496D01*
X543312Y259329D01*
X544978D01*
X545811Y258496D01*
Y257663D01*
X544978Y256830D01*
X542479D01*
X579603Y131337D02*
X576271D01*
X575438Y132170D01*
Y133836D01*
X576271Y134670D01*
X579603D01*
X580436Y133836D01*
Y132170D01*
X578770Y133003D02*
X580436Y131337D01*
Y132170D02*
X579603Y131337D01*
X580436Y127172D02*
X575438D01*
X577937Y129671D01*
Y126339D01*
X615996Y136830D02*
X610998D01*
Y134331D01*
X611831Y133498D01*
X613497D01*
X614330Y134331D01*
Y136830D01*
Y135164D02*
X615996Y133498D01*
Y131832D02*
Y130165D01*
Y130998D01*
X610998D01*
X611831Y131832D01*
X610998Y127666D02*
Y124334D01*
X611831D01*
X615163Y127666D01*
X615996D01*
X579105Y254409D02*
Y259407D01*
X576606D01*
X575773Y258574D01*
Y256908D01*
X576606Y256075D01*
X579105D01*
X577439D02*
X575773Y254409D01*
X574106D02*
X572440D01*
X573274D01*
Y259407D01*
X574106Y258574D01*
X566609Y259407D02*
X568275Y258574D01*
X569941Y256908D01*
Y255242D01*
X569108Y254409D01*
X567442D01*
X566609Y255242D01*
Y256075D01*
X567442Y256908D01*
X569941D01*
X528815Y427433D02*
Y432431D01*
X526316D01*
X525483Y431598D01*
Y429932D01*
X526316Y429099D01*
X528815D01*
X527149D02*
X525483Y427433D01*
X523816D02*
X522150D01*
X522983D01*
Y432431D01*
X523816Y431598D01*
X516319Y432431D02*
X519651D01*
Y429932D01*
X517985Y430765D01*
X517152D01*
X516319Y429932D01*
Y428266D01*
X517152Y427433D01*
X518818D01*
X519651Y428266D01*
X613966Y309258D02*
X608968D01*
Y306759D01*
X609801Y305926D01*
X611467D01*
X612300Y306759D01*
Y309258D01*
Y307592D02*
X613966Y305926D01*
Y304259D02*
Y302593D01*
Y303426D01*
X608968D01*
X609801Y304259D01*
X613966Y296762D02*
Y300094D01*
X610634Y296762D01*
X609801D01*
X608968Y297595D01*
Y299261D01*
X609801Y300094D01*
X500317Y86782D02*
Y90947D01*
X501150Y91780D01*
X502816D01*
X503649Y90947D01*
Y86782D01*
X505315Y87615D02*
X506148Y86782D01*
X507814D01*
X508647Y87615D01*
Y88448D01*
X507814Y89281D01*
X508647Y90114D01*
Y90947D01*
X507814Y91780D01*
X506148D01*
X505315Y90947D01*
Y90114D01*
X506148Y89281D01*
X505315Y88448D01*
Y87615D01*
X506148Y89281D02*
X507814D01*
X531261Y255005D02*
Y260003D01*
X528762D01*
X527929Y259170D01*
Y257504D01*
X528762Y256671D01*
X531261D01*
X529595D02*
X527929Y255005D01*
X522931D02*
X526263D01*
X522931Y258337D01*
Y259170D01*
X523764Y260003D01*
X525430D01*
X526263Y259170D01*
X521265D02*
X520432Y260003D01*
X518765D01*
X517932Y259170D01*
Y255838D01*
X518765Y255005D01*
X520432D01*
X521265Y255838D01*
Y259170D01*
X577333Y346865D02*
X574001D01*
X573168Y347698D01*
Y349364D01*
X574001Y350197D01*
X577333D01*
X578166Y349364D01*
Y347698D01*
X576500Y348531D02*
X578166Y346865D01*
Y347698D02*
X577333Y346865D01*
X574001Y345199D02*
X573168Y344366D01*
Y342700D01*
X574001Y341867D01*
X574834D01*
X575667Y342700D01*
Y343533D01*
Y342700D01*
X576500Y341867D01*
X577333D01*
X578166Y342700D01*
Y344366D01*
X577333Y345199D01*
X579363Y174437D02*
X576031D01*
X575198Y175270D01*
Y176936D01*
X576031Y177770D01*
X579363D01*
X580196Y176936D01*
Y175270D01*
X578530Y176103D02*
X580196Y174437D01*
Y175270D02*
X579363Y174437D01*
X575198Y169439D02*
X576031Y171105D01*
X577697Y172771D01*
X579363D01*
X580196Y171938D01*
Y170272D01*
X579363Y169439D01*
X578530D01*
X577697Y170272D01*
Y172771D01*
X446431Y257851D02*
Y262016D01*
X447264Y262849D01*
X448930D01*
X449763Y262016D01*
Y257851D01*
X454761D02*
X451429D01*
Y260350D01*
X453095Y259517D01*
X453928D01*
X454761Y260350D01*
Y262016D01*
X453928Y262849D01*
X452262D01*
X451429Y262016D01*
X485268Y236269D02*
X490266D01*
Y233770D01*
X489433Y232937D01*
X486101D01*
X485268Y233770D01*
Y236269D01*
X486101Y231271D02*
X485268Y230438D01*
Y228772D01*
X486101Y227939D01*
X486934D01*
X487767Y228772D01*
Y229605D01*
Y228772D01*
X488600Y227939D01*
X489433D01*
X490266Y228772D01*
Y230438D01*
X489433Y231271D01*
X658020Y382546D02*
Y385878D01*
X658853Y386711D01*
X660519D01*
X661352Y385878D01*
Y382546D01*
X660519Y381713D01*
X658853D01*
X659686Y383379D02*
X658020Y381713D01*
X658853D02*
X658020Y382546D01*
X653022Y381713D02*
X656354D01*
X653022Y385045D01*
Y385878D01*
X653855Y386711D01*
X655521D01*
X656354Y385878D01*
X552945Y426759D02*
Y431757D01*
X550446D01*
X549613Y430924D01*
Y429258D01*
X550446Y428425D01*
X552945D01*
X551279D02*
X549613Y426759D01*
X547947D02*
X546280D01*
X547113D01*
Y431757D01*
X547947Y430924D01*
X541282Y426759D02*
Y431757D01*
X543781Y429258D01*
X540449D01*
X660050Y210118D02*
Y213450D01*
X660883Y214283D01*
X662549D01*
X663382Y213450D01*
Y210118D01*
X662549Y209285D01*
X660883D01*
X661716Y210951D02*
X660050Y209285D01*
X660883D02*
X660050Y210118D01*
X655052Y214283D02*
X658384D01*
Y211784D01*
X656718Y212617D01*
X655885D01*
X655052Y211784D01*
Y210118D01*
X655885Y209285D01*
X657551D01*
X658384Y210118D01*
X457514Y412791D02*
Y417789D01*
X455015D01*
X454182Y416956D01*
Y415290D01*
X455015Y414457D01*
X457514D01*
X455848D02*
X454182Y412791D01*
X452516Y416956D02*
X451683Y417789D01*
X450017D01*
X449184Y416956D01*
Y416123D01*
X450017Y415290D01*
X450850D01*
X450017D01*
X449184Y414457D01*
Y413624D01*
X450017Y412791D01*
X451683D01*
X452516Y413624D01*
X447518Y416956D02*
X446685Y417789D01*
X445019D01*
X444185Y416956D01*
Y416123D01*
X445019Y415290D01*
X444185Y414457D01*
Y413624D01*
X445019Y412791D01*
X446685D01*
X447518Y413624D01*
Y414457D01*
X446685Y415290D01*
X447518Y416123D01*
Y416956D01*
X446685Y415290D02*
X445019D01*
X631149Y282255D02*
X626151D01*
Y279755D01*
X626984Y278922D01*
X628650D01*
X629483Y279755D01*
Y282255D01*
Y280588D02*
X631149Y278922D01*
X626984Y277256D02*
X626151Y276423D01*
Y274757D01*
X626984Y273924D01*
X627817D01*
X628650Y274757D01*
Y275590D01*
Y274757D01*
X629483Y273924D01*
X630316D01*
X631149Y274757D01*
Y276423D01*
X630316Y277256D01*
X626151Y272258D02*
Y268925D01*
X626984D01*
X630316Y272258D01*
X631149D01*
X566152Y67667D02*
Y72665D01*
X568651D01*
X569484Y71832D01*
Y68500D01*
X568651Y67667D01*
X566152D01*
X571150Y68500D02*
X571983Y67667D01*
X573649D01*
X574482Y68500D01*
Y69333D01*
X573649Y70166D01*
X574482Y70999D01*
Y71832D01*
X573649Y72665D01*
X571983D01*
X571150Y71832D01*
Y70999D01*
X571983Y70166D01*
X571150Y69333D01*
Y68500D01*
X571983Y70166D02*
X573649D01*
X565505Y294599D02*
Y289601D01*
X563006D01*
X562173Y290434D01*
Y293766D01*
X563006Y294599D01*
X565505D01*
X560507D02*
X557175D01*
Y293766D01*
X560507Y290434D01*
Y289601D01*
X149149Y224111D02*
Y227411D01*
Y225761D01*
X157401D01*
X159051Y227411D01*
Y229062D01*
X157401Y230712D01*
X150799Y220810D02*
X149149Y219159D01*
Y215858D01*
X150799Y214208D01*
X152450D01*
X154100Y215858D01*
Y217509D01*
Y215858D01*
X155750Y214208D01*
X157401D01*
X159051Y215858D01*
Y219159D01*
X157401Y220810D01*
X498501Y259501D02*
Y263666D01*
X499334Y264499D01*
X501000D01*
X501833Y263666D01*
Y259501D01*
X506831D02*
X505165Y260334D01*
X503499Y262000D01*
Y263666D01*
X504332Y264499D01*
X505998D01*
X506831Y263666D01*
Y262833D01*
X505998Y262000D01*
X503499D01*
X257769Y282255D02*
X252771D01*
Y279755D01*
X253604Y278922D01*
X255270D01*
X256103Y279755D01*
Y282255D01*
Y280588D02*
X257769Y278922D01*
Y273924D02*
Y277256D01*
X254437Y273924D01*
X253604D01*
X252771Y274757D01*
Y276423D01*
X253604Y277256D01*
Y272258D02*
X252771Y271425D01*
Y269759D01*
X253604Y268925D01*
X254437D01*
X255270Y269759D01*
X256103Y268925D01*
X256936D01*
X257769Y269759D01*
Y271425D01*
X256936Y272258D01*
X256103D01*
X255270Y271425D01*
X254437Y272258D01*
X253604D01*
X255270Y271425D02*
Y269759D01*
X257769Y237805D02*
X252771D01*
Y235305D01*
X253604Y234472D01*
X255270D01*
X256103Y235305D01*
Y237805D01*
Y236138D02*
X257769Y234472D01*
Y229474D02*
Y232806D01*
X254437Y229474D01*
X253604D01*
X252771Y230307D01*
Y231973D01*
X253604Y232806D01*
X252771Y227808D02*
Y224475D01*
X253604D01*
X256936Y227808D01*
X257769D01*
X256499Y174305D02*
X251501D01*
Y171805D01*
X252334Y170972D01*
X254000D01*
X254833Y171805D01*
Y174305D01*
Y172638D02*
X256499Y170972D01*
Y165974D02*
Y169306D01*
X253167Y165974D01*
X252334D01*
X251501Y166807D01*
Y168473D01*
X252334Y169306D01*
X251501Y160975D02*
X252334Y162642D01*
X254000Y164308D01*
X255666D01*
X256499Y163475D01*
Y161809D01*
X255666Y160975D01*
X254833D01*
X254000Y161809D01*
Y164308D01*
X257769Y217484D02*
X252771D01*
Y214985D01*
X253604Y214152D01*
X255270D01*
X256103Y214985D01*
Y217484D01*
Y215818D02*
X257769Y214152D01*
Y209154D02*
Y212486D01*
X254437Y209154D01*
X253604D01*
X252771Y209987D01*
Y211653D01*
X253604Y212486D01*
X252771Y204156D02*
Y207488D01*
X255270D01*
X254437Y205822D01*
Y204989D01*
X255270Y204156D01*
X256936D01*
X257769Y204989D01*
Y206655D01*
X256936Y207488D01*
X257769Y194625D02*
X252771D01*
Y192125D01*
X253604Y191292D01*
X255270D01*
X256103Y192125D01*
Y194625D01*
Y192958D02*
X257769Y191292D01*
Y186294D02*
Y189626D01*
X254437Y186294D01*
X253604D01*
X252771Y187127D01*
Y188793D01*
X253604Y189626D01*
X257769Y182129D02*
X252771D01*
X255270Y184628D01*
Y181296D01*
X257769Y259394D02*
X252771D01*
Y256895D01*
X253604Y256062D01*
X255270D01*
X256103Y256895D01*
Y259394D01*
Y257728D02*
X257769Y256062D01*
Y251064D02*
Y254396D01*
X254437Y251064D01*
X253604D01*
X252771Y251897D01*
Y253563D01*
X253604Y254396D01*
Y249398D02*
X252771Y248565D01*
Y246899D01*
X253604Y246066D01*
X254437D01*
X255270Y246899D01*
Y247732D01*
Y246899D01*
X256103Y246066D01*
X256936D01*
X257769Y246899D01*
Y248565D01*
X256936Y249398D01*
X354670Y310651D02*
Y315649D01*
X358002D01*
X363001Y311484D02*
X362168Y310651D01*
X360502D01*
X359669Y311484D01*
Y312317D01*
X360502Y313150D01*
X362168D01*
X363001Y313983D01*
Y314816D01*
X362168Y315649D01*
X360502D01*
X359669Y314816D01*
X364667Y315649D02*
X366333D01*
X365500D01*
Y310651D01*
X364667Y311484D01*
X197724Y306862D02*
X196891Y307695D01*
Y309361D01*
X197724Y310194D01*
X201056D01*
X201889Y309361D01*
Y307695D01*
X201056Y306862D01*
X201889Y301864D02*
Y305196D01*
X198557Y301864D01*
X197724D01*
X196891Y302697D01*
Y304363D01*
X197724Y305196D01*
Y300198D02*
X196891Y299365D01*
Y297698D01*
X197724Y296866D01*
X201056D01*
X201889Y297698D01*
Y299365D01*
X201056Y300198D01*
X197724D01*
X263286Y300614D02*
X264119Y299781D01*
Y298115D01*
X263286Y297282D01*
X259954D01*
X259121Y298115D01*
Y299781D01*
X259954Y300614D01*
X259121Y302280D02*
Y303946D01*
Y303113D01*
X264119D01*
X263286Y302280D01*
X259954Y306446D02*
X259121Y307279D01*
Y308945D01*
X259954Y309778D01*
X263286D01*
X264119Y308945D01*
Y307279D01*
X263286Y306446D01*
X262453D01*
X261620Y307279D01*
Y309778D01*
D15*
X549877Y312739D02*
Y320890D01*
Y312739D02*
X556476D01*
X572478D02*
X579077D01*
X572478D02*
X579077D01*
X572478D02*
X579077D01*
Y320890D01*
X551907Y140311D02*
Y148462D01*
Y140311D02*
X558506D01*
X574508D02*
X581107D01*
X574508D02*
X581107D01*
X574508D02*
X581107D01*
Y148462D01*
X569327Y355612D02*
X577967D01*
Y365612D01*
X559827Y369612D02*
X566107D01*
X547967Y355612D02*
X556607D01*
X547967D02*
Y365612D01*
X571357Y183184D02*
X579997D01*
Y193184D01*
X561857Y197184D02*
X568137D01*
X549997Y183184D02*
X558637D01*
X549997D02*
Y193184D01*
D17*
X318084Y310317D02*
X321416D01*
X322249Y309484D01*
Y307818D01*
X321416Y306985D01*
X318084D01*
X317251Y307818D01*
Y309484D01*
X318917Y308651D02*
X317251Y310317D01*
Y309484D02*
X318084Y310317D01*
X322249Y311983D02*
Y315315D01*
X321416D01*
X318084Y311983D01*
X317251D01*
X374005Y275631D02*
Y280629D01*
X376504D01*
X377337Y279796D01*
Y276464D01*
X376504Y275631D01*
X374005D01*
X382335D02*
X379003D01*
Y278130D01*
X380669Y277297D01*
X381502D01*
X382335Y278130D01*
Y279796D01*
X381502Y280629D01*
X379836D01*
X379003Y279796D01*
X351541Y249876D02*
X356539D01*
Y252375D01*
X355706Y253208D01*
X354040D01*
X353207Y252375D01*
Y249876D01*
Y251542D02*
X351541Y253208D01*
X355706Y254874D02*
X356539Y255707D01*
Y257373D01*
X355706Y258206D01*
X354873D01*
X354040Y257373D01*
Y256540D01*
Y257373D01*
X353207Y258206D01*
X352374D01*
X351541Y257373D01*
Y255707D01*
X352374Y254874D01*
X355706Y259872D02*
X356539Y260705D01*
Y262371D01*
X355706Y263204D01*
X352374D01*
X351541Y262371D01*
Y260705D01*
X352374Y259872D01*
X355706D01*
D18*
X341234Y98582D02*
X340401Y99415D01*
Y101081D01*
X341234Y101915D01*
X344566D01*
X345399Y101081D01*
Y99415D01*
X344566Y98582D01*
X345399Y93584D02*
Y96916D01*
X342067Y93584D01*
X341234D01*
X340401Y94417D01*
Y96083D01*
X341234Y96916D01*
X344566Y91918D02*
X345399Y91085D01*
Y89418D01*
X344566Y88586D01*
X341234D01*
X340401Y89418D01*
Y91085D01*
X341234Y91918D01*
X342067D01*
X342900Y91085D01*
Y88586D01*
X401052Y170176D02*
X401885Y171009D01*
X403551D01*
X404384Y170176D01*
Y166844D01*
X403551Y166011D01*
X401885D01*
X401052Y166844D01*
X396054Y166011D02*
X399386D01*
X396054Y169343D01*
Y170176D01*
X396887Y171009D01*
X398553D01*
X399386Y170176D01*
X394388D02*
X393555Y171009D01*
X391889D01*
X391055Y170176D01*
Y169343D01*
X391889Y168510D01*
X391055Y167677D01*
Y166844D01*
X391889Y166011D01*
X393555D01*
X394388Y166844D01*
Y167677D01*
X393555Y168510D01*
X394388Y169343D01*
Y170176D01*
X393555Y168510D02*
X391889D01*
X396928Y105884D02*
X396095Y105051D01*
X394429D01*
X393596Y105884D01*
Y109216D01*
X394429Y110049D01*
X396095D01*
X396928Y109216D01*
X401926Y110049D02*
X398594D01*
X401926Y106717D01*
Y105884D01*
X401093Y105051D01*
X399427D01*
X398594Y105884D01*
X403592Y105051D02*
X406925D01*
Y105884D01*
X403592Y109216D01*
Y110049D01*
X358038Y177759D02*
Y173594D01*
X357205Y172761D01*
X355539D01*
X354706Y173594D01*
Y177759D01*
X353040Y172761D02*
X351373D01*
X352206D01*
Y177759D01*
X353040Y176926D01*
X348874D02*
X348041Y177759D01*
X346375D01*
X345542Y176926D01*
Y173594D01*
X346375Y172761D01*
X348041D01*
X348874Y173594D01*
Y176926D01*
X401634Y72431D02*
Y77429D01*
X399135D01*
X398302Y76596D01*
Y74930D01*
X399135Y74097D01*
X401634D01*
X399968D02*
X398302Y72431D01*
X393304D02*
X396636D01*
X393304Y75763D01*
Y76596D01*
X394137Y77429D01*
X395803D01*
X396636Y76596D01*
X388306Y72431D02*
X391638D01*
X388306Y75763D01*
Y76596D01*
X389139Y77429D01*
X390805D01*
X391638Y76596D01*
X305674Y98166D02*
X304841Y98999D01*
Y100665D01*
X305674Y101498D01*
X309006D01*
X309839Y100665D01*
Y98999D01*
X309006Y98166D01*
X309839Y96500D02*
Y94833D01*
Y95667D01*
X304841D01*
X305674Y96500D01*
X304841Y92334D02*
Y89002D01*
X305674D01*
X309006Y92334D01*
X309839D01*
D79*
X339640Y272910D02*
G03*
X339640Y272910I-1000J0D01*
G01*
D80*
X609664Y388428D02*
X642150D01*
Y321423D02*
Y388428D01*
X609664Y321423D02*
X642150D01*
X609664D02*
Y388428D01*
X611693Y216001D02*
X644180D01*
Y148995D02*
Y216001D01*
X611693Y148995D02*
X644180D01*
X611693D02*
Y216001D01*
D81*
X364870Y335915D02*
X352174D01*
Y344379D01*
X362754Y357075D02*
X364870Y354959D01*
Y350727D01*
X362754Y348611D01*
X360638D01*
X358522Y350727D01*
Y354959D01*
X356406Y357075D01*
X354290D01*
X352174Y354959D01*
Y350727D01*
X354290Y348611D01*
X352174Y361307D02*
Y365539D01*
Y363423D01*
X364870D01*
X362754Y361307D01*
M02*
