G04*
G04 #@! TF.GenerationSoftware,Altium Limited,Altium Designer,26.5.0 (11)*
G04*
G04 Layer_Physical_Order=4*
G04 Layer_Color=16711680*
G04 Board_Origin=0|0*
%FSLAX44Y44*%
%MOMM*%
G71*
G04*
G04 #@! TF.SameCoordinates,805A6E00-FF88-42AD-81E1-7D7A0FF39D89*
G04*
G04*
G04 #@! TF.FilePolarity,Positive*
G04*
G01*
G75*
%ADD11C,0.5080*%
%ADD15C,0.2540*%
%ADD23R,1.3500X0.9500*%
%ADD25R,0.9500X1.3500*%
%ADD26R,1.4500X1.1000*%
%ADD27R,1.0637X1.0621*%
%ADD29R,1.0621X1.0637*%
%ADD46O,0.9000X1.7000*%
%ADD47O,0.9000X2.0000*%
%ADD48C,2.1300*%
%ADD49C,1.9500*%
%ADD50R,1.9500X1.9500*%
%ADD51C,1.6500*%
%ADD52C,1.4000*%
%ADD53C,0.6000*%
%ADD54C,5.0000*%
%ADD57C,0.3810*%
%ADD59C,0.4000*%
%ADD60C,0.5080*%
%ADD61R,1.5000X0.6000*%
G04:AMPARAMS|DCode=62|XSize=2.15mm|YSize=1.48mm|CornerRadius=0.185mm|HoleSize=0mm|Usage=FLASHONLY|Rotation=270.000|XOffset=0mm|YOffset=0mm|HoleType=Round|Shape=RoundedRectangle|*
%AMROUNDEDRECTD62*
21,1,2.1500,1.1100,0,0,270.0*
21,1,1.7800,1.4800,0,0,270.0*
1,1,0.3700,-0.5550,-0.8900*
1,1,0.3700,-0.5550,0.8900*
1,1,0.3700,0.5550,0.8900*
1,1,0.3700,0.5550,-0.8900*
%
%ADD62ROUNDEDRECTD62*%
%ADD63R,0.7900X0.2800*%
%ADD64R,0.2800X0.7900*%
%ADD65R,2.3114X2.3114*%
G04:AMPARAMS|DCode=66|XSize=1.21mm|YSize=0.73mm|CornerRadius=0.0657mm|HoleSize=0mm|Usage=FLASHONLY|Rotation=180.000|XOffset=0mm|YOffset=0mm|HoleType=Round|Shape=RoundedRectangle|*
%AMROUNDEDRECTD66*
21,1,1.2100,0.5986,0,0,180.0*
21,1,1.0786,0.7300,0,0,180.0*
1,1,0.1314,-0.5393,0.2993*
1,1,0.1314,0.5393,0.2993*
1,1,0.1314,0.5393,-0.2993*
1,1,0.1314,-0.5393,-0.2993*
%
%ADD66ROUNDEDRECTD66*%
%ADD67R,0.7000X1.2500*%
%ADD68R,0.8000X1.0000*%
%ADD69R,2.1590X1.0922*%
%ADD70R,2.1590X3.5052*%
%ADD71R,1.1000X1.4500*%
G04:AMPARAMS|DCode=72|XSize=1.15mm|YSize=0.5mm|CornerRadius=0.125mm|HoleSize=0mm|Usage=FLASHONLY|Rotation=90.000|XOffset=0mm|YOffset=0mm|HoleType=Round|Shape=RoundedRectangle|*
%AMROUNDEDRECTD72*
21,1,1.1500,0.2500,0,0,90.0*
21,1,0.9000,0.5000,0,0,90.0*
1,1,0.2500,0.1250,0.4500*
1,1,0.2500,0.1250,-0.4500*
1,1,0.2500,-0.1250,-0.4500*
1,1,0.2500,-0.1250,0.4500*
%
%ADD72ROUNDEDRECTD72*%
%ADD73R,2.3400X1.5000*%
G36*
X715906Y450000D02*
X718200D01*
X722749Y449401D01*
X727181Y448214D01*
X731419Y446458D01*
X735393Y444164D01*
X739033Y441371D01*
X742277Y438127D01*
X745070Y434487D01*
X747364Y430513D01*
X749120Y426274D01*
X750307Y421843D01*
X750906Y417294D01*
Y415000D01*
X750906Y35000D01*
Y32706D01*
X750307Y28157D01*
X749120Y23726D01*
X747364Y19487D01*
X745070Y15513D01*
X742277Y11873D01*
X739033Y8629D01*
X735393Y5836D01*
X731419Y3542D01*
X727181Y1786D01*
X722749Y599D01*
X718200Y0D01*
X371289D01*
X370981Y1016D01*
X371737Y1521D01*
X465837Y95621D01*
X467001Y95348D01*
X467473Y94642D01*
X468505Y93952D01*
X469722Y93710D01*
X472035D01*
Y83528D01*
X472281Y82289D01*
X472983Y81239D01*
X473717Y80505D01*
X474290Y79122D01*
X475362Y78050D01*
X476762Y77470D01*
X478278D01*
X479678Y78050D01*
X480750Y79122D01*
X481330Y80522D01*
Y82038D01*
X480750Y83438D01*
X479678Y84510D01*
X478509Y84994D01*
Y93710D01*
X480822D01*
X482039Y93952D01*
X483072Y94642D01*
X483761Y95674D01*
X484003Y96891D01*
Y111318D01*
X484036D01*
X485275Y111565D01*
X486325Y112266D01*
X544016Y169957D01*
X544068Y170034D01*
X545084Y169726D01*
Y153444D01*
X528863Y137223D01*
X528161Y136173D01*
X527915Y134934D01*
Y117872D01*
X525602D01*
X524385Y117630D01*
X523353Y116940D01*
X522663Y115908D01*
X522421Y114691D01*
Y96891D01*
X522663Y95674D01*
X523353Y94642D01*
X524385Y93952D01*
X525602Y93710D01*
X535305D01*
X544944Y84071D01*
X545994Y83369D01*
X547233Y83123D01*
X552117D01*
Y78156D01*
X565657D01*
Y95196D01*
X552117D01*
Y89597D01*
X548574D01*
X539883Y98288D01*
Y114691D01*
X539641Y115908D01*
X538951Y116940D01*
X537919Y117630D01*
X536702Y117872D01*
X534389D01*
Y133593D01*
X550610Y149814D01*
X551312Y150864D01*
X551406Y151341D01*
X552237Y151788D01*
X560688D01*
Y148559D01*
X553720Y141591D01*
Y137160D01*
X558445D01*
X560798Y139513D01*
X561737Y139124D01*
Y133729D01*
X561662Y133354D01*
Y132213D01*
X557794Y128345D01*
X554990D01*
X554615Y128270D01*
X554232D01*
X553879Y128124D01*
X553503Y128049D01*
X553185Y127836D01*
X552832Y127690D01*
X552561Y127419D01*
X552243Y127207D01*
X552031Y126889D01*
X551760Y126618D01*
X551614Y126265D01*
X551401Y125947D01*
X551326Y125571D01*
X551180Y125218D01*
Y124835D01*
X551105Y124460D01*
X551180Y124085D01*
Y123702D01*
X551326Y123349D01*
X551401Y122973D01*
X551614Y122655D01*
X551760Y122302D01*
X552031Y122031D01*
X552243Y121713D01*
X552561Y121501D01*
X552832Y121230D01*
X553185Y121084D01*
X553503Y120871D01*
X553879Y120796D01*
X554232Y120650D01*
X554615D01*
X554990Y120575D01*
X559403D01*
X560889Y120871D01*
X562150Y121713D01*
X567231Y126794D01*
X571277D01*
Y141834D01*
X564447D01*
X564058Y142773D01*
X566214Y144929D01*
X566916Y145979D01*
X567162Y147218D01*
Y171144D01*
X571537D01*
X572122Y170371D01*
Y166828D01*
X571236D01*
Y151788D01*
X577114D01*
X581610Y147291D01*
Y135671D01*
X581807Y134680D01*
X582369Y133840D01*
X590406Y125802D01*
Y116296D01*
X603568D01*
Y129473D01*
X594061D01*
X591589Y131945D01*
X591978Y132883D01*
X603568D01*
Y146060D01*
X599577D01*
Y152729D01*
X609052D01*
Y166191D01*
X584922D01*
Y152742D01*
X584195Y152032D01*
X580826Y155400D01*
Y157078D01*
X580776Y157328D01*
Y166828D01*
X579891D01*
Y175027D01*
X579895Y175030D01*
X580907Y175339D01*
X584498Y171748D01*
X585470Y171345D01*
X585470Y171345D01*
X635701D01*
X638705Y168341D01*
Y165100D01*
X638705Y165100D01*
X639108Y164128D01*
X639108Y164128D01*
X644188Y159048D01*
X645160Y158645D01*
X645160Y158645D01*
X675640D01*
X675640Y158645D01*
X676612Y159048D01*
X680422Y162858D01*
X680825Y163830D01*
X680825Y163830D01*
Y193763D01*
X681763Y194152D01*
X682734Y193182D01*
X685246Y191731D01*
X688049Y190980D01*
X690951D01*
X693754Y191731D01*
X696266Y193182D01*
X698318Y195234D01*
X699769Y197746D01*
X700520Y200549D01*
Y203451D01*
X699769Y206254D01*
X698318Y208766D01*
X696266Y210818D01*
X693754Y212269D01*
X690951Y213020D01*
X688049D01*
X685246Y212269D01*
X682734Y210818D01*
X681763Y209848D01*
X680825Y210237D01*
Y225491D01*
X683829Y228495D01*
X717550D01*
X717550Y228495D01*
X718522Y228898D01*
X722332Y232708D01*
X722735Y233680D01*
X722735Y233680D01*
Y267970D01*
X722735Y267970D01*
X722332Y268942D01*
X718522Y272752D01*
X717550Y273155D01*
X717550Y273155D01*
X650240D01*
X649268Y272752D01*
X648865Y271780D01*
Y271079D01*
X645458Y267672D01*
X645055Y266700D01*
X645055Y266700D01*
Y260425D01*
X492760D01*
X491273Y260129D01*
X490013Y259287D01*
X484933Y254207D01*
X484091Y252947D01*
X483795Y251460D01*
Y220049D01*
X477181Y213435D01*
X464681D01*
X463195Y213139D01*
X461934Y212297D01*
X453110Y203472D01*
X444322D01*
X443550Y203319D01*
X442534Y203978D01*
Y206314D01*
X451869Y215649D01*
X452571Y216699D01*
X452817Y217938D01*
Y224559D01*
X455495D01*
Y237721D01*
X442318D01*
Y224559D01*
X446343D01*
Y219279D01*
X437008Y209944D01*
X436306Y208894D01*
X436060Y207655D01*
Y180410D01*
X436306Y179171D01*
X437008Y178120D01*
X443428Y171701D01*
X443860Y171412D01*
X443552Y170396D01*
X433976D01*
X419150Y185223D01*
Y241067D01*
X445781Y267699D01*
X456400D01*
X457617Y267941D01*
X458649Y268631D01*
X459339Y269663D01*
X459485Y270399D01*
X459575Y270452D01*
X460570Y270642D01*
X461392Y269820D01*
X462792Y269240D01*
X464308D01*
X465708Y269820D01*
X466530Y270642D01*
X467525Y270452D01*
X467615Y270399D01*
X467761Y269663D01*
X468451Y268631D01*
X469483Y267941D01*
X470700Y267699D01*
X481800D01*
X483017Y267941D01*
X484049Y268631D01*
X484739Y269663D01*
X484981Y270880D01*
Y287283D01*
X488744Y291046D01*
X489446Y292096D01*
X489692Y293335D01*
Y307314D01*
X502425Y320047D01*
X503791Y320613D01*
X529590D01*
X530829Y320859D01*
X531879Y321561D01*
X541924Y331606D01*
X542863Y331217D01*
Y326373D01*
X543109Y325134D01*
X543811Y324084D01*
X545926Y321968D01*
Y301504D01*
X535887Y291465D01*
X535087Y291999D01*
X533870Y292241D01*
X522770D01*
X521553Y291999D01*
X520521Y291309D01*
X519831Y290277D01*
X519589Y289060D01*
Y271260D01*
X519831Y270043D01*
X520521Y269011D01*
X521553Y268321D01*
X522770Y268079D01*
X533870D01*
X535087Y268321D01*
X536119Y269011D01*
X536809Y270043D01*
X537051Y271260D01*
Y271705D01*
X545460D01*
Y267070D01*
X559000D01*
Y284110D01*
X545460D01*
Y279475D01*
X537051D01*
Y283473D01*
X551453Y297875D01*
X552154Y298925D01*
X552401Y300164D01*
Y323309D01*
X552377Y323430D01*
X553021Y324216D01*
X559730D01*
Y323837D01*
X559976Y322598D01*
X560678Y321548D01*
X565502Y316724D01*
X566552Y316022D01*
X567791Y315776D01*
X568248D01*
X568631Y315278D01*
X568562Y314911D01*
X568150Y314262D01*
X559707D01*
Y299222D01*
X569247D01*
Y302857D01*
X574368D01*
X575855Y303153D01*
X576730Y303738D01*
X576797Y303751D01*
X577115Y303964D01*
X577468Y304110D01*
X577739Y304381D01*
X578057Y304593D01*
X578269Y304911D01*
X578540Y305182D01*
X578686Y305535D01*
X578899Y305853D01*
X578974Y306229D01*
X579120Y306582D01*
Y306965D01*
X579195Y307340D01*
X579120Y307715D01*
Y308098D01*
X578974Y308451D01*
X578899Y308827D01*
X578686Y309145D01*
X578540Y309498D01*
X578269Y309769D01*
X578057Y310087D01*
X577739Y310299D01*
X577468Y310570D01*
X577115Y310716D01*
X576797Y310929D01*
X576421Y311004D01*
X576068Y311150D01*
X575685D01*
X575310Y311225D01*
X574966D01*
X574591Y311150D01*
X574552D01*
X574516Y311135D01*
X573480Y310929D01*
X573027Y310627D01*
X569247D01*
X569247Y313491D01*
Y313525D01*
Y313525D01*
X569247Y313715D01*
X569355Y313840D01*
X569647Y313999D01*
X570239Y314320D01*
X571500Y313797D01*
Y318770D01*
X572770D01*
Y320040D01*
X577743D01*
X577686Y320177D01*
X578547Y320753D01*
X580972Y318328D01*
Y306716D01*
X581169Y305725D01*
X581730Y304884D01*
X588376Y298238D01*
Y288724D01*
X601538D01*
Y301901D01*
X592039D01*
X589567Y304373D01*
X589955Y305311D01*
X601538D01*
Y318488D01*
X597547D01*
Y325157D01*
X607022D01*
Y338619D01*
X582892D01*
Y325170D01*
X582165Y324460D01*
X578746Y327878D01*
Y339256D01*
X576566D01*
Y367842D01*
X577737D01*
Y380382D01*
X567197D01*
Y367842D01*
X571387D01*
Y339256D01*
X569207D01*
Y324216D01*
X569987D01*
X570189Y323200D01*
X569892Y323077D01*
X569099Y322283D01*
X566204Y325178D01*
Y343572D01*
X569507D01*
Y349842D01*
X562967D01*
Y351112D01*
X561697D01*
Y358652D01*
X557567D01*
Y367842D01*
X558736D01*
Y375252D01*
X559452D01*
X560443Y375449D01*
X561283Y376011D01*
X568810Y383538D01*
X569372Y384378D01*
X569569Y385369D01*
Y389650D01*
X577408D01*
Y402827D01*
X566741D01*
X566352Y403765D01*
X568824Y406237D01*
X577408D01*
Y408941D01*
X588376D01*
Y406237D01*
X601538D01*
Y419414D01*
X588376D01*
Y416711D01*
X577408D01*
Y419414D01*
X564246D01*
Y410816D01*
X557338Y403908D01*
X556637Y402858D01*
X556390Y401619D01*
Y388246D01*
X555047Y386903D01*
X550283D01*
X549445Y387384D01*
X549353Y387896D01*
Y389650D01*
X553278D01*
Y402827D01*
X540116D01*
Y389650D01*
X542532D01*
X542735Y388634D01*
X538731Y384629D01*
X538029Y383579D01*
X537783Y382340D01*
Y376477D01*
X536841Y375930D01*
X536767Y375941D01*
X536119Y376909D01*
X535087Y377599D01*
X533870Y377841D01*
X524167D01*
X519989Y382019D01*
X518939Y382721D01*
X517700Y382967D01*
X495300D01*
X494061Y382721D01*
X493011Y382019D01*
X489201Y378209D01*
X488499Y377159D01*
X488253Y375920D01*
Y353131D01*
X485069Y349947D01*
X440761D01*
X436880Y353828D01*
Y388526D01*
X440554Y392199D01*
X449145D01*
Y405361D01*
X435968D01*
Y396770D01*
X431354Y392156D01*
X430652Y391105D01*
X430406Y389867D01*
Y354446D01*
X429467Y354057D01*
X422337Y361187D01*
Y411788D01*
X422091Y413027D01*
X421389Y414077D01*
X402647Y432819D01*
X401597Y433521D01*
X400358Y433767D01*
X294711D01*
X282959Y445519D01*
X281909Y446221D01*
X280670Y446467D01*
X186690D01*
X185451Y446221D01*
X184401Y445519D01*
X163446Y424564D01*
X162744Y423514D01*
X162498Y422275D01*
Y337256D01*
X135326Y310084D01*
X134624Y309034D01*
X134378Y307795D01*
Y172650D01*
X133855Y171388D01*
Y169872D01*
X134281Y168844D01*
X133420Y168269D01*
X127281Y174407D01*
Y179589D01*
X127854Y180972D01*
Y182488D01*
X127274Y183888D01*
X126202Y184960D01*
X124802Y185540D01*
X123286D01*
X121885Y184960D01*
X120814Y183888D01*
X120234Y182488D01*
Y180972D01*
X120807Y179589D01*
Y173066D01*
X121053Y171828D01*
X121755Y170777D01*
X129523Y163009D01*
X129135Y162070D01*
X107150D01*
Y144530D01*
X129135D01*
X129523Y143591D01*
X109471Y123539D01*
X108769Y122489D01*
X108523Y121250D01*
Y43886D01*
X105904Y41267D01*
X105202Y40217D01*
X104956Y38978D01*
Y34144D01*
X104720Y33908D01*
X104140Y32508D01*
Y30992D01*
X104720Y29592D01*
X105792Y28520D01*
X107192Y27940D01*
X108708D01*
X110108Y28520D01*
X111180Y29592D01*
X111760Y30992D01*
Y32508D01*
X111430Y33304D01*
Y37637D01*
X114049Y40256D01*
X114751Y41306D01*
X114997Y42545D01*
Y119909D01*
X137284Y142196D01*
X137986Y143246D01*
X138232Y144485D01*
Y162115D01*
X137986Y163354D01*
X137284Y164404D01*
X135303Y166385D01*
X135879Y167246D01*
X136907Y166820D01*
X138423D01*
X139823Y167400D01*
X140895Y168472D01*
X141475Y169872D01*
Y171388D01*
X140895Y172789D01*
X140852Y172831D01*
Y306454D01*
X166627Y332229D01*
X167565Y331840D01*
Y321310D01*
X167861Y319823D01*
X168703Y318563D01*
X194235Y293031D01*
Y281770D01*
X189350D01*
Y273230D01*
X205751D01*
X206171Y272214D01*
X203228Y269270D01*
X189350D01*
Y267805D01*
X174557D01*
X174136Y268821D01*
X175238Y269922D01*
X176326Y271808D01*
X176890Y273911D01*
Y276089D01*
X176326Y278192D01*
X175238Y280078D01*
X173698Y281618D01*
X171812Y282706D01*
X169709Y283270D01*
X167531D01*
X165428Y282706D01*
X163542Y281618D01*
X162002Y280078D01*
X160914Y278192D01*
X160350Y276089D01*
Y273911D01*
X160914Y271808D01*
X162002Y269922D01*
X163104Y268821D01*
X162683Y267805D01*
X157953D01*
X157098Y268660D01*
X155698Y269240D01*
X154182D01*
X152782Y268660D01*
X151710Y267588D01*
X151130Y266188D01*
Y264672D01*
X151710Y263272D01*
X152782Y262200D01*
X154182Y261620D01*
X155698D01*
X157098Y262200D01*
X157523Y262625D01*
X189350D01*
Y260730D01*
X206890D01*
Y265607D01*
X213223Y271940D01*
X215418D01*
Y267949D01*
X228595D01*
Y281111D01*
X215418D01*
Y277120D01*
X212150D01*
X211159Y276923D01*
X210319Y276361D01*
X207906Y273948D01*
X206890Y274369D01*
Y276276D01*
X215951Y285337D01*
X216793Y286597D01*
X217089Y288084D01*
Y289800D01*
X225434D01*
Y291875D01*
X234794D01*
Y289680D01*
X243651D01*
X244277Y288743D01*
X252655Y280365D01*
Y267039D01*
X245212Y259595D01*
X241364D01*
X240989Y259521D01*
X232005D01*
Y246359D01*
X234709D01*
Y237931D01*
X232005D01*
Y230263D01*
X229533Y227791D01*
X228595Y228180D01*
Y237931D01*
X215418D01*
Y234912D01*
X206890D01*
Y236270D01*
X194819D01*
X194814Y236277D01*
X193377Y237714D01*
X193798Y238730D01*
X206890D01*
Y247270D01*
X189350D01*
Y246010D01*
X184828D01*
X183768Y247070D01*
X182368Y247650D01*
X180852D01*
X179452Y247070D01*
X178380Y245998D01*
X177800Y244598D01*
Y243082D01*
X178380Y241682D01*
X179452Y240610D01*
X179782Y240473D01*
X179580Y239457D01*
X172321D01*
X170938Y240030D01*
X169422D01*
X168022Y239450D01*
X166950Y238378D01*
X166370Y236978D01*
Y235462D01*
X166950Y234062D01*
X168022Y232990D01*
X169422Y232410D01*
X170938D01*
X172321Y232983D01*
X188952D01*
X189350Y232585D01*
Y227730D01*
X206890D01*
Y228438D01*
X215418D01*
Y224885D01*
X206890D01*
Y225270D01*
X189350D01*
Y216730D01*
X206890D01*
Y217115D01*
X214835D01*
X215418Y216341D01*
Y212472D01*
X206890D01*
Y214270D01*
X189350D01*
Y205730D01*
X206890D01*
Y207293D01*
X215418D01*
Y203179D01*
X224930D01*
X228594Y199515D01*
X228583Y199184D01*
X228353Y198431D01*
X228262Y198413D01*
X227422Y197852D01*
X224321Y194751D01*
X215418D01*
Y190675D01*
X206890D01*
Y192270D01*
X192913D01*
X192370Y193286D01*
X192487Y193460D01*
X196850D01*
Y199000D01*
X198120D01*
D01*
X196850D01*
Y204540D01*
X188080D01*
Y201590D01*
X184150D01*
Y196410D01*
X186040D01*
X186429Y195472D01*
X184859Y193901D01*
X184297Y193061D01*
X184150Y192320D01*
Y186690D01*
X184100D01*
Y178873D01*
X177504Y172276D01*
X176593Y172802D01*
X176890Y173911D01*
Y176089D01*
X176326Y178192D01*
X175238Y180078D01*
X173698Y181618D01*
X171812Y182706D01*
X169709Y183270D01*
X167531D01*
X165428Y182706D01*
X163542Y181618D01*
X162002Y180078D01*
X160914Y178192D01*
X160350Y176089D01*
Y173911D01*
X160914Y171808D01*
X162002Y169922D01*
X163542Y168382D01*
X165428Y167294D01*
X167531Y166730D01*
X169709D01*
X170818Y167027D01*
X171344Y166116D01*
X170208Y164981D01*
X170180Y164993D01*
Y161290D01*
X173883D01*
X173871Y161318D01*
X188334Y175781D01*
X189066Y175591D01*
X189350Y175394D01*
Y172730D01*
X206890D01*
Y173115D01*
X209977D01*
X212416Y170677D01*
X212431Y170653D01*
X215418Y167667D01*
Y161675D01*
X215089Y160717D01*
X211274D01*
X203617Y168375D01*
X203044Y169757D01*
X201972Y170829D01*
X200572Y171409D01*
X199056D01*
X197656Y170829D01*
X196584Y169757D01*
X196004Y168357D01*
Y166841D01*
X196584Y165441D01*
X197656Y164369D01*
X199039Y163797D01*
X207644Y155191D01*
X208694Y154489D01*
X209933Y154243D01*
X214728D01*
X215158Y153490D01*
X215176Y153206D01*
X214630Y151888D01*
Y150372D01*
X215210Y148972D01*
X216282Y147900D01*
X217682Y147320D01*
X219198D01*
X220598Y147900D01*
X221670Y148972D01*
X222250Y150372D01*
Y151888D01*
X221704Y153206D01*
X222064Y154222D01*
X228903D01*
X229007Y154243D01*
X229494D01*
X230733Y154489D01*
X231783Y155191D01*
X236591Y159999D01*
X245182D01*
Y173161D01*
X241831D01*
Y181589D01*
X245182D01*
Y193431D01*
X248312D01*
X249303Y193628D01*
X250144Y194189D01*
X260374Y204420D01*
X280601D01*
X281022Y203404D01*
X278839Y201221D01*
X278277Y200381D01*
X278080Y199390D01*
Y156210D01*
X278277Y155219D01*
X278839Y154379D01*
X285309Y147909D01*
X286149Y147347D01*
X287140Y147150D01*
X325600D01*
Y137200D01*
X325208D01*
X324217Y137003D01*
X323377Y136441D01*
X322019Y135083D01*
X321457Y134243D01*
X321260Y133252D01*
Y121060D01*
X321457Y120069D01*
X322019Y119229D01*
X322530Y118717D01*
Y108770D01*
X317100D01*
Y100668D01*
X316161Y100279D01*
X251510Y164931D01*
Y175002D01*
X252150Y175642D01*
X252730Y177042D01*
Y178558D01*
X252150Y179958D01*
X251078Y181030D01*
X249678Y181610D01*
X248162D01*
X246762Y181030D01*
X245690Y179958D01*
X245110Y178558D01*
Y177042D01*
X245690Y175642D01*
X246330Y175002D01*
Y163858D01*
X246527Y162867D01*
X247089Y162027D01*
X315487Y93629D01*
X315830Y93399D01*
Y89020D01*
X325120D01*
Y87750D01*
X326390D01*
Y80460D01*
X334410D01*
Y83865D01*
X351390D01*
Y80460D01*
X359410D01*
Y87750D01*
X361950D01*
Y80460D01*
X369970D01*
Y85160D01*
X378818D01*
Y83589D01*
X385406D01*
Y91440D01*
X386676D01*
Y92710D01*
X394535D01*
Y99291D01*
X389266D01*
Y115052D01*
X389069Y116043D01*
X388901Y116294D01*
X389444Y117310D01*
X396610D01*
Y116128D01*
X396807Y115137D01*
X397369Y114297D01*
X400674Y110992D01*
Y98021D01*
X396675D01*
Y86548D01*
X395659Y86127D01*
X394535Y87252D01*
Y90170D01*
X387946D01*
Y83589D01*
X390872D01*
X393743Y80719D01*
X394583Y80157D01*
X395574Y79960D01*
X399027D01*
X399416Y79022D01*
X399209Y78814D01*
X398543Y77207D01*
X408488D01*
X407822Y78814D01*
X407615Y79022D01*
X408004Y79960D01*
X410210D01*
X411201Y80157D01*
X412041Y80719D01*
X413992Y82669D01*
X414020Y82657D01*
Y87630D01*
X415290D01*
Y88900D01*
X420262D01*
X419597Y90508D01*
X418168Y91937D01*
X417880Y92056D01*
Y114530D01*
X417683Y115521D01*
X417121Y116361D01*
X413780Y119703D01*
Y124060D01*
X406490D01*
Y126600D01*
X413780D01*
Y134620D01*
X409080D01*
Y141440D01*
X412024D01*
X412060Y141352D01*
X413132Y140280D01*
X414532Y139700D01*
X416048D01*
X417448Y140280D01*
X418520Y141352D01*
X419100Y142752D01*
Y144268D01*
X418520Y145668D01*
X417448Y146740D01*
X416048Y147320D01*
X414532D01*
X413780Y147823D01*
Y149460D01*
X399200D01*
Y141440D01*
X403900D01*
Y134620D01*
X400955D01*
X394807Y140767D01*
X393967Y141329D01*
X392976Y141526D01*
X390017D01*
X389905Y141694D01*
X390448Y142710D01*
X397510D01*
Y158750D01*
X387132D01*
X380777Y165105D01*
X379937Y165667D01*
X378946Y165864D01*
X377682D01*
X377042Y166504D01*
X375642Y167084D01*
X374126D01*
X372725Y166504D01*
X371654Y165432D01*
X371074Y164032D01*
Y162516D01*
X371654Y161116D01*
X372725Y160044D01*
X374126Y159464D01*
X375642D01*
X377042Y160044D01*
X377682Y160685D01*
X377873D01*
X385212Y153346D01*
X384846Y152330D01*
X375440D01*
Y157410D01*
X365690D01*
Y167160D01*
X341960D01*
Y168430D01*
X338153D01*
X332621Y173962D01*
X332632Y173990D01*
X328930D01*
Y170287D01*
X328958Y170299D01*
X334080Y165177D01*
Y163210D01*
X338020D01*
Y160670D01*
X334080D01*
Y157410D01*
X330940D01*
X330690Y157460D01*
X329213D01*
X311200Y175473D01*
Y242312D01*
X311840Y242952D01*
X312420Y244352D01*
Y245868D01*
X311840Y247268D01*
X310768Y248340D01*
X309368Y248920D01*
X307852D01*
X306452Y248340D01*
X305380Y247268D01*
X304800Y245868D01*
Y244352D01*
X305380Y242952D01*
X306020Y242312D01*
Y174400D01*
X306217Y173409D01*
X306779Y172569D01*
X325600Y153748D01*
Y152330D01*
X288213D01*
X283260Y157283D01*
Y198317D01*
X290121Y205179D01*
X290683Y206019D01*
X290880Y207010D01*
Y211708D01*
X291896Y212387D01*
X292612Y212090D01*
X294128D01*
X294844Y212387D01*
X295860Y211708D01*
Y198115D01*
X295627Y197882D01*
X295047Y196481D01*
Y194966D01*
X295627Y193565D01*
X296699Y192494D01*
X298099Y191914D01*
X299615D01*
X301015Y192494D01*
X302087Y193565D01*
X302667Y194966D01*
Y196481D01*
X302087Y197882D01*
X301040Y198929D01*
Y308610D01*
X300843Y309601D01*
X300281Y310441D01*
X271071Y339651D01*
X270231Y340213D01*
X269240Y340410D01*
X198120D01*
X197129Y340213D01*
X196289Y339651D01*
X187893Y331255D01*
X187412Y330535D01*
X186988Y330111D01*
X185802Y329620D01*
X184730Y328548D01*
X184482Y327949D01*
X183224Y327567D01*
X182955Y327747D01*
Y336211D01*
X197189Y350445D01*
X220220D01*
X220642Y350023D01*
X222250Y349357D01*
Y354330D01*
Y359302D01*
X220642Y358637D01*
X220220Y358215D01*
X195580D01*
X194093Y357919D01*
X192833Y357077D01*
X176351Y340594D01*
X176232Y340599D01*
X175335Y340916D01*
Y348774D01*
X182729Y356168D01*
X182942Y356487D01*
X183212Y356757D01*
X183359Y357110D01*
X183571Y357429D01*
X183646Y357804D01*
X183792Y358157D01*
Y358540D01*
X183867Y358915D01*
X183792Y359291D01*
Y359673D01*
X183646Y360027D01*
X183571Y360402D01*
X183359Y360720D01*
X183212Y361073D01*
X182942Y361344D01*
X182729Y361662D01*
X182411Y361875D01*
X182141Y362145D01*
X181787Y362292D01*
X181469Y362504D01*
X181094Y362579D01*
X180740Y362725D01*
X180358D01*
X179982Y362800D01*
X179607Y362725D01*
X179224D01*
X178871Y362579D01*
X178496Y362504D01*
X178178Y362292D01*
X177824Y362145D01*
X177554Y361875D01*
X177236Y361662D01*
X169911Y354337D01*
X168972Y354726D01*
Y420934D01*
X188031Y439993D01*
X205072D01*
X205493Y438977D01*
X203975Y437459D01*
X202239Y434451D01*
X201340Y431096D01*
Y430630D01*
X214530D01*
X227720D01*
Y431096D01*
X226821Y434451D01*
X225085Y437459D01*
X223567Y438977D01*
X223988Y439993D01*
X256073D01*
X256493Y438977D01*
X254975Y437459D01*
X253239Y434451D01*
X252340Y431096D01*
Y430630D01*
X265530D01*
Y429360D01*
X266800D01*
Y416170D01*
X267267D01*
X270621Y417069D01*
X273629Y418805D01*
X276085Y421261D01*
X277821Y424269D01*
X277918Y424629D01*
X278899Y424892D01*
X299283Y404509D01*
X300123Y403947D01*
X301114Y403750D01*
X308927D01*
Y395905D01*
X302969Y389947D01*
X302407Y389107D01*
X302210Y388116D01*
Y321070D01*
X302407Y320079D01*
X302969Y319239D01*
X319550Y302657D01*
Y294408D01*
X319411Y294380D01*
X318158Y293542D01*
X317320Y292289D01*
X317026Y290810D01*
Y287580D01*
X322140D01*
X327254D01*
Y290810D01*
X326960Y292289D01*
X326122Y293542D01*
X324869Y294380D01*
X324730Y294408D01*
Y298828D01*
X325110Y299083D01*
X325746Y299278D01*
X326407Y298836D01*
X327390Y298641D01*
X328797D01*
X333333Y294104D01*
X332999Y293002D01*
X332907Y292984D01*
X332073Y292427D01*
X331516Y291593D01*
X331321Y290610D01*
Y286438D01*
X331255Y286110D01*
Y282940D01*
X331321Y282612D01*
Y281610D01*
X331516Y280627D01*
X332073Y279793D01*
X332907Y279236D01*
X333049Y279208D01*
Y263121D01*
X330345D01*
Y249959D01*
X339860D01*
X344170Y245649D01*
Y244352D01*
X344750Y242952D01*
X345822Y241880D01*
X347222Y241300D01*
X348738D01*
X350138Y241880D01*
X351210Y242952D01*
X351790Y244352D01*
Y245868D01*
X351210Y247268D01*
X350138Y248340D01*
X348738Y248920D01*
X348224D01*
X343522Y253622D01*
Y263121D01*
X340818D01*
Y281146D01*
X340523Y282633D01*
X339681Y283893D01*
X339025Y284549D01*
Y286110D01*
X338959Y286438D01*
Y290610D01*
X338875Y291034D01*
X339587Y292050D01*
X352742D01*
Y291647D01*
X352892Y290895D01*
X353318Y290258D01*
X353955Y289832D01*
X354707Y289682D01*
X365493D01*
X366245Y289832D01*
X366882Y290258D01*
X367308Y290895D01*
X367458Y291647D01*
Y297633D01*
X367308Y298385D01*
X366882Y299022D01*
X366245Y299448D01*
X365493Y299598D01*
X354707D01*
X353955Y299448D01*
X353318Y299022D01*
X352892Y298385D01*
X352742Y297633D01*
Y297230D01*
X337533D01*
X332459Y302303D01*
Y310210D01*
X332264Y311193D01*
X331707Y312027D01*
X331230Y312346D01*
Y322513D01*
X335851D01*
Y348167D01*
X310197D01*
Y322513D01*
X326050D01*
Y312346D01*
X325573Y312027D01*
X325016Y311193D01*
X324821Y310210D01*
Y306119D01*
X324455Y305879D01*
X323805Y305728D01*
X307390Y322143D01*
Y387043D01*
X312589Y392243D01*
X321754D01*
Y406340D01*
Y420437D01*
X308927D01*
Y408930D01*
X302187D01*
X279925Y431191D01*
X279085Y431753D01*
X278514Y431866D01*
X277821Y434451D01*
X276085Y437459D01*
X274567Y438977D01*
X274988Y439993D01*
X279329D01*
X291081Y428241D01*
X292131Y427539D01*
X293370Y427293D01*
X399017D01*
X404934Y421376D01*
X404546Y420437D01*
X395294D01*
Y407610D01*
X408121D01*
Y416862D01*
X409060Y417251D01*
X415863Y410447D01*
Y359846D01*
X416109Y358607D01*
X416811Y357557D01*
X436297Y338071D01*
X437347Y337369D01*
X438586Y337123D01*
X487244D01*
X488483Y337369D01*
X489533Y338071D01*
X499714Y348252D01*
X500416Y349302D01*
X500662Y350541D01*
Y353679D01*
X508470D01*
X509687Y353921D01*
X510719Y354611D01*
X511409Y355643D01*
X511651Y356860D01*
Y374660D01*
X511489Y375477D01*
X512127Y376493D01*
X516359D01*
X519589Y373263D01*
Y356860D01*
X519831Y355643D01*
X520521Y354611D01*
X521553Y353921D01*
X522770Y353679D01*
X533870D01*
X535087Y353921D01*
X536119Y354611D01*
X536767Y355579D01*
X536841Y355590D01*
X537783Y355043D01*
Y336621D01*
X528249Y327087D01*
X512823D01*
X512621Y328103D01*
X513418Y328433D01*
X514847Y329862D01*
X515513Y331470D01*
X505568D01*
X506233Y329862D01*
X507662Y328433D01*
X508460Y328103D01*
X508257Y327087D01*
X503791D01*
X502408Y327660D01*
X500892D01*
X499492Y327080D01*
X498420Y326008D01*
X497847Y324625D01*
X484166Y310944D01*
X483464Y309894D01*
X483218Y308655D01*
Y303918D01*
X482202Y303498D01*
X481552Y304147D01*
X480152Y304728D01*
X478636D01*
X477236Y304147D01*
X476164Y303076D01*
X475584Y301675D01*
Y300160D01*
X476164Y298759D01*
X477236Y297688D01*
X478636Y297108D01*
X480152D01*
X481552Y297688D01*
X482202Y298337D01*
X483218Y297917D01*
Y294676D01*
X480403Y291861D01*
X470700D01*
X469483Y291619D01*
X468451Y290929D01*
X467761Y289897D01*
X467519Y288680D01*
Y275877D01*
X466503Y275485D01*
X465708Y276280D01*
X464308Y276860D01*
X462792D01*
X461392Y276280D01*
X460597Y275485D01*
X459581Y275877D01*
Y288680D01*
X459339Y289897D01*
X458649Y290929D01*
X457617Y291619D01*
X456400Y291861D01*
X445300D01*
X444083Y291619D01*
X443051Y290929D01*
X442361Y289897D01*
X442119Y288680D01*
Y271361D01*
X414729Y243971D01*
X414167Y243131D01*
X413970Y242140D01*
Y184150D01*
X414167Y183159D01*
X414729Y182319D01*
X431073Y165975D01*
X431913Y165414D01*
X432904Y165217D01*
X455961D01*
X466090Y155087D01*
Y154182D01*
X466670Y152782D01*
X467310Y152142D01*
Y146170D01*
X448041Y126901D01*
X447480Y126061D01*
X447282Y125070D01*
Y117872D01*
X444322D01*
X443105Y117630D01*
X442073Y116940D01*
X441383Y115908D01*
X441141Y114691D01*
Y96891D01*
X441383Y95674D01*
X442073Y94642D01*
X443105Y93952D01*
X444322Y93710D01*
X453442D01*
X453831Y92771D01*
X368107Y7047D01*
X209621D01*
X166980Y49688D01*
X167651Y50454D01*
X167760Y50371D01*
X169472Y49661D01*
X170040Y49586D01*
Y60750D01*
X164209D01*
Y56520D01*
X164451Y54682D01*
X165161Y52970D01*
X165244Y52861D01*
X164478Y52190D01*
X131390Y85278D01*
Y98079D01*
X131778Y98661D01*
X132025Y99899D01*
Y113429D01*
X132598Y114812D01*
Y116328D01*
X132017Y117728D01*
X130946Y118800D01*
X129545Y119380D01*
X128030D01*
X126629Y118800D01*
X125558Y117728D01*
X124978Y116328D01*
Y114812D01*
X125550Y113429D01*
Y101085D01*
X125162Y100503D01*
X124915Y99264D01*
Y83938D01*
X125162Y82699D01*
X125864Y81648D01*
X205991Y1521D01*
X206747Y1016D01*
X206438Y0D01*
X33612D01*
X29063Y599D01*
X24632Y1786D01*
X20393Y3542D01*
X16419Y5836D01*
X12780Y8629D01*
X9535Y11873D01*
X6742Y15513D01*
X4448Y19487D01*
X2692Y23726D01*
X1505Y28157D01*
X906Y32706D01*
Y35000D01*
Y415000D01*
Y417294D01*
X1505Y421843D01*
X2692Y426274D01*
X4448Y430513D01*
X6742Y434487D01*
X9535Y438127D01*
X12780Y441371D01*
X16419Y444164D01*
X20393Y446458D01*
X24632Y448214D01*
X29063Y449401D01*
X33612Y450000D01*
X35906D01*
X715906Y450000D01*
D02*
G37*
G36*
X267473Y335076D02*
X266926Y334060D01*
X235466D01*
X234475Y333863D01*
X233634Y333301D01*
X231853Y331520D01*
X203458D01*
X202818Y332160D01*
X201418Y332740D01*
X199902D01*
X198502Y332160D01*
X197430Y331088D01*
X196850Y329688D01*
Y328172D01*
X197430Y326772D01*
X198502Y325700D01*
X199902Y325120D01*
X201418D01*
X202818Y325700D01*
X203458Y326340D01*
X232925D01*
X233917Y326537D01*
X234757Y327099D01*
X236538Y328880D01*
X266897D01*
X285700Y310077D01*
Y226314D01*
X284684Y225784D01*
X284480Y225927D01*
Y226818D01*
X283900Y228218D01*
X282828Y229290D01*
X281428Y229870D01*
X279912D01*
X278512Y229290D01*
X277440Y228218D01*
X276860Y226818D01*
Y225302D01*
X277440Y223902D01*
X278512Y222830D01*
X279912Y222250D01*
X280130D01*
X281320Y221060D01*
X281267Y220476D01*
X280199Y219820D01*
X280158Y219837D01*
X278642D01*
X277242Y219257D01*
X276474Y218490D01*
X259080D01*
X258089Y218293D01*
X257249Y217731D01*
X246121Y206604D01*
X245182Y206992D01*
Y216341D01*
X242479D01*
Y224769D01*
X245182D01*
Y237931D01*
X242479D01*
Y246359D01*
X245182D01*
Y251826D01*
X246821D01*
X248307Y252122D01*
X249568Y252964D01*
X259287Y262683D01*
X260129Y263943D01*
X260425Y265430D01*
Y281974D01*
X260129Y283460D01*
X259287Y284721D01*
X250909Y293099D01*
Y293490D01*
X250834Y293865D01*
Y301720D01*
X234794D01*
Y299645D01*
X225434D01*
Y301840D01*
X209394D01*
Y293985D01*
X209319Y293610D01*
Y289693D01*
X202943Y283317D01*
X202005Y283706D01*
Y294640D01*
X201709Y296127D01*
X200867Y297387D01*
X192032Y306222D01*
X192533Y307158D01*
X193652Y306935D01*
X208124D01*
Y303530D01*
X216144D01*
Y310820D01*
Y318110D01*
X208124D01*
Y314705D01*
X195261D01*
X188324Y321641D01*
X188713Y322580D01*
X188718D01*
X190118Y323160D01*
X191190Y324232D01*
X191770Y325632D01*
Y327148D01*
X191635Y327473D01*
X192037Y328074D01*
X199193Y335230D01*
X267371D01*
X267473Y335076D01*
D02*
G37*
G36*
X645055Y197419D02*
X642051Y194415D01*
X585470D01*
X585470Y194415D01*
X584498Y194012D01*
X580688Y190202D01*
X580285Y189230D01*
X580285Y189230D01*
Y183379D01*
X579269Y183071D01*
X578753Y183843D01*
X578382Y184215D01*
Y195414D01*
X579767D01*
Y207058D01*
X580390D01*
Y213360D01*
X580563Y213533D01*
X568602D01*
X568254Y214083D01*
X568159Y214526D01*
X570854Y217222D01*
X579438D01*
Y230399D01*
X566276D01*
Y221800D01*
X565593Y221117D01*
X564577Y221538D01*
Y236825D01*
X564913Y237161D01*
X566276D01*
Y233810D01*
X579438D01*
Y237161D01*
X590406D01*
Y233810D01*
X602248D01*
Y232742D01*
X601175Y231669D01*
X598257D01*
Y225080D01*
X604838D01*
Y228006D01*
X606669Y229838D01*
X607230Y230678D01*
X607427Y231669D01*
Y246769D01*
X607230Y247760D01*
X606669Y248600D01*
X605181Y250088D01*
X604341Y250649D01*
X603350Y250846D01*
X556578D01*
X555587Y250649D01*
X554746Y250088D01*
X552915Y248257D01*
X549997D01*
Y241668D01*
X556578D01*
Y244594D01*
X557650Y245667D01*
X566276D01*
Y243635D01*
X563572D01*
X562333Y243389D01*
X561283Y242687D01*
X559051Y240455D01*
X558349Y239405D01*
X558103Y238166D01*
Y222359D01*
X556246Y220503D01*
X555308Y220891D01*
Y230399D01*
X542146D01*
Y221800D01*
X539438Y219092D01*
X538736Y218041D01*
X538490Y216803D01*
Y203978D01*
X537474Y203319D01*
X536702Y203472D01*
X530287D01*
Y212469D01*
X530041Y213708D01*
X529339Y214758D01*
X529084Y215013D01*
X529473Y215952D01*
X532448D01*
Y222540D01*
X524597D01*
X516746D01*
Y217938D01*
X510574D01*
X510257Y218198D01*
Y229874D01*
X493217D01*
Y220520D01*
X493142Y220144D01*
Y218105D01*
X492383Y217345D01*
X491446Y217846D01*
X491565Y218440D01*
Y249851D01*
X494369Y252655D01*
X645055D01*
Y197419D01*
D02*
G37*
G36*
X295860Y307537D02*
Y220092D01*
X294844Y219413D01*
X294128Y219710D01*
X292612D01*
X291896Y219413D01*
X290880Y220092D01*
Y311081D01*
X291038Y311218D01*
X291833Y311564D01*
X295860Y307537D01*
D02*
G37*
G36*
X523813Y211128D02*
Y202848D01*
X523353Y202540D01*
X522663Y201508D01*
X522421Y200291D01*
Y195399D01*
X521405Y194756D01*
X520577Y194920D01*
X519338Y194674D01*
X518288Y193972D01*
X517586Y192922D01*
X517340Y191683D01*
Y187799D01*
X517586Y186560D01*
X518288Y185510D01*
X519338Y184808D01*
X520577Y184562D01*
X521405Y184726D01*
X522421Y184083D01*
Y182491D01*
X522663Y181274D01*
X523353Y180242D01*
X524385Y179552D01*
X525602Y179310D01*
X536702D01*
X537474Y179463D01*
X538490Y178804D01*
Y173587D01*
X531164Y166261D01*
X530886Y166370D01*
X526415D01*
Y161900D01*
X526524Y161621D01*
X482696Y117793D01*
X481222D01*
X480822Y117872D01*
X471702D01*
X471314Y118811D01*
X508041Y155538D01*
X508743Y156589D01*
X508989Y157827D01*
Y179310D01*
X511302D01*
X512519Y179552D01*
X513551Y180242D01*
X514241Y181274D01*
X514483Y182491D01*
Y200291D01*
X514241Y201508D01*
X513551Y202540D01*
X512519Y203230D01*
X511302Y203472D01*
X505147D01*
X504838Y204488D01*
X505141Y204690D01*
X511915Y211464D01*
X523477D01*
X523813Y211128D01*
D02*
G37*
G36*
X232005Y181589D02*
X235357D01*
Y173161D01*
X232005D01*
Y164570D01*
X229533Y162098D01*
X228595Y162486D01*
Y173161D01*
X220911D01*
X217941Y176131D01*
X217925Y176155D01*
X214333Y179747D01*
X213073Y180589D01*
X211586Y180885D01*
X206890D01*
Y181270D01*
X189350D01*
X189280Y182257D01*
Y182743D01*
X189350Y183730D01*
X206890D01*
Y185495D01*
X215418D01*
Y181589D01*
X228595D01*
Y191700D01*
X230326Y193431D01*
X232005D01*
Y181589D01*
D02*
G37*
G36*
X479885Y204847D02*
X478509Y203472D01*
X469722D01*
X468505Y203230D01*
X467473Y202540D01*
X466783Y201508D01*
X466541Y200291D01*
Y182491D01*
X466783Y181274D01*
X467473Y180242D01*
X468505Y179552D01*
X469722Y179310D01*
X478842D01*
X479231Y178371D01*
X478087Y177227D01*
X447057D01*
X445914Y178371D01*
X446302Y179310D01*
X455422D01*
X456639Y179552D01*
X457672Y180242D01*
X458361Y181274D01*
X458603Y182491D01*
Y197978D01*
X466290Y205665D01*
X478790D01*
X479384Y205784D01*
X479885Y204847D01*
D02*
G37*
G36*
X721360Y267970D02*
Y233680D01*
X717550Y229870D01*
X683260D01*
X679450Y226060D01*
Y206633D01*
X679231Y206254D01*
X678480Y203451D01*
Y200549D01*
X679231Y197746D01*
X679450Y197367D01*
Y163830D01*
X675640Y160020D01*
X645160D01*
X640080Y165100D01*
Y168910D01*
X636270Y172720D01*
X585470D01*
X581660Y176530D01*
Y189230D01*
X585470Y193040D01*
X642620D01*
X646430Y196850D01*
Y266700D01*
X650240Y270510D01*
Y271780D01*
X717550D01*
X721360Y267970D01*
D02*
G37*
G36*
X497021Y198311D02*
Y182491D01*
X497263Y181274D01*
X497953Y180242D01*
X498985Y179552D01*
X500202Y179310D01*
X502515D01*
Y159168D01*
X462408Y119061D01*
X461706Y118011D01*
X461460Y116772D01*
Y100400D01*
X459542Y98482D01*
X458603Y98871D01*
Y114691D01*
X458361Y115908D01*
X457672Y116940D01*
X456639Y117630D01*
X455422Y117872D01*
X452462D01*
Y123997D01*
X471731Y143266D01*
X472293Y144106D01*
X472490Y145097D01*
Y152142D01*
X473130Y152782D01*
X473710Y154182D01*
Y155698D01*
X473130Y157098D01*
X472058Y158170D01*
X470658Y158750D01*
X469753D01*
X458865Y169638D01*
X458716Y169737D01*
X459025Y170753D01*
X479428D01*
X480666Y170999D01*
X481717Y171701D01*
X493633Y183617D01*
X494335Y184667D01*
X494581Y185906D01*
Y197198D01*
X496082Y198700D01*
X497021Y198311D01*
D02*
G37*
G36*
X334080Y123810D02*
X338020D01*
Y121270D01*
X334080D01*
Y116050D01*
X335485D01*
X335627Y115337D01*
X336189Y114497D01*
X337696Y112990D01*
X337684Y112962D01*
X347629D01*
X346963Y114569D01*
X345534Y115998D01*
X344796Y116304D01*
X344998Y117320D01*
X359783D01*
Y108770D01*
X352660D01*
Y98050D01*
X333140D01*
Y108770D01*
X327710D01*
Y119790D01*
X327513Y120781D01*
X326951Y121621D01*
X326440Y122133D01*
Y127070D01*
X334080D01*
Y123810D01*
D02*
G37*
%LPC*%
G36*
X97790Y448203D02*
Y444500D01*
X101493D01*
X100827Y446108D01*
X99398Y447537D01*
X97790Y448203D01*
D02*
G37*
G36*
X95250D02*
X93642Y447537D01*
X92213Y446108D01*
X91547Y444500D01*
X95250D01*
Y448203D01*
D02*
G37*
G36*
X101493Y441960D02*
X97790D01*
Y438257D01*
X99398Y438923D01*
X100827Y440352D01*
X101493Y441960D01*
D02*
G37*
G36*
X95250D02*
X91547D01*
X92213Y440352D01*
X93642Y438923D01*
X95250Y438257D01*
Y441960D01*
D02*
G37*
G36*
X717168Y442540D02*
X716270D01*
Y416270D01*
X742540D01*
Y417168D01*
X741862Y421449D01*
X740522Y425572D01*
X738554Y429434D01*
X736006Y432941D01*
X732941Y436006D01*
X729434Y438554D01*
X725572Y440522D01*
X721449Y441862D01*
X717168Y442540D01*
D02*
G37*
G36*
X713730D02*
X712832D01*
X708551Y441862D01*
X704428Y440522D01*
X700566Y438554D01*
X697059Y436006D01*
X693994Y432941D01*
X691446Y429434D01*
X689478Y425572D01*
X688138Y421449D01*
X687460Y417168D01*
Y416270D01*
X713730D01*
Y442540D01*
D02*
G37*
G36*
X37167D02*
X36270D01*
Y416270D01*
X62540D01*
Y417168D01*
X61862Y421449D01*
X60522Y425572D01*
X58554Y429434D01*
X56006Y432941D01*
X52941Y436006D01*
X49434Y438554D01*
X45572Y440522D01*
X41449Y441862D01*
X37167Y442540D01*
D02*
G37*
G36*
X33730D02*
X32833D01*
X28551Y441862D01*
X24428Y440522D01*
X20566Y438554D01*
X17059Y436006D01*
X13994Y432941D01*
X11446Y429434D01*
X9478Y425572D01*
X8138Y421449D01*
X7460Y417168D01*
Y416270D01*
X33730D01*
Y442540D01*
D02*
G37*
G36*
X676398Y423860D02*
X674882D01*
X673482Y423280D01*
X672410Y422208D01*
X671830Y420808D01*
Y419292D01*
X672410Y417892D01*
X673482Y416820D01*
X674882Y416240D01*
X676398D01*
X677798Y416820D01*
X678870Y417892D01*
X679450Y419292D01*
Y420808D01*
X678870Y422208D01*
X677798Y423280D01*
X676398Y423860D01*
D02*
G37*
G36*
X264260Y428090D02*
X252340D01*
Y427623D01*
X253239Y424269D01*
X254975Y421261D01*
X257431Y418805D01*
X260439Y417069D01*
X263794Y416170D01*
X264260D01*
Y428090D01*
D02*
G37*
G36*
X227720D02*
X215800D01*
Y416170D01*
X216266D01*
X219621Y417069D01*
X222629Y418805D01*
X225085Y421261D01*
X226821Y424269D01*
X227720Y427623D01*
Y428090D01*
D02*
G37*
G36*
X213260D02*
X201340D01*
Y427623D01*
X202239Y424269D01*
X203975Y421261D01*
X206431Y418805D01*
X209439Y417069D01*
X212794Y416170D01*
X213260D01*
Y428090D01*
D02*
G37*
G36*
X554548Y420685D02*
X547967D01*
Y414096D01*
X554548D01*
Y420685D01*
D02*
G37*
G36*
X392754Y420437D02*
X379927D01*
Y408930D01*
X337121D01*
Y420437D01*
X324294D01*
Y406340D01*
Y392243D01*
X337121D01*
Y403750D01*
X379927D01*
Y392243D01*
X392754D01*
Y406340D01*
Y420437D01*
D02*
G37*
G36*
X545427Y420685D02*
X538846D01*
Y415290D01*
X538073Y415136D01*
X537233Y414575D01*
X530086Y407428D01*
X529148Y407817D01*
Y419414D01*
X515986D01*
Y416122D01*
X508227D01*
Y420302D01*
X491187D01*
Y406762D01*
X508227D01*
Y410942D01*
X515986D01*
Y406237D01*
X527467D01*
X527888Y405221D01*
X526763Y404097D01*
X523837D01*
Y397508D01*
X530418D01*
Y400426D01*
X532257Y402266D01*
X532272Y402289D01*
X537908Y407924D01*
X538846Y407536D01*
Y404967D01*
X545427D01*
Y412826D01*
Y420685D01*
D02*
G37*
G36*
X554548Y411556D02*
X547967D01*
Y404967D01*
X554548D01*
Y411556D01*
D02*
G37*
G36*
X467002Y406631D02*
X460414D01*
Y400050D01*
X467002D01*
Y406631D01*
D02*
G37*
G36*
X457874D02*
X451285D01*
Y400050D01*
X457874D01*
Y406631D01*
D02*
G37*
G36*
X521297Y404097D02*
X514716D01*
Y397508D01*
X521297D01*
Y404097D01*
D02*
G37*
G36*
X593687D02*
X587106D01*
Y397508D01*
X593687D01*
Y404097D01*
D02*
G37*
G36*
X241283Y413380D02*
X238777D01*
X236355Y412731D01*
X234185Y411478D01*
X232412Y409705D01*
X231159Y407535D01*
X230510Y405113D01*
Y402607D01*
X231159Y400185D01*
X232412Y398015D01*
X234185Y396242D01*
X236355Y394989D01*
X238777Y394340D01*
X241283D01*
X243705Y394989D01*
X245875Y396242D01*
X247648Y398015D01*
X248901Y400185D01*
X249550Y402607D01*
Y405113D01*
X248901Y407535D01*
X247648Y409705D01*
X245875Y411478D01*
X243705Y412731D01*
X241283Y413380D01*
D02*
G37*
G36*
X408121Y405070D02*
X395294D01*
Y392243D01*
X408121D01*
Y405070D01*
D02*
G37*
G36*
X467002Y397510D02*
X460414D01*
Y390929D01*
X467002D01*
Y397510D01*
D02*
G37*
G36*
X457874D02*
X451285D01*
Y390929D01*
X457874D01*
Y397510D01*
D02*
G37*
G36*
X148590Y392323D02*
Y388620D01*
X152292D01*
X151627Y390228D01*
X150198Y391657D01*
X148590Y392323D01*
D02*
G37*
G36*
X146050D02*
X144442Y391657D01*
X143013Y390228D01*
X142347Y388620D01*
X146050D01*
Y392323D01*
D02*
G37*
G36*
X530418Y394968D02*
X523837D01*
Y388380D01*
X530418D01*
Y394968D01*
D02*
G37*
G36*
X521297D02*
X514716D01*
Y388380D01*
X521297D01*
Y394968D01*
D02*
G37*
G36*
X742540Y413730D02*
X716270D01*
Y387460D01*
X717168D01*
X721449Y388138D01*
X725572Y389478D01*
X729434Y391446D01*
X732941Y393994D01*
X736006Y397059D01*
X738554Y400566D01*
X740522Y404428D01*
X741862Y408551D01*
X742540Y412832D01*
Y413730D01*
D02*
G37*
G36*
X713730D02*
X687460D01*
Y412832D01*
X688138Y408551D01*
X689478Y404428D01*
X691446Y400566D01*
X693994Y397059D01*
X697059Y393994D01*
X700566Y391446D01*
X704428Y389478D01*
X708551Y388138D01*
X712832Y387460D01*
X713730D01*
Y413730D01*
D02*
G37*
G36*
X62540D02*
X36270D01*
Y387460D01*
X37167D01*
X41449Y388138D01*
X45572Y389478D01*
X49434Y391446D01*
X52941Y393994D01*
X56006Y397059D01*
X58554Y400566D01*
X60522Y404428D01*
X61862Y408551D01*
X62540Y412832D01*
Y413730D01*
D02*
G37*
G36*
X33730D02*
X7460D01*
Y412832D01*
X8138Y408551D01*
X9478Y404428D01*
X11446Y400566D01*
X13994Y397059D01*
X17059Y393994D01*
X20566Y391446D01*
X24428Y389478D01*
X28551Y388138D01*
X32833Y387460D01*
X33730D01*
Y413730D01*
D02*
G37*
G36*
X152292Y386080D02*
X148590D01*
Y382378D01*
X150198Y383043D01*
X151627Y384472D01*
X152292Y386080D01*
D02*
G37*
G36*
X146050D02*
X142347D01*
X143013Y384472D01*
X144442Y383043D01*
X146050Y382378D01*
Y386080D01*
D02*
G37*
G36*
X612100Y435685D02*
X494343D01*
X492856Y435389D01*
X491596Y434547D01*
X481123Y424074D01*
X480281Y422814D01*
X479985Y421327D01*
Y391499D01*
X472311Y383825D01*
X468356D01*
X466869Y383529D01*
X465609Y382687D01*
X460396Y377475D01*
X455710D01*
X455642Y377461D01*
X445300D01*
X444083Y377219D01*
X443051Y376529D01*
X442361Y375497D01*
X442119Y374280D01*
Y356480D01*
X442361Y355263D01*
X443051Y354231D01*
X444083Y353541D01*
X445300Y353299D01*
X456400D01*
X457617Y353541D01*
X458649Y354231D01*
X459339Y355263D01*
X459581Y356480D01*
Y369705D01*
X462006D01*
X463492Y370001D01*
X464752Y370843D01*
X466580Y372671D01*
X467519Y372282D01*
Y356480D01*
X467761Y355263D01*
X468451Y354231D01*
X469483Y353541D01*
X470700Y353299D01*
X481800D01*
X483017Y353541D01*
X484049Y354231D01*
X484739Y355263D01*
X484981Y356480D01*
Y374280D01*
X484739Y375497D01*
X484612Y375688D01*
Y378524D01*
X494849Y388762D01*
X508227D01*
Y402302D01*
X491187D01*
Y392425D01*
X488771Y390008D01*
X487755Y390429D01*
Y419718D01*
X495952Y427915D01*
X610491D01*
X622178Y416229D01*
X621937Y415032D01*
X620692Y414517D01*
X619263Y413088D01*
X619144Y412800D01*
X617663D01*
X616672Y412603D01*
X615832Y412041D01*
X603746Y399955D01*
X602808Y400344D01*
Y404097D01*
X596227D01*
Y396238D01*
X594957D01*
Y394968D01*
X587106D01*
Y388620D01*
X602808D01*
Y393648D01*
X603692D01*
X604683Y393846D01*
X605523Y394407D01*
X618247Y407131D01*
X619263Y407332D01*
X620692Y405903D01*
X622300Y405238D01*
Y410210D01*
X624840D01*
Y405238D01*
X626448Y405903D01*
X627877Y407332D01*
X628392Y408577D01*
X629589Y408818D01*
X657633Y380773D01*
X657244Y379835D01*
X646430D01*
X646430Y379835D01*
X645458Y379432D01*
X641648Y375622D01*
X641245Y374650D01*
X641245Y374650D01*
Y367599D01*
X638241Y364595D01*
X584200D01*
X584200Y364595D01*
X583228Y364192D01*
X579418Y360382D01*
X579015Y359410D01*
X579015Y359410D01*
Y351790D01*
X579015Y351790D01*
X579418Y350818D01*
X583228Y347008D01*
X584200Y346605D01*
X584200Y346605D01*
X638241D01*
X641245Y343601D01*
Y336550D01*
X641245Y336550D01*
X641648Y335578D01*
X645458Y331768D01*
X646430Y331365D01*
X646430Y331365D01*
X698500D01*
X698500Y331365D01*
X699472Y331768D01*
X703282Y335578D01*
X703685Y336550D01*
X703685Y336550D01*
Y374650D01*
X703685Y374650D01*
X703282Y375622D01*
X699472Y379432D01*
X698500Y379835D01*
X698500Y379835D01*
X669559D01*
X614847Y434547D01*
X613587Y435389D01*
X612100Y435685D01*
D02*
G37*
G36*
X267267Y391550D02*
X266800D01*
Y379630D01*
X278720D01*
Y380097D01*
X277821Y383451D01*
X276085Y386459D01*
X273629Y388915D01*
X270621Y390651D01*
X267267Y391550D01*
D02*
G37*
G36*
X216266D02*
X215800D01*
Y379630D01*
X227720D01*
Y380097D01*
X226821Y383451D01*
X225085Y386459D01*
X222629Y388915D01*
X219621Y390651D01*
X216266Y391550D01*
D02*
G37*
G36*
X264260D02*
X263794D01*
X260439Y390651D01*
X257431Y388915D01*
X254975Y386459D01*
X253239Y383451D01*
X252340Y380097D01*
Y379630D01*
X264260D01*
Y391550D01*
D02*
G37*
G36*
X213260D02*
X212794D01*
X209439Y390651D01*
X206431Y388915D01*
X203975Y386459D01*
X202239Y383451D01*
X201340Y380097D01*
Y379630D01*
X213260D01*
Y391550D01*
D02*
G37*
G36*
X114300Y369463D02*
Y365760D01*
X118003D01*
X117337Y367368D01*
X115908Y368797D01*
X114300Y369463D01*
D02*
G37*
G36*
X111760D02*
X110152Y368797D01*
X108723Y367368D01*
X108057Y365760D01*
X111760D01*
Y369463D01*
D02*
G37*
G36*
X278720Y377090D02*
X266800D01*
Y365170D01*
X267267D01*
X270621Y366069D01*
X273629Y367805D01*
X276085Y370261D01*
X277821Y373269D01*
X278720Y376623D01*
Y377090D01*
D02*
G37*
G36*
X264260D02*
X252340D01*
Y376623D01*
X253239Y373269D01*
X254975Y370261D01*
X257431Y367805D01*
X260439Y366069D01*
X263794Y365170D01*
X264260D01*
Y377090D01*
D02*
G37*
G36*
X227720D02*
X215800D01*
Y365170D01*
X216266D01*
X219621Y366069D01*
X222629Y367805D01*
X225085Y370261D01*
X226821Y373269D01*
X227720Y376623D01*
Y377090D01*
D02*
G37*
G36*
X213260D02*
X201340D01*
Y376623D01*
X202239Y373269D01*
X203975Y370261D01*
X206431Y367805D01*
X209439Y366069D01*
X212794Y365170D01*
X213260D01*
Y377090D01*
D02*
G37*
G36*
X118003Y363220D02*
X114300D01*
Y359518D01*
X115908Y360183D01*
X117337Y361612D01*
X118003Y363220D01*
D02*
G37*
G36*
X111760D02*
X108057D01*
X108723Y361612D01*
X110152Y360183D01*
X111760Y359518D01*
Y363220D01*
D02*
G37*
G36*
X224790Y359302D02*
Y355600D01*
X228493D01*
X227827Y357208D01*
X226398Y358637D01*
X224790Y359302D01*
D02*
G37*
G36*
X569507Y358652D02*
X564237D01*
Y352382D01*
X569507D01*
Y358652D01*
D02*
G37*
G36*
X228493Y353060D02*
X224790D01*
Y349357D01*
X226398Y350023D01*
X227827Y351452D01*
X228493Y353060D01*
D02*
G37*
G36*
X615950Y344062D02*
Y340360D01*
X619652D01*
X618987Y341968D01*
X617558Y343397D01*
X615950Y344062D01*
D02*
G37*
G36*
X613410D02*
X611802Y343397D01*
X610373Y341968D01*
X609707Y340360D01*
X613410D01*
Y344062D01*
D02*
G37*
G36*
X530860Y342793D02*
Y339090D01*
X534562D01*
X533897Y340698D01*
X532468Y342127D01*
X530860Y342793D01*
D02*
G37*
G36*
X528320D02*
X526712Y342127D01*
X525283Y340698D01*
X524618Y339090D01*
X528320D01*
Y342793D01*
D02*
G37*
G36*
X619652Y337820D02*
X615950D01*
Y334118D01*
X617558Y334783D01*
X618987Y336212D01*
X619652Y337820D01*
D02*
G37*
G36*
X613410D02*
X609707D01*
X610373Y336212D01*
X611802Y334783D01*
X613410Y334118D01*
Y337820D01*
D02*
G37*
G36*
X511810Y337713D02*
Y334010D01*
X515513D01*
X514847Y335618D01*
X513418Y337047D01*
X511810Y337713D01*
D02*
G37*
G36*
X509270D02*
X507662Y337047D01*
X506233Y335618D01*
X505568Y334010D01*
X509270D01*
Y337713D01*
D02*
G37*
G36*
X534562Y336550D02*
X530860D01*
Y332848D01*
X532468Y333513D01*
X533897Y334942D01*
X534562Y336550D01*
D02*
G37*
G36*
X528320D02*
X524618D01*
X525283Y334942D01*
X526712Y333513D01*
X528320Y332848D01*
Y336550D01*
D02*
G37*
G36*
X131568Y332740D02*
X130052D01*
X128652Y332160D01*
X127580Y331088D01*
X127000Y329688D01*
Y328172D01*
X127580Y326772D01*
X128652Y325700D01*
X130052Y325120D01*
X131568D01*
X132968Y325700D01*
X134040Y326772D01*
X134620Y328172D01*
Y329688D01*
X134040Y331088D01*
X132968Y332160D01*
X131568Y332740D01*
D02*
G37*
G36*
X87630Y328823D02*
Y325120D01*
X91333D01*
X90667Y326728D01*
X89238Y328157D01*
X87630Y328823D01*
D02*
G37*
G36*
X85090D02*
X83482Y328157D01*
X82053Y326728D01*
X81388Y325120D01*
X85090D01*
Y328823D01*
D02*
G37*
G36*
X112518Y330200D02*
X111002D01*
X109602Y329620D01*
X108530Y328548D01*
X107950Y327148D01*
Y325632D01*
X108530Y324232D01*
X109602Y323160D01*
X111002Y322580D01*
X112518D01*
X113918Y323160D01*
X114990Y324232D01*
X115570Y325632D01*
Y327148D01*
X114990Y328548D01*
X113918Y329620D01*
X112518Y330200D01*
D02*
G37*
G36*
X393985Y357535D02*
X393610Y357461D01*
X393228D01*
X392874Y357314D01*
X392499Y357239D01*
X392181Y357027D01*
X391827Y356880D01*
X391557Y356610D01*
X391239Y356397D01*
X391026Y356079D01*
X390756Y355809D01*
X390609Y355455D01*
X390397Y355137D01*
X390322Y354762D01*
X390176Y354408D01*
Y354026D01*
X390101Y353651D01*
X390139Y353458D01*
Y348167D01*
X381197D01*
Y322513D01*
X406851D01*
Y348167D01*
X397909D01*
Y353612D01*
X397795Y354180D01*
Y354408D01*
X397708Y354619D01*
X397613Y355099D01*
X397341Y355505D01*
X397215Y355809D01*
X396983Y356041D01*
X396771Y356359D01*
X396732Y356397D01*
X396414Y356610D01*
X396144Y356880D01*
X395790Y357027D01*
X395472Y357239D01*
X395097Y357314D01*
X394743Y357461D01*
X394361D01*
X393985Y357535D01*
D02*
G37*
G36*
X482088Y327660D02*
X480572D01*
X479172Y327080D01*
X478100Y326008D01*
X477520Y324608D01*
Y323092D01*
X478100Y321692D01*
X479172Y320620D01*
X480572Y320040D01*
X482088D01*
X483488Y320620D01*
X484560Y321692D01*
X485140Y323092D01*
Y324608D01*
X484560Y326008D01*
X483488Y327080D01*
X482088Y327660D01*
D02*
G37*
G36*
X91333Y322580D02*
X87630D01*
Y318878D01*
X89238Y319543D01*
X90667Y320972D01*
X91333Y322580D01*
D02*
G37*
G36*
X85090D02*
X81388D01*
X82053Y320972D01*
X83482Y319543D01*
X85090Y318878D01*
Y322580D01*
D02*
G37*
G36*
X577743Y317500D02*
X574040D01*
Y313797D01*
X575648Y314463D01*
X577077Y315892D01*
X577743Y317500D01*
D02*
G37*
G36*
X461768Y314960D02*
X460252D01*
X458852Y314380D01*
X457780Y313308D01*
X457200Y311908D01*
Y310392D01*
X457780Y308992D01*
X458852Y307920D01*
X460252Y307340D01*
X461768D01*
X463168Y307920D01*
X464240Y308992D01*
X464820Y310392D01*
Y311908D01*
X464240Y313308D01*
X463168Y314380D01*
X461768Y314960D01*
D02*
G37*
G36*
X690951Y314620D02*
X688049D01*
X685246Y313869D01*
X682734Y312418D01*
X680682Y310366D01*
X679231Y307854D01*
X678480Y305051D01*
Y302149D01*
X679231Y299346D01*
X680682Y296834D01*
X682734Y294782D01*
X685246Y293331D01*
X688049Y292580D01*
X690951D01*
X693754Y293331D01*
X696266Y294782D01*
X698318Y296834D01*
X699769Y299346D01*
X700520Y302149D01*
Y305051D01*
X699769Y307854D01*
X698318Y310366D01*
X696266Y312418D01*
X693754Y313869D01*
X690951Y314620D01*
D02*
G37*
G36*
X408940Y306145D02*
X408565Y306070D01*
X408182D01*
X407829Y305924D01*
X407719Y305902D01*
X403477D01*
X401990Y305606D01*
X400730Y304764D01*
X395564Y299598D01*
X388307D01*
X387555Y299448D01*
X386918Y299022D01*
X386492Y298385D01*
X386342Y297633D01*
Y291647D01*
X386492Y290895D01*
X386918Y290258D01*
X387555Y289832D01*
X388307Y289682D01*
X399093D01*
X399845Y289832D01*
X400482Y290258D01*
X400908Y290895D01*
X401058Y291647D01*
Y294104D01*
X405086Y298132D01*
X408697D01*
X410184Y298428D01*
X411062Y299015D01*
X411098Y299030D01*
X411126Y299058D01*
X411444Y299270D01*
X411687Y299513D01*
X411899Y299831D01*
X412170Y300102D01*
X412316Y300455D01*
X412529Y300773D01*
X412604Y301149D01*
X412750Y301502D01*
Y301885D01*
X412825Y302260D01*
X412750Y302635D01*
Y303018D01*
X412604Y303371D01*
X412529Y303747D01*
X412316Y304065D01*
X412170Y304418D01*
X411899Y304689D01*
X411687Y305007D01*
X411369Y305219D01*
X411098Y305490D01*
X410745Y305636D01*
X410427Y305849D01*
X410051Y305924D01*
X409698Y306070D01*
X409315D01*
X408940Y306145D01*
D02*
G37*
G36*
X311908Y295910D02*
X310392D01*
X308992Y295330D01*
X307920Y294258D01*
X307340Y292858D01*
Y291342D01*
X307920Y289942D01*
X308992Y288870D01*
X310392Y288290D01*
X311908D01*
X313308Y288870D01*
X314380Y289942D01*
X314960Y291342D01*
Y292858D01*
X314380Y294258D01*
X313308Y295330D01*
X311908Y295910D01*
D02*
G37*
G36*
X133090Y305470D02*
X107150D01*
Y287930D01*
X133090D01*
Y305470D01*
D02*
G37*
G36*
X619999Y283441D02*
X613410D01*
Y276860D01*
X619999D01*
Y283441D01*
D02*
G37*
G36*
X610870D02*
X604282D01*
Y276860D01*
X610870D01*
Y283441D01*
D02*
G37*
G36*
X246452Y282381D02*
X239864D01*
Y275800D01*
X246452D01*
Y282381D01*
D02*
G37*
G36*
X237324D02*
X230735D01*
Y275800D01*
X237324D01*
Y282381D01*
D02*
G37*
G36*
X115058Y283210D02*
X113542D01*
X112142Y282630D01*
X111070Y281558D01*
X110490Y280158D01*
Y278642D01*
X111070Y277242D01*
X112142Y276170D01*
X113542Y275590D01*
X115058D01*
X116458Y276170D01*
X117530Y277242D01*
X118110Y278642D01*
Y280158D01*
X117530Y281558D01*
X116458Y282630D01*
X115058Y283210D01*
D02*
G37*
G36*
X414778Y280670D02*
X413262D01*
X411862Y280090D01*
X410790Y279018D01*
X410210Y277618D01*
Y276102D01*
X410790Y274702D01*
X411862Y273630D01*
X413262Y273050D01*
X414778D01*
X416178Y273630D01*
X417250Y274702D01*
X417830Y276102D01*
Y277618D01*
X417250Y279018D01*
X416178Y280090D01*
X414778Y280670D01*
D02*
G37*
G36*
X577000Y284110D02*
X563460D01*
Y267070D01*
X577000D01*
Y272353D01*
X588964D01*
Y269009D01*
X602141D01*
Y282171D01*
X588964D01*
Y278827D01*
X577000D01*
Y284110D01*
D02*
G37*
G36*
X506724Y304426D02*
X506349Y304352D01*
X505966D01*
X505613Y304205D01*
X505238Y304131D01*
X504920Y303918D01*
X504566Y303772D01*
X504296Y303501D01*
X503977Y303289D01*
X503765Y302971D01*
X503494Y302700D01*
X503348Y302346D01*
X503135Y302028D01*
X503061Y301653D01*
X502914Y301300D01*
Y300917D01*
X502840Y300542D01*
X502845Y300513D01*
Y292241D01*
X497370D01*
X496153Y291999D01*
X495121Y291309D01*
X494431Y290277D01*
X494189Y289060D01*
Y271260D01*
X494431Y270043D01*
X495121Y269011D01*
X496153Y268321D01*
X497370Y268079D01*
X508470D01*
X509687Y268321D01*
X510719Y269011D01*
X511409Y270043D01*
X511651Y271260D01*
Y289060D01*
X511409Y290277D01*
X510719Y291309D01*
X510615Y291379D01*
Y300536D01*
X510534Y300940D01*
Y301300D01*
X510397Y301632D01*
X510319Y302023D01*
X510098Y302354D01*
X509954Y302700D01*
X509689Y302965D01*
X509477Y303283D01*
X509471Y303289D01*
X509153Y303501D01*
X508882Y303772D01*
X508529Y303918D01*
X508211Y304131D01*
X507836Y304205D01*
X507482Y304352D01*
X507099D01*
X506724Y304426D01*
D02*
G37*
G36*
X619999Y274320D02*
X613410D01*
Y267739D01*
X619999D01*
Y274320D01*
D02*
G37*
G36*
X610870D02*
X604282D01*
Y267739D01*
X610870D01*
Y274320D01*
D02*
G37*
G36*
X246452Y273260D02*
X239864D01*
Y266679D01*
X246452D01*
Y273260D01*
D02*
G37*
G36*
X237324D02*
X230735D01*
Y266679D01*
X237324D01*
Y273260D01*
D02*
G37*
G36*
X425450Y267862D02*
Y264160D01*
X429152D01*
X428487Y265768D01*
X427058Y267197D01*
X425450Y267862D01*
D02*
G37*
G36*
X422910D02*
X421302Y267197D01*
X419873Y265768D01*
X419207Y264160D01*
X422910D01*
Y267862D01*
D02*
G37*
G36*
X429152Y261620D02*
X425450D01*
Y257917D01*
X427058Y258583D01*
X428487Y260012D01*
X429152Y261620D01*
D02*
G37*
G36*
X422910D02*
X419207D01*
X419873Y260012D01*
X421302Y258583D01*
X422910Y257917D01*
Y261620D01*
D02*
G37*
G36*
X327254Y285040D02*
X322140D01*
X317026D01*
Y281810D01*
X317320Y280331D01*
X317756Y279678D01*
Y264391D01*
X312488D01*
Y257810D01*
X320346D01*
X328205D01*
Y264391D01*
X322936D01*
Y277946D01*
X323390D01*
X324869Y278240D01*
X326122Y279077D01*
X326960Y280331D01*
X327254Y281810D01*
Y285040D01*
D02*
G37*
G36*
X228595Y259521D02*
X215418D01*
Y257425D01*
X206890D01*
Y258270D01*
X189350D01*
Y249730D01*
X198205D01*
X198580Y249655D01*
X215418D01*
Y246359D01*
X228595D01*
Y259521D01*
D02*
G37*
G36*
X328205Y255270D02*
X321616D01*
Y248689D01*
X328205D01*
Y255270D01*
D02*
G37*
G36*
X319076D02*
X312488D01*
Y248689D01*
X319076D01*
Y255270D01*
D02*
G37*
G36*
X473352Y238991D02*
X466764D01*
Y232410D01*
X473352D01*
Y238991D01*
D02*
G37*
G36*
X464224D02*
X457635D01*
Y232410D01*
X464224D01*
Y238991D01*
D02*
G37*
G36*
X473352Y229870D02*
X466764D01*
Y223289D01*
X473352D01*
Y229870D01*
D02*
G37*
G36*
X464224D02*
X457635D01*
Y223289D01*
X464224D01*
Y229870D01*
D02*
G37*
G36*
X208160Y204540D02*
X199390D01*
Y200270D01*
X208160D01*
Y204540D01*
D02*
G37*
G36*
Y197730D02*
X199390D01*
Y193460D01*
X208160D01*
Y197730D01*
D02*
G37*
G36*
X300990Y185312D02*
Y181610D01*
X304692D01*
X304027Y183218D01*
X302598Y184647D01*
X300990Y185312D01*
D02*
G37*
G36*
X298450D02*
X296842Y184647D01*
X295413Y183218D01*
X294748Y181610D01*
X298450D01*
Y185312D01*
D02*
G37*
G36*
X405130Y180233D02*
Y176530D01*
X408833D01*
X408167Y178138D01*
X406738Y179567D01*
X405130Y180233D01*
D02*
G37*
G36*
X402590D02*
X400982Y179567D01*
X399553Y178138D01*
X398887Y176530D01*
X402590D01*
Y180233D01*
D02*
G37*
G36*
X328930D02*
Y176530D01*
X332632D01*
X331967Y178138D01*
X330538Y179567D01*
X328930Y180233D01*
D02*
G37*
G36*
X326390D02*
X324782Y179567D01*
X323353Y178138D01*
X322687Y176530D01*
X326390D01*
Y180233D01*
D02*
G37*
G36*
X304692Y179070D02*
X300990D01*
Y175368D01*
X302598Y176033D01*
X304027Y177462D01*
X304692Y179070D01*
D02*
G37*
G36*
X298450D02*
X294748D01*
X295413Y177462D01*
X296842Y176033D01*
X298450Y175368D01*
Y179070D01*
D02*
G37*
G36*
X151888Y182880D02*
X150372D01*
X148972Y182300D01*
X147900Y181228D01*
X147320Y179828D01*
Y178312D01*
X147900Y176912D01*
X148972Y175840D01*
X150372Y175260D01*
X151888D01*
X153288Y175840D01*
X154360Y176912D01*
X154940Y178312D01*
Y179828D01*
X154360Y181228D01*
X153288Y182300D01*
X151888Y182880D01*
D02*
G37*
G36*
X366518Y179070D02*
X365002D01*
X363602Y178490D01*
X362530Y177418D01*
X361950Y176018D01*
Y174502D01*
X362530Y173102D01*
X363602Y172030D01*
X365002Y171450D01*
X366518D01*
X367918Y172030D01*
X368990Y173102D01*
X369570Y174502D01*
Y176018D01*
X368990Y177418D01*
X367918Y178490D01*
X366518Y179070D01*
D02*
G37*
G36*
X408833Y173990D02*
X405130D01*
Y170287D01*
X406738Y170953D01*
X408167Y172382D01*
X408833Y173990D01*
D02*
G37*
G36*
X402590D02*
X398887D01*
X399553Y172382D01*
X400982Y170953D01*
X402590Y170287D01*
Y173990D01*
D02*
G37*
G36*
X326390D02*
X322687D01*
X323353Y172382D01*
X324782Y170953D01*
X326390Y170287D01*
Y173990D01*
D02*
G37*
G36*
X633730Y170072D02*
Y166370D01*
X637433D01*
X636767Y167978D01*
X635338Y169407D01*
X633730Y170072D01*
D02*
G37*
G36*
X631190D02*
X629582Y169407D01*
X628153Y167978D01*
X627487Y166370D01*
X631190D01*
Y170072D01*
D02*
G37*
G36*
X414020Y168803D02*
Y165100D01*
X417723D01*
X417057Y166708D01*
X415628Y168137D01*
X414020Y168803D01*
D02*
G37*
G36*
X411480D02*
X409872Y168137D01*
X408443Y166708D01*
X407777Y165100D01*
X411480D01*
Y168803D01*
D02*
G37*
G36*
X167640Y164993D02*
X166032Y164327D01*
X164603Y162898D01*
X163937Y161290D01*
X167640D01*
Y164993D01*
D02*
G37*
G36*
X637433Y163830D02*
X633730D01*
Y160128D01*
X635338Y160793D01*
X636767Y162222D01*
X637433Y163830D01*
D02*
G37*
G36*
X631190D02*
X627487D01*
X628153Y162222D01*
X629582Y160793D01*
X631190Y160128D01*
Y163830D01*
D02*
G37*
G36*
X173883Y158750D02*
X170180D01*
Y155048D01*
X171788Y155713D01*
X173217Y157142D01*
X173883Y158750D01*
D02*
G37*
G36*
X167640D02*
X163937D01*
X164603Y157142D01*
X166032Y155713D01*
X167640Y155048D01*
Y158750D01*
D02*
G37*
G36*
X450338Y161290D02*
X448822D01*
X447422Y160710D01*
X446350Y159638D01*
X445770Y158238D01*
Y156722D01*
X446350Y155322D01*
X447422Y154250D01*
X448822Y153670D01*
X450338D01*
X451738Y154250D01*
X452810Y155322D01*
X453390Y156722D01*
Y158238D01*
X452810Y159638D01*
X451738Y160710D01*
X450338Y161290D01*
D02*
G37*
G36*
X691118Y163490D02*
X690770D01*
Y152470D01*
X701790D01*
Y152818D01*
X700952Y155944D01*
X699334Y158746D01*
X697046Y161035D01*
X694244Y162652D01*
X691118Y163490D01*
D02*
G37*
G36*
X688230D02*
X687882D01*
X684756Y162652D01*
X681954Y161035D01*
X679666Y158746D01*
X678047Y155944D01*
X677210Y152818D01*
Y152470D01*
X688230D01*
Y163490D01*
D02*
G37*
G36*
X417723Y162560D02*
X407777D01*
X407834Y162425D01*
X407577Y162041D01*
X407380Y161050D01*
Y160020D01*
X399200D01*
Y152000D01*
X413780D01*
Y158758D01*
X415628Y159523D01*
X417057Y160952D01*
X417723Y162560D01*
D02*
G37*
G36*
X178558Y157480D02*
X177042D01*
X175642Y156900D01*
X174570Y155828D01*
X173990Y154428D01*
Y152912D01*
X174570Y151512D01*
X175642Y150440D01*
X177042Y149860D01*
X178558D01*
X179958Y150440D01*
X181030Y151512D01*
X181610Y152912D01*
Y154428D01*
X181030Y155828D01*
X179958Y156900D01*
X178558Y157480D01*
D02*
G37*
G36*
X99060Y152292D02*
Y148590D01*
X102762D01*
X102097Y150198D01*
X100668Y151627D01*
X99060Y152292D01*
D02*
G37*
G36*
X96520D02*
X94912Y151627D01*
X93483Y150198D01*
X92817Y148590D01*
X96520D01*
Y152292D01*
D02*
G37*
G36*
X189988Y154940D02*
X188472D01*
X187072Y154360D01*
X186000Y153288D01*
X185420Y151888D01*
Y150372D01*
X186000Y148972D01*
X187072Y147900D01*
X188472Y147320D01*
X189988D01*
X191388Y147900D01*
X192460Y148972D01*
X193040Y150372D01*
Y151888D01*
X192460Y153288D01*
X191388Y154360D01*
X189988Y154940D01*
D02*
G37*
G36*
X201418Y153670D02*
X199902D01*
X198502Y153090D01*
X197430Y152018D01*
X196850Y150618D01*
Y149102D01*
X197430Y147702D01*
X198502Y146630D01*
X199902Y146050D01*
X201418D01*
X202818Y146630D01*
X203890Y147702D01*
X204470Y149102D01*
Y150618D01*
X203890Y152018D01*
X202818Y153090D01*
X201418Y153670D01*
D02*
G37*
G36*
X234438Y152400D02*
X232922D01*
X231522Y151820D01*
X230450Y150748D01*
X229870Y149348D01*
Y147832D01*
X230450Y146432D01*
X231522Y145360D01*
X232922Y144780D01*
X234438D01*
X235838Y145360D01*
X236910Y146432D01*
X237490Y147832D01*
Y149348D01*
X236910Y150748D01*
X235838Y151820D01*
X234438Y152400D01*
D02*
G37*
G36*
X102762Y146050D02*
X99060D01*
Y142347D01*
X100668Y143013D01*
X102097Y144442D01*
X102762Y146050D01*
D02*
G37*
G36*
X96520D02*
X92817D01*
X93483Y144442D01*
X94912Y143013D01*
X96520Y142347D01*
Y146050D01*
D02*
G37*
G36*
X643770Y142767D02*
Y139065D01*
X647473D01*
X646807Y140673D01*
X645378Y142102D01*
X643770Y142767D01*
D02*
G37*
G36*
X641230D02*
X639622Y142102D01*
X638193Y140673D01*
X637528Y139065D01*
X641230D01*
Y142767D01*
D02*
G37*
G36*
X701790Y149930D02*
X690770D01*
Y138910D01*
X691118D01*
X694244Y139747D01*
X697046Y141366D01*
X699334Y143654D01*
X700952Y146456D01*
X701790Y149582D01*
Y149930D01*
D02*
G37*
G36*
X688230D02*
X677210D01*
Y149582D01*
X678047Y146456D01*
X679666Y143654D01*
X681954Y141366D01*
X684756Y139747D01*
X687882Y138910D01*
X688230D01*
Y149930D01*
D02*
G37*
G36*
X551180Y140863D02*
X549572Y140197D01*
X548143Y138768D01*
X547477Y137160D01*
X551180D01*
Y140863D01*
D02*
G37*
G36*
X577338Y143510D02*
X575822D01*
X574422Y142930D01*
X573350Y141858D01*
X572770Y140458D01*
Y138942D01*
X573350Y137542D01*
X574422Y136470D01*
X575822Y135890D01*
X577338D01*
X578738Y136470D01*
X579810Y137542D01*
X580390Y138942D01*
Y140458D01*
X579810Y141858D01*
X578738Y142930D01*
X577338Y143510D01*
D02*
G37*
G36*
X609208Y142875D02*
X607692D01*
X606292Y142295D01*
X605220Y141223D01*
X604640Y139823D01*
Y138307D01*
X605220Y136907D01*
X606292Y135835D01*
X607692Y135255D01*
X609208D01*
X610608Y135835D01*
X611680Y136907D01*
X612260Y138307D01*
Y139823D01*
X611680Y141223D01*
X610608Y142295D01*
X609208Y142875D01*
D02*
G37*
G36*
X647473Y136525D02*
X643770D01*
Y132823D01*
X645378Y133488D01*
X646807Y134917D01*
X647473Y136525D01*
D02*
G37*
G36*
X641230D02*
X637528D01*
X638193Y134917D01*
X639622Y133488D01*
X641230Y132823D01*
Y136525D01*
D02*
G37*
G36*
X557422Y134620D02*
X553720D01*
Y130918D01*
X555328Y131583D01*
X556757Y133012D01*
X557422Y134620D01*
D02*
G37*
G36*
X551180D02*
X547477D01*
X548143Y133012D01*
X549572Y131583D01*
X551180Y130918D01*
Y134620D01*
D02*
G37*
G36*
X70930Y313875D02*
X10930D01*
X9958Y313472D01*
X9555Y312500D01*
Y132500D01*
X9958Y131528D01*
X10930Y131125D01*
X64194D01*
X64583Y130187D01*
X64273Y129878D01*
X63608Y128270D01*
X73552D01*
X72887Y129878D01*
X72209Y130555D01*
X71902Y131528D01*
X72305Y132500D01*
Y312500D01*
X71902Y313472D01*
X70930Y313875D01*
D02*
G37*
G36*
X73552Y125730D02*
X69850D01*
Y122028D01*
X71458Y122693D01*
X72887Y124122D01*
X73552Y125730D01*
D02*
G37*
G36*
X67310D02*
X63608D01*
X64273Y124122D01*
X65702Y122693D01*
X67310Y122028D01*
Y125730D01*
D02*
G37*
G36*
X577338Y129540D02*
X575822D01*
X574422Y128960D01*
X573350Y127888D01*
X572770Y126488D01*
Y124972D01*
X573350Y123572D01*
X574422Y122500D01*
X575822Y121920D01*
X577338D01*
X578738Y122500D01*
X579810Y123572D01*
X580390Y124972D01*
Y126488D01*
X579810Y127888D01*
X578738Y128960D01*
X577338Y129540D01*
D02*
G37*
G36*
X99818Y124460D02*
X98302D01*
X96902Y123880D01*
X95830Y122808D01*
X95250Y121408D01*
Y119892D01*
X95830Y118492D01*
X96902Y117420D01*
X98302Y116840D01*
X99818D01*
X101218Y117420D01*
X102290Y118492D01*
X102870Y119892D01*
Y121408D01*
X102290Y122808D01*
X101218Y123880D01*
X99818Y124460D01*
D02*
G37*
G36*
X633730Y115463D02*
Y111760D01*
X637433D01*
X636767Y113368D01*
X635338Y114797D01*
X633730Y115463D01*
D02*
G37*
G36*
X631190D02*
X629582Y114797D01*
X628153Y113368D01*
X627487Y111760D01*
X631190D01*
Y115463D01*
D02*
G37*
G36*
X148078Y119380D02*
X146562D01*
X145162Y118800D01*
X144090Y117728D01*
X143510Y116328D01*
Y114812D01*
X144090Y113412D01*
X145162Y112340D01*
X146562Y111760D01*
X148078D01*
X149478Y112340D01*
X150550Y113412D01*
X151130Y114812D01*
Y116328D01*
X150550Y117728D01*
X149478Y118800D01*
X148078Y119380D01*
D02*
G37*
G36*
X17780Y115463D02*
Y111760D01*
X21483D01*
X20817Y113368D01*
X19388Y114797D01*
X17780Y115463D01*
D02*
G37*
G36*
X15240D02*
X13632Y114797D01*
X12203Y113368D01*
X11537Y111760D01*
X15240D01*
Y115463D01*
D02*
G37*
G36*
X72390Y110382D02*
Y106680D01*
X76093D01*
X75427Y108288D01*
X73998Y109717D01*
X72390Y110382D01*
D02*
G37*
G36*
X69850D02*
X68242Y109717D01*
X66813Y108288D01*
X66147Y106680D01*
X69850D01*
Y110382D01*
D02*
G37*
G36*
X637433Y109220D02*
X633730D01*
Y105518D01*
X635338Y106183D01*
X636767Y107612D01*
X637433Y109220D01*
D02*
G37*
G36*
X631190D02*
X627487D01*
X628153Y107612D01*
X629582Y106183D01*
X631190Y105518D01*
Y109220D01*
D02*
G37*
G36*
X21483D02*
X17780D01*
Y105518D01*
X19388Y106183D01*
X20817Y107612D01*
X21483Y109220D01*
D02*
G37*
G36*
X15240D02*
X11537D01*
X12203Y107612D01*
X13632Y106183D01*
X15240Y105518D01*
Y109220D01*
D02*
G37*
G36*
X76093Y104140D02*
X72390D01*
Y100437D01*
X73998Y101103D01*
X75427Y102532D01*
X76093Y104140D01*
D02*
G37*
G36*
X69850D02*
X66147D01*
X66813Y102532D01*
X68242Y101103D01*
X69850Y100437D01*
Y104140D01*
D02*
G37*
G36*
X633730Y104032D02*
Y100330D01*
X637433D01*
X636767Y101938D01*
X635338Y103367D01*
X633730Y104032D01*
D02*
G37*
G36*
X631190D02*
X629582Y103367D01*
X628153Y101938D01*
X627487Y100330D01*
X631190D01*
Y104032D01*
D02*
G37*
G36*
X611628Y107950D02*
X610112D01*
X608712Y107370D01*
X607640Y106298D01*
X607060Y104898D01*
Y103382D01*
X607640Y101982D01*
X608712Y100910D01*
X610112Y100330D01*
X611628D01*
X613028Y100910D01*
X614100Y101982D01*
X614680Y103382D01*
Y104898D01*
X614100Y106298D01*
X613028Y107370D01*
X611628Y107950D01*
D02*
G37*
G36*
X637433Y97790D02*
X633730D01*
Y94087D01*
X635338Y94753D01*
X636767Y96182D01*
X637433Y97790D01*
D02*
G37*
G36*
X631190D02*
X627487D01*
X628153Y96182D01*
X629582Y94753D01*
X631190Y94087D01*
Y97790D01*
D02*
G37*
G36*
X700520Y111420D02*
X678480D01*
Y89380D01*
X700520D01*
Y111420D01*
D02*
G37*
G36*
X629649Y93257D02*
X623061D01*
Y86676D01*
X629649D01*
Y93257D01*
D02*
G37*
G36*
X620521D02*
X613932D01*
Y86676D01*
X620521D01*
Y93257D01*
D02*
G37*
G36*
X420262Y86360D02*
X416560D01*
Y82657D01*
X418168Y83323D01*
X419597Y84752D01*
X420262Y86360D01*
D02*
G37*
G36*
X72390Y84983D02*
Y81280D01*
X76093D01*
X75427Y82888D01*
X73998Y84317D01*
X72390Y84983D01*
D02*
G37*
G36*
X69850D02*
X68242Y84317D01*
X66813Y82888D01*
X66147Y81280D01*
X69850D01*
Y84983D01*
D02*
G37*
G36*
X323850Y86480D02*
X315830D01*
Y80460D01*
X323850D01*
Y86480D01*
D02*
G37*
G36*
X511302Y117872D02*
X500202D01*
X498985Y117630D01*
X497953Y116940D01*
X497263Y115908D01*
X497021Y114691D01*
Y96891D01*
X497263Y95674D01*
X497953Y94642D01*
X498826Y94058D01*
Y89030D01*
X496363Y86567D01*
X496151Y86249D01*
X495880Y85978D01*
X495734Y85625D01*
X495521Y85307D01*
X495446Y84931D01*
X495300Y84578D01*
Y84195D01*
X495225Y83820D01*
X495300Y83445D01*
Y83062D01*
X495446Y82709D01*
X495521Y82333D01*
X495734Y82015D01*
X495880Y81662D01*
X496151Y81391D01*
X496363Y81073D01*
X496681Y80861D01*
X496952Y80590D01*
X497305Y80444D01*
X497623Y80231D01*
X497999Y80156D01*
X498352Y80010D01*
X498735D01*
X499110Y79935D01*
X499485Y80010D01*
X499868D01*
X500221Y80156D01*
X500597Y80231D01*
X500915Y80444D01*
X501268Y80590D01*
X501539Y80861D01*
X501857Y81073D01*
X505458Y84674D01*
X506300Y85934D01*
X506596Y87421D01*
Y93710D01*
X511302D01*
X512519Y93952D01*
X513551Y94642D01*
X514241Y95674D01*
X514483Y96891D01*
Y114691D01*
X514241Y115908D01*
X513551Y116940D01*
X512519Y117630D01*
X511302Y117872D01*
D02*
G37*
G36*
X583657Y95196D02*
X570117D01*
Y78156D01*
X583657D01*
Y82169D01*
X598615D01*
Y78825D01*
X611792D01*
Y91987D01*
X598615D01*
Y88643D01*
X583657D01*
Y95196D01*
D02*
G37*
G36*
X629649Y84136D02*
X623061D01*
Y77555D01*
X629649D01*
Y84136D01*
D02*
G37*
G36*
X620521D02*
X613932D01*
Y77555D01*
X620521D01*
Y84136D01*
D02*
G37*
G36*
X201418Y85090D02*
X199902D01*
X198502Y84510D01*
X197430Y83438D01*
X196850Y82038D01*
Y80522D01*
X197430Y79122D01*
X198502Y78050D01*
X199902Y77470D01*
X201418D01*
X202818Y78050D01*
X203890Y79122D01*
X204470Y80522D01*
Y82038D01*
X203890Y83438D01*
X202818Y84510D01*
X201418Y85090D01*
D02*
G37*
G36*
X76093Y78740D02*
X72390D01*
Y75037D01*
X73998Y75703D01*
X75427Y77132D01*
X76093Y78740D01*
D02*
G37*
G36*
X69850D02*
X66147D01*
X66813Y77132D01*
X68242Y75703D01*
X69850Y75037D01*
Y78740D01*
D02*
G37*
G36*
X643890Y77362D02*
Y73660D01*
X647592D01*
X646927Y75268D01*
X645498Y76697D01*
X643890Y77362D01*
D02*
G37*
G36*
X641350D02*
X639742Y76697D01*
X638313Y75268D01*
X637648Y73660D01*
X641350D01*
Y77362D01*
D02*
G37*
G36*
X294640D02*
Y73660D01*
X298342D01*
X297677Y75268D01*
X296248Y76697D01*
X294640Y77362D01*
D02*
G37*
G36*
X292100D02*
X290492Y76697D01*
X289063Y75268D01*
X288398Y73660D01*
X292100D01*
Y77362D01*
D02*
G37*
G36*
X408488Y74667D02*
X404785D01*
Y70964D01*
X406393Y71630D01*
X407822Y73059D01*
X408488Y74667D01*
D02*
G37*
G36*
X402245D02*
X398543D01*
X399209Y73059D01*
X400638Y71630D01*
X402245Y70964D01*
Y74667D01*
D02*
G37*
G36*
X608148Y75565D02*
X606632D01*
X605232Y74985D01*
X604160Y73913D01*
X603580Y72513D01*
Y70997D01*
X604160Y69597D01*
X605232Y68525D01*
X606632Y67945D01*
X608148D01*
X609548Y68525D01*
X610620Y69597D01*
X611200Y70997D01*
Y72513D01*
X610620Y73913D01*
X609548Y74985D01*
X608148Y75565D01*
D02*
G37*
G36*
X298342Y71120D02*
X294640D01*
Y67417D01*
X296248Y68083D01*
X297677Y69512D01*
X298342Y71120D01*
D02*
G37*
G36*
X292100D02*
X288398D01*
X289063Y69512D01*
X290492Y68083D01*
X292100Y67417D01*
Y71120D01*
D02*
G37*
G36*
X647592D02*
X643890D01*
Y67417D01*
X645498Y68083D01*
X646927Y69512D01*
X647592Y71120D01*
D02*
G37*
G36*
X641350D02*
X637648D01*
X638313Y69512D01*
X639742Y68083D01*
X641350Y67417D01*
Y71120D01*
D02*
G37*
G36*
X581148Y72390D02*
X579632D01*
X578232Y71810D01*
X577160Y70738D01*
X576580Y69338D01*
Y67822D01*
X577160Y66422D01*
X578232Y65350D01*
X579632Y64770D01*
X581148D01*
X582548Y65350D01*
X583620Y66422D01*
X584200Y67822D01*
Y69338D01*
X583620Y70738D01*
X582548Y71810D01*
X581148Y72390D01*
D02*
G37*
G36*
X572258D02*
X570742D01*
X569342Y71810D01*
X568270Y70738D01*
X567690Y69338D01*
Y67822D01*
X568270Y66422D01*
X569342Y65350D01*
X570742Y64770D01*
X572258D01*
X573658Y65350D01*
X574730Y66422D01*
X575310Y67822D01*
Y69338D01*
X574730Y70738D01*
X573658Y71810D01*
X572258Y72390D01*
D02*
G37*
G36*
X563368D02*
X561852D01*
X560452Y71810D01*
X559380Y70738D01*
X558800Y69338D01*
Y67822D01*
X559380Y66422D01*
X560452Y65350D01*
X561852Y64770D01*
X563368D01*
X564768Y65350D01*
X565840Y66422D01*
X566420Y67822D01*
Y69338D01*
X565840Y70738D01*
X564768Y71810D01*
X563368Y72390D01*
D02*
G37*
G36*
X259080Y74454D02*
Y63290D01*
X264911D01*
Y67520D01*
X264669Y69358D01*
X263959Y71070D01*
X262831Y72541D01*
X261360Y73669D01*
X259648Y74379D01*
X259080Y74454D01*
D02*
G37*
G36*
X172580D02*
Y63290D01*
X178411D01*
Y67520D01*
X178169Y69358D01*
X177459Y71070D01*
X176331Y72541D01*
X174860Y73669D01*
X173148Y74379D01*
X172580Y74454D01*
D02*
G37*
G36*
X256540D02*
X255972Y74379D01*
X254260Y73669D01*
X252789Y72541D01*
X251661Y71070D01*
X250951Y69358D01*
X250709Y67520D01*
Y63290D01*
X256540D01*
Y74454D01*
D02*
G37*
G36*
X170040D02*
X169472Y74379D01*
X167760Y73669D01*
X166289Y72541D01*
X165161Y71070D01*
X164451Y69358D01*
X164209Y67520D01*
Y63290D01*
X170040D01*
Y74454D01*
D02*
G37*
G36*
X312420Y64662D02*
Y60960D01*
X316122D01*
X315457Y62568D01*
X314028Y63997D01*
X312420Y64662D01*
D02*
G37*
G36*
X309880D02*
X308272Y63997D01*
X306843Y62568D01*
X306178Y60960D01*
X309880D01*
Y64662D01*
D02*
G37*
G36*
X316122Y58420D02*
X312420D01*
Y54717D01*
X314028Y55383D01*
X315457Y56812D01*
X316122Y58420D01*
D02*
G37*
G36*
X309880D02*
X306178D01*
X306843Y56812D01*
X308272Y55383D01*
X309880Y54717D01*
Y58420D01*
D02*
G37*
G36*
X244309Y61390D02*
X242611D01*
X241041Y60740D01*
X239840Y59539D01*
X239190Y57969D01*
Y56271D01*
X239840Y54701D01*
X241041Y53500D01*
X242611Y52850D01*
X244309D01*
X245879Y53500D01*
X247080Y54701D01*
X247730Y56271D01*
Y57969D01*
X247080Y59539D01*
X245879Y60740D01*
X244309Y61390D01*
D02*
G37*
G36*
X186509D02*
X184811D01*
X183241Y60740D01*
X182040Y59539D01*
X181390Y57969D01*
Y56271D01*
X182040Y54701D01*
X183241Y53500D01*
X184811Y52850D01*
X186509D01*
X188079Y53500D01*
X189280Y54701D01*
X189930Y56271D01*
Y57969D01*
X189280Y59539D01*
X188079Y60740D01*
X186509Y61390D01*
D02*
G37*
G36*
X264911Y60750D02*
X259080D01*
Y49586D01*
X259648Y49661D01*
X261360Y50371D01*
X262831Y51499D01*
X263959Y52970D01*
X264669Y54682D01*
X264911Y56520D01*
Y60750D01*
D02*
G37*
G36*
X178411D02*
X172580D01*
Y49586D01*
X173148Y49661D01*
X174860Y50371D01*
X176331Y51499D01*
X177459Y52970D01*
X178169Y54682D01*
X178411Y56520D01*
Y60750D01*
D02*
G37*
G36*
X256540D02*
X250709D01*
Y56520D01*
X250951Y54682D01*
X251661Y52970D01*
X252789Y51499D01*
X254260Y50371D01*
X255972Y49661D01*
X256540Y49586D01*
Y60750D01*
D02*
G37*
G36*
X230628Y85090D02*
X229112D01*
X227712Y84510D01*
X226640Y83438D01*
X226060Y82038D01*
Y80522D01*
X226640Y79122D01*
X227280Y78482D01*
Y73463D01*
X209697Y55880D01*
X208792D01*
X207392Y55300D01*
X206320Y54228D01*
X205740Y52828D01*
Y51312D01*
X206320Y49912D01*
X207392Y48840D01*
X208792Y48260D01*
X210308D01*
X211708Y48840D01*
X212780Y49912D01*
X213360Y51312D01*
Y51477D01*
X213614Y51647D01*
X214047Y51504D01*
X214698Y51149D01*
X215210Y49912D01*
X216282Y48840D01*
X217682Y48260D01*
X219198D01*
X220598Y48840D01*
X221670Y49912D01*
X222250Y51312D01*
Y52828D01*
X221670Y54228D01*
X220598Y55300D01*
X219198Y55880D01*
X218459D01*
X218039Y56896D01*
X231701Y70559D01*
X232263Y71399D01*
X232460Y72390D01*
Y78482D01*
X233100Y79122D01*
X233680Y80522D01*
Y82038D01*
X233100Y83438D01*
X232028Y84510D01*
X230628Y85090D01*
D02*
G37*
G36*
X633730Y49422D02*
Y45720D01*
X637433D01*
X636767Y47328D01*
X635338Y48757D01*
X633730Y49422D01*
D02*
G37*
G36*
X631190D02*
X629582Y48757D01*
X628153Y47328D01*
X627487Y45720D01*
X631190D01*
Y49422D01*
D02*
G37*
G36*
X637433Y43180D02*
X633730D01*
Y39478D01*
X635338Y40143D01*
X636767Y41572D01*
X637433Y43180D01*
D02*
G37*
G36*
X631190D02*
X627487D01*
X628153Y41572D01*
X629582Y40143D01*
X631190Y39478D01*
Y43180D01*
D02*
G37*
G36*
X717168Y62540D02*
X716270D01*
Y36270D01*
X742540D01*
Y37167D01*
X741862Y41449D01*
X740522Y45572D01*
X738554Y49434D01*
X736006Y52941D01*
X732941Y56006D01*
X729434Y58554D01*
X725572Y60522D01*
X721449Y61862D01*
X717168Y62540D01*
D02*
G37*
G36*
X713730D02*
X712832D01*
X708551Y61862D01*
X704428Y60522D01*
X700566Y58554D01*
X697059Y56006D01*
X693994Y52941D01*
X691446Y49434D01*
X689478Y45572D01*
X688138Y41449D01*
X687460Y37167D01*
Y36270D01*
X713730D01*
Y62540D01*
D02*
G37*
G36*
X37167D02*
X36270D01*
Y36270D01*
X62540D01*
Y37167D01*
X61862Y41449D01*
X60522Y45572D01*
X58554Y49434D01*
X56006Y52941D01*
X52941Y56006D01*
X49434Y58554D01*
X45572Y60522D01*
X41449Y61862D01*
X37167Y62540D01*
D02*
G37*
G36*
X33730D02*
X32833D01*
X28551Y61862D01*
X24428Y60522D01*
X20566Y58554D01*
X17059Y56006D01*
X13994Y52941D01*
X11446Y49434D01*
X9478Y45572D01*
X8138Y41449D01*
X7460Y37167D01*
Y36270D01*
X33730D01*
Y62540D01*
D02*
G37*
G36*
X572258Y40640D02*
X570742D01*
X569342Y40060D01*
X568270Y38988D01*
X567690Y37588D01*
Y36072D01*
X568270Y34672D01*
X569342Y33600D01*
X570742Y33020D01*
X572258D01*
X573658Y33600D01*
X574730Y34672D01*
X575310Y36072D01*
Y37588D01*
X574730Y38988D01*
X573658Y40060D01*
X572258Y40640D01*
D02*
G37*
G36*
X300478Y36830D02*
X298962D01*
X297562Y36250D01*
X296490Y35178D01*
X295910Y33778D01*
Y32262D01*
X296490Y30862D01*
X297562Y29790D01*
X298962Y29210D01*
X300478D01*
X301878Y29790D01*
X302950Y30862D01*
X303530Y32262D01*
Y33778D01*
X302950Y35178D01*
X301878Y36250D01*
X300478Y36830D01*
D02*
G37*
G36*
X489465Y33054D02*
X487949D01*
X486549Y32474D01*
X485477Y31402D01*
X484897Y30002D01*
Y28486D01*
X485477Y27086D01*
X486549Y26014D01*
X487949Y25434D01*
X489465D01*
X490865Y26014D01*
X491937Y27086D01*
X492517Y28486D01*
Y30002D01*
X491937Y31402D01*
X490865Y32474D01*
X489465Y33054D01*
D02*
G37*
G36*
X516890Y29102D02*
Y25400D01*
X520592D01*
X519927Y27008D01*
X518498Y28437D01*
X516890Y29102D01*
D02*
G37*
G36*
X514350D02*
X512742Y28437D01*
X511313Y27008D01*
X510648Y25400D01*
X514350D01*
Y29102D01*
D02*
G37*
G36*
X596388Y31750D02*
X594872D01*
X593472Y31170D01*
X592400Y30098D01*
X591820Y28698D01*
Y27182D01*
X592400Y25782D01*
X593472Y24710D01*
X594872Y24130D01*
X596388D01*
X597788Y24710D01*
X598860Y25782D01*
X599440Y27182D01*
Y28698D01*
X598860Y30098D01*
X597788Y31170D01*
X596388Y31750D01*
D02*
G37*
G36*
X342388Y30480D02*
X340872D01*
X339472Y29900D01*
X338400Y28828D01*
X337820Y27428D01*
Y25912D01*
X338400Y24512D01*
X339472Y23440D01*
X340872Y22860D01*
X342388D01*
X343788Y23440D01*
X344860Y24512D01*
X345440Y25912D01*
Y27428D01*
X344860Y28828D01*
X343788Y29900D01*
X342388Y30480D01*
D02*
G37*
G36*
X172580Y31253D02*
Y21590D01*
X178411D01*
Y24320D01*
X178169Y26158D01*
X177459Y27870D01*
X176331Y29341D01*
X174860Y30469D01*
X173148Y31179D01*
X172580Y31253D01*
D02*
G37*
G36*
X259080D02*
Y21590D01*
X264911D01*
Y24320D01*
X264669Y26158D01*
X263959Y27870D01*
X262831Y29341D01*
X261360Y30469D01*
X259648Y31179D01*
X259080Y31253D01*
D02*
G37*
G36*
X256540D02*
X255972Y31179D01*
X254260Y30469D01*
X252789Y29341D01*
X251661Y27870D01*
X250951Y26158D01*
X250709Y24320D01*
Y21590D01*
X256540D01*
Y31253D01*
D02*
G37*
G36*
X170040D02*
X169472Y31179D01*
X167760Y30469D01*
X166289Y29341D01*
X165161Y27870D01*
X164451Y26158D01*
X164209Y24320D01*
Y21590D01*
X170040D01*
Y31253D01*
D02*
G37*
G36*
X520592Y22860D02*
X516890D01*
Y19158D01*
X518498Y19823D01*
X519927Y21252D01*
X520592Y22860D01*
D02*
G37*
G36*
X514350D02*
X510648D01*
X511313Y21252D01*
X512742Y19823D01*
X514350Y19158D01*
Y22860D01*
D02*
G37*
G36*
X294128Y26670D02*
X292612D01*
X291212Y26090D01*
X290140Y25018D01*
X289560Y23618D01*
Y22102D01*
X290140Y20702D01*
X291212Y19630D01*
X292612Y19050D01*
X294128D01*
X295528Y19630D01*
X296600Y20702D01*
X297180Y22102D01*
Y23618D01*
X296600Y25018D01*
X295528Y26090D01*
X294128Y26670D01*
D02*
G37*
G36*
X87118Y167640D02*
X85602D01*
X84202Y167060D01*
X83130Y165988D01*
X82550Y164588D01*
Y163072D01*
X83123Y161689D01*
Y108300D01*
X83369Y107061D01*
X84071Y106011D01*
X98363Y91719D01*
Y60743D01*
X96771Y59151D01*
X96069Y58101D01*
X95823Y56862D01*
Y25001D01*
X95250Y23618D01*
Y22102D01*
X95830Y20702D01*
X96902Y19630D01*
X98302Y19050D01*
X99818D01*
X101218Y19630D01*
X102290Y20702D01*
X102870Y22102D01*
Y23618D01*
X102297Y25001D01*
Y55521D01*
X103889Y57113D01*
X104591Y58163D01*
X104837Y59402D01*
Y93060D01*
X104591Y94298D01*
X103889Y95349D01*
X89597Y109641D01*
Y161689D01*
X90170Y163072D01*
Y164588D01*
X89590Y165988D01*
X88518Y167060D01*
X87118Y167640D01*
D02*
G37*
G36*
X610373Y18966D02*
Y15264D01*
X614076D01*
X613410Y16871D01*
X611981Y18300D01*
X610373Y18966D01*
D02*
G37*
G36*
X607833D02*
X606226Y18300D01*
X604796Y16871D01*
X604131Y15264D01*
X607833D01*
Y18966D01*
D02*
G37*
G36*
X537210Y15132D02*
Y11430D01*
X540913D01*
X540247Y13038D01*
X538818Y14467D01*
X537210Y15132D01*
D02*
G37*
G36*
X534670D02*
X533062Y14467D01*
X531633Y13038D01*
X530967Y11430D01*
X534670D01*
Y15132D01*
D02*
G37*
G36*
X178411Y19050D02*
X172580D01*
Y9387D01*
X173148Y9461D01*
X174860Y10171D01*
X176331Y11299D01*
X177459Y12770D01*
X178169Y14482D01*
X178411Y16320D01*
Y19050D01*
D02*
G37*
G36*
X264911D02*
X259080D01*
Y9387D01*
X259648Y9461D01*
X261360Y10171D01*
X262831Y11299D01*
X263959Y12770D01*
X264669Y14482D01*
X264911Y16320D01*
Y19050D01*
D02*
G37*
G36*
X256540D02*
X250709D01*
Y16320D01*
X250951Y14482D01*
X251661Y12770D01*
X252789Y11299D01*
X254260Y10171D01*
X255972Y9461D01*
X256540Y9387D01*
Y19050D01*
D02*
G37*
G36*
X170040D02*
X164209D01*
Y16320D01*
X164451Y14482D01*
X165161Y12770D01*
X166289Y11299D01*
X167760Y10171D01*
X169472Y9461D01*
X170040Y9387D01*
Y19050D01*
D02*
G37*
G36*
X614076Y12724D02*
X610373D01*
Y9021D01*
X611981Y9687D01*
X613410Y11116D01*
X614076Y12724D01*
D02*
G37*
G36*
X607833D02*
X604131D01*
X604796Y11116D01*
X606226Y9687D01*
X607833Y9021D01*
Y12724D01*
D02*
G37*
G36*
X502920Y12593D02*
Y8890D01*
X506623D01*
X505957Y10498D01*
X504528Y11927D01*
X502920Y12593D01*
D02*
G37*
G36*
X500380D02*
X498772Y11927D01*
X497343Y10498D01*
X496678Y8890D01*
X500380D01*
Y12593D01*
D02*
G37*
G36*
X742540Y33730D02*
X716270D01*
Y7460D01*
X717168D01*
X721449Y8138D01*
X725572Y9478D01*
X729434Y11446D01*
X732941Y13994D01*
X736006Y17059D01*
X738554Y20566D01*
X740522Y24428D01*
X741862Y28551D01*
X742540Y32833D01*
Y33730D01*
D02*
G37*
G36*
X713730D02*
X687460D01*
Y32833D01*
X688138Y28551D01*
X689478Y24428D01*
X691446Y20566D01*
X693994Y17059D01*
X697059Y13994D01*
X700566Y11446D01*
X704428Y9478D01*
X708551Y8138D01*
X712832Y7460D01*
X713730D01*
Y33730D01*
D02*
G37*
G36*
X62540D02*
X36270D01*
Y7460D01*
X37167D01*
X41449Y8138D01*
X45572Y9478D01*
X49434Y11446D01*
X52941Y13994D01*
X56006Y17059D01*
X58554Y20566D01*
X60522Y24428D01*
X61862Y28551D01*
X62540Y32833D01*
Y33730D01*
D02*
G37*
G36*
X33730D02*
X7460D01*
Y32833D01*
X8138Y28551D01*
X9478Y24428D01*
X11446Y20566D01*
X13994Y17059D01*
X17059Y13994D01*
X20566Y11446D01*
X24428Y9478D01*
X28551Y8138D01*
X32833Y7460D01*
X33730D01*
Y33730D01*
D02*
G37*
G36*
X540913Y8890D02*
X537210D01*
Y5188D01*
X538818Y5853D01*
X540247Y7282D01*
X540913Y8890D01*
D02*
G37*
G36*
X534670D02*
X530967D01*
X531633Y7282D01*
X533062Y5853D01*
X534670Y5188D01*
Y8890D01*
D02*
G37*
G36*
X506623Y6350D02*
X502920D01*
Y2648D01*
X504528Y3313D01*
X505957Y4742D01*
X506623Y6350D01*
D02*
G37*
G36*
X500380D02*
X496678D01*
X497343Y4742D01*
X498772Y3313D01*
X500380Y2648D01*
Y6350D01*
D02*
G37*
%LPD*%
G36*
X702310Y374650D02*
Y336550D01*
X698500Y332740D01*
X646430D01*
X642620Y336550D01*
Y344170D01*
X638810Y347980D01*
X584200D01*
X580390Y351790D01*
Y359410D01*
X584200Y363220D01*
X638810D01*
X642620Y367030D01*
Y374650D01*
X646430Y378460D01*
X698500D01*
X702310Y374650D01*
D02*
G37*
%LPC*%
G36*
X263648Y323850D02*
X262132D01*
X260732Y323270D01*
X259660Y322198D01*
X259080Y320798D01*
Y319282D01*
X259660Y317882D01*
X260732Y316810D01*
X262132Y316230D01*
X263648D01*
X265048Y316810D01*
X266120Y317882D01*
X266700Y319282D01*
Y320798D01*
X266120Y322198D01*
X265048Y323270D01*
X263648Y323850D01*
D02*
G37*
G36*
X252104Y317990D02*
X244084D01*
Y311970D01*
X252104D01*
Y317990D01*
D02*
G37*
G36*
Y309430D02*
X244084D01*
Y303410D01*
X252104D01*
Y309430D01*
D02*
G37*
G36*
X226704Y318110D02*
X218684D01*
Y310820D01*
Y303530D01*
X226704D01*
Y306875D01*
X233524D01*
Y303410D01*
X241544D01*
Y310700D01*
Y317990D01*
X233524D01*
Y314645D01*
X226704D01*
Y318110D01*
D02*
G37*
G36*
X281428Y238760D02*
X279912D01*
X278512Y238180D01*
X277440Y237108D01*
X276860Y235708D01*
Y234192D01*
X277440Y232792D01*
X278512Y231720D01*
X279912Y231140D01*
X281428D01*
X282828Y231720D01*
X283900Y232792D01*
X284480Y234192D01*
Y235708D01*
X283900Y237108D01*
X282828Y238180D01*
X281428Y238760D01*
D02*
G37*
G36*
X547457Y248257D02*
X540876D01*
Y241504D01*
X538398D01*
X536912Y241208D01*
X535651Y240366D01*
X532116Y236831D01*
X531178Y237220D01*
Y246987D01*
X518016D01*
Y244636D01*
X510257D01*
Y247874D01*
X493217D01*
Y234334D01*
X510257D01*
Y236866D01*
X518016D01*
Y233810D01*
X527767D01*
X528156Y232871D01*
X526954Y231669D01*
X525867D01*
Y225080D01*
X532448D01*
Y226175D01*
X539860Y233588D01*
X540876Y233380D01*
Y232540D01*
X547457D01*
Y240398D01*
Y248257D01*
D02*
G37*
G36*
X556578Y239128D02*
X549997D01*
Y232540D01*
X556578D01*
Y239128D01*
D02*
G37*
G36*
X523327Y231669D02*
X516746D01*
Y225080D01*
X523327D01*
Y231669D01*
D02*
G37*
G36*
X595717D02*
X589136D01*
Y225080D01*
X595717D01*
Y231669D01*
D02*
G37*
G36*
X604838Y222540D02*
X598257D01*
Y217170D01*
X604838D01*
Y222540D01*
D02*
G37*
G36*
X595717D02*
X589136D01*
Y217170D01*
X595717D01*
Y222540D01*
D02*
G37*
G36*
X526415Y172612D02*
Y168910D01*
X530117D01*
X529452Y170518D01*
X528023Y171947D01*
X526415Y172612D01*
D02*
G37*
G36*
X523875D02*
X522267Y171947D01*
X520838Y170518D01*
X520173Y168910D01*
X523875D01*
Y172612D01*
D02*
G37*
G36*
Y166370D02*
X520173D01*
X520838Y164762D01*
X522267Y163333D01*
X523875Y162668D01*
Y166370D01*
D02*
G37*
G36*
X347629Y110421D02*
X343927D01*
Y106719D01*
X345534Y107385D01*
X346963Y108814D01*
X347629Y110421D01*
D02*
G37*
G36*
X341386D02*
X337684D01*
X338350Y108814D01*
X339779Y107385D01*
X341386Y106719D01*
Y110421D01*
D02*
G37*
%LPD*%
D11*
X360680Y102750D02*
X362570D01*
X373871Y114051D01*
X171450Y350383D02*
X179982Y358915D01*
X217414Y295820D02*
X217474Y295760D01*
X215414Y295820D02*
X217414D01*
X171450Y321310D02*
Y350383D01*
X242754Y295760D02*
X242814Y295700D01*
X238594Y231350D02*
Y252940D01*
X213204Y293610D02*
X215414Y295820D01*
X213204Y288084D02*
Y293610D01*
X228236Y221000D02*
X238586Y231350D01*
X238594D01*
Y209760D02*
Y231350D01*
X198120Y221000D02*
X228236D01*
X202620Y277500D02*
X213204Y288084D01*
X198120Y277500D02*
Y294640D01*
Y277500D02*
X202620D01*
X171450Y321310D02*
X198120Y294640D01*
X247024Y291490D02*
Y293490D01*
X242814Y295700D02*
X244814D01*
X238594Y295760D02*
X242754D01*
X217474D02*
X238594D01*
X244814Y295700D02*
X247024Y293490D01*
Y291490D02*
X256540Y281974D01*
Y265430D02*
Y281974D01*
X246821Y255711D02*
X256540Y265430D01*
X238594Y252940D02*
X241364Y255711D01*
X246821D01*
X403477Y302017D02*
X408697D01*
X396100Y294640D02*
X403477Y302017D01*
X393700Y294640D02*
X396100D01*
X408697Y302017D02*
X408940Y302260D01*
X393985Y353651D02*
X394024Y353612D01*
Y335340D02*
Y353612D01*
X497027Y220144D02*
X499987Y223104D01*
X497027Y216496D02*
Y220144D01*
X475272Y194741D02*
X497027Y216496D01*
X528320Y280160D02*
X532890Y275590D01*
X552230D01*
X476250Y279780D02*
Y283130D01*
X325120Y87750D02*
X360680D01*
X193652Y310820D02*
X217414D01*
X217474Y310760D01*
X179070Y325402D02*
Y337820D01*
Y325402D02*
X193652Y310820D01*
X217474Y310760D02*
X242754D01*
X242814Y310700D01*
X179070Y337820D02*
X195580Y354330D01*
X223520D01*
X524597Y223818D02*
X538398Y237620D01*
X545956D01*
X548727Y240390D01*
Y240398D01*
X336934Y256540D02*
Y281146D01*
X335140Y282940D02*
X336934Y281146D01*
X335140Y282940D02*
Y286110D01*
X506730Y279780D02*
Y300536D01*
X506724Y300542D02*
X506730Y300536D01*
X564477Y306742D02*
X574368D01*
X574966Y307340D01*
X575310D01*
X499110Y83820D02*
X502711Y87421D01*
Y102750D02*
X505752Y105791D01*
X502711Y87421D02*
Y102750D01*
X554990Y124460D02*
X559403D01*
X565547Y130604D02*
Y133354D01*
X566507Y134314D01*
X559403Y124460D02*
X565547Y130604D01*
X462006Y373590D02*
X468356Y379940D01*
X473920D01*
X455710Y373590D02*
X462006D01*
X483870Y389890D02*
Y421327D01*
X473920Y379940D02*
X483870Y389890D01*
X450850Y365380D02*
Y368730D01*
X455710Y373590D01*
X483870Y421327D02*
X494343Y431800D01*
X612100D01*
X689500Y354400D01*
X574497Y182606D02*
Y201684D01*
X576007Y159308D02*
Y181096D01*
X574497Y182606D02*
X576007Y181096D01*
X464681Y209550D02*
X478790D01*
X449872Y194741D02*
X464681Y209550D01*
X449872Y191391D02*
Y194741D01*
X478790Y209550D02*
X487680Y218440D01*
Y251460D01*
X492760Y256540D01*
X679314D01*
X686741Y255559D02*
X689500Y252800D01*
X680295Y255559D02*
X686741D01*
X679314Y256540D02*
X680295Y255559D01*
X570827Y412826D02*
X594957D01*
X570827Y412818D02*
Y412826D01*
X475272Y191391D02*
Y194741D01*
X499987Y223104D02*
X501737D01*
Y241104D02*
X502090Y240751D01*
X524244D01*
X524597Y240398D01*
X221406Y253540D02*
X222006Y252940D01*
X198580Y253540D02*
X221406D01*
X198120Y254000D02*
X198580Y253540D01*
X198120Y177000D02*
X211586D01*
X215178Y173408D01*
Y173400D02*
Y173408D01*
Y173400D02*
X221998Y166580D01*
X222006D01*
D15*
X193620Y199000D02*
X198120D01*
X178925D02*
X193620D01*
X450850Y276430D02*
Y279780D01*
X449872Y125070D02*
X469900Y145097D01*
X457034Y167806D02*
X469900Y154940D01*
Y145097D02*
Y154940D01*
X449872Y105791D02*
Y125070D01*
X370220Y149740D02*
X390500D01*
X416560Y242140D02*
X450850Y276430D01*
X432904Y167806D02*
X457034D01*
X416560Y184150D02*
Y242140D01*
Y184150D02*
X432904Y167806D01*
X378946Y163274D02*
X391490Y150730D01*
X374884Y163274D02*
X378946D01*
X482022Y379597D02*
X497957Y395532D01*
X409970Y161050D02*
X412750Y163830D01*
X406490Y125330D02*
Y150730D01*
Y123330D02*
Y125330D01*
X168910Y160020D02*
X186690Y177800D01*
Y192070D01*
X177425Y200500D02*
X178925Y199000D01*
X186690Y192070D02*
X193620Y199000D01*
X395574Y82550D02*
X410210D01*
X360680Y87750D02*
X382986D01*
X325120D02*
X328600Y91230D01*
X386676Y91440D02*
X386684D01*
X395574Y82550D01*
X382986Y87750D02*
X386676Y91440D01*
X337890Y162070D02*
Y165030D01*
X327660Y175260D02*
X337890Y165030D01*
X338020Y116328D02*
X342657Y111692D01*
X338020Y116328D02*
Y122540D01*
X386676Y91440D02*
Y115052D01*
X380949Y120779D02*
Y127953D01*
Y120779D02*
X386676Y115052D01*
X370220Y134740D02*
X370350Y134610D01*
X337890Y162070D02*
X338020Y161940D01*
X370350Y134610D02*
X374292D01*
X380949Y127953D01*
X177030Y200500D02*
X177425D01*
X320346Y256540D02*
Y281266D01*
X322140Y283060D02*
Y286310D01*
X304800Y321070D02*
X322140Y303730D01*
Y286310D02*
Y303730D01*
X320346Y281266D02*
X322140Y283060D01*
X265530Y429360D02*
X278094D01*
X304800Y321070D02*
Y388116D01*
X278094Y429360D02*
X301114Y406340D01*
X323024D01*
X304800Y388116D02*
X323024Y406340D01*
X394024D01*
X410210Y82550D02*
X415290Y87630D01*
Y114530D01*
X406490Y123330D02*
X415290Y114530D01*
X406490Y150730D02*
X409970Y154210D01*
Y161050D01*
X548727Y240398D02*
Y240406D01*
X522567Y396238D02*
X530425Y404097D01*
X530421Y404101D02*
X539064Y412743D01*
X546614D01*
X546697Y412818D02*
Y412826D01*
X546614Y412743D02*
X546697Y412826D01*
Y412818D02*
X550738Y408778D01*
X548727Y240406D02*
X556578Y248257D01*
X603350D01*
X596987Y223810D02*
Y223818D01*
X604838Y231669D01*
X603350Y248257D02*
X604838Y246769D01*
Y231669D02*
Y246769D01*
X550738Y408778D02*
X550745D01*
X594957Y377862D02*
Y396238D01*
X603692D01*
X617663Y410210D01*
X623570D01*
X308610Y174400D02*
X328140Y154870D01*
X308610Y174400D02*
Y245110D01*
X328140Y154870D02*
X330690D01*
X330820Y154740D01*
X336934Y256540D02*
X336942D01*
X347980Y245502D01*
Y245110D02*
Y245502D01*
X280670Y225373D02*
X284480Y221563D01*
Y215772D02*
Y221563D01*
X284480Y215772D02*
X284480Y215772D01*
X259302Y207010D02*
X281940D01*
X284480Y209550D01*
X280670Y225373D02*
Y226060D01*
X284480Y209550D02*
Y215772D01*
X248312Y196021D02*
X259302Y207010D01*
X198205Y188085D02*
X221921D01*
X198120Y188000D02*
X198205Y188085D01*
X222006Y188170D02*
X222014D01*
X226055Y192211D01*
Y192822D01*
X229253Y196021D02*
X248312D01*
X226055Y192822D02*
X229253Y196021D01*
X181610Y243840D02*
X182030Y243420D01*
X197700D01*
X198120Y243000D01*
X298450Y196131D02*
X298857Y195724D01*
X269240Y337820D02*
X298450Y308610D01*
Y196131D02*
Y308610D01*
X187960Y327421D02*
X189724Y329185D01*
Y329424D02*
X198120Y337820D01*
X269240D01*
X189724Y329185D02*
Y329424D01*
X187960Y326390D02*
Y327421D01*
X279273Y215900D02*
X279400Y216027D01*
X259080Y215900D02*
X279273D01*
X244457Y201277D02*
X259080Y215900D01*
X198235Y209883D02*
X221881D01*
X222003Y209760D01*
X198120Y209997D02*
X198235Y209883D01*
X222011Y209763D02*
X226055Y205719D01*
Y205717D02*
Y205719D01*
Y205717D02*
X230494Y201277D01*
X244457D01*
X197905Y265215D02*
X198120Y265000D01*
X154940Y265430D02*
X155155Y265215D01*
X197905D01*
X198120Y265000D02*
X202620D01*
X212150Y274530D01*
X222006D01*
X229870Y72390D02*
Y81280D01*
X209550Y52070D02*
X229870Y72390D01*
X267970Y331470D02*
X288290Y311150D01*
Y214194D02*
Y311150D01*
X288290Y214194D02*
X288290Y214194D01*
X280670Y199390D02*
X288290Y207010D01*
Y214194D01*
X280670Y156210D02*
Y199390D01*
Y156210D02*
X287140Y149740D01*
X330820D01*
X235466Y331470D02*
X267970D01*
X232925Y328930D02*
X235466Y331470D01*
X200660Y328930D02*
X232925D01*
X370220Y129740D02*
X372770D01*
X372900Y129610D01*
Y123104D02*
Y129610D01*
Y123104D02*
X379586Y116418D01*
Y106564D02*
Y116418D01*
X368482Y95460D02*
X379586Y106564D01*
X317318Y95460D02*
X368482D01*
X248920Y163858D02*
X317318Y95460D01*
X248920Y163858D02*
Y177800D01*
X476250Y365380D02*
X482022Y371152D01*
Y379597D01*
X578237Y154328D02*
Y157078D01*
X576007Y159308D02*
X578237Y157078D01*
Y154328D02*
X584200Y148364D01*
X592946Y126933D02*
X596987Y122892D01*
X592938Y126933D02*
X592946D01*
X596987Y122884D02*
Y122892D01*
X584200Y135671D02*
X592938Y126933D01*
X584200Y135671D02*
Y148364D01*
X497957Y395532D02*
X499707D01*
X521861Y413532D02*
X522567Y412826D01*
X499707Y413532D02*
X521861D01*
X596987Y139472D02*
Y159460D01*
X566979Y385369D02*
Y392390D01*
X559452Y377842D02*
X566979Y385369D01*
X556196Y377842D02*
X559452D01*
X553466Y375112D02*
X556196Y377842D01*
X566979Y392390D02*
X570827Y396238D01*
X554977Y331736D02*
Y372600D01*
X553466Y374112D02*
X554977Y372600D01*
X594957Y295312D02*
Y295320D01*
X583561Y306716D02*
X594957Y295320D01*
X583561Y306716D02*
Y319401D01*
X573977Y328986D02*
X583561Y319401D01*
X572467Y374112D02*
X573977Y372602D01*
Y328986D02*
Y331736D01*
Y372602D01*
X594957Y311900D02*
Y331888D01*
X328640Y302460D02*
X336460Y294640D01*
X360100D01*
X328640Y302460D02*
Y305710D01*
Y329724D01*
X399200Y116128D02*
Y132712D01*
Y116128D02*
X403264Y112064D01*
X330690Y134610D02*
X330820Y134740D01*
X325208Y134610D02*
X330690D01*
X323850Y133252D02*
X325208Y134610D01*
X323850Y121060D02*
Y133252D01*
Y121060D02*
X325120Y119790D01*
Y102750D02*
Y119790D01*
X323024Y335340D02*
X328640Y329724D01*
X403264Y91440D02*
Y112064D01*
X392976Y138936D02*
X399200Y132712D01*
X388192Y138936D02*
X392976D01*
X382388Y144740D02*
X388192Y138936D01*
X370220Y144740D02*
X382388D01*
X391490Y125330D02*
Y127330D01*
X379080Y139740D02*
X391490Y127330D01*
X370220Y139740D02*
X379080D01*
D23*
X360680Y102750D02*
D03*
X242814Y295700D02*
D03*
X217414Y295820D02*
D03*
X325120Y87750D02*
D03*
X360680D02*
D03*
X242814Y310700D02*
D03*
X217414Y310820D02*
D03*
X325120Y102750D02*
D03*
D25*
X391490Y150730D02*
D03*
X406490D02*
D03*
Y125330D02*
D03*
X391490D02*
D03*
D26*
X499707Y413532D02*
D03*
Y395532D02*
D03*
X501737Y241104D02*
D03*
Y223104D02*
D03*
D27*
X238594Y209760D02*
D03*
Y252940D02*
D03*
Y188170D02*
D03*
Y166580D02*
D03*
Y231350D02*
D03*
X621791Y85406D02*
D03*
X605203D02*
D03*
X465494Y231140D02*
D03*
X448906D02*
D03*
X459144Y398780D02*
D03*
X612140Y275590D02*
D03*
X238594Y274530D02*
D03*
X386676Y91440D02*
D03*
X320346Y256540D02*
D03*
X336934D02*
D03*
X222006Y188170D02*
D03*
Y231350D02*
D03*
Y209760D02*
D03*
Y274530D02*
D03*
X442556Y398780D02*
D03*
X595552Y275590D02*
D03*
X222006Y252940D02*
D03*
Y166580D02*
D03*
X403264Y91440D02*
D03*
D29*
X596987Y240398D02*
D03*
Y223810D02*
D03*
X570827Y412826D02*
D03*
Y396238D02*
D03*
X594957Y412826D02*
D03*
Y396238D02*
D03*
X548727Y223810D02*
D03*
Y240398D02*
D03*
X596987Y122884D02*
D03*
Y139472D02*
D03*
X572857Y240398D02*
D03*
Y223810D02*
D03*
X522567Y412826D02*
D03*
Y396238D02*
D03*
X594957Y295312D02*
D03*
Y311900D02*
D03*
X524597Y240398D02*
D03*
Y223810D02*
D03*
X546697Y396238D02*
D03*
Y412826D02*
D03*
D46*
X171310Y20320D02*
D03*
X257810D02*
D03*
D47*
X171310Y62020D02*
D03*
X257810D02*
D03*
D48*
X214530Y378360D02*
D03*
Y429360D02*
D03*
X265530Y378360D02*
D03*
Y429360D02*
D03*
D49*
X689500Y151200D02*
D03*
Y202000D02*
D03*
Y303600D02*
D03*
Y252800D02*
D03*
Y354400D02*
D03*
D50*
Y100400D02*
D03*
D51*
X240030Y403860D02*
D03*
D52*
X168620Y175000D02*
D03*
Y275000D02*
D03*
D53*
X185660Y57120D02*
D03*
X243460D02*
D03*
D54*
X715000Y415000D02*
D03*
Y35000D02*
D03*
X35000D02*
D03*
Y415000D02*
D03*
D57*
X578157Y85406D02*
X605203D01*
X576887Y86676D02*
X578157Y85406D01*
X558571Y86360D02*
X558887Y86676D01*
X547233Y86360D02*
X558571D01*
X531152Y102441D02*
X547233Y86360D01*
X531152Y102441D02*
Y105791D01*
X572857Y240398D02*
X596987D01*
X552597Y135890D02*
X563925Y147218D01*
X552450Y135890D02*
X552597D01*
X363020Y104960D02*
Y122540D01*
X229494Y157480D02*
X238594Y166580D01*
Y188170D01*
X228923Y157480D02*
X229494D01*
X209933D02*
X215089D01*
X228903Y157459D02*
X228923Y157480D01*
X215110Y157459D02*
X228903D01*
X215089Y157480D02*
X215110Y157459D01*
X199814Y167599D02*
X209933Y157480D01*
X563925Y147218D02*
Y177612D01*
X439297Y180410D02*
X445717Y173990D01*
X479428D02*
X491344Y185906D01*
X445717Y173990D02*
X479428D01*
X439297Y207655D02*
X449580Y217938D01*
X439297Y180410D02*
Y207655D01*
X502852Y206980D02*
X510574Y214701D01*
X491344Y198539D02*
X499784Y206980D01*
X491344Y185906D02*
Y198539D01*
X510574Y214701D02*
X524818D01*
X527050Y212469D01*
Y195493D02*
Y212469D01*
X449580Y217938D02*
Y230466D01*
X499784Y206980D02*
X502852D01*
X448906Y231140D02*
X449580Y230466D01*
X527050Y195493D02*
X531152Y191391D01*
X520577Y187799D02*
Y191683D01*
X570230Y275590D02*
X595552D01*
X442548Y398780D02*
X442556D01*
X439143Y395374D02*
X442548Y398780D01*
X439143Y395367D02*
Y395374D01*
X433643Y389867D02*
X439143Y395367D01*
X433643Y352487D02*
Y389867D01*
X529590Y323850D02*
X541020Y335280D01*
Y382340D02*
X546116Y387437D01*
X541020Y335280D02*
Y382340D01*
X501650Y323850D02*
X529590D01*
X476250Y283130D02*
X486455Y293335D01*
Y308655D01*
X501650Y323850D01*
X546116Y395658D02*
X546697Y396238D01*
X546116Y387437D02*
Y395658D01*
X548321Y152103D02*
Y207999D01*
X561340Y221018D02*
Y238166D01*
X563572Y240398D02*
X572857D01*
X531152Y134934D02*
X548321Y152103D01*
X531152Y105791D02*
Y134934D01*
X548321Y207999D02*
X550181Y209859D01*
X561340Y238166D02*
X563572Y240398D01*
X550181Y209859D02*
X561340Y221018D01*
X550181Y209859D02*
X550181D01*
X548727Y223803D02*
Y223810D01*
X541727Y216803D02*
X548727Y223803D01*
X484036Y114555D02*
X541727Y172246D01*
Y216803D01*
X475272Y109060D02*
X480767Y114555D01*
X484036D01*
X475272Y83528D02*
Y105791D01*
Y109060D01*
Y83528D02*
X477520Y81280D01*
X528320Y365760D02*
Y369110D01*
X517700Y379730D02*
X528320Y369110D01*
X495300Y379730D02*
X517700D01*
X491490Y375920D02*
X495300Y379730D01*
X563925Y177612D02*
X564997Y178684D01*
X563925Y179756D02*
Y205848D01*
Y179756D02*
X564997Y178684D01*
X524597Y223803D02*
Y223810D01*
X563925Y205848D02*
X568373Y210296D01*
X586791D01*
X562967Y323837D02*
X567791Y319013D01*
X572527D01*
X572770Y318770D01*
X591653Y205434D02*
X596987D01*
X586791Y210296D02*
X591653Y205434D01*
X562967Y323837D02*
Y351112D01*
X464697Y99059D02*
Y116772D01*
X505752Y157827D02*
Y191391D01*
X464697Y116772D02*
X505752Y157827D01*
X369448Y3810D02*
X464697Y99059D01*
X208280Y3810D02*
X369448D01*
X128788Y99899D02*
Y115570D01*
X128153Y99264D02*
X128788Y99899D01*
X128153Y83938D02*
Y99264D01*
Y83938D02*
X208280Y3810D01*
X86360Y108300D02*
Y163486D01*
Y108300D02*
X101600Y93060D01*
Y59402D02*
Y93060D01*
X99060Y56862D02*
X101600Y59402D01*
X99060Y22860D02*
Y56862D01*
X198445Y231675D02*
X221681D01*
X198120Y232000D02*
X198445Y231675D01*
X221681D02*
X222006Y231350D01*
X170180Y236220D02*
X190293D01*
X192525Y233095D02*
X193620Y232000D01*
X198120D01*
X190293Y236220D02*
X192525Y233988D01*
Y233095D02*
Y233988D01*
X134995Y144485D02*
Y162115D01*
X124044Y173066D02*
Y181730D01*
Y173066D02*
X134995Y162115D01*
X111760Y121250D02*
X134995Y144485D01*
X111760Y42545D02*
Y121250D01*
X108193Y38978D02*
X111760Y42545D01*
X107950Y31750D02*
X108193Y31993D01*
Y38978D01*
X438586Y340360D02*
X487244D01*
X497425Y350541D01*
Y356915D01*
X505890Y365380D01*
X506730D01*
X419100Y359846D02*
Y411788D01*
Y359846D02*
X438586Y340360D01*
X400358Y430530D02*
X419100Y411788D01*
X293370Y430530D02*
X400358D01*
X280670Y443230D02*
X293370Y430530D01*
X165735Y335915D02*
Y422275D01*
X186690Y443230D02*
X280670D01*
X165735Y422275D02*
X186690Y443230D01*
X137615Y307795D02*
X165735Y335915D01*
X137615Y170681D02*
X137665Y170630D01*
X137615Y170681D02*
Y307795D01*
X491490Y351790D02*
Y375920D01*
X486410Y346710D02*
X491490Y351790D01*
X439420Y346710D02*
X486410D01*
X433643Y352487D02*
X439420Y346710D01*
X556388Y383666D02*
X559628Y386906D01*
X549530Y383666D02*
X556388D01*
X546100Y326373D02*
Y380236D01*
X549530Y383666D01*
X546100Y326373D02*
X549164Y323309D01*
X555496Y200684D02*
Y201684D01*
Y200684D02*
X557007Y199172D01*
Y159308D02*
Y199172D01*
X557591Y208536D02*
X572857Y223803D01*
X557591Y204779D02*
Y208536D01*
X555496Y202684D02*
X557591Y204779D01*
X572857Y223803D02*
Y223810D01*
X559628Y386906D02*
Y401619D01*
X549164Y300164D02*
Y323309D01*
X532130Y283130D02*
X549164Y300164D01*
X559628Y401619D02*
X570827Y412818D01*
D59*
X156030Y193500D02*
D03*
X163030Y200500D02*
D03*
X170030Y193500D02*
D03*
X149030Y200500D02*
D03*
Y214500D02*
D03*
X156030Y207500D02*
D03*
Y221500D02*
D03*
X163030Y214500D02*
D03*
X170030Y207500D02*
D03*
X177030Y200500D02*
D03*
Y214500D02*
D03*
X170030Y221500D02*
D03*
D60*
X552450Y135890D02*
D03*
X99060Y120650D02*
D03*
X179982Y358915D02*
D03*
X373871Y114051D02*
D03*
X576580Y125730D02*
D03*
Y139700D02*
D03*
X469900Y154940D02*
D03*
X675640Y420050D02*
D03*
X199814Y167599D02*
D03*
X365760Y175260D02*
D03*
X374884Y163274D02*
D03*
X341630Y26670D02*
D03*
X562610Y68580D02*
D03*
X571500D02*
D03*
Y36830D02*
D03*
X580390Y68580D02*
D03*
X607390Y71755D02*
D03*
X608450Y139065D02*
D03*
X610870Y104140D02*
D03*
X393985Y353651D02*
D03*
X408940Y302260D02*
D03*
X111760Y326390D02*
D03*
X501650Y323850D02*
D03*
X477520Y81280D02*
D03*
X114300Y279400D02*
D03*
X529590Y337820D02*
D03*
X262890Y320040D02*
D03*
X311150Y292100D02*
D03*
X412750Y163830D02*
D03*
X327660Y175260D02*
D03*
X299720Y180340D02*
D03*
X403860Y175260D02*
D03*
X311150Y59690D02*
D03*
X609103Y13994D02*
D03*
X515620Y24130D02*
D03*
X535940Y10160D02*
D03*
X501650Y7620D02*
D03*
X642500Y137795D02*
D03*
X623570Y410210D02*
D03*
X614680Y339090D02*
D03*
X632460Y165100D02*
D03*
X642620Y72390D02*
D03*
X68580Y127000D02*
D03*
X113030Y364490D02*
D03*
X16510Y110490D02*
D03*
X147320Y387350D02*
D03*
X96520Y443230D02*
D03*
X510540Y332740D02*
D03*
X525145Y167640D02*
D03*
X572770Y318770D02*
D03*
X424180Y262890D02*
D03*
X632460Y44450D02*
D03*
Y110490D02*
D03*
Y99060D02*
D03*
X403515Y75937D02*
D03*
X342657Y111692D02*
D03*
X415290Y87630D02*
D03*
X223520Y354330D02*
D03*
X86360Y323850D02*
D03*
X293370Y72390D02*
D03*
X71120Y105410D02*
D03*
X168910Y160020D02*
D03*
X71120Y80010D02*
D03*
X97790Y147320D02*
D03*
X415290Y143510D02*
D03*
X481330Y323850D02*
D03*
X151130Y179070D02*
D03*
X308610Y245110D02*
D03*
X130810Y328930D02*
D03*
X177800Y153670D02*
D03*
X128788Y115570D02*
D03*
X347980Y245110D02*
D03*
X280670Y234950D02*
D03*
X595630Y27940D02*
D03*
X506724Y300542D02*
D03*
X575310Y307340D02*
D03*
X488707Y29244D02*
D03*
X554990Y124460D02*
D03*
X499110Y83820D02*
D03*
X280670Y226060D02*
D03*
X414020Y276860D02*
D03*
X449580Y157480D02*
D03*
X147320Y115570D02*
D03*
X479394Y300918D02*
D03*
X233680Y148590D02*
D03*
X99060Y22860D02*
D03*
X86360Y163830D02*
D03*
X181610Y243840D02*
D03*
X293370Y215900D02*
D03*
X463550Y273050D02*
D03*
X170180Y236220D02*
D03*
X124044Y181730D02*
D03*
X107950Y31750D02*
D03*
X293370Y22860D02*
D03*
X218440Y151130D02*
D03*
X137665Y170630D02*
D03*
X298857Y195724D02*
D03*
X187960Y326390D02*
D03*
X279400Y216027D02*
D03*
X461010Y311150D02*
D03*
X154940Y265430D02*
D03*
X189230Y151130D02*
D03*
X200660Y149860D02*
D03*
X299720Y33020D02*
D03*
X229870Y81280D02*
D03*
X209550Y52070D02*
D03*
X200660Y328930D02*
D03*
X218440Y52070D02*
D03*
X200660Y81280D02*
D03*
X248920Y177800D02*
D03*
D61*
X198120Y277500D02*
D03*
Y221000D02*
D03*
Y199000D02*
D03*
Y188000D02*
D03*
Y243000D02*
D03*
Y232000D02*
D03*
Y210000D02*
D03*
Y265000D02*
D03*
Y177000D02*
D03*
Y254000D02*
D03*
D62*
X450850Y279780D02*
D03*
X449872Y105791D02*
D03*
X475272Y191391D02*
D03*
X449872D02*
D03*
X475272Y105791D02*
D03*
X531152Y191391D02*
D03*
Y105791D02*
D03*
X505752D02*
D03*
Y191391D02*
D03*
X476250Y365380D02*
D03*
X450850D02*
D03*
X476250Y279780D02*
D03*
X502920Y280160D02*
D03*
Y365760D02*
D03*
X528320Y280160D02*
D03*
Y365760D02*
D03*
D63*
X370220Y149740D02*
D03*
Y134740D02*
D03*
X330820Y154740D02*
D03*
Y149740D02*
D03*
X370220Y129740D02*
D03*
X330820Y144740D02*
D03*
Y139740D02*
D03*
Y134740D02*
D03*
Y129740D02*
D03*
X370220Y139740D02*
D03*
Y144740D02*
D03*
Y154740D02*
D03*
D64*
X363020Y122540D02*
D03*
X338020Y161940D02*
D03*
Y122540D02*
D03*
X343020D02*
D03*
X348020D02*
D03*
X353020D02*
D03*
X358020D02*
D03*
X363020Y161940D02*
D03*
X358020D02*
D03*
X353020D02*
D03*
X348020D02*
D03*
X343020D02*
D03*
D65*
X394024Y335340D02*
D03*
X323024Y406340D02*
D03*
X394024D02*
D03*
X323024Y335340D02*
D03*
D66*
X393700Y294640D02*
D03*
X360100D02*
D03*
D67*
X573977Y331736D02*
D03*
X554977D02*
D03*
X564477Y306742D02*
D03*
X576007Y159308D02*
D03*
X557007D02*
D03*
X566507Y134314D02*
D03*
D68*
X572467Y374112D02*
D03*
X553466D02*
D03*
X562967Y351112D02*
D03*
X574497Y201684D02*
D03*
X555496D02*
D03*
X564997Y178684D02*
D03*
D69*
X594957Y331888D02*
D03*
Y355002D02*
D03*
Y377862D02*
D03*
X596987Y159460D02*
D03*
Y182574D02*
D03*
Y205434D02*
D03*
D70*
X656933Y355002D02*
D03*
X658963Y182574D02*
D03*
D71*
X558887Y86676D02*
D03*
X576887D02*
D03*
X552230Y275590D02*
D03*
X570230D02*
D03*
D72*
X322140Y286310D02*
D03*
X335140Y286110D02*
D03*
X328640Y305710D02*
D03*
D73*
X120120Y296700D02*
D03*
Y153300D02*
D03*
M02*
