G04*
G04 #@! TF.GenerationSoftware,Altium Limited,Altium Designer,26.5.0 (11)*
G04*
G04 Layer_Physical_Order=1*
G04 Layer_Color=255*
G04 Board_Origin=0|0*
%FSLAX44Y44*%
%MOMM*%
G71*
G04*
G04 #@! TF.SameCoordinates,805A6E00-FF88-42AD-81E1-7D7A0FF39D89*
G04*
G04*
G04 #@! TF.FilePolarity,Positive*
G04*
G01*
G75*
%ADD11C,0.5080*%
%ADD15C,0.2540*%
G04:AMPARAMS|DCode=19|XSize=0.93mm|YSize=1.31mm|CornerRadius=0.0698mm|HoleSize=0mm|Usage=FLASHONLY|Rotation=0.000|XOffset=0mm|YOffset=0mm|HoleType=Round|Shape=RoundedRectangle|*
%AMROUNDEDRECTD19*
21,1,0.9300,1.1705,0,0,0.0*
21,1,0.7905,1.3100,0,0,0.0*
1,1,0.1395,0.3953,-0.5853*
1,1,0.1395,-0.3953,-0.5853*
1,1,0.1395,-0.3953,0.5853*
1,1,0.1395,0.3953,0.5853*
%
%ADD19ROUNDEDRECTD19*%
G04:AMPARAMS|DCode=20|XSize=3.24mm|YSize=1.31mm|CornerRadius=0.0983mm|HoleSize=0mm|Usage=FLASHONLY|Rotation=0.000|XOffset=0mm|YOffset=0mm|HoleType=Round|Shape=RoundedRectangle|*
%AMROUNDEDRECTD20*
21,1,3.2400,1.1135,0,0,0.0*
21,1,3.0435,1.3100,0,0,0.0*
1,1,0.1965,1.5218,-0.5568*
1,1,0.1965,-1.5218,-0.5568*
1,1,0.1965,-1.5218,0.5568*
1,1,0.1965,1.5218,0.5568*
%
%ADD20ROUNDEDRECTD20*%
%ADD21R,0.6604X1.5494*%
%ADD22R,1.5000X0.9000*%
%ADD23R,1.3500X0.9500*%
%ADD24R,1.9500X1.0500*%
%ADD25R,0.9500X1.3500*%
%ADD26R,1.4500X1.1000*%
%ADD27R,1.0637X1.0621*%
%ADD28R,0.3500X0.5000*%
%ADD29R,1.0621X1.0637*%
%ADD30R,0.9000X1.5000*%
%ADD31R,0.9500X1.3500*%
%ADD32R,1.3000X1.4500*%
%ADD33R,1.7000X1.6800*%
%ADD34R,1.0000X1.2500*%
%ADD35R,1.4500X1.3000*%
%ADD36R,0.6000X1.1400*%
%ADD37R,1.0500X0.6500*%
%ADD38R,0.9000X0.9000*%
%ADD39R,1.5000X0.9000*%
%ADD40R,0.3000X1.1400*%
%ADD41R,1.9050X1.2954*%
%ADD46O,0.9000X1.7000*%
%ADD47O,0.9000X2.0000*%
%ADD48C,2.1300*%
%ADD49C,1.9500*%
%ADD50R,1.9500X1.9500*%
%ADD51C,1.6500*%
%ADD52C,1.4000*%
%ADD53C,0.6000*%
%ADD54C,5.0000*%
%ADD55R,1.5000X1.8000*%
%ADD56R,1.8000X1.5000*%
%ADD57C,0.3810*%
%ADD58C,0.1162*%
%ADD59C,0.4000*%
%ADD60C,0.5080*%
G36*
X715000Y450000D02*
X717294D01*
X721843Y449401D01*
X726274Y448214D01*
X730513Y446458D01*
X734487Y444164D01*
X738127Y441371D01*
X741371Y438127D01*
X744164Y434487D01*
X746458Y430513D01*
X748214Y426274D01*
X749401Y421843D01*
X750000Y417294D01*
Y415000D01*
X750000Y35000D01*
Y32706D01*
X749401Y28157D01*
X748214Y23726D01*
X746458Y19487D01*
X744164Y15513D01*
X741371Y11873D01*
X738127Y8629D01*
X734487Y5836D01*
X730513Y3542D01*
X726274Y1786D01*
X721843Y599D01*
X717294Y0D01*
X32706D01*
X28157Y599D01*
X23726Y1786D01*
X19487Y3542D01*
X15513Y5836D01*
X11873Y8629D01*
X8629Y11873D01*
X5836Y15513D01*
X3542Y19487D01*
X1786Y23726D01*
X599Y28157D01*
X0Y32706D01*
Y35000D01*
Y415000D01*
Y417294D01*
X599Y421843D01*
X1786Y426274D01*
X3542Y430513D01*
X5836Y434487D01*
X8629Y438127D01*
X11873Y441371D01*
X15513Y444164D01*
X19487Y446458D01*
X23726Y448214D01*
X28157Y449401D01*
X32706Y450000D01*
X35000D01*
X715000Y450000D01*
D02*
G37*
%LPC*%
G36*
X95250Y448203D02*
X93642Y447537D01*
X92213Y446108D01*
X91547Y444500D01*
X95250D01*
Y448203D01*
D02*
G37*
G36*
X480840Y445950D02*
X472070D01*
Y440180D01*
X480840D01*
Y445950D01*
D02*
G37*
G36*
X550690D02*
X541920D01*
Y440180D01*
X550690D01*
Y445950D01*
D02*
G37*
G36*
X620540D02*
X611770D01*
Y440180D01*
X620540D01*
Y445950D01*
D02*
G37*
G36*
X469530D02*
X460760D01*
Y440180D01*
X469530D01*
Y445950D01*
D02*
G37*
G36*
X539380D02*
X530610D01*
Y440180D01*
X539380D01*
Y445950D01*
D02*
G37*
G36*
X609230D02*
X600460D01*
Y440180D01*
X609230D01*
Y445950D01*
D02*
G37*
G36*
X95250Y441960D02*
X91547D01*
X92213Y440352D01*
X92565Y440001D01*
X92176Y439062D01*
X87630D01*
Y432474D01*
X94211D01*
Y437774D01*
X95055Y438338D01*
X95250Y438257D01*
Y441960D01*
D02*
G37*
G36*
X130732Y445205D02*
X124712D01*
Y437185D01*
X130732D01*
Y445205D01*
D02*
G37*
G36*
X122172D02*
X116152D01*
Y437185D01*
X122172D01*
Y445205D01*
D02*
G37*
G36*
X668270Y444680D02*
X650730D01*
Y433140D01*
X668270D01*
Y444680D01*
D02*
G37*
G36*
X85090Y439062D02*
X78509D01*
Y432474D01*
X85090D01*
Y439062D01*
D02*
G37*
G36*
X620540Y437640D02*
X611770D01*
Y431870D01*
X620540D01*
Y437640D01*
D02*
G37*
G36*
X550690D02*
X541920D01*
Y431870D01*
X550690D01*
Y437640D01*
D02*
G37*
G36*
X539380D02*
X530610D01*
Y431870D01*
X539380D01*
Y437640D01*
D02*
G37*
G36*
X480840D02*
X472070D01*
Y431870D01*
X480840D01*
Y437640D01*
D02*
G37*
G36*
X469530D02*
X460760D01*
Y431870D01*
X469530D01*
Y437640D01*
D02*
G37*
G36*
X267267Y442550D02*
X266800D01*
Y430630D01*
X278720D01*
Y431096D01*
X277821Y434451D01*
X276085Y437459D01*
X273629Y439915D01*
X270621Y441651D01*
X267267Y442550D01*
D02*
G37*
G36*
X216266D02*
X215800D01*
Y430630D01*
X227720D01*
Y431096D01*
X226821Y434451D01*
X225085Y437459D01*
X222629Y439915D01*
X219621Y441651D01*
X216266Y442550D01*
D02*
G37*
G36*
X264260D02*
X263794D01*
X260439Y441651D01*
X257431Y439915D01*
X254975Y437459D01*
X253239Y434451D01*
X252340Y431096D01*
Y430630D01*
X264260D01*
Y442550D01*
D02*
G37*
G36*
X213260D02*
X212794D01*
X209439Y441651D01*
X206431Y439915D01*
X203975Y437459D01*
X202239Y434451D01*
X201340Y431096D01*
Y430630D01*
X213260D01*
Y442550D01*
D02*
G37*
G36*
X130732Y434645D02*
X124712D01*
Y426625D01*
X130732D01*
Y434645D01*
D02*
G37*
G36*
X94211Y429934D02*
X87630D01*
Y423345D01*
X94211D01*
Y429934D01*
D02*
G37*
G36*
X85090D02*
X78509D01*
Y423345D01*
X85090D01*
Y429934D01*
D02*
G37*
G36*
X97790Y448203D02*
Y443230D01*
Y438257D01*
X99398Y438923D01*
X100827Y440352D01*
X101406Y441751D01*
X102422Y441549D01*
Y427895D01*
X109542D01*
Y417888D01*
X108652Y417585D01*
X108652Y417585D01*
Y417585D01*
X108652Y417585D01*
X102612D01*
Y417206D01*
X92941D01*
Y421205D01*
X79779D01*
Y408028D01*
X92941D01*
Y412026D01*
X101894D01*
X102612Y411308D01*
Y410045D01*
X102067Y409255D01*
X101252D01*
X100261Y409058D01*
X99421Y408496D01*
X95701Y404776D01*
X95140Y403936D01*
X94942Y402945D01*
Y400579D01*
X90458Y396095D01*
X90401Y396106D01*
X88914Y395811D01*
X87654Y394968D01*
X87416Y394612D01*
X81049D01*
Y386929D01*
X75763Y381642D01*
X74920Y380382D01*
X74625Y378895D01*
Y361592D01*
X74920Y360106D01*
X75763Y358845D01*
X79779Y354829D01*
Y347265D01*
X92941D01*
Y360442D01*
X85153D01*
X82394Y363201D01*
Y364848D01*
X94211D01*
Y372895D01*
X97644D01*
X98635Y373092D01*
X99475Y373653D01*
X100037Y374494D01*
X100234Y375485D01*
Y388671D01*
X102104Y390541D01*
X103042Y390152D01*
Y388981D01*
X103239Y387990D01*
X103801Y387150D01*
X153705Y337246D01*
X160677Y330274D01*
X161517Y329712D01*
X162508Y329515D01*
X184370D01*
X184758Y328577D01*
X184730Y328548D01*
X184150Y327148D01*
Y325632D01*
X184730Y324232D01*
X184902Y324060D01*
Y318770D01*
X181660D01*
Y301230D01*
X193200D01*
Y313874D01*
X194216Y314417D01*
X194360Y314321D01*
Y301230D01*
X205900D01*
Y318770D01*
X203250D01*
Y326132D01*
X203890Y326772D01*
X204470Y328172D01*
Y329688D01*
X203890Y331088D01*
X202818Y332160D01*
X201418Y332740D01*
X199902D01*
X198502Y332160D01*
X197430Y331088D01*
X197114Y330326D01*
X196733Y330180D01*
X195943Y330152D01*
X192516Y333579D01*
X192936Y334595D01*
X204032D01*
X215339Y323289D01*
X216179Y322727D01*
X217170Y322530D01*
X255538D01*
X255846Y321514D01*
X255653Y321385D01*
X253037Y318770D01*
X245160D01*
Y301230D01*
X256700D01*
Y315107D01*
X258557Y316964D01*
X260578D01*
X260732Y316810D01*
X262132Y316230D01*
X263648D01*
X265048Y316810D01*
X266120Y317882D01*
X266700Y319282D01*
Y320021D01*
X267716Y320442D01*
X272418Y315739D01*
Y299046D01*
X272200Y298120D01*
X271402Y298120D01*
X254660D01*
Y286580D01*
X271159Y286580D01*
X271498Y286000D01*
X271159Y285420D01*
X254660D01*
Y273880D01*
X271159Y273880D01*
X271498Y273300D01*
X271159Y272720D01*
X254660D01*
Y261180D01*
X271159Y261180D01*
X271498Y260600D01*
X271159Y260020D01*
X254660D01*
Y248480D01*
X272200D01*
Y250471D01*
X273216Y250891D01*
X276651Y247457D01*
X277491Y246895D01*
X278482Y246698D01*
X302735D01*
X304800Y244633D01*
Y244352D01*
X305380Y242952D01*
X306452Y241880D01*
X307852Y241300D01*
X309368D01*
X310768Y241880D01*
X311840Y242952D01*
X312420Y244352D01*
Y245868D01*
X311840Y247268D01*
X310768Y248340D01*
X309368Y248920D01*
X307852D01*
X307842Y248916D01*
X305639Y251119D01*
X304799Y251681D01*
X303808Y251878D01*
X279555D01*
X277114Y254318D01*
X277400Y254747D01*
X277598Y255738D01*
Y316812D01*
X277400Y317803D01*
X276839Y318643D01*
X269538Y325944D01*
X269959Y326960D01*
X274867D01*
X279649Y322179D01*
X280489Y321617D01*
X281480Y321420D01*
X284550D01*
Y317490D01*
X306590D01*
Y330530D01*
X284550D01*
Y326600D01*
X282553D01*
X278530Y330622D01*
Y339000D01*
X262490D01*
Y335450D01*
X250590D01*
Y338880D01*
X238213D01*
X237461Y339631D01*
X237850Y340570D01*
X241300D01*
Y346590D01*
X233280D01*
Y345140D01*
X232341Y344751D01*
X229821Y347271D01*
X228981Y347833D01*
X227990Y348030D01*
X186571D01*
Y352021D01*
X182572D01*
Y356117D01*
X183212Y356757D01*
X183792Y358157D01*
Y359673D01*
X183212Y361073D01*
X182572Y361714D01*
Y365529D01*
X187167D01*
Y378691D01*
X179120D01*
Y386097D01*
X178923Y387088D01*
X178361Y387928D01*
X155712Y410577D01*
Y418955D01*
X139672D01*
Y415525D01*
X128152D01*
Y417585D01*
X127242D01*
Y417705D01*
X127045Y418696D01*
X126483Y419536D01*
X120333Y425686D01*
X120722Y426625D01*
X122172D01*
Y434645D01*
X116152D01*
Y431195D01*
X115213Y430806D01*
X114462Y431557D01*
Y443935D01*
X102539Y443935D01*
X102122Y444070D01*
X101566Y444322D01*
X100827Y446108D01*
X99398Y447537D01*
X97790Y448203D01*
D02*
G37*
G36*
X717168Y442540D02*
X716270D01*
Y416270D01*
X742540D01*
Y417168D01*
X741862Y421449D01*
X740522Y425572D01*
X738554Y429434D01*
X736006Y432941D01*
X732941Y436006D01*
X729434Y438554D01*
X725572Y440522D01*
X721449Y441862D01*
X717168Y442540D01*
D02*
G37*
G36*
X713730D02*
X712832D01*
X708551Y441862D01*
X704428Y440522D01*
X700566Y438554D01*
X697059Y436006D01*
X693994Y432941D01*
X691446Y429434D01*
X689478Y425572D01*
X688138Y421449D01*
X687460Y417168D01*
Y416270D01*
X713730D01*
Y442540D01*
D02*
G37*
G36*
X37167D02*
X36270D01*
Y416270D01*
X62540D01*
Y417168D01*
X61862Y421449D01*
X60522Y425572D01*
X58554Y429434D01*
X56006Y432941D01*
X52941Y436006D01*
X49434Y438554D01*
X45572Y440522D01*
X41449Y441862D01*
X37167Y442540D01*
D02*
G37*
G36*
X33730D02*
X32833D01*
X28551Y441862D01*
X24428Y440522D01*
X20566Y438554D01*
X17059Y436006D01*
X13994Y432941D01*
X11446Y429434D01*
X9478Y425572D01*
X8138Y421449D01*
X7460Y417168D01*
Y416270D01*
X33730D01*
Y442540D01*
D02*
G37*
G36*
X278720Y428090D02*
X266800D01*
Y416170D01*
X267267D01*
X270621Y417069D01*
X273629Y418805D01*
X276085Y421261D01*
X277821Y424269D01*
X278720Y427623D01*
Y428090D01*
D02*
G37*
G36*
X264260D02*
X252340D01*
Y427623D01*
X253239Y424269D01*
X254975Y421261D01*
X257431Y418805D01*
X260439Y417069D01*
X263794Y416170D01*
X264260D01*
Y428090D01*
D02*
G37*
G36*
X227720D02*
X215800D01*
Y416170D01*
X216266D01*
X219621Y417069D01*
X222629Y418805D01*
X225085Y421261D01*
X226821Y424269D01*
X227720Y427623D01*
Y428090D01*
D02*
G37*
G36*
X213260D02*
X201340D01*
Y427623D01*
X202239Y424269D01*
X203975Y421261D01*
X206431Y418805D01*
X209439Y417069D01*
X212794Y416170D01*
X213260D01*
Y428090D01*
D02*
G37*
G36*
X624840Y415182D02*
Y411480D01*
X628543D01*
X627877Y413088D01*
X626448Y414517D01*
X624840Y415182D01*
D02*
G37*
G36*
X455860Y411800D02*
X444840D01*
Y405280D01*
X455860D01*
Y411800D01*
D02*
G37*
G36*
X442300D02*
X431280D01*
Y405280D01*
X442300D01*
Y411800D01*
D02*
G37*
G36*
X628543Y408940D02*
X624840D01*
Y405238D01*
X626448Y405903D01*
X627877Y407332D01*
X628543Y408940D01*
D02*
G37*
G36*
X598420Y444680D02*
X580880D01*
Y433140D01*
X594757D01*
X607910Y419987D01*
Y412680D01*
X601730D01*
Y401140D01*
X619270D01*
Y405998D01*
X620209Y406387D01*
X620692Y405903D01*
X622300Y405238D01*
Y410210D01*
Y415182D01*
X620692Y414517D01*
X619263Y413088D01*
X619095Y412680D01*
X613090D01*
Y421060D01*
X612893Y422051D01*
X612331Y422891D01*
X604291Y430931D01*
X604680Y431870D01*
X609230D01*
Y437640D01*
X600460D01*
Y436090D01*
X599521Y435701D01*
X598420Y436802D01*
Y444680D01*
D02*
G37*
G36*
X241283Y413380D02*
X238777D01*
X236355Y412731D01*
X234185Y411478D01*
X232412Y409705D01*
X231159Y407535D01*
X230510Y405113D01*
Y402607D01*
X231159Y400185D01*
X232412Y398015D01*
X234185Y396242D01*
X236355Y394989D01*
X238777Y394340D01*
X241283D01*
X243705Y394989D01*
X245875Y396242D01*
X247648Y398015D01*
X248901Y400185D01*
X249400Y402048D01*
X284550D01*
Y397490D01*
X306590D01*
Y410530D01*
X284550D01*
Y405822D01*
X249360D01*
X248901Y407535D01*
X247648Y409705D01*
X245875Y411478D01*
X243705Y412731D01*
X241283Y413380D01*
D02*
G37*
G36*
X455860Y402740D02*
X444840D01*
Y396220D01*
X455860D01*
Y402740D01*
D02*
G37*
G36*
X442300D02*
X431280D01*
Y396220D01*
X442300D01*
Y402740D01*
D02*
G37*
G36*
X742540Y413730D02*
X716270D01*
Y387460D01*
X717168D01*
X721449Y388138D01*
X725572Y389478D01*
X729434Y391446D01*
X732941Y393994D01*
X736006Y397059D01*
X738554Y400566D01*
X740522Y404428D01*
X741862Y408551D01*
X742540Y412832D01*
Y413730D01*
D02*
G37*
G36*
X713730D02*
X687460D01*
Y412832D01*
X688138Y408551D01*
X689478Y404428D01*
X691446Y400566D01*
X693994Y397059D01*
X697059Y393994D01*
X700566Y391446D01*
X704428Y389478D01*
X708551Y388138D01*
X712832Y387460D01*
X713730D01*
Y413730D01*
D02*
G37*
G36*
X62540D02*
X36270D01*
Y387460D01*
X37167D01*
X41449Y388138D01*
X45572Y389478D01*
X49434Y391446D01*
X52941Y393994D01*
X56006Y397059D01*
X58554Y400566D01*
X60522Y404428D01*
X61862Y408551D01*
X62540Y412832D01*
Y413730D01*
D02*
G37*
G36*
X33730D02*
X7460D01*
Y412832D01*
X8138Y408551D01*
X9478Y404428D01*
X11446Y400566D01*
X13994Y397059D01*
X17059Y393994D01*
X20566Y391446D01*
X24428Y389478D01*
X28551Y388138D01*
X32833Y387460D01*
X33730D01*
Y413730D01*
D02*
G37*
G36*
X307860Y391800D02*
X296840D01*
Y385280D01*
X307860D01*
Y391800D01*
D02*
G37*
G36*
X294300D02*
X283280D01*
Y385280D01*
X294300D01*
Y391800D01*
D02*
G37*
G36*
X267267Y391550D02*
X266800D01*
Y379630D01*
X278720D01*
Y380097D01*
X277821Y383451D01*
X276085Y386459D01*
X273629Y388915D01*
X270621Y390651D01*
X267267Y391550D01*
D02*
G37*
G36*
X216266D02*
X215800D01*
Y379630D01*
X227720D01*
Y380097D01*
X226821Y383451D01*
X225085Y386459D01*
X222629Y388915D01*
X219621Y390651D01*
X216266Y391550D01*
D02*
G37*
G36*
X264260D02*
X263794D01*
X260439Y390651D01*
X257431Y388915D01*
X254975Y386459D01*
X253239Y383451D01*
X252340Y380097D01*
Y379630D01*
X264260D01*
Y391550D01*
D02*
G37*
G36*
X213260D02*
X212794D01*
X209439Y390651D01*
X206431Y388915D01*
X203975Y386459D01*
X202239Y383451D01*
X201340Y380097D01*
Y379630D01*
X213260D01*
Y391550D01*
D02*
G37*
G36*
X454590Y390530D02*
X432550D01*
Y377490D01*
X454590D01*
Y390530D01*
D02*
G37*
G36*
X307860Y382740D02*
X296840D01*
Y376220D01*
X307860D01*
Y382740D01*
D02*
G37*
G36*
X294300D02*
X283280D01*
Y376220D01*
X294300D01*
Y382740D01*
D02*
G37*
G36*
X114300Y369463D02*
Y365760D01*
X118003D01*
X117337Y367368D01*
X115908Y368797D01*
X114300Y369463D01*
D02*
G37*
G36*
X111760D02*
X110152Y368797D01*
X108723Y367368D01*
X108057Y365760D01*
X111760D01*
Y369463D01*
D02*
G37*
G36*
X278720Y377090D02*
X266800D01*
Y365170D01*
X267267D01*
X270621Y366069D01*
X273629Y367805D01*
X276085Y370261D01*
X277821Y373269D01*
X278720Y376623D01*
Y377090D01*
D02*
G37*
G36*
X264260D02*
X252340D01*
Y376623D01*
X253239Y373269D01*
X254975Y370261D01*
X257431Y367805D01*
X260439Y366069D01*
X263794Y365170D01*
X264260D01*
Y377090D01*
D02*
G37*
G36*
X227720D02*
X215800D01*
Y365170D01*
X216266D01*
X219621Y366069D01*
X222629Y367805D01*
X225085Y370261D01*
X226821Y373269D01*
X227720Y376623D01*
Y377090D01*
D02*
G37*
G36*
X213260D02*
X201340D01*
Y376623D01*
X202239Y373269D01*
X203975Y370261D01*
X206431Y367805D01*
X209439Y366069D01*
X212794Y365170D01*
X213260D01*
Y377090D01*
D02*
G37*
G36*
X528570Y444680D02*
X511030D01*
Y433140D01*
X517210D01*
Y424760D01*
X517407Y423769D01*
X517969Y422929D01*
X527279Y413619D01*
X526890Y412680D01*
X511030D01*
Y406634D01*
X495093Y390697D01*
X494251Y389437D01*
X493955Y387950D01*
Y370390D01*
X489820D01*
Y358350D01*
X505860D01*
Y360485D01*
X516490D01*
Y358350D01*
X532530D01*
Y360485D01*
X541890D01*
Y358350D01*
X557930D01*
Y360485D01*
X567290D01*
Y358350D01*
X583330D01*
Y360425D01*
X593960D01*
Y358230D01*
X610000D01*
Y360380D01*
X620630D01*
Y358260D01*
X636670D01*
Y370300D01*
X632535D01*
Y377451D01*
X656224Y401140D01*
X668270D01*
Y407186D01*
X678387Y417303D01*
X678599Y417621D01*
X678870Y417892D01*
X679016Y418245D01*
X679229Y418563D01*
X679304Y418939D01*
X679450Y419292D01*
Y419675D01*
X679525Y420050D01*
X679450Y420425D01*
Y420808D01*
X679304Y421161D01*
X679229Y421537D01*
X679016Y421855D01*
X678870Y422208D01*
X678599Y422479D01*
X678387Y422797D01*
X678069Y423009D01*
X677798Y423280D01*
X677445Y423426D01*
X677127Y423639D01*
X676751Y423714D01*
X676398Y423860D01*
X676015D01*
X675640Y423935D01*
X675265Y423860D01*
X674882D01*
X674529Y423714D01*
X674153Y423639D01*
X673835Y423426D01*
X673482Y423280D01*
X673211Y423009D01*
X672893Y422797D01*
X662776Y412680D01*
X650730D01*
Y406634D01*
X625903Y381807D01*
X625061Y380547D01*
X624765Y379060D01*
Y370300D01*
X620630D01*
Y368150D01*
X610000D01*
Y370270D01*
X593960D01*
Y368195D01*
X583330D01*
Y370390D01*
X579195D01*
Y393961D01*
X586374Y401140D01*
X598420D01*
Y412680D01*
X580880D01*
Y406634D01*
X572563Y398317D01*
X571721Y397057D01*
X571425Y395570D01*
Y370390D01*
X567290D01*
Y368255D01*
X557930D01*
Y370390D01*
X541890D01*
Y368255D01*
X532530D01*
Y370390D01*
X516490D01*
Y368255D01*
X505860D01*
Y370390D01*
X501725D01*
Y386341D01*
X516524Y401140D01*
X528570D01*
Y411000D01*
X529509Y411389D01*
X531880Y409017D01*
Y401140D01*
X549420D01*
Y412680D01*
X535542D01*
X522390Y425833D01*
Y433140D01*
X528570D01*
Y444680D01*
D02*
G37*
G36*
X65370Y362100D02*
X58850D01*
Y357580D01*
X65370D01*
Y362100D01*
D02*
G37*
G36*
X23870D02*
X17350D01*
Y357580D01*
X23870D01*
Y362100D01*
D02*
G37*
G36*
X56310D02*
X49790D01*
Y357580D01*
X56310D01*
Y362100D01*
D02*
G37*
G36*
X14810D02*
X8290D01*
Y357580D01*
X14810D01*
Y362100D01*
D02*
G37*
G36*
X306590Y370530D02*
X284550D01*
Y357490D01*
X306590D01*
Y370530D01*
D02*
G37*
G36*
X224790Y359302D02*
Y355600D01*
X228493D01*
X227827Y357208D01*
X226398Y358637D01*
X224790Y359302D01*
D02*
G37*
G36*
X222250D02*
X220642Y358637D01*
X219213Y357208D01*
X218547Y355600D01*
X222250D01*
Y359302D01*
D02*
G37*
G36*
X118116Y363220D02*
X107944D01*
X107450Y362480D01*
X103240D01*
Y354710D01*
X122820D01*
Y362480D01*
X118610D01*
X118116Y363220D01*
D02*
G37*
G36*
X479570Y412680D02*
X462030D01*
Y401140D01*
X468580D01*
Y366672D01*
X464589D01*
Y353495D01*
X477751D01*
Y366672D01*
X473760D01*
Y401140D01*
X479570D01*
Y412680D01*
D02*
G37*
G36*
X507130Y356660D02*
X499110D01*
Y350640D01*
X507130D01*
Y356660D01*
D02*
G37*
G36*
X584600D02*
X576580D01*
Y350640D01*
X584600D01*
Y356660D01*
D02*
G37*
G36*
X559200D02*
X551180D01*
Y350640D01*
X559200D01*
Y356660D01*
D02*
G37*
G36*
X533800D02*
X525780D01*
Y350640D01*
X533800D01*
Y356660D01*
D02*
G37*
G36*
X496570D02*
X488550D01*
Y350640D01*
X496570D01*
Y356660D01*
D02*
G37*
G36*
X574040D02*
X566020D01*
Y350640D01*
X574040D01*
Y356660D01*
D02*
G37*
G36*
X548640D02*
X540620D01*
Y350640D01*
X548640D01*
Y356660D01*
D02*
G37*
G36*
X523240D02*
X515220D01*
Y350640D01*
X523240D01*
Y356660D01*
D02*
G37*
G36*
X637940Y356570D02*
X629920D01*
Y350550D01*
X637940D01*
Y356570D01*
D02*
G37*
G36*
X627380D02*
X619360D01*
Y350550D01*
X627380D01*
Y356570D01*
D02*
G37*
G36*
X611270Y356540D02*
X603250D01*
Y350520D01*
X611270D01*
Y356540D01*
D02*
G37*
G36*
X600710D02*
X592690D01*
Y350520D01*
X600710D01*
Y356540D01*
D02*
G37*
G36*
X65370Y355040D02*
X58850D01*
Y350520D01*
X65370D01*
Y355040D01*
D02*
G37*
G36*
X56310D02*
X49790D01*
Y350520D01*
X56310D01*
Y355040D01*
D02*
G37*
G36*
X23870D02*
X17350D01*
Y350520D01*
X23870D01*
Y355040D01*
D02*
G37*
G36*
X14810D02*
X8290D01*
Y350520D01*
X14810D01*
Y355040D01*
D02*
G37*
G36*
X394743Y357461D02*
X393228D01*
X391827Y356880D01*
X390756Y355809D01*
X390176Y354408D01*
Y352893D01*
X390756Y351492D01*
X391827Y350421D01*
X393228Y349841D01*
X394743D01*
X396144Y350421D01*
X397215Y351492D01*
X397795Y352893D01*
Y354408D01*
X397215Y355809D01*
X396144Y356880D01*
X394743Y357461D01*
D02*
G37*
G36*
X228493Y353060D02*
X224790D01*
Y349357D01*
X226398Y350023D01*
X227827Y351452D01*
X228493Y353060D01*
D02*
G37*
G36*
X222250D02*
X218547D01*
X219213Y351452D01*
X220642Y350023D01*
X222250Y349357D01*
Y353060D01*
D02*
G37*
G36*
X279800Y355270D02*
X271780D01*
Y349250D01*
X279800D01*
Y355270D01*
D02*
G37*
G36*
X269240D02*
X261220D01*
Y349250D01*
X269240D01*
Y355270D01*
D02*
G37*
G36*
X251860Y355150D02*
X243840D01*
Y349130D01*
X251860D01*
Y355150D01*
D02*
G37*
G36*
X241300D02*
X233280D01*
Y349130D01*
X241300D01*
Y355150D01*
D02*
G37*
G36*
X690951Y365420D02*
X688049D01*
X685246Y364669D01*
X682734Y363218D01*
X680682Y361166D01*
X679231Y358654D01*
X678480Y355851D01*
Y352949D01*
X679231Y350146D01*
X680682Y347634D01*
X682734Y345582D01*
X685246Y344131D01*
X688049Y343380D01*
X690951D01*
X693754Y344131D01*
X696266Y345582D01*
X698318Y347634D01*
X699769Y350146D01*
X700520Y352949D01*
Y355851D01*
X699769Y358654D01*
X698318Y361166D01*
X696266Y363218D01*
X693754Y364669D01*
X690951Y365420D01*
D02*
G37*
G36*
X627380Y348010D02*
X619360D01*
Y343031D01*
X618344Y342610D01*
X617558Y343397D01*
X615950Y344062D01*
Y340360D01*
X619652D01*
X619398Y340974D01*
X620077Y341990D01*
X627380D01*
Y348010D01*
D02*
G37*
G36*
X584600Y348100D02*
X576580D01*
Y342080D01*
X584600D01*
Y348100D01*
D02*
G37*
G36*
X574040D02*
X566020D01*
Y342080D01*
X574040D01*
Y348100D01*
D02*
G37*
G36*
X559200D02*
X551180D01*
Y342080D01*
X559200D01*
Y348100D01*
D02*
G37*
G36*
X548640D02*
X540620D01*
Y342080D01*
X548640D01*
Y348100D01*
D02*
G37*
G36*
X507130D02*
X499110D01*
Y342080D01*
X507130D01*
Y348100D01*
D02*
G37*
G36*
X496570D02*
X488550D01*
Y342080D01*
X496570D01*
Y348100D01*
D02*
G37*
G36*
X637940Y348010D02*
X629920D01*
Y341990D01*
X637940D01*
Y348010D01*
D02*
G37*
G36*
X600710Y347980D02*
X592690D01*
Y341960D01*
X600710D01*
Y347980D01*
D02*
G37*
G36*
X279800Y346710D02*
X271780D01*
Y340690D01*
X279800D01*
Y346710D01*
D02*
G37*
G36*
X269240D02*
X261220D01*
Y340690D01*
X269240D01*
Y346710D01*
D02*
G37*
G36*
X251860Y346590D02*
X243840D01*
Y340570D01*
X251860D01*
Y346590D01*
D02*
G37*
G36*
X611270Y347980D02*
X603250D01*
Y341960D01*
X609456D01*
X610020Y341115D01*
X609707Y340360D01*
X613410D01*
Y344062D01*
X612286Y343597D01*
X611270Y344192D01*
Y347980D01*
D02*
G37*
G36*
X122820Y352170D02*
X103240D01*
Y344400D01*
X104510D01*
Y339736D01*
X92941D01*
Y343855D01*
X79779D01*
Y337280D01*
X64100D01*
Y339330D01*
X51060D01*
Y337280D01*
X22600D01*
Y339330D01*
X9560D01*
Y330290D01*
X22600D01*
Y332100D01*
X51060D01*
Y330290D01*
X64100D01*
Y332100D01*
X79779D01*
Y330678D01*
X92941D01*
Y334556D01*
X104510D01*
Y329670D01*
X108147D01*
X108512Y329195D01*
X108636Y328654D01*
X108530Y328548D01*
X108384Y328195D01*
X108171Y327877D01*
X108096Y327501D01*
X107950Y327148D01*
Y326765D01*
X107875Y326390D01*
Y318770D01*
X105460D01*
Y301230D01*
X117000D01*
Y318770D01*
X115645D01*
Y326390D01*
X115570Y326765D01*
Y327148D01*
X115424Y327501D01*
X115349Y327877D01*
X115136Y328195D01*
X114990Y328548D01*
X114884Y328654D01*
X115008Y329195D01*
X115372Y329670D01*
X121550D01*
Y333200D01*
X122489Y333589D01*
X127000Y329077D01*
Y328172D01*
X127580Y326772D01*
X128652Y325700D01*
X130052Y325120D01*
X131568D01*
X132968Y325700D01*
X134040Y326772D01*
X134620Y328172D01*
Y329688D01*
X134040Y331088D01*
X132968Y332160D01*
X131568Y332740D01*
X130662D01*
X124425Y338977D01*
X123585Y339539D01*
X122594Y339736D01*
X121550D01*
Y344400D01*
X122820D01*
Y352170D01*
D02*
G37*
G36*
X533800Y348100D02*
X524510D01*
X515220D01*
Y342080D01*
X525338D01*
X525727Y341141D01*
X525283Y340698D01*
X524618Y339090D01*
X534562D01*
X533897Y340698D01*
X533423Y341171D01*
X533800Y342080D01*
X533800D01*
Y348100D01*
D02*
G37*
G36*
X306590Y350530D02*
X284550D01*
Y337490D01*
X306590D01*
Y350530D01*
D02*
G37*
G36*
X619652Y337820D02*
X615950D01*
Y334118D01*
X617558Y334783D01*
X618987Y336212D01*
X619652Y337820D01*
D02*
G37*
G36*
X613410D02*
X609707D01*
X610373Y336212D01*
X611802Y334783D01*
X613410Y334118D01*
Y337820D01*
D02*
G37*
G36*
X511810Y337713D02*
Y334010D01*
X515513D01*
X514847Y335618D01*
X513418Y337047D01*
X511810Y337713D01*
D02*
G37*
G36*
X509270D02*
X507662Y337047D01*
X506233Y335618D01*
X505568Y334010D01*
X509270D01*
Y337713D01*
D02*
G37*
G36*
X534562Y336550D02*
X530860D01*
Y332848D01*
X532468Y333513D01*
X533897Y334942D01*
X534562Y336550D01*
D02*
G37*
G36*
X528320D02*
X524618D01*
X525283Y334942D01*
X526712Y333513D01*
X528320Y332848D01*
Y336550D01*
D02*
G37*
G36*
X515513Y331470D02*
X511810D01*
Y327767D01*
X513418Y328433D01*
X514847Y329862D01*
X515513Y331470D01*
D02*
G37*
G36*
X509270D02*
X505568D01*
X506233Y329862D01*
X507662Y328433D01*
X509270Y327767D01*
Y331470D01*
D02*
G37*
G36*
X87630Y328823D02*
Y325120D01*
X91333D01*
X90667Y326728D01*
X89238Y328157D01*
X87630Y328823D01*
D02*
G37*
G36*
X85090D02*
X83482Y328157D01*
X82053Y326728D01*
X81388Y325120D01*
X85090D01*
Y328823D01*
D02*
G37*
G36*
X574040Y323742D02*
Y320040D01*
X577743D01*
X577077Y321648D01*
X575648Y323077D01*
X574040Y323742D01*
D02*
G37*
G36*
X571500D02*
X569892Y323077D01*
X568463Y321648D01*
X567798Y320040D01*
X571500D01*
Y323742D01*
D02*
G37*
G36*
X502408Y327660D02*
X500892D01*
X499492Y327080D01*
X498420Y326008D01*
X497840Y324608D01*
Y323092D01*
X498420Y321692D01*
X499492Y320620D01*
X500892Y320040D01*
X502408D01*
X503808Y320620D01*
X504880Y321692D01*
X505460Y323092D01*
Y324608D01*
X504880Y326008D01*
X503808Y327080D01*
X502408Y327660D01*
D02*
G37*
G36*
X477751Y350085D02*
X464589D01*
Y336908D01*
X467933D01*
Y334010D01*
X468179Y332771D01*
X468881Y331721D01*
X477527Y323075D01*
X478100Y321692D01*
X479172Y320620D01*
X480572Y320040D01*
X482088D01*
X483488Y320620D01*
X484560Y321692D01*
X485140Y323092D01*
Y324608D01*
X484560Y326008D01*
X483488Y327080D01*
X482105Y327653D01*
X474407Y335351D01*
Y336908D01*
X477751D01*
Y350085D01*
D02*
G37*
G36*
X454590Y370530D02*
X432550D01*
Y357490D01*
X450928D01*
X457150Y351267D01*
Y320798D01*
X457347Y319807D01*
X456508Y319235D01*
X454590Y321152D01*
Y330530D01*
X432550D01*
Y317490D01*
X450928D01*
X457200Y311217D01*
Y310392D01*
X457780Y308992D01*
X458852Y307920D01*
X460252Y307340D01*
X461768D01*
X463168Y307920D01*
X464240Y308992D01*
X464820Y310392D01*
Y310619D01*
X465836Y311039D01*
X475584Y301292D01*
Y300160D01*
X476164Y298759D01*
X477236Y297688D01*
X478636Y297108D01*
X480152D01*
X481552Y297688D01*
X482624Y298759D01*
X483204Y300160D01*
Y301675D01*
X482624Y303076D01*
X481552Y304147D01*
X480152Y304728D01*
X479473D01*
X462330Y321871D01*
Y352340D01*
X462133Y353331D01*
X461571Y354171D01*
X454590Y361152D01*
Y370530D01*
D02*
G37*
G36*
X577743Y317500D02*
X574040D01*
Y313797D01*
X575648Y314463D01*
X577077Y315892D01*
X577743Y317500D01*
D02*
G37*
G36*
X571500D02*
X567798D01*
X568463Y315892D01*
X569892Y314463D01*
X571500Y313797D01*
Y317500D01*
D02*
G37*
G36*
X576068Y311150D02*
X574552D01*
X573152Y310570D01*
X572080Y309498D01*
X571500Y308098D01*
Y306582D01*
X572080Y305182D01*
X573152Y304110D01*
X574552Y303530D01*
X576068D01*
X577468Y304110D01*
X578540Y305182D01*
X579120Y306582D01*
Y308098D01*
X578540Y309498D01*
X577468Y310570D01*
X576068Y311150D01*
D02*
G37*
G36*
X244000Y318770D02*
X232460D01*
Y301230D01*
X244000D01*
Y318770D01*
D02*
G37*
G36*
X231300D02*
X219760D01*
Y301230D01*
X231300D01*
Y318770D01*
D02*
G37*
G36*
X218600D02*
X207060D01*
Y301230D01*
X218600D01*
Y318770D01*
D02*
G37*
G36*
X180500D02*
X168960D01*
Y301230D01*
X180500D01*
Y318770D01*
D02*
G37*
G36*
X84560Y308730D02*
X78790D01*
Y299960D01*
X84560D01*
Y308730D01*
D02*
G37*
G36*
X409698Y306070D02*
X408182D01*
X406782Y305490D01*
X405710Y304418D01*
X405130Y303018D01*
Y301502D01*
X405710Y300102D01*
X406782Y299030D01*
X408182Y298450D01*
X409698D01*
X411098Y299030D01*
X412170Y300102D01*
X412750Y301502D01*
Y303018D01*
X412170Y304418D01*
X411098Y305490D01*
X409698Y306070D01*
D02*
G37*
G36*
X507482Y304352D02*
X505966D01*
X504566Y303772D01*
X503494Y302700D01*
X502914Y301300D01*
Y299784D01*
X503494Y298384D01*
X504566Y297312D01*
X505966Y296732D01*
X507482D01*
X508882Y297312D01*
X509954Y298384D01*
X510534Y299784D01*
Y301300D01*
X509954Y302700D01*
X508882Y303772D01*
X507482Y304352D01*
D02*
G37*
G36*
X690951Y314620D02*
X688049D01*
X685246Y313869D01*
X682734Y312418D01*
X680682Y310366D01*
X679231Y307854D01*
X678480Y305051D01*
Y302149D01*
X679231Y299346D01*
X680682Y296834D01*
X682734Y294782D01*
X685246Y293331D01*
X688049Y292580D01*
X690951D01*
X693754Y293331D01*
X696266Y294782D01*
X698318Y296834D01*
X699769Y299346D01*
X700520Y302149D01*
Y305051D01*
X699769Y307854D01*
X698318Y310366D01*
X696266Y312418D01*
X693754Y313869D01*
X690951Y314620D01*
D02*
G37*
G36*
X306590Y310530D02*
X284550D01*
Y297490D01*
X302012D01*
X307340Y292162D01*
Y291342D01*
X307920Y289942D01*
X308992Y288870D01*
X310392Y288290D01*
X311908D01*
X313308Y288870D01*
X314380Y289942D01*
X314960Y291342D01*
Y292858D01*
X314380Y294258D01*
X313308Y295330D01*
X313275Y295344D01*
X313196Y295462D01*
X306590Y302068D01*
Y310530D01*
D02*
G37*
G36*
X454590Y290530D02*
X432550D01*
Y286600D01*
X421170D01*
X420179Y286403D01*
X419339Y285841D01*
X414168Y280670D01*
X413262D01*
X411862Y280090D01*
X410790Y279018D01*
X410210Y277618D01*
Y276102D01*
X410790Y274702D01*
X411862Y273630D01*
X413262Y273050D01*
X414778D01*
X416178Y273630D01*
X417250Y274702D01*
X417830Y276102D01*
Y277008D01*
X422243Y281420D01*
X432550D01*
Y277490D01*
X454590D01*
Y290530D01*
D02*
G37*
G36*
X306590D02*
X284550D01*
Y277490D01*
X306590D01*
Y290530D01*
D02*
G37*
G36*
X91333Y322580D02*
X81388D01*
X82019Y321056D01*
X81658Y320040D01*
X78790D01*
Y311270D01*
X85830D01*
Y310000D01*
X87100D01*
Y299960D01*
X92870D01*
Y301230D01*
X95293D01*
Y290090D01*
X95539Y288851D01*
X96241Y287801D01*
X101300Y282742D01*
X102350Y282040D01*
X103589Y281794D01*
X106984D01*
X110740Y278038D01*
X111070Y277242D01*
X112142Y276170D01*
X113542Y275590D01*
X115058D01*
X116458Y276170D01*
X117530Y277242D01*
X118110Y278642D01*
Y280158D01*
X117530Y281558D01*
X116458Y282630D01*
X115058Y283210D01*
X114724D01*
X110614Y287320D01*
X109564Y288022D01*
X108325Y288268D01*
X104930D01*
X101767Y291431D01*
Y301230D01*
X104300D01*
Y318770D01*
X92870D01*
Y320040D01*
X91062D01*
X90701Y321056D01*
X91333Y322580D01*
D02*
G37*
G36*
X454590Y310530D02*
X432550D01*
Y297490D01*
X450012D01*
X460313Y287189D01*
Y275191D01*
X459740Y273808D01*
Y272292D01*
X460320Y270892D01*
X461392Y269820D01*
X462792Y269240D01*
X464308D01*
X465708Y269820D01*
X466780Y270892D01*
X467360Y272292D01*
Y273808D01*
X466787Y275191D01*
Y288530D01*
X466541Y289769D01*
X465839Y290819D01*
X454590Y302068D01*
Y310530D01*
D02*
G37*
G36*
X455860Y271800D02*
X444840D01*
Y265280D01*
X455860D01*
Y271800D01*
D02*
G37*
G36*
X442300D02*
X431280D01*
Y265280D01*
X442300D01*
Y271800D01*
D02*
G37*
G36*
X425450Y267862D02*
Y264160D01*
X429152D01*
X428487Y265768D01*
X427058Y267197D01*
X425450Y267862D01*
D02*
G37*
G36*
X422910D02*
X421302Y267197D01*
X419873Y265768D01*
X419207Y264160D01*
X422910D01*
Y267862D01*
D02*
G37*
G36*
X155100Y318770D02*
X143560D01*
Y301230D01*
X146740D01*
Y271040D01*
X146937Y270049D01*
X147499Y269209D01*
X151130Y265578D01*
Y264672D01*
X151710Y263272D01*
X152782Y262200D01*
X154182Y261620D01*
X155698D01*
X157098Y262200D01*
X158170Y263272D01*
X158750Y264672D01*
Y266188D01*
X158170Y267588D01*
X157098Y268660D01*
X155698Y269240D01*
X154792D01*
X151920Y272113D01*
Y301230D01*
X155100D01*
Y318770D01*
D02*
G37*
G36*
X429152Y261620D02*
X425450D01*
Y257917D01*
X427058Y258583D01*
X428487Y260012D01*
X429152Y261620D01*
D02*
G37*
G36*
X422910D02*
X419207D01*
X419873Y260012D01*
X421302Y258583D01*
X422910Y257917D01*
Y261620D01*
D02*
G37*
G36*
X306590Y270530D02*
X284550D01*
Y257490D01*
X306590D01*
Y270530D01*
D02*
G37*
G36*
X455860Y262740D02*
X444840D01*
Y256220D01*
X455860D01*
Y262740D01*
D02*
G37*
G36*
X442300D02*
X431280D01*
Y256220D01*
X442300D01*
Y262740D01*
D02*
G37*
G36*
X690951Y263820D02*
X688049D01*
X685246Y263069D01*
X682734Y261618D01*
X680682Y259566D01*
X679231Y257054D01*
X678480Y254251D01*
Y251349D01*
X679231Y248546D01*
X680682Y246034D01*
X682734Y243982D01*
X685246Y242531D01*
X688049Y241780D01*
X690951D01*
X693754Y242531D01*
X696266Y243982D01*
X698318Y246034D01*
X699769Y248546D01*
X700520Y251349D01*
Y254251D01*
X699769Y257054D01*
X698318Y259566D01*
X696266Y261618D01*
X693754Y263069D01*
X690951Y263820D01*
D02*
G37*
G36*
X454590Y350530D02*
X432550D01*
Y341152D01*
X292809Y201411D01*
X292247Y200571D01*
X292062Y199641D01*
X285762Y193340D01*
X272200D01*
Y196520D01*
X254660D01*
Y184980D01*
X272200D01*
Y188160D01*
X284669D01*
X285032Y187144D01*
X284627Y186539D01*
X284430Y185548D01*
Y155970D01*
X284627Y154979D01*
X285189Y154139D01*
X289450Y149878D01*
Y136000D01*
X309990D01*
Y142140D01*
X322918D01*
X323909Y142337D01*
X324749Y142899D01*
X335207Y153356D01*
X336145Y152968D01*
Y128740D01*
X336548Y127768D01*
X337520Y127365D01*
X363520D01*
X364492Y127768D01*
X364895Y128740D01*
Y155740D01*
X364492Y156712D01*
X363520Y157115D01*
X340293D01*
X339904Y158053D01*
X348806Y166955D01*
X371740D01*
X372160Y165939D01*
X371654Y165432D01*
X371074Y164032D01*
Y162516D01*
X371654Y161116D01*
X372725Y160044D01*
X374126Y159464D01*
X375642D01*
X377042Y160044D01*
X378114Y161116D01*
X378694Y162516D01*
Y164032D01*
X378114Y165432D01*
X377607Y165939D01*
X378028Y166955D01*
X406227D01*
X407218Y167152D01*
X407920Y167622D01*
X408568Y166832D01*
X408443Y166708D01*
X407777Y165100D01*
X411480D01*
Y168803D01*
X409872Y168137D01*
X409232Y168887D01*
X423285Y182940D01*
X451220D01*
Y178760D01*
X468260D01*
Y192300D01*
X451220D01*
Y188120D01*
X422212D01*
X421221Y187923D01*
X420381Y187361D01*
X414699Y181679D01*
X413760Y182068D01*
Y190500D01*
X403720D01*
Y191770D01*
X402450D01*
Y203310D01*
X393680D01*
Y202977D01*
X393490Y202040D01*
X381444D01*
X379925Y203559D01*
Y211690D01*
X382060D01*
Y227730D01*
X370020D01*
Y223595D01*
X357690D01*
Y227730D01*
X345650D01*
Y211690D01*
X357690D01*
Y215825D01*
X370020D01*
Y211690D01*
X372155D01*
Y202040D01*
X356950Y202040D01*
X356760Y202977D01*
Y203310D01*
X347990D01*
Y191770D01*
Y180230D01*
X356760D01*
Y180563D01*
X356950Y181500D01*
X357776Y181500D01*
X361875D01*
Y175260D01*
X361950Y174885D01*
Y174502D01*
X362096Y174149D01*
X362171Y173773D01*
X362384Y173455D01*
X362530Y173102D01*
X362073Y172162D01*
X362044Y172135D01*
X347733D01*
X346742Y171938D01*
X345902Y171376D01*
X321845Y147320D01*
X309990D01*
Y153540D01*
X310927Y153730D01*
X311260D01*
Y162500D01*
X299720D01*
Y163770D01*
X298450D01*
Y173810D01*
X289610D01*
Y184475D01*
X292938Y187803D01*
X293526D01*
X294517Y188000D01*
X295357Y188561D01*
X298710Y191914D01*
X299615D01*
X301015Y192494D01*
X302087Y193565D01*
X302667Y194966D01*
Y196481D01*
X302087Y197882D01*
X301015Y198954D01*
X299615Y199534D01*
X299583D01*
X299195Y200472D01*
X343231Y244509D01*
X344270Y244111D01*
X344750Y242952D01*
X345822Y241880D01*
X347222Y241300D01*
X348738D01*
X350138Y241880D01*
X351210Y242952D01*
X351790Y244352D01*
Y245868D01*
X351210Y247268D01*
X350138Y248340D01*
X348979Y248820D01*
X348581Y249859D01*
X436213Y337490D01*
X454590D01*
Y350530D01*
D02*
G37*
G36*
X167800Y318770D02*
X156260D01*
Y301230D01*
X159440D01*
Y295082D01*
X159637Y294090D01*
X160199Y293250D01*
X169163Y284286D01*
X168742Y283270D01*
X167531D01*
X165428Y282706D01*
X163542Y281618D01*
X162002Y280078D01*
X160914Y278192D01*
X160350Y276089D01*
Y273911D01*
X160914Y271808D01*
X162002Y269922D01*
X163542Y268382D01*
X165428Y267294D01*
X167531Y266730D01*
X169709D01*
X171812Y267294D01*
X173698Y268382D01*
X175238Y269922D01*
X176326Y271808D01*
X176890Y273911D01*
Y275122D01*
X177906Y275543D01*
X179020Y274429D01*
Y246638D01*
X178380Y245998D01*
X177800Y244598D01*
Y243082D01*
X178380Y241682D01*
X179452Y240610D01*
X179782Y240473D01*
X179580Y239457D01*
X172321D01*
X170938Y240030D01*
X169422D01*
X168022Y239450D01*
X166950Y238378D01*
X166370Y236978D01*
Y235462D01*
X166950Y234062D01*
X168022Y232990D01*
X169422Y232410D01*
X170938D01*
X172321Y232983D01*
X187889D01*
X219711Y201161D01*
X220761Y200459D01*
X222000Y200213D01*
X254660D01*
Y197680D01*
X272200D01*
Y200088D01*
X284605D01*
X285844Y200334D01*
X286894Y201036D01*
X293119Y207261D01*
X293821Y208311D01*
X294067Y209550D01*
Y211675D01*
X294732Y212340D01*
X295528Y212670D01*
X296600Y213742D01*
X297180Y215142D01*
Y216658D01*
X296600Y218058D01*
X295528Y219130D01*
X294128Y219710D01*
X292612D01*
X291212Y219130D01*
X290140Y218058D01*
X289560Y216658D01*
Y216324D01*
X288541Y215305D01*
X287839Y214255D01*
X287593Y213016D01*
Y210891D01*
X283264Y206562D01*
X272200D01*
Y209220D01*
X254660D01*
Y206687D01*
X223341D01*
X191519Y238509D01*
X190469Y239211D01*
X189230Y239457D01*
X183640D01*
X183438Y240473D01*
X183768Y240610D01*
X184840Y241682D01*
X185420Y243082D01*
Y244598D01*
X184840Y245998D01*
X184200Y246638D01*
Y275502D01*
X184003Y276493D01*
X183441Y277333D01*
X164620Y296154D01*
Y301230D01*
X167800D01*
Y318770D01*
D02*
G37*
G36*
X272200Y247320D02*
X254660D01*
Y235780D01*
X265015D01*
X265390Y235705D01*
X265765Y235780D01*
X272200D01*
Y237000D01*
X274957D01*
X276860Y235098D01*
Y234192D01*
X277440Y232792D01*
X278512Y231720D01*
X279912Y231140D01*
X281428D01*
X282828Y231720D01*
X283900Y232792D01*
X284480Y234192D01*
Y235708D01*
X283900Y237108D01*
X282828Y238180D01*
X281428Y238760D01*
X280522D01*
X277861Y241421D01*
X277021Y241983D01*
X276030Y242180D01*
X272200D01*
Y247320D01*
D02*
G37*
G36*
X142240Y228540D02*
X141990D01*
Y222770D01*
X142240D01*
Y228540D01*
D02*
G37*
G36*
X272200Y234620D02*
X254660D01*
Y223080D01*
X272200D01*
Y223294D01*
X272415Y223470D01*
X277872D01*
X278512Y222830D01*
X279912Y222250D01*
X281428D01*
X282828Y222830D01*
X283900Y223902D01*
X284480Y225302D01*
Y226818D01*
X283900Y228218D01*
X282828Y229290D01*
X281428Y229870D01*
X279912D01*
X278512Y229290D01*
X277872Y228650D01*
X273200D01*
X272220Y228845D01*
X272200D01*
Y234620D01*
D02*
G37*
G36*
X343960Y229000D02*
X337940D01*
Y220980D01*
X343960D01*
Y229000D01*
D02*
G37*
G36*
X398330D02*
X392310D01*
Y220980D01*
X398330D01*
Y229000D01*
D02*
G37*
G36*
X389770D02*
X383750D01*
Y220980D01*
X389770D01*
Y229000D01*
D02*
G37*
G36*
X335400D02*
X329380D01*
Y220980D01*
X335400D01*
Y229000D01*
D02*
G37*
G36*
X272200Y221920D02*
X254660D01*
Y210380D01*
X272200D01*
Y213438D01*
X276602D01*
X277242Y212797D01*
X278642Y212217D01*
X280158D01*
X281558Y212797D01*
X282630Y213869D01*
X283210Y215270D01*
Y216785D01*
X282630Y218186D01*
X281558Y219257D01*
X280158Y219837D01*
X278642D01*
X277242Y219257D01*
X276602Y218617D01*
X272200D01*
Y221920D01*
D02*
G37*
G36*
X398330Y218440D02*
X392310D01*
Y210420D01*
X398330D01*
Y218440D01*
D02*
G37*
G36*
X389770D02*
X383750D01*
Y210420D01*
X389770D01*
Y218440D01*
D02*
G37*
G36*
X343960D02*
X337940D01*
Y210420D01*
X343960D01*
Y218440D01*
D02*
G37*
G36*
X335400D02*
X329380D01*
Y210420D01*
X335400D01*
Y218440D01*
D02*
G37*
G36*
X142240Y220230D02*
X141990D01*
Y214460D01*
Y208770D01*
X142240D01*
Y220230D01*
D02*
G37*
G36*
Y206230D02*
X141990D01*
Y200460D01*
Y194770D01*
X142240D01*
Y206230D01*
D02*
G37*
G36*
X413760Y203310D02*
X404990D01*
Y193040D01*
X413760D01*
Y203310D01*
D02*
G37*
G36*
X326450D02*
X317680D01*
Y193040D01*
X326450D01*
Y203310D01*
D02*
G37*
G36*
X690951Y213020D02*
X688049D01*
X685246Y212269D01*
X682734Y210818D01*
X680682Y208766D01*
X679231Y206254D01*
X678480Y203451D01*
Y200549D01*
X679231Y197746D01*
X680682Y195234D01*
X682734Y193182D01*
X685246Y191731D01*
X688049Y190980D01*
X690951D01*
X693754Y191731D01*
X696266Y193182D01*
X698318Y195234D01*
X699769Y197746D01*
X700520Y200549D01*
Y203451D01*
X699769Y206254D01*
X698318Y208766D01*
X696266Y210818D01*
X693754Y212269D01*
X690951Y213020D01*
D02*
G37*
G36*
X184070Y186690D02*
X178300D01*
Y186460D01*
X184070D01*
Y186690D01*
D02*
G37*
G36*
X175760D02*
X164300D01*
Y186460D01*
X175760D01*
Y186690D01*
D02*
G37*
G36*
X161760D02*
X150300D01*
Y186460D01*
X161760D01*
Y186690D01*
D02*
G37*
G36*
X142240Y192230D02*
X141990D01*
Y186460D01*
X147760D01*
Y186690D01*
X142240D01*
Y192230D01*
D02*
G37*
G36*
X590550Y181715D02*
X590550Y181715D01*
X553720D01*
X553720Y181715D01*
X552748Y181312D01*
X548938Y177502D01*
X548535Y176530D01*
X548535Y176530D01*
Y157480D01*
X548535Y157480D01*
X548938Y156508D01*
X551552Y153894D01*
X548837Y151180D01*
X530620D01*
Y156610D01*
X518580D01*
Y140570D01*
X522010D01*
Y132480D01*
X518580D01*
Y116440D01*
X522010D01*
Y108473D01*
X519339Y105801D01*
X518777Y104961D01*
X518737Y104760D01*
X510332D01*
X509241Y105851D01*
X508401Y106413D01*
X507410Y106610D01*
X467760D01*
Y110040D01*
X451720D01*
Y106610D01*
X441990D01*
Y111798D01*
X448265Y118072D01*
X448826Y118913D01*
X449023Y119904D01*
Y129382D01*
X450951Y131309D01*
X451889Y130921D01*
Y130810D01*
X459740D01*
X467591D01*
Y136095D01*
X471731Y140235D01*
X472293Y141075D01*
X472490Y142066D01*
Y152142D01*
X473130Y152782D01*
X473710Y154182D01*
Y155698D01*
X473130Y157098D01*
X472058Y158170D01*
X470658Y158750D01*
X469142D01*
X467742Y158170D01*
X466670Y157098D01*
X466090Y155698D01*
Y154182D01*
X466276Y153732D01*
X465597Y152716D01*
X462330D01*
Y160760D01*
X468260D01*
Y174300D01*
X451220D01*
Y161839D01*
X450375Y161275D01*
X450338Y161290D01*
X448822D01*
X447422Y160710D01*
X446350Y159638D01*
X445777Y158255D01*
X444199Y156677D01*
X443260Y157065D01*
Y162500D01*
X431720D01*
X420180D01*
Y153730D01*
X420513D01*
X421450Y153540D01*
Y142912D01*
X420511Y142523D01*
X419100Y143934D01*
Y144268D01*
X418520Y145668D01*
X417448Y146740D01*
X416048Y147320D01*
X414532D01*
X413132Y146740D01*
X412060Y145668D01*
X411480Y144268D01*
Y142752D01*
X412060Y141352D01*
X413132Y140280D01*
X413928Y139950D01*
X416308Y137570D01*
Y135955D01*
X416554Y134716D01*
X417256Y133666D01*
X419152Y131770D01*
X420202Y131068D01*
X420379Y131033D01*
X421450Y129962D01*
Y117000D01*
X437971D01*
X438468Y115984D01*
X438123Y115540D01*
X421450D01*
X421450Y98000D01*
X420513Y97810D01*
X420180D01*
Y91361D01*
X419164Y90940D01*
X418168Y91937D01*
X416560Y92603D01*
Y87630D01*
Y82657D01*
X418168Y83323D01*
X419164Y84320D01*
X420180Y83899D01*
Y77730D01*
X430450D01*
Y87770D01*
X431720D01*
Y89040D01*
X443260D01*
Y97810D01*
X442927D01*
X441990Y98000D01*
X441990Y98826D01*
Y101430D01*
X451720D01*
Y98000D01*
X467760D01*
Y101430D01*
X506337D01*
X506670Y101098D01*
Y91220D01*
X523710D01*
Y101970D01*
X523760Y102220D01*
Y102897D01*
X526431Y105569D01*
X526993Y106409D01*
X527190Y107400D01*
Y116440D01*
X530620D01*
Y132480D01*
X527190D01*
Y140570D01*
X530620D01*
Y146000D01*
X549910D01*
X550901Y146197D01*
X551741Y146759D01*
X557278Y152295D01*
X559501D01*
X562505Y149291D01*
Y97790D01*
X562908Y96818D01*
X562908Y96818D01*
X564703Y95023D01*
X564314Y94085D01*
X554562D01*
X554254Y95101D01*
X554887Y95523D01*
X555602Y96594D01*
X555853Y97858D01*
Y102440D01*
X549870D01*
Y94557D01*
X552295D01*
X552505Y94150D01*
X552645Y93579D01*
X548938Y89872D01*
X548535Y88900D01*
X548535Y88900D01*
Y66040D01*
X548535Y66040D01*
X548938Y65068D01*
X552748Y61258D01*
X553720Y60855D01*
X553720Y60855D01*
X591820D01*
X592792Y61258D01*
X592792Y61258D01*
X595332Y63798D01*
X595735Y64770D01*
X595735Y64770D01*
Y88900D01*
X595735Y88900D01*
X595332Y89872D01*
X591522Y93682D01*
X590550Y94085D01*
X590550Y94085D01*
X579956D01*
X579567Y95023D01*
X581362Y96818D01*
X581765Y97790D01*
X581765Y97790D01*
Y149291D01*
X584769Y152295D01*
X591820D01*
X592792Y152698D01*
X592792Y152698D01*
X595332Y155238D01*
X595735Y156210D01*
X595735Y156210D01*
Y176530D01*
X595735Y176530D01*
X595332Y177502D01*
X591522Y181312D01*
X590550Y181715D01*
D02*
G37*
G36*
X300990Y185312D02*
Y181610D01*
X304692D01*
X304027Y183218D01*
X302598Y184647D01*
X300990Y185312D01*
D02*
G37*
G36*
X298450D02*
X296842Y184647D01*
X295413Y183218D01*
X294748Y181610D01*
X298450D01*
Y185312D01*
D02*
G37*
G36*
X272200Y183820D02*
X254660D01*
Y180390D01*
X251718D01*
X251078Y181030D01*
X249678Y181610D01*
X248162D01*
X246762Y181030D01*
X245690Y179958D01*
X245110Y178558D01*
Y177042D01*
X245690Y175642D01*
X246762Y174570D01*
X248162Y173990D01*
X249678D01*
X251078Y174570D01*
X251718Y175210D01*
X254660D01*
Y172280D01*
X272200D01*
Y183820D01*
D02*
G37*
G36*
X142400Y318770D02*
X130860D01*
Y301230D01*
X133393D01*
Y184961D01*
X128635Y180203D01*
X127774Y180779D01*
X127854Y180972D01*
Y182488D01*
X127274Y183888D01*
X127224Y183937D01*
Y301230D01*
X129700D01*
Y318770D01*
X118160D01*
Y301230D01*
X120750D01*
Y183733D01*
X120234Y182488D01*
Y180972D01*
X120814Y179571D01*
X121885Y178500D01*
X123286Y177920D01*
X124802D01*
X124995Y178000D01*
X125570Y177138D01*
X115499Y167067D01*
X88501D01*
X87118Y167640D01*
X85602D01*
X84202Y167060D01*
X83130Y165988D01*
X82550Y164588D01*
Y163072D01*
X83130Y161672D01*
X84202Y160600D01*
X85602Y160020D01*
X87118D01*
X88501Y160593D01*
X116840D01*
X118079Y160839D01*
X119129Y161541D01*
X138919Y181331D01*
X139621Y182381D01*
X139867Y183620D01*
Y301230D01*
X142400D01*
Y318770D01*
D02*
G37*
G36*
X345450Y203310D02*
X328990D01*
Y191770D01*
X327720D01*
Y190500D01*
X317680D01*
Y180230D01*
X324009D01*
X324430Y179214D01*
X323353Y178138D01*
X322687Y176530D01*
X332632D01*
X331967Y178138D01*
X330890Y179214D01*
X331311Y180230D01*
X345450D01*
Y191770D01*
Y203310D01*
D02*
G37*
G36*
X304692Y179070D02*
X300990D01*
Y175368D01*
X302598Y176033D01*
X304027Y177462D01*
X304692Y179070D01*
D02*
G37*
G36*
X298450D02*
X294748D01*
X295413Y177462D01*
X296842Y176033D01*
X298450Y175368D01*
Y179070D01*
D02*
G37*
G36*
X332632Y173990D02*
X328930D01*
Y170287D01*
X330538Y170953D01*
X331967Y172382D01*
X332632Y173990D01*
D02*
G37*
G36*
X326390D02*
X322687D01*
X323353Y172382D01*
X324782Y170953D01*
X326390Y170287D01*
Y173990D01*
D02*
G37*
G36*
X526415Y172612D02*
Y168910D01*
X530117D01*
X529452Y170518D01*
X528023Y171947D01*
X526415Y172612D01*
D02*
G37*
G36*
X523875D02*
X522267Y171947D01*
X520838Y170518D01*
X520173Y168910D01*
X523875D01*
Y172612D01*
D02*
G37*
G36*
X169709Y183270D02*
X167531D01*
X165428Y182706D01*
X163542Y181618D01*
X162002Y180078D01*
X160914Y178192D01*
X160350Y176089D01*
Y173911D01*
X160914Y171808D01*
X162002Y169922D01*
X163542Y168382D01*
X165428Y167294D01*
X167531Y166730D01*
X169709D01*
X171812Y167294D01*
X173698Y168382D01*
X175238Y169922D01*
X176326Y171808D01*
X176890Y173911D01*
Y176089D01*
X176326Y178192D01*
X175238Y180078D01*
X173698Y181618D01*
X171812Y182706D01*
X169709Y183270D01*
D02*
G37*
G36*
X633730Y170072D02*
Y166370D01*
X637433D01*
X636767Y167978D01*
X635338Y169407D01*
X633730Y170072D01*
D02*
G37*
G36*
X631190D02*
X629582Y169407D01*
X628153Y167978D01*
X627487Y166370D01*
X631190D01*
Y170072D01*
D02*
G37*
G36*
X414020Y168803D02*
Y165100D01*
X417723D01*
X417057Y166708D01*
X415628Y168137D01*
X414020Y168803D01*
D02*
G37*
G36*
X443260Y173810D02*
X432990D01*
Y165040D01*
X443260D01*
Y173810D01*
D02*
G37*
G36*
X311260D02*
X300990D01*
Y165040D01*
X311260D01*
Y173810D01*
D02*
G37*
G36*
X430450D02*
X420180D01*
Y165040D01*
X430450D01*
Y173810D01*
D02*
G37*
G36*
X200572Y171409D02*
X199056D01*
X197656Y170829D01*
X196584Y169757D01*
X196004Y168357D01*
Y166841D01*
X196584Y165441D01*
X197656Y164369D01*
X199056Y163789D01*
X200572D01*
X201972Y164369D01*
X203044Y165441D01*
X203624Y166841D01*
Y168357D01*
X203044Y169757D01*
X201972Y170829D01*
X200572Y171409D01*
D02*
G37*
G36*
X530117Y166370D02*
X526415D01*
Y162668D01*
X528023Y163333D01*
X529452Y164762D01*
X530117Y166370D01*
D02*
G37*
G36*
X523875D02*
X520173D01*
X520838Y164762D01*
X522267Y163333D01*
X523875Y162668D01*
Y166370D01*
D02*
G37*
G36*
X170180Y164993D02*
Y161290D01*
X173883D01*
X173217Y162898D01*
X171788Y164327D01*
X170180Y164993D01*
D02*
G37*
G36*
X167640D02*
X166032Y164327D01*
X164603Y162898D01*
X163937Y161290D01*
X167640D01*
Y164993D01*
D02*
G37*
G36*
X272200Y171120D02*
X254660D01*
Y159580D01*
X272200D01*
Y171120D01*
D02*
G37*
G36*
X417723Y162560D02*
X414020D01*
Y158857D01*
X415628Y159523D01*
X417057Y160952D01*
X417723Y162560D01*
D02*
G37*
G36*
X411480D02*
X407777D01*
X408443Y160952D01*
X409872Y159523D01*
X411480Y158857D01*
Y162560D01*
D02*
G37*
G36*
X173883Y158750D02*
X170180D01*
Y155048D01*
X171788Y155713D01*
X173217Y157142D01*
X173883Y158750D01*
D02*
G37*
G36*
X167640D02*
X163937D01*
X164603Y157142D01*
X166032Y155713D01*
X167640Y155048D01*
Y158750D01*
D02*
G37*
G36*
X691118Y163490D02*
X690770D01*
Y152470D01*
X701790D01*
Y152818D01*
X700952Y155944D01*
X699334Y158746D01*
X697046Y161035D01*
X694244Y162652D01*
X691118Y163490D01*
D02*
G37*
G36*
X688230D02*
X687882D01*
X684756Y162652D01*
X681954Y161035D01*
X679666Y158746D01*
X678047Y155944D01*
X677210Y152818D01*
Y152470D01*
X688230D01*
Y163490D01*
D02*
G37*
G36*
X637433Y163830D02*
X627487D01*
X628153Y162222D01*
X629582Y160793D01*
X631097Y160166D01*
X630895Y159150D01*
X625050D01*
Y151130D01*
X639630D01*
Y159150D01*
X634025D01*
X633823Y160166D01*
X635338Y160793D01*
X636767Y162222D01*
X637433Y163830D01*
D02*
G37*
G36*
X516890Y157880D02*
X510870D01*
Y149860D01*
X516890D01*
Y157880D01*
D02*
G37*
G36*
X508330D02*
X502310D01*
Y149860D01*
X508330D01*
Y157880D01*
D02*
G37*
G36*
X151888Y182880D02*
X150372D01*
X148972Y182300D01*
X147900Y181228D01*
X147320Y179828D01*
Y179494D01*
X147041Y179215D01*
X146339Y178165D01*
X146093Y176926D01*
Y143770D01*
X143560D01*
Y126230D01*
X152267D01*
X152575Y125214D01*
X152005Y124833D01*
X146545Y119373D01*
X145162Y118800D01*
X144090Y117728D01*
X143510Y116328D01*
Y114812D01*
X144090Y113412D01*
X145162Y112340D01*
X146562Y111760D01*
X148078D01*
X149478Y112340D01*
X150550Y113412D01*
X151123Y114795D01*
X155635Y119307D01*
X178764D01*
X180003Y119553D01*
X181053Y120255D01*
X187028Y126230D01*
X193200D01*
Y143770D01*
X185616D01*
X185227Y144709D01*
X188024Y147506D01*
X188472Y147320D01*
X189988D01*
X191388Y147900D01*
X192460Y148972D01*
X193040Y150372D01*
Y151888D01*
X192460Y153288D01*
X191388Y154360D01*
X189988Y154940D01*
X188472D01*
X187072Y154360D01*
X186836Y154124D01*
X186827D01*
X185588Y153878D01*
X184538Y153176D01*
X175132Y143770D01*
X172915D01*
X172527Y144709D01*
X177678Y149860D01*
X178558D01*
X179958Y150440D01*
X181030Y151512D01*
X181610Y152912D01*
Y154428D01*
X181030Y155828D01*
X179958Y156900D01*
X178558Y157480D01*
X177042D01*
X175642Y156900D01*
X174619Y155877D01*
X174378Y155716D01*
X164766Y146104D01*
X164064Y145054D01*
X163955Y144503D01*
X163222Y143770D01*
X156260D01*
Y127142D01*
X155680Y126808D01*
X155100Y127142D01*
Y143770D01*
X152567D01*
Y175541D01*
X153288Y175840D01*
X154360Y176912D01*
X154940Y178312D01*
Y179828D01*
X154360Y181228D01*
X153288Y182300D01*
X151888Y182880D01*
D02*
G37*
G36*
X623360Y157880D02*
X611320D01*
Y142707D01*
X609672D01*
X609561Y142729D01*
X609208Y142875D01*
X608825D01*
X608450Y142950D01*
X608075Y142875D01*
X607692D01*
X607339Y142729D01*
X606963Y142654D01*
X606645Y142441D01*
X606292Y142295D01*
X606021Y142024D01*
X605703Y141812D01*
X605491Y141494D01*
X605220Y141223D01*
X605074Y140870D01*
X604861Y140552D01*
X604786Y140176D01*
X604640Y139823D01*
Y139440D01*
X604565Y139065D01*
X604640Y138690D01*
Y138307D01*
X604786Y137954D01*
X604861Y137578D01*
X605074Y137260D01*
X605220Y136907D01*
X605491Y136636D01*
X605703Y136318D01*
X605946Y136075D01*
X606264Y135863D01*
X606292Y135835D01*
X606328Y135820D01*
X607206Y135233D01*
X608693Y134937D01*
X613455D01*
Y133750D01*
X611320D01*
Y117710D01*
X623360D01*
Y133750D01*
X621225D01*
Y141840D01*
X623360D01*
Y157880D01*
D02*
G37*
G36*
X631070Y148590D02*
X625050D01*
Y140570D01*
X631070D01*
Y148590D01*
D02*
G37*
G36*
X516890Y147320D02*
X510870D01*
Y139300D01*
X516890D01*
Y147320D01*
D02*
G37*
G36*
X508330D02*
X502310D01*
Y139300D01*
X508330D01*
Y147320D01*
D02*
G37*
G36*
X643770Y142767D02*
Y139065D01*
X647473D01*
X646807Y140673D01*
X645378Y142102D01*
X643770Y142767D01*
D02*
G37*
G36*
X639630Y148590D02*
X633610D01*
Y140570D01*
X637237D01*
X637801Y139725D01*
X637528Y139065D01*
X641230D01*
Y142767D01*
X640475Y142455D01*
X639630Y143019D01*
Y148590D01*
D02*
G37*
G36*
X701790Y149930D02*
X690770D01*
Y138910D01*
X691118D01*
X694244Y139747D01*
X697046Y141366D01*
X699334Y143654D01*
X700952Y146456D01*
X701790Y149582D01*
Y149930D01*
D02*
G37*
G36*
X688230D02*
X677210D01*
Y149582D01*
X678047Y146456D01*
X679666Y143654D01*
X681954Y141366D01*
X684756Y139747D01*
X687882Y138910D01*
X688230D01*
Y149930D01*
D02*
G37*
G36*
X553720Y140863D02*
Y137160D01*
X557422D01*
X556757Y138768D01*
X555328Y140197D01*
X553720Y140863D01*
D02*
G37*
G36*
X551180D02*
X549572Y140197D01*
X548143Y138768D01*
X547477Y137160D01*
X551180D01*
Y140863D01*
D02*
G37*
G36*
X84560Y145040D02*
X78790D01*
Y136270D01*
X84560D01*
Y145040D01*
D02*
G37*
G36*
X647473Y136525D02*
X643770D01*
Y132823D01*
X645378Y133488D01*
X646807Y134917D01*
X647473Y136525D01*
D02*
G37*
G36*
X641230D02*
X637528D01*
X637801Y135865D01*
X637237Y135020D01*
X633610D01*
Y127000D01*
X639630D01*
Y132571D01*
X640475Y133135D01*
X641230Y132823D01*
Y136525D01*
D02*
G37*
G36*
X557422Y134620D02*
X553720D01*
Y130918D01*
X555328Y131583D01*
X556757Y133012D01*
X557422Y134620D01*
D02*
G37*
G36*
X551180D02*
X547477D01*
X548143Y133012D01*
X549572Y131583D01*
X551180Y130918D01*
Y134620D01*
D02*
G37*
G36*
X631070Y135020D02*
X625050D01*
Y127000D01*
X631070D01*
Y135020D01*
D02*
G37*
G36*
X218440Y155015D02*
X218065Y154940D01*
X217682D01*
X217329Y154794D01*
X216953Y154719D01*
X216635Y154506D01*
X216282Y154360D01*
X216011Y154089D01*
X215693Y153877D01*
X215481Y153559D01*
X215210Y153288D01*
X215064Y152935D01*
X215001Y152841D01*
X212043Y149883D01*
X211201Y148623D01*
X210905Y147136D01*
Y143770D01*
X207060D01*
Y126230D01*
X218600D01*
Y136585D01*
X218675Y136960D01*
Y145527D01*
X221187Y148040D01*
X222029Y149300D01*
X222235Y150336D01*
X222250Y150372D01*
Y150411D01*
X222325Y150786D01*
Y151130D01*
X222250Y151505D01*
Y151888D01*
X222104Y152241D01*
X222029Y152617D01*
X221816Y152935D01*
X221670Y153288D01*
X221399Y153559D01*
X221187Y153877D01*
X220869Y154089D01*
X220598Y154360D01*
X220245Y154506D01*
X219927Y154719D01*
X219551Y154794D01*
X219198Y154940D01*
X218815D01*
X218440Y155015D01*
D02*
G37*
G36*
X200660Y153745D02*
X200285Y153670D01*
X199902D01*
X199549Y153524D01*
X199173Y153449D01*
X198855Y153236D01*
X198502Y153090D01*
X198231Y152819D01*
X197913Y152607D01*
X197670Y152364D01*
X197458Y152046D01*
X197430Y152018D01*
X197415Y151982D01*
X196828Y151104D01*
X196532Y149617D01*
Y143770D01*
X194360D01*
Y126230D01*
X205900D01*
Y143770D01*
X204302D01*
Y148638D01*
X204324Y148749D01*
X204470Y149102D01*
Y149485D01*
X204545Y149860D01*
X204470Y150235D01*
Y150618D01*
X204324Y150971D01*
X204249Y151347D01*
X204036Y151665D01*
X203890Y152018D01*
X203619Y152289D01*
X203407Y152607D01*
X203089Y152819D01*
X202818Y153090D01*
X202465Y153236D01*
X202147Y153449D01*
X201771Y153524D01*
X201418Y153670D01*
X201035D01*
X200660Y153745D01*
D02*
G37*
G36*
X138423Y174440D02*
X136907D01*
X135507Y173860D01*
X134435Y172789D01*
X133855Y171388D01*
Y170814D01*
X133639Y170490D01*
X133393Y169252D01*
Y143770D01*
X130860D01*
Y126230D01*
X142400D01*
Y143770D01*
X139867D01*
Y167444D01*
X140895Y168472D01*
X141475Y169872D01*
Y171388D01*
X140895Y172789D01*
X139823Y173860D01*
X138423Y174440D01*
D02*
G37*
G36*
X70930Y313875D02*
X10930D01*
X9958Y313472D01*
X9555Y312500D01*
Y132500D01*
X9958Y131528D01*
X10930Y131125D01*
X64194D01*
X64583Y130187D01*
X64273Y129878D01*
X63500Y128011D01*
Y125990D01*
X63427Y125880D01*
X60120D01*
Y120090D01*
X58850D01*
D01*
X60120D01*
Y114300D01*
X60282D01*
X60671Y113361D01*
X57019Y109709D01*
X56457Y108869D01*
X56260Y107878D01*
Y103110D01*
X52330D01*
Y101060D01*
X23870D01*
Y103110D01*
X10830D01*
Y94070D01*
X23870D01*
Y95880D01*
X52330D01*
Y94070D01*
X56260D01*
Y77040D01*
X56457Y76049D01*
X57019Y75209D01*
X70869Y61358D01*
X71709Y60797D01*
X72701Y60600D01*
X94867D01*
X95255Y59661D01*
X93699Y58104D01*
X93304Y57513D01*
X92590Y56799D01*
X87108D01*
Y38765D01*
X96092D01*
X96252Y38765D01*
Y38765D01*
X97108D01*
Y38765D01*
X99840D01*
Y36967D01*
X100086Y35728D01*
X100788Y34678D01*
X104140Y31326D01*
Y30992D01*
X104720Y29592D01*
X105792Y28520D01*
X107192Y27940D01*
X108708D01*
X110108Y28520D01*
X111180Y29592D01*
X111760Y30992D01*
Y32508D01*
X111732Y32575D01*
X112593Y33151D01*
X114238Y31506D01*
Y29454D01*
X110881Y26097D01*
X101201D01*
X99818Y26670D01*
X98302D01*
X96902Y26090D01*
X95830Y25018D01*
X95250Y23618D01*
Y22102D01*
X95830Y20702D01*
X96902Y19630D01*
X98302Y19050D01*
X99818D01*
X101201Y19623D01*
X112222D01*
X113461Y19869D01*
X114511Y20571D01*
X119764Y25824D01*
X120466Y26874D01*
X120712Y28113D01*
Y32847D01*
X120466Y34086D01*
X119764Y35136D01*
X118344Y36556D01*
X118733Y37495D01*
X120410D01*
Y47782D01*
X121680D01*
Y49052D01*
X127522D01*
Y56700D01*
X132922D01*
X133913Y56897D01*
X134753Y57459D01*
X136661Y59367D01*
X136665Y59372D01*
X137080Y59790D01*
X143350D01*
Y68580D01*
Y77370D01*
X137420D01*
Y86101D01*
X141258Y89939D01*
X150772D01*
Y103101D01*
X141258D01*
X138157Y106202D01*
X137316Y106763D01*
X136325Y106960D01*
X107210D01*
Y113930D01*
X101650D01*
Y117852D01*
X102290Y118492D01*
X102870Y119892D01*
Y121408D01*
X102290Y122808D01*
X101650Y123448D01*
Y126230D01*
X104300D01*
Y143770D01*
X102752D01*
X102239Y144786D01*
X102762Y146050D01*
X92811D01*
X92136Y145040D01*
X87100D01*
Y135000D01*
Y124960D01*
X92870D01*
Y126230D01*
X96470D01*
Y123448D01*
X95830Y122808D01*
X95250Y121408D01*
Y119892D01*
X95830Y118492D01*
X96470Y117852D01*
Y113930D01*
X92480D01*
Y115200D01*
X84710D01*
Y105410D01*
Y95620D01*
X92480D01*
Y96890D01*
X96350D01*
Y88030D01*
X93420D01*
Y71990D01*
X105460D01*
Y88030D01*
X101530D01*
Y96890D01*
X107210D01*
Y101781D01*
X121008D01*
Y89939D01*
X125006D01*
Y76100D01*
X118350D01*
Y65779D01*
X73773D01*
X61440Y78113D01*
Y94070D01*
X65370D01*
Y103110D01*
X61440D01*
Y106805D01*
X76761Y122127D01*
X77323Y122967D01*
X77520Y123958D01*
Y146247D01*
X82988Y151715D01*
X93564D01*
X93985Y150699D01*
X93483Y150198D01*
X92817Y148590D01*
X102762D01*
X102160Y150046D01*
X102305Y150624D01*
X102568Y151163D01*
X102915Y151232D01*
X108640Y145507D01*
Y143770D01*
X105460D01*
Y126230D01*
X117000D01*
Y143770D01*
X113820D01*
Y146580D01*
X113623Y147571D01*
X113061Y148411D01*
X105336Y156136D01*
X104496Y156698D01*
X103505Y156895D01*
X81915D01*
X80924Y156698D01*
X80084Y156136D01*
X73321Y149373D01*
X72446Y149643D01*
X72305Y149750D01*
Y312500D01*
X71902Y313472D01*
X70930Y313875D01*
D02*
G37*
G36*
X516890Y133750D02*
X510870D01*
Y125730D01*
X516890D01*
Y133750D01*
D02*
G37*
G36*
X508330D02*
X502310D01*
Y125730D01*
X508330D01*
Y133750D01*
D02*
G37*
G36*
X84560Y133730D02*
X78790D01*
Y124960D01*
X84560D01*
Y133730D01*
D02*
G37*
G36*
X234438Y152400D02*
X232922D01*
X231522Y151820D01*
X230837Y151135D01*
X229825D01*
X228834Y150938D01*
X227994Y150376D01*
X224271Y146653D01*
X223710Y145813D01*
X223512Y144822D01*
Y143770D01*
X219760D01*
Y126230D01*
X229407D01*
X229828Y125214D01*
X226573Y121959D01*
X225921D01*
X225407Y122302D01*
X224168Y122549D01*
X222930Y122302D01*
X221879Y121601D01*
X212140Y111861D01*
X211051D01*
Y115212D01*
X197889D01*
Y102035D01*
X211051D01*
Y105387D01*
X213481D01*
X214720Y105633D01*
X215770Y106335D01*
X221081Y111646D01*
X222019Y111257D01*
Y102035D01*
X235181D01*
Y110634D01*
X237419Y112873D01*
X238180Y113024D01*
X239230Y113726D01*
X250679Y125175D01*
X251381Y126225D01*
X251382Y126230D01*
X256700D01*
Y143770D01*
X245160D01*
Y132496D01*
X245153Y132460D01*
Y129602D01*
X245016Y129510D01*
X244000Y130053D01*
Y132424D01*
X244007Y132460D01*
X244000Y132496D01*
Y143770D01*
X234452D01*
X234438Y144780D01*
X235838Y145360D01*
X236910Y146432D01*
X237490Y147832D01*
Y149348D01*
X236910Y150748D01*
X235838Y151820D01*
X234438Y152400D01*
D02*
G37*
G36*
X467591Y128270D02*
X461010D01*
Y121681D01*
X467591D01*
Y128270D01*
D02*
G37*
G36*
X458470D02*
X451889D01*
Y121681D01*
X458470D01*
Y128270D01*
D02*
G37*
G36*
X25140Y125880D02*
X18620D01*
Y121360D01*
X25140D01*
Y125880D01*
D02*
G37*
G36*
X57580D02*
X51060D01*
Y121360D01*
X57580D01*
Y125880D01*
D02*
G37*
G36*
X16080D02*
X9560D01*
Y121360D01*
X16080D01*
Y125880D01*
D02*
G37*
G36*
X555748Y128270D02*
X554232D01*
X552832Y127690D01*
X551760Y126618D01*
X551180Y125218D01*
Y123702D01*
X551760Y122302D01*
X552832Y121230D01*
X554232Y120650D01*
X555748D01*
X557148Y121230D01*
X558220Y122302D01*
X558800Y123702D01*
Y125218D01*
X558220Y126618D01*
X557148Y127690D01*
X555748Y128270D01*
D02*
G37*
G36*
X309990Y134540D02*
X289450D01*
Y117000D01*
X309990D01*
Y134540D01*
D02*
G37*
G36*
X516890Y123190D02*
X510870D01*
Y115170D01*
X516890D01*
Y123190D01*
D02*
G37*
G36*
X508330D02*
X502310D01*
Y115170D01*
X508330D01*
Y123190D01*
D02*
G37*
G36*
X57580Y118820D02*
X51060D01*
Y114300D01*
X57580D01*
Y118820D01*
D02*
G37*
G36*
X343927Y116664D02*
Y112962D01*
X347629D01*
X346963Y114569D01*
X345534Y115998D01*
X343927Y116664D01*
D02*
G37*
G36*
X341386D02*
X339779Y115998D01*
X338350Y114569D01*
X337684Y112962D01*
X341386D01*
Y116664D01*
D02*
G37*
G36*
X639630Y124460D02*
X625050D01*
Y116440D01*
X630895D01*
X631097Y115424D01*
X629582Y114797D01*
X628153Y113368D01*
X627487Y111760D01*
X637433D01*
X636767Y113368D01*
X635338Y114797D01*
X633823Y115424D01*
X634025Y116440D01*
X639630D01*
Y124460D01*
D02*
G37*
G36*
X129700Y143770D02*
X118160D01*
Y126230D01*
X120980D01*
Y120484D01*
X121226Y119245D01*
X121928Y118195D01*
X124978Y115146D01*
Y114812D01*
X125558Y113412D01*
X126629Y112340D01*
X128030Y111760D01*
X129545D01*
X130946Y112340D01*
X132017Y113412D01*
X132598Y114812D01*
Y116328D01*
X132017Y117728D01*
X130946Y118800D01*
X130149Y119130D01*
X127454Y121825D01*
Y126230D01*
X129700D01*
Y143770D01*
D02*
G37*
G36*
X25140Y118820D02*
X17350D01*
X9560D01*
Y114300D01*
X11808D01*
X12169Y113284D01*
X11537Y111760D01*
X21483D01*
X20851Y113284D01*
X21212Y114300D01*
X25140D01*
Y118820D01*
D02*
G37*
G36*
X260581Y116918D02*
X254000D01*
Y110329D01*
X260581D01*
Y116918D01*
D02*
G37*
G36*
X251460D02*
X244879D01*
Y110329D01*
X251460D01*
Y116918D01*
D02*
G37*
G36*
X374629Y117861D02*
X373113D01*
X371713Y117281D01*
X370641Y116209D01*
X370061Y114809D01*
Y113293D01*
X370641Y111893D01*
X371713Y110821D01*
X373113Y110241D01*
X374629D01*
X376029Y110821D01*
X377101Y111893D01*
X377681Y113293D01*
Y114809D01*
X377101Y116209D01*
X376029Y117281D01*
X374629Y117861D01*
D02*
G37*
G36*
X82170Y115200D02*
X74400D01*
Y110642D01*
X73384Y109971D01*
X72390Y110382D01*
Y105410D01*
Y100437D01*
X73384Y100849D01*
X74400Y100178D01*
Y95620D01*
X82170D01*
Y105410D01*
Y115200D01*
D02*
G37*
G36*
X188191Y116482D02*
X181610D01*
Y109894D01*
X188191D01*
Y116482D01*
D02*
G37*
G36*
X179070D02*
X172489D01*
Y109894D01*
X179070D01*
Y116482D01*
D02*
G37*
G36*
X347629Y110421D02*
X343927D01*
Y106719D01*
X345534Y107385D01*
X346963Y108814D01*
X347629Y110421D01*
D02*
G37*
G36*
X341386D02*
X337684D01*
X338350Y108814D01*
X339779Y107385D01*
X341386Y106719D01*
Y110421D01*
D02*
G37*
G36*
X69850Y110382D02*
X68242Y109717D01*
X66813Y108288D01*
X66147Y106680D01*
X69850D01*
Y110382D01*
D02*
G37*
G36*
X21483Y109220D02*
X17780D01*
Y105518D01*
X19388Y106183D01*
X20817Y107612D01*
X21483Y109220D01*
D02*
G37*
G36*
X15240D02*
X11537D01*
X12203Y107612D01*
X13632Y106183D01*
X15240Y105518D01*
Y109220D01*
D02*
G37*
G36*
X637433D02*
X633730D01*
Y105518D01*
X635338Y106183D01*
X636767Y107612D01*
X637433Y109220D01*
D02*
G37*
G36*
X631190D02*
X627487D01*
X628153Y107612D01*
X629582Y106183D01*
X631190Y105518D01*
Y109220D01*
D02*
G37*
G36*
X552552Y112863D02*
X549870D01*
Y104980D01*
X555853D01*
Y109563D01*
X555602Y110826D01*
X554887Y111897D01*
X553816Y112612D01*
X552552Y112863D01*
D02*
G37*
G36*
X547330D02*
X544647D01*
X543384Y112612D01*
X542313Y111897D01*
X541598Y110826D01*
X541347Y109563D01*
Y104980D01*
X547330D01*
Y112863D01*
D02*
G37*
G36*
X260581Y107789D02*
X254000D01*
Y101201D01*
X260581D01*
Y107789D01*
D02*
G37*
G36*
X251460D02*
X244879D01*
Y101201D01*
X251460D01*
Y107789D01*
D02*
G37*
G36*
X188191Y107354D02*
X181610D01*
Y100765D01*
X188191D01*
Y107354D01*
D02*
G37*
G36*
X179070D02*
X172489D01*
Y100765D01*
X179070D01*
Y107354D01*
D02*
G37*
G36*
X69850Y104140D02*
X66147D01*
X66813Y102532D01*
X68242Y101103D01*
X69850Y100437D01*
Y104140D01*
D02*
G37*
G36*
X633730Y104032D02*
Y100330D01*
X637433D01*
X636767Y101938D01*
X635338Y103367D01*
X633730Y104032D01*
D02*
G37*
G36*
X631190D02*
X629582Y103367D01*
X628153Y101938D01*
X627487Y100330D01*
X631190D01*
Y104032D01*
D02*
G37*
G36*
X598353Y111569D02*
X590448D01*
X589680Y111416D01*
X589029Y110981D01*
X588594Y110330D01*
X588441Y109563D01*
Y97858D01*
X588594Y97090D01*
X589029Y96439D01*
X589680Y96004D01*
X590448Y95851D01*
X598353D01*
X599120Y96004D01*
X599771Y96439D01*
X600206Y97090D01*
X600359Y97858D01*
Y99811D01*
X610082D01*
X611569Y100107D01*
X612181Y100516D01*
X612357Y100551D01*
X612675Y100764D01*
X613028Y100910D01*
X613299Y101181D01*
X613617Y101393D01*
X613829Y101711D01*
X614100Y101982D01*
X614246Y102335D01*
X614459Y102653D01*
X614534Y103029D01*
X614680Y103382D01*
Y103765D01*
X614755Y104140D01*
X614680Y104515D01*
Y104898D01*
X614534Y105251D01*
X614459Y105627D01*
X614246Y105945D01*
X614100Y106298D01*
X613829Y106569D01*
X613617Y106887D01*
X613299Y107099D01*
X613028Y107370D01*
X612675Y107516D01*
X612357Y107729D01*
X611981Y107804D01*
X611628Y107950D01*
X611245D01*
X610870Y108025D01*
X610526D01*
X610151Y107950D01*
X610112D01*
X610076Y107935D01*
X609040Y107729D01*
X608818Y107581D01*
X600359D01*
Y109563D01*
X600206Y110330D01*
X599771Y110981D01*
X599120Y111416D01*
X598353Y111569D01*
D02*
G37*
G36*
X547330Y102440D02*
X541347D01*
Y97858D01*
X541598Y96594D01*
X542313Y95523D01*
X543384Y94808D01*
X544647Y94557D01*
X547330D01*
Y102440D01*
D02*
G37*
G36*
X469030Y96310D02*
X461010D01*
Y90290D01*
X469030D01*
Y96310D01*
D02*
G37*
G36*
X458470D02*
X450450D01*
Y90290D01*
X458470D01*
Y96310D01*
D02*
G37*
G36*
X700520Y111420D02*
X678480D01*
Y89380D01*
X700520D01*
Y111420D01*
D02*
G37*
G36*
X309990Y115540D02*
X289450D01*
X289450Y98000D01*
X288513Y97810D01*
X288180D01*
Y89040D01*
X299720D01*
X311260D01*
Y97810D01*
X310927D01*
X309990Y98000D01*
X309990Y98826D01*
Y115540D01*
D02*
G37*
G36*
X414020Y92603D02*
X412412Y91937D01*
X410983Y90508D01*
X410317Y88900D01*
X414020D01*
Y92603D01*
D02*
G37*
G36*
X637433Y97790D02*
X627487D01*
X628153Y96182D01*
X629582Y94753D01*
X631097Y94126D01*
X630895Y93110D01*
X625260D01*
Y85090D01*
X639840D01*
Y93110D01*
X634025D01*
X633823Y94126D01*
X635338Y94753D01*
X636767Y96182D01*
X637433Y97790D01*
D02*
G37*
G36*
X82170Y89300D02*
X76150D01*
Y83594D01*
X75134Y83180D01*
X73998Y84317D01*
X72390Y84983D01*
Y80010D01*
Y75037D01*
X73998Y75703D01*
X75134Y76840D01*
X76150Y76426D01*
Y70720D01*
X82170D01*
Y80010D01*
X83440D01*
D01*
X82170D01*
Y89300D01*
D02*
G37*
G36*
X414020Y86360D02*
X410317D01*
X410983Y84752D01*
X412412Y83323D01*
X414020Y82657D01*
Y86360D01*
D02*
G37*
G36*
X469030Y87750D02*
X461010D01*
Y81730D01*
X469030D01*
Y87750D01*
D02*
G37*
G36*
X458470D02*
X450450D01*
Y81730D01*
X458470D01*
Y87750D01*
D02*
G37*
G36*
X90730Y89300D02*
X84710D01*
Y81280D01*
X90730D01*
Y89300D01*
D02*
G37*
G36*
X69850Y84983D02*
X68242Y84317D01*
X66813Y82888D01*
X66147Y81280D01*
X69850D01*
Y84983D01*
D02*
G37*
G36*
X499868Y87630D02*
X498352D01*
X496952Y87050D01*
X495880Y85978D01*
X495300Y84578D01*
Y83062D01*
X495880Y81662D01*
X496952Y80590D01*
X498352Y80010D01*
X499868D01*
X501268Y80590D01*
X502340Y81662D01*
X502920Y83062D01*
Y84578D01*
X502340Y85978D01*
X501268Y87050D01*
X499868Y87630D01*
D02*
G37*
G36*
X259311Y99060D02*
X246149D01*
Y90869D01*
X245880Y90816D01*
X245040Y90254D01*
X234407Y79621D01*
X233545Y80197D01*
X233680Y80522D01*
Y82038D01*
X233100Y83438D01*
X232106Y84432D01*
X232146Y84793D01*
X232418Y85448D01*
X235181D01*
Y98625D01*
X222019D01*
Y89110D01*
X219631Y86722D01*
X218890Y86227D01*
X215666Y83002D01*
X214650Y83423D01*
Y84438D01*
X214453Y85429D01*
X213891Y86270D01*
X211051Y89110D01*
Y98625D01*
X197889D01*
Y85448D01*
X198112D01*
X198384Y84793D01*
X198424Y84432D01*
X197430Y83438D01*
X196850Y82038D01*
Y80522D01*
X197205Y79666D01*
X196575Y78650D01*
X194893D01*
X186970Y86572D01*
Y87996D01*
X186921Y88246D01*
Y98625D01*
X173759D01*
Y85448D01*
X181801D01*
X181988Y84508D01*
X182549Y83668D01*
X190489Y75729D01*
X190100Y74790D01*
X188100D01*
Y76060D01*
X183830D01*
Y67820D01*
X181290D01*
Y76060D01*
X177020D01*
Y73225D01*
X176004Y72792D01*
X174860Y73669D01*
X173148Y74379D01*
X172580Y74454D01*
Y62020D01*
Y49586D01*
X173148Y49661D01*
X174860Y50371D01*
X176331Y51499D01*
X177459Y52970D01*
X178169Y54682D01*
X178411Y56520D01*
Y59580D01*
X180958D01*
X181636Y58564D01*
X181390Y57969D01*
Y56271D01*
X182040Y54701D01*
X183241Y53500D01*
X184811Y52850D01*
X186509D01*
X188079Y53500D01*
X189280Y54701D01*
X189930Y56271D01*
Y57969D01*
X189458Y59110D01*
X189927Y60100D01*
X190028Y60187D01*
X190239Y60208D01*
X190459Y59879D01*
X197559Y52779D01*
X197559Y52779D01*
X206449Y43889D01*
X207289Y43327D01*
X208280Y43130D01*
X220752D01*
X221743Y43327D01*
X222583Y43889D01*
X234392Y55697D01*
X235330Y55308D01*
Y51640D01*
X235527Y50649D01*
X236089Y49809D01*
X253929Y31969D01*
X254425Y31637D01*
X254394Y30525D01*
X254260Y30469D01*
X252789Y29341D01*
X251661Y27870D01*
X250951Y26158D01*
X250709Y24320D01*
Y21590D01*
X257810D01*
Y20320D01*
D01*
Y21590D01*
X264911D01*
Y24320D01*
X264669Y26158D01*
X263959Y27870D01*
X262831Y29341D01*
X261719Y30194D01*
X262064Y31210D01*
X269390D01*
Y17000D01*
X288469D01*
X288930Y17000D01*
X289485Y16214D01*
Y12700D01*
X289781Y11213D01*
X290623Y9953D01*
X298144Y2432D01*
X299405Y1590D01*
X300891Y1294D01*
X377908D01*
X379395Y1590D01*
X380655Y2432D01*
X385982Y7759D01*
X393577D01*
Y20936D01*
X380416D01*
Y13180D01*
X376299Y9063D01*
X368177D01*
Y20936D01*
X355016D01*
Y16585D01*
X325574D01*
X324730Y17000D01*
X324730Y17601D01*
Y22785D01*
X341630D01*
X342005Y22860D01*
X342388D01*
X342741Y23006D01*
X343117Y23081D01*
X343435Y23294D01*
X343788Y23440D01*
X344059Y23711D01*
X344377Y23923D01*
X344589Y24241D01*
X344860Y24512D01*
X345006Y24865D01*
X345219Y25183D01*
X345294Y25559D01*
X345440Y25912D01*
Y26295D01*
X345515Y26670D01*
X345440Y27045D01*
Y27428D01*
X345294Y27781D01*
X345219Y28157D01*
X345006Y28475D01*
X344860Y28828D01*
X344589Y29099D01*
X344377Y29417D01*
X344059Y29629D01*
X343788Y29900D01*
X343435Y30046D01*
X343117Y30259D01*
X342741Y30334D01*
X342388Y30480D01*
X342005D01*
X341630Y30555D01*
X324730D01*
Y36340D01*
X305190D01*
Y17601D01*
X305190Y17000D01*
X304346Y16585D01*
X304331D01*
X303605Y17311D01*
Y33020D01*
X303530Y33395D01*
Y33778D01*
X303384Y34131D01*
X303309Y34507D01*
X303096Y34825D01*
X302950Y35178D01*
X302679Y35449D01*
X302467Y35767D01*
X302149Y35979D01*
X301878Y36250D01*
X301525Y36396D01*
X301207Y36609D01*
X300831Y36684D01*
X300478Y36830D01*
X300095D01*
X299720Y36905D01*
X299345Y36830D01*
X298962D01*
X298609Y36684D01*
X298233Y36609D01*
X297915Y36396D01*
X297562Y36250D01*
X297291Y35979D01*
X296973Y35767D01*
X296761Y35449D01*
X296490Y35178D01*
X296344Y34825D01*
X296131Y34507D01*
X296056Y34131D01*
X295910Y33778D01*
Y33395D01*
X295835Y33020D01*
Y27062D01*
X295669Y26854D01*
X294862Y26451D01*
X294819Y26456D01*
X294481Y26524D01*
X294128Y26670D01*
X293745D01*
X293370Y26745D01*
X292995Y26670D01*
X292612D01*
X292259Y26524D01*
X291883Y26449D01*
X291565Y26236D01*
X291212Y26090D01*
X290941Y25819D01*
X290623Y25607D01*
X290411Y25289D01*
X290140Y25018D01*
X289994Y24665D01*
X289946Y24593D01*
X288930Y24880D01*
Y36340D01*
X272280D01*
X272030Y36390D01*
X256833D01*
X241178Y52045D01*
X241234Y52320D01*
X242397Y52939D01*
X242611Y52850D01*
X244309D01*
X245879Y53500D01*
X247080Y54701D01*
X247730Y56271D01*
Y57969D01*
X247484Y58564D01*
X248162Y59580D01*
X250709D01*
Y56520D01*
X250951Y54682D01*
X251661Y52970D01*
X252789Y51499D01*
X254260Y50371D01*
X255972Y49661D01*
X256540Y49586D01*
Y62020D01*
Y74454D01*
X255972Y74379D01*
X254260Y73669D01*
X253116Y72792D01*
X252100Y73225D01*
Y76060D01*
X247830D01*
Y67820D01*
X245290D01*
Y76060D01*
X241020D01*
Y74790D01*
X238228D01*
X237839Y75729D01*
X247944Y85833D01*
X248689D01*
X248939Y85883D01*
X259311D01*
Y99060D01*
D02*
G37*
G36*
X443260Y86500D02*
X432990D01*
Y77730D01*
X443260D01*
Y86500D01*
D02*
G37*
G36*
X478278Y85090D02*
X476762D01*
X475362Y84510D01*
X474290Y83438D01*
X473710Y82038D01*
Y80522D01*
X474290Y79122D01*
X475362Y78050D01*
X476762Y77470D01*
X478278D01*
X479678Y78050D01*
X480750Y79122D01*
X481330Y80522D01*
Y82038D01*
X480750Y83438D01*
X479678Y84510D01*
X478278Y85090D01*
D02*
G37*
G36*
X69850Y78740D02*
X66147D01*
X66813Y77132D01*
X68242Y75703D01*
X69850Y75037D01*
Y78740D01*
D02*
G37*
G36*
X631280Y82550D02*
X625260D01*
Y74530D01*
X631280D01*
Y82550D01*
D02*
G37*
G36*
X643890Y77362D02*
Y73660D01*
X647592D01*
X646927Y75268D01*
X645498Y76697D01*
X643890Y77362D01*
D02*
G37*
G36*
X639840Y82550D02*
X633820D01*
Y74530D01*
X637094D01*
X637658Y73685D01*
X637648Y73660D01*
X641350D01*
Y77362D01*
X640685Y77087D01*
X639840Y77651D01*
Y82550D01*
D02*
G37*
G36*
X298450Y86500D02*
X288180D01*
Y77730D01*
X290332D01*
X290534Y76714D01*
X290492Y76697D01*
X289063Y75268D01*
X288398Y73660D01*
X298342D01*
X297677Y75268D01*
X296248Y76697D01*
X296206Y76714D01*
X296408Y77730D01*
X298450D01*
Y86500D01*
D02*
G37*
G36*
X90730Y78740D02*
X84710D01*
Y70720D01*
X90730D01*
Y78740D01*
D02*
G37*
G36*
X152160Y77370D02*
X145890D01*
Y69850D01*
X152160D01*
Y77370D01*
D02*
G37*
G36*
X298342Y71120D02*
X294640D01*
Y67417D01*
X296248Y68083D01*
X297677Y69512D01*
X298342Y71120D01*
D02*
G37*
G36*
X292100D02*
X288398D01*
X289063Y69512D01*
X290492Y68083D01*
X292100Y67417D01*
Y71120D01*
D02*
G37*
G36*
X647592D02*
X643890D01*
Y67417D01*
X645498Y68083D01*
X646927Y69512D01*
X647592Y71120D01*
D02*
G37*
G36*
X641350D02*
X637648D01*
X638113Y69996D01*
X637518Y68980D01*
X633820D01*
Y60960D01*
X639840D01*
Y67129D01*
X640685Y67693D01*
X641350Y67417D01*
Y71120D01*
D02*
G37*
G36*
X259080Y74454D02*
Y63290D01*
X264911D01*
Y67520D01*
X264669Y69358D01*
X263959Y71070D01*
X262831Y72541D01*
X261360Y73669D01*
X259648Y74379D01*
X259080Y74454D01*
D02*
G37*
G36*
X170040D02*
X169472Y74379D01*
X167760Y73669D01*
X166289Y72541D01*
X165161Y71070D01*
X164451Y69358D01*
X164209Y67520D01*
Y63290D01*
X170040D01*
Y74454D01*
D02*
G37*
G36*
X326450Y71310D02*
X317680D01*
Y61040D01*
X326450D01*
Y71310D01*
D02*
G37*
G36*
X631280Y68980D02*
X625260D01*
Y60960D01*
X631280D01*
Y68980D01*
D02*
G37*
G36*
X312420Y64662D02*
Y60960D01*
X316122D01*
X315457Y62568D01*
X314028Y63997D01*
X312420Y64662D01*
D02*
G37*
G36*
X152160Y67310D02*
X145890D01*
Y59790D01*
X152160D01*
Y67310D01*
D02*
G37*
G36*
X316122Y58420D02*
X312420D01*
Y54717D01*
X314028Y55383D01*
X315457Y56812D01*
X316122Y58420D01*
D02*
G37*
G36*
X309880D02*
X306178D01*
X306843Y56812D01*
X308272Y55383D01*
X309880Y54717D01*
Y58420D01*
D02*
G37*
G36*
X623570Y91840D02*
X611530D01*
Y75800D01*
X610580Y75640D01*
X607390D01*
X607015Y75565D01*
X606632D01*
X606279Y75419D01*
X605903Y75344D01*
X605585Y75131D01*
X605232Y74985D01*
X604961Y74714D01*
X604643Y74502D01*
X604431Y74184D01*
X604160Y73913D01*
X604014Y73560D01*
X603801Y73242D01*
X603726Y72866D01*
X603580Y72513D01*
Y72130D01*
X603505Y71755D01*
X603580Y71380D01*
Y70997D01*
X603726Y70644D01*
X603801Y70268D01*
X604014Y69950D01*
X604160Y69597D01*
X604431Y69326D01*
X604643Y69008D01*
X604961Y68796D01*
X605232Y68525D01*
X605585Y68379D01*
X605903Y68166D01*
X606279Y68091D01*
X606632Y67945D01*
X607015D01*
X607390Y67870D01*
X610580D01*
X611530Y67710D01*
Y51670D01*
X623570D01*
Y67710D01*
X621435D01*
Y75800D01*
X623570D01*
Y91840D01*
D02*
G37*
G36*
X264911Y60750D02*
X259080D01*
Y49586D01*
X259648Y49661D01*
X261360Y50371D01*
X262831Y51499D01*
X263959Y52970D01*
X264669Y54682D01*
X264911Y56520D01*
Y60750D01*
D02*
G37*
G36*
X170040D02*
X164209D01*
Y56520D01*
X164451Y54682D01*
X165161Y52970D01*
X166289Y51499D01*
X167760Y50371D01*
X169472Y49661D01*
X170040Y49586D01*
Y60750D01*
D02*
G37*
G36*
X413760Y58500D02*
X404990D01*
Y48230D01*
X413760D01*
Y58500D01*
D02*
G37*
G36*
X337760Y71310D02*
X328990D01*
Y59770D01*
Y48230D01*
X337760D01*
Y48563D01*
X337950Y49500D01*
X338776Y49500D01*
X355490D01*
Y70040D01*
X337950Y70040D01*
X337760Y70977D01*
Y71310D01*
D02*
G37*
G36*
X326450Y58500D02*
X317680D01*
Y48230D01*
X326450D01*
Y58500D01*
D02*
G37*
G36*
X523710Y86760D02*
X506670D01*
Y73220D01*
X511520D01*
Y60602D01*
X509039D01*
Y47425D01*
X522201D01*
Y60602D01*
X519290D01*
Y73220D01*
X523710D01*
Y86760D01*
D02*
G37*
G36*
X639840Y58420D02*
X625260D01*
Y50400D01*
X630895D01*
X631097Y49384D01*
X629582Y48757D01*
X628153Y47328D01*
X627487Y45720D01*
X637433D01*
X636767Y47328D01*
X635338Y48757D01*
X633823Y49384D01*
X634025Y50400D01*
X639840D01*
Y58420D01*
D02*
G37*
G36*
X637433Y43180D02*
X633730D01*
Y39478D01*
X635338Y40143D01*
X636767Y41572D01*
X637433Y43180D01*
D02*
G37*
G36*
X631190D02*
X627487D01*
X628153Y41572D01*
X629582Y40143D01*
X631190Y39478D01*
Y43180D01*
D02*
G37*
G36*
X523471Y45285D02*
X516890D01*
Y38696D01*
X523471D01*
Y45285D01*
D02*
G37*
G36*
X514350D02*
X507769D01*
Y38696D01*
X514350D01*
Y45285D01*
D02*
G37*
G36*
X127522Y46512D02*
X122950D01*
Y37495D01*
X127522D01*
Y46512D01*
D02*
G37*
G36*
X717168Y62540D02*
X716270D01*
Y36270D01*
X742540D01*
Y37167D01*
X741862Y41449D01*
X740522Y45572D01*
X738554Y49434D01*
X736006Y52941D01*
X732941Y56006D01*
X729434Y58554D01*
X725572Y60522D01*
X721449Y61862D01*
X717168Y62540D01*
D02*
G37*
G36*
X713730D02*
X712832D01*
X708551Y61862D01*
X704428Y60522D01*
X700566Y58554D01*
X697059Y56006D01*
X693994Y52941D01*
X691446Y49434D01*
X689478Y45572D01*
X688138Y41449D01*
X687460Y37167D01*
Y36270D01*
X713730D01*
Y62540D01*
D02*
G37*
G36*
X37167D02*
X36270D01*
Y36270D01*
X62540D01*
Y37167D01*
X61862Y41449D01*
X60522Y45572D01*
X58554Y49434D01*
X56006Y52941D01*
X52941Y56006D01*
X49434Y58554D01*
X45572Y60522D01*
X41449Y61862D01*
X37167Y62540D01*
D02*
G37*
G36*
X33730D02*
X32833D01*
X28551Y61862D01*
X24428Y60522D01*
X20566Y58554D01*
X17059Y56006D01*
X13994Y52941D01*
X11446Y49434D01*
X9478Y45572D01*
X8138Y41449D01*
X7460Y37167D01*
Y36270D01*
X33730D01*
Y62540D01*
D02*
G37*
G36*
X658260Y34900D02*
X642220D01*
Y32765D01*
X632860D01*
Y34900D01*
X616820D01*
Y32765D01*
X597689D01*
X596203Y32469D01*
X595127Y31750D01*
X594872D01*
X593472Y31170D01*
X592400Y30098D01*
X591820Y28698D01*
Y28432D01*
X591124Y27391D01*
X590829Y25904D01*
Y22669D01*
X590448D01*
X589680Y22516D01*
X589029Y22081D01*
X588594Y21430D01*
X588441Y20663D01*
Y8957D01*
X588594Y8190D01*
X589029Y7539D01*
X589680Y7104D01*
X590448Y6951D01*
X598353D01*
X599120Y7104D01*
X599771Y7539D01*
X600206Y8190D01*
X600359Y8957D01*
Y20663D01*
X600206Y21430D01*
X599771Y22081D01*
X599120Y22516D01*
X598598Y22620D01*
Y24295D01*
X599298Y24995D01*
X616820D01*
Y22860D01*
X632860D01*
Y24995D01*
X642220D01*
Y22860D01*
X658260D01*
Y34900D01*
D02*
G37*
G36*
X421760Y35960D02*
X415740D01*
Y27940D01*
X421760D01*
Y35960D01*
D02*
G37*
G36*
X523471Y36156D02*
X515620D01*
X507769D01*
Y29568D01*
X512818D01*
X513020Y28552D01*
X512742Y28437D01*
X511313Y27008D01*
X510648Y25400D01*
X520592D01*
X519927Y27008D01*
X518498Y28437D01*
X518220Y28552D01*
X518422Y29568D01*
X523471D01*
Y36156D01*
D02*
G37*
G36*
X484869Y46243D02*
X471693D01*
Y33081D01*
X479376D01*
X485960Y26497D01*
X486278Y26284D01*
X486549Y26014D01*
X486902Y25868D01*
X487220Y25655D01*
X487596Y25580D01*
X487949Y25434D01*
X488332D01*
X488707Y25359D01*
X489082Y25434D01*
X489465D01*
X489818Y25580D01*
X490194Y25655D01*
X490512Y25868D01*
X490865Y26014D01*
X491136Y26284D01*
X491454Y26497D01*
X491666Y26815D01*
X491937Y27086D01*
X492083Y27439D01*
X492296Y27757D01*
X492371Y28133D01*
X492517Y28486D01*
Y28869D01*
X492592Y29244D01*
X492517Y29619D01*
Y30002D01*
X492371Y30355D01*
X492296Y30731D01*
X492083Y31049D01*
X491937Y31402D01*
X491666Y31673D01*
X491454Y31991D01*
X484869Y38575D01*
Y46243D01*
D02*
G37*
G36*
X374490Y70040D02*
X356950D01*
Y49500D01*
X359814D01*
Y37523D01*
X355016D01*
Y24346D01*
X368177D01*
Y37523D01*
X367583D01*
Y49500D01*
X374490D01*
Y70040D01*
D02*
G37*
G36*
X172580Y31253D02*
Y21590D01*
X178411D01*
Y24320D01*
X178169Y26158D01*
X177459Y27870D01*
X176331Y29341D01*
X174860Y30469D01*
X173148Y31179D01*
X172580Y31253D01*
D02*
G37*
G36*
X170040D02*
X169472Y31179D01*
X167760Y30469D01*
X166289Y29341D01*
X165161Y27870D01*
X164451Y26158D01*
X164209Y24320D01*
Y21590D01*
X170040D01*
Y31253D01*
D02*
G37*
G36*
X520592Y22860D02*
X516890D01*
Y19158D01*
X518498Y19823D01*
X519927Y21252D01*
X520592Y22860D01*
D02*
G37*
G36*
X514350D02*
X510648D01*
X511313Y21252D01*
X512742Y19823D01*
X514350Y19158D01*
Y22860D01*
D02*
G37*
G36*
X430320Y25400D02*
X424300D01*
Y17380D01*
X430320D01*
Y25400D01*
D02*
G37*
G36*
X421760D02*
X415740D01*
Y17380D01*
X421760D01*
Y25400D01*
D02*
G37*
G36*
X552552Y23963D02*
X549870D01*
Y16080D01*
X555853D01*
Y20663D01*
X555602Y21926D01*
X554887Y22997D01*
X553816Y23712D01*
X552552Y23963D01*
D02*
G37*
G36*
X547330D02*
X544647D01*
X543384Y23712D01*
X542313Y22997D01*
X541598Y21926D01*
X541347Y20663D01*
Y16080D01*
X547330D01*
Y23963D01*
D02*
G37*
G36*
X486217Y22113D02*
X479629D01*
Y15532D01*
X486217D01*
Y22113D01*
D02*
G37*
G36*
X477089D02*
X470500D01*
Y15532D01*
X477089D01*
Y22113D01*
D02*
G37*
G36*
X610373Y18966D02*
Y15264D01*
X614076D01*
X613410Y16871D01*
X611981Y18300D01*
X610373Y18966D01*
D02*
G37*
G36*
X607833D02*
X606226Y18300D01*
X604796Y16871D01*
X604131Y15264D01*
X607833D01*
Y18966D01*
D02*
G37*
G36*
X659530Y21170D02*
X651510D01*
Y15150D01*
X659530D01*
Y21170D01*
D02*
G37*
G36*
X634130D02*
X626110D01*
Y15150D01*
X634130D01*
Y21170D01*
D02*
G37*
G36*
X648970D02*
X640950D01*
Y15150D01*
X648970D01*
Y21170D01*
D02*
G37*
G36*
X623570D02*
X615550D01*
Y15150D01*
X623570D01*
Y21170D01*
D02*
G37*
G36*
X534670Y15132D02*
X533062Y14467D01*
X531633Y13038D01*
X530967Y11430D01*
X534670D01*
Y15132D01*
D02*
G37*
G36*
X178411Y19050D02*
X172580D01*
Y9387D01*
X173148Y9461D01*
X174860Y10171D01*
X176331Y11299D01*
X177459Y12770D01*
X178169Y14482D01*
X178411Y16320D01*
Y19050D01*
D02*
G37*
G36*
X264911D02*
X259080D01*
Y9387D01*
X259648Y9461D01*
X261360Y10171D01*
X262831Y11299D01*
X263959Y12770D01*
X264669Y14482D01*
X264911Y16320D01*
Y19050D01*
D02*
G37*
G36*
X256540D02*
X250709D01*
Y16320D01*
X250951Y14482D01*
X251661Y12770D01*
X252789Y11299D01*
X254260Y10171D01*
X255972Y9461D01*
X256540Y9387D01*
Y19050D01*
D02*
G37*
G36*
X170040D02*
X164209D01*
Y16320D01*
X164451Y14482D01*
X165161Y12770D01*
X166289Y11299D01*
X167760Y10171D01*
X169472Y9461D01*
X170040Y9387D01*
Y19050D01*
D02*
G37*
G36*
X614076Y12724D02*
X610373D01*
Y9021D01*
X611981Y9687D01*
X613410Y11116D01*
X614076Y12724D01*
D02*
G37*
G36*
X607833D02*
X604131D01*
X604796Y11116D01*
X606226Y9687D01*
X607833Y9021D01*
Y12724D01*
D02*
G37*
G36*
X502920Y12593D02*
Y8890D01*
X506623D01*
X505957Y10498D01*
X504528Y11927D01*
X502920Y12593D01*
D02*
G37*
G36*
X500380D02*
X498772Y11927D01*
X497343Y10498D01*
X496678Y8890D01*
X500380D01*
Y12593D01*
D02*
G37*
G36*
X272200Y158420D02*
X254660D01*
Y146880D01*
X267622D01*
X278703Y135799D01*
Y59690D01*
X278949Y58451D01*
X279651Y57401D01*
X283461Y53591D01*
X284511Y52889D01*
X285750Y52643D01*
X294640D01*
X295879Y52889D01*
X296929Y53591D01*
X305629Y62291D01*
X306490Y61715D01*
X306178Y60960D01*
X309880D01*
Y64662D01*
X309125Y64350D01*
X308549Y65211D01*
X325191Y81853D01*
X401181D01*
X401355Y81632D01*
X401040Y80410D01*
X400638Y80244D01*
X399209Y78814D01*
X398543Y77207D01*
X403515D01*
Y74667D01*
X398543D01*
X399209Y73059D01*
X399942Y72326D01*
X399521Y71310D01*
X393680D01*
Y70977D01*
X393490Y70040D01*
X392664Y70040D01*
X375950D01*
Y49500D01*
X382014D01*
Y37523D01*
X380416D01*
Y24346D01*
X393577D01*
Y37523D01*
X389783D01*
Y48782D01*
X390501Y49500D01*
X393490Y49500D01*
X393680Y48563D01*
Y48230D01*
X402450D01*
Y59770D01*
X403720D01*
Y61040D01*
X413760D01*
Y68767D01*
X414699Y69156D01*
X427718Y56136D01*
Y35960D01*
X424300D01*
Y27940D01*
X430320D01*
Y28328D01*
X431176Y28788D01*
X432010Y28276D01*
Y18650D01*
X439472D01*
X446149Y11973D01*
X447199Y11271D01*
X448438Y11025D01*
X455182D01*
Y7681D01*
X468359D01*
Y20843D01*
X464969D01*
Y33081D01*
X468282D01*
Y46243D01*
X455105D01*
Y33081D01*
X458495D01*
Y20843D01*
X455182D01*
Y17499D01*
X449779D01*
X444050Y23228D01*
Y34690D01*
X435498D01*
X435185Y34752D01*
X434528D01*
X434192Y35088D01*
Y57477D01*
X433946Y58716D01*
X433244Y59766D01*
X416724Y76286D01*
X416724Y76287D01*
X405631Y87379D01*
X404581Y88081D01*
X403342Y88327D01*
X323850D01*
X322611Y88081D01*
X321561Y87379D01*
X312276Y78094D01*
X311260Y78515D01*
Y86500D01*
X300990D01*
Y77730D01*
X310475D01*
X310896Y76714D01*
X293299Y59117D01*
X287091D01*
X285177Y61031D01*
Y137140D01*
X284931Y138379D01*
X284229Y139429D01*
X272200Y151458D01*
Y158420D01*
D02*
G37*
G36*
X742540Y33730D02*
X716270D01*
Y7460D01*
X717168D01*
X721449Y8138D01*
X725572Y9478D01*
X729434Y11446D01*
X732941Y13994D01*
X736006Y17059D01*
X738554Y20566D01*
X740522Y24428D01*
X741862Y28551D01*
X742540Y32833D01*
Y33730D01*
D02*
G37*
G36*
X713730D02*
X687460D01*
Y32833D01*
X688138Y28551D01*
X689478Y24428D01*
X691446Y20566D01*
X693994Y17059D01*
X697059Y13994D01*
X700566Y11446D01*
X704428Y9478D01*
X708551Y8138D01*
X712832Y7460D01*
X713730D01*
Y33730D01*
D02*
G37*
G36*
X62540D02*
X36270D01*
Y7460D01*
X37167D01*
X41449Y8138D01*
X45572Y9478D01*
X49434Y11446D01*
X52941Y13994D01*
X56006Y17059D01*
X58554Y20566D01*
X60522Y24428D01*
X61862Y28551D01*
X62540Y32833D01*
Y33730D01*
D02*
G37*
G36*
X33730D02*
X7460D01*
Y32833D01*
X8138Y28551D01*
X9478Y24428D01*
X11446Y20566D01*
X13994Y17059D01*
X17059Y13994D01*
X20566Y11446D01*
X24428Y9478D01*
X28551Y8138D01*
X32833Y7460D01*
X33730D01*
Y33730D01*
D02*
G37*
G36*
X571500Y40715D02*
X571125Y40640D01*
X570742D01*
X570389Y40494D01*
X570013Y40419D01*
X569695Y40206D01*
X569342Y40060D01*
X569071Y39789D01*
X568753Y39577D01*
X568541Y39259D01*
X568270Y38988D01*
X568124Y38635D01*
X567911Y38317D01*
X567836Y37941D01*
X567690Y37588D01*
Y37205D01*
X567615Y36830D01*
Y22669D01*
X567547D01*
X566780Y22516D01*
X566129Y22081D01*
X565694Y21430D01*
X565541Y20663D01*
Y8957D01*
X565694Y8190D01*
X566129Y7539D01*
X566780Y7104D01*
X567547Y6951D01*
X575452D01*
X576220Y7104D01*
X576871Y7539D01*
X577306Y8190D01*
X577459Y8957D01*
Y20663D01*
X577306Y21430D01*
X576871Y22081D01*
X576220Y22516D01*
X575452Y22669D01*
X575385D01*
Y36830D01*
X575310Y37205D01*
Y37588D01*
X575164Y37941D01*
X575089Y38317D01*
X574876Y38635D01*
X574730Y38988D01*
X574459Y39259D01*
X574247Y39577D01*
X573929Y39789D01*
X573658Y40060D01*
X573305Y40206D01*
X572987Y40419D01*
X572611Y40494D01*
X572258Y40640D01*
X571875D01*
X571500Y40715D01*
D02*
G37*
G36*
X659530Y12610D02*
X651510D01*
Y6590D01*
X659530D01*
Y12610D01*
D02*
G37*
G36*
X648970D02*
X640950D01*
Y6590D01*
X648970D01*
Y12610D01*
D02*
G37*
G36*
X634130D02*
X626110D01*
Y6590D01*
X634130D01*
Y12610D01*
D02*
G37*
G36*
X623570D02*
X615550D01*
Y6590D01*
X623570D01*
Y12610D01*
D02*
G37*
G36*
X486217Y12992D02*
X479629D01*
Y6411D01*
X486217D01*
Y12992D01*
D02*
G37*
G36*
X477089D02*
X470500D01*
Y6411D01*
X477089D01*
Y12992D01*
D02*
G37*
G36*
X555853Y13540D02*
X549870D01*
Y5657D01*
X552552D01*
X553816Y5908D01*
X554887Y6623D01*
X555602Y7694D01*
X555853Y8957D01*
Y13540D01*
D02*
G37*
G36*
X537210Y15132D02*
Y10160D01*
Y5188D01*
X538818Y5853D01*
X540247Y7282D01*
X540515Y7930D01*
X541572Y7826D01*
X541598Y7694D01*
X542313Y6623D01*
X543384Y5908D01*
X544647Y5657D01*
X547330D01*
Y13540D01*
X541347D01*
Y13037D01*
X540331Y12835D01*
X540247Y13038D01*
X538818Y14467D01*
X537210Y15132D01*
D02*
G37*
G36*
X534670Y8890D02*
X530967D01*
X531633Y7282D01*
X533062Y5853D01*
X534670Y5188D01*
Y8890D01*
D02*
G37*
G36*
X506623Y6350D02*
X502920D01*
Y2648D01*
X504528Y3313D01*
X505957Y4742D01*
X506623Y6350D01*
D02*
G37*
G36*
X500380D02*
X496678D01*
X497343Y4742D01*
X498772Y3313D01*
X500380Y2648D01*
Y6350D01*
D02*
G37*
G36*
X145475Y16779D02*
X123885D01*
Y1285D01*
X145475D01*
Y16779D01*
D02*
G37*
G36*
X89475D02*
X67885D01*
Y1285D01*
X89475D01*
Y16779D01*
D02*
G37*
%LPD*%
G36*
X119902Y408775D02*
X122922D01*
Y410045D01*
X128152D01*
Y410345D01*
X139672D01*
Y406915D01*
X152050D01*
X152801Y406164D01*
X152412Y405225D01*
X148962D01*
Y399205D01*
X156982D01*
Y400655D01*
X157921Y401044D01*
X173940Y385024D01*
Y381481D01*
X172924Y381060D01*
X169883Y384101D01*
X169043Y384663D01*
X168052Y384860D01*
X152701D01*
X152137Y385704D01*
X152292Y386080D01*
X142347D01*
X142503Y385704D01*
X141939Y384860D01*
X127408D01*
X120273Y391995D01*
X120929Y392775D01*
X123862D01*
Y397815D01*
Y402855D01*
X120842D01*
Y401585D01*
X119275D01*
X118893Y401967D01*
X118815Y402358D01*
X118253Y403198D01*
X116765Y404686D01*
X115925Y405247D01*
X114934Y405445D01*
X111736D01*
X111348Y406383D01*
X112213Y407249D01*
X112326Y407418D01*
X113431Y408523D01*
X114342Y408775D01*
X114342Y408775D01*
X117362D01*
Y413815D01*
X119902D01*
Y408775D01*
D02*
G37*
%LPC*%
G36*
X146422Y405225D02*
X138402D01*
Y399205D01*
X146422D01*
Y405225D01*
D02*
G37*
G36*
X129422Y402855D02*
X126402D01*
Y399085D01*
X129422D01*
Y402855D01*
D02*
G37*
G36*
Y396545D02*
X126402D01*
Y392775D01*
X129422D01*
Y396545D01*
D02*
G37*
G36*
X156982Y396665D02*
X147692D01*
X138402D01*
Y390645D01*
X142103D01*
X142765Y389629D01*
X142347Y388620D01*
X152292D01*
X151875Y389629D01*
X152537Y390645D01*
X156982D01*
Y396665D01*
D02*
G37*
%LPD*%
G36*
X375950Y181500D02*
X393490D01*
X393680Y180563D01*
Y180230D01*
X400209D01*
X400630Y179214D01*
X399553Y178138D01*
X398887Y176530D01*
X403860D01*
Y173990D01*
X398887D01*
X399235Y173151D01*
X398556Y172135D01*
X369476D01*
X369447Y172162D01*
X368990Y173102D01*
X369136Y173455D01*
X369349Y173773D01*
X369424Y174149D01*
X369570Y174502D01*
Y174885D01*
X369645Y175260D01*
Y181500D01*
X374490D01*
Y187845D01*
X375950D01*
Y181500D01*
D02*
G37*
G36*
X594360Y176530D02*
Y156210D01*
X591820Y153670D01*
X584200D01*
X580390Y149860D01*
Y97790D01*
X576685Y94085D01*
X567585D01*
X563880Y97790D01*
Y149860D01*
X560070Y153670D01*
X553720D01*
X549910Y157480D01*
Y176530D01*
X553720Y180340D01*
X590550D01*
X594360Y176530D01*
D02*
G37*
G36*
Y88900D02*
Y64770D01*
X591820Y62230D01*
X553720D01*
X549910Y66040D01*
Y88900D01*
X553720Y92710D01*
X590550D01*
X594360Y88900D01*
D02*
G37*
D11*
X403760Y191730D02*
Y206990D01*
X431710Y87680D02*
X432405Y88375D01*
X403760Y45940D02*
Y75692D01*
X16080Y356190D02*
X57580D01*
X327760Y191730D02*
Y208800D01*
Y191730D02*
X346760D01*
X327710Y191680D02*
X327760Y191730D01*
X299720Y87690D02*
X299760Y87730D01*
X327720Y59690D02*
X327760Y59730D01*
X311150Y59690D02*
X327720D01*
X662500Y406910D02*
X675640Y420050D01*
X656500Y406910D02*
X659500D01*
X662500D01*
X628650Y379060D02*
X656500Y406910D01*
X628650Y364280D02*
Y379060D01*
X586650Y406910D02*
X589650D01*
X575310Y395570D02*
X586650Y406910D01*
X575310Y364370D02*
Y395570D01*
X628635Y364265D02*
X628650Y364280D01*
X601995Y364265D02*
X628635D01*
X575370Y364310D02*
X601920D01*
X601980Y364250D01*
X601995Y364265D01*
X549910Y364370D02*
X575310D01*
X575370Y364310D01*
X524510Y364370D02*
X549910D01*
X516800Y406910D02*
X519800D01*
X497840Y364370D02*
X524510D01*
X497840Y387950D02*
X516800Y406910D01*
X497840Y364370D02*
Y387950D01*
X376040Y201950D02*
X384760Y193230D01*
Y191730D02*
Y193230D01*
X376040Y201950D02*
Y219710D01*
X351670D02*
X376040D01*
X365760Y191730D02*
X384760D01*
X365760Y175260D02*
Y191730D01*
X90401Y390794D02*
Y392222D01*
X87630Y388024D02*
X90401Y390794D01*
X87630Y388016D02*
Y388024D01*
X78509Y378895D02*
X87630Y388016D01*
X78509Y361592D02*
Y378895D01*
X86360Y353734D02*
Y353742D01*
X78509Y361592D02*
X86360Y353742D01*
X314960Y26670D02*
X341630D01*
X607390Y71755D02*
X617550D01*
Y59690D02*
Y71755D01*
Y83820D01*
X608693Y138822D02*
X615969D01*
X608450Y139065D02*
X608693Y138822D01*
X617340Y125730D02*
Y137795D01*
X616996D02*
X617340D01*
X615969Y138822D02*
X616996Y137795D01*
X617340D02*
Y149860D01*
X571500Y81280D02*
X576810D01*
X580390Y77700D01*
Y68580D02*
Y77700D01*
X571500Y68580D02*
Y81280D01*
X566620Y81710D02*
X571500D01*
X562610Y77700D02*
X566620Y81710D01*
X562610Y68580D02*
Y77700D01*
X594400Y103710D02*
X596496D01*
X596510Y103696D01*
X610526Y104140D02*
X610870D01*
X610082Y103696D02*
X610526Y104140D01*
X596510Y103696D02*
X610082D01*
X571500Y14810D02*
Y36830D01*
X111230Y310000D02*
X111760Y310530D01*
Y326390D01*
X412800Y163780D02*
X431710D01*
X431720Y163770D02*
X431760Y163730D01*
X412750Y163830D02*
X412800Y163780D01*
X293370Y72390D02*
X296744D01*
X299720Y75366D02*
Y87690D01*
X296744Y72390D02*
X299720Y75366D01*
X403515Y75937D02*
X403760Y75692D01*
Y45940D02*
X418820Y30880D01*
X299720Y163770D02*
Y180340D01*
Y163770D02*
X299760Y163730D01*
X327660Y175260D02*
X327710Y175310D01*
Y191680D01*
X327760Y208800D02*
X336670Y217710D01*
X391040D02*
Y219710D01*
X393250Y215500D02*
X395250D01*
X403760Y206990D01*
X391040Y217710D02*
X393250Y215500D01*
X336670Y217710D02*
Y219710D01*
X223735Y354115D02*
X234315D01*
X223520Y354330D02*
X223735Y354115D01*
X240570Y347860D02*
X242570D01*
X234315Y354115D02*
X240570Y347860D01*
X418820Y30880D02*
X420820D01*
X423030Y26670D02*
Y28670D01*
X420820Y30880D02*
X423030Y28670D01*
X415290Y87630D02*
X415340Y87680D01*
X431710D01*
X432405Y88375D02*
X459095D01*
X495008Y14262D02*
X501650Y7620D01*
X478359Y14262D02*
X495008D01*
X535940Y10160D02*
X536284D01*
X536924Y10800D01*
X459095Y88375D02*
X459740Y89020D01*
X515620Y24130D02*
Y37426D01*
X509600Y124460D02*
Y126460D01*
X403810Y175310D02*
X403860Y175260D01*
X403760Y191730D02*
X403810Y191680D01*
Y175310D02*
Y191680D01*
X431710Y163780D02*
X431720Y163770D01*
X459740Y129540D02*
X506520D01*
X509600Y148590D02*
Y150590D01*
X506520Y129540D02*
X509600Y126460D01*
Y148590D01*
Y150590D02*
X525145Y166135D01*
Y167640D01*
X536924Y10800D02*
X546490D01*
X548600Y12910D01*
Y14810D01*
X609217Y13880D02*
X624840D01*
X650240D01*
X609103Y13994D02*
X609217Y13880D01*
X632460Y72390D02*
X632505Y72435D01*
X632460Y44450D02*
X632505Y44495D01*
Y59645D01*
Y59735D02*
X632550Y59690D01*
X632505Y59645D02*
X632550Y59690D01*
X632460Y72390D02*
X632505Y72345D01*
Y59735D02*
Y72345D01*
Y83865D02*
X632550Y83820D01*
X632505Y72435D02*
Y83775D01*
X632550Y72390D02*
X642620D01*
X632505Y83775D02*
X632550Y83820D01*
X632505Y72345D02*
X632550Y72390D01*
X632340Y149860D02*
X632400Y149920D01*
Y110550D02*
X632460Y110490D01*
X632340Y125730D02*
X632400Y125670D01*
Y110550D02*
Y125670D01*
X632460Y99060D02*
X632505Y99015D01*
Y83865D02*
Y99015D01*
X632340Y137795D02*
Y149860D01*
Y125730D02*
Y137795D01*
X632400Y149920D02*
Y165040D01*
X632340Y137795D02*
X642500D01*
X632400Y165040D02*
X632460Y165100D01*
X263430Y241550D02*
X265390Y239590D01*
X478289Y39662D02*
X488707Y29244D01*
X478281Y39662D02*
X478289D01*
X594400Y14810D02*
X594714Y15123D01*
Y25904D01*
X597689Y28880D01*
X650240D01*
X218440Y150786D02*
Y151130D01*
X214790Y147136D02*
X218440Y150786D01*
X214790Y136960D02*
Y147136D01*
X212830Y135000D02*
X214790Y136960D01*
X387037Y14299D02*
Y14307D01*
X384266Y11529D02*
X387037Y14299D01*
X384258Y11529D02*
X384266D01*
X377908Y5179D02*
X384258Y11529D01*
X300891Y5179D02*
X377908D01*
X293370Y12700D02*
Y22860D01*
Y12700D02*
X300891Y5179D01*
X200417Y149617D02*
X200660Y149860D01*
X200417Y135287D02*
Y149617D01*
X200130Y135000D02*
X200417Y135287D01*
X359949Y12700D02*
X361597Y14347D01*
X299720Y15676D02*
Y33020D01*
X302696Y12700D02*
X359949D01*
X299720Y15676D02*
X302696Y12700D01*
X295495Y403935D02*
X295570Y404010D01*
X240030Y403860D02*
X240105Y403935D01*
X361637Y30895D02*
X363698Y32957D01*
Y57668D02*
X365760Y59730D01*
X363698Y32957D02*
Y57668D01*
X515190Y79990D02*
X515405Y79775D01*
Y54229D02*
Y79775D01*
Y54229D02*
X515620Y54014D01*
X384760Y59730D02*
X385898Y58592D01*
Y32033D02*
Y58592D01*
Y32033D02*
X387037Y30895D01*
D15*
X548600Y103710D02*
Y131353D01*
X552450Y135203D01*
Y135890D01*
X147572Y397815D02*
X147692Y397935D01*
X147320Y397563D02*
X147572Y397815D01*
X113030Y353440D02*
Y364490D01*
Y352820D02*
Y353440D01*
X57580Y356190D02*
X59580D01*
X14080D02*
X16080D01*
X58850Y119970D02*
X60850D01*
X83440Y105410D02*
X83940D01*
X71120D02*
X83440D01*
X83440Y80010D02*
X83940D01*
X71120D02*
X83440D01*
X99060Y120650D02*
Y134470D01*
X98530Y135000D02*
X99060Y134470D01*
X98940Y80010D02*
Y105410D01*
X144176Y96520D02*
X144184D01*
X134830Y87174D02*
X144176Y96520D01*
X134830Y61198D02*
Y87174D01*
X132922Y59290D02*
X134830Y61198D01*
X98547Y59290D02*
X132922D01*
X95530Y56273D02*
X98547Y59290D01*
X95530Y56077D02*
Y56273D01*
X91680Y52227D02*
X95530Y56077D01*
X91680Y47782D02*
Y52227D01*
X98940Y105410D02*
X99979Y104371D01*
X136325D01*
X144176Y96520D01*
X99060Y105530D02*
Y120650D01*
X98940Y105410D02*
X99060Y105530D01*
X272630Y332860D02*
X281480Y324010D01*
X295570D01*
X562610Y161720D02*
X571500Y170610D01*
X549910Y148590D02*
X562610Y161290D01*
Y161720D01*
X524600Y148590D02*
X549910D01*
X469900Y142066D02*
Y154940D01*
X524600Y124460D02*
Y148590D01*
X465232Y137399D02*
X469900Y142066D01*
X576580Y113030D02*
Y125730D01*
X524600Y107400D02*
Y124460D01*
X521170Y103970D02*
X524600Y107400D01*
X521170Y102220D02*
Y103970D01*
X507410Y104020D02*
X513440Y97990D01*
X515190D01*
X459740Y104020D02*
X507410D01*
X516940Y97990D02*
X521170Y102220D01*
X515190Y97990D02*
X516940D01*
X453377Y137399D02*
X465232D01*
X446434Y130455D02*
X453377Y137399D01*
X446434Y119904D02*
Y130455D01*
X433260Y106730D02*
X446434Y119904D01*
X432510Y105980D02*
X434470Y104020D01*
X431760Y106730D02*
X433260D01*
X434470Y104020D02*
X459740D01*
X176530Y374966D02*
X179982Y371514D01*
X149692Y412935D02*
X176530Y386097D01*
Y374966D02*
Y386097D01*
X179982Y358477D02*
Y371514D01*
X125132Y413415D02*
X125612Y412935D01*
X147692D01*
X124652Y414295D02*
X125132Y413815D01*
X147692Y412935D02*
X149692D01*
X242570Y332860D02*
X272630D01*
X227990Y345440D02*
X240570Y332860D01*
X242570D01*
X179982Y345440D02*
Y358477D01*
Y345440D02*
X227990D01*
X179982Y358477D02*
Y358915D01*
X112132Y430225D02*
X124652Y417705D01*
Y414295D02*
Y417705D01*
X112132Y413815D02*
Y430225D01*
X111652Y413489D02*
X111978Y413815D01*
X111652Y410406D02*
Y413489D01*
X110382Y409081D02*
Y409137D01*
X108442Y433915D02*
X112132Y430225D01*
X108442Y433915D02*
Y435915D01*
X110382Y409137D02*
X111652Y410406D01*
X107967Y406665D02*
X110382Y409081D01*
X97532Y402945D02*
X101252Y406665D01*
X107967D01*
X91671Y393645D02*
X97532Y399507D01*
Y402945D01*
X91671Y392065D02*
Y393645D01*
X250930Y313000D02*
X257484Y319554D01*
X262404D02*
X262890Y320040D01*
X257484Y319554D02*
X262404D01*
X266700Y325120D02*
X275008Y316812D01*
X217170Y325120D02*
X266700D01*
X205105Y337185D02*
X217170Y325120D01*
X16510Y110490D02*
Y111177D01*
X17350Y112017D01*
Y119970D01*
X60850D02*
X67880Y127000D01*
X68580D01*
X7650Y328900D02*
X63882D01*
X5080Y331470D02*
Y345190D01*
Y331470D02*
X7650Y328900D01*
X74712Y328930D02*
X76200Y327442D01*
Y322630D02*
Y327442D01*
X63882Y328900D02*
X63912Y328930D01*
X74712D01*
X5080Y345190D02*
X12100Y352210D01*
Y354210D02*
X14080Y356190D01*
X12100Y352210D02*
Y354210D01*
X59580Y356190D02*
X69895Y345875D01*
X92723D01*
X85830Y310000D02*
X86360Y310530D01*
X76200Y322630D02*
X85830Y313000D01*
Y310000D02*
Y313000D01*
X86360Y310530D02*
Y323850D01*
X96187Y349340D02*
X109550D01*
X92723Y345875D02*
X96187Y349340D01*
X109550D02*
X113030Y352820D01*
X86360Y431204D02*
Y439420D01*
X90170Y443230D02*
X96520D01*
X86360Y439420D02*
X90170Y443230D01*
X96520D02*
X97006Y443716D01*
X101151D01*
X102640Y445205D01*
X116152D01*
X147320Y387350D02*
Y397563D01*
X125132Y397815D02*
X147572D01*
X118632Y413815D02*
X119112Y413335D01*
Y410145D02*
Y413335D01*
X116152Y445205D02*
X123442Y437915D01*
X119112Y410145D02*
X125132Y404125D01*
Y397815D02*
Y404125D01*
X123442Y435915D02*
Y437915D01*
X242570Y347860D02*
X270390D01*
X265530Y351460D02*
X269010Y347980D01*
X265530Y378360D02*
X267200Y380030D01*
X265530Y351460D02*
Y378360D01*
X269010Y347980D02*
X270510D01*
X270390Y347860D02*
X270510Y347980D01*
X291590Y380030D02*
X295570Y384010D01*
X267200Y380030D02*
X291590D01*
X424180Y262890D02*
X424867D01*
X425987Y264010D01*
X443570D01*
Y404010D02*
X448070D01*
X470800Y426740D01*
Y438910D01*
X473800D01*
X480840Y445950D01*
X530610D01*
X537650Y438910D01*
X540650D01*
X570150D01*
X577190Y445950D01*
X600460D01*
X607500Y438910D02*
X610500D01*
X613500D01*
X600460Y445950D02*
X607500Y438910D01*
X616730Y417050D02*
X623570Y410210D01*
X613500Y438910D02*
X616730Y435680D01*
Y417050D02*
Y435680D01*
X85830Y135000D02*
X86360Y135530D01*
Y145661D01*
X88019Y147320D01*
X97790D01*
X114342Y394263D02*
X126335Y382270D01*
X112132Y397065D02*
Y397815D01*
X114342Y394263D02*
Y394855D01*
X112132Y397065D02*
X114342Y394855D01*
X126335Y382270D02*
X168052D01*
X163395Y345440D02*
Y354273D01*
X171849Y362728D01*
X163395Y345440D02*
X163403D01*
X171658Y337185D01*
X205105D01*
X273520Y254250D02*
X275008Y255738D01*
Y316812D01*
X263430Y254250D02*
X273520D01*
X278482Y249288D01*
X303808D02*
X307986Y245110D01*
X308610D01*
X278482Y249288D02*
X303808D01*
X171849Y362728D02*
Y378473D01*
X168052Y382270D02*
X171849Y378473D01*
X83904Y334690D02*
X86360Y337146D01*
X122594D01*
X57580Y334690D02*
X83904D01*
X16080D02*
X57580D01*
X122594Y337146D02*
X130810Y328930D01*
X250930Y310000D02*
Y313000D01*
X265390Y239590D02*
X276030D01*
X280670Y234950D01*
X266025Y226255D02*
X272220D01*
X263430Y228850D02*
X266025Y226255D01*
X272220D02*
X272415Y226060D01*
X280670D01*
X421170Y284010D02*
X443570D01*
X414020Y276860D02*
X421170Y284010D01*
X443570Y364010D02*
X448070D01*
X459740Y352340D01*
Y320798D02*
Y352340D01*
X479394Y300918D02*
Y301144D01*
X459740Y320798D02*
X479394Y301144D01*
X226102Y135572D02*
Y144822D01*
X229825Y148545D01*
X225530Y135000D02*
X226102Y135572D01*
X229825Y148545D02*
X233635D01*
X233680Y148590D01*
X162030Y295082D02*
Y310000D01*
Y295082D02*
X181610Y275502D01*
Y243840D02*
Y275502D01*
X287020Y185548D02*
X291865Y190393D01*
X287020Y155970D02*
Y185548D01*
X293526Y190393D02*
X298857Y195724D01*
X291865Y190393D02*
X293526D01*
X322918Y144730D02*
X347733Y169545D01*
X406227D01*
X422212Y185530D01*
X459740D01*
X287020Y155970D02*
X298260Y144730D01*
X299760D01*
X322918D01*
X187430Y310000D02*
X187492Y310062D01*
Y325922D02*
X187960Y326390D01*
X187492Y310062D02*
Y325922D01*
X263557Y216027D02*
X279400D01*
X263555Y216025D02*
X263557Y216027D01*
X443570Y324010D02*
X448070D01*
X460930Y311150D02*
X461010D01*
X448070Y324010D02*
X460930Y311150D01*
X149330Y271040D02*
Y310000D01*
Y271040D02*
X154940Y265430D01*
X207035Y67795D02*
X207060Y67820D01*
X217060D02*
X217290Y68050D01*
Y73842D01*
X220721Y84396D02*
X220967D01*
X217060Y80734D02*
X220721Y84396D01*
X220967D02*
X228600Y92028D01*
Y92036D01*
X217060Y73842D02*
Y80734D01*
X207035Y55272D02*
X209550Y52757D01*
Y52070D02*
Y52757D01*
X207035Y55272D02*
Y67795D01*
X229384Y80794D02*
X229870Y81280D01*
X224242Y80794D02*
X229384D01*
X217290Y73842D02*
X224242Y80794D01*
X155536Y351803D02*
X163983Y360249D01*
X105632Y388981D02*
Y397815D01*
Y388981D02*
X155536Y339077D01*
Y351803D01*
X105632Y397815D02*
X106112Y398295D01*
X200130Y310000D02*
Y313000D01*
X194310Y318820D02*
X200130Y313000D01*
X163983Y360249D02*
Y372110D01*
X155536Y339077D02*
X162508Y332105D01*
X190327D01*
X194310Y318820D02*
Y328122D01*
X190327Y332105D02*
X194310Y328122D01*
X200660Y313530D02*
Y328930D01*
X200130Y313000D02*
X200660Y313530D01*
X204470Y92028D02*
Y92036D01*
Y92028D02*
X212060Y84438D01*
X222060Y56377D02*
Y67820D01*
X218440Y52757D02*
X222060Y56377D01*
X218440Y52070D02*
Y52757D01*
X207010Y81280D02*
X212060Y76230D01*
Y84438D01*
Y67820D02*
Y76230D01*
X200660Y81280D02*
X207010D01*
X263180Y177800D02*
X263430Y178050D01*
X248920Y177800D02*
X263180D01*
X294640Y198556D02*
Y199580D01*
X439070Y344010D01*
X286834Y190750D02*
X294640Y198556D01*
X263430Y190750D02*
X286834D01*
X439070Y344010D02*
X443570D01*
X111230Y135000D02*
Y146580D01*
X103505Y154305D02*
X111230Y146580D01*
X81915Y154305D02*
X103505D01*
X74930Y147320D02*
X81915Y154305D01*
X127120Y66669D02*
Y68580D01*
X123640Y63189D02*
X127120Y66669D01*
X72701Y63189D02*
X123640D01*
X58850Y77040D02*
X72701Y63189D01*
X58850Y77040D02*
Y98470D01*
X127120Y68580D02*
X127596Y69056D01*
X74930Y123958D02*
Y147320D01*
X201830Y68050D02*
Y73842D01*
X193820Y76060D02*
X199612D01*
X201830Y73842D01*
X180340Y92036D02*
X184381Y87996D01*
Y85499D02*
Y87996D01*
Y85499D02*
X193820Y76060D01*
X201830Y68050D02*
X202060Y67820D01*
X208280Y45720D02*
X220752D01*
X236830Y66090D02*
X238560Y67820D01*
X199390Y54610D02*
X208280Y45720D01*
X192290Y61710D02*
X199390Y54610D01*
X199390D01*
X220752Y45720D02*
X236830Y61798D01*
X237920Y51640D02*
Y61798D01*
Y51640D02*
X255760Y33800D01*
X237920Y67180D02*
X238560Y67820D01*
X237920Y61798D02*
Y66090D01*
Y67180D01*
X255760Y33800D02*
X272030D01*
X279160Y26670D01*
X252730Y92464D02*
Y92472D01*
X248689Y88423D02*
X252730Y92464D01*
X246871Y88423D02*
X248689D01*
X232290Y73842D02*
X246871Y88423D01*
X232290Y68050D02*
Y73842D01*
X232060Y67820D02*
X232290Y68050D01*
X190560Y67820D02*
X192290Y66090D01*
Y61710D02*
Y66090D01*
X118152Y397335D02*
Y399045D01*
X116422Y400775D02*
X118152Y399045D01*
X116422Y400775D02*
Y401367D01*
X114934Y402855D02*
X116422Y401367D01*
X102830Y402855D02*
X114934D01*
X101342Y401367D02*
X102830Y402855D01*
X101342Y393442D02*
Y401367D01*
X97644Y389744D02*
X101342Y393442D01*
X97644Y375485D02*
Y389744D01*
X105632Y413815D02*
Y414136D01*
X105152Y414616D02*
X105632Y414136D01*
X86360Y414616D02*
X105152D01*
X91671Y375485D02*
X97644D01*
X87630Y371444D02*
X91671Y375485D01*
X87630Y371436D02*
Y371444D01*
X610500Y406910D02*
Y421060D01*
X592650Y438910D02*
X610500Y421060D01*
X589650Y438910D02*
X592650D01*
X537650Y406910D02*
X540650D01*
X519800Y424760D02*
X537650Y406910D01*
X519800Y424760D02*
Y438910D01*
X471170Y360084D02*
Y406910D01*
X459740Y146128D02*
Y167530D01*
X58850Y107878D02*
X74930Y123958D01*
X58850Y98470D02*
Y107878D01*
X17350Y98470D02*
X58850D01*
X127596Y69056D02*
Y96520D01*
D19*
X594400Y103710D02*
D03*
X571500D02*
D03*
X548600D02*
D03*
X571500Y14810D02*
D03*
X548600D02*
D03*
X594400D02*
D03*
D20*
X571500Y170610D02*
D03*
Y81710D02*
D03*
D21*
X91680Y47782D02*
D03*
X121680D02*
D03*
X111680D02*
D03*
X101680D02*
D03*
D22*
X659500Y406910D02*
D03*
X589650D02*
D03*
X519800D02*
D03*
X470800Y438910D02*
D03*
X540650D02*
D03*
X610500D02*
D03*
Y406910D02*
D03*
X659500Y438910D02*
D03*
X540650Y406910D02*
D03*
X589650Y438910D02*
D03*
X470800Y406910D02*
D03*
X519800Y438910D02*
D03*
D23*
X524510Y364370D02*
D03*
X628650Y364280D02*
D03*
X601980Y364250D02*
D03*
X575310Y364370D02*
D03*
X549910D02*
D03*
X497840D02*
D03*
X270510Y332980D02*
D03*
X459740Y104020D02*
D03*
X147692Y412935D02*
D03*
X242570Y332860D02*
D03*
Y347860D02*
D03*
X270510Y347980D02*
D03*
X147692Y397935D02*
D03*
X459740Y89020D02*
D03*
X624840Y13880D02*
D03*
X650240D02*
D03*
X497840Y349370D02*
D03*
X524510D02*
D03*
X549910D02*
D03*
X575310D02*
D03*
X601980Y349250D02*
D03*
X628650Y349280D02*
D03*
X650240Y28880D02*
D03*
X624840D02*
D03*
D24*
X295570Y324010D02*
D03*
Y384010D02*
D03*
X443570Y264010D02*
D03*
Y404010D02*
D03*
X295570Y304010D02*
D03*
X443570Y284010D02*
D03*
Y364010D02*
D03*
Y304010D02*
D03*
Y324010D02*
D03*
Y344010D02*
D03*
X295570Y264010D02*
D03*
Y284010D02*
D03*
Y344010D02*
D03*
Y364010D02*
D03*
Y404010D02*
D03*
X443570Y384010D02*
D03*
D25*
X376040Y219710D02*
D03*
X351670D02*
D03*
X524600Y148590D02*
D03*
Y124460D02*
D03*
X108442Y435915D02*
D03*
X617550Y59690D02*
D03*
Y83820D02*
D03*
X617340Y125730D02*
D03*
Y149860D02*
D03*
X123442Y435915D02*
D03*
X336670Y219710D02*
D03*
X391040D02*
D03*
X423030Y26670D02*
D03*
X509600Y124460D02*
D03*
Y148590D02*
D03*
X632550Y59690D02*
D03*
Y83820D02*
D03*
X632340Y125730D02*
D03*
Y149860D02*
D03*
X438030Y26670D02*
D03*
D26*
X515190Y97990D02*
D03*
X459740Y185530D02*
D03*
X515190Y79990D02*
D03*
X459740Y167530D02*
D03*
D27*
X180578Y372110D02*
D03*
X179982Y345440D02*
D03*
X144184Y96520D02*
D03*
X478359Y14262D02*
D03*
X163395Y345440D02*
D03*
X478281Y39662D02*
D03*
X163991Y372110D02*
D03*
X461693Y39662D02*
D03*
X461771Y14262D02*
D03*
X127596Y96520D02*
D03*
D28*
X125132Y413815D02*
D03*
X112132D02*
D03*
X125132Y397815D02*
D03*
X118632Y413815D02*
D03*
X112132Y397815D02*
D03*
X105632D02*
D03*
Y413815D02*
D03*
X118632Y397815D02*
D03*
D29*
X87630Y388024D02*
D03*
X86360Y353854D02*
D03*
X180340Y108624D02*
D03*
X252730Y109059D02*
D03*
X86360Y431204D02*
D03*
X515620Y37426D02*
D03*
X459740Y129540D02*
D03*
X471170Y343496D02*
D03*
X86360Y337266D02*
D03*
X386997Y14347D02*
D03*
X361597D02*
D03*
X228600Y92036D02*
D03*
X204470D02*
D03*
Y108624D02*
D03*
X228600D02*
D03*
X180340Y92036D02*
D03*
X252730Y92472D02*
D03*
X361597Y30935D02*
D03*
X386997D02*
D03*
X87630Y371436D02*
D03*
X86360Y414616D02*
D03*
X471170Y360084D02*
D03*
X515620Y54014D02*
D03*
X459740Y146128D02*
D03*
D30*
X98530Y135000D02*
D03*
X111230Y310000D02*
D03*
X98530D02*
D03*
X85830Y135000D02*
D03*
Y310000D02*
D03*
X149330Y135000D02*
D03*
X250930Y310000D02*
D03*
X162030Y135000D02*
D03*
X123930D02*
D03*
X187430D02*
D03*
X225530D02*
D03*
X136630Y310000D02*
D03*
X162030D02*
D03*
X123930D02*
D03*
X212830Y135000D02*
D03*
X136630D02*
D03*
X187430Y310000D02*
D03*
X149330D02*
D03*
X174730Y135000D02*
D03*
X200130D02*
D03*
Y310000D02*
D03*
X250930Y135000D02*
D03*
X238230D02*
D03*
X111230D02*
D03*
X174730Y310000D02*
D03*
X212830D02*
D03*
X225530D02*
D03*
X238230D02*
D03*
D31*
X99440Y80010D02*
D03*
X83440D02*
D03*
D32*
X99440Y105410D02*
D03*
X83440D02*
D03*
D33*
X314960Y26670D02*
D03*
X279160D02*
D03*
D34*
X144620Y68580D02*
D03*
X124620D02*
D03*
D35*
X113030Y337440D02*
D03*
Y353440D02*
D03*
D36*
X246560Y67820D02*
D03*
X182560D02*
D03*
X190560D02*
D03*
X238560D02*
D03*
D37*
X17350Y120090D02*
D03*
X58850D02*
D03*
X16080Y356310D02*
D03*
X57580D02*
D03*
Y334810D02*
D03*
X16080D02*
D03*
X58850Y98590D02*
D03*
X17350D02*
D03*
D38*
X149030Y193500D02*
D03*
X163030D02*
D03*
X177030D02*
D03*
X149030Y221500D02*
D03*
Y207500D02*
D03*
X163030Y221500D02*
D03*
Y207500D02*
D03*
X177030D02*
D03*
Y221500D02*
D03*
D39*
X263430Y254250D02*
D03*
Y241550D02*
D03*
Y228850D02*
D03*
Y203450D02*
D03*
Y216150D02*
D03*
Y178050D02*
D03*
Y190750D02*
D03*
Y152650D02*
D03*
Y292350D02*
D03*
Y279650D02*
D03*
Y266950D02*
D03*
Y165350D02*
D03*
D40*
X217060Y67820D02*
D03*
X207060D02*
D03*
X222060D02*
D03*
X212060D02*
D03*
X202060D02*
D03*
X197060D02*
D03*
X227060D02*
D03*
X232060D02*
D03*
D41*
X134680Y9032D02*
D03*
X78680D02*
D03*
D46*
X171310Y20320D02*
D03*
X257810D02*
D03*
D47*
X171310Y62020D02*
D03*
X257810D02*
D03*
D48*
X214530Y378360D02*
D03*
Y429360D02*
D03*
X265530Y378360D02*
D03*
Y429360D02*
D03*
D49*
X689500Y151200D02*
D03*
Y202000D02*
D03*
Y303600D02*
D03*
Y252800D02*
D03*
Y354400D02*
D03*
D50*
Y100400D02*
D03*
D51*
X240030Y403860D02*
D03*
D52*
X168620Y175000D02*
D03*
Y275000D02*
D03*
D53*
X185660Y57120D02*
D03*
X243460D02*
D03*
D54*
X715000Y415000D02*
D03*
Y35000D02*
D03*
X35000D02*
D03*
Y415000D02*
D03*
D55*
X384720Y191770D02*
D03*
X365720D02*
D03*
X327720Y59770D02*
D03*
X403720D02*
D03*
X327720Y191770D02*
D03*
X346720D02*
D03*
X403720D02*
D03*
X384720Y59770D02*
D03*
X365720D02*
D03*
X346720D02*
D03*
D56*
X431720Y106770D02*
D03*
X299720Y87770D02*
D03*
Y163770D02*
D03*
X431720Y87770D02*
D03*
Y163770D02*
D03*
Y144770D02*
D03*
X299720D02*
D03*
X431720Y125770D02*
D03*
X299720Y106770D02*
D03*
Y125770D02*
D03*
D57*
X98530Y290090D02*
Y310000D01*
Y290090D02*
X103589Y285031D01*
X113956Y279400D02*
X114300D01*
X108325Y285031D02*
X113956Y279400D01*
X103589Y285031D02*
X108325D01*
X536147Y343982D02*
Y347138D01*
X533401Y341288D02*
X533453D01*
X529590Y337820D02*
X529934D01*
X533453Y341288D02*
X536147Y343982D01*
X529934Y337820D02*
X533401Y341288D01*
X310907Y292343D02*
Y293173D01*
X300070Y304010D02*
X310907Y293173D01*
Y292343D02*
X311150Y292100D01*
X295570Y304010D02*
X300070D01*
X533915Y349370D02*
X536147Y347138D01*
X510297Y332983D02*
Y349370D01*
Y332983D02*
X510540Y332740D01*
X510297Y349370D02*
X510297Y349370D01*
X497840Y349370D02*
X510297D01*
X495840D02*
X497840D01*
X510297D02*
X524510D01*
X533915D01*
X549910D01*
X483770Y361440D02*
X495840Y349370D01*
X483770Y361440D02*
Y425940D01*
X470800Y438910D02*
X483770Y425940D01*
X572527Y319013D02*
X572770Y318770D01*
X567447Y319013D02*
X572527D01*
X562490Y323970D02*
Y349370D01*
Y323970D02*
X567447Y319013D01*
X562490Y349370D02*
X575310D01*
X581540D01*
X601980Y349250D02*
X614437D01*
Y339333D02*
Y349250D01*
X581540Y349310D02*
X601920D01*
X601980Y349250D01*
X614437Y339333D02*
X614680Y339090D01*
X614437Y349265D02*
X628635D01*
X628650Y349280D01*
X549910Y349370D02*
X562490D01*
X182560Y67820D02*
Y70520D01*
X171854Y81226D02*
X182560Y70520D01*
X171854Y81226D02*
Y100130D01*
X180340Y108616D01*
Y108624D01*
X171310Y62020D02*
Y62523D01*
X173708Y64920D01*
X181465D01*
X182560Y66015D01*
Y67820D01*
X257810Y62020D02*
Y62523D01*
X255413Y64920D02*
X257810Y62523D01*
X247655Y64920D02*
X255413D01*
X246560Y66015D02*
X247655Y64920D01*
X252730Y109051D02*
Y109059D01*
Y109051D02*
X261216Y100566D01*
Y85176D02*
Y100566D01*
X246560Y70520D02*
X261216Y85176D01*
X246560Y67820D02*
Y70520D01*
X121680Y47782D02*
Y52227D01*
X134763Y54845D02*
X139275Y59357D01*
X121680Y52227D02*
X124298Y54845D01*
X139275Y59357D02*
Y65735D01*
X124298Y54845D02*
X134763D01*
X139275Y65735D02*
X142120Y68580D01*
X415290Y143166D02*
Y143510D01*
Y143166D02*
X419545Y138911D01*
Y135955D02*
X421441Y134059D01*
X421931D01*
X430260Y125730D01*
X431760D01*
X419545Y135955D02*
Y138911D01*
X149330Y135000D02*
Y176926D01*
X151130Y178726D01*
Y179070D01*
X471170Y334010D02*
X481330Y323850D01*
X471170Y334010D02*
Y343496D01*
X162030Y138000D02*
X167055Y143025D01*
X162030Y135000D02*
Y138000D01*
X167055Y143025D02*
Y143815D01*
X176667Y153427D02*
X177557D01*
X177800Y153670D01*
X167055Y143815D02*
X176667Y153427D01*
X123930Y135000D02*
X124217Y134713D01*
Y120484D02*
Y134713D01*
X128788Y115570D02*
Y115914D01*
X124217Y120484D02*
X128788Y115914D01*
X442425Y150325D02*
X449580Y157480D01*
X437355Y150325D02*
X442425D01*
X431760Y144730D02*
X437355Y150325D01*
X178764Y122544D02*
X184835Y128615D01*
Y132405D02*
X187430Y135000D01*
X184835Y128615D02*
Y132405D01*
X147320Y115570D02*
X154294Y122544D01*
X178764D01*
X136630Y183620D02*
Y310000D01*
X116840Y163830D02*
X136630Y183620D01*
X86360Y163830D02*
X116840D01*
X111680Y47782D02*
X113077Y46385D01*
X117475Y28113D02*
Y32847D01*
X113077Y37245D02*
Y46385D01*
Y37245D02*
X117475Y32847D01*
X112222Y22860D02*
X117475Y28113D01*
X99060Y22860D02*
X112222D01*
X290830Y213016D02*
X293370Y215556D01*
X290830Y209550D02*
Y213016D01*
X293370Y215556D02*
Y215900D01*
X284605Y203325D02*
X290830Y209550D01*
X263555Y203325D02*
X284605D01*
X463550Y273050D02*
Y288530D01*
X448070Y304010D02*
X463550Y288530D01*
X222000Y203450D02*
X263430D01*
X189230Y236220D02*
X222000Y203450D01*
X170180Y236220D02*
X189230D01*
X443570Y304010D02*
X448070D01*
X263430Y203450D02*
X263555Y203325D01*
X123987Y181787D02*
Y309943D01*
X123930Y310000D02*
X123987Y309943D01*
Y181787D02*
X124044Y181730D01*
X101680Y47782D02*
X103077Y46385D01*
Y36967D02*
X107950Y32094D01*
X103077Y36967D02*
Y46385D01*
X107950Y31750D02*
Y32094D01*
X137665Y170287D02*
Y170630D01*
X136630Y135000D02*
Y169252D01*
X137665Y170287D01*
X263430Y216150D02*
X263555Y216025D01*
X186827Y150887D02*
X188987D01*
X189230Y151130D01*
X177325Y141385D02*
X186827Y150887D01*
X174730Y135000D02*
X177325Y137595D01*
Y141385D01*
X213481Y108624D02*
X224168Y119312D01*
X239072Y132460D02*
X240770D01*
X236017Y125867D02*
Y129405D01*
X233785Y123635D02*
X236017Y125867D01*
X235983Y116015D02*
X236941D01*
X236017Y129405D02*
X239072Y132460D01*
X238230Y135000D02*
X240770Y132460D01*
X236941Y116015D02*
X248390Y127464D01*
X232827Y123635D02*
X233785D01*
X228600Y108632D02*
X235983Y116015D01*
X227914Y118722D02*
X232827Y123635D01*
X248390Y132460D02*
X250930Y135000D01*
X224168Y119312D02*
X224758Y118722D01*
X248390Y127464D02*
Y132460D01*
X204470Y108624D02*
X213481D01*
X224758Y118722D02*
X227914D01*
X228600Y108624D02*
Y108632D01*
X294640Y55880D02*
X323850Y85090D01*
X403342D01*
X285750Y55880D02*
X294640D01*
X281940Y59690D02*
Y137140D01*
Y59690D02*
X285750Y55880D01*
X266430Y152650D02*
X281940Y137140D01*
X403342Y85090D02*
X414435Y73997D01*
Y73997D02*
X430955Y57477D01*
X414435Y73997D02*
Y73997D01*
X430955Y33747D02*
Y57477D01*
X438030Y24670D02*
Y28670D01*
X430955Y33747D02*
X433187Y31515D01*
X435185D01*
X438030Y28670D01*
X263430Y152650D02*
X266430D01*
X461693Y39662D02*
X461732Y39623D01*
Y14301D02*
Y39623D01*
Y14301D02*
X461771Y14262D01*
X438030Y24670D02*
X448438Y14262D01*
X461771D01*
D58*
X240105Y403935D02*
X295495D01*
D59*
X156030Y193500D02*
D03*
X163030Y200500D02*
D03*
X170030Y193500D02*
D03*
X149030Y200500D02*
D03*
Y214500D02*
D03*
X156030Y207500D02*
D03*
Y221500D02*
D03*
X163030Y214500D02*
D03*
X170030Y207500D02*
D03*
X177030Y200500D02*
D03*
Y214500D02*
D03*
X170030Y221500D02*
D03*
D60*
X552450Y135890D02*
D03*
X99060Y120650D02*
D03*
X179982Y358915D02*
D03*
X373871Y114051D02*
D03*
X576580Y125730D02*
D03*
Y139700D02*
D03*
X469900Y154940D02*
D03*
X675640Y420050D02*
D03*
X199814Y167599D02*
D03*
X365760Y175260D02*
D03*
X374884Y163274D02*
D03*
X341630Y26670D02*
D03*
X562610Y68580D02*
D03*
X571500D02*
D03*
Y36830D02*
D03*
X580390Y68580D02*
D03*
X607390Y71755D02*
D03*
X608450Y139065D02*
D03*
X610870Y104140D02*
D03*
X393985Y353651D02*
D03*
X408940Y302260D02*
D03*
X111760Y326390D02*
D03*
X501650Y323850D02*
D03*
X477520Y81280D02*
D03*
X114300Y279400D02*
D03*
X529590Y337820D02*
D03*
X262890Y320040D02*
D03*
X311150Y292100D02*
D03*
X412750Y163830D02*
D03*
X327660Y175260D02*
D03*
X299720Y180340D02*
D03*
X403860Y175260D02*
D03*
X311150Y59690D02*
D03*
X609103Y13994D02*
D03*
X515620Y24130D02*
D03*
X535940Y10160D02*
D03*
X501650Y7620D02*
D03*
X642500Y137795D02*
D03*
X623570Y410210D02*
D03*
X614680Y339090D02*
D03*
X632460Y165100D02*
D03*
X642620Y72390D02*
D03*
X68580Y127000D02*
D03*
X113030Y364490D02*
D03*
X16510Y110490D02*
D03*
X147320Y387350D02*
D03*
X96520Y443230D02*
D03*
X510540Y332740D02*
D03*
X525145Y167640D02*
D03*
X572770Y318770D02*
D03*
X424180Y262890D02*
D03*
X632460Y44450D02*
D03*
Y110490D02*
D03*
Y99060D02*
D03*
X403515Y75937D02*
D03*
X342657Y111692D02*
D03*
X415290Y87630D02*
D03*
X223520Y354330D02*
D03*
X86360Y323850D02*
D03*
X293370Y72390D02*
D03*
X71120Y105410D02*
D03*
X168910Y160020D02*
D03*
X71120Y80010D02*
D03*
X97790Y147320D02*
D03*
X415290Y143510D02*
D03*
X481330Y323850D02*
D03*
X151130Y179070D02*
D03*
X308610Y245110D02*
D03*
X130810Y328930D02*
D03*
X177800Y153670D02*
D03*
X128788Y115570D02*
D03*
X347980Y245110D02*
D03*
X280670Y234950D02*
D03*
X595630Y27940D02*
D03*
X506724Y300542D02*
D03*
X575310Y307340D02*
D03*
X488707Y29244D02*
D03*
X554990Y124460D02*
D03*
X499110Y83820D02*
D03*
X280670Y226060D02*
D03*
X414020Y276860D02*
D03*
X449580Y157480D02*
D03*
X147320Y115570D02*
D03*
X479394Y300918D02*
D03*
X233680Y148590D02*
D03*
X99060Y22860D02*
D03*
X86360Y163830D02*
D03*
X181610Y243840D02*
D03*
X293370Y215900D02*
D03*
X463550Y273050D02*
D03*
X170180Y236220D02*
D03*
X124044Y181730D02*
D03*
X107950Y31750D02*
D03*
X293370Y22860D02*
D03*
X218440Y151130D02*
D03*
X137665Y170630D02*
D03*
X298857Y195724D02*
D03*
X187960Y326390D02*
D03*
X279400Y216027D02*
D03*
X461010Y311150D02*
D03*
X154940Y265430D02*
D03*
X189230Y151130D02*
D03*
X200660Y149860D02*
D03*
X299720Y33020D02*
D03*
X229870Y81280D02*
D03*
X209550Y52070D02*
D03*
X200660Y328930D02*
D03*
X218440Y52070D02*
D03*
X200660Y81280D02*
D03*
X248920Y177800D02*
D03*
M02*
